<?xml version="1.0" encoding="utf-8" standalone="no"?>
<!DOCTYPE svg PUBLIC "-//W3C//DTD SVG 1.1//EN"
  "http://www.w3.org/Graphics/SVG/1.1/DTD/svg11.dtd">
<svg xmlns:xlink="http://www.w3.org/1999/xlink" width="467.155625pt" height="314.667469pt" viewBox="0 0 467.155625 314.667469" xmlns="http://www.w3.org/2000/svg" version="1.1">
 <metadata>
  <rdf:RDF xmlns:dc="http://purl.org/dc/elements/1.1/" xmlns:cc="http://creativecommons.org/ns#" xmlns:rdf="http://www.w3.org/1999/02/22-rdf-syntax-ns#">
   <cc:Work>
    <dc:type rdf:resource="http://purl.org/dc/dcmitype/StillImage"/>
    <dc:date>2024-12-18T14:35:43.020884</dc:date>
    <dc:format>image/svg+xml</dc:format>
    <dc:creator>
     <cc:Agent>
      <dc:title>Matplotlib v3.7.2, https://matplotlib.org/</dc:title>
     </cc:Agent>
    </dc:creator>
   </cc:Work>
  </rdf:RDF>
 </metadata>
 <defs>
  <style type="text/css">*{stroke-linejoin: round; stroke-linecap: butt}</style>
 </defs>
 <g id="figure_1">
  <g id="patch_1">
   <path d="M 0 314.667469 
L 467.155625 314.667469 
L 467.155625 0 
L 0 0 
z
" style="fill: #ffffff"/>
  </g>
  <g id="axes_1">
   <g id="patch_2">
    <path d="M 50.14375 277.111219 
L 407.26375 277.111219 
L 407.26375 10.999219 
L 50.14375 10.999219 
z
" style="fill: #ffffff"/>
   </g>
   <g id="matplotlib.axis_1">
    <g id="xtick_1">
     <g id="line2d_1">
      <defs>
       <path id="m6ae30574eb" d="M 0 0 
L 0 3.5 
" style="stroke: #000000; stroke-width: 0.8"/>
      </defs>
      <g>
       <use xlink:href="#m6ae30574eb" x="139.42375" y="277.111219" style="stroke: #000000; stroke-width: 0.8"/>
      </g>
     </g>
     <g id="text_1">
      <!-- interphase -->
      <g transform="translate(112.685469 291.709656) scale(0.1 -0.1)">
       <defs>
        <path id="DejaVuSans-69" d="M 603 3500 
L 1178 3500 
L 1178 0 
L 603 0 
L 603 3500 
z
M 603 4863 
L 1178 4863 
L 1178 4134 
L 603 4134 
L 603 4863 
z
" transform="scale(0.015625)"/>
        <path id="DejaVuSans-6e" d="M 3513 2113 
L 3513 0 
L 2938 0 
L 2938 2094 
Q 2938 2591 2744 2837 
Q 2550 3084 2163 3084 
Q 1697 3084 1428 2787 
Q 1159 2491 1159 1978 
L 1159 0 
L 581 0 
L 581 3500 
L 1159 3500 
L 1159 2956 
Q 1366 3272 1645 3428 
Q 1925 3584 2291 3584 
Q 2894 3584 3203 3211 
Q 3513 2838 3513 2113 
z
" transform="scale(0.015625)"/>
        <path id="DejaVuSans-74" d="M 1172 4494 
L 1172 3500 
L 2356 3500 
L 2356 3053 
L 1172 3053 
L 1172 1153 
Q 1172 725 1289 603 
Q 1406 481 1766 481 
L 2356 481 
L 2356 0 
L 1766 0 
Q 1100 0 847 248 
Q 594 497 594 1153 
L 594 3053 
L 172 3053 
L 172 3500 
L 594 3500 
L 594 4494 
L 1172 4494 
z
" transform="scale(0.015625)"/>
        <path id="DejaVuSans-65" d="M 3597 1894 
L 3597 1613 
L 953 1613 
Q 991 1019 1311 708 
Q 1631 397 2203 397 
Q 2534 397 2845 478 
Q 3156 559 3463 722 
L 3463 178 
Q 3153 47 2828 -22 
Q 2503 -91 2169 -91 
Q 1331 -91 842 396 
Q 353 884 353 1716 
Q 353 2575 817 3079 
Q 1281 3584 2069 3584 
Q 2775 3584 3186 3129 
Q 3597 2675 3597 1894 
z
M 3022 2063 
Q 3016 2534 2758 2815 
Q 2500 3097 2075 3097 
Q 1594 3097 1305 2825 
Q 1016 2553 972 2059 
L 3022 2063 
z
" transform="scale(0.015625)"/>
        <path id="DejaVuSans-72" d="M 2631 2963 
Q 2534 3019 2420 3045 
Q 2306 3072 2169 3072 
Q 1681 3072 1420 2755 
Q 1159 2438 1159 1844 
L 1159 0 
L 581 0 
L 581 3500 
L 1159 3500 
L 1159 2956 
Q 1341 3275 1631 3429 
Q 1922 3584 2338 3584 
Q 2397 3584 2469 3576 
Q 2541 3569 2628 3553 
L 2631 2963 
z
" transform="scale(0.015625)"/>
        <path id="DejaVuSans-70" d="M 1159 525 
L 1159 -1331 
L 581 -1331 
L 581 3500 
L 1159 3500 
L 1159 2969 
Q 1341 3281 1617 3432 
Q 1894 3584 2278 3584 
Q 2916 3584 3314 3078 
Q 3713 2572 3713 1747 
Q 3713 922 3314 415 
Q 2916 -91 2278 -91 
Q 1894 -91 1617 61 
Q 1341 213 1159 525 
z
M 3116 1747 
Q 3116 2381 2855 2742 
Q 2594 3103 2138 3103 
Q 1681 3103 1420 2742 
Q 1159 2381 1159 1747 
Q 1159 1113 1420 752 
Q 1681 391 2138 391 
Q 2594 391 2855 752 
Q 3116 1113 3116 1747 
z
" transform="scale(0.015625)"/>
        <path id="DejaVuSans-68" d="M 3513 2113 
L 3513 0 
L 2938 0 
L 2938 2094 
Q 2938 2591 2744 2837 
Q 2550 3084 2163 3084 
Q 1697 3084 1428 2787 
Q 1159 2491 1159 1978 
L 1159 0 
L 581 0 
L 581 4863 
L 1159 4863 
L 1159 2956 
Q 1366 3272 1645 3428 
Q 1925 3584 2291 3584 
Q 2894 3584 3203 3211 
Q 3513 2838 3513 2113 
z
" transform="scale(0.015625)"/>
        <path id="DejaVuSans-61" d="M 2194 1759 
Q 1497 1759 1228 1600 
Q 959 1441 959 1056 
Q 959 750 1161 570 
Q 1363 391 1709 391 
Q 2188 391 2477 730 
Q 2766 1069 2766 1631 
L 2766 1759 
L 2194 1759 
z
M 3341 1997 
L 3341 0 
L 2766 0 
L 2766 531 
Q 2569 213 2275 61 
Q 1981 -91 1556 -91 
Q 1019 -91 701 211 
Q 384 513 384 1019 
Q 384 1609 779 1909 
Q 1175 2209 1959 2209 
L 2766 2209 
L 2766 2266 
Q 2766 2663 2505 2880 
Q 2244 3097 1772 3097 
Q 1472 3097 1187 3025 
Q 903 2953 641 2809 
L 641 3341 
Q 956 3463 1253 3523 
Q 1550 3584 1831 3584 
Q 2591 3584 2966 3190 
Q 3341 2797 3341 1997 
z
" transform="scale(0.015625)"/>
        <path id="DejaVuSans-73" d="M 2834 3397 
L 2834 2853 
Q 2591 2978 2328 3040 
Q 2066 3103 1784 3103 
Q 1356 3103 1142 2972 
Q 928 2841 928 2578 
Q 928 2378 1081 2264 
Q 1234 2150 1697 2047 
L 1894 2003 
Q 2506 1872 2764 1633 
Q 3022 1394 3022 966 
Q 3022 478 2636 193 
Q 2250 -91 1575 -91 
Q 1294 -91 989 -36 
Q 684 19 347 128 
L 347 722 
Q 666 556 975 473 
Q 1284 391 1588 391 
Q 1994 391 2212 530 
Q 2431 669 2431 922 
Q 2431 1156 2273 1281 
Q 2116 1406 1581 1522 
L 1381 1569 
Q 847 1681 609 1914 
Q 372 2147 372 2553 
Q 372 3047 722 3315 
Q 1072 3584 1716 3584 
Q 2034 3584 2315 3537 
Q 2597 3491 2834 3397 
z
" transform="scale(0.015625)"/>
       </defs>
       <use xlink:href="#DejaVuSans-69"/>
       <use xlink:href="#DejaVuSans-6e" x="27.783203"/>
       <use xlink:href="#DejaVuSans-74" x="91.162109"/>
       <use xlink:href="#DejaVuSans-65" x="130.371094"/>
       <use xlink:href="#DejaVuSans-72" x="191.894531"/>
       <use xlink:href="#DejaVuSans-70" x="233.007812"/>
       <use xlink:href="#DejaVuSans-68" x="296.484375"/>
       <use xlink:href="#DejaVuSans-61" x="359.863281"/>
       <use xlink:href="#DejaVuSans-73" x="421.142578"/>
       <use xlink:href="#DejaVuSans-65" x="473.242188"/>
      </g>
     </g>
    </g>
    <g id="xtick_2">
     <g id="line2d_2">
      <g>
       <use xlink:href="#m6ae30574eb" x="317.98375" y="277.111219" style="stroke: #000000; stroke-width: 0.8"/>
      </g>
     </g>
     <g id="text_2">
      <!-- prometaphase -->
      <g transform="translate(281.747813 291.709656) scale(0.1 -0.1)">
       <defs>
        <path id="DejaVuSans-6f" d="M 1959 3097 
Q 1497 3097 1228 2736 
Q 959 2375 959 1747 
Q 959 1119 1226 758 
Q 1494 397 1959 397 
Q 2419 397 2687 759 
Q 2956 1122 2956 1747 
Q 2956 2369 2687 2733 
Q 2419 3097 1959 3097 
z
M 1959 3584 
Q 2709 3584 3137 3096 
Q 3566 2609 3566 1747 
Q 3566 888 3137 398 
Q 2709 -91 1959 -91 
Q 1206 -91 779 398 
Q 353 888 353 1747 
Q 353 2609 779 3096 
Q 1206 3584 1959 3584 
z
" transform="scale(0.015625)"/>
        <path id="DejaVuSans-6d" d="M 3328 2828 
Q 3544 3216 3844 3400 
Q 4144 3584 4550 3584 
Q 5097 3584 5394 3201 
Q 5691 2819 5691 2113 
L 5691 0 
L 5113 0 
L 5113 2094 
Q 5113 2597 4934 2840 
Q 4756 3084 4391 3084 
Q 3944 3084 3684 2787 
Q 3425 2491 3425 1978 
L 3425 0 
L 2847 0 
L 2847 2094 
Q 2847 2600 2669 2842 
Q 2491 3084 2119 3084 
Q 1678 3084 1418 2786 
Q 1159 2488 1159 1978 
L 1159 0 
L 581 0 
L 581 3500 
L 1159 3500 
L 1159 2956 
Q 1356 3278 1631 3431 
Q 1906 3584 2284 3584 
Q 2666 3584 2933 3390 
Q 3200 3197 3328 2828 
z
" transform="scale(0.015625)"/>
       </defs>
       <use xlink:href="#DejaVuSans-70"/>
       <use xlink:href="#DejaVuSans-72" x="63.476562"/>
       <use xlink:href="#DejaVuSans-6f" x="102.339844"/>
       <use xlink:href="#DejaVuSans-6d" x="163.521484"/>
       <use xlink:href="#DejaVuSans-65" x="260.933594"/>
       <use xlink:href="#DejaVuSans-74" x="322.457031"/>
       <use xlink:href="#DejaVuSans-61" x="361.666016"/>
       <use xlink:href="#DejaVuSans-70" x="422.945312"/>
       <use xlink:href="#DejaVuSans-68" x="486.421875"/>
       <use xlink:href="#DejaVuSans-61" x="549.800781"/>
       <use xlink:href="#DejaVuSans-73" x="611.080078"/>
       <use xlink:href="#DejaVuSans-65" x="663.179688"/>
      </g>
     </g>
    </g>
    <g id="text_3">
     <!-- phase -->
     <g transform="translate(213.615469 305.387781) scale(0.1 -0.1)">
      <use xlink:href="#DejaVuSans-70"/>
      <use xlink:href="#DejaVuSans-68" x="63.476562"/>
      <use xlink:href="#DejaVuSans-61" x="126.855469"/>
      <use xlink:href="#DejaVuSans-73" x="188.134766"/>
      <use xlink:href="#DejaVuSans-65" x="240.234375"/>
     </g>
    </g>
   </g>
   <g id="matplotlib.axis_2">
    <g id="ytick_1">
     <g id="line2d_3">
      <defs>
       <path id="m4c7e54ae2d" d="M 0 0 
L -3.5 0 
" style="stroke: #000000; stroke-width: 0.8"/>
      </defs>
      <g>
       <use xlink:href="#m4c7e54ae2d" x="50.14375" y="277.111219" style="stroke: #000000; stroke-width: 0.8"/>
      </g>
     </g>
     <g id="text_4">
      <!-- 0.0 -->
      <g transform="translate(27.240625 280.910437) scale(0.1 -0.1)">
       <defs>
        <path id="DejaVuSans-30" d="M 2034 4250 
Q 1547 4250 1301 3770 
Q 1056 3291 1056 2328 
Q 1056 1369 1301 889 
Q 1547 409 2034 409 
Q 2525 409 2770 889 
Q 3016 1369 3016 2328 
Q 3016 3291 2770 3770 
Q 2525 4250 2034 4250 
z
M 2034 4750 
Q 2819 4750 3233 4129 
Q 3647 3509 3647 2328 
Q 3647 1150 3233 529 
Q 2819 -91 2034 -91 
Q 1250 -91 836 529 
Q 422 1150 422 2328 
Q 422 3509 836 4129 
Q 1250 4750 2034 4750 
z
" transform="scale(0.015625)"/>
        <path id="DejaVuSans-2e" d="M 684 794 
L 1344 794 
L 1344 0 
L 684 0 
L 684 794 
z
" transform="scale(0.015625)"/>
       </defs>
       <use xlink:href="#DejaVuSans-30"/>
       <use xlink:href="#DejaVuSans-2e" x="63.623047"/>
       <use xlink:href="#DejaVuSans-30" x="95.410156"/>
      </g>
     </g>
    </g>
    <g id="ytick_2">
     <g id="line2d_4">
      <g>
       <use xlink:href="#m4c7e54ae2d" x="50.14375" y="243.847219" style="stroke: #000000; stroke-width: 0.8"/>
      </g>
     </g>
     <g id="text_5">
      <!-- 2.5 -->
      <g transform="translate(27.240625 247.646437) scale(0.1 -0.1)">
       <defs>
        <path id="DejaVuSans-32" d="M 1228 531 
L 3431 531 
L 3431 0 
L 469 0 
L 469 531 
Q 828 903 1448 1529 
Q 2069 2156 2228 2338 
Q 2531 2678 2651 2914 
Q 2772 3150 2772 3378 
Q 2772 3750 2511 3984 
Q 2250 4219 1831 4219 
Q 1534 4219 1204 4116 
Q 875 4013 500 3803 
L 500 4441 
Q 881 4594 1212 4672 
Q 1544 4750 1819 4750 
Q 2544 4750 2975 4387 
Q 3406 4025 3406 3419 
Q 3406 3131 3298 2873 
Q 3191 2616 2906 2266 
Q 2828 2175 2409 1742 
Q 1991 1309 1228 531 
z
" transform="scale(0.015625)"/>
        <path id="DejaVuSans-35" d="M 691 4666 
L 3169 4666 
L 3169 4134 
L 1269 4134 
L 1269 2991 
Q 1406 3038 1543 3061 
Q 1681 3084 1819 3084 
Q 2600 3084 3056 2656 
Q 3513 2228 3513 1497 
Q 3513 744 3044 326 
Q 2575 -91 1722 -91 
Q 1428 -91 1123 -41 
Q 819 9 494 109 
L 494 744 
Q 775 591 1075 516 
Q 1375 441 1709 441 
Q 2250 441 2565 725 
Q 2881 1009 2881 1497 
Q 2881 1984 2565 2268 
Q 2250 2553 1709 2553 
Q 1456 2553 1204 2497 
Q 953 2441 691 2322 
L 691 4666 
z
" transform="scale(0.015625)"/>
       </defs>
       <use xlink:href="#DejaVuSans-32"/>
       <use xlink:href="#DejaVuSans-2e" x="63.623047"/>
       <use xlink:href="#DejaVuSans-35" x="95.410156"/>
      </g>
     </g>
    </g>
    <g id="ytick_3">
     <g id="line2d_5">
      <g>
       <use xlink:href="#m4c7e54ae2d" x="50.14375" y="210.583219" style="stroke: #000000; stroke-width: 0.8"/>
      </g>
     </g>
     <g id="text_6">
      <!-- 5.0 -->
      <g transform="translate(27.240625 214.382437) scale(0.1 -0.1)">
       <use xlink:href="#DejaVuSans-35"/>
       <use xlink:href="#DejaVuSans-2e" x="63.623047"/>
       <use xlink:href="#DejaVuSans-30" x="95.410156"/>
      </g>
     </g>
    </g>
    <g id="ytick_4">
     <g id="line2d_6">
      <g>
       <use xlink:href="#m4c7e54ae2d" x="50.14375" y="177.319219" style="stroke: #000000; stroke-width: 0.8"/>
      </g>
     </g>
     <g id="text_7">
      <!-- 7.5 -->
      <g transform="translate(27.240625 181.118437) scale(0.1 -0.1)">
       <defs>
        <path id="DejaVuSans-37" d="M 525 4666 
L 3525 4666 
L 3525 4397 
L 1831 0 
L 1172 0 
L 2766 4134 
L 525 4134 
L 525 4666 
z
" transform="scale(0.015625)"/>
       </defs>
       <use xlink:href="#DejaVuSans-37"/>
       <use xlink:href="#DejaVuSans-2e" x="63.623047"/>
       <use xlink:href="#DejaVuSans-35" x="95.410156"/>
      </g>
     </g>
    </g>
    <g id="ytick_5">
     <g id="line2d_7">
      <g>
       <use xlink:href="#m4c7e54ae2d" x="50.14375" y="144.055219" style="stroke: #000000; stroke-width: 0.8"/>
      </g>
     </g>
     <g id="text_8">
      <!-- 10.0 -->
      <g transform="translate(20.878125 147.854437) scale(0.1 -0.1)">
       <defs>
        <path id="DejaVuSans-31" d="M 794 531 
L 1825 531 
L 1825 4091 
L 703 3866 
L 703 4441 
L 1819 4666 
L 2450 4666 
L 2450 531 
L 3481 531 
L 3481 0 
L 794 0 
L 794 531 
z
" transform="scale(0.015625)"/>
       </defs>
       <use xlink:href="#DejaVuSans-31"/>
       <use xlink:href="#DejaVuSans-30" x="63.623047"/>
       <use xlink:href="#DejaVuSans-2e" x="127.246094"/>
       <use xlink:href="#DejaVuSans-30" x="159.033203"/>
      </g>
     </g>
    </g>
    <g id="ytick_6">
     <g id="line2d_8">
      <g>
       <use xlink:href="#m4c7e54ae2d" x="50.14375" y="110.791219" style="stroke: #000000; stroke-width: 0.8"/>
      </g>
     </g>
     <g id="text_9">
      <!-- 12.5 -->
      <g transform="translate(20.878125 114.590437) scale(0.1 -0.1)">
       <use xlink:href="#DejaVuSans-31"/>
       <use xlink:href="#DejaVuSans-32" x="63.623047"/>
       <use xlink:href="#DejaVuSans-2e" x="127.246094"/>
       <use xlink:href="#DejaVuSans-35" x="159.033203"/>
      </g>
     </g>
    </g>
    <g id="ytick_7">
     <g id="line2d_9">
      <g>
       <use xlink:href="#m4c7e54ae2d" x="50.14375" y="77.527219" style="stroke: #000000; stroke-width: 0.8"/>
      </g>
     </g>
     <g id="text_10">
      <!-- 15.0 -->
      <g transform="translate(20.878125 81.326437) scale(0.1 -0.1)">
       <use xlink:href="#DejaVuSans-31"/>
       <use xlink:href="#DejaVuSans-35" x="63.623047"/>
       <use xlink:href="#DejaVuSans-2e" x="127.246094"/>
       <use xlink:href="#DejaVuSans-30" x="159.033203"/>
      </g>
     </g>
    </g>
    <g id="ytick_8">
     <g id="line2d_10">
      <g>
       <use xlink:href="#m4c7e54ae2d" x="50.14375" y="44.263219" style="stroke: #000000; stroke-width: 0.8"/>
      </g>
     </g>
     <g id="text_11">
      <!-- 17.5 -->
      <g transform="translate(20.878125 48.062437) scale(0.1 -0.1)">
       <use xlink:href="#DejaVuSans-31"/>
       <use xlink:href="#DejaVuSans-37" x="63.623047"/>
       <use xlink:href="#DejaVuSans-2e" x="127.246094"/>
       <use xlink:href="#DejaVuSans-35" x="159.033203"/>
      </g>
     </g>
    </g>
    <g id="ytick_9">
     <g id="line2d_11">
      <g>
       <use xlink:href="#m4c7e54ae2d" x="50.14375" y="10.999219" style="stroke: #000000; stroke-width: 0.8"/>
      </g>
     </g>
     <g id="text_12">
      <!-- 20.0 -->
      <g transform="translate(20.878125 14.798437) scale(0.1 -0.1)">
       <use xlink:href="#DejaVuSans-32"/>
       <use xlink:href="#DejaVuSans-30" x="63.623047"/>
       <use xlink:href="#DejaVuSans-2e" x="127.246094"/>
       <use xlink:href="#DejaVuSans-30" x="159.033203"/>
      </g>
     </g>
    </g>
    <g id="text_13">
     <!-- AC/Cyto interphase -->
     <g transform="translate(14.798438 192.361469) rotate(-90) scale(0.1 -0.1)">
      <defs>
       <path id="DejaVuSans-41" d="M 2188 4044 
L 1331 1722 
L 3047 1722 
L 2188 4044 
z
M 1831 4666 
L 2547 4666 
L 4325 0 
L 3669 0 
L 3244 1197 
L 1141 1197 
L 716 0 
L 50 0 
L 1831 4666 
z
" transform="scale(0.015625)"/>
       <path id="DejaVuSans-43" d="M 4122 4306 
L 4122 3641 
Q 3803 3938 3442 4084 
Q 3081 4231 2675 4231 
Q 1875 4231 1450 3742 
Q 1025 3253 1025 2328 
Q 1025 1406 1450 917 
Q 1875 428 2675 428 
Q 3081 428 3442 575 
Q 3803 722 4122 1019 
L 4122 359 
Q 3791 134 3420 21 
Q 3050 -91 2638 -91 
Q 1578 -91 968 557 
Q 359 1206 359 2328 
Q 359 3453 968 4101 
Q 1578 4750 2638 4750 
Q 3056 4750 3426 4639 
Q 3797 4528 4122 4306 
z
" transform="scale(0.015625)"/>
       <path id="DejaVuSans-2f" d="M 1625 4666 
L 2156 4666 
L 531 -594 
L 0 -594 
L 1625 4666 
z
" transform="scale(0.015625)"/>
       <path id="DejaVuSans-79" d="M 2059 -325 
Q 1816 -950 1584 -1140 
Q 1353 -1331 966 -1331 
L 506 -1331 
L 506 -850 
L 844 -850 
Q 1081 -850 1212 -737 
Q 1344 -625 1503 -206 
L 1606 56 
L 191 3500 
L 800 3500 
L 1894 763 
L 2988 3500 
L 3597 3500 
L 2059 -325 
z
" transform="scale(0.015625)"/>
       <path id="DejaVuSans-20" transform="scale(0.015625)"/>
      </defs>
      <use xlink:href="#DejaVuSans-41"/>
      <use xlink:href="#DejaVuSans-43" x="66.658203"/>
      <use xlink:href="#DejaVuSans-2f" x="136.482422"/>
      <use xlink:href="#DejaVuSans-43" x="170.173828"/>
      <use xlink:href="#DejaVuSans-79" x="239.998047"/>
      <use xlink:href="#DejaVuSans-74" x="299.177734"/>
      <use xlink:href="#DejaVuSans-6f" x="338.386719"/>
      <use xlink:href="#DejaVuSans-20" x="399.568359"/>
      <use xlink:href="#DejaVuSans-69" x="431.355469"/>
      <use xlink:href="#DejaVuSans-6e" x="459.138672"/>
      <use xlink:href="#DejaVuSans-74" x="522.517578"/>
      <use xlink:href="#DejaVuSans-65" x="561.726562"/>
      <use xlink:href="#DejaVuSans-72" x="623.25"/>
      <use xlink:href="#DejaVuSans-70" x="664.363281"/>
      <use xlink:href="#DejaVuSans-68" x="727.839844"/>
      <use xlink:href="#DejaVuSans-61" x="791.21875"/>
      <use xlink:href="#DejaVuSans-73" x="852.498047"/>
      <use xlink:href="#DejaVuSans-65" x="904.597656"/>
     </g>
    </g>
   </g>
   <g id="patch_3">
    <path d="M 67.99975 213.002319 
L 139.42375 213.002319 
L 139.42375 174.365954 
L 67.99975 174.365954 
L 67.99975 213.002319 
z
" clip-path="url(#p5ec053acb6)" style="fill: #ffffff; stroke: #999999; stroke-linejoin: miter"/>
   </g>
   <g id="line2d_12">
    <path d="M 103.71175 213.002319 
L 103.71175 230.07747 
" clip-path="url(#p5ec053acb6)" style="fill: none; stroke: #999999"/>
   </g>
   <g id="line2d_13">
    <path d="M 103.71175 174.365954 
L 103.71175 119.218099 
" clip-path="url(#p5ec053acb6)" style="fill: none; stroke: #999999"/>
   </g>
   <g id="line2d_14">
    <path d="M 85.85575 230.07747 
L 121.56775 230.07747 
" clip-path="url(#p5ec053acb6)" style="fill: none; stroke: #999999; stroke-linecap: square"/>
   </g>
   <g id="line2d_15">
    <path d="M 85.85575 119.218099 
L 121.56775 119.218099 
" clip-path="url(#p5ec053acb6)" style="fill: none; stroke: #999999; stroke-linecap: square"/>
   </g>
   <g id="line2d_16"/>
   <g id="patch_4">
    <path d="M 246.55975 260.801996 
L 317.98375 260.801996 
L 317.98375 256.143575 
L 246.55975 256.143575 
L 246.55975 260.801996 
z
" clip-path="url(#p5ec053acb6)" style="fill: #ffffff; stroke: #999999; stroke-linejoin: miter"/>
   </g>
   <g id="line2d_17">
    <path d="M 282.27175 260.801996 
L 282.27175 261.97936 
" clip-path="url(#p5ec053acb6)" style="fill: none; stroke: #999999"/>
   </g>
   <g id="line2d_18">
    <path d="M 282.27175 256.143575 
L 282.27175 249.632262 
" clip-path="url(#p5ec053acb6)" style="fill: none; stroke: #999999"/>
   </g>
   <g id="line2d_19">
    <path d="M 264.41575 261.97936 
L 300.12775 261.97936 
" clip-path="url(#p5ec053acb6)" style="fill: none; stroke: #999999; stroke-linecap: square"/>
   </g>
   <g id="line2d_20">
    <path d="M 264.41575 249.632262 
L 300.12775 249.632262 
" clip-path="url(#p5ec053acb6)" style="fill: none; stroke: #999999; stroke-linecap: square"/>
   </g>
   <g id="line2d_21"/>
   <g id="patch_5">
    <path d="M 139.42375 237.452854 
L 210.84775 237.452854 
L 210.84775 196.14819 
L 139.42375 196.14819 
L 139.42375 237.452854 
z
" clip-path="url(#p5ec053acb6)" style="fill: #ffffff; stroke: #999999; stroke-linejoin: miter"/>
   </g>
   <g id="line2d_22">
    <path d="M 175.13575 237.452854 
L 175.13575 264.031137 
" clip-path="url(#p5ec053acb6)" style="fill: none; stroke: #999999"/>
   </g>
   <g id="line2d_23">
    <path d="M 175.13575 196.14819 
L 175.13575 155.748019 
" clip-path="url(#p5ec053acb6)" style="fill: none; stroke: #999999"/>
   </g>
   <g id="line2d_24">
    <path d="M 157.27975 264.031137 
L 192.99175 264.031137 
" clip-path="url(#p5ec053acb6)" style="fill: none; stroke: #999999; stroke-linecap: square"/>
   </g>
   <g id="line2d_25">
    <path d="M 157.27975 155.748019 
L 192.99175 155.748019 
" clip-path="url(#p5ec053acb6)" style="fill: none; stroke: #999999; stroke-linecap: square"/>
   </g>
   <g id="line2d_26">
    <defs>
     <path id="m2929473d48" d="M 0 3 
C 0.795609 3 1.55874 2.683901 2.12132 2.12132 
C 2.683901 1.55874 3 0.795609 3 0 
C 3 -0.795609 2.683901 -1.55874 2.12132 -2.12132 
C 1.55874 -2.683901 0.795609 -3 0 -3 
C -0.795609 -3 -1.55874 -2.683901 -2.12132 -2.12132 
C -2.683901 -1.55874 -3 -0.795609 -3 0 
C -3 0.795609 -2.683901 1.55874 -2.12132 2.12132 
C -1.55874 2.683901 -0.795609 3 0 3 
z
" style="stroke: #999999"/>
    </defs>
    <g clip-path="url(#p5ec053acb6)">
     <use xlink:href="#m2929473d48" x="175.13575" y="87.342825" style="fill-opacity: 0; stroke: #999999"/>
    </g>
   </g>
   <g id="patch_6">
    <path d="M 317.98375 257.962725 
L 389.40775 257.962725 
L 389.40775 235.697539 
L 317.98375 235.697539 
L 317.98375 257.962725 
z
" clip-path="url(#p5ec053acb6)" style="fill: #ffffff; stroke: #999999; stroke-linejoin: miter"/>
   </g>
   <g id="line2d_27">
    <path d="M 353.69575 257.962725 
L 353.69575 262.918579 
" clip-path="url(#p5ec053acb6)" style="fill: none; stroke: #999999"/>
   </g>
   <g id="line2d_28">
    <path d="M 353.69575 235.697539 
L 353.69575 227.492419 
" clip-path="url(#p5ec053acb6)" style="fill: none; stroke: #999999"/>
   </g>
   <g id="line2d_29">
    <path d="M 335.83975 262.918579 
L 371.55175 262.918579 
" clip-path="url(#p5ec053acb6)" style="fill: none; stroke: #999999; stroke-linecap: square"/>
   </g>
   <g id="line2d_30">
    <path d="M 335.83975 227.492419 
L 371.55175 227.492419 
" clip-path="url(#p5ec053acb6)" style="fill: none; stroke: #999999; stroke-linecap: square"/>
   </g>
   <g id="line2d_31">
    <g clip-path="url(#p5ec053acb6)">
     <use xlink:href="#m2929473d48" x="353.69575" y="199.273459" style="fill-opacity: 0; stroke: #999999"/>
    </g>
   </g>
   <g id="line2d_32">
    <path d="M 67.99975 191.654419 
L 139.42375 191.654419 
" clip-path="url(#p5ec053acb6)" style="fill: none; stroke: #999999"/>
   </g>
   <g id="line2d_33">
    <path d="M 246.55975 259.154695 
L 317.98375 259.154695 
" clip-path="url(#p5ec053acb6)" style="fill: none; stroke: #999999"/>
   </g>
   <g id="line2d_34">
    <path d="M 139.42375 220.96014 
L 210.84775 220.96014 
" clip-path="url(#p5ec053acb6)" style="fill: none; stroke: #999999"/>
   </g>
   <g id="line2d_35">
    <path d="M 317.98375 248.282419 
L 389.40775 248.282419 
" clip-path="url(#p5ec053acb6)" style="fill: none; stroke: #999999"/>
   </g>
   <g id="patch_7">
    <path d="M 50.14375 277.111219 
L 50.14375 10.999219 
" style="fill: none; stroke: #000000; stroke-width: 0.8; stroke-linejoin: miter; stroke-linecap: square"/>
   </g>
   <g id="patch_8">
    <path d="M 407.26375 277.111219 
L 407.26375 10.999219 
" style="fill: none; stroke: #000000; stroke-width: 0.8; stroke-linejoin: miter; stroke-linecap: square"/>
   </g>
   <g id="patch_9">
    <path d="M 50.14375 277.111219 
L 407.26375 277.111219 
" style="fill: none; stroke: #000000; stroke-width: 0.8; stroke-linejoin: miter; stroke-linecap: square"/>
   </g>
   <g id="patch_10">
    <path d="M 50.14375 10.999219 
L 407.26375 10.999219 
" style="fill: none; stroke: #000000; stroke-width: 0.8; stroke-linejoin: miter; stroke-linecap: square"/>
   </g>
   <g id="PathCollection_1">
    <defs>
     <path id="C0_0_afa851965d" d="M 0 5 
C 1.326016 5 2.597899 4.473168 3.535534 3.535534 
C 4.473168 2.597899 5 1.326016 5 -0 
C 5 -1.326016 4.473168 -2.597899 3.535534 -3.535534 
C 2.597899 -4.473168 1.326016 -5 0 -5 
C -1.326016 -5 -2.597899 -4.473168 -3.535534 -3.535534 
C -4.473168 -2.597899 -5 -1.326016 -5 0 
C -5 1.326016 -4.473168 2.597899 -3.535534 3.535534 
C -2.597899 4.473168 -1.326016 5 0 5 
z
"/>
    </defs>
    <g clip-path="url(#p5ec053acb6)">
     <use xlink:href="#C0_0_afa851965d" x="96.32148" y="189.357619" style="fill: #808080; stroke: #000000"/>
    </g>
    <g clip-path="url(#p5ec053acb6)">
     <use xlink:href="#C0_0_afa851965d" x="98.457115" y="230.07747" style="fill: #808080; stroke: #000000"/>
    </g>
    <g clip-path="url(#p5ec053acb6)">
     <use xlink:href="#C0_0_afa851965d" x="112.137208" y="193.951219" style="fill: #808080; stroke: #000000"/>
    </g>
    <g clip-path="url(#p5ec053acb6)">
     <use xlink:href="#C0_0_afa851965d" x="109.88043" y="218.753324" style="fill: #808080; stroke: #000000"/>
    </g>
    <g clip-path="url(#p5ec053acb6)">
     <use xlink:href="#C0_0_afa851965d" x="104.369913" y="136.870195" style="fill: #808080; stroke: #000000"/>
    </g>
    <g clip-path="url(#p5ec053acb6)">
     <use xlink:href="#C0_0_afa851965d" x="103.787722" y="211.085317" style="fill: #808080; stroke: #000000"/>
    </g>
    <g clip-path="url(#p5ec053acb6)">
     <use xlink:href="#C0_0_afa851965d" x="97.862658" y="186.86454" style="fill: #808080; stroke: #000000"/>
    </g>
    <g clip-path="url(#p5ec053acb6)">
     <use xlink:href="#C0_0_afa851965d" x="101.989698" y="119.218099" style="fill: #808080; stroke: #000000"/>
    </g>
   </g>
   <g id="PathCollection_2">
    <defs>
     <path id="C1_0_35946dcc64" d="M 0 5 
C 1.326016 5 2.597899 4.473168 3.535534 3.535534 
C 4.473168 2.597899 5 1.326016 5 -0 
C 5 -1.326016 4.473168 -2.597899 3.535534 -3.535534 
C 2.597899 -4.473168 1.326016 -5 0 -5 
C -1.326016 -5 -2.597899 -4.473168 -3.535534 -3.535534 
C -4.473168 -2.597899 -5 -1.326016 -5 0 
C -5 1.326016 -4.473168 2.597899 -3.535534 3.535534 
C -2.597899 4.473168 -1.326016 5 0 5 
z
"/>
    </defs>
    <g clip-path="url(#p5ec053acb6)">
     <use xlink:href="#C1_0_35946dcc64" x="179.382596" y="196.658754" style="fill: #3386ff; stroke: #000000"/>
    </g>
    <g clip-path="url(#p5ec053acb6)">
     <use xlink:href="#C1_0_35946dcc64" x="177.179323" y="237.460531" style="fill: #3386ff; stroke: #000000"/>
    </g>
    <g clip-path="url(#p5ec053acb6)">
     <use xlink:href="#C1_0_35946dcc64" x="181.034143" y="185.707532" style="fill: #3386ff; stroke: #000000"/>
    </g>
    <g clip-path="url(#p5ec053acb6)">
     <use xlink:href="#C1_0_35946dcc64" x="177.409278" y="204.469835" style="fill: #3386ff; stroke: #000000"/>
    </g>
    <g clip-path="url(#p5ec053acb6)">
     <use xlink:href="#C1_0_35946dcc64" x="175.445517" y="223.021062" style="fill: #3386ff; stroke: #000000"/>
    </g>
    <g clip-path="url(#p5ec053acb6)">
     <use xlink:href="#C1_0_35946dcc64" x="174.963658" y="226.106419" style="fill: #3386ff; stroke: #000000"/>
    </g>
    <g clip-path="url(#p5ec053acb6)">
     <use xlink:href="#C1_0_35946dcc64" x="176.745501" y="241.999219" style="fill: #3386ff; stroke: #000000"/>
    </g>
    <g clip-path="url(#p5ec053acb6)">
     <use xlink:href="#C1_0_35946dcc64" x="183.341872" y="184.859059" style="fill: #3386ff; stroke: #000000"/>
    </g>
    <g clip-path="url(#p5ec053acb6)">
     <use xlink:href="#C1_0_35946dcc64" x="174.98344" y="218.899219" style="fill: #3386ff; stroke: #000000"/>
    </g>
    <g clip-path="url(#p5ec053acb6)">
     <use xlink:href="#C1_0_35946dcc64" x="175.584172" y="194.616499" style="fill: #3386ff; stroke: #000000"/>
    </g>
    <g clip-path="url(#p5ec053acb6)">
     <use xlink:href="#C1_0_35946dcc64" x="168.987486" y="233.392819" style="fill: #3386ff; stroke: #000000"/>
    </g>
    <g clip-path="url(#p5ec053acb6)">
     <use xlink:href="#C1_0_35946dcc64" x="176.749405" y="237.450296" style="fill: #3386ff; stroke: #000000"/>
    </g>
    <g clip-path="url(#p5ec053acb6)">
     <use xlink:href="#C1_0_35946dcc64" x="181.197405" y="264.031137" style="fill: #3386ff; stroke: #000000"/>
    </g>
    <g clip-path="url(#p5ec053acb6)">
     <use xlink:href="#C1_0_35946dcc64" x="168.104649" y="155.748019" style="fill: #3386ff; stroke: #000000"/>
    </g>
    <g clip-path="url(#p5ec053acb6)">
     <use xlink:href="#C1_0_35946dcc64" x="179.036707" y="87.342825" style="fill: #3386ff; stroke: #000000"/>
    </g>
    <g clip-path="url(#p5ec053acb6)">
     <use xlink:href="#C1_0_35946dcc64" x="173.620172" y="205.908278" style="fill: #3386ff; stroke: #000000"/>
    </g>
    <g clip-path="url(#p5ec053acb6)">
     <use xlink:href="#C1_0_35946dcc64" x="175.330839" y="202.452019" style="fill: #3386ff; stroke: #000000"/>
    </g>
    <g clip-path="url(#p5ec053acb6)">
     <use xlink:href="#C1_0_35946dcc64" x="175.710601" y="228.545779" style="fill: #3386ff; stroke: #000000"/>
    </g>
    <g clip-path="url(#p5ec053acb6)">
     <use xlink:href="#C1_0_35946dcc64" x="173.575148" y="256.413619" style="fill: #3386ff; stroke: #000000"/>
    </g>
    <g clip-path="url(#p5ec053acb6)">
     <use xlink:href="#C1_0_35946dcc64" x="172.667452" y="258.68808" style="fill: #3386ff; stroke: #000000"/>
    </g>
   </g>
   <g id="PathCollection_3">
    <defs>
     <path id="C2_0_9da8a82929" d="M 0 5 
C 1.326016 5 2.597899 4.473168 3.535534 3.535534 
C 4.473168 2.597899 5 1.326016 5 -0 
C 5 -1.326016 4.473168 -2.597899 3.535534 -3.535534 
C 2.597899 -4.473168 1.326016 -5 0 -5 
C -1.326016 -5 -2.597899 -4.473168 -3.535534 -3.535534 
C -4.473168 -2.597899 -5 -1.326016 -5 0 
C -5 1.326016 -4.473168 2.597899 -3.535534 3.535534 
C -2.597899 4.473168 -1.326016 5 0 5 
z
"/>
    </defs>
    <g clip-path="url(#p5ec053acb6)">
     <use xlink:href="#C2_0_9da8a82929" x="283.758662" y="261.295128" style="fill: #808080; stroke: #000000"/>
    </g>
    <g clip-path="url(#p5ec053acb6)">
     <use xlink:href="#C2_0_9da8a82929" x="288.809337" y="260.637619" style="fill: #808080; stroke: #000000"/>
    </g>
    <g clip-path="url(#p5ec053acb6)">
     <use xlink:href="#C2_0_9da8a82929" x="278.169463" y="261.97936" style="fill: #808080; stroke: #000000"/>
    </g>
    <g clip-path="url(#p5ec053acb6)">
     <use xlink:href="#C2_0_9da8a82929" x="281.998715" y="259.439719" style="fill: #808080; stroke: #000000"/>
    </g>
    <g clip-path="url(#p5ec053acb6)">
     <use xlink:href="#C2_0_9da8a82929" x="289.797829" y="258.86967" style="fill: #808080; stroke: #000000"/>
    </g>
    <g clip-path="url(#p5ec053acb6)">
     <use xlink:href="#C2_0_9da8a82929" x="290.446972" y="256.161976" style="fill: #808080; stroke: #000000"/>
    </g>
    <g clip-path="url(#p5ec053acb6)">
     <use xlink:href="#C2_0_9da8a82929" x="281.806283" y="256.088371" style="fill: #808080; stroke: #000000"/>
    </g>
    <g clip-path="url(#p5ec053acb6)">
     <use xlink:href="#C2_0_9da8a82929" x="285.141585" y="249.632262" style="fill: #808080; stroke: #000000"/>
    </g>
   </g>
   <g id="PathCollection_4">
    <defs>
     <path id="C3_0_8e2e0c737a" d="M 0 5 
C 1.326016 5 2.597899 4.473168 3.535534 3.535534 
C 4.473168 2.597899 5 1.326016 5 -0 
C 5 -1.326016 4.473168 -2.597899 3.535534 -3.535534 
C 2.597899 -4.473168 1.326016 -5 0 -5 
C -1.326016 -5 -2.597899 -4.473168 -3.535534 -3.535534 
C -4.473168 -2.597899 -5 -1.326016 -5 0 
C -5 1.326016 -4.473168 2.597899 -3.535534 3.535534 
C -2.597899 4.473168 -1.326016 5 0 5 
z
"/>
    </defs>
    <g clip-path="url(#p5ec053acb6)">
     <use xlink:href="#C3_0_8e2e0c737a" x="348.504803" y="227.492419" style="fill: #3386ff; stroke: #000000"/>
    </g>
    <g clip-path="url(#p5ec053acb6)">
     <use xlink:href="#C3_0_8e2e0c737a" x="352.326254" y="234.200659" style="fill: #3386ff; stroke: #000000"/>
    </g>
    <g clip-path="url(#p5ec053acb6)">
     <use xlink:href="#C3_0_8e2e0c737a" x="346.12738" y="241.629619" style="fill: #3386ff; stroke: #000000"/>
    </g>
    <g clip-path="url(#p5ec053acb6)">
     <use xlink:href="#C3_0_8e2e0c737a" x="357.554689" y="237.194419" style="fill: #3386ff; stroke: #000000"/>
    </g>
    <g clip-path="url(#p5ec053acb6)">
     <use xlink:href="#C3_0_8e2e0c737a" x="361.289299" y="248.282419" style="fill: #3386ff; stroke: #000000"/>
    </g>
    <g clip-path="url(#p5ec053acb6)">
     <use xlink:href="#C3_0_8e2e0c737a" x="345.905037" y="257.442071" style="fill: #3386ff; stroke: #000000"/>
    </g>
    <g clip-path="url(#p5ec053acb6)">
     <use xlink:href="#C3_0_8e2e0c737a" x="344.880115" y="262.918579" style="fill: #3386ff; stroke: #000000"/>
    </g>
    <g clip-path="url(#p5ec053acb6)">
     <use xlink:href="#C3_0_8e2e0c737a" x="350.221487" y="199.273459" style="fill: #3386ff; stroke: #000000"/>
    </g>
    <g clip-path="url(#p5ec053acb6)">
     <use xlink:href="#C3_0_8e2e0c737a" x="359.367756" y="258.483379" style="fill: #3386ff; stroke: #000000"/>
    </g>
    <g clip-path="url(#p5ec053acb6)">
     <use xlink:href="#C3_0_8e2e0c737a" x="347.246535" y="249.81768" style="fill: #3386ff; stroke: #000000"/>
    </g>
    <g clip-path="url(#p5ec053acb6)">
     <use xlink:href="#C3_0_8e2e0c737a" x="353.152988" y="261.288343" style="fill: #3386ff; stroke: #000000"/>
    </g>
   </g>
   <g id="line2d_36"/>
   <g id="line2d_37"/>
   <g id="text_14">
    <!-- p= 0.12049173461070994 -->
    <g transform="translate(139.42375 47.426025) scale(0.1 -0.1)">
     <defs>
      <path id="DejaVuSans-3d" d="M 678 2906 
L 4684 2906 
L 4684 2381 
L 678 2381 
L 678 2906 
z
M 678 1631 
L 4684 1631 
L 4684 1100 
L 678 1100 
L 678 1631 
z
" transform="scale(0.015625)"/>
      <path id="DejaVuSans-34" d="M 2419 4116 
L 825 1625 
L 2419 1625 
L 2419 4116 
z
M 2253 4666 
L 3047 4666 
L 3047 1625 
L 3713 1625 
L 3713 1100 
L 3047 1100 
L 3047 0 
L 2419 0 
L 2419 1100 
L 313 1100 
L 313 1709 
L 2253 4666 
z
" transform="scale(0.015625)"/>
      <path id="DejaVuSans-39" d="M 703 97 
L 703 672 
Q 941 559 1184 500 
Q 1428 441 1663 441 
Q 2288 441 2617 861 
Q 2947 1281 2994 2138 
Q 2813 1869 2534 1725 
Q 2256 1581 1919 1581 
Q 1219 1581 811 2004 
Q 403 2428 403 3163 
Q 403 3881 828 4315 
Q 1253 4750 1959 4750 
Q 2769 4750 3195 4129 
Q 3622 3509 3622 2328 
Q 3622 1225 3098 567 
Q 2575 -91 1691 -91 
Q 1453 -91 1209 -44 
Q 966 3 703 97 
z
M 1959 2075 
Q 2384 2075 2632 2365 
Q 2881 2656 2881 3163 
Q 2881 3666 2632 3958 
Q 2384 4250 1959 4250 
Q 1534 4250 1286 3958 
Q 1038 3666 1038 3163 
Q 1038 2656 1286 2365 
Q 1534 2075 1959 2075 
z
" transform="scale(0.015625)"/>
      <path id="DejaVuSans-33" d="M 2597 2516 
Q 3050 2419 3304 2112 
Q 3559 1806 3559 1356 
Q 3559 666 3084 287 
Q 2609 -91 1734 -91 
Q 1441 -91 1130 -33 
Q 819 25 488 141 
L 488 750 
Q 750 597 1062 519 
Q 1375 441 1716 441 
Q 2309 441 2620 675 
Q 2931 909 2931 1356 
Q 2931 1769 2642 2001 
Q 2353 2234 1838 2234 
L 1294 2234 
L 1294 2753 
L 1863 2753 
Q 2328 2753 2575 2939 
Q 2822 3125 2822 3475 
Q 2822 3834 2567 4026 
Q 2313 4219 1838 4219 
Q 1578 4219 1281 4162 
Q 984 4106 628 3988 
L 628 4550 
Q 988 4650 1302 4700 
Q 1616 4750 1894 4750 
Q 2613 4750 3031 4423 
Q 3450 4097 3450 3541 
Q 3450 3153 3228 2886 
Q 3006 2619 2597 2516 
z
" transform="scale(0.015625)"/>
      <path id="DejaVuSans-36" d="M 2113 2584 
Q 1688 2584 1439 2293 
Q 1191 2003 1191 1497 
Q 1191 994 1439 701 
Q 1688 409 2113 409 
Q 2538 409 2786 701 
Q 3034 994 3034 1497 
Q 3034 2003 2786 2293 
Q 2538 2584 2113 2584 
z
M 3366 4563 
L 3366 3988 
Q 3128 4100 2886 4159 
Q 2644 4219 2406 4219 
Q 1781 4219 1451 3797 
Q 1122 3375 1075 2522 
Q 1259 2794 1537 2939 
Q 1816 3084 2150 3084 
Q 2853 3084 3261 2657 
Q 3669 2231 3669 1497 
Q 3669 778 3244 343 
Q 2819 -91 2113 -91 
Q 1303 -91 875 529 
Q 447 1150 447 2328 
Q 447 3434 972 4092 
Q 1497 4750 2381 4750 
Q 2619 4750 2861 4703 
Q 3103 4656 3366 4563 
z
" transform="scale(0.015625)"/>
     </defs>
     <use xlink:href="#DejaVuSans-70"/>
     <use xlink:href="#DejaVuSans-3d" x="63.476562"/>
     <use xlink:href="#DejaVuSans-20" x="147.265625"/>
     <use xlink:href="#DejaVuSans-30" x="179.052734"/>
     <use xlink:href="#DejaVuSans-2e" x="242.675781"/>
     <use xlink:href="#DejaVuSans-31" x="274.462891"/>
     <use xlink:href="#DejaVuSans-32" x="338.085938"/>
     <use xlink:href="#DejaVuSans-30" x="401.708984"/>
     <use xlink:href="#DejaVuSans-34" x="465.332031"/>
     <use xlink:href="#DejaVuSans-39" x="528.955078"/>
     <use xlink:href="#DejaVuSans-31" x="592.578125"/>
     <use xlink:href="#DejaVuSans-37" x="656.201172"/>
     <use xlink:href="#DejaVuSans-33" x="719.824219"/>
     <use xlink:href="#DejaVuSans-34" x="783.447266"/>
     <use xlink:href="#DejaVuSans-36" x="847.070312"/>
     <use xlink:href="#DejaVuSans-31" x="910.693359"/>
     <use xlink:href="#DejaVuSans-30" x="974.316406"/>
     <use xlink:href="#DejaVuSans-37" x="1037.939453"/>
     <use xlink:href="#DejaVuSans-30" x="1101.5625"/>
     <use xlink:href="#DejaVuSans-39" x="1165.185547"/>
     <use xlink:href="#DejaVuSans-39" x="1228.808594"/>
     <use xlink:href="#DejaVuSans-34" x="1292.431641"/>
    </g>
   </g>
   <g id="text_15">
    <!-- p= 0.023119561073979833 -->
    <g transform="translate(317.98375 159.356659) scale(0.1 -0.1)">
     <defs>
      <path id="DejaVuSans-38" d="M 2034 2216 
Q 1584 2216 1326 1975 
Q 1069 1734 1069 1313 
Q 1069 891 1326 650 
Q 1584 409 2034 409 
Q 2484 409 2743 651 
Q 3003 894 3003 1313 
Q 3003 1734 2745 1975 
Q 2488 2216 2034 2216 
z
M 1403 2484 
Q 997 2584 770 2862 
Q 544 3141 544 3541 
Q 544 4100 942 4425 
Q 1341 4750 2034 4750 
Q 2731 4750 3128 4425 
Q 3525 4100 3525 3541 
Q 3525 3141 3298 2862 
Q 3072 2584 2669 2484 
Q 3125 2378 3379 2068 
Q 3634 1759 3634 1313 
Q 3634 634 3220 271 
Q 2806 -91 2034 -91 
Q 1263 -91 848 271 
Q 434 634 434 1313 
Q 434 1759 690 2068 
Q 947 2378 1403 2484 
z
M 1172 3481 
Q 1172 3119 1398 2916 
Q 1625 2713 2034 2713 
Q 2441 2713 2670 2916 
Q 2900 3119 2900 3481 
Q 2900 3844 2670 4047 
Q 2441 4250 2034 4250 
Q 1625 4250 1398 4047 
Q 1172 3844 1172 3481 
z
" transform="scale(0.015625)"/>
     </defs>
     <use xlink:href="#DejaVuSans-70"/>
     <use xlink:href="#DejaVuSans-3d" x="63.476562"/>
     <use xlink:href="#DejaVuSans-20" x="147.265625"/>
     <use xlink:href="#DejaVuSans-30" x="179.052734"/>
     <use xlink:href="#DejaVuSans-2e" x="242.675781"/>
     <use xlink:href="#DejaVuSans-30" x="274.462891"/>
     <use xlink:href="#DejaVuSans-32" x="338.085938"/>
     <use xlink:href="#DejaVuSans-33" x="401.708984"/>
     <use xlink:href="#DejaVuSans-31" x="465.332031"/>
     <use xlink:href="#DejaVuSans-31" x="528.955078"/>
     <use xlink:href="#DejaVuSans-39" x="592.578125"/>
     <use xlink:href="#DejaVuSans-35" x="656.201172"/>
     <use xlink:href="#DejaVuSans-36" x="719.824219"/>
     <use xlink:href="#DejaVuSans-31" x="783.447266"/>
     <use xlink:href="#DejaVuSans-30" x="847.070312"/>
     <use xlink:href="#DejaVuSans-37" x="910.693359"/>
     <use xlink:href="#DejaVuSans-33" x="974.316406"/>
     <use xlink:href="#DejaVuSans-39" x="1037.939453"/>
     <use xlink:href="#DejaVuSans-37" x="1101.5625"/>
     <use xlink:href="#DejaVuSans-39" x="1165.185547"/>
     <use xlink:href="#DejaVuSans-38" x="1228.808594"/>
     <use xlink:href="#DejaVuSans-33" x="1292.431641"/>
     <use xlink:href="#DejaVuSans-33" x="1356.054688"/>
    </g>
   </g>
   <g id="legend_1">
    <g id="patch_11">
     <path d="M 335.962188 63.033594 
L 400.26375 63.033594 
Q 402.26375 63.033594 402.26375 61.033594 
L 402.26375 17.999219 
Q 402.26375 15.999219 400.26375 15.999219 
L 335.962188 15.999219 
Q 333.962188 15.999219 333.962188 17.999219 
L 333.962188 61.033594 
Q 333.962188 63.033594 335.962188 63.033594 
z
" style="fill: #ffffff; opacity: 0.8; stroke: #cccccc; stroke-linejoin: miter"/>
    </g>
    <g id="text_16">
     <!-- class -->
     <g transform="translate(355.70125 27.597656) scale(0.1 -0.1)">
      <defs>
       <path id="DejaVuSans-63" d="M 3122 3366 
L 3122 2828 
Q 2878 2963 2633 3030 
Q 2388 3097 2138 3097 
Q 1578 3097 1268 2742 
Q 959 2388 959 1747 
Q 959 1106 1268 751 
Q 1578 397 2138 397 
Q 2388 397 2633 464 
Q 2878 531 3122 666 
L 3122 134 
Q 2881 22 2623 -34 
Q 2366 -91 2075 -91 
Q 1284 -91 818 406 
Q 353 903 353 1747 
Q 353 2603 823 3093 
Q 1294 3584 2113 3584 
Q 2378 3584 2631 3529 
Q 2884 3475 3122 3366 
z
" transform="scale(0.015625)"/>
       <path id="DejaVuSans-6c" d="M 603 4863 
L 1178 4863 
L 1178 0 
L 603 0 
L 603 4863 
z
" transform="scale(0.015625)"/>
      </defs>
      <use xlink:href="#DejaVuSans-63"/>
      <use xlink:href="#DejaVuSans-6c" x="54.980469"/>
      <use xlink:href="#DejaVuSans-61" x="82.763672"/>
      <use xlink:href="#DejaVuSans-73" x="144.042969"/>
      <use xlink:href="#DejaVuSans-73" x="196.142578"/>
     </g>
    </g>
    <g id="line2d_38">
     <defs>
      <path id="m081ffc90fe" d="M 0 5 
C 1.326016 5 2.597899 4.473168 3.535534 3.535534 
C 4.473168 2.597899 5 1.326016 5 0 
C 5 -1.326016 4.473168 -2.597899 3.535534 -3.535534 
C 2.597899 -4.473168 1.326016 -5 0 -5 
C -1.326016 -5 -2.597899 -4.473168 -3.535534 -3.535534 
C -4.473168 -2.597899 -5 -1.326016 -5 0 
C -5 1.326016 -4.473168 2.597899 -3.535534 3.535534 
C -2.597899 4.473168 -1.326016 5 0 5 
z
" style="stroke: #000000"/>
     </defs>
     <g>
      <use xlink:href="#m081ffc90fe" x="347.962188" y="38.775781" style="fill: #808080; stroke: #000000"/>
     </g>
    </g>
    <g id="text_17">
     <!-- WT -->
     <g transform="translate(365.962188 42.275781) scale(0.1 -0.1)">
      <defs>
       <path id="DejaVuSans-57" d="M 213 4666 
L 850 4666 
L 1831 722 
L 2809 4666 
L 3519 4666 
L 4500 722 
L 5478 4666 
L 6119 4666 
L 4947 0 
L 4153 0 
L 3169 4050 
L 2175 0 
L 1381 0 
L 213 4666 
z
" transform="scale(0.015625)"/>
       <path id="DejaVuSans-54" d="M -19 4666 
L 3928 4666 
L 3928 4134 
L 2272 4134 
L 2272 0 
L 1638 0 
L 1638 4134 
L -19 4134 
L -19 4666 
z
" transform="scale(0.015625)"/>
      </defs>
      <use xlink:href="#DejaVuSans-57"/>
      <use xlink:href="#DejaVuSans-54" x="98.876953"/>
     </g>
    </g>
    <g id="line2d_39">
     <defs>
      <path id="mc4e43d87b0" d="M 0 5 
C 1.326016 5 2.597899 4.473168 3.535534 3.535534 
C 4.473168 2.597899 5 1.326016 5 0 
C 5 -1.326016 4.473168 -2.597899 3.535534 -3.535534 
C 2.597899 -4.473168 1.326016 -5 0 -5 
C -1.326016 -5 -2.597899 -4.473168 -3.535534 -3.535534 
C -4.473168 -2.597899 -5 -1.326016 -5 0 
C -5 1.326016 -4.473168 2.597899 -3.535534 3.535534 
C -2.597899 4.473168 -1.326016 5 0 5 
z
" style="stroke: #000000"/>
     </defs>
     <g>
      <use xlink:href="#mc4e43d87b0" x="347.962188" y="53.453906" style="fill: #3386ff; stroke: #000000"/>
     </g>
    </g>
    <g id="text_18">
     <!-- PP4KO -->
     <g transform="translate(365.962188 56.953906) scale(0.1 -0.1)">
      <defs>
       <path id="DejaVuSans-50" d="M 1259 4147 
L 1259 2394 
L 2053 2394 
Q 2494 2394 2734 2622 
Q 2975 2850 2975 3272 
Q 2975 3691 2734 3919 
Q 2494 4147 2053 4147 
L 1259 4147 
z
M 628 4666 
L 2053 4666 
Q 2838 4666 3239 4311 
Q 3641 3956 3641 3272 
Q 3641 2581 3239 2228 
Q 2838 1875 2053 1875 
L 1259 1875 
L 1259 0 
L 628 0 
L 628 4666 
z
" transform="scale(0.015625)"/>
       <path id="DejaVuSans-4b" d="M 628 4666 
L 1259 4666 
L 1259 2694 
L 3353 4666 
L 4166 4666 
L 1850 2491 
L 4331 0 
L 3500 0 
L 1259 2247 
L 1259 0 
L 628 0 
L 628 4666 
z
" transform="scale(0.015625)"/>
       <path id="DejaVuSans-4f" d="M 2522 4238 
Q 1834 4238 1429 3725 
Q 1025 3213 1025 2328 
Q 1025 1447 1429 934 
Q 1834 422 2522 422 
Q 3209 422 3611 934 
Q 4013 1447 4013 2328 
Q 4013 3213 3611 3725 
Q 3209 4238 2522 4238 
z
M 2522 4750 
Q 3503 4750 4090 4092 
Q 4678 3434 4678 2328 
Q 4678 1225 4090 567 
Q 3503 -91 2522 -91 
Q 1538 -91 948 565 
Q 359 1222 359 2328 
Q 359 3434 948 4092 
Q 1538 4750 2522 4750 
z
" transform="scale(0.015625)"/>
      </defs>
      <use xlink:href="#DejaVuSans-50"/>
      <use xlink:href="#DejaVuSans-50" x="60.302734"/>
      <use xlink:href="#DejaVuSans-34" x="120.605469"/>
      <use xlink:href="#DejaVuSans-4b" x="184.228516"/>
      <use xlink:href="#DejaVuSans-4f" x="244.304688"/>
     </g>
    </g>
   </g>
  </g>
 </g>
 <defs>
  <clipPath id="p5ec053acb6">
   <rect x="50.14375" y="10.999219" width="357.12" height="266.112"/>
  </clipPath>
 </defs>
</svg>
