<?xml version="1.0" encoding="utf-8" standalone="no"?>
<!DOCTYPE svg PUBLIC "-//W3C//DTD SVG 1.1//EN"
  "http://www.w3.org/Graphics/SVG/1.1/DTD/svg11.dtd">
<svg xmlns:xlink="http://www.w3.org/1999/xlink" width="413.2175pt" height="328.337937pt" viewBox="0 0 413.2175 328.337937" xmlns="http://www.w3.org/2000/svg" version="1.1">
 <metadata>
  <rdf:RDF xmlns:dc="http://purl.org/dc/elements/1.1/" xmlns:cc="http://creativecommons.org/ns#" xmlns:rdf="http://www.w3.org/1999/02/22-rdf-syntax-ns#">
   <cc:Work>
    <dc:type rdf:resource="http://purl.org/dc/dcmitype/StillImage"/>
    <dc:date>2024-12-18T14:24:21.842854</dc:date>
    <dc:format>image/svg+xml</dc:format>
    <dc:creator>
     <cc:Agent>
      <dc:title>Matplotlib v3.7.2, https://matplotlib.org/</dc:title>
     </cc:Agent>
    </dc:creator>
   </cc:Work>
  </rdf:RDF>
 </metadata>
 <defs>
  <style type="text/css">*{stroke-linejoin: round; stroke-linecap: butt}</style>
 </defs>
 <g id="figure_1">
  <g id="patch_1">
   <path d="M 0 328.337937 
L 413.2175 328.337937 
L 413.2175 0 
L 0 0 
z
" style="fill: #ffffff"/>
  </g>
  <g id="axes_1">
   <g id="patch_2">
    <path d="M 48.8975 286.910437 
L 406.0175 286.910437 
L 406.0175 20.798437 
L 48.8975 20.798437 
z
" style="fill: #ffffff"/>
   </g>
   <g id="PolyCollection_1"/>
   <g id="PolyCollection_2"/>
   <g id="matplotlib.axis_1">
    <g id="xtick_1">
     <g id="line2d_1">
      <defs>
       <path id="md7e7da6100" d="M 0 0 
L 0 3.5 
" style="stroke: #000000; stroke-width: 0.8"/>
      </defs>
      <g>
       <use xlink:href="#md7e7da6100" x="65.130227" y="286.910437" style="stroke: #000000; stroke-width: 0.8"/>
      </g>
     </g>
     <g id="text_1">
      <!-- 0 -->
      <g transform="translate(61.312727 303.028562) scale(0.12 -0.12)">
       <defs>
        <path id="DejaVuSans-30" d="M 2034 4250 
Q 1547 4250 1301 3770 
Q 1056 3291 1056 2328 
Q 1056 1369 1301 889 
Q 1547 409 2034 409 
Q 2525 409 2770 889 
Q 3016 1369 3016 2328 
Q 3016 3291 2770 3770 
Q 2525 4250 2034 4250 
z
M 2034 4750 
Q 2819 4750 3233 4129 
Q 3647 3509 3647 2328 
Q 3647 1150 3233 529 
Q 2819 -91 2034 -91 
Q 1250 -91 836 529 
Q 422 1150 422 2328 
Q 422 3509 836 4129 
Q 1250 4750 2034 4750 
z
" transform="scale(0.015625)"/>
       </defs>
       <use xlink:href="#DejaVuSans-30"/>
      </g>
     </g>
    </g>
    <g id="xtick_2">
     <g id="line2d_2">
      <g>
       <use xlink:href="#md7e7da6100" x="111.731336" y="286.910437" style="stroke: #000000; stroke-width: 0.8"/>
      </g>
     </g>
     <g id="text_2">
      <!-- 1 -->
      <g transform="translate(107.913836 303.028562) scale(0.12 -0.12)">
       <defs>
        <path id="DejaVuSans-31" d="M 794 531 
L 1825 531 
L 1825 4091 
L 703 3866 
L 703 4441 
L 1819 4666 
L 2450 4666 
L 2450 531 
L 3481 531 
L 3481 0 
L 794 0 
L 794 531 
z
" transform="scale(0.015625)"/>
       </defs>
       <use xlink:href="#DejaVuSans-31"/>
      </g>
     </g>
    </g>
    <g id="xtick_3">
     <g id="line2d_3">
      <g>
       <use xlink:href="#md7e7da6100" x="158.332445" y="286.910437" style="stroke: #000000; stroke-width: 0.8"/>
      </g>
     </g>
     <g id="text_3">
      <!-- 2 -->
      <g transform="translate(154.514945 303.028562) scale(0.12 -0.12)">
       <defs>
        <path id="DejaVuSans-32" d="M 1228 531 
L 3431 531 
L 3431 0 
L 469 0 
L 469 531 
Q 828 903 1448 1529 
Q 2069 2156 2228 2338 
Q 2531 2678 2651 2914 
Q 2772 3150 2772 3378 
Q 2772 3750 2511 3984 
Q 2250 4219 1831 4219 
Q 1534 4219 1204 4116 
Q 875 4013 500 3803 
L 500 4441 
Q 881 4594 1212 4672 
Q 1544 4750 1819 4750 
Q 2544 4750 2975 4387 
Q 3406 4025 3406 3419 
Q 3406 3131 3298 2873 
Q 3191 2616 2906 2266 
Q 2828 2175 2409 1742 
Q 1991 1309 1228 531 
z
" transform="scale(0.015625)"/>
       </defs>
       <use xlink:href="#DejaVuSans-32"/>
      </g>
     </g>
    </g>
    <g id="xtick_4">
     <g id="line2d_4">
      <g>
       <use xlink:href="#md7e7da6100" x="204.933553" y="286.910437" style="stroke: #000000; stroke-width: 0.8"/>
      </g>
     </g>
     <g id="text_4">
      <!-- 3 -->
      <g transform="translate(201.116053 303.028562) scale(0.12 -0.12)">
       <defs>
        <path id="DejaVuSans-33" d="M 2597 2516 
Q 3050 2419 3304 2112 
Q 3559 1806 3559 1356 
Q 3559 666 3084 287 
Q 2609 -91 1734 -91 
Q 1441 -91 1130 -33 
Q 819 25 488 141 
L 488 750 
Q 750 597 1062 519 
Q 1375 441 1716 441 
Q 2309 441 2620 675 
Q 2931 909 2931 1356 
Q 2931 1769 2642 2001 
Q 2353 2234 1838 2234 
L 1294 2234 
L 1294 2753 
L 1863 2753 
Q 2328 2753 2575 2939 
Q 2822 3125 2822 3475 
Q 2822 3834 2567 4026 
Q 2313 4219 1838 4219 
Q 1578 4219 1281 4162 
Q 984 4106 628 3988 
L 628 4550 
Q 988 4650 1302 4700 
Q 1616 4750 1894 4750 
Q 2613 4750 3031 4423 
Q 3450 4097 3450 3541 
Q 3450 3153 3228 2886 
Q 3006 2619 2597 2516 
z
" transform="scale(0.015625)"/>
       </defs>
       <use xlink:href="#DejaVuSans-33"/>
      </g>
     </g>
    </g>
    <g id="xtick_5">
     <g id="line2d_5">
      <g>
       <use xlink:href="#md7e7da6100" x="251.534662" y="286.910437" style="stroke: #000000; stroke-width: 0.8"/>
      </g>
     </g>
     <g id="text_5">
      <!-- 4 -->
      <g transform="translate(247.717162 303.028562) scale(0.12 -0.12)">
       <defs>
        <path id="DejaVuSans-34" d="M 2419 4116 
L 825 1625 
L 2419 1625 
L 2419 4116 
z
M 2253 4666 
L 3047 4666 
L 3047 1625 
L 3713 1625 
L 3713 1100 
L 3047 1100 
L 3047 0 
L 2419 0 
L 2419 1100 
L 313 1100 
L 313 1709 
L 2253 4666 
z
" transform="scale(0.015625)"/>
       </defs>
       <use xlink:href="#DejaVuSans-34"/>
      </g>
     </g>
    </g>
    <g id="xtick_6">
     <g id="line2d_6">
      <g>
       <use xlink:href="#md7e7da6100" x="298.13577" y="286.910437" style="stroke: #000000; stroke-width: 0.8"/>
      </g>
     </g>
     <g id="text_6">
      <!-- 5 -->
      <g transform="translate(294.31827 303.028562) scale(0.12 -0.12)">
       <defs>
        <path id="DejaVuSans-35" d="M 691 4666 
L 3169 4666 
L 3169 4134 
L 1269 4134 
L 1269 2991 
Q 1406 3038 1543 3061 
Q 1681 3084 1819 3084 
Q 2600 3084 3056 2656 
Q 3513 2228 3513 1497 
Q 3513 744 3044 326 
Q 2575 -91 1722 -91 
Q 1428 -91 1123 -41 
Q 819 9 494 109 
L 494 744 
Q 775 591 1075 516 
Q 1375 441 1709 441 
Q 2250 441 2565 725 
Q 2881 1009 2881 1497 
Q 2881 1984 2565 2268 
Q 2250 2553 1709 2553 
Q 1456 2553 1204 2497 
Q 953 2441 691 2322 
L 691 4666 
z
" transform="scale(0.015625)"/>
       </defs>
       <use xlink:href="#DejaVuSans-35"/>
      </g>
     </g>
    </g>
    <g id="xtick_7">
     <g id="line2d_7">
      <g>
       <use xlink:href="#md7e7da6100" x="344.736879" y="286.910437" style="stroke: #000000; stroke-width: 0.8"/>
      </g>
     </g>
     <g id="text_7">
      <!-- 6 -->
      <g transform="translate(340.919379 303.028562) scale(0.12 -0.12)">
       <defs>
        <path id="DejaVuSans-36" d="M 2113 2584 
Q 1688 2584 1439 2293 
Q 1191 2003 1191 1497 
Q 1191 994 1439 701 
Q 1688 409 2113 409 
Q 2538 409 2786 701 
Q 3034 994 3034 1497 
Q 3034 2003 2786 2293 
Q 2538 2584 2113 2584 
z
M 3366 4563 
L 3366 3988 
Q 3128 4100 2886 4159 
Q 2644 4219 2406 4219 
Q 1781 4219 1451 3797 
Q 1122 3375 1075 2522 
Q 1259 2794 1537 2939 
Q 1816 3084 2150 3084 
Q 2853 3084 3261 2657 
Q 3669 2231 3669 1497 
Q 3669 778 3244 343 
Q 2819 -91 2113 -91 
Q 1303 -91 875 529 
Q 447 1150 447 2328 
Q 447 3434 972 4092 
Q 1497 4750 2381 4750 
Q 2619 4750 2861 4703 
Q 3103 4656 3366 4563 
z
" transform="scale(0.015625)"/>
       </defs>
       <use xlink:href="#DejaVuSans-36"/>
      </g>
     </g>
    </g>
    <g id="xtick_8">
     <g id="line2d_8">
      <g>
       <use xlink:href="#md7e7da6100" x="391.337988" y="286.910437" style="stroke: #000000; stroke-width: 0.8"/>
      </g>
     </g>
     <g id="text_8">
      <!-- 7 -->
      <g transform="translate(387.520488 303.028562) scale(0.12 -0.12)">
       <defs>
        <path id="DejaVuSans-37" d="M 525 4666 
L 3525 4666 
L 3525 4397 
L 1831 0 
L 1172 0 
L 2766 4134 
L 525 4134 
L 525 4666 
z
" transform="scale(0.015625)"/>
       </defs>
       <use xlink:href="#DejaVuSans-37"/>
      </g>
     </g>
    </g>
    <g id="text_9">
     <!-- Distance -->
     <g transform="translate(201.2225 318.642312) scale(0.12 -0.12)">
      <defs>
       <path id="DejaVuSans-44" d="M 1259 4147 
L 1259 519 
L 2022 519 
Q 2988 519 3436 956 
Q 3884 1394 3884 2338 
Q 3884 3275 3436 3711 
Q 2988 4147 2022 4147 
L 1259 4147 
z
M 628 4666 
L 1925 4666 
Q 3281 4666 3915 4102 
Q 4550 3538 4550 2338 
Q 4550 1131 3912 565 
Q 3275 0 1925 0 
L 628 0 
L 628 4666 
z
" transform="scale(0.015625)"/>
       <path id="DejaVuSans-69" d="M 603 3500 
L 1178 3500 
L 1178 0 
L 603 0 
L 603 3500 
z
M 603 4863 
L 1178 4863 
L 1178 4134 
L 603 4134 
L 603 4863 
z
" transform="scale(0.015625)"/>
       <path id="DejaVuSans-73" d="M 2834 3397 
L 2834 2853 
Q 2591 2978 2328 3040 
Q 2066 3103 1784 3103 
Q 1356 3103 1142 2972 
Q 928 2841 928 2578 
Q 928 2378 1081 2264 
Q 1234 2150 1697 2047 
L 1894 2003 
Q 2506 1872 2764 1633 
Q 3022 1394 3022 966 
Q 3022 478 2636 193 
Q 2250 -91 1575 -91 
Q 1294 -91 989 -36 
Q 684 19 347 128 
L 347 722 
Q 666 556 975 473 
Q 1284 391 1588 391 
Q 1994 391 2212 530 
Q 2431 669 2431 922 
Q 2431 1156 2273 1281 
Q 2116 1406 1581 1522 
L 1381 1569 
Q 847 1681 609 1914 
Q 372 2147 372 2553 
Q 372 3047 722 3315 
Q 1072 3584 1716 3584 
Q 2034 3584 2315 3537 
Q 2597 3491 2834 3397 
z
" transform="scale(0.015625)"/>
       <path id="DejaVuSans-74" d="M 1172 4494 
L 1172 3500 
L 2356 3500 
L 2356 3053 
L 1172 3053 
L 1172 1153 
Q 1172 725 1289 603 
Q 1406 481 1766 481 
L 2356 481 
L 2356 0 
L 1766 0 
Q 1100 0 847 248 
Q 594 497 594 1153 
L 594 3053 
L 172 3053 
L 172 3500 
L 594 3500 
L 594 4494 
L 1172 4494 
z
" transform="scale(0.015625)"/>
       <path id="DejaVuSans-61" d="M 2194 1759 
Q 1497 1759 1228 1600 
Q 959 1441 959 1056 
Q 959 750 1161 570 
Q 1363 391 1709 391 
Q 2188 391 2477 730 
Q 2766 1069 2766 1631 
L 2766 1759 
L 2194 1759 
z
M 3341 1997 
L 3341 0 
L 2766 0 
L 2766 531 
Q 2569 213 2275 61 
Q 1981 -91 1556 -91 
Q 1019 -91 701 211 
Q 384 513 384 1019 
Q 384 1609 779 1909 
Q 1175 2209 1959 2209 
L 2766 2209 
L 2766 2266 
Q 2766 2663 2505 2880 
Q 2244 3097 1772 3097 
Q 1472 3097 1187 3025 
Q 903 2953 641 2809 
L 641 3341 
Q 956 3463 1253 3523 
Q 1550 3584 1831 3584 
Q 2591 3584 2966 3190 
Q 3341 2797 3341 1997 
z
" transform="scale(0.015625)"/>
       <path id="DejaVuSans-6e" d="M 3513 2113 
L 3513 0 
L 2938 0 
L 2938 2094 
Q 2938 2591 2744 2837 
Q 2550 3084 2163 3084 
Q 1697 3084 1428 2787 
Q 1159 2491 1159 1978 
L 1159 0 
L 581 0 
L 581 3500 
L 1159 3500 
L 1159 2956 
Q 1366 3272 1645 3428 
Q 1925 3584 2291 3584 
Q 2894 3584 3203 3211 
Q 3513 2838 3513 2113 
z
" transform="scale(0.015625)"/>
       <path id="DejaVuSans-63" d="M 3122 3366 
L 3122 2828 
Q 2878 2963 2633 3030 
Q 2388 3097 2138 3097 
Q 1578 3097 1268 2742 
Q 959 2388 959 1747 
Q 959 1106 1268 751 
Q 1578 397 2138 397 
Q 2388 397 2633 464 
Q 2878 531 3122 666 
L 3122 134 
Q 2881 22 2623 -34 
Q 2366 -91 2075 -91 
Q 1284 -91 818 406 
Q 353 903 353 1747 
Q 353 2603 823 3093 
Q 1294 3584 2113 3584 
Q 2378 3584 2631 3529 
Q 2884 3475 3122 3366 
z
" transform="scale(0.015625)"/>
       <path id="DejaVuSans-65" d="M 3597 1894 
L 3597 1613 
L 953 1613 
Q 991 1019 1311 708 
Q 1631 397 2203 397 
Q 2534 397 2845 478 
Q 3156 559 3463 722 
L 3463 178 
Q 3153 47 2828 -22 
Q 2503 -91 2169 -91 
Q 1331 -91 842 396 
Q 353 884 353 1716 
Q 353 2575 817 3079 
Q 1281 3584 2069 3584 
Q 2775 3584 3186 3129 
Q 3597 2675 3597 1894 
z
M 3022 2063 
Q 3016 2534 2758 2815 
Q 2500 3097 2075 3097 
Q 1594 3097 1305 2825 
Q 1016 2553 972 2059 
L 3022 2063 
z
" transform="scale(0.015625)"/>
      </defs>
      <use xlink:href="#DejaVuSans-44"/>
      <use xlink:href="#DejaVuSans-69" x="77.001953"/>
      <use xlink:href="#DejaVuSans-73" x="104.785156"/>
      <use xlink:href="#DejaVuSans-74" x="156.884766"/>
      <use xlink:href="#DejaVuSans-61" x="196.09375"/>
      <use xlink:href="#DejaVuSans-6e" x="257.373047"/>
      <use xlink:href="#DejaVuSans-63" x="320.751953"/>
      <use xlink:href="#DejaVuSans-65" x="375.732422"/>
     </g>
    </g>
   </g>
   <g id="matplotlib.axis_2">
    <g id="ytick_1">
     <g id="line2d_9">
      <defs>
       <path id="mbb68398280" d="M 0 0 
L -3.5 0 
" style="stroke: #000000; stroke-width: 0.8"/>
      </defs>
      <g>
       <use xlink:href="#mbb68398280" x="48.8975" y="286.910437" style="stroke: #000000; stroke-width: 0.8"/>
      </g>
     </g>
     <g id="text_10">
      <!-- 0.0 -->
      <g transform="translate(22.81375 291.4695) scale(0.12 -0.12)">
       <defs>
        <path id="DejaVuSans-2e" d="M 684 794 
L 1344 794 
L 1344 0 
L 684 0 
L 684 794 
z
" transform="scale(0.015625)"/>
       </defs>
       <use xlink:href="#DejaVuSans-30"/>
       <use xlink:href="#DejaVuSans-2e" x="63.623047"/>
       <use xlink:href="#DejaVuSans-30" x="95.410156"/>
      </g>
     </g>
    </g>
    <g id="ytick_2">
     <g id="line2d_10">
      <g>
       <use xlink:href="#mbb68398280" x="48.8975" y="242.558437" style="stroke: #000000; stroke-width: 0.8"/>
      </g>
     </g>
     <g id="text_11">
      <!-- 0.2 -->
      <g transform="translate(22.81375 247.1175) scale(0.12 -0.12)">
       <use xlink:href="#DejaVuSans-30"/>
       <use xlink:href="#DejaVuSans-2e" x="63.623047"/>
       <use xlink:href="#DejaVuSans-32" x="95.410156"/>
      </g>
     </g>
    </g>
    <g id="ytick_3">
     <g id="line2d_11">
      <g>
       <use xlink:href="#mbb68398280" x="48.8975" y="198.206437" style="stroke: #000000; stroke-width: 0.8"/>
      </g>
     </g>
     <g id="text_12">
      <!-- 0.4 -->
      <g transform="translate(22.81375 202.7655) scale(0.12 -0.12)">
       <use xlink:href="#DejaVuSans-30"/>
       <use xlink:href="#DejaVuSans-2e" x="63.623047"/>
       <use xlink:href="#DejaVuSans-34" x="95.410156"/>
      </g>
     </g>
    </g>
    <g id="ytick_4">
     <g id="line2d_12">
      <g>
       <use xlink:href="#mbb68398280" x="48.8975" y="153.854437" style="stroke: #000000; stroke-width: 0.8"/>
      </g>
     </g>
     <g id="text_13">
      <!-- 0.6 -->
      <g transform="translate(22.81375 158.4135) scale(0.12 -0.12)">
       <use xlink:href="#DejaVuSans-30"/>
       <use xlink:href="#DejaVuSans-2e" x="63.623047"/>
       <use xlink:href="#DejaVuSans-36" x="95.410156"/>
      </g>
     </g>
    </g>
    <g id="ytick_5">
     <g id="line2d_13">
      <g>
       <use xlink:href="#mbb68398280" x="48.8975" y="109.502437" style="stroke: #000000; stroke-width: 0.8"/>
      </g>
     </g>
     <g id="text_14">
      <!-- 0.8 -->
      <g transform="translate(22.81375 114.0615) scale(0.12 -0.12)">
       <defs>
        <path id="DejaVuSans-38" d="M 2034 2216 
Q 1584 2216 1326 1975 
Q 1069 1734 1069 1313 
Q 1069 891 1326 650 
Q 1584 409 2034 409 
Q 2484 409 2743 651 
Q 3003 894 3003 1313 
Q 3003 1734 2745 1975 
Q 2488 2216 2034 2216 
z
M 1403 2484 
Q 997 2584 770 2862 
Q 544 3141 544 3541 
Q 544 4100 942 4425 
Q 1341 4750 2034 4750 
Q 2731 4750 3128 4425 
Q 3525 4100 3525 3541 
Q 3525 3141 3298 2862 
Q 3072 2584 2669 2484 
Q 3125 2378 3379 2068 
Q 3634 1759 3634 1313 
Q 3634 634 3220 271 
Q 2806 -91 2034 -91 
Q 1263 -91 848 271 
Q 434 634 434 1313 
Q 434 1759 690 2068 
Q 947 2378 1403 2484 
z
M 1172 3481 
Q 1172 3119 1398 2916 
Q 1625 2713 2034 2713 
Q 2441 2713 2670 2916 
Q 2900 3119 2900 3481 
Q 2900 3844 2670 4047 
Q 2441 4250 2034 4250 
Q 1625 4250 1398 4047 
Q 1172 3844 1172 3481 
z
" transform="scale(0.015625)"/>
       </defs>
       <use xlink:href="#DejaVuSans-30"/>
       <use xlink:href="#DejaVuSans-2e" x="63.623047"/>
       <use xlink:href="#DejaVuSans-38" x="95.410156"/>
      </g>
     </g>
    </g>
    <g id="ytick_6">
     <g id="line2d_14">
      <g>
       <use xlink:href="#mbb68398280" x="48.8975" y="65.150437" style="stroke: #000000; stroke-width: 0.8"/>
      </g>
     </g>
     <g id="text_15">
      <!-- 1.0 -->
      <g transform="translate(22.81375 69.7095) scale(0.12 -0.12)">
       <use xlink:href="#DejaVuSans-31"/>
       <use xlink:href="#DejaVuSans-2e" x="63.623047"/>
       <use xlink:href="#DejaVuSans-30" x="95.410156"/>
      </g>
     </g>
    </g>
    <g id="ytick_7">
     <g id="line2d_15">
      <g>
       <use xlink:href="#mbb68398280" x="48.8975" y="20.798437" style="stroke: #000000; stroke-width: 0.8"/>
      </g>
     </g>
     <g id="text_16">
      <!-- 1.2 -->
      <g transform="translate(22.81375 25.3575) scale(0.12 -0.12)">
       <use xlink:href="#DejaVuSans-31"/>
       <use xlink:href="#DejaVuSans-2e" x="63.623047"/>
       <use xlink:href="#DejaVuSans-32" x="95.410156"/>
      </g>
     </g>
    </g>
    <g id="text_17">
     <!-- Normalized Intensity -->
     <g transform="translate(16.318125 215.902875) rotate(-90) scale(0.12 -0.12)">
      <defs>
       <path id="DejaVuSans-4e" d="M 628 4666 
L 1478 4666 
L 3547 763 
L 3547 4666 
L 4159 4666 
L 4159 0 
L 3309 0 
L 1241 3903 
L 1241 0 
L 628 0 
L 628 4666 
z
" transform="scale(0.015625)"/>
       <path id="DejaVuSans-6f" d="M 1959 3097 
Q 1497 3097 1228 2736 
Q 959 2375 959 1747 
Q 959 1119 1226 758 
Q 1494 397 1959 397 
Q 2419 397 2687 759 
Q 2956 1122 2956 1747 
Q 2956 2369 2687 2733 
Q 2419 3097 1959 3097 
z
M 1959 3584 
Q 2709 3584 3137 3096 
Q 3566 2609 3566 1747 
Q 3566 888 3137 398 
Q 2709 -91 1959 -91 
Q 1206 -91 779 398 
Q 353 888 353 1747 
Q 353 2609 779 3096 
Q 1206 3584 1959 3584 
z
" transform="scale(0.015625)"/>
       <path id="DejaVuSans-72" d="M 2631 2963 
Q 2534 3019 2420 3045 
Q 2306 3072 2169 3072 
Q 1681 3072 1420 2755 
Q 1159 2438 1159 1844 
L 1159 0 
L 581 0 
L 581 3500 
L 1159 3500 
L 1159 2956 
Q 1341 3275 1631 3429 
Q 1922 3584 2338 3584 
Q 2397 3584 2469 3576 
Q 2541 3569 2628 3553 
L 2631 2963 
z
" transform="scale(0.015625)"/>
       <path id="DejaVuSans-6d" d="M 3328 2828 
Q 3544 3216 3844 3400 
Q 4144 3584 4550 3584 
Q 5097 3584 5394 3201 
Q 5691 2819 5691 2113 
L 5691 0 
L 5113 0 
L 5113 2094 
Q 5113 2597 4934 2840 
Q 4756 3084 4391 3084 
Q 3944 3084 3684 2787 
Q 3425 2491 3425 1978 
L 3425 0 
L 2847 0 
L 2847 2094 
Q 2847 2600 2669 2842 
Q 2491 3084 2119 3084 
Q 1678 3084 1418 2786 
Q 1159 2488 1159 1978 
L 1159 0 
L 581 0 
L 581 3500 
L 1159 3500 
L 1159 2956 
Q 1356 3278 1631 3431 
Q 1906 3584 2284 3584 
Q 2666 3584 2933 3390 
Q 3200 3197 3328 2828 
z
" transform="scale(0.015625)"/>
       <path id="DejaVuSans-6c" d="M 603 4863 
L 1178 4863 
L 1178 0 
L 603 0 
L 603 4863 
z
" transform="scale(0.015625)"/>
       <path id="DejaVuSans-7a" d="M 353 3500 
L 3084 3500 
L 3084 2975 
L 922 459 
L 3084 459 
L 3084 0 
L 275 0 
L 275 525 
L 2438 3041 
L 353 3041 
L 353 3500 
z
" transform="scale(0.015625)"/>
       <path id="DejaVuSans-64" d="M 2906 2969 
L 2906 4863 
L 3481 4863 
L 3481 0 
L 2906 0 
L 2906 525 
Q 2725 213 2448 61 
Q 2172 -91 1784 -91 
Q 1150 -91 751 415 
Q 353 922 353 1747 
Q 353 2572 751 3078 
Q 1150 3584 1784 3584 
Q 2172 3584 2448 3432 
Q 2725 3281 2906 2969 
z
M 947 1747 
Q 947 1113 1208 752 
Q 1469 391 1925 391 
Q 2381 391 2643 752 
Q 2906 1113 2906 1747 
Q 2906 2381 2643 2742 
Q 2381 3103 1925 3103 
Q 1469 3103 1208 2742 
Q 947 2381 947 1747 
z
" transform="scale(0.015625)"/>
       <path id="DejaVuSans-20" transform="scale(0.015625)"/>
       <path id="DejaVuSans-49" d="M 628 4666 
L 1259 4666 
L 1259 0 
L 628 0 
L 628 4666 
z
" transform="scale(0.015625)"/>
       <path id="DejaVuSans-79" d="M 2059 -325 
Q 1816 -950 1584 -1140 
Q 1353 -1331 966 -1331 
L 506 -1331 
L 506 -850 
L 844 -850 
Q 1081 -850 1212 -737 
Q 1344 -625 1503 -206 
L 1606 56 
L 191 3500 
L 800 3500 
L 1894 763 
L 2988 3500 
L 3597 3500 
L 2059 -325 
z
" transform="scale(0.015625)"/>
      </defs>
      <use xlink:href="#DejaVuSans-4e"/>
      <use xlink:href="#DejaVuSans-6f" x="74.804688"/>
      <use xlink:href="#DejaVuSans-72" x="135.986328"/>
      <use xlink:href="#DejaVuSans-6d" x="175.349609"/>
      <use xlink:href="#DejaVuSans-61" x="272.761719"/>
      <use xlink:href="#DejaVuSans-6c" x="334.041016"/>
      <use xlink:href="#DejaVuSans-69" x="361.824219"/>
      <use xlink:href="#DejaVuSans-7a" x="389.607422"/>
      <use xlink:href="#DejaVuSans-65" x="442.097656"/>
      <use xlink:href="#DejaVuSans-64" x="503.621094"/>
      <use xlink:href="#DejaVuSans-20" x="567.097656"/>
      <use xlink:href="#DejaVuSans-49" x="598.884766"/>
      <use xlink:href="#DejaVuSans-6e" x="628.376953"/>
      <use xlink:href="#DejaVuSans-74" x="691.755859"/>
      <use xlink:href="#DejaVuSans-65" x="730.964844"/>
      <use xlink:href="#DejaVuSans-6e" x="792.488281"/>
      <use xlink:href="#DejaVuSans-73" x="855.867188"/>
      <use xlink:href="#DejaVuSans-69" x="907.966797"/>
      <use xlink:href="#DejaVuSans-74" x="935.75"/>
      <use xlink:href="#DejaVuSans-79" x="974.958984"/>
     </g>
    </g>
   </g>
   <g id="line2d_16">
    <path d="M 65.130227 286.25068 
L 73.673609 284.95477 
L 82.217456 296.26861 
L 90.760837 280.167691 
L 99.304218 307.323976 
L 107.848066 280.507602 
L 116.391447 269.90309 
L 124.934828 290.85246 
L 133.478675 306.670119 
L 142.022057 303.45985 
L 150.565438 313.244091 
L 159.109285 271.53419 
L 167.652666 272.332036 
L 176.196048 300.557624 
L 184.739895 281.864885 
L 193.283276 232.362999 
L 201.826657 181.736338 
L 210.370505 129.479757 
L 218.913886 83.42773 
L 227.457267 65.150437 
L 236.001114 158.585808 
L 244.544495 213.14859 
L 253.087877 264.381898 
L 261.631724 237.734299 
L 270.175105 248.351794 
L 278.718486 321.215474 
L 287.262334 274.26646 
L 295.805715 290.675423 
L 304.349096 317.559071 
L 312.892943 298.305715 
L 321.436325 292.084637 
L 329.979706 288.810634 
L 338.523553 294.684719 
L 347.066934 289.839809 
L 355.610316 284.448444 
L 364.154163 277.854408 
L 372.697544 271.5814 
L 381.240925 283.776884 
L 389.784773 290.250534 
" clip-path="url(#pd09483e96e)" style="fill: none; stroke: #ff00ff; stroke-width: 1.5; stroke-linecap: square"/>
    <defs>
     <path id="me457391921" d="M 0 3 
C 0.795609 3 1.55874 2.683901 2.12132 2.12132 
C 2.683901 1.55874 3 0.795609 3 0 
C 3 -0.795609 2.683901 -1.55874 2.12132 -2.12132 
C 1.55874 -2.683901 0.795609 -3 0 -3 
C -0.795609 -3 -1.55874 -2.683901 -2.12132 -2.12132 
C -2.683901 -1.55874 -3 -0.795609 -3 0 
C -3 0.795609 -2.683901 1.55874 -2.12132 2.12132 
C -1.55874 2.683901 -0.795609 3 0 3 
z
" style="stroke: #ffffff; stroke-width: 0.75"/>
    </defs>
    <g clip-path="url(#pd09483e96e)">
     <use xlink:href="#me457391921" x="65.130227" y="286.25068" style="fill: #ff00ff; stroke: #ffffff; stroke-width: 0.75"/>
     <use xlink:href="#me457391921" x="73.673609" y="284.95477" style="fill: #ff00ff; stroke: #ffffff; stroke-width: 0.75"/>
     <use xlink:href="#me457391921" x="82.217456" y="296.26861" style="fill: #ff00ff; stroke: #ffffff; stroke-width: 0.75"/>
     <use xlink:href="#me457391921" x="90.760837" y="280.167691" style="fill: #ff00ff; stroke: #ffffff; stroke-width: 0.75"/>
     <use xlink:href="#me457391921" x="99.304218" y="307.323976" style="fill: #ff00ff; stroke: #ffffff; stroke-width: 0.75"/>
     <use xlink:href="#me457391921" x="107.848066" y="280.507602" style="fill: #ff00ff; stroke: #ffffff; stroke-width: 0.75"/>
     <use xlink:href="#me457391921" x="116.391447" y="269.90309" style="fill: #ff00ff; stroke: #ffffff; stroke-width: 0.75"/>
     <use xlink:href="#me457391921" x="124.934828" y="290.85246" style="fill: #ff00ff; stroke: #ffffff; stroke-width: 0.75"/>
     <use xlink:href="#me457391921" x="133.478675" y="306.670119" style="fill: #ff00ff; stroke: #ffffff; stroke-width: 0.75"/>
     <use xlink:href="#me457391921" x="142.022057" y="303.45985" style="fill: #ff00ff; stroke: #ffffff; stroke-width: 0.75"/>
     <use xlink:href="#me457391921" x="150.565438" y="313.244091" style="fill: #ff00ff; stroke: #ffffff; stroke-width: 0.75"/>
     <use xlink:href="#me457391921" x="159.109285" y="271.53419" style="fill: #ff00ff; stroke: #ffffff; stroke-width: 0.75"/>
     <use xlink:href="#me457391921" x="167.652666" y="272.332036" style="fill: #ff00ff; stroke: #ffffff; stroke-width: 0.75"/>
     <use xlink:href="#me457391921" x="176.196048" y="300.557624" style="fill: #ff00ff; stroke: #ffffff; stroke-width: 0.75"/>
     <use xlink:href="#me457391921" x="184.739895" y="281.864885" style="fill: #ff00ff; stroke: #ffffff; stroke-width: 0.75"/>
     <use xlink:href="#me457391921" x="193.283276" y="232.362999" style="fill: #ff00ff; stroke: #ffffff; stroke-width: 0.75"/>
     <use xlink:href="#me457391921" x="201.826657" y="181.736338" style="fill: #ff00ff; stroke: #ffffff; stroke-width: 0.75"/>
     <use xlink:href="#me457391921" x="210.370505" y="129.479757" style="fill: #ff00ff; stroke: #ffffff; stroke-width: 0.75"/>
     <use xlink:href="#me457391921" x="218.913886" y="83.42773" style="fill: #ff00ff; stroke: #ffffff; stroke-width: 0.75"/>
     <use xlink:href="#me457391921" x="227.457267" y="65.150437" style="fill: #ff00ff; stroke: #ffffff; stroke-width: 0.75"/>
     <use xlink:href="#me457391921" x="236.001114" y="158.585808" style="fill: #ff00ff; stroke: #ffffff; stroke-width: 0.75"/>
     <use xlink:href="#me457391921" x="244.544495" y="213.14859" style="fill: #ff00ff; stroke: #ffffff; stroke-width: 0.75"/>
     <use xlink:href="#me457391921" x="253.087877" y="264.381898" style="fill: #ff00ff; stroke: #ffffff; stroke-width: 0.75"/>
     <use xlink:href="#me457391921" x="261.631724" y="237.734299" style="fill: #ff00ff; stroke: #ffffff; stroke-width: 0.75"/>
     <use xlink:href="#me457391921" x="270.175105" y="248.351794" style="fill: #ff00ff; stroke: #ffffff; stroke-width: 0.75"/>
     <use xlink:href="#me457391921" x="278.718486" y="321.215474" style="fill: #ff00ff; stroke: #ffffff; stroke-width: 0.75"/>
     <use xlink:href="#me457391921" x="287.262334" y="274.26646" style="fill: #ff00ff; stroke: #ffffff; stroke-width: 0.75"/>
     <use xlink:href="#me457391921" x="295.805715" y="290.675423" style="fill: #ff00ff; stroke: #ffffff; stroke-width: 0.75"/>
     <use xlink:href="#me457391921" x="304.349096" y="317.559071" style="fill: #ff00ff; stroke: #ffffff; stroke-width: 0.75"/>
     <use xlink:href="#me457391921" x="312.892943" y="298.305715" style="fill: #ff00ff; stroke: #ffffff; stroke-width: 0.75"/>
     <use xlink:href="#me457391921" x="321.436325" y="292.084637" style="fill: #ff00ff; stroke: #ffffff; stroke-width: 0.75"/>
     <use xlink:href="#me457391921" x="329.979706" y="288.810634" style="fill: #ff00ff; stroke: #ffffff; stroke-width: 0.75"/>
     <use xlink:href="#me457391921" x="338.523553" y="294.684719" style="fill: #ff00ff; stroke: #ffffff; stroke-width: 0.75"/>
     <use xlink:href="#me457391921" x="347.066934" y="289.839809" style="fill: #ff00ff; stroke: #ffffff; stroke-width: 0.75"/>
     <use xlink:href="#me457391921" x="355.610316" y="284.448444" style="fill: #ff00ff; stroke: #ffffff; stroke-width: 0.75"/>
     <use xlink:href="#me457391921" x="364.154163" y="277.854408" style="fill: #ff00ff; stroke: #ffffff; stroke-width: 0.75"/>
     <use xlink:href="#me457391921" x="372.697544" y="271.5814" style="fill: #ff00ff; stroke: #ffffff; stroke-width: 0.75"/>
     <use xlink:href="#me457391921" x="381.240925" y="283.776884" style="fill: #ff00ff; stroke: #ffffff; stroke-width: 0.75"/>
     <use xlink:href="#me457391921" x="389.784773" y="290.250534" style="fill: #ff00ff; stroke: #ffffff; stroke-width: 0.75"/>
    </g>
   </g>
   <g id="line2d_17">
    <path d="M 65.130227 321.455446 
L 73.673609 283.406823 
L 82.217456 287.13567 
L 90.760837 255.64381 
L 95.27549 329.337937 
M 104.709452 329.337937 
L 107.848066 291.152313 
L 116.391447 191.07408 
L 124.934828 237.740968 
L 129.573029 329.337937 
M 141.25853 329.337937 
L 142.022057 321.768269 
L 142.537252 329.337937 
M 157.210336 329.337937 
L 159.109285 295.628806 
L 167.652666 227.802592 
L 176.196048 236.151829 
L 184.739895 165.491441 
L 193.283276 65.150437 
L 201.826657 104.92897 
L 210.370505 134.418764 
L 218.913886 132.1508 
L 227.457267 223.958001 
L 236.001114 294.965622 
L 244.544495 286.150278 
L 247.742136 329.337937 
M 258.351851 329.337937 
L 261.631724 284.351548 
L 270.175105 224.236413 
L 275.063867 329.337937 
M 284.6669 329.337937 
L 287.262334 295.05634 
L 295.805715 285.099194 
L 304.349096 291.824882 
L 307.228127 329.337937 
M 319.719549 329.337937 
L 321.436325 310.77568 
L 322.661189 329.337937 
M 338.212219 329.337937 
L 338.523553 325.143626 
L 347.066934 289.506866 
L 352.134772 329.337937 
M 358.561527 329.337937 
L 364.154163 277.57268 
L 372.697544 312.489948 
L 379.790638 329.337937 
" clip-path="url(#pd09483e96e)" style="fill: none; stroke: #32cd32; stroke-width: 1.5; stroke-linecap: square"/>
    <defs>
     <path id="m7a3ef9bc22" d="M 0 3 
C 0.795609 3 1.55874 2.683901 2.12132 2.12132 
C 2.683901 1.55874 3 0.795609 3 0 
C 3 -0.795609 2.683901 -1.55874 2.12132 -2.12132 
C 1.55874 -2.683901 0.795609 -3 0 -3 
C -0.795609 -3 -1.55874 -2.683901 -2.12132 -2.12132 
C -2.683901 -1.55874 -3 -0.795609 -3 0 
C -3 0.795609 -2.683901 1.55874 -2.12132 2.12132 
C -1.55874 2.683901 -0.795609 3 0 3 
z
" style="stroke: #ffffff; stroke-width: 0.75"/>
    </defs>
    <g clip-path="url(#pd09483e96e)">
     <use xlink:href="#m7a3ef9bc22" x="65.130227" y="321.455446" style="fill: #32cd32; stroke: #ffffff; stroke-width: 0.75"/>
     <use xlink:href="#m7a3ef9bc22" x="73.673609" y="283.406823" style="fill: #32cd32; stroke: #ffffff; stroke-width: 0.75"/>
     <use xlink:href="#m7a3ef9bc22" x="82.217456" y="287.13567" style="fill: #32cd32; stroke: #ffffff; stroke-width: 0.75"/>
     <use xlink:href="#m7a3ef9bc22" x="90.760837" y="255.64381" style="fill: #32cd32; stroke: #ffffff; stroke-width: 0.75"/>
     <use xlink:href="#m7a3ef9bc22" x="99.304218" y="395.100162" style="fill: #32cd32; stroke: #ffffff; stroke-width: 0.75"/>
     <use xlink:href="#m7a3ef9bc22" x="107.848066" y="291.152313" style="fill: #32cd32; stroke: #ffffff; stroke-width: 0.75"/>
     <use xlink:href="#m7a3ef9bc22" x="116.391447" y="191.07408" style="fill: #32cd32; stroke: #ffffff; stroke-width: 0.75"/>
     <use xlink:href="#m7a3ef9bc22" x="124.934828" y="237.740968" style="fill: #32cd32; stroke: #ffffff; stroke-width: 0.75"/>
     <use xlink:href="#m7a3ef9bc22" x="133.478675" y="406.468139" style="fill: #32cd32; stroke: #ffffff; stroke-width: 0.75"/>
     <use xlink:href="#m7a3ef9bc22" x="142.022057" y="321.768269" style="fill: #32cd32; stroke: #ffffff; stroke-width: 0.75"/>
     <use xlink:href="#m7a3ef9bc22" x="150.565438" y="447.294627" style="fill: #32cd32; stroke: #ffffff; stroke-width: 0.75"/>
     <use xlink:href="#m7a3ef9bc22" x="159.109285" y="295.628806" style="fill: #32cd32; stroke: #ffffff; stroke-width: 0.75"/>
     <use xlink:href="#m7a3ef9bc22" x="167.652666" y="227.802592" style="fill: #32cd32; stroke: #ffffff; stroke-width: 0.75"/>
     <use xlink:href="#m7a3ef9bc22" x="176.196048" y="236.151829" style="fill: #32cd32; stroke: #ffffff; stroke-width: 0.75"/>
     <use xlink:href="#m7a3ef9bc22" x="184.739895" y="165.491441" style="fill: #32cd32; stroke: #ffffff; stroke-width: 0.75"/>
     <use xlink:href="#m7a3ef9bc22" x="193.283276" y="65.150437" style="fill: #32cd32; stroke: #ffffff; stroke-width: 0.75"/>
     <use xlink:href="#m7a3ef9bc22" x="201.826657" y="104.92897" style="fill: #32cd32; stroke: #ffffff; stroke-width: 0.75"/>
     <use xlink:href="#m7a3ef9bc22" x="210.370505" y="134.418764" style="fill: #32cd32; stroke: #ffffff; stroke-width: 0.75"/>
     <use xlink:href="#m7a3ef9bc22" x="218.913886" y="132.1508" style="fill: #32cd32; stroke: #ffffff; stroke-width: 0.75"/>
     <use xlink:href="#m7a3ef9bc22" x="227.457267" y="223.958001" style="fill: #32cd32; stroke: #ffffff; stroke-width: 0.75"/>
     <use xlink:href="#m7a3ef9bc22" x="236.001114" y="294.965622" style="fill: #32cd32; stroke: #ffffff; stroke-width: 0.75"/>
     <use xlink:href="#m7a3ef9bc22" x="244.544495" y="286.150278" style="fill: #32cd32; stroke: #ffffff; stroke-width: 0.75"/>
     <use xlink:href="#m7a3ef9bc22" x="253.087877" y="401.538053" style="fill: #32cd32; stroke: #ffffff; stroke-width: 0.75"/>
     <use xlink:href="#m7a3ef9bc22" x="261.631724" y="284.351548" style="fill: #32cd32; stroke: #ffffff; stroke-width: 0.75"/>
     <use xlink:href="#m7a3ef9bc22" x="270.175105" y="224.236413" style="fill: #32cd32; stroke: #ffffff; stroke-width: 0.75"/>
     <use xlink:href="#m7a3ef9bc22" x="278.718486" y="407.907123" style="fill: #32cd32; stroke: #ffffff; stroke-width: 0.75"/>
     <use xlink:href="#m7a3ef9bc22" x="287.262334" y="295.05634" style="fill: #32cd32; stroke: #ffffff; stroke-width: 0.75"/>
     <use xlink:href="#m7a3ef9bc22" x="295.805715" y="285.099194" style="fill: #32cd32; stroke: #ffffff; stroke-width: 0.75"/>
     <use xlink:href="#m7a3ef9bc22" x="304.349096" y="291.824882" style="fill: #32cd32; stroke: #ffffff; stroke-width: 0.75"/>
     <use xlink:href="#m7a3ef9bc22" x="312.892943" y="403.14909" style="fill: #32cd32; stroke: #ffffff; stroke-width: 0.75"/>
     <use xlink:href="#m7a3ef9bc22" x="321.436325" y="310.77568" style="fill: #32cd32; stroke: #ffffff; stroke-width: 0.75"/>
     <use xlink:href="#m7a3ef9bc22" x="329.979706" y="440.246732" style="fill: #32cd32; stroke: #ffffff; stroke-width: 0.75"/>
     <use xlink:href="#m7a3ef9bc22" x="338.523553" y="325.143626" style="fill: #32cd32; stroke: #ffffff; stroke-width: 0.75"/>
     <use xlink:href="#m7a3ef9bc22" x="347.066934" y="289.506866" style="fill: #32cd32; stroke: #ffffff; stroke-width: 0.75"/>
     <use xlink:href="#m7a3ef9bc22" x="355.610316" y="356.654255" style="fill: #32cd32; stroke: #ffffff; stroke-width: 0.75"/>
     <use xlink:href="#m7a3ef9bc22" x="364.154163" y="277.57268" style="fill: #32cd32; stroke: #ffffff; stroke-width: 0.75"/>
     <use xlink:href="#m7a3ef9bc22" x="372.697544" y="312.489948" style="fill: #32cd32; stroke: #ffffff; stroke-width: 0.75"/>
     <use xlink:href="#m7a3ef9bc22" x="381.240925" y="332.782756" style="fill: #32cd32; stroke: #ffffff; stroke-width: 0.75"/>
     <use xlink:href="#m7a3ef9bc22" x="389.784773" y="413.390905" style="fill: #32cd32; stroke: #ffffff; stroke-width: 0.75"/>
    </g>
   </g>
   <g id="line2d_18">
    <path d="M 48.8975 176.030437 
L 406.0175 176.030437 
" clip-path="url(#pd09483e96e)" style="fill: none; stroke-dasharray: 5.55,2.4; stroke-dashoffset: 0; stroke: #000000; stroke-width: 1.5"/>
   </g>
   <g id="line2d_19">
    <defs>
     <path id="mb5dd997336" d="M 0 3 
C 0.795609 3 1.55874 2.683901 2.12132 2.12132 
C 2.683901 1.55874 3 0.795609 3 0 
C 3 -0.795609 2.683901 -1.55874 2.12132 -2.12132 
C 1.55874 -2.683901 0.795609 -3 0 -3 
C -0.795609 -3 -1.55874 -2.683901 -2.12132 -2.12132 
C -2.683901 -1.55874 -3 -0.795609 -3 0 
C -3 0.795609 -2.683901 1.55874 -2.12132 2.12132 
C -1.55874 2.683901 -0.795609 3 0 3 
z
" style="stroke: #ff0000"/>
    </defs>
    <g clip-path="url(#pd09483e96e)">
     <use xlink:href="#mb5dd997336" x="202.759561" y="176.030437" style="fill: #ff0000; stroke: #ff0000"/>
    </g>
   </g>
   <g id="line2d_20">
    <g clip-path="url(#pd09483e96e)">
     <use xlink:href="#mb5dd997336" x="238.732575" y="176.030437" style="fill: #ff0000; stroke: #ff0000"/>
    </g>
   </g>
   <g id="line2d_21">
    <defs>
     <path id="mf7ae21aef4" d="M 0 3 
C 0.795609 3 1.55874 2.683901 2.12132 2.12132 
C 2.683901 1.55874 3 0.795609 3 0 
C 3 -0.795609 2.683901 -1.55874 2.12132 -2.12132 
C 1.55874 -2.683901 0.795609 -3 0 -3 
C -0.795609 -3 -1.55874 -2.683901 -2.12132 -2.12132 
C -2.683901 -1.55874 -3 -0.795609 -3 0 
C -3 0.795609 -2.683901 1.55874 -2.12132 2.12132 
C -1.55874 2.683901 -0.795609 3 0 3 
z
" style="stroke: #008000"/>
    </defs>
    <g clip-path="url(#pd09483e96e)">
     <use xlink:href="#mf7ae21aef4" x="183.46558" y="176.030437" style="fill: #008000; stroke: #008000"/>
    </g>
   </g>
   <g id="line2d_22">
    <g clip-path="url(#pd09483e96e)">
     <use xlink:href="#mf7ae21aef4" x="222.997231" y="176.030437" style="fill: #008000; stroke: #008000"/>
    </g>
   </g>
   <g id="patch_3">
    <path d="M 48.8975 286.910437 
L 48.8975 20.798437 
" style="fill: none; stroke: #000000; stroke-width: 0.8; stroke-linejoin: miter; stroke-linecap: square"/>
   </g>
   <g id="patch_4">
    <path d="M 406.0175 286.910437 
L 406.0175 20.798437 
" style="fill: none; stroke: #000000; stroke-width: 0.8; stroke-linejoin: miter; stroke-linecap: square"/>
   </g>
   <g id="patch_5">
    <path d="M 48.8975 286.910437 
L 406.0175 286.910437 
" style="fill: none; stroke: #000000; stroke-width: 0.8; stroke-linejoin: miter; stroke-linecap: square"/>
   </g>
   <g id="patch_6">
    <path d="M 48.8975 20.798437 
L 406.0175 20.798437 
" style="fill: none; stroke: #000000; stroke-width: 0.8; stroke-linejoin: miter; stroke-linecap: square"/>
   </g>
   <g id="text_18">
    <!-- PP4KO Linescan with Half-Height Intersections -->
    <g transform="translate(95.454375 14.798437) scale(0.1 -0.1)">
     <defs>
      <path id="DejaVuSans-Bold-50" d="M 588 4666 
L 2584 4666 
Q 3475 4666 3951 4270 
Q 4428 3875 4428 3144 
Q 4428 2409 3951 2014 
Q 3475 1619 2584 1619 
L 1791 1619 
L 1791 0 
L 588 0 
L 588 4666 
z
M 1791 3794 
L 1791 2491 
L 2456 2491 
Q 2806 2491 2997 2661 
Q 3188 2831 3188 3144 
Q 3188 3456 2997 3625 
Q 2806 3794 2456 3794 
L 1791 3794 
z
" transform="scale(0.015625)"/>
      <path id="DejaVuSans-Bold-34" d="M 2356 3675 
L 1038 1722 
L 2356 1722 
L 2356 3675 
z
M 2156 4666 
L 3494 4666 
L 3494 1722 
L 4159 1722 
L 4159 850 
L 3494 850 
L 3494 0 
L 2356 0 
L 2356 850 
L 288 850 
L 288 1881 
L 2156 4666 
z
" transform="scale(0.015625)"/>
      <path id="DejaVuSans-Bold-4b" d="M 588 4666 
L 1791 4666 
L 1791 2963 
L 3525 4666 
L 4922 4666 
L 2675 2456 
L 5153 0 
L 3647 0 
L 1791 1838 
L 1791 0 
L 588 0 
L 588 4666 
z
" transform="scale(0.015625)"/>
      <path id="DejaVuSans-Bold-4f" d="M 2719 3878 
Q 2169 3878 1866 3472 
Q 1563 3066 1563 2328 
Q 1563 1594 1866 1187 
Q 2169 781 2719 781 
Q 3272 781 3575 1187 
Q 3878 1594 3878 2328 
Q 3878 3066 3575 3472 
Q 3272 3878 2719 3878 
z
M 2719 4750 
Q 3844 4750 4481 4106 
Q 5119 3463 5119 2328 
Q 5119 1197 4481 553 
Q 3844 -91 2719 -91 
Q 1597 -91 958 553 
Q 319 1197 319 2328 
Q 319 3463 958 4106 
Q 1597 4750 2719 4750 
z
" transform="scale(0.015625)"/>
      <path id="DejaVuSans-Bold-20" transform="scale(0.015625)"/>
      <path id="DejaVuSans-Bold-4c" d="M 588 4666 
L 1791 4666 
L 1791 909 
L 3903 909 
L 3903 0 
L 588 0 
L 588 4666 
z
" transform="scale(0.015625)"/>
      <path id="DejaVuSans-Bold-69" d="M 538 3500 
L 1656 3500 
L 1656 0 
L 538 0 
L 538 3500 
z
M 538 4863 
L 1656 4863 
L 1656 3950 
L 538 3950 
L 538 4863 
z
" transform="scale(0.015625)"/>
      <path id="DejaVuSans-Bold-6e" d="M 4056 2131 
L 4056 0 
L 2931 0 
L 2931 347 
L 2931 1631 
Q 2931 2084 2911 2256 
Q 2891 2428 2841 2509 
Q 2775 2619 2662 2680 
Q 2550 2741 2406 2741 
Q 2056 2741 1856 2470 
Q 1656 2200 1656 1722 
L 1656 0 
L 538 0 
L 538 3500 
L 1656 3500 
L 1656 2988 
Q 1909 3294 2193 3439 
Q 2478 3584 2822 3584 
Q 3428 3584 3742 3212 
Q 4056 2841 4056 2131 
z
" transform="scale(0.015625)"/>
      <path id="DejaVuSans-Bold-65" d="M 4031 1759 
L 4031 1441 
L 1416 1441 
Q 1456 1047 1700 850 
Q 1944 653 2381 653 
Q 2734 653 3104 758 
Q 3475 863 3866 1075 
L 3866 213 
Q 3469 63 3072 -14 
Q 2675 -91 2278 -91 
Q 1328 -91 801 392 
Q 275 875 275 1747 
Q 275 2603 792 3093 
Q 1309 3584 2216 3584 
Q 3041 3584 3536 3087 
Q 4031 2591 4031 1759 
z
M 2881 2131 
Q 2881 2450 2695 2645 
Q 2509 2841 2209 2841 
Q 1884 2841 1681 2658 
Q 1478 2475 1428 2131 
L 2881 2131 
z
" transform="scale(0.015625)"/>
      <path id="DejaVuSans-Bold-73" d="M 3272 3391 
L 3272 2541 
Q 2913 2691 2578 2766 
Q 2244 2841 1947 2841 
Q 1628 2841 1473 2761 
Q 1319 2681 1319 2516 
Q 1319 2381 1436 2309 
Q 1553 2238 1856 2203 
L 2053 2175 
Q 2913 2066 3209 1816 
Q 3506 1566 3506 1031 
Q 3506 472 3093 190 
Q 2681 -91 1863 -91 
Q 1516 -91 1145 -36 
Q 775 19 384 128 
L 384 978 
Q 719 816 1070 734 
Q 1422 653 1784 653 
Q 2113 653 2278 743 
Q 2444 834 2444 1013 
Q 2444 1163 2330 1236 
Q 2216 1309 1875 1350 
L 1678 1375 
Q 931 1469 631 1722 
Q 331 1975 331 2491 
Q 331 3047 712 3315 
Q 1094 3584 1881 3584 
Q 2191 3584 2531 3537 
Q 2872 3491 3272 3391 
z
" transform="scale(0.015625)"/>
      <path id="DejaVuSans-Bold-63" d="M 3366 3391 
L 3366 2478 
Q 3138 2634 2908 2709 
Q 2678 2784 2431 2784 
Q 1963 2784 1702 2511 
Q 1441 2238 1441 1747 
Q 1441 1256 1702 982 
Q 1963 709 2431 709 
Q 2694 709 2930 787 
Q 3166 866 3366 1019 
L 3366 103 
Q 3103 6 2833 -42 
Q 2563 -91 2291 -91 
Q 1344 -91 809 395 
Q 275 881 275 1747 
Q 275 2613 809 3098 
Q 1344 3584 2291 3584 
Q 2566 3584 2833 3536 
Q 3100 3488 3366 3391 
z
" transform="scale(0.015625)"/>
      <path id="DejaVuSans-Bold-61" d="M 2106 1575 
Q 1756 1575 1579 1456 
Q 1403 1338 1403 1106 
Q 1403 894 1545 773 
Q 1688 653 1941 653 
Q 2256 653 2472 879 
Q 2688 1106 2688 1447 
L 2688 1575 
L 2106 1575 
z
M 3816 1997 
L 3816 0 
L 2688 0 
L 2688 519 
Q 2463 200 2181 54 
Q 1900 -91 1497 -91 
Q 953 -91 614 226 
Q 275 544 275 1050 
Q 275 1666 698 1953 
Q 1122 2241 2028 2241 
L 2688 2241 
L 2688 2328 
Q 2688 2594 2478 2717 
Q 2269 2841 1825 2841 
Q 1466 2841 1156 2769 
Q 847 2697 581 2553 
L 581 3406 
Q 941 3494 1303 3539 
Q 1666 3584 2028 3584 
Q 2975 3584 3395 3211 
Q 3816 2838 3816 1997 
z
" transform="scale(0.015625)"/>
      <path id="DejaVuSans-Bold-77" d="M 225 3500 
L 1313 3500 
L 1900 1088 
L 2491 3500 
L 3425 3500 
L 4013 1113 
L 4603 3500 
L 5691 3500 
L 4769 0 
L 3547 0 
L 2956 2406 
L 2369 0 
L 1147 0 
L 225 3500 
z
" transform="scale(0.015625)"/>
      <path id="DejaVuSans-Bold-74" d="M 1759 4494 
L 1759 3500 
L 2913 3500 
L 2913 2700 
L 1759 2700 
L 1759 1216 
Q 1759 972 1856 886 
Q 1953 800 2241 800 
L 2816 800 
L 2816 0 
L 1856 0 
Q 1194 0 917 276 
Q 641 553 641 1216 
L 641 2700 
L 84 2700 
L 84 3500 
L 641 3500 
L 641 4494 
L 1759 4494 
z
" transform="scale(0.015625)"/>
      <path id="DejaVuSans-Bold-68" d="M 4056 2131 
L 4056 0 
L 2931 0 
L 2931 347 
L 2931 1625 
Q 2931 2084 2911 2256 
Q 2891 2428 2841 2509 
Q 2775 2619 2662 2680 
Q 2550 2741 2406 2741 
Q 2056 2741 1856 2470 
Q 1656 2200 1656 1722 
L 1656 0 
L 538 0 
L 538 4863 
L 1656 4863 
L 1656 2988 
Q 1909 3294 2193 3439 
Q 2478 3584 2822 3584 
Q 3428 3584 3742 3212 
Q 4056 2841 4056 2131 
z
" transform="scale(0.015625)"/>
      <path id="DejaVuSans-Bold-48" d="M 588 4666 
L 1791 4666 
L 1791 2888 
L 3566 2888 
L 3566 4666 
L 4769 4666 
L 4769 0 
L 3566 0 
L 3566 1978 
L 1791 1978 
L 1791 0 
L 588 0 
L 588 4666 
z
" transform="scale(0.015625)"/>
      <path id="DejaVuSans-Bold-6c" d="M 538 4863 
L 1656 4863 
L 1656 0 
L 538 0 
L 538 4863 
z
" transform="scale(0.015625)"/>
      <path id="DejaVuSans-Bold-66" d="M 2841 4863 
L 2841 4128 
L 2222 4128 
Q 1984 4128 1890 4042 
Q 1797 3956 1797 3744 
L 1797 3500 
L 2753 3500 
L 2753 2700 
L 1797 2700 
L 1797 0 
L 678 0 
L 678 2700 
L 122 2700 
L 122 3500 
L 678 3500 
L 678 3744 
Q 678 4316 997 4589 
Q 1316 4863 1984 4863 
L 2841 4863 
z
" transform="scale(0.015625)"/>
      <path id="DejaVuSans-Bold-2d" d="M 347 2297 
L 2309 2297 
L 2309 1388 
L 347 1388 
L 347 2297 
z
" transform="scale(0.015625)"/>
      <path id="DejaVuSans-Bold-67" d="M 2919 594 
Q 2688 288 2409 144 
Q 2131 0 1766 0 
Q 1125 0 706 504 
Q 288 1009 288 1791 
Q 288 2575 706 3076 
Q 1125 3578 1766 3578 
Q 2131 3578 2409 3434 
Q 2688 3291 2919 2981 
L 2919 3500 
L 4044 3500 
L 4044 353 
Q 4044 -491 3511 -936 
Q 2978 -1381 1966 -1381 
Q 1638 -1381 1331 -1331 
Q 1025 -1281 716 -1178 
L 716 -306 
Q 1009 -475 1290 -558 
Q 1572 -641 1856 -641 
Q 2406 -641 2662 -400 
Q 2919 -159 2919 353 
L 2919 594 
z
M 2181 2772 
Q 1834 2772 1640 2515 
Q 1447 2259 1447 1791 
Q 1447 1309 1634 1061 
Q 1822 813 2181 813 
Q 2531 813 2725 1069 
Q 2919 1325 2919 1791 
Q 2919 2259 2725 2515 
Q 2531 2772 2181 2772 
z
" transform="scale(0.015625)"/>
      <path id="DejaVuSans-Bold-49" d="M 588 4666 
L 1791 4666 
L 1791 0 
L 588 0 
L 588 4666 
z
" transform="scale(0.015625)"/>
      <path id="DejaVuSans-Bold-72" d="M 3138 2547 
Q 2991 2616 2845 2648 
Q 2700 2681 2553 2681 
Q 2122 2681 1889 2404 
Q 1656 2128 1656 1613 
L 1656 0 
L 538 0 
L 538 3500 
L 1656 3500 
L 1656 2925 
Q 1872 3269 2151 3426 
Q 2431 3584 2822 3584 
Q 2878 3584 2943 3579 
Q 3009 3575 3134 3559 
L 3138 2547 
z
" transform="scale(0.015625)"/>
      <path id="DejaVuSans-Bold-6f" d="M 2203 2784 
Q 1831 2784 1636 2517 
Q 1441 2250 1441 1747 
Q 1441 1244 1636 976 
Q 1831 709 2203 709 
Q 2569 709 2762 976 
Q 2956 1244 2956 1747 
Q 2956 2250 2762 2517 
Q 2569 2784 2203 2784 
z
M 2203 3584 
Q 3106 3584 3614 3096 
Q 4122 2609 4122 1747 
Q 4122 884 3614 396 
Q 3106 -91 2203 -91 
Q 1297 -91 786 396 
Q 275 884 275 1747 
Q 275 2609 786 3096 
Q 1297 3584 2203 3584 
z
" transform="scale(0.015625)"/>
     </defs>
     <use xlink:href="#DejaVuSans-Bold-50"/>
     <use xlink:href="#DejaVuSans-Bold-50" x="73.291016"/>
     <use xlink:href="#DejaVuSans-Bold-34" x="146.582031"/>
     <use xlink:href="#DejaVuSans-Bold-4b" x="216.162109"/>
     <use xlink:href="#DejaVuSans-Bold-4f" x="289.152344"/>
     <use xlink:href="#DejaVuSans-Bold-20" x="374.162109"/>
     <use xlink:href="#DejaVuSans-Bold-4c" x="408.976562"/>
     <use xlink:href="#DejaVuSans-Bold-69" x="472.697266"/>
     <use xlink:href="#DejaVuSans-Bold-6e" x="506.974609"/>
     <use xlink:href="#DejaVuSans-Bold-65" x="578.166016"/>
     <use xlink:href="#DejaVuSans-Bold-73" x="645.988281"/>
     <use xlink:href="#DejaVuSans-Bold-63" x="705.509766"/>
     <use xlink:href="#DejaVuSans-Bold-61" x="764.787109"/>
     <use xlink:href="#DejaVuSans-Bold-6e" x="832.267578"/>
     <use xlink:href="#DejaVuSans-Bold-20" x="903.458984"/>
     <use xlink:href="#DejaVuSans-Bold-77" x="938.273438"/>
     <use xlink:href="#DejaVuSans-Bold-69" x="1030.65625"/>
     <use xlink:href="#DejaVuSans-Bold-74" x="1064.933594"/>
     <use xlink:href="#DejaVuSans-Bold-68" x="1112.736328"/>
     <use xlink:href="#DejaVuSans-Bold-20" x="1183.927734"/>
     <use xlink:href="#DejaVuSans-Bold-48" x="1218.742188"/>
     <use xlink:href="#DejaVuSans-Bold-61" x="1302.433594"/>
     <use xlink:href="#DejaVuSans-Bold-6c" x="1369.914062"/>
     <use xlink:href="#DejaVuSans-Bold-66" x="1404.191406"/>
     <use xlink:href="#DejaVuSans-Bold-2d" x="1445.947266"/>
     <use xlink:href="#DejaVuSans-Bold-48" x="1487.451172"/>
     <use xlink:href="#DejaVuSans-Bold-65" x="1571.142578"/>
     <use xlink:href="#DejaVuSans-Bold-69" x="1638.964844"/>
     <use xlink:href="#DejaVuSans-Bold-67" x="1673.242188"/>
     <use xlink:href="#DejaVuSans-Bold-68" x="1744.824219"/>
     <use xlink:href="#DejaVuSans-Bold-74" x="1816.015625"/>
     <use xlink:href="#DejaVuSans-Bold-20" x="1863.818359"/>
     <use xlink:href="#DejaVuSans-Bold-49" x="1898.632812"/>
     <use xlink:href="#DejaVuSans-Bold-6e" x="1935.839844"/>
     <use xlink:href="#DejaVuSans-Bold-74" x="2007.03125"/>
     <use xlink:href="#DejaVuSans-Bold-65" x="2054.833984"/>
     <use xlink:href="#DejaVuSans-Bold-72" x="2122.65625"/>
     <use xlink:href="#DejaVuSans-Bold-73" x="2171.972656"/>
     <use xlink:href="#DejaVuSans-Bold-65" x="2231.494141"/>
     <use xlink:href="#DejaVuSans-Bold-63" x="2299.316406"/>
     <use xlink:href="#DejaVuSans-Bold-74" x="2358.59375"/>
     <use xlink:href="#DejaVuSans-Bold-69" x="2406.396484"/>
     <use xlink:href="#DejaVuSans-Bold-6f" x="2440.673828"/>
     <use xlink:href="#DejaVuSans-Bold-6e" x="2509.375"/>
     <use xlink:href="#DejaVuSans-Bold-73" x="2580.566406"/>
    </g>
   </g>
  </g>
 </g>
 <defs>
  <clipPath id="pd09483e96e">
   <rect x="48.8975" y="20.798437" width="357.12" height="266.112"/>
  </clipPath>
 </defs>
</svg>
