<?xml version="1.0" encoding="utf-8" standalone="no"?>
<!DOCTYPE svg PUBLIC "-//W3C//DTD SVG 1.1//EN"
  "http://www.w3.org/Graphics/SVG/1.1/DTD/svg11.dtd">
<svg xmlns:xlink="http://www.w3.org/1999/xlink" width="413.2175pt" height="328.337937pt" viewBox="0 0 413.2175 328.337937" xmlns="http://www.w3.org/2000/svg" version="1.1">
 <metadata>
  <rdf:RDF xmlns:dc="http://purl.org/dc/elements/1.1/" xmlns:cc="http://creativecommons.org/ns#" xmlns:rdf="http://www.w3.org/1999/02/22-rdf-syntax-ns#">
   <cc:Work>
    <dc:type rdf:resource="http://purl.org/dc/dcmitype/StillImage"/>
    <dc:date>2024-12-18T14:24:18.115778</dc:date>
    <dc:format>image/svg+xml</dc:format>
    <dc:creator>
     <cc:Agent>
      <dc:title>Matplotlib v3.7.2, https://matplotlib.org/</dc:title>
     </cc:Agent>
    </dc:creator>
   </cc:Work>
  </rdf:RDF>
 </metadata>
 <defs>
  <style type="text/css">*{stroke-linejoin: round; stroke-linecap: butt}</style>
 </defs>
 <g id="figure_1">
  <g id="patch_1">
   <path d="M 0 328.337937 
L 413.2175 328.337937 
L 413.2175 0 
L 0 0 
z
" style="fill: #ffffff"/>
  </g>
  <g id="axes_1">
   <g id="patch_2">
    <path d="M 48.8975 286.910437 
L 406.0175 286.910437 
L 406.0175 20.798437 
L 48.8975 20.798437 
z
" style="fill: #ffffff"/>
   </g>
   <g id="PolyCollection_1"/>
   <g id="PolyCollection_2"/>
   <g id="matplotlib.axis_1">
    <g id="xtick_1">
     <g id="line2d_1">
      <defs>
       <path id="m7881b4754d" d="M 0 0 
L 0 3.5 
" style="stroke: #000000; stroke-width: 0.8"/>
      </defs>
      <g>
       <use xlink:href="#m7881b4754d" x="65.130227" y="286.910437" style="stroke: #000000; stroke-width: 0.8"/>
      </g>
     </g>
     <g id="text_1">
      <!-- 0 -->
      <g transform="translate(61.312727 303.028562) scale(0.12 -0.12)">
       <defs>
        <path id="DejaVuSans-30" d="M 2034 4250 
Q 1547 4250 1301 3770 
Q 1056 3291 1056 2328 
Q 1056 1369 1301 889 
Q 1547 409 2034 409 
Q 2525 409 2770 889 
Q 3016 1369 3016 2328 
Q 3016 3291 2770 3770 
Q 2525 4250 2034 4250 
z
M 2034 4750 
Q 2819 4750 3233 4129 
Q 3647 3509 3647 2328 
Q 3647 1150 3233 529 
Q 2819 -91 2034 -91 
Q 1250 -91 836 529 
Q 422 1150 422 2328 
Q 422 3509 836 4129 
Q 1250 4750 2034 4750 
z
" transform="scale(0.015625)"/>
       </defs>
       <use xlink:href="#DejaVuSans-30"/>
      </g>
     </g>
    </g>
    <g id="xtick_2">
     <g id="line2d_2">
      <g>
       <use xlink:href="#m7881b4754d" x="111.731336" y="286.910437" style="stroke: #000000; stroke-width: 0.8"/>
      </g>
     </g>
     <g id="text_2">
      <!-- 1 -->
      <g transform="translate(107.913836 303.028562) scale(0.12 -0.12)">
       <defs>
        <path id="DejaVuSans-31" d="M 794 531 
L 1825 531 
L 1825 4091 
L 703 3866 
L 703 4441 
L 1819 4666 
L 2450 4666 
L 2450 531 
L 3481 531 
L 3481 0 
L 794 0 
L 794 531 
z
" transform="scale(0.015625)"/>
       </defs>
       <use xlink:href="#DejaVuSans-31"/>
      </g>
     </g>
    </g>
    <g id="xtick_3">
     <g id="line2d_3">
      <g>
       <use xlink:href="#m7881b4754d" x="158.332445" y="286.910437" style="stroke: #000000; stroke-width: 0.8"/>
      </g>
     </g>
     <g id="text_3">
      <!-- 2 -->
      <g transform="translate(154.514945 303.028562) scale(0.12 -0.12)">
       <defs>
        <path id="DejaVuSans-32" d="M 1228 531 
L 3431 531 
L 3431 0 
L 469 0 
L 469 531 
Q 828 903 1448 1529 
Q 2069 2156 2228 2338 
Q 2531 2678 2651 2914 
Q 2772 3150 2772 3378 
Q 2772 3750 2511 3984 
Q 2250 4219 1831 4219 
Q 1534 4219 1204 4116 
Q 875 4013 500 3803 
L 500 4441 
Q 881 4594 1212 4672 
Q 1544 4750 1819 4750 
Q 2544 4750 2975 4387 
Q 3406 4025 3406 3419 
Q 3406 3131 3298 2873 
Q 3191 2616 2906 2266 
Q 2828 2175 2409 1742 
Q 1991 1309 1228 531 
z
" transform="scale(0.015625)"/>
       </defs>
       <use xlink:href="#DejaVuSans-32"/>
      </g>
     </g>
    </g>
    <g id="xtick_4">
     <g id="line2d_4">
      <g>
       <use xlink:href="#m7881b4754d" x="204.933553" y="286.910437" style="stroke: #000000; stroke-width: 0.8"/>
      </g>
     </g>
     <g id="text_4">
      <!-- 3 -->
      <g transform="translate(201.116053 303.028562) scale(0.12 -0.12)">
       <defs>
        <path id="DejaVuSans-33" d="M 2597 2516 
Q 3050 2419 3304 2112 
Q 3559 1806 3559 1356 
Q 3559 666 3084 287 
Q 2609 -91 1734 -91 
Q 1441 -91 1130 -33 
Q 819 25 488 141 
L 488 750 
Q 750 597 1062 519 
Q 1375 441 1716 441 
Q 2309 441 2620 675 
Q 2931 909 2931 1356 
Q 2931 1769 2642 2001 
Q 2353 2234 1838 2234 
L 1294 2234 
L 1294 2753 
L 1863 2753 
Q 2328 2753 2575 2939 
Q 2822 3125 2822 3475 
Q 2822 3834 2567 4026 
Q 2313 4219 1838 4219 
Q 1578 4219 1281 4162 
Q 984 4106 628 3988 
L 628 4550 
Q 988 4650 1302 4700 
Q 1616 4750 1894 4750 
Q 2613 4750 3031 4423 
Q 3450 4097 3450 3541 
Q 3450 3153 3228 2886 
Q 3006 2619 2597 2516 
z
" transform="scale(0.015625)"/>
       </defs>
       <use xlink:href="#DejaVuSans-33"/>
      </g>
     </g>
    </g>
    <g id="xtick_5">
     <g id="line2d_5">
      <g>
       <use xlink:href="#m7881b4754d" x="251.534662" y="286.910437" style="stroke: #000000; stroke-width: 0.8"/>
      </g>
     </g>
     <g id="text_5">
      <!-- 4 -->
      <g transform="translate(247.717162 303.028562) scale(0.12 -0.12)">
       <defs>
        <path id="DejaVuSans-34" d="M 2419 4116 
L 825 1625 
L 2419 1625 
L 2419 4116 
z
M 2253 4666 
L 3047 4666 
L 3047 1625 
L 3713 1625 
L 3713 1100 
L 3047 1100 
L 3047 0 
L 2419 0 
L 2419 1100 
L 313 1100 
L 313 1709 
L 2253 4666 
z
" transform="scale(0.015625)"/>
       </defs>
       <use xlink:href="#DejaVuSans-34"/>
      </g>
     </g>
    </g>
    <g id="xtick_6">
     <g id="line2d_6">
      <g>
       <use xlink:href="#m7881b4754d" x="298.13577" y="286.910437" style="stroke: #000000; stroke-width: 0.8"/>
      </g>
     </g>
     <g id="text_6">
      <!-- 5 -->
      <g transform="translate(294.31827 303.028562) scale(0.12 -0.12)">
       <defs>
        <path id="DejaVuSans-35" d="M 691 4666 
L 3169 4666 
L 3169 4134 
L 1269 4134 
L 1269 2991 
Q 1406 3038 1543 3061 
Q 1681 3084 1819 3084 
Q 2600 3084 3056 2656 
Q 3513 2228 3513 1497 
Q 3513 744 3044 326 
Q 2575 -91 1722 -91 
Q 1428 -91 1123 -41 
Q 819 9 494 109 
L 494 744 
Q 775 591 1075 516 
Q 1375 441 1709 441 
Q 2250 441 2565 725 
Q 2881 1009 2881 1497 
Q 2881 1984 2565 2268 
Q 2250 2553 1709 2553 
Q 1456 2553 1204 2497 
Q 953 2441 691 2322 
L 691 4666 
z
" transform="scale(0.015625)"/>
       </defs>
       <use xlink:href="#DejaVuSans-35"/>
      </g>
     </g>
    </g>
    <g id="xtick_7">
     <g id="line2d_7">
      <g>
       <use xlink:href="#m7881b4754d" x="344.736879" y="286.910437" style="stroke: #000000; stroke-width: 0.8"/>
      </g>
     </g>
     <g id="text_7">
      <!-- 6 -->
      <g transform="translate(340.919379 303.028562) scale(0.12 -0.12)">
       <defs>
        <path id="DejaVuSans-36" d="M 2113 2584 
Q 1688 2584 1439 2293 
Q 1191 2003 1191 1497 
Q 1191 994 1439 701 
Q 1688 409 2113 409 
Q 2538 409 2786 701 
Q 3034 994 3034 1497 
Q 3034 2003 2786 2293 
Q 2538 2584 2113 2584 
z
M 3366 4563 
L 3366 3988 
Q 3128 4100 2886 4159 
Q 2644 4219 2406 4219 
Q 1781 4219 1451 3797 
Q 1122 3375 1075 2522 
Q 1259 2794 1537 2939 
Q 1816 3084 2150 3084 
Q 2853 3084 3261 2657 
Q 3669 2231 3669 1497 
Q 3669 778 3244 343 
Q 2819 -91 2113 -91 
Q 1303 -91 875 529 
Q 447 1150 447 2328 
Q 447 3434 972 4092 
Q 1497 4750 2381 4750 
Q 2619 4750 2861 4703 
Q 3103 4656 3366 4563 
z
" transform="scale(0.015625)"/>
       </defs>
       <use xlink:href="#DejaVuSans-36"/>
      </g>
     </g>
    </g>
    <g id="xtick_8">
     <g id="line2d_8">
      <g>
       <use xlink:href="#m7881b4754d" x="391.337988" y="286.910437" style="stroke: #000000; stroke-width: 0.8"/>
      </g>
     </g>
     <g id="text_8">
      <!-- 7 -->
      <g transform="translate(387.520488 303.028562) scale(0.12 -0.12)">
       <defs>
        <path id="DejaVuSans-37" d="M 525 4666 
L 3525 4666 
L 3525 4397 
L 1831 0 
L 1172 0 
L 2766 4134 
L 525 4134 
L 525 4666 
z
" transform="scale(0.015625)"/>
       </defs>
       <use xlink:href="#DejaVuSans-37"/>
      </g>
     </g>
    </g>
    <g id="text_9">
     <!-- Distance -->
     <g transform="translate(201.2225 318.642312) scale(0.12 -0.12)">
      <defs>
       <path id="DejaVuSans-44" d="M 1259 4147 
L 1259 519 
L 2022 519 
Q 2988 519 3436 956 
Q 3884 1394 3884 2338 
Q 3884 3275 3436 3711 
Q 2988 4147 2022 4147 
L 1259 4147 
z
M 628 4666 
L 1925 4666 
Q 3281 4666 3915 4102 
Q 4550 3538 4550 2338 
Q 4550 1131 3912 565 
Q 3275 0 1925 0 
L 628 0 
L 628 4666 
z
" transform="scale(0.015625)"/>
       <path id="DejaVuSans-69" d="M 603 3500 
L 1178 3500 
L 1178 0 
L 603 0 
L 603 3500 
z
M 603 4863 
L 1178 4863 
L 1178 4134 
L 603 4134 
L 603 4863 
z
" transform="scale(0.015625)"/>
       <path id="DejaVuSans-73" d="M 2834 3397 
L 2834 2853 
Q 2591 2978 2328 3040 
Q 2066 3103 1784 3103 
Q 1356 3103 1142 2972 
Q 928 2841 928 2578 
Q 928 2378 1081 2264 
Q 1234 2150 1697 2047 
L 1894 2003 
Q 2506 1872 2764 1633 
Q 3022 1394 3022 966 
Q 3022 478 2636 193 
Q 2250 -91 1575 -91 
Q 1294 -91 989 -36 
Q 684 19 347 128 
L 347 722 
Q 666 556 975 473 
Q 1284 391 1588 391 
Q 1994 391 2212 530 
Q 2431 669 2431 922 
Q 2431 1156 2273 1281 
Q 2116 1406 1581 1522 
L 1381 1569 
Q 847 1681 609 1914 
Q 372 2147 372 2553 
Q 372 3047 722 3315 
Q 1072 3584 1716 3584 
Q 2034 3584 2315 3537 
Q 2597 3491 2834 3397 
z
" transform="scale(0.015625)"/>
       <path id="DejaVuSans-74" d="M 1172 4494 
L 1172 3500 
L 2356 3500 
L 2356 3053 
L 1172 3053 
L 1172 1153 
Q 1172 725 1289 603 
Q 1406 481 1766 481 
L 2356 481 
L 2356 0 
L 1766 0 
Q 1100 0 847 248 
Q 594 497 594 1153 
L 594 3053 
L 172 3053 
L 172 3500 
L 594 3500 
L 594 4494 
L 1172 4494 
z
" transform="scale(0.015625)"/>
       <path id="DejaVuSans-61" d="M 2194 1759 
Q 1497 1759 1228 1600 
Q 959 1441 959 1056 
Q 959 750 1161 570 
Q 1363 391 1709 391 
Q 2188 391 2477 730 
Q 2766 1069 2766 1631 
L 2766 1759 
L 2194 1759 
z
M 3341 1997 
L 3341 0 
L 2766 0 
L 2766 531 
Q 2569 213 2275 61 
Q 1981 -91 1556 -91 
Q 1019 -91 701 211 
Q 384 513 384 1019 
Q 384 1609 779 1909 
Q 1175 2209 1959 2209 
L 2766 2209 
L 2766 2266 
Q 2766 2663 2505 2880 
Q 2244 3097 1772 3097 
Q 1472 3097 1187 3025 
Q 903 2953 641 2809 
L 641 3341 
Q 956 3463 1253 3523 
Q 1550 3584 1831 3584 
Q 2591 3584 2966 3190 
Q 3341 2797 3341 1997 
z
" transform="scale(0.015625)"/>
       <path id="DejaVuSans-6e" d="M 3513 2113 
L 3513 0 
L 2938 0 
L 2938 2094 
Q 2938 2591 2744 2837 
Q 2550 3084 2163 3084 
Q 1697 3084 1428 2787 
Q 1159 2491 1159 1978 
L 1159 0 
L 581 0 
L 581 3500 
L 1159 3500 
L 1159 2956 
Q 1366 3272 1645 3428 
Q 1925 3584 2291 3584 
Q 2894 3584 3203 3211 
Q 3513 2838 3513 2113 
z
" transform="scale(0.015625)"/>
       <path id="DejaVuSans-63" d="M 3122 3366 
L 3122 2828 
Q 2878 2963 2633 3030 
Q 2388 3097 2138 3097 
Q 1578 3097 1268 2742 
Q 959 2388 959 1747 
Q 959 1106 1268 751 
Q 1578 397 2138 397 
Q 2388 397 2633 464 
Q 2878 531 3122 666 
L 3122 134 
Q 2881 22 2623 -34 
Q 2366 -91 2075 -91 
Q 1284 -91 818 406 
Q 353 903 353 1747 
Q 353 2603 823 3093 
Q 1294 3584 2113 3584 
Q 2378 3584 2631 3529 
Q 2884 3475 3122 3366 
z
" transform="scale(0.015625)"/>
       <path id="DejaVuSans-65" d="M 3597 1894 
L 3597 1613 
L 953 1613 
Q 991 1019 1311 708 
Q 1631 397 2203 397 
Q 2534 397 2845 478 
Q 3156 559 3463 722 
L 3463 178 
Q 3153 47 2828 -22 
Q 2503 -91 2169 -91 
Q 1331 -91 842 396 
Q 353 884 353 1716 
Q 353 2575 817 3079 
Q 1281 3584 2069 3584 
Q 2775 3584 3186 3129 
Q 3597 2675 3597 1894 
z
M 3022 2063 
Q 3016 2534 2758 2815 
Q 2500 3097 2075 3097 
Q 1594 3097 1305 2825 
Q 1016 2553 972 2059 
L 3022 2063 
z
" transform="scale(0.015625)"/>
      </defs>
      <use xlink:href="#DejaVuSans-44"/>
      <use xlink:href="#DejaVuSans-69" x="77.001953"/>
      <use xlink:href="#DejaVuSans-73" x="104.785156"/>
      <use xlink:href="#DejaVuSans-74" x="156.884766"/>
      <use xlink:href="#DejaVuSans-61" x="196.09375"/>
      <use xlink:href="#DejaVuSans-6e" x="257.373047"/>
      <use xlink:href="#DejaVuSans-63" x="320.751953"/>
      <use xlink:href="#DejaVuSans-65" x="375.732422"/>
     </g>
    </g>
   </g>
   <g id="matplotlib.axis_2">
    <g id="ytick_1">
     <g id="line2d_9">
      <defs>
       <path id="mf77f07d513" d="M 0 0 
L -3.5 0 
" style="stroke: #000000; stroke-width: 0.8"/>
      </defs>
      <g>
       <use xlink:href="#mf77f07d513" x="48.8975" y="286.910437" style="stroke: #000000; stroke-width: 0.8"/>
      </g>
     </g>
     <g id="text_10">
      <!-- 0.0 -->
      <g transform="translate(22.81375 291.4695) scale(0.12 -0.12)">
       <defs>
        <path id="DejaVuSans-2e" d="M 684 794 
L 1344 794 
L 1344 0 
L 684 0 
L 684 794 
z
" transform="scale(0.015625)"/>
       </defs>
       <use xlink:href="#DejaVuSans-30"/>
       <use xlink:href="#DejaVuSans-2e" x="63.623047"/>
       <use xlink:href="#DejaVuSans-30" x="95.410156"/>
      </g>
     </g>
    </g>
    <g id="ytick_2">
     <g id="line2d_10">
      <g>
       <use xlink:href="#mf77f07d513" x="48.8975" y="242.558437" style="stroke: #000000; stroke-width: 0.8"/>
      </g>
     </g>
     <g id="text_11">
      <!-- 0.2 -->
      <g transform="translate(22.81375 247.1175) scale(0.12 -0.12)">
       <use xlink:href="#DejaVuSans-30"/>
       <use xlink:href="#DejaVuSans-2e" x="63.623047"/>
       <use xlink:href="#DejaVuSans-32" x="95.410156"/>
      </g>
     </g>
    </g>
    <g id="ytick_3">
     <g id="line2d_11">
      <g>
       <use xlink:href="#mf77f07d513" x="48.8975" y="198.206437" style="stroke: #000000; stroke-width: 0.8"/>
      </g>
     </g>
     <g id="text_12">
      <!-- 0.4 -->
      <g transform="translate(22.81375 202.7655) scale(0.12 -0.12)">
       <use xlink:href="#DejaVuSans-30"/>
       <use xlink:href="#DejaVuSans-2e" x="63.623047"/>
       <use xlink:href="#DejaVuSans-34" x="95.410156"/>
      </g>
     </g>
    </g>
    <g id="ytick_4">
     <g id="line2d_12">
      <g>
       <use xlink:href="#mf77f07d513" x="48.8975" y="153.854437" style="stroke: #000000; stroke-width: 0.8"/>
      </g>
     </g>
     <g id="text_13">
      <!-- 0.6 -->
      <g transform="translate(22.81375 158.4135) scale(0.12 -0.12)">
       <use xlink:href="#DejaVuSans-30"/>
       <use xlink:href="#DejaVuSans-2e" x="63.623047"/>
       <use xlink:href="#DejaVuSans-36" x="95.410156"/>
      </g>
     </g>
    </g>
    <g id="ytick_5">
     <g id="line2d_13">
      <g>
       <use xlink:href="#mf77f07d513" x="48.8975" y="109.502437" style="stroke: #000000; stroke-width: 0.8"/>
      </g>
     </g>
     <g id="text_14">
      <!-- 0.8 -->
      <g transform="translate(22.81375 114.0615) scale(0.12 -0.12)">
       <defs>
        <path id="DejaVuSans-38" d="M 2034 2216 
Q 1584 2216 1326 1975 
Q 1069 1734 1069 1313 
Q 1069 891 1326 650 
Q 1584 409 2034 409 
Q 2484 409 2743 651 
Q 3003 894 3003 1313 
Q 3003 1734 2745 1975 
Q 2488 2216 2034 2216 
z
M 1403 2484 
Q 997 2584 770 2862 
Q 544 3141 544 3541 
Q 544 4100 942 4425 
Q 1341 4750 2034 4750 
Q 2731 4750 3128 4425 
Q 3525 4100 3525 3541 
Q 3525 3141 3298 2862 
Q 3072 2584 2669 2484 
Q 3125 2378 3379 2068 
Q 3634 1759 3634 1313 
Q 3634 634 3220 271 
Q 2806 -91 2034 -91 
Q 1263 -91 848 271 
Q 434 634 434 1313 
Q 434 1759 690 2068 
Q 947 2378 1403 2484 
z
M 1172 3481 
Q 1172 3119 1398 2916 
Q 1625 2713 2034 2713 
Q 2441 2713 2670 2916 
Q 2900 3119 2900 3481 
Q 2900 3844 2670 4047 
Q 2441 4250 2034 4250 
Q 1625 4250 1398 4047 
Q 1172 3844 1172 3481 
z
" transform="scale(0.015625)"/>
       </defs>
       <use xlink:href="#DejaVuSans-30"/>
       <use xlink:href="#DejaVuSans-2e" x="63.623047"/>
       <use xlink:href="#DejaVuSans-38" x="95.410156"/>
      </g>
     </g>
    </g>
    <g id="ytick_6">
     <g id="line2d_14">
      <g>
       <use xlink:href="#mf77f07d513" x="48.8975" y="65.150437" style="stroke: #000000; stroke-width: 0.8"/>
      </g>
     </g>
     <g id="text_15">
      <!-- 1.0 -->
      <g transform="translate(22.81375 69.7095) scale(0.12 -0.12)">
       <use xlink:href="#DejaVuSans-31"/>
       <use xlink:href="#DejaVuSans-2e" x="63.623047"/>
       <use xlink:href="#DejaVuSans-30" x="95.410156"/>
      </g>
     </g>
    </g>
    <g id="ytick_7">
     <g id="line2d_15">
      <g>
       <use xlink:href="#mf77f07d513" x="48.8975" y="20.798437" style="stroke: #000000; stroke-width: 0.8"/>
      </g>
     </g>
     <g id="text_16">
      <!-- 1.2 -->
      <g transform="translate(22.81375 25.3575) scale(0.12 -0.12)">
       <use xlink:href="#DejaVuSans-31"/>
       <use xlink:href="#DejaVuSans-2e" x="63.623047"/>
       <use xlink:href="#DejaVuSans-32" x="95.410156"/>
      </g>
     </g>
    </g>
    <g id="text_17">
     <!-- Normalized Intensity -->
     <g transform="translate(16.318125 215.902875) rotate(-90) scale(0.12 -0.12)">
      <defs>
       <path id="DejaVuSans-4e" d="M 628 4666 
L 1478 4666 
L 3547 763 
L 3547 4666 
L 4159 4666 
L 4159 0 
L 3309 0 
L 1241 3903 
L 1241 0 
L 628 0 
L 628 4666 
z
" transform="scale(0.015625)"/>
       <path id="DejaVuSans-6f" d="M 1959 3097 
Q 1497 3097 1228 2736 
Q 959 2375 959 1747 
Q 959 1119 1226 758 
Q 1494 397 1959 397 
Q 2419 397 2687 759 
Q 2956 1122 2956 1747 
Q 2956 2369 2687 2733 
Q 2419 3097 1959 3097 
z
M 1959 3584 
Q 2709 3584 3137 3096 
Q 3566 2609 3566 1747 
Q 3566 888 3137 398 
Q 2709 -91 1959 -91 
Q 1206 -91 779 398 
Q 353 888 353 1747 
Q 353 2609 779 3096 
Q 1206 3584 1959 3584 
z
" transform="scale(0.015625)"/>
       <path id="DejaVuSans-72" d="M 2631 2963 
Q 2534 3019 2420 3045 
Q 2306 3072 2169 3072 
Q 1681 3072 1420 2755 
Q 1159 2438 1159 1844 
L 1159 0 
L 581 0 
L 581 3500 
L 1159 3500 
L 1159 2956 
Q 1341 3275 1631 3429 
Q 1922 3584 2338 3584 
Q 2397 3584 2469 3576 
Q 2541 3569 2628 3553 
L 2631 2963 
z
" transform="scale(0.015625)"/>
       <path id="DejaVuSans-6d" d="M 3328 2828 
Q 3544 3216 3844 3400 
Q 4144 3584 4550 3584 
Q 5097 3584 5394 3201 
Q 5691 2819 5691 2113 
L 5691 0 
L 5113 0 
L 5113 2094 
Q 5113 2597 4934 2840 
Q 4756 3084 4391 3084 
Q 3944 3084 3684 2787 
Q 3425 2491 3425 1978 
L 3425 0 
L 2847 0 
L 2847 2094 
Q 2847 2600 2669 2842 
Q 2491 3084 2119 3084 
Q 1678 3084 1418 2786 
Q 1159 2488 1159 1978 
L 1159 0 
L 581 0 
L 581 3500 
L 1159 3500 
L 1159 2956 
Q 1356 3278 1631 3431 
Q 1906 3584 2284 3584 
Q 2666 3584 2933 3390 
Q 3200 3197 3328 2828 
z
" transform="scale(0.015625)"/>
       <path id="DejaVuSans-6c" d="M 603 4863 
L 1178 4863 
L 1178 0 
L 603 0 
L 603 4863 
z
" transform="scale(0.015625)"/>
       <path id="DejaVuSans-7a" d="M 353 3500 
L 3084 3500 
L 3084 2975 
L 922 459 
L 3084 459 
L 3084 0 
L 275 0 
L 275 525 
L 2438 3041 
L 353 3041 
L 353 3500 
z
" transform="scale(0.015625)"/>
       <path id="DejaVuSans-64" d="M 2906 2969 
L 2906 4863 
L 3481 4863 
L 3481 0 
L 2906 0 
L 2906 525 
Q 2725 213 2448 61 
Q 2172 -91 1784 -91 
Q 1150 -91 751 415 
Q 353 922 353 1747 
Q 353 2572 751 3078 
Q 1150 3584 1784 3584 
Q 2172 3584 2448 3432 
Q 2725 3281 2906 2969 
z
M 947 1747 
Q 947 1113 1208 752 
Q 1469 391 1925 391 
Q 2381 391 2643 752 
Q 2906 1113 2906 1747 
Q 2906 2381 2643 2742 
Q 2381 3103 1925 3103 
Q 1469 3103 1208 2742 
Q 947 2381 947 1747 
z
" transform="scale(0.015625)"/>
       <path id="DejaVuSans-20" transform="scale(0.015625)"/>
       <path id="DejaVuSans-49" d="M 628 4666 
L 1259 4666 
L 1259 0 
L 628 0 
L 628 4666 
z
" transform="scale(0.015625)"/>
       <path id="DejaVuSans-79" d="M 2059 -325 
Q 1816 -950 1584 -1140 
Q 1353 -1331 966 -1331 
L 506 -1331 
L 506 -850 
L 844 -850 
Q 1081 -850 1212 -737 
Q 1344 -625 1503 -206 
L 1606 56 
L 191 3500 
L 800 3500 
L 1894 763 
L 2988 3500 
L 3597 3500 
L 2059 -325 
z
" transform="scale(0.015625)"/>
      </defs>
      <use xlink:href="#DejaVuSans-4e"/>
      <use xlink:href="#DejaVuSans-6f" x="74.804688"/>
      <use xlink:href="#DejaVuSans-72" x="135.986328"/>
      <use xlink:href="#DejaVuSans-6d" x="175.349609"/>
      <use xlink:href="#DejaVuSans-61" x="272.761719"/>
      <use xlink:href="#DejaVuSans-6c" x="334.041016"/>
      <use xlink:href="#DejaVuSans-69" x="361.824219"/>
      <use xlink:href="#DejaVuSans-7a" x="389.607422"/>
      <use xlink:href="#DejaVuSans-65" x="442.097656"/>
      <use xlink:href="#DejaVuSans-64" x="503.621094"/>
      <use xlink:href="#DejaVuSans-20" x="567.097656"/>
      <use xlink:href="#DejaVuSans-49" x="598.884766"/>
      <use xlink:href="#DejaVuSans-6e" x="628.376953"/>
      <use xlink:href="#DejaVuSans-74" x="691.755859"/>
      <use xlink:href="#DejaVuSans-65" x="730.964844"/>
      <use xlink:href="#DejaVuSans-6e" x="792.488281"/>
      <use xlink:href="#DejaVuSans-73" x="855.867188"/>
      <use xlink:href="#DejaVuSans-69" x="907.966797"/>
      <use xlink:href="#DejaVuSans-74" x="935.75"/>
      <use xlink:href="#DejaVuSans-79" x="974.958984"/>
     </g>
    </g>
   </g>
   <g id="line2d_16">
    <path d="M 65.130227 279.394623 
L 73.673609 280.312104 
L 82.217456 306.064569 
L 90.760837 281.870453 
L 99.304218 269.817215 
L 107.848066 227.289907 
L 116.391447 216.452674 
L 124.934828 273.651465 
L 133.478675 323.206405 
L 142.022057 318.175321 
L 150.565438 274.601811 
L 159.109285 226.84623 
L 167.652666 324.066372 
L 176.196048 278.696242 
L 184.739895 273.591212 
L 193.283276 235.708824 
L 201.826657 220.051391 
L 210.370505 183.505513 
L 218.913886 157.317587 
L 227.457267 115.146316 
L 236.001114 65.150437 
L 244.544495 161.116233 
L 253.087877 205.735946 
L 261.631724 249.145131 
L 268.43909 329.337937 
M 272.262299 329.337937 
L 278.718486 266.078821 
L 287.262334 318.175321 
L 295.805715 301.115648 
L 304.349096 234.273719 
L 312.865661 329.337937 
M 321.647469 329.337937 
L 329.979706 272.468325 
L 338.523553 327.043393 
L 347.066934 291.113734 
L 355.610316 251.07595 
L 364.154163 294.183872 
L 372.697544 233.739663 
L 381.240925 322.601141 
L 389.784773 309.824873 
" clip-path="url(#pc92f19b19b)" style="fill: none; stroke: #ff00ff; stroke-width: 1.5; stroke-linecap: square"/>
    <defs>
     <path id="mb2d73cbb09" d="M 0 3 
C 0.795609 3 1.55874 2.683901 2.12132 2.12132 
C 2.683901 1.55874 3 0.795609 3 0 
C 3 -0.795609 2.683901 -1.55874 2.12132 -2.12132 
C 1.55874 -2.683901 0.795609 -3 0 -3 
C -0.795609 -3 -1.55874 -2.683901 -2.12132 -2.12132 
C -2.683901 -1.55874 -3 -0.795609 -3 0 
C -3 0.795609 -2.683901 1.55874 -2.12132 2.12132 
C -1.55874 2.683901 -0.795609 3 0 3 
z
" style="stroke: #ffffff; stroke-width: 0.75"/>
    </defs>
    <g clip-path="url(#pc92f19b19b)">
     <use xlink:href="#mb2d73cbb09" x="65.130227" y="279.394623" style="fill: #ff00ff; stroke: #ffffff; stroke-width: 0.75"/>
     <use xlink:href="#mb2d73cbb09" x="73.673609" y="280.312104" style="fill: #ff00ff; stroke: #ffffff; stroke-width: 0.75"/>
     <use xlink:href="#mb2d73cbb09" x="82.217456" y="306.064569" style="fill: #ff00ff; stroke: #ffffff; stroke-width: 0.75"/>
     <use xlink:href="#mb2d73cbb09" x="90.760837" y="281.870453" style="fill: #ff00ff; stroke: #ffffff; stroke-width: 0.75"/>
     <use xlink:href="#mb2d73cbb09" x="99.304218" y="269.817215" style="fill: #ff00ff; stroke: #ffffff; stroke-width: 0.75"/>
     <use xlink:href="#mb2d73cbb09" x="107.848066" y="227.289907" style="fill: #ff00ff; stroke: #ffffff; stroke-width: 0.75"/>
     <use xlink:href="#mb2d73cbb09" x="116.391447" y="216.452674" style="fill: #ff00ff; stroke: #ffffff; stroke-width: 0.75"/>
     <use xlink:href="#mb2d73cbb09" x="124.934828" y="273.651465" style="fill: #ff00ff; stroke: #ffffff; stroke-width: 0.75"/>
     <use xlink:href="#mb2d73cbb09" x="133.478675" y="323.206405" style="fill: #ff00ff; stroke: #ffffff; stroke-width: 0.75"/>
     <use xlink:href="#mb2d73cbb09" x="142.022057" y="318.175321" style="fill: #ff00ff; stroke: #ffffff; stroke-width: 0.75"/>
     <use xlink:href="#mb2d73cbb09" x="150.565438" y="274.601811" style="fill: #ff00ff; stroke: #ffffff; stroke-width: 0.75"/>
     <use xlink:href="#mb2d73cbb09" x="159.109285" y="226.84623" style="fill: #ff00ff; stroke: #ffffff; stroke-width: 0.75"/>
     <use xlink:href="#mb2d73cbb09" x="167.652666" y="324.066372" style="fill: #ff00ff; stroke: #ffffff; stroke-width: 0.75"/>
     <use xlink:href="#mb2d73cbb09" x="176.196048" y="278.696242" style="fill: #ff00ff; stroke: #ffffff; stroke-width: 0.75"/>
     <use xlink:href="#mb2d73cbb09" x="184.739895" y="273.591212" style="fill: #ff00ff; stroke: #ffffff; stroke-width: 0.75"/>
     <use xlink:href="#mb2d73cbb09" x="193.283276" y="235.708824" style="fill: #ff00ff; stroke: #ffffff; stroke-width: 0.75"/>
     <use xlink:href="#mb2d73cbb09" x="201.826657" y="220.051391" style="fill: #ff00ff; stroke: #ffffff; stroke-width: 0.75"/>
     <use xlink:href="#mb2d73cbb09" x="210.370505" y="183.505513" style="fill: #ff00ff; stroke: #ffffff; stroke-width: 0.75"/>
     <use xlink:href="#mb2d73cbb09" x="218.913886" y="157.317587" style="fill: #ff00ff; stroke: #ffffff; stroke-width: 0.75"/>
     <use xlink:href="#mb2d73cbb09" x="227.457267" y="115.146316" style="fill: #ff00ff; stroke: #ffffff; stroke-width: 0.75"/>
     <use xlink:href="#mb2d73cbb09" x="236.001114" y="65.150437" style="fill: #ff00ff; stroke: #ffffff; stroke-width: 0.75"/>
     <use xlink:href="#mb2d73cbb09" x="244.544495" y="161.116233" style="fill: #ff00ff; stroke: #ffffff; stroke-width: 0.75"/>
     <use xlink:href="#mb2d73cbb09" x="253.087877" y="205.735946" style="fill: #ff00ff; stroke: #ffffff; stroke-width: 0.75"/>
     <use xlink:href="#mb2d73cbb09" x="261.631724" y="249.145131" style="fill: #ff00ff; stroke: #ffffff; stroke-width: 0.75"/>
     <use xlink:href="#mb2d73cbb09" x="270.175105" y="349.788711" style="fill: #ff00ff; stroke: #ffffff; stroke-width: 0.75"/>
     <use xlink:href="#mb2d73cbb09" x="278.718486" y="266.078821" style="fill: #ff00ff; stroke: #ffffff; stroke-width: 0.75"/>
     <use xlink:href="#mb2d73cbb09" x="287.262334" y="318.175321" style="fill: #ff00ff; stroke: #ffffff; stroke-width: 0.75"/>
     <use xlink:href="#mb2d73cbb09" x="295.805715" y="301.115648" style="fill: #ff00ff; stroke: #ffffff; stroke-width: 0.75"/>
     <use xlink:href="#mb2d73cbb09" x="304.349096" y="234.273719" style="fill: #ff00ff; stroke: #ffffff; stroke-width: 0.75"/>
     <use xlink:href="#mb2d73cbb09" x="312.892943" y="329.642467" style="fill: #ff00ff; stroke: #ffffff; stroke-width: 0.75"/>
     <use xlink:href="#mb2d73cbb09" x="321.436325" y="330.779048" style="fill: #ff00ff; stroke: #ffffff; stroke-width: 0.75"/>
     <use xlink:href="#mb2d73cbb09" x="329.979706" y="272.468325" style="fill: #ff00ff; stroke: #ffffff; stroke-width: 0.75"/>
     <use xlink:href="#mb2d73cbb09" x="338.523553" y="327.043393" style="fill: #ff00ff; stroke: #ffffff; stroke-width: 0.75"/>
     <use xlink:href="#mb2d73cbb09" x="347.066934" y="291.113734" style="fill: #ff00ff; stroke: #ffffff; stroke-width: 0.75"/>
     <use xlink:href="#mb2d73cbb09" x="355.610316" y="251.07595" style="fill: #ff00ff; stroke: #ffffff; stroke-width: 0.75"/>
     <use xlink:href="#mb2d73cbb09" x="364.154163" y="294.183872" style="fill: #ff00ff; stroke: #ffffff; stroke-width: 0.75"/>
     <use xlink:href="#mb2d73cbb09" x="372.697544" y="233.739663" style="fill: #ff00ff; stroke: #ffffff; stroke-width: 0.75"/>
     <use xlink:href="#mb2d73cbb09" x="381.240925" y="322.601141" style="fill: #ff00ff; stroke: #ffffff; stroke-width: 0.75"/>
     <use xlink:href="#mb2d73cbb09" x="389.784773" y="309.824873" style="fill: #ff00ff; stroke: #ffffff; stroke-width: 0.75"/>
    </g>
   </g>
   <g id="line2d_17">
    <path d="M 65.130227 315.876757 
L 73.673609 311.226031 
L 82.217456 253.49149 
L 90.760837 267.047472 
L 99.304218 253.300914 
L 107.848066 261.356935 
L 116.391447 254.308961 
L 124.934828 241.007081 
L 133.478675 268.219348 
L 142.022057 245.18471 
L 150.565438 263.468318 
L 159.109285 236.560304 
L 167.652666 240.453741 
L 176.196048 218.798273 
L 184.739895 212.042851 
L 193.283276 208.910046 
L 201.826657 176.241283 
L 210.370505 139.145804 
L 218.913886 65.150437 
L 227.457267 74.637452 
L 236.001114 72.205098 
L 244.544495 128.736 
L 253.087877 153.231722 
L 261.631724 164.196537 
L 270.175105 239.353749 
L 278.718486 242.769074 
L 287.262334 258.316075 
L 295.805715 323.867582 
L 304.349096 259.070021 
L 312.892943 270.716898 
L 321.436325 307.332594 
L 329.979706 286.955992 
L 338.523553 273.694233 
L 347.066934 315.146216 
L 355.610316 306.556915 
L 364.154163 323.160444 
L 372.697544 323.825789 
L 373.408423 329.337937 
" clip-path="url(#pc92f19b19b)" style="fill: none; stroke: #32cd32; stroke-width: 1.5; stroke-linecap: square"/>
    <defs>
     <path id="m54cc021f5b" d="M 0 3 
C 0.795609 3 1.55874 2.683901 2.12132 2.12132 
C 2.683901 1.55874 3 0.795609 3 0 
C 3 -0.795609 2.683901 -1.55874 2.12132 -2.12132 
C 1.55874 -2.683901 0.795609 -3 0 -3 
C -0.795609 -3 -1.55874 -2.683901 -2.12132 -2.12132 
C -2.683901 -1.55874 -3 -0.795609 -3 0 
C -3 0.795609 -2.683901 1.55874 -2.12132 2.12132 
C -1.55874 2.683901 -0.795609 3 0 3 
z
" style="stroke: #ffffff; stroke-width: 0.75"/>
    </defs>
    <g clip-path="url(#pc92f19b19b)">
     <use xlink:href="#m54cc021f5b" x="65.130227" y="315.876757" style="fill: #32cd32; stroke: #ffffff; stroke-width: 0.75"/>
     <use xlink:href="#m54cc021f5b" x="73.673609" y="311.226031" style="fill: #32cd32; stroke: #ffffff; stroke-width: 0.75"/>
     <use xlink:href="#m54cc021f5b" x="82.217456" y="253.49149" style="fill: #32cd32; stroke: #ffffff; stroke-width: 0.75"/>
     <use xlink:href="#m54cc021f5b" x="90.760837" y="267.047472" style="fill: #32cd32; stroke: #ffffff; stroke-width: 0.75"/>
     <use xlink:href="#m54cc021f5b" x="99.304218" y="253.300914" style="fill: #32cd32; stroke: #ffffff; stroke-width: 0.75"/>
     <use xlink:href="#m54cc021f5b" x="107.848066" y="261.356935" style="fill: #32cd32; stroke: #ffffff; stroke-width: 0.75"/>
     <use xlink:href="#m54cc021f5b" x="116.391447" y="254.308961" style="fill: #32cd32; stroke: #ffffff; stroke-width: 0.75"/>
     <use xlink:href="#m54cc021f5b" x="124.934828" y="241.007081" style="fill: #32cd32; stroke: #ffffff; stroke-width: 0.75"/>
     <use xlink:href="#m54cc021f5b" x="133.478675" y="268.219348" style="fill: #32cd32; stroke: #ffffff; stroke-width: 0.75"/>
     <use xlink:href="#m54cc021f5b" x="142.022057" y="245.18471" style="fill: #32cd32; stroke: #ffffff; stroke-width: 0.75"/>
     <use xlink:href="#m54cc021f5b" x="150.565438" y="263.468318" style="fill: #32cd32; stroke: #ffffff; stroke-width: 0.75"/>
     <use xlink:href="#m54cc021f5b" x="159.109285" y="236.560304" style="fill: #32cd32; stroke: #ffffff; stroke-width: 0.75"/>
     <use xlink:href="#m54cc021f5b" x="167.652666" y="240.453741" style="fill: #32cd32; stroke: #ffffff; stroke-width: 0.75"/>
     <use xlink:href="#m54cc021f5b" x="176.196048" y="218.798273" style="fill: #32cd32; stroke: #ffffff; stroke-width: 0.75"/>
     <use xlink:href="#m54cc021f5b" x="184.739895" y="212.042851" style="fill: #32cd32; stroke: #ffffff; stroke-width: 0.75"/>
     <use xlink:href="#m54cc021f5b" x="193.283276" y="208.910046" style="fill: #32cd32; stroke: #ffffff; stroke-width: 0.75"/>
     <use xlink:href="#m54cc021f5b" x="201.826657" y="176.241283" style="fill: #32cd32; stroke: #ffffff; stroke-width: 0.75"/>
     <use xlink:href="#m54cc021f5b" x="210.370505" y="139.145804" style="fill: #32cd32; stroke: #ffffff; stroke-width: 0.75"/>
     <use xlink:href="#m54cc021f5b" x="218.913886" y="65.150437" style="fill: #32cd32; stroke: #ffffff; stroke-width: 0.75"/>
     <use xlink:href="#m54cc021f5b" x="227.457267" y="74.637452" style="fill: #32cd32; stroke: #ffffff; stroke-width: 0.75"/>
     <use xlink:href="#m54cc021f5b" x="236.001114" y="72.205098" style="fill: #32cd32; stroke: #ffffff; stroke-width: 0.75"/>
     <use xlink:href="#m54cc021f5b" x="244.544495" y="128.736" style="fill: #32cd32; stroke: #ffffff; stroke-width: 0.75"/>
     <use xlink:href="#m54cc021f5b" x="253.087877" y="153.231722" style="fill: #32cd32; stroke: #ffffff; stroke-width: 0.75"/>
     <use xlink:href="#m54cc021f5b" x="261.631724" y="164.196537" style="fill: #32cd32; stroke: #ffffff; stroke-width: 0.75"/>
     <use xlink:href="#m54cc021f5b" x="270.175105" y="239.353749" style="fill: #32cd32; stroke: #ffffff; stroke-width: 0.75"/>
     <use xlink:href="#m54cc021f5b" x="278.718486" y="242.769074" style="fill: #32cd32; stroke: #ffffff; stroke-width: 0.75"/>
     <use xlink:href="#m54cc021f5b" x="287.262334" y="258.316075" style="fill: #32cd32; stroke: #ffffff; stroke-width: 0.75"/>
     <use xlink:href="#m54cc021f5b" x="295.805715" y="323.867582" style="fill: #32cd32; stroke: #ffffff; stroke-width: 0.75"/>
     <use xlink:href="#m54cc021f5b" x="304.349096" y="259.070021" style="fill: #32cd32; stroke: #ffffff; stroke-width: 0.75"/>
     <use xlink:href="#m54cc021f5b" x="312.892943" y="270.716898" style="fill: #32cd32; stroke: #ffffff; stroke-width: 0.75"/>
     <use xlink:href="#m54cc021f5b" x="321.436325" y="307.332594" style="fill: #32cd32; stroke: #ffffff; stroke-width: 0.75"/>
     <use xlink:href="#m54cc021f5b" x="329.979706" y="286.955992" style="fill: #32cd32; stroke: #ffffff; stroke-width: 0.75"/>
     <use xlink:href="#m54cc021f5b" x="338.523553" y="273.694233" style="fill: #32cd32; stroke: #ffffff; stroke-width: 0.75"/>
     <use xlink:href="#m54cc021f5b" x="347.066934" y="315.146216" style="fill: #32cd32; stroke: #ffffff; stroke-width: 0.75"/>
     <use xlink:href="#m54cc021f5b" x="355.610316" y="306.556915" style="fill: #32cd32; stroke: #ffffff; stroke-width: 0.75"/>
     <use xlink:href="#m54cc021f5b" x="364.154163" y="323.160444" style="fill: #32cd32; stroke: #ffffff; stroke-width: 0.75"/>
     <use xlink:href="#m54cc021f5b" x="372.697544" y="323.825789" style="fill: #32cd32; stroke: #ffffff; stroke-width: 0.75"/>
     <use xlink:href="#m54cc021f5b" x="381.240925" y="390.071059" style="fill: #32cd32; stroke: #ffffff; stroke-width: 0.75"/>
     <use xlink:href="#m54cc021f5b" x="389.784773" y="380.144382" style="fill: #32cd32; stroke: #ffffff; stroke-width: 0.75"/>
    </g>
   </g>
   <g id="line2d_18">
    <path d="M 48.8975 176.030437 
L 406.0175 176.030437 
" clip-path="url(#pc92f19b19b)" style="fill: none; stroke-dasharray: 5.55,2.4; stroke-dashoffset: 0; stroke: #000000; stroke-width: 1.5"/>
   </g>
   <g id="line2d_19">
    <defs>
     <path id="m89adbf35d7" d="M 0 3 
C 0.795609 3 1.55874 2.683901 2.12132 2.12132 
C 2.683901 1.55874 3 0.795609 3 0 
C 3 -0.795609 2.683901 -1.55874 2.12132 -2.12132 
C 1.55874 -2.683901 0.795609 -3 0 -3 
C -0.795609 -3 -1.55874 -2.683901 -2.12132 -2.12132 
C -2.683901 -1.55874 -3 -0.795609 -3 0 
C -3 0.795609 -2.683901 1.55874 -2.12132 2.12132 
C -1.55874 2.683901 -0.795609 3 0 3 
z
" style="stroke: #ff0000"/>
    </defs>
    <g clip-path="url(#pc92f19b19b)">
     <use xlink:href="#m89adbf35d7" x="212.809125" y="176.030437" style="fill: #ff0000; stroke: #ff0000"/>
    </g>
   </g>
   <g id="line2d_20">
    <g clip-path="url(#pc92f19b19b)">
     <use xlink:href="#m89adbf35d7" x="247.400133" y="176.030437" style="fill: #ff0000; stroke: #ff0000"/>
    </g>
   </g>
   <g id="line2d_21">
    <defs>
     <path id="mf7406bb7c1" d="M 0 3 
C 0.795609 3 1.55874 2.683901 2.12132 2.12132 
C 2.683901 1.55874 3 0.795609 3 0 
C 3 -0.795609 2.683901 -1.55874 2.12132 -2.12132 
C 1.55874 -2.683901 0.795609 -3 0 -3 
C -0.795609 -3 -1.55874 -2.683901 -2.12132 -2.12132 
C -2.683901 -1.55874 -3 -0.795609 -3 0 
C -3 0.795609 -2.683901 1.55874 -2.12132 2.12132 
C -1.55874 2.683901 -0.795609 3 0 3 
z
" style="stroke: #008000"/>
    </defs>
    <g clip-path="url(#pc92f19b19b)">
     <use xlink:href="#mf7406bb7c1" x="201.875219" y="176.030437" style="fill: #008000; stroke: #008000"/>
    </g>
   </g>
   <g id="line2d_22">
    <g clip-path="url(#pc92f19b19b)">
     <use xlink:href="#mf7406bb7c1" x="262.976925" y="176.030437" style="fill: #008000; stroke: #008000"/>
    </g>
   </g>
   <g id="patch_3">
    <path d="M 48.8975 286.910437 
L 48.8975 20.798437 
" style="fill: none; stroke: #000000; stroke-width: 0.8; stroke-linejoin: miter; stroke-linecap: square"/>
   </g>
   <g id="patch_4">
    <path d="M 406.0175 286.910437 
L 406.0175 20.798437 
" style="fill: none; stroke: #000000; stroke-width: 0.8; stroke-linejoin: miter; stroke-linecap: square"/>
   </g>
   <g id="patch_5">
    <path d="M 48.8975 286.910437 
L 406.0175 286.910437 
" style="fill: none; stroke: #000000; stroke-width: 0.8; stroke-linejoin: miter; stroke-linecap: square"/>
   </g>
   <g id="patch_6">
    <path d="M 48.8975 20.798437 
L 406.0175 20.798437 
" style="fill: none; stroke: #000000; stroke-width: 0.8; stroke-linejoin: miter; stroke-linecap: square"/>
   </g>
   <g id="text_18">
    <!-- WT Linescan with Half-Height Intersections -->
    <g transform="translate(105.237188 14.798437) scale(0.1 -0.1)">
     <defs>
      <path id="DejaVuSans-Bold-57" d="M 191 4666 
L 1344 4666 
L 2150 1275 
L 2950 4666 
L 4109 4666 
L 4909 1275 
L 5716 4666 
L 6859 4666 
L 5759 0 
L 4372 0 
L 3525 3547 
L 2688 0 
L 1300 0 
L 191 4666 
z
" transform="scale(0.015625)"/>
      <path id="DejaVuSans-Bold-54" d="M 31 4666 
L 4331 4666 
L 4331 3756 
L 2784 3756 
L 2784 0 
L 1581 0 
L 1581 3756 
L 31 3756 
L 31 4666 
z
" transform="scale(0.015625)"/>
      <path id="DejaVuSans-Bold-20" transform="scale(0.015625)"/>
      <path id="DejaVuSans-Bold-4c" d="M 588 4666 
L 1791 4666 
L 1791 909 
L 3903 909 
L 3903 0 
L 588 0 
L 588 4666 
z
" transform="scale(0.015625)"/>
      <path id="DejaVuSans-Bold-69" d="M 538 3500 
L 1656 3500 
L 1656 0 
L 538 0 
L 538 3500 
z
M 538 4863 
L 1656 4863 
L 1656 3950 
L 538 3950 
L 538 4863 
z
" transform="scale(0.015625)"/>
      <path id="DejaVuSans-Bold-6e" d="M 4056 2131 
L 4056 0 
L 2931 0 
L 2931 347 
L 2931 1631 
Q 2931 2084 2911 2256 
Q 2891 2428 2841 2509 
Q 2775 2619 2662 2680 
Q 2550 2741 2406 2741 
Q 2056 2741 1856 2470 
Q 1656 2200 1656 1722 
L 1656 0 
L 538 0 
L 538 3500 
L 1656 3500 
L 1656 2988 
Q 1909 3294 2193 3439 
Q 2478 3584 2822 3584 
Q 3428 3584 3742 3212 
Q 4056 2841 4056 2131 
z
" transform="scale(0.015625)"/>
      <path id="DejaVuSans-Bold-65" d="M 4031 1759 
L 4031 1441 
L 1416 1441 
Q 1456 1047 1700 850 
Q 1944 653 2381 653 
Q 2734 653 3104 758 
Q 3475 863 3866 1075 
L 3866 213 
Q 3469 63 3072 -14 
Q 2675 -91 2278 -91 
Q 1328 -91 801 392 
Q 275 875 275 1747 
Q 275 2603 792 3093 
Q 1309 3584 2216 3584 
Q 3041 3584 3536 3087 
Q 4031 2591 4031 1759 
z
M 2881 2131 
Q 2881 2450 2695 2645 
Q 2509 2841 2209 2841 
Q 1884 2841 1681 2658 
Q 1478 2475 1428 2131 
L 2881 2131 
z
" transform="scale(0.015625)"/>
      <path id="DejaVuSans-Bold-73" d="M 3272 3391 
L 3272 2541 
Q 2913 2691 2578 2766 
Q 2244 2841 1947 2841 
Q 1628 2841 1473 2761 
Q 1319 2681 1319 2516 
Q 1319 2381 1436 2309 
Q 1553 2238 1856 2203 
L 2053 2175 
Q 2913 2066 3209 1816 
Q 3506 1566 3506 1031 
Q 3506 472 3093 190 
Q 2681 -91 1863 -91 
Q 1516 -91 1145 -36 
Q 775 19 384 128 
L 384 978 
Q 719 816 1070 734 
Q 1422 653 1784 653 
Q 2113 653 2278 743 
Q 2444 834 2444 1013 
Q 2444 1163 2330 1236 
Q 2216 1309 1875 1350 
L 1678 1375 
Q 931 1469 631 1722 
Q 331 1975 331 2491 
Q 331 3047 712 3315 
Q 1094 3584 1881 3584 
Q 2191 3584 2531 3537 
Q 2872 3491 3272 3391 
z
" transform="scale(0.015625)"/>
      <path id="DejaVuSans-Bold-63" d="M 3366 3391 
L 3366 2478 
Q 3138 2634 2908 2709 
Q 2678 2784 2431 2784 
Q 1963 2784 1702 2511 
Q 1441 2238 1441 1747 
Q 1441 1256 1702 982 
Q 1963 709 2431 709 
Q 2694 709 2930 787 
Q 3166 866 3366 1019 
L 3366 103 
Q 3103 6 2833 -42 
Q 2563 -91 2291 -91 
Q 1344 -91 809 395 
Q 275 881 275 1747 
Q 275 2613 809 3098 
Q 1344 3584 2291 3584 
Q 2566 3584 2833 3536 
Q 3100 3488 3366 3391 
z
" transform="scale(0.015625)"/>
      <path id="DejaVuSans-Bold-61" d="M 2106 1575 
Q 1756 1575 1579 1456 
Q 1403 1338 1403 1106 
Q 1403 894 1545 773 
Q 1688 653 1941 653 
Q 2256 653 2472 879 
Q 2688 1106 2688 1447 
L 2688 1575 
L 2106 1575 
z
M 3816 1997 
L 3816 0 
L 2688 0 
L 2688 519 
Q 2463 200 2181 54 
Q 1900 -91 1497 -91 
Q 953 -91 614 226 
Q 275 544 275 1050 
Q 275 1666 698 1953 
Q 1122 2241 2028 2241 
L 2688 2241 
L 2688 2328 
Q 2688 2594 2478 2717 
Q 2269 2841 1825 2841 
Q 1466 2841 1156 2769 
Q 847 2697 581 2553 
L 581 3406 
Q 941 3494 1303 3539 
Q 1666 3584 2028 3584 
Q 2975 3584 3395 3211 
Q 3816 2838 3816 1997 
z
" transform="scale(0.015625)"/>
      <path id="DejaVuSans-Bold-77" d="M 225 3500 
L 1313 3500 
L 1900 1088 
L 2491 3500 
L 3425 3500 
L 4013 1113 
L 4603 3500 
L 5691 3500 
L 4769 0 
L 3547 0 
L 2956 2406 
L 2369 0 
L 1147 0 
L 225 3500 
z
" transform="scale(0.015625)"/>
      <path id="DejaVuSans-Bold-74" d="M 1759 4494 
L 1759 3500 
L 2913 3500 
L 2913 2700 
L 1759 2700 
L 1759 1216 
Q 1759 972 1856 886 
Q 1953 800 2241 800 
L 2816 800 
L 2816 0 
L 1856 0 
Q 1194 0 917 276 
Q 641 553 641 1216 
L 641 2700 
L 84 2700 
L 84 3500 
L 641 3500 
L 641 4494 
L 1759 4494 
z
" transform="scale(0.015625)"/>
      <path id="DejaVuSans-Bold-68" d="M 4056 2131 
L 4056 0 
L 2931 0 
L 2931 347 
L 2931 1625 
Q 2931 2084 2911 2256 
Q 2891 2428 2841 2509 
Q 2775 2619 2662 2680 
Q 2550 2741 2406 2741 
Q 2056 2741 1856 2470 
Q 1656 2200 1656 1722 
L 1656 0 
L 538 0 
L 538 4863 
L 1656 4863 
L 1656 2988 
Q 1909 3294 2193 3439 
Q 2478 3584 2822 3584 
Q 3428 3584 3742 3212 
Q 4056 2841 4056 2131 
z
" transform="scale(0.015625)"/>
      <path id="DejaVuSans-Bold-48" d="M 588 4666 
L 1791 4666 
L 1791 2888 
L 3566 2888 
L 3566 4666 
L 4769 4666 
L 4769 0 
L 3566 0 
L 3566 1978 
L 1791 1978 
L 1791 0 
L 588 0 
L 588 4666 
z
" transform="scale(0.015625)"/>
      <path id="DejaVuSans-Bold-6c" d="M 538 4863 
L 1656 4863 
L 1656 0 
L 538 0 
L 538 4863 
z
" transform="scale(0.015625)"/>
      <path id="DejaVuSans-Bold-66" d="M 2841 4863 
L 2841 4128 
L 2222 4128 
Q 1984 4128 1890 4042 
Q 1797 3956 1797 3744 
L 1797 3500 
L 2753 3500 
L 2753 2700 
L 1797 2700 
L 1797 0 
L 678 0 
L 678 2700 
L 122 2700 
L 122 3500 
L 678 3500 
L 678 3744 
Q 678 4316 997 4589 
Q 1316 4863 1984 4863 
L 2841 4863 
z
" transform="scale(0.015625)"/>
      <path id="DejaVuSans-Bold-2d" d="M 347 2297 
L 2309 2297 
L 2309 1388 
L 347 1388 
L 347 2297 
z
" transform="scale(0.015625)"/>
      <path id="DejaVuSans-Bold-67" d="M 2919 594 
Q 2688 288 2409 144 
Q 2131 0 1766 0 
Q 1125 0 706 504 
Q 288 1009 288 1791 
Q 288 2575 706 3076 
Q 1125 3578 1766 3578 
Q 2131 3578 2409 3434 
Q 2688 3291 2919 2981 
L 2919 3500 
L 4044 3500 
L 4044 353 
Q 4044 -491 3511 -936 
Q 2978 -1381 1966 -1381 
Q 1638 -1381 1331 -1331 
Q 1025 -1281 716 -1178 
L 716 -306 
Q 1009 -475 1290 -558 
Q 1572 -641 1856 -641 
Q 2406 -641 2662 -400 
Q 2919 -159 2919 353 
L 2919 594 
z
M 2181 2772 
Q 1834 2772 1640 2515 
Q 1447 2259 1447 1791 
Q 1447 1309 1634 1061 
Q 1822 813 2181 813 
Q 2531 813 2725 1069 
Q 2919 1325 2919 1791 
Q 2919 2259 2725 2515 
Q 2531 2772 2181 2772 
z
" transform="scale(0.015625)"/>
      <path id="DejaVuSans-Bold-49" d="M 588 4666 
L 1791 4666 
L 1791 0 
L 588 0 
L 588 4666 
z
" transform="scale(0.015625)"/>
      <path id="DejaVuSans-Bold-72" d="M 3138 2547 
Q 2991 2616 2845 2648 
Q 2700 2681 2553 2681 
Q 2122 2681 1889 2404 
Q 1656 2128 1656 1613 
L 1656 0 
L 538 0 
L 538 3500 
L 1656 3500 
L 1656 2925 
Q 1872 3269 2151 3426 
Q 2431 3584 2822 3584 
Q 2878 3584 2943 3579 
Q 3009 3575 3134 3559 
L 3138 2547 
z
" transform="scale(0.015625)"/>
      <path id="DejaVuSans-Bold-6f" d="M 2203 2784 
Q 1831 2784 1636 2517 
Q 1441 2250 1441 1747 
Q 1441 1244 1636 976 
Q 1831 709 2203 709 
Q 2569 709 2762 976 
Q 2956 1244 2956 1747 
Q 2956 2250 2762 2517 
Q 2569 2784 2203 2784 
z
M 2203 3584 
Q 3106 3584 3614 3096 
Q 4122 2609 4122 1747 
Q 4122 884 3614 396 
Q 3106 -91 2203 -91 
Q 1297 -91 786 396 
Q 275 884 275 1747 
Q 275 2609 786 3096 
Q 1297 3584 2203 3584 
z
" transform="scale(0.015625)"/>
     </defs>
     <use xlink:href="#DejaVuSans-Bold-57"/>
     <use xlink:href="#DejaVuSans-Bold-54" x="110.302734"/>
     <use xlink:href="#DejaVuSans-Bold-20" x="178.515625"/>
     <use xlink:href="#DejaVuSans-Bold-4c" x="213.330078"/>
     <use xlink:href="#DejaVuSans-Bold-69" x="277.050781"/>
     <use xlink:href="#DejaVuSans-Bold-6e" x="311.328125"/>
     <use xlink:href="#DejaVuSans-Bold-65" x="382.519531"/>
     <use xlink:href="#DejaVuSans-Bold-73" x="450.341797"/>
     <use xlink:href="#DejaVuSans-Bold-63" x="509.863281"/>
     <use xlink:href="#DejaVuSans-Bold-61" x="569.140625"/>
     <use xlink:href="#DejaVuSans-Bold-6e" x="636.621094"/>
     <use xlink:href="#DejaVuSans-Bold-20" x="707.8125"/>
     <use xlink:href="#DejaVuSans-Bold-77" x="742.626953"/>
     <use xlink:href="#DejaVuSans-Bold-69" x="835.009766"/>
     <use xlink:href="#DejaVuSans-Bold-74" x="869.287109"/>
     <use xlink:href="#DejaVuSans-Bold-68" x="917.089844"/>
     <use xlink:href="#DejaVuSans-Bold-20" x="988.28125"/>
     <use xlink:href="#DejaVuSans-Bold-48" x="1023.095703"/>
     <use xlink:href="#DejaVuSans-Bold-61" x="1106.787109"/>
     <use xlink:href="#DejaVuSans-Bold-6c" x="1174.267578"/>
     <use xlink:href="#DejaVuSans-Bold-66" x="1208.544922"/>
     <use xlink:href="#DejaVuSans-Bold-2d" x="1250.300781"/>
     <use xlink:href="#DejaVuSans-Bold-48" x="1291.804688"/>
     <use xlink:href="#DejaVuSans-Bold-65" x="1375.496094"/>
     <use xlink:href="#DejaVuSans-Bold-69" x="1443.318359"/>
     <use xlink:href="#DejaVuSans-Bold-67" x="1477.595703"/>
     <use xlink:href="#DejaVuSans-Bold-68" x="1549.177734"/>
     <use xlink:href="#DejaVuSans-Bold-74" x="1620.369141"/>
     <use xlink:href="#DejaVuSans-Bold-20" x="1668.171875"/>
     <use xlink:href="#DejaVuSans-Bold-49" x="1702.986328"/>
     <use xlink:href="#DejaVuSans-Bold-6e" x="1740.193359"/>
     <use xlink:href="#DejaVuSans-Bold-74" x="1811.384766"/>
     <use xlink:href="#DejaVuSans-Bold-65" x="1859.1875"/>
     <use xlink:href="#DejaVuSans-Bold-72" x="1927.009766"/>
     <use xlink:href="#DejaVuSans-Bold-73" x="1976.326172"/>
     <use xlink:href="#DejaVuSans-Bold-65" x="2035.847656"/>
     <use xlink:href="#DejaVuSans-Bold-63" x="2103.669922"/>
     <use xlink:href="#DejaVuSans-Bold-74" x="2162.947266"/>
     <use xlink:href="#DejaVuSans-Bold-69" x="2210.75"/>
     <use xlink:href="#DejaVuSans-Bold-6f" x="2245.027344"/>
     <use xlink:href="#DejaVuSans-Bold-6e" x="2313.728516"/>
     <use xlink:href="#DejaVuSans-Bold-73" x="2384.919922"/>
    </g>
   </g>
  </g>
 </g>
 <defs>
  <clipPath id="pc92f19b19b">
   <rect x="48.8975" y="20.798437" width="357.12" height="266.112"/>
  </clipPath>
 </defs>
</svg>
