<?xml version="1.0" encoding="utf-8" standalone="no"?>
<!DOCTYPE svg PUBLIC "-//W3C//DTD SVG 1.1//EN"
  "http://www.w3.org/Graphics/SVG/1.1/DTD/svg11.dtd">
<svg xmlns:xlink="http://www.w3.org/1999/xlink" width="406.580938pt" height="323.226062pt" viewBox="0 0 406.580938 323.226062" xmlns="http://www.w3.org/2000/svg" version="1.1">
 <metadata>
  <rdf:RDF xmlns:dc="http://purl.org/dc/elements/1.1/" xmlns:cc="http://creativecommons.org/ns#" xmlns:rdf="http://www.w3.org/1999/02/22-rdf-syntax-ns#">
   <cc:Work>
    <dc:type rdf:resource="http://purl.org/dc/dcmitype/StillImage"/>
    <dc:date>2024-12-18T14:07:15.346006</dc:date>
    <dc:format>image/svg+xml</dc:format>
    <dc:creator>
     <cc:Agent>
      <dc:title>Matplotlib v3.7.2, https://matplotlib.org/</dc:title>
     </cc:Agent>
    </dc:creator>
   </cc:Work>
  </rdf:RDF>
 </metadata>
 <defs>
  <style type="text/css">*{stroke-linejoin: round; stroke-linecap: butt}</style>
 </defs>
 <g id="figure_1">
  <g id="patch_1">
   <path d="M -0 323.226062 
L 406.580938 323.226062 
L 406.580938 0 
L -0 0 
z
" style="fill: #ffffff"/>
  </g>
  <g id="axes_1">
   <g id="patch_2">
    <path d="M 42.260938 294.508875 
L 399.380938 294.508875 
L 399.380938 28.396875 
L 42.260938 28.396875 
z
" style="fill: #ffffff"/>
   </g>
   <g id="matplotlib.axis_1">
    <g id="xtick_1">
     <g id="line2d_1">
      <defs>
       <path id="m6d3cc18124" d="M 0 0 
L 0 3.5 
" style="stroke: #000000; stroke-width: 0.8"/>
      </defs>
      <g>
       <use xlink:href="#m6d3cc18124" x="131.540938" y="294.508875" style="stroke: #000000; stroke-width: 0.8"/>
      </g>
     </g>
     <g id="text_1">
      <!-- interphase -->
      <g transform="translate(91.433516 312.906531) scale(0.15 -0.15)">
       <defs>
        <path id="DejaVuSans-69" d="M 603 3500 
L 1178 3500 
L 1178 0 
L 603 0 
L 603 3500 
z
M 603 4863 
L 1178 4863 
L 1178 4134 
L 603 4134 
L 603 4863 
z
" transform="scale(0.015625)"/>
        <path id="DejaVuSans-6e" d="M 3513 2113 
L 3513 0 
L 2938 0 
L 2938 2094 
Q 2938 2591 2744 2837 
Q 2550 3084 2163 3084 
Q 1697 3084 1428 2787 
Q 1159 2491 1159 1978 
L 1159 0 
L 581 0 
L 581 3500 
L 1159 3500 
L 1159 2956 
Q 1366 3272 1645 3428 
Q 1925 3584 2291 3584 
Q 2894 3584 3203 3211 
Q 3513 2838 3513 2113 
z
" transform="scale(0.015625)"/>
        <path id="DejaVuSans-74" d="M 1172 4494 
L 1172 3500 
L 2356 3500 
L 2356 3053 
L 1172 3053 
L 1172 1153 
Q 1172 725 1289 603 
Q 1406 481 1766 481 
L 2356 481 
L 2356 0 
L 1766 0 
Q 1100 0 847 248 
Q 594 497 594 1153 
L 594 3053 
L 172 3053 
L 172 3500 
L 594 3500 
L 594 4494 
L 1172 4494 
z
" transform="scale(0.015625)"/>
        <path id="DejaVuSans-65" d="M 3597 1894 
L 3597 1613 
L 953 1613 
Q 991 1019 1311 708 
Q 1631 397 2203 397 
Q 2534 397 2845 478 
Q 3156 559 3463 722 
L 3463 178 
Q 3153 47 2828 -22 
Q 2503 -91 2169 -91 
Q 1331 -91 842 396 
Q 353 884 353 1716 
Q 353 2575 817 3079 
Q 1281 3584 2069 3584 
Q 2775 3584 3186 3129 
Q 3597 2675 3597 1894 
z
M 3022 2063 
Q 3016 2534 2758 2815 
Q 2500 3097 2075 3097 
Q 1594 3097 1305 2825 
Q 1016 2553 972 2059 
L 3022 2063 
z
" transform="scale(0.015625)"/>
        <path id="DejaVuSans-72" d="M 2631 2963 
Q 2534 3019 2420 3045 
Q 2306 3072 2169 3072 
Q 1681 3072 1420 2755 
Q 1159 2438 1159 1844 
L 1159 0 
L 581 0 
L 581 3500 
L 1159 3500 
L 1159 2956 
Q 1341 3275 1631 3429 
Q 1922 3584 2338 3584 
Q 2397 3584 2469 3576 
Q 2541 3569 2628 3553 
L 2631 2963 
z
" transform="scale(0.015625)"/>
        <path id="DejaVuSans-70" d="M 1159 525 
L 1159 -1331 
L 581 -1331 
L 581 3500 
L 1159 3500 
L 1159 2969 
Q 1341 3281 1617 3432 
Q 1894 3584 2278 3584 
Q 2916 3584 3314 3078 
Q 3713 2572 3713 1747 
Q 3713 922 3314 415 
Q 2916 -91 2278 -91 
Q 1894 -91 1617 61 
Q 1341 213 1159 525 
z
M 3116 1747 
Q 3116 2381 2855 2742 
Q 2594 3103 2138 3103 
Q 1681 3103 1420 2742 
Q 1159 2381 1159 1747 
Q 1159 1113 1420 752 
Q 1681 391 2138 391 
Q 2594 391 2855 752 
Q 3116 1113 3116 1747 
z
" transform="scale(0.015625)"/>
        <path id="DejaVuSans-68" d="M 3513 2113 
L 3513 0 
L 2938 0 
L 2938 2094 
Q 2938 2591 2744 2837 
Q 2550 3084 2163 3084 
Q 1697 3084 1428 2787 
Q 1159 2491 1159 1978 
L 1159 0 
L 581 0 
L 581 4863 
L 1159 4863 
L 1159 2956 
Q 1366 3272 1645 3428 
Q 1925 3584 2291 3584 
Q 2894 3584 3203 3211 
Q 3513 2838 3513 2113 
z
" transform="scale(0.015625)"/>
        <path id="DejaVuSans-61" d="M 2194 1759 
Q 1497 1759 1228 1600 
Q 959 1441 959 1056 
Q 959 750 1161 570 
Q 1363 391 1709 391 
Q 2188 391 2477 730 
Q 2766 1069 2766 1631 
L 2766 1759 
L 2194 1759 
z
M 3341 1997 
L 3341 0 
L 2766 0 
L 2766 531 
Q 2569 213 2275 61 
Q 1981 -91 1556 -91 
Q 1019 -91 701 211 
Q 384 513 384 1019 
Q 384 1609 779 1909 
Q 1175 2209 1959 2209 
L 2766 2209 
L 2766 2266 
Q 2766 2663 2505 2880 
Q 2244 3097 1772 3097 
Q 1472 3097 1187 3025 
Q 903 2953 641 2809 
L 641 3341 
Q 956 3463 1253 3523 
Q 1550 3584 1831 3584 
Q 2591 3584 2966 3190 
Q 3341 2797 3341 1997 
z
" transform="scale(0.015625)"/>
        <path id="DejaVuSans-73" d="M 2834 3397 
L 2834 2853 
Q 2591 2978 2328 3040 
Q 2066 3103 1784 3103 
Q 1356 3103 1142 2972 
Q 928 2841 928 2578 
Q 928 2378 1081 2264 
Q 1234 2150 1697 2047 
L 1894 2003 
Q 2506 1872 2764 1633 
Q 3022 1394 3022 966 
Q 3022 478 2636 193 
Q 2250 -91 1575 -91 
Q 1294 -91 989 -36 
Q 684 19 347 128 
L 347 722 
Q 666 556 975 473 
Q 1284 391 1588 391 
Q 1994 391 2212 530 
Q 2431 669 2431 922 
Q 2431 1156 2273 1281 
Q 2116 1406 1581 1522 
L 1381 1569 
Q 847 1681 609 1914 
Q 372 2147 372 2553 
Q 372 3047 722 3315 
Q 1072 3584 1716 3584 
Q 2034 3584 2315 3537 
Q 2597 3491 2834 3397 
z
" transform="scale(0.015625)"/>
       </defs>
       <use xlink:href="#DejaVuSans-69"/>
       <use xlink:href="#DejaVuSans-6e" x="27.783203"/>
       <use xlink:href="#DejaVuSans-74" x="91.162109"/>
       <use xlink:href="#DejaVuSans-65" x="130.371094"/>
       <use xlink:href="#DejaVuSans-72" x="191.894531"/>
       <use xlink:href="#DejaVuSans-70" x="233.007812"/>
       <use xlink:href="#DejaVuSans-68" x="296.484375"/>
       <use xlink:href="#DejaVuSans-61" x="359.863281"/>
       <use xlink:href="#DejaVuSans-73" x="421.142578"/>
       <use xlink:href="#DejaVuSans-65" x="473.242188"/>
      </g>
     </g>
    </g>
    <g id="xtick_2">
     <g id="line2d_2">
      <g>
       <use xlink:href="#m6d3cc18124" x="310.100937" y="294.508875" style="stroke: #000000; stroke-width: 0.8"/>
      </g>
     </g>
     <g id="text_2">
      <!-- prometaphase -->
      <g transform="translate(255.747031 312.906531) scale(0.15 -0.15)">
       <defs>
        <path id="DejaVuSans-6f" d="M 1959 3097 
Q 1497 3097 1228 2736 
Q 959 2375 959 1747 
Q 959 1119 1226 758 
Q 1494 397 1959 397 
Q 2419 397 2687 759 
Q 2956 1122 2956 1747 
Q 2956 2369 2687 2733 
Q 2419 3097 1959 3097 
z
M 1959 3584 
Q 2709 3584 3137 3096 
Q 3566 2609 3566 1747 
Q 3566 888 3137 398 
Q 2709 -91 1959 -91 
Q 1206 -91 779 398 
Q 353 888 353 1747 
Q 353 2609 779 3096 
Q 1206 3584 1959 3584 
z
" transform="scale(0.015625)"/>
        <path id="DejaVuSans-6d" d="M 3328 2828 
Q 3544 3216 3844 3400 
Q 4144 3584 4550 3584 
Q 5097 3584 5394 3201 
Q 5691 2819 5691 2113 
L 5691 0 
L 5113 0 
L 5113 2094 
Q 5113 2597 4934 2840 
Q 4756 3084 4391 3084 
Q 3944 3084 3684 2787 
Q 3425 2491 3425 1978 
L 3425 0 
L 2847 0 
L 2847 2094 
Q 2847 2600 2669 2842 
Q 2491 3084 2119 3084 
Q 1678 3084 1418 2786 
Q 1159 2488 1159 1978 
L 1159 0 
L 581 0 
L 581 3500 
L 1159 3500 
L 1159 2956 
Q 1356 3278 1631 3431 
Q 1906 3584 2284 3584 
Q 2666 3584 2933 3390 
Q 3200 3197 3328 2828 
z
" transform="scale(0.015625)"/>
       </defs>
       <use xlink:href="#DejaVuSans-70"/>
       <use xlink:href="#DejaVuSans-72" x="63.476562"/>
       <use xlink:href="#DejaVuSans-6f" x="102.339844"/>
       <use xlink:href="#DejaVuSans-6d" x="163.521484"/>
       <use xlink:href="#DejaVuSans-65" x="260.933594"/>
       <use xlink:href="#DejaVuSans-74" x="322.457031"/>
       <use xlink:href="#DejaVuSans-61" x="361.666016"/>
       <use xlink:href="#DejaVuSans-70" x="422.945312"/>
       <use xlink:href="#DejaVuSans-68" x="486.421875"/>
       <use xlink:href="#DejaVuSans-61" x="549.800781"/>
       <use xlink:href="#DejaVuSans-73" x="611.080078"/>
       <use xlink:href="#DejaVuSans-65" x="663.179688"/>
      </g>
     </g>
    </g>
   </g>
   <g id="matplotlib.axis_2">
    <g id="ytick_1">
     <g id="line2d_3">
      <defs>
       <path id="ma283b27bd1" d="M 0 0 
L -3.5 0 
" style="stroke: #000000; stroke-width: 0.8"/>
      </defs>
      <g>
       <use xlink:href="#ma283b27bd1" x="42.260938" y="294.508875" style="stroke: #000000; stroke-width: 0.8"/>
      </g>
     </g>
     <g id="text_3">
      <!-- 0 -->
      <g transform="translate(25.717188 300.207703) scale(0.15 -0.15)">
       <defs>
        <path id="DejaVuSans-30" d="M 2034 4250 
Q 1547 4250 1301 3770 
Q 1056 3291 1056 2328 
Q 1056 1369 1301 889 
Q 1547 409 2034 409 
Q 2525 409 2770 889 
Q 3016 1369 3016 2328 
Q 3016 3291 2770 3770 
Q 2525 4250 2034 4250 
z
M 2034 4750 
Q 2819 4750 3233 4129 
Q 3647 3509 3647 2328 
Q 3647 1150 3233 529 
Q 2819 -91 2034 -91 
Q 1250 -91 836 529 
Q 422 1150 422 2328 
Q 422 3509 836 4129 
Q 1250 4750 2034 4750 
z
" transform="scale(0.015625)"/>
       </defs>
       <use xlink:href="#DejaVuSans-30"/>
      </g>
     </g>
    </g>
    <g id="ytick_2">
     <g id="line2d_4">
      <g>
       <use xlink:href="#ma283b27bd1" x="42.260938" y="241.286475" style="stroke: #000000; stroke-width: 0.8"/>
      </g>
     </g>
     <g id="text_4">
      <!-- 1 -->
      <g transform="translate(25.717188 246.985303) scale(0.15 -0.15)">
       <defs>
        <path id="DejaVuSans-31" d="M 794 531 
L 1825 531 
L 1825 4091 
L 703 3866 
L 703 4441 
L 1819 4666 
L 2450 4666 
L 2450 531 
L 3481 531 
L 3481 0 
L 794 0 
L 794 531 
z
" transform="scale(0.015625)"/>
       </defs>
       <use xlink:href="#DejaVuSans-31"/>
      </g>
     </g>
    </g>
    <g id="ytick_3">
     <g id="line2d_5">
      <g>
       <use xlink:href="#ma283b27bd1" x="42.260938" y="188.064075" style="stroke: #000000; stroke-width: 0.8"/>
      </g>
     </g>
     <g id="text_5">
      <!-- 2 -->
      <g transform="translate(25.717188 193.762903) scale(0.15 -0.15)">
       <defs>
        <path id="DejaVuSans-32" d="M 1228 531 
L 3431 531 
L 3431 0 
L 469 0 
L 469 531 
Q 828 903 1448 1529 
Q 2069 2156 2228 2338 
Q 2531 2678 2651 2914 
Q 2772 3150 2772 3378 
Q 2772 3750 2511 3984 
Q 2250 4219 1831 4219 
Q 1534 4219 1204 4116 
Q 875 4013 500 3803 
L 500 4441 
Q 881 4594 1212 4672 
Q 1544 4750 1819 4750 
Q 2544 4750 2975 4387 
Q 3406 4025 3406 3419 
Q 3406 3131 3298 2873 
Q 3191 2616 2906 2266 
Q 2828 2175 2409 1742 
Q 1991 1309 1228 531 
z
" transform="scale(0.015625)"/>
       </defs>
       <use xlink:href="#DejaVuSans-32"/>
      </g>
     </g>
    </g>
    <g id="ytick_4">
     <g id="line2d_6">
      <g>
       <use xlink:href="#ma283b27bd1" x="42.260938" y="134.841675" style="stroke: #000000; stroke-width: 0.8"/>
      </g>
     </g>
     <g id="text_6">
      <!-- 3 -->
      <g transform="translate(25.717188 140.540503) scale(0.15 -0.15)">
       <defs>
        <path id="DejaVuSans-33" d="M 2597 2516 
Q 3050 2419 3304 2112 
Q 3559 1806 3559 1356 
Q 3559 666 3084 287 
Q 2609 -91 1734 -91 
Q 1441 -91 1130 -33 
Q 819 25 488 141 
L 488 750 
Q 750 597 1062 519 
Q 1375 441 1716 441 
Q 2309 441 2620 675 
Q 2931 909 2931 1356 
Q 2931 1769 2642 2001 
Q 2353 2234 1838 2234 
L 1294 2234 
L 1294 2753 
L 1863 2753 
Q 2328 2753 2575 2939 
Q 2822 3125 2822 3475 
Q 2822 3834 2567 4026 
Q 2313 4219 1838 4219 
Q 1578 4219 1281 4162 
Q 984 4106 628 3988 
L 628 4550 
Q 988 4650 1302 4700 
Q 1616 4750 1894 4750 
Q 2613 4750 3031 4423 
Q 3450 4097 3450 3541 
Q 3450 3153 3228 2886 
Q 3006 2619 2597 2516 
z
" transform="scale(0.015625)"/>
       </defs>
       <use xlink:href="#DejaVuSans-33"/>
      </g>
     </g>
    </g>
    <g id="ytick_5">
     <g id="line2d_7">
      <g>
       <use xlink:href="#ma283b27bd1" x="42.260938" y="81.619275" style="stroke: #000000; stroke-width: 0.8"/>
      </g>
     </g>
     <g id="text_7">
      <!-- 4 -->
      <g transform="translate(25.717188 87.318103) scale(0.15 -0.15)">
       <defs>
        <path id="DejaVuSans-34" d="M 2419 4116 
L 825 1625 
L 2419 1625 
L 2419 4116 
z
M 2253 4666 
L 3047 4666 
L 3047 1625 
L 3713 1625 
L 3713 1100 
L 3047 1100 
L 3047 0 
L 2419 0 
L 2419 1100 
L 313 1100 
L 313 1709 
L 2253 4666 
z
" transform="scale(0.015625)"/>
       </defs>
       <use xlink:href="#DejaVuSans-34"/>
      </g>
     </g>
    </g>
    <g id="ytick_6">
     <g id="line2d_8">
      <g>
       <use xlink:href="#ma283b27bd1" x="42.260938" y="28.396875" style="stroke: #000000; stroke-width: 0.8"/>
      </g>
     </g>
     <g id="text_8">
      <!-- 5 -->
      <g transform="translate(25.717188 34.095703) scale(0.15 -0.15)">
       <defs>
        <path id="DejaVuSans-35" d="M 691 4666 
L 3169 4666 
L 3169 4134 
L 1269 4134 
L 1269 2991 
Q 1406 3038 1543 3061 
Q 1681 3084 1819 3084 
Q 2600 3084 3056 2656 
Q 3513 2228 3513 1497 
Q 3513 744 3044 326 
Q 2575 -91 1722 -91 
Q 1428 -91 1123 -41 
Q 819 9 494 109 
L 494 744 
Q 775 591 1075 516 
Q 1375 441 1709 441 
Q 2250 441 2565 725 
Q 2881 1009 2881 1497 
Q 2881 1984 2565 2268 
Q 2250 2553 1709 2553 
Q 1456 2553 1204 2497 
Q 953 2441 691 2322 
L 691 4666 
z
" transform="scale(0.015625)"/>
       </defs>
       <use xlink:href="#DejaVuSans-35"/>
      </g>
     </g>
    </g>
    <g id="text_9">
     <!-- AC/Cytoplasm Ratio -->
     <g transform="translate(18.597656 235.709906) rotate(-90) scale(0.15 -0.15)">
      <defs>
       <path id="DejaVuSans-41" d="M 2188 4044 
L 1331 1722 
L 3047 1722 
L 2188 4044 
z
M 1831 4666 
L 2547 4666 
L 4325 0 
L 3669 0 
L 3244 1197 
L 1141 1197 
L 716 0 
L 50 0 
L 1831 4666 
z
" transform="scale(0.015625)"/>
       <path id="DejaVuSans-43" d="M 4122 4306 
L 4122 3641 
Q 3803 3938 3442 4084 
Q 3081 4231 2675 4231 
Q 1875 4231 1450 3742 
Q 1025 3253 1025 2328 
Q 1025 1406 1450 917 
Q 1875 428 2675 428 
Q 3081 428 3442 575 
Q 3803 722 4122 1019 
L 4122 359 
Q 3791 134 3420 21 
Q 3050 -91 2638 -91 
Q 1578 -91 968 557 
Q 359 1206 359 2328 
Q 359 3453 968 4101 
Q 1578 4750 2638 4750 
Q 3056 4750 3426 4639 
Q 3797 4528 4122 4306 
z
" transform="scale(0.015625)"/>
       <path id="DejaVuSans-2f" d="M 1625 4666 
L 2156 4666 
L 531 -594 
L 0 -594 
L 1625 4666 
z
" transform="scale(0.015625)"/>
       <path id="DejaVuSans-79" d="M 2059 -325 
Q 1816 -950 1584 -1140 
Q 1353 -1331 966 -1331 
L 506 -1331 
L 506 -850 
L 844 -850 
Q 1081 -850 1212 -737 
Q 1344 -625 1503 -206 
L 1606 56 
L 191 3500 
L 800 3500 
L 1894 763 
L 2988 3500 
L 3597 3500 
L 2059 -325 
z
" transform="scale(0.015625)"/>
       <path id="DejaVuSans-6c" d="M 603 4863 
L 1178 4863 
L 1178 0 
L 603 0 
L 603 4863 
z
" transform="scale(0.015625)"/>
       <path id="DejaVuSans-20" transform="scale(0.015625)"/>
       <path id="DejaVuSans-52" d="M 2841 2188 
Q 3044 2119 3236 1894 
Q 3428 1669 3622 1275 
L 4263 0 
L 3584 0 
L 2988 1197 
Q 2756 1666 2539 1819 
Q 2322 1972 1947 1972 
L 1259 1972 
L 1259 0 
L 628 0 
L 628 4666 
L 2053 4666 
Q 2853 4666 3247 4331 
Q 3641 3997 3641 3322 
Q 3641 2881 3436 2590 
Q 3231 2300 2841 2188 
z
M 1259 4147 
L 1259 2491 
L 2053 2491 
Q 2509 2491 2742 2702 
Q 2975 2913 2975 3322 
Q 2975 3731 2742 3939 
Q 2509 4147 2053 4147 
L 1259 4147 
z
" transform="scale(0.015625)"/>
      </defs>
      <use xlink:href="#DejaVuSans-41"/>
      <use xlink:href="#DejaVuSans-43" x="66.658203"/>
      <use xlink:href="#DejaVuSans-2f" x="136.482422"/>
      <use xlink:href="#DejaVuSans-43" x="170.173828"/>
      <use xlink:href="#DejaVuSans-79" x="239.998047"/>
      <use xlink:href="#DejaVuSans-74" x="299.177734"/>
      <use xlink:href="#DejaVuSans-6f" x="338.386719"/>
      <use xlink:href="#DejaVuSans-70" x="399.568359"/>
      <use xlink:href="#DejaVuSans-6c" x="463.044922"/>
      <use xlink:href="#DejaVuSans-61" x="490.828125"/>
      <use xlink:href="#DejaVuSans-73" x="552.107422"/>
      <use xlink:href="#DejaVuSans-6d" x="604.207031"/>
      <use xlink:href="#DejaVuSans-20" x="701.619141"/>
      <use xlink:href="#DejaVuSans-52" x="733.40625"/>
      <use xlink:href="#DejaVuSans-61" x="800.638672"/>
      <use xlink:href="#DejaVuSans-74" x="861.917969"/>
      <use xlink:href="#DejaVuSans-69" x="901.126953"/>
      <use xlink:href="#DejaVuSans-6f" x="928.910156"/>
     </g>
    </g>
   </g>
   <g id="patch_3">
    <path d="M 60.116938 174.140343 
L 131.540938 174.140343 
L 131.540938 137.797254 
L 60.116938 137.797254 
L 60.116938 174.140343 
z
" clip-path="url(#pcc930624bb)" style="fill: #ffffff; stroke: #999999; stroke-linejoin: miter"/>
   </g>
   <g id="line2d_9">
    <path d="M 95.828938 174.140343 
L 95.828938 203.271797 
" clip-path="url(#pcc930624bb)" style="fill: none; stroke: #999999"/>
   </g>
   <g id="line2d_10">
    <path d="M 95.828938 137.797254 
L 95.828938 84.808525 
" clip-path="url(#pcc930624bb)" style="fill: none; stroke: #999999"/>
   </g>
   <g id="line2d_11">
    <path d="M 77.972938 203.271797 
L 113.684938 203.271797 
" clip-path="url(#pcc930624bb)" style="fill: none; stroke: #999999; stroke-linecap: square"/>
   </g>
   <g id="line2d_12">
    <path d="M 77.972938 84.808525 
L 113.684938 84.808525 
" clip-path="url(#pcc930624bb)" style="fill: none; stroke: #999999; stroke-linecap: square"/>
   </g>
   <g id="line2d_13">
    <defs>
     <path id="m037daadc46" d="M 0 3 
C 0.795609 3 1.55874 2.683901 2.12132 2.12132 
C 2.683901 1.55874 3 0.795609 3 0 
C 3 -0.795609 2.683901 -1.55874 2.12132 -2.12132 
C 1.55874 -2.683901 0.795609 -3 0 -3 
C -0.795609 -3 -1.55874 -2.683901 -2.12132 -2.12132 
C -2.683901 -1.55874 -3 -0.795609 -3 0 
C -3 0.795609 -2.683901 1.55874 -2.12132 2.12132 
C -1.55874 2.683901 -0.795609 3 0 3 
z
" style="stroke: #999999"/>
    </defs>
    <g clip-path="url(#pcc930624bb)">
     <use xlink:href="#m037daadc46" x="95.828938" y="236.641342" style="fill-opacity: 0; stroke: #999999"/>
     <use xlink:href="#m037daadc46" x="95.828938" y="43.576829" style="fill-opacity: 0; stroke: #999999"/>
    </g>
   </g>
   <g id="patch_4">
    <path d="M 238.676938 181.289062 
L 310.100937 181.289062 
L 310.100937 155.096001 
L 238.676938 155.096001 
L 238.676938 181.289062 
z
" clip-path="url(#pcc930624bb)" style="fill: #ffffff; stroke: #999999; stroke-linejoin: miter"/>
   </g>
   <g id="line2d_14">
    <path d="M 274.388937 181.289062 
L 274.388937 206.383422 
" clip-path="url(#pcc930624bb)" style="fill: none; stroke: #999999"/>
   </g>
   <g id="line2d_15">
    <path d="M 274.388937 155.096001 
L 274.388937 125.39817 
" clip-path="url(#pcc930624bb)" style="fill: none; stroke: #999999"/>
   </g>
   <g id="line2d_16">
    <path d="M 256.532938 206.383422 
L 292.244937 206.383422 
" clip-path="url(#pcc930624bb)" style="fill: none; stroke: #999999; stroke-linecap: square"/>
   </g>
   <g id="line2d_17">
    <path d="M 256.532938 125.39817 
L 292.244937 125.39817 
" clip-path="url(#pcc930624bb)" style="fill: none; stroke: #999999; stroke-linecap: square"/>
   </g>
   <g id="line2d_18">
    <g clip-path="url(#pcc930624bb)">
     <use xlink:href="#m037daadc46" x="274.388937" y="94.091057" style="fill-opacity: 0; stroke: #999999"/>
     <use xlink:href="#m037daadc46" x="274.388937" y="85.134267" style="fill-opacity: 0; stroke: #999999"/>
     <use xlink:href="#m037daadc46" x="274.388937" y="88.017533" style="fill-opacity: 0; stroke: #999999"/>
    </g>
   </g>
   <g id="patch_5">
    <path d="M 131.540938 240.741326 
L 202.964938 240.741326 
L 202.964938 217.716808 
L 131.540938 217.716808 
L 131.540938 240.741326 
z
" clip-path="url(#pcc930624bb)" style="fill: #ffffff; stroke: #999999; stroke-linejoin: miter"/>
   </g>
   <g id="line2d_19">
    <path d="M 167.252938 240.741326 
L 167.252938 252.873507 
" clip-path="url(#pcc930624bb)" style="fill: none; stroke: #999999"/>
   </g>
   <g id="line2d_20">
    <path d="M 167.252938 217.716808 
L 167.252938 194.732645 
" clip-path="url(#pcc930624bb)" style="fill: none; stroke: #999999"/>
   </g>
   <g id="line2d_21">
    <path d="M 149.396938 252.873507 
L 185.108938 252.873507 
" clip-path="url(#pcc930624bb)" style="fill: none; stroke: #999999; stroke-linecap: square"/>
   </g>
   <g id="line2d_22">
    <path d="M 149.396938 194.732645 
L 185.108938 194.732645 
" clip-path="url(#pcc930624bb)" style="fill: none; stroke: #999999; stroke-linecap: square"/>
   </g>
   <g id="line2d_23"/>
   <g id="patch_6">
    <path d="M 310.100938 220.23723 
L 381.524938 220.23723 
L 381.524938 172.845791 
L 310.100938 172.845791 
L 310.100938 220.23723 
z
" clip-path="url(#pcc930624bb)" style="fill: #ffffff; stroke: #999999; stroke-linejoin: miter"/>
   </g>
   <g id="line2d_24">
    <path d="M 345.812938 220.23723 
L 345.812938 243.424495 
" clip-path="url(#pcc930624bb)" style="fill: none; stroke: #999999"/>
   </g>
   <g id="line2d_25">
    <path d="M 345.812938 172.845791 
L 345.812938 132.279115 
" clip-path="url(#pcc930624bb)" style="fill: none; stroke: #999999"/>
   </g>
   <g id="line2d_26">
    <path d="M 327.956938 243.424495 
L 363.668938 243.424495 
" clip-path="url(#pcc930624bb)" style="fill: none; stroke: #999999; stroke-linecap: square"/>
   </g>
   <g id="line2d_27">
    <path d="M 327.956938 132.279115 
L 363.668938 132.279115 
" clip-path="url(#pcc930624bb)" style="fill: none; stroke: #999999; stroke-linecap: square"/>
   </g>
   <g id="line2d_28"/>
   <g id="line2d_29">
    <path d="M 60.116938 162.271459 
L 131.540938 162.271459 
" clip-path="url(#pcc930624bb)" style="fill: none; stroke: #999999"/>
   </g>
   <g id="line2d_30">
    <path d="M 238.676938 167.321668 
L 310.100937 167.321668 
" clip-path="url(#pcc930624bb)" style="fill: none; stroke: #999999"/>
   </g>
   <g id="line2d_31">
    <path d="M 131.540938 227.461957 
L 202.964938 227.461957 
" clip-path="url(#pcc930624bb)" style="fill: none; stroke: #999999"/>
   </g>
   <g id="line2d_32">
    <path d="M 310.100938 187.988043 
L 381.524938 187.988043 
" clip-path="url(#pcc930624bb)" style="fill: none; stroke: #999999"/>
   </g>
   <g id="patch_7">
    <path d="M 42.260938 294.508875 
L 42.260938 28.396875 
" style="fill: none; stroke: #000000; stroke-width: 0.8; stroke-linejoin: miter; stroke-linecap: square"/>
   </g>
   <g id="patch_8">
    <path d="M 399.380938 294.508875 
L 399.380938 28.396875 
" style="fill: none; stroke: #000000; stroke-width: 0.8; stroke-linejoin: miter; stroke-linecap: square"/>
   </g>
   <g id="patch_9">
    <path d="M 42.260938 294.508875 
L 399.380938 294.508875 
" style="fill: none; stroke: #000000; stroke-width: 0.8; stroke-linejoin: miter; stroke-linecap: square"/>
   </g>
   <g id="patch_10">
    <path d="M 42.260938 28.396875 
L 399.380938 28.396875 
" style="fill: none; stroke: #000000; stroke-width: 0.8; stroke-linejoin: miter; stroke-linecap: square"/>
   </g>
   <g id="PathCollection_1">
    <defs>
     <path id="C0_0_544d4d78fe" d="M 0 5 
C 1.326016 5 2.597899 4.473168 3.535534 3.535534 
C 4.473168 2.597899 5 1.326016 5 -0 
C 5 -1.326016 4.473168 -2.597899 3.535534 -3.535534 
C 2.597899 -4.473168 1.326016 -5 0 -5 
C -1.326016 -5 -2.597899 -4.473168 -3.535534 -3.535534 
C -4.473168 -2.597899 -5 -1.326016 -5 0 
C -5 1.326016 -4.473168 2.597899 -3.535534 3.535534 
C -2.597899 4.473168 -1.326016 5 0 5 
z
"/>
    </defs>
    <g clip-path="url(#pcc930624bb)">
     <use xlink:href="#C0_0_544d4d78fe" x="96.138169" y="131.959781" style="fill: #808080; stroke: #000000"/>
    </g>
    <g clip-path="url(#pcc930624bb)">
     <use xlink:href="#C0_0_544d4d78fe" x="96.263828" y="185.079678" style="fill: #808080; stroke: #000000"/>
    </g>
    <g clip-path="url(#pcc930624bb)">
     <use xlink:href="#C0_0_544d4d78fe" x="97.630713" y="194.75827" style="fill: #808080; stroke: #000000"/>
    </g>
    <g clip-path="url(#pcc930624bb)">
     <use xlink:href="#C0_0_544d4d78fe" x="96.076803" y="236.641342" style="fill: #808080; stroke: #000000"/>
    </g>
    <g clip-path="url(#pcc930624bb)">
     <use xlink:href="#C0_0_544d4d78fe" x="95.588591" y="181.792702" style="fill: #808080; stroke: #000000"/>
    </g>
    <g clip-path="url(#pcc930624bb)">
     <use xlink:href="#C0_0_544d4d78fe" x="101.378829" y="171.647921" style="fill: #808080; stroke: #000000"/>
    </g>
    <g clip-path="url(#pcc930624bb)">
     <use xlink:href="#C0_0_544d4d78fe" x="102.641183" y="165.494821" style="fill: #808080; stroke: #000000"/>
    </g>
    <g clip-path="url(#pcc930624bb)">
     <use xlink:href="#C0_0_544d4d78fe" x="94.949069" y="164.124837" style="fill: #808080; stroke: #000000"/>
    </g>
    <g clip-path="url(#pcc930624bb)">
     <use xlink:href="#C0_0_544d4d78fe" x="101.580024" y="179.034993" style="fill: #808080; stroke: #000000"/>
    </g>
    <g clip-path="url(#pcc930624bb)">
     <use xlink:href="#C0_0_544d4d78fe" x="104.655641" y="178.170622" style="fill: #808080; stroke: #000000"/>
    </g>
    <g clip-path="url(#pcc930624bb)">
     <use xlink:href="#C0_0_544d4d78fe" x="100.759633" y="144.304849" style="fill: #808080; stroke: #000000"/>
    </g>
    <g clip-path="url(#pcc930624bb)">
     <use xlink:href="#C0_0_544d4d78fe" x="102.84464" y="138.159976" style="fill: #808080; stroke: #000000"/>
    </g>
    <g clip-path="url(#pcc930624bb)">
     <use xlink:href="#C0_0_544d4d78fe" x="91.107412" y="137.792047" style="fill: #808080; stroke: #000000"/>
    </g>
    <g clip-path="url(#pcc930624bb)">
     <use xlink:href="#C0_0_544d4d78fe" x="93.759357" y="172.479168" style="fill: #808080; stroke: #000000"/>
    </g>
    <g clip-path="url(#pcc930624bb)">
     <use xlink:href="#C0_0_544d4d78fe" x="93.954839" y="163.291362" style="fill: #808080; stroke: #000000"/>
    </g>
    <g clip-path="url(#pcc930624bb)">
     <use xlink:href="#C0_0_544d4d78fe" x="100.058437" y="161.251555" style="fill: #808080; stroke: #000000"/>
    </g>
    <g clip-path="url(#pcc930624bb)">
     <use xlink:href="#C0_0_544d4d78fe" x="87.251084" y="173.366594" style="fill: #808080; stroke: #000000"/>
    </g>
    <g clip-path="url(#pcc930624bb)">
     <use xlink:href="#C0_0_544d4d78fe" x="87.4927" y="146.737564" style="fill: #808080; stroke: #000000"/>
    </g>
    <g clip-path="url(#pcc930624bb)">
     <use xlink:href="#C0_0_544d4d78fe" x="96.430854" y="154.894238" style="fill: #808080; stroke: #000000"/>
    </g>
    <g clip-path="url(#pcc930624bb)">
     <use xlink:href="#C0_0_544d4d78fe" x="96.321103" y="126.986595" style="fill: #808080; stroke: #000000"/>
    </g>
    <g clip-path="url(#pcc930624bb)">
     <use xlink:href="#C0_0_544d4d78fe" x="101.445941" y="98.799193" style="fill: #808080; stroke: #000000"/>
    </g>
    <g clip-path="url(#pcc930624bb)">
     <use xlink:href="#C0_0_544d4d78fe" x="99.08796" y="164.932801" style="fill: #808080; stroke: #000000"/>
    </g>
    <g clip-path="url(#pcc930624bb)">
     <use xlink:href="#C0_0_544d4d78fe" x="94.074753" y="128.666512" style="fill: #808080; stroke: #000000"/>
    </g>
    <g clip-path="url(#pcc930624bb)">
     <use xlink:href="#C0_0_544d4d78fe" x="91.314582" y="84.808525" style="fill: #808080; stroke: #000000"/>
    </g>
    <g clip-path="url(#pcc930624bb)">
     <use xlink:href="#C0_0_544d4d78fe" x="96.748958" y="143.548314" style="fill: #808080; stroke: #000000"/>
    </g>
    <g clip-path="url(#pcc930624bb)">
     <use xlink:href="#C0_0_544d4d78fe" x="97.918715" y="129.459271" style="fill: #808080; stroke: #000000"/>
    </g>
    <g clip-path="url(#pcc930624bb)">
     <use xlink:href="#C0_0_544d4d78fe" x="94.765065" y="176.461592" style="fill: #808080; stroke: #000000"/>
    </g>
    <g clip-path="url(#pcc930624bb)">
     <use xlink:href="#C0_0_544d4d78fe" x="99.890764" y="43.576829" style="fill: #808080; stroke: #000000"/>
    </g>
    <g clip-path="url(#pcc930624bb)">
     <use xlink:href="#C0_0_544d4d78fe" x="98.51667" y="203.271797" style="fill: #808080; stroke: #000000"/>
    </g>
    <g clip-path="url(#pcc930624bb)">
     <use xlink:href="#C0_0_544d4d78fe" x="95.359818" y="144.310634" style="fill: #808080; stroke: #000000"/>
    </g>
    <g clip-path="url(#pcc930624bb)">
     <use xlink:href="#C0_0_544d4d78fe" x="103.986979" y="164.461098" style="fill: #808080; stroke: #000000"/>
    </g>
    <g clip-path="url(#pcc930624bb)">
     <use xlink:href="#C0_0_544d4d78fe" x="100.531096" y="137.798989" style="fill: #808080; stroke: #000000"/>
    </g>
    <g clip-path="url(#pcc930624bb)">
     <use xlink:href="#C0_0_544d4d78fe" x="100.734408" y="155.24668" style="fill: #808080; stroke: #000000"/>
    </g>
    <g clip-path="url(#pcc930624bb)">
     <use xlink:href="#C0_0_544d4d78fe" x="94.334893" y="170.220687" style="fill: #808080; stroke: #000000"/>
    </g>
    <g clip-path="url(#pcc930624bb)">
     <use xlink:href="#C0_0_544d4d78fe" x="89.649478" y="196.075203" style="fill: #808080; stroke: #000000"/>
    </g>
    <g clip-path="url(#pcc930624bb)">
     <use xlink:href="#C0_0_544d4d78fe" x="89.177963" y="115.609876" style="fill: #808080; stroke: #000000"/>
    </g>
    <g clip-path="url(#pcc930624bb)">
     <use xlink:href="#C0_0_544d4d78fe" x="100.981406" y="185.928237" style="fill: #808080; stroke: #000000"/>
    </g>
    <g clip-path="url(#pcc930624bb)">
     <use xlink:href="#C0_0_544d4d78fe" x="91.898945" y="170.188291" style="fill: #808080; stroke: #000000"/>
    </g>
    <g clip-path="url(#pcc930624bb)">
     <use xlink:href="#C0_0_544d4d78fe" x="98.148834" y="138.287247" style="fill: #808080; stroke: #000000"/>
    </g>
    <g clip-path="url(#pcc930624bb)">
     <use xlink:href="#C0_0_544d4d78fe" x="93.082061" y="135.556706" style="fill: #808080; stroke: #000000"/>
    </g>
   </g>
   <g id="PathCollection_2">
    <defs>
     <path id="C1_0_c42ae419bf" d="M 0 5 
C 1.326016 5 2.597899 4.473168 3.535534 3.535534 
C 4.473168 2.597899 5 1.326016 5 -0 
C 5 -1.326016 4.473168 -2.597899 3.535534 -3.535534 
C 2.597899 -4.473168 1.326016 -5 0 -5 
C -1.326016 -5 -2.597899 -4.473168 -3.535534 -3.535534 
C -4.473168 -2.597899 -5 -1.326016 -5 0 
C -5 1.326016 -4.473168 2.597899 -3.535534 3.535534 
C -2.597899 4.473168 -1.326016 5 0 5 
z
"/>
    </defs>
    <g clip-path="url(#pcc930624bb)">
     <use xlink:href="#C1_0_c42ae419bf" x="164.756883" y="220.977201" style="fill: #3386ff; stroke: #000000"/>
    </g>
    <g clip-path="url(#pcc930624bb)">
     <use xlink:href="#C1_0_c42ae419bf" x="158.393313" y="195.073662" style="fill: #3386ff; stroke: #000000"/>
    </g>
    <g clip-path="url(#pcc930624bb)">
     <use xlink:href="#C1_0_c42ae419bf" x="170.027946" y="203.62867" style="fill: #3386ff; stroke: #000000"/>
    </g>
    <g clip-path="url(#pcc930624bb)">
     <use xlink:href="#C1_0_c42ae419bf" x="175.663234" y="215.934872" style="fill: #3386ff; stroke: #000000"/>
    </g>
    <g clip-path="url(#pcc930624bb)">
     <use xlink:href="#C1_0_c42ae419bf" x="164.565853" y="205.440203" style="fill: #3386ff; stroke: #000000"/>
    </g>
    <g clip-path="url(#pcc930624bb)">
     <use xlink:href="#C1_0_c42ae419bf" x="158.358219" y="194.732645" style="fill: #3386ff; stroke: #000000"/>
    </g>
    <g clip-path="url(#pcc930624bb)">
     <use xlink:href="#C1_0_c42ae419bf" x="172.355718" y="220.139441" style="fill: #3386ff; stroke: #000000"/>
    </g>
    <g clip-path="url(#pcc930624bb)">
     <use xlink:href="#C1_0_c42ae419bf" x="164.644239" y="211.653425" style="fill: #3386ff; stroke: #000000"/>
    </g>
    <g clip-path="url(#pcc930624bb)">
     <use xlink:href="#C1_0_c42ae419bf" x="162.418588" y="208.109208" style="fill: #3386ff; stroke: #000000"/>
    </g>
    <g clip-path="url(#pcc930624bb)">
     <use xlink:href="#C1_0_c42ae419bf" x="171.064466" y="227.519614" style="fill: #3386ff; stroke: #000000"/>
    </g>
    <g clip-path="url(#pcc930624bb)">
     <use xlink:href="#C1_0_c42ae419bf" x="168.768281" y="249.366301" style="fill: #3386ff; stroke: #000000"/>
    </g>
    <g clip-path="url(#pcc930624bb)">
     <use xlink:href="#C1_0_c42ae419bf" x="162.598608" y="227.461957" style="fill: #3386ff; stroke: #000000"/>
    </g>
    <g clip-path="url(#pcc930624bb)">
     <use xlink:href="#C1_0_c42ae419bf" x="158.917106" y="209.777151" style="fill: #3386ff; stroke: #000000"/>
    </g>
    <g clip-path="url(#pcc930624bb)">
     <use xlink:href="#C1_0_c42ae419bf" x="159.41092" y="196.617913" style="fill: #3386ff; stroke: #000000"/>
    </g>
    <g clip-path="url(#pcc930624bb)">
     <use xlink:href="#C1_0_c42ae419bf" x="164.96842" y="251.237401" style="fill: #3386ff; stroke: #000000"/>
    </g>
    <g clip-path="url(#pcc930624bb)">
     <use xlink:href="#C1_0_c42ae419bf" x="175.419277" y="247.696448" style="fill: #3386ff; stroke: #000000"/>
    </g>
    <g clip-path="url(#pcc930624bb)">
     <use xlink:href="#C1_0_c42ae419bf" x="164.530168" y="230.324181" style="fill: #3386ff; stroke: #000000"/>
    </g>
    <g clip-path="url(#pcc930624bb)">
     <use xlink:href="#C1_0_c42ae419bf" x="165.611038" y="239.621374" style="fill: #3386ff; stroke: #000000"/>
    </g>
    <g clip-path="url(#pcc930624bb)">
     <use xlink:href="#C1_0_c42ae419bf" x="165.919283" y="232.121578" style="fill: #3386ff; stroke: #000000"/>
    </g>
    <g clip-path="url(#pcc930624bb)">
     <use xlink:href="#C1_0_c42ae419bf" x="174.281061" y="219.498745" style="fill: #3386ff; stroke: #000000"/>
    </g>
    <g clip-path="url(#pcc930624bb)">
     <use xlink:href="#C1_0_c42ae419bf" x="174.899182" y="251.281642" style="fill: #3386ff; stroke: #000000"/>
    </g>
    <g clip-path="url(#pcc930624bb)">
     <use xlink:href="#C1_0_c42ae419bf" x="167.290503" y="252.575706" style="fill: #3386ff; stroke: #000000"/>
    </g>
    <g clip-path="url(#pcc930624bb)">
     <use xlink:href="#C1_0_c42ae419bf" x="166.231329" y="229.926068" style="fill: #3386ff; stroke: #000000"/>
    </g>
    <g clip-path="url(#pcc930624bb)">
     <use xlink:href="#C1_0_c42ae419bf" x="166.020574" y="221.661144" style="fill: #3386ff; stroke: #000000"/>
    </g>
    <g clip-path="url(#pcc930624bb)">
     <use xlink:href="#C1_0_c42ae419bf" x="174.706705" y="237.58666" style="fill: #3386ff; stroke: #000000"/>
    </g>
    <g clip-path="url(#pcc930624bb)">
     <use xlink:href="#C1_0_c42ae419bf" x="161.604924" y="237.30853" style="fill: #3386ff; stroke: #000000"/>
    </g>
    <g clip-path="url(#pcc930624bb)">
     <use xlink:href="#C1_0_c42ae419bf" x="167.608258" y="252.873507" style="fill: #3386ff; stroke: #000000"/>
    </g>
    <g clip-path="url(#pcc930624bb)">
     <use xlink:href="#C1_0_c42ae419bf" x="171.984848" y="242.742365" style="fill: #3386ff; stroke: #000000"/>
    </g>
    <g clip-path="url(#pcc930624bb)">
     <use xlink:href="#C1_0_c42ae419bf" x="169.313798" y="238.415899" style="fill: #3386ff; stroke: #000000"/>
    </g>
    <g clip-path="url(#pcc930624bb)">
     <use xlink:href="#C1_0_c42ae419bf" x="165.632346" y="249.190762" style="fill: #3386ff; stroke: #000000"/>
    </g>
    <g clip-path="url(#pcc930624bb)">
     <use xlink:href="#C1_0_c42ae419bf" x="173.135341" y="222.579562" style="fill: #3386ff; stroke: #000000"/>
    </g>
    <g clip-path="url(#pcc930624bb)">
     <use xlink:href="#C1_0_c42ae419bf" x="171.027949" y="222.682965" style="fill: #3386ff; stroke: #000000"/>
    </g>
    <g clip-path="url(#pcc930624bb)">
     <use xlink:href="#C1_0_c42ae419bf" x="163.918206" y="221.224671" style="fill: #3386ff; stroke: #000000"/>
    </g>
    <g clip-path="url(#pcc930624bb)">
     <use xlink:href="#C1_0_c42ae419bf" x="169.829536" y="223.669861" style="fill: #3386ff; stroke: #000000"/>
    </g>
    <g clip-path="url(#pcc930624bb)">
     <use xlink:href="#C1_0_c42ae419bf" x="161.919809" y="241.861277" style="fill: #3386ff; stroke: #000000"/>
    </g>
   </g>
   <g id="PathCollection_3">
    <defs>
     <path id="C2_0_4a3c35b566" d="M 0 5 
C 1.326016 5 2.597899 4.473168 3.535534 3.535534 
C 4.473168 2.597899 5 1.326016 5 -0 
C 5 -1.326016 4.473168 -2.597899 3.535534 -3.535534 
C 2.597899 -4.473168 1.326016 -5 0 -5 
C -1.326016 -5 -2.597899 -4.473168 -3.535534 -3.535534 
C -4.473168 -2.597899 -5 -1.326016 -5 0 
C -5 1.326016 -4.473168 2.597899 -3.535534 3.535534 
C -2.597899 4.473168 -1.326016 5 0 5 
z
"/>
    </defs>
    <g clip-path="url(#pcc930624bb)">
     <use xlink:href="#C2_0_4a3c35b566" x="279.059655" y="173.088869" style="fill: #808080; stroke: #000000"/>
    </g>
    <g clip-path="url(#pcc930624bb)">
     <use xlink:href="#C2_0_4a3c35b566" x="276.870423" y="154.369368" style="fill: #808080; stroke: #000000"/>
    </g>
    <g clip-path="url(#pcc930624bb)">
     <use xlink:href="#C2_0_4a3c35b566" x="278.619246" y="200.382104" style="fill: #808080; stroke: #000000"/>
    </g>
    <g clip-path="url(#pcc930624bb)">
     <use xlink:href="#C2_0_4a3c35b566" x="267.897552" y="179.473585" style="fill: #808080; stroke: #000000"/>
    </g>
    <g clip-path="url(#pcc930624bb)">
     <use xlink:href="#C2_0_4a3c35b566" x="269.403886" y="157.275902" style="fill: #808080; stroke: #000000"/>
    </g>
    <g clip-path="url(#pcc930624bb)">
     <use xlink:href="#C2_0_4a3c35b566" x="267.646197" y="206.383422" style="fill: #808080; stroke: #000000"/>
    </g>
    <g clip-path="url(#pcc930624bb)">
     <use xlink:href="#C2_0_4a3c35b566" x="267.623963" y="160.979658" style="fill: #808080; stroke: #000000"/>
    </g>
    <g clip-path="url(#pcc930624bb)">
     <use xlink:href="#C2_0_4a3c35b566" x="280.923225" y="157.427642" style="fill: #808080; stroke: #000000"/>
    </g>
    <g clip-path="url(#pcc930624bb)">
     <use xlink:href="#C2_0_4a3c35b566" x="272.369596" y="169.657224" style="fill: #808080; stroke: #000000"/>
    </g>
    <g clip-path="url(#pcc930624bb)">
     <use xlink:href="#C2_0_4a3c35b566" x="274.387784" y="145.965157" style="fill: #808080; stroke: #000000"/>
    </g>
    <g clip-path="url(#pcc930624bb)">
     <use xlink:href="#C2_0_4a3c35b566" x="276.357317" y="150.855832" style="fill: #808080; stroke: #000000"/>
    </g>
    <g clip-path="url(#pcc930624bb)">
     <use xlink:href="#C2_0_4a3c35b566" x="280.378902" y="179.742275" style="fill: #808080; stroke: #000000"/>
    </g>
    <g clip-path="url(#pcc930624bb)">
     <use xlink:href="#C2_0_4a3c35b566" x="270.934758" y="197.429853" style="fill: #808080; stroke: #000000"/>
    </g>
    <g clip-path="url(#pcc930624bb)">
     <use xlink:href="#C2_0_4a3c35b566" x="271.862331" y="165.268512" style="fill: #808080; stroke: #000000"/>
    </g>
    <g clip-path="url(#pcc930624bb)">
     <use xlink:href="#C2_0_4a3c35b566" x="272.175682" y="169.374825" style="fill: #808080; stroke: #000000"/>
    </g>
    <g clip-path="url(#pcc930624bb)">
     <use xlink:href="#C2_0_4a3c35b566" x="274.040095" y="94.091057" style="fill: #808080; stroke: #000000"/>
    </g>
    <g clip-path="url(#pcc930624bb)">
     <use xlink:href="#C2_0_4a3c35b566" x="282.06932" y="143.77485" style="fill: #808080; stroke: #000000"/>
    </g>
    <g clip-path="url(#pcc930624bb)">
     <use xlink:href="#C2_0_4a3c35b566" x="281.60152" y="185.029034" style="fill: #808080; stroke: #000000"/>
    </g>
    <g clip-path="url(#pcc930624bb)">
     <use xlink:href="#C2_0_4a3c35b566" x="274.055582" y="85.134267" style="fill: #808080; stroke: #000000"/>
    </g>
    <g clip-path="url(#pcc930624bb)">
     <use xlink:href="#C2_0_4a3c35b566" x="266.590371" y="201.290998" style="fill: #808080; stroke: #000000"/>
    </g>
    <g clip-path="url(#pcc930624bb)">
     <use xlink:href="#C2_0_4a3c35b566" x="265.546211" y="158.554568" style="fill: #808080; stroke: #000000"/>
    </g>
    <g clip-path="url(#pcc930624bb)">
     <use xlink:href="#C2_0_4a3c35b566" x="270.915758" y="186.637483" style="fill: #808080; stroke: #000000"/>
    </g>
    <g clip-path="url(#pcc930624bb)">
     <use xlink:href="#C2_0_4a3c35b566" x="265.670458" y="164.646219" style="fill: #808080; stroke: #000000"/>
    </g>
    <g clip-path="url(#pcc930624bb)">
     <use xlink:href="#C2_0_4a3c35b566" x="275.972129" y="160.872057" style="fill: #808080; stroke: #000000"/>
    </g>
    <g clip-path="url(#pcc930624bb)">
     <use xlink:href="#C2_0_4a3c35b566" x="282.299129" y="125.39817" style="fill: #808080; stroke: #000000"/>
    </g>
    <g clip-path="url(#pcc930624bb)">
     <use xlink:href="#C2_0_4a3c35b566" x="275.431557" y="88.017533" style="fill: #808080; stroke: #000000"/>
    </g>
    <g clip-path="url(#pcc930624bb)">
     <use xlink:href="#C2_0_4a3c35b566" x="267.381448" y="181.804658" style="fill: #808080; stroke: #000000"/>
    </g>
    <g clip-path="url(#pcc930624bb)">
     <use xlink:href="#C2_0_4a3c35b566" x="279.687644" y="172.786932" style="fill: #808080; stroke: #000000"/>
    </g>
    <g clip-path="url(#pcc930624bb)">
     <use xlink:href="#C2_0_4a3c35b566" x="278.292112" y="179.576259" style="fill: #808080; stroke: #000000"/>
    </g>
    <g clip-path="url(#pcc930624bb)">
     <use xlink:href="#C2_0_4a3c35b566" x="273.769404" y="193.900027" style="fill: #808080; stroke: #000000"/>
    </g>
   </g>
   <g id="PathCollection_4">
    <defs>
     <path id="C3_0_70bb2b5e52" d="M 0 5 
C 1.326016 5 2.597899 4.473168 3.535534 3.535534 
C 4.473168 2.597899 5 1.326016 5 -0 
C 5 -1.326016 4.473168 -2.597899 3.535534 -3.535534 
C 2.597899 -4.473168 1.326016 -5 0 -5 
C -1.326016 -5 -2.597899 -4.473168 -3.535534 -3.535534 
C -4.473168 -2.597899 -5 -1.326016 -5 0 
C -5 1.326016 -4.473168 2.597899 -3.535534 3.535534 
C -2.597899 4.473168 -1.326016 5 0 5 
z
"/>
    </defs>
    <g clip-path="url(#pcc930624bb)">
     <use xlink:href="#C3_0_70bb2b5e52" x="349.91557" y="132.279115" style="fill: #3386ff; stroke: #000000"/>
    </g>
    <g clip-path="url(#pcc930624bb)">
     <use xlink:href="#C3_0_70bb2b5e52" x="349.732513" y="170.622897" style="fill: #3386ff; stroke: #000000"/>
    </g>
    <g clip-path="url(#pcc930624bb)">
     <use xlink:href="#C3_0_70bb2b5e52" x="350.522386" y="169.178008" style="fill: #3386ff; stroke: #000000"/>
    </g>
    <g clip-path="url(#pcc930624bb)">
     <use xlink:href="#C3_0_70bb2b5e52" x="344.396015" y="219.664875" style="fill: #3386ff; stroke: #000000"/>
    </g>
    <g clip-path="url(#pcc930624bb)">
     <use xlink:href="#C3_0_70bb2b5e52" x="343.803745" y="243.424495" style="fill: #3386ff; stroke: #000000"/>
    </g>
    <g clip-path="url(#pcc930624bb)">
     <use xlink:href="#C3_0_70bb2b5e52" x="338.686055" y="187.988043" style="fill: #3386ff; stroke: #000000"/>
    </g>
    <g clip-path="url(#pcc930624bb)">
     <use xlink:href="#C3_0_70bb2b5e52" x="348.002" y="185.957498" style="fill: #3386ff; stroke: #000000"/>
    </g>
    <g clip-path="url(#pcc930624bb)">
     <use xlink:href="#C3_0_70bb2b5e52" x="351.806358" y="220.809586" style="fill: #3386ff; stroke: #000000"/>
    </g>
    <g clip-path="url(#pcc930624bb)">
     <use xlink:href="#C3_0_70bb2b5e52" x="344.925793" y="215.469049" style="fill: #3386ff; stroke: #000000"/>
    </g>
    <g clip-path="url(#pcc930624bb)">
     <use xlink:href="#C3_0_70bb2b5e52" x="346.95873" y="175.068686" style="fill: #3386ff; stroke: #000000"/>
    </g>
    <g clip-path="url(#pcc930624bb)">
     <use xlink:href="#C3_0_70bb2b5e52" x="346.786206" y="222.187237" style="fill: #3386ff; stroke: #000000"/>
    </g>
   </g>
   <g id="line2d_33"/>
   <g id="line2d_34"/>
   <g id="text_10">
    <!-- n = 40 -->
    <g transform="translate(82.500919 267.897675) scale(0.1 -0.1)">
     <defs>
      <path id="DejaVuSans-3d" d="M 678 2906 
L 4684 2906 
L 4684 2381 
L 678 2381 
L 678 2906 
z
M 678 1631 
L 4684 1631 
L 4684 1100 
L 678 1100 
L 678 1631 
z
" transform="scale(0.015625)"/>
     </defs>
     <use xlink:href="#DejaVuSans-6e"/>
     <use xlink:href="#DejaVuSans-20" x="63.378906"/>
     <use xlink:href="#DejaVuSans-3d" x="95.166016"/>
     <use xlink:href="#DejaVuSans-20" x="178.955078"/>
     <use xlink:href="#DejaVuSans-34" x="210.742188"/>
     <use xlink:href="#DejaVuSans-30" x="274.365234"/>
    </g>
   </g>
   <g id="text_11">
    <!-- n = 35 -->
    <g transform="translate(146.782519 267.897675) scale(0.1 -0.1)">
     <use xlink:href="#DejaVuSans-6e"/>
     <use xlink:href="#DejaVuSans-20" x="63.378906"/>
     <use xlink:href="#DejaVuSans-3d" x="95.166016"/>
     <use xlink:href="#DejaVuSans-20" x="178.955078"/>
     <use xlink:href="#DejaVuSans-33" x="210.742188"/>
     <use xlink:href="#DejaVuSans-35" x="274.365234"/>
    </g>
   </g>
   <g id="text_12">
    <!-- *** -->
    <g transform="translate(112.790938 101.593445) scale(0.25 -0.25)">
     <defs>
      <path id="DejaVuSans-2a" d="M 3009 3897 
L 1888 3291 
L 3009 2681 
L 2828 2375 
L 1778 3009 
L 1778 1831 
L 1422 1831 
L 1422 3009 
L 372 2375 
L 191 2681 
L 1313 3291 
L 191 3897 
L 372 4206 
L 1422 3572 
L 1422 4750 
L 1778 4750 
L 1778 3572 
L 2828 4206 
L 3009 3897 
z
" transform="scale(0.015625)"/>
     </defs>
     <use xlink:href="#DejaVuSans-2a"/>
     <use xlink:href="#DejaVuSans-2a" x="50"/>
     <use xlink:href="#DejaVuSans-2a" x="100"/>
    </g>
   </g>
   <g id="text_13">
    <!-- n = 30 -->
    <g transform="translate(261.060919 267.897675) scale(0.1 -0.1)">
     <use xlink:href="#DejaVuSans-6e"/>
     <use xlink:href="#DejaVuSans-20" x="63.378906"/>
     <use xlink:href="#DejaVuSans-3d" x="95.166016"/>
     <use xlink:href="#DejaVuSans-20" x="178.955078"/>
     <use xlink:href="#DejaVuSans-33" x="210.742188"/>
     <use xlink:href="#DejaVuSans-30" x="274.365234"/>
    </g>
   </g>
   <g id="text_14">
    <!-- n = 11 -->
    <g transform="translate(325.342519 267.897675) scale(0.1 -0.1)">
     <use xlink:href="#DejaVuSans-6e"/>
     <use xlink:href="#DejaVuSans-20" x="63.378906"/>
     <use xlink:href="#DejaVuSans-3d" x="95.166016"/>
     <use xlink:href="#DejaVuSans-20" x="178.955078"/>
     <use xlink:href="#DejaVuSans-31" x="210.742188"/>
     <use xlink:href="#DejaVuSans-31" x="274.365234"/>
    </g>
   </g>
   <g id="text_15">
    <!-- ** -->
    <g transform="translate(297.600937 92.362315) scale(0.25 -0.25)">
     <use xlink:href="#DejaVuSans-2a"/>
     <use xlink:href="#DejaVuSans-2a" x="50"/>
    </g>
   </g>
   <g id="text_16">
    <!-- yTub37C::GFP Intensity -->
    <g transform="translate(89.00375 22.396875) scale(0.2 -0.2)">
     <defs>
      <path id="DejaVuSans-Bold-79" d="M 78 3500 
L 1197 3500 
L 2138 1125 
L 2938 3500 
L 4056 3500 
L 2584 -331 
Q 2363 -916 2067 -1148 
Q 1772 -1381 1288 -1381 
L 641 -1381 
L 641 -647 
L 991 -647 
Q 1275 -647 1404 -556 
Q 1534 -466 1606 -231 
L 1638 -134 
L 78 3500 
z
" transform="scale(0.015625)"/>
      <path id="DejaVuSans-Bold-54" d="M 31 4666 
L 4331 4666 
L 4331 3756 
L 2784 3756 
L 2784 0 
L 1581 0 
L 1581 3756 
L 31 3756 
L 31 4666 
z
" transform="scale(0.015625)"/>
      <path id="DejaVuSans-Bold-75" d="M 500 1363 
L 500 3500 
L 1625 3500 
L 1625 3150 
Q 1625 2866 1622 2436 
Q 1619 2006 1619 1863 
Q 1619 1441 1641 1255 
Q 1663 1069 1716 984 
Q 1784 875 1895 815 
Q 2006 756 2150 756 
Q 2500 756 2700 1025 
Q 2900 1294 2900 1772 
L 2900 3500 
L 4019 3500 
L 4019 0 
L 2900 0 
L 2900 506 
Q 2647 200 2364 54 
Q 2081 -91 1741 -91 
Q 1134 -91 817 281 
Q 500 653 500 1363 
z
" transform="scale(0.015625)"/>
      <path id="DejaVuSans-Bold-62" d="M 2400 722 
Q 2759 722 2948 984 
Q 3138 1247 3138 1747 
Q 3138 2247 2948 2509 
Q 2759 2772 2400 2772 
Q 2041 2772 1848 2508 
Q 1656 2244 1656 1747 
Q 1656 1250 1848 986 
Q 2041 722 2400 722 
z
M 1656 2988 
Q 1888 3294 2169 3439 
Q 2450 3584 2816 3584 
Q 3463 3584 3878 3070 
Q 4294 2556 4294 1747 
Q 4294 938 3878 423 
Q 3463 -91 2816 -91 
Q 2450 -91 2169 54 
Q 1888 200 1656 506 
L 1656 0 
L 538 0 
L 538 4863 
L 1656 4863 
L 1656 2988 
z
" transform="scale(0.015625)"/>
      <path id="DejaVuSans-Bold-33" d="M 2981 2516 
Q 3453 2394 3698 2092 
Q 3944 1791 3944 1325 
Q 3944 631 3412 270 
Q 2881 -91 1863 -91 
Q 1503 -91 1142 -33 
Q 781 25 428 141 
L 428 1069 
Q 766 900 1098 814 
Q 1431 728 1753 728 
Q 2231 728 2486 893 
Q 2741 1059 2741 1369 
Q 2741 1688 2480 1852 
Q 2219 2016 1709 2016 
L 1228 2016 
L 1228 2791 
L 1734 2791 
Q 2188 2791 2409 2933 
Q 2631 3075 2631 3366 
Q 2631 3634 2415 3781 
Q 2200 3928 1806 3928 
Q 1516 3928 1219 3862 
Q 922 3797 628 3669 
L 628 4550 
Q 984 4650 1334 4700 
Q 1684 4750 2022 4750 
Q 2931 4750 3382 4451 
Q 3834 4153 3834 3553 
Q 3834 3144 3618 2883 
Q 3403 2622 2981 2516 
z
" transform="scale(0.015625)"/>
      <path id="DejaVuSans-Bold-37" d="M 428 4666 
L 3944 4666 
L 3944 3988 
L 2125 0 
L 953 0 
L 2675 3781 
L 428 3781 
L 428 4666 
z
" transform="scale(0.015625)"/>
      <path id="DejaVuSans-Bold-43" d="M 4288 256 
Q 3956 84 3597 -3 
Q 3238 -91 2847 -91 
Q 1681 -91 1000 561 
Q 319 1213 319 2328 
Q 319 3447 1000 4098 
Q 1681 4750 2847 4750 
Q 3238 4750 3597 4662 
Q 3956 4575 4288 4403 
L 4288 3438 
Q 3953 3666 3628 3772 
Q 3303 3878 2944 3878 
Q 2300 3878 1931 3465 
Q 1563 3053 1563 2328 
Q 1563 1606 1931 1193 
Q 2300 781 2944 781 
Q 3303 781 3628 887 
Q 3953 994 4288 1222 
L 4288 256 
z
" transform="scale(0.015625)"/>
      <path id="DejaVuSans-Bold-3a" d="M 716 3500 
L 1844 3500 
L 1844 2291 
L 716 2291 
L 716 3500 
z
M 716 1209 
L 1844 1209 
L 1844 0 
L 716 0 
L 716 1209 
z
" transform="scale(0.015625)"/>
      <path id="DejaVuSans-Bold-47" d="M 4781 347 
Q 4331 128 3847 18 
Q 3363 -91 2847 -91 
Q 1681 -91 1000 561 
Q 319 1213 319 2328 
Q 319 3456 1012 4103 
Q 1706 4750 2913 4750 
Q 3378 4750 3804 4662 
Q 4231 4575 4609 4403 
L 4609 3438 
Q 4219 3659 3833 3768 
Q 3447 3878 3059 3878 
Q 2341 3878 1952 3476 
Q 1563 3075 1563 2328 
Q 1563 1588 1938 1184 
Q 2313 781 3003 781 
Q 3191 781 3352 804 
Q 3513 828 3641 878 
L 3641 1784 
L 2906 1784 
L 2906 2591 
L 4781 2591 
L 4781 347 
z
" transform="scale(0.015625)"/>
      <path id="DejaVuSans-Bold-46" d="M 588 4666 
L 3834 4666 
L 3834 3756 
L 1791 3756 
L 1791 2888 
L 3713 2888 
L 3713 1978 
L 1791 1978 
L 1791 0 
L 588 0 
L 588 4666 
z
" transform="scale(0.015625)"/>
      <path id="DejaVuSans-Bold-50" d="M 588 4666 
L 2584 4666 
Q 3475 4666 3951 4270 
Q 4428 3875 4428 3144 
Q 4428 2409 3951 2014 
Q 3475 1619 2584 1619 
L 1791 1619 
L 1791 0 
L 588 0 
L 588 4666 
z
M 1791 3794 
L 1791 2491 
L 2456 2491 
Q 2806 2491 2997 2661 
Q 3188 2831 3188 3144 
Q 3188 3456 2997 3625 
Q 2806 3794 2456 3794 
L 1791 3794 
z
" transform="scale(0.015625)"/>
      <path id="DejaVuSans-Bold-20" transform="scale(0.015625)"/>
      <path id="DejaVuSans-Bold-49" d="M 588 4666 
L 1791 4666 
L 1791 0 
L 588 0 
L 588 4666 
z
" transform="scale(0.015625)"/>
      <path id="DejaVuSans-Bold-6e" d="M 4056 2131 
L 4056 0 
L 2931 0 
L 2931 347 
L 2931 1631 
Q 2931 2084 2911 2256 
Q 2891 2428 2841 2509 
Q 2775 2619 2662 2680 
Q 2550 2741 2406 2741 
Q 2056 2741 1856 2470 
Q 1656 2200 1656 1722 
L 1656 0 
L 538 0 
L 538 3500 
L 1656 3500 
L 1656 2988 
Q 1909 3294 2193 3439 
Q 2478 3584 2822 3584 
Q 3428 3584 3742 3212 
Q 4056 2841 4056 2131 
z
" transform="scale(0.015625)"/>
      <path id="DejaVuSans-Bold-74" d="M 1759 4494 
L 1759 3500 
L 2913 3500 
L 2913 2700 
L 1759 2700 
L 1759 1216 
Q 1759 972 1856 886 
Q 1953 800 2241 800 
L 2816 800 
L 2816 0 
L 1856 0 
Q 1194 0 917 276 
Q 641 553 641 1216 
L 641 2700 
L 84 2700 
L 84 3500 
L 641 3500 
L 641 4494 
L 1759 4494 
z
" transform="scale(0.015625)"/>
      <path id="DejaVuSans-Bold-65" d="M 4031 1759 
L 4031 1441 
L 1416 1441 
Q 1456 1047 1700 850 
Q 1944 653 2381 653 
Q 2734 653 3104 758 
Q 3475 863 3866 1075 
L 3866 213 
Q 3469 63 3072 -14 
Q 2675 -91 2278 -91 
Q 1328 -91 801 392 
Q 275 875 275 1747 
Q 275 2603 792 3093 
Q 1309 3584 2216 3584 
Q 3041 3584 3536 3087 
Q 4031 2591 4031 1759 
z
M 2881 2131 
Q 2881 2450 2695 2645 
Q 2509 2841 2209 2841 
Q 1884 2841 1681 2658 
Q 1478 2475 1428 2131 
L 2881 2131 
z
" transform="scale(0.015625)"/>
      <path id="DejaVuSans-Bold-73" d="M 3272 3391 
L 3272 2541 
Q 2913 2691 2578 2766 
Q 2244 2841 1947 2841 
Q 1628 2841 1473 2761 
Q 1319 2681 1319 2516 
Q 1319 2381 1436 2309 
Q 1553 2238 1856 2203 
L 2053 2175 
Q 2913 2066 3209 1816 
Q 3506 1566 3506 1031 
Q 3506 472 3093 190 
Q 2681 -91 1863 -91 
Q 1516 -91 1145 -36 
Q 775 19 384 128 
L 384 978 
Q 719 816 1070 734 
Q 1422 653 1784 653 
Q 2113 653 2278 743 
Q 2444 834 2444 1013 
Q 2444 1163 2330 1236 
Q 2216 1309 1875 1350 
L 1678 1375 
Q 931 1469 631 1722 
Q 331 1975 331 2491 
Q 331 3047 712 3315 
Q 1094 3584 1881 3584 
Q 2191 3584 2531 3537 
Q 2872 3491 3272 3391 
z
" transform="scale(0.015625)"/>
      <path id="DejaVuSans-Bold-69" d="M 538 3500 
L 1656 3500 
L 1656 0 
L 538 0 
L 538 3500 
z
M 538 4863 
L 1656 4863 
L 1656 3950 
L 538 3950 
L 538 4863 
z
" transform="scale(0.015625)"/>
     </defs>
     <use xlink:href="#DejaVuSans-Bold-79"/>
     <use xlink:href="#DejaVuSans-Bold-54" x="65.185547"/>
     <use xlink:href="#DejaVuSans-Bold-75" x="122.398438"/>
     <use xlink:href="#DejaVuSans-Bold-62" x="193.589844"/>
     <use xlink:href="#DejaVuSans-Bold-33" x="265.171875"/>
     <use xlink:href="#DejaVuSans-Bold-37" x="334.751953"/>
     <use xlink:href="#DejaVuSans-Bold-43" x="404.332031"/>
     <use xlink:href="#DejaVuSans-Bold-3a" x="477.720703"/>
     <use xlink:href="#DejaVuSans-Bold-3a" x="517.710938"/>
     <use xlink:href="#DejaVuSans-Bold-47" x="557.701172"/>
     <use xlink:href="#DejaVuSans-Bold-46" x="639.78125"/>
     <use xlink:href="#DejaVuSans-Bold-50" x="708.091797"/>
     <use xlink:href="#DejaVuSans-Bold-20" x="781.382812"/>
     <use xlink:href="#DejaVuSans-Bold-49" x="816.197266"/>
     <use xlink:href="#DejaVuSans-Bold-6e" x="853.404297"/>
     <use xlink:href="#DejaVuSans-Bold-74" x="924.595703"/>
     <use xlink:href="#DejaVuSans-Bold-65" x="972.398438"/>
     <use xlink:href="#DejaVuSans-Bold-6e" x="1040.220703"/>
     <use xlink:href="#DejaVuSans-Bold-73" x="1111.412109"/>
     <use xlink:href="#DejaVuSans-Bold-69" x="1170.933594"/>
     <use xlink:href="#DejaVuSans-Bold-74" x="1205.210938"/>
     <use xlink:href="#DejaVuSans-Bold-79" x="1253.013672"/>
    </g>
   </g>
   <g id="legend_1">
    <g id="patch_11">
     <path d="M 328.079375 80.43125 
L 392.380938 80.43125 
Q 394.380938 80.43125 394.380938 78.43125 
L 394.380938 35.396875 
Q 394.380938 33.396875 392.380938 33.396875 
L 328.079375 33.396875 
Q 326.079375 33.396875 326.079375 35.396875 
L 326.079375 78.43125 
Q 326.079375 80.43125 328.079375 80.43125 
z
" style="fill: #ffffff; opacity: 0.8; stroke: #cccccc; stroke-linejoin: miter"/>
    </g>
    <g id="text_17">
     <!-- genotype -->
     <g transform="translate(336.580938 44.995312) scale(0.1 -0.1)">
      <defs>
       <path id="DejaVuSans-67" d="M 2906 1791 
Q 2906 2416 2648 2759 
Q 2391 3103 1925 3103 
Q 1463 3103 1205 2759 
Q 947 2416 947 1791 
Q 947 1169 1205 825 
Q 1463 481 1925 481 
Q 2391 481 2648 825 
Q 2906 1169 2906 1791 
z
M 3481 434 
Q 3481 -459 3084 -895 
Q 2688 -1331 1869 -1331 
Q 1566 -1331 1297 -1286 
Q 1028 -1241 775 -1147 
L 775 -588 
Q 1028 -725 1275 -790 
Q 1522 -856 1778 -856 
Q 2344 -856 2625 -561 
Q 2906 -266 2906 331 
L 2906 616 
Q 2728 306 2450 153 
Q 2172 0 1784 0 
Q 1141 0 747 490 
Q 353 981 353 1791 
Q 353 2603 747 3093 
Q 1141 3584 1784 3584 
Q 2172 3584 2450 3431 
Q 2728 3278 2906 2969 
L 2906 3500 
L 3481 3500 
L 3481 434 
z
" transform="scale(0.015625)"/>
      </defs>
      <use xlink:href="#DejaVuSans-67"/>
      <use xlink:href="#DejaVuSans-65" x="63.476562"/>
      <use xlink:href="#DejaVuSans-6e" x="125"/>
      <use xlink:href="#DejaVuSans-6f" x="188.378906"/>
      <use xlink:href="#DejaVuSans-74" x="249.560547"/>
      <use xlink:href="#DejaVuSans-79" x="288.769531"/>
      <use xlink:href="#DejaVuSans-70" x="347.949219"/>
      <use xlink:href="#DejaVuSans-65" x="411.425781"/>
     </g>
    </g>
    <g id="line2d_35">
     <defs>
      <path id="mb561343eb3" d="M 0 5 
C 1.326016 5 2.597899 4.473168 3.535534 3.535534 
C 4.473168 2.597899 5 1.326016 5 0 
C 5 -1.326016 4.473168 -2.597899 3.535534 -3.535534 
C 2.597899 -4.473168 1.326016 -5 0 -5 
C -1.326016 -5 -2.597899 -4.473168 -3.535534 -3.535534 
C -4.473168 -2.597899 -5 -1.326016 -5 0 
C -5 1.326016 -4.473168 2.597899 -3.535534 3.535534 
C -2.597899 4.473168 -1.326016 5 0 5 
z
" style="stroke: #000000"/>
     </defs>
     <g>
      <use xlink:href="#mb561343eb3" x="340.079375" y="56.173437" style="fill: #808080; stroke: #000000"/>
     </g>
    </g>
    <g id="text_18">
     <!-- WT -->
     <g transform="translate(358.079375 59.673437) scale(0.1 -0.1)">
      <defs>
       <path id="DejaVuSans-57" d="M 213 4666 
L 850 4666 
L 1831 722 
L 2809 4666 
L 3519 4666 
L 4500 722 
L 5478 4666 
L 6119 4666 
L 4947 0 
L 4153 0 
L 3169 4050 
L 2175 0 
L 1381 0 
L 213 4666 
z
" transform="scale(0.015625)"/>
       <path id="DejaVuSans-54" d="M -19 4666 
L 3928 4666 
L 3928 4134 
L 2272 4134 
L 2272 0 
L 1638 0 
L 1638 4134 
L -19 4134 
L -19 4666 
z
" transform="scale(0.015625)"/>
      </defs>
      <use xlink:href="#DejaVuSans-57"/>
      <use xlink:href="#DejaVuSans-54" x="98.876953"/>
     </g>
    </g>
    <g id="line2d_36">
     <defs>
      <path id="m46896abad3" d="M 0 5 
C 1.326016 5 2.597899 4.473168 3.535534 3.535534 
C 4.473168 2.597899 5 1.326016 5 0 
C 5 -1.326016 4.473168 -2.597899 3.535534 -3.535534 
C 2.597899 -4.473168 1.326016 -5 0 -5 
C -1.326016 -5 -2.597899 -4.473168 -3.535534 -3.535534 
C -4.473168 -2.597899 -5 -1.326016 -5 0 
C -5 1.326016 -4.473168 2.597899 -3.535534 3.535534 
C -2.597899 4.473168 -1.326016 5 0 5 
z
" style="stroke: #000000"/>
     </defs>
     <g>
      <use xlink:href="#m46896abad3" x="340.079375" y="70.851562" style="fill: #3386ff; stroke: #000000"/>
     </g>
    </g>
    <g id="text_19">
     <!-- PP4KO -->
     <g transform="translate(358.079375 74.351562) scale(0.1 -0.1)">
      <defs>
       <path id="DejaVuSans-50" d="M 1259 4147 
L 1259 2394 
L 2053 2394 
Q 2494 2394 2734 2622 
Q 2975 2850 2975 3272 
Q 2975 3691 2734 3919 
Q 2494 4147 2053 4147 
L 1259 4147 
z
M 628 4666 
L 2053 4666 
Q 2838 4666 3239 4311 
Q 3641 3956 3641 3272 
Q 3641 2581 3239 2228 
Q 2838 1875 2053 1875 
L 1259 1875 
L 1259 0 
L 628 0 
L 628 4666 
z
" transform="scale(0.015625)"/>
       <path id="DejaVuSans-4b" d="M 628 4666 
L 1259 4666 
L 1259 2694 
L 3353 4666 
L 4166 4666 
L 1850 2491 
L 4331 0 
L 3500 0 
L 1259 2247 
L 1259 0 
L 628 0 
L 628 4666 
z
" transform="scale(0.015625)"/>
       <path id="DejaVuSans-4f" d="M 2522 4238 
Q 1834 4238 1429 3725 
Q 1025 3213 1025 2328 
Q 1025 1447 1429 934 
Q 1834 422 2522 422 
Q 3209 422 3611 934 
Q 4013 1447 4013 2328 
Q 4013 3213 3611 3725 
Q 3209 4238 2522 4238 
z
M 2522 4750 
Q 3503 4750 4090 4092 
Q 4678 3434 4678 2328 
Q 4678 1225 4090 567 
Q 3503 -91 2522 -91 
Q 1538 -91 948 565 
Q 359 1222 359 2328 
Q 359 3434 948 4092 
Q 1538 4750 2522 4750 
z
" transform="scale(0.015625)"/>
      </defs>
      <use xlink:href="#DejaVuSans-50"/>
      <use xlink:href="#DejaVuSans-50" x="60.302734"/>
      <use xlink:href="#DejaVuSans-34" x="120.605469"/>
      <use xlink:href="#DejaVuSans-4b" x="184.228516"/>
      <use xlink:href="#DejaVuSans-4f" x="244.304688"/>
     </g>
    </g>
   </g>
  </g>
 </g>
 <defs>
  <clipPath id="pcc930624bb">
   <rect x="42.260938" y="28.396875" width="357.12" height="266.112"/>
  </clipPath>
 </defs>
</svg>
