<?xml version="1.0" encoding="utf-8" standalone="no"?>
<!DOCTYPE svg PUBLIC "-//W3C//DTD SVG 1.1//EN"
  "http://www.w3.org/Graphics/SVG/1.1/DTD/svg11.dtd">
<svg xmlns:xlink="http://www.w3.org/1999/xlink" width="855.79pt" height="127.72pt" viewBox="0 0 855.79 127.72" xmlns="http://www.w3.org/2000/svg" version="1.1">
 <metadata>
  <rdf:RDF xmlns:dc="http://purl.org/dc/elements/1.1/" xmlns:cc="http://creativecommons.org/ns#" xmlns:rdf="http://www.w3.org/1999/02/22-rdf-syntax-ns#">
   <cc:Work>
    <dc:type rdf:resource="http://purl.org/dc/dcmitype/StillImage"/>
    <dc:date>2024-12-11T14:25:43.764452</dc:date>
    <dc:format>image/svg+xml</dc:format>
    <dc:creator>
     <cc:Agent>
      <dc:title>Matplotlib v3.7.2, https://matplotlib.org/</dc:title>
     </cc:Agent>
    </dc:creator>
   </cc:Work>
  </rdf:RDF>
 </metadata>
 <defs>
  <style type="text/css">*{stroke-linejoin: round; stroke-linecap: butt}</style>
 </defs>
 <g id="figure_1">
  <g id="patch_1">
   <path d="M 0 127.72 
L 855.79 127.72 
L 855.79 0 
L 0 0 
z
" style="fill: #ffffff"/>
  </g>
  <g id="axes_1">
   <g id="patch_2">
    <path d="M 7.2 120.52 
L 164.038 120.52 
L 164.038 7.2 
L 7.2 7.2 
z
" style="fill: #ffffff"/>
   </g>
   <g id="PolyCollection_1"/>
   <g id="PolyCollection_2"/>
   <g id="matplotlib.axis_1"/>
   <g id="matplotlib.axis_2">
    <g id="ytick_1">
     <g id="line2d_1">
      <defs>
       <path id="me523a29cd1" d="M 0 0 
L 3.5 0 
" style="stroke: #000000; stroke-width: 0.8"/>
      </defs>
      <g>
       <use xlink:href="#me523a29cd1" x="7.2" y="111.076667" style="stroke: #000000; stroke-width: 0.8"/>
      </g>
     </g>
     <g id="text_1">
      <!-- 0.0 -->
      <g transform="translate(13.345313 116.775495) scale(0.15 -0.15)">
       <defs>
        <path id="DejaVuSans-30" d="M 2034 4250 
Q 1547 4250 1301 3770 
Q 1056 3291 1056 2328 
Q 1056 1369 1301 889 
Q 1547 409 2034 409 
Q 2525 409 2770 889 
Q 3016 1369 3016 2328 
Q 3016 3291 2770 3770 
Q 2525 4250 2034 4250 
z
M 2034 4750 
Q 2819 4750 3233 4129 
Q 3647 3509 3647 2328 
Q 3647 1150 3233 529 
Q 2819 -91 2034 -91 
Q 1250 -91 836 529 
Q 422 1150 422 2328 
Q 422 3509 836 4129 
Q 1250 4750 2034 4750 
z
" transform="scale(0.015625)"/>
        <path id="DejaVuSans-2e" d="M 684 794 
L 1344 794 
L 1344 0 
L 684 0 
L 684 794 
z
" transform="scale(0.015625)"/>
       </defs>
       <use xlink:href="#DejaVuSans-30"/>
       <use xlink:href="#DejaVuSans-2e" x="63.623047"/>
       <use xlink:href="#DejaVuSans-30" x="95.410156"/>
      </g>
     </g>
    </g>
    <g id="ytick_2">
     <g id="line2d_2">
      <g>
       <use xlink:href="#me523a29cd1" x="7.2" y="63.86" style="stroke: #000000; stroke-width: 0.8"/>
      </g>
     </g>
     <g id="text_2">
      <!-- 0.5 -->
      <g transform="translate(13.345313 69.558828) scale(0.15 -0.15)">
       <defs>
        <path id="DejaVuSans-35" d="M 691 4666 
L 3169 4666 
L 3169 4134 
L 1269 4134 
L 1269 2991 
Q 1406 3038 1543 3061 
Q 1681 3084 1819 3084 
Q 2600 3084 3056 2656 
Q 3513 2228 3513 1497 
Q 3513 744 3044 326 
Q 2575 -91 1722 -91 
Q 1428 -91 1123 -41 
Q 819 9 494 109 
L 494 744 
Q 775 591 1075 516 
Q 1375 441 1709 441 
Q 2250 441 2565 725 
Q 2881 1009 2881 1497 
Q 2881 1984 2565 2268 
Q 2250 2553 1709 2553 
Q 1456 2553 1204 2497 
Q 953 2441 691 2322 
L 691 4666 
z
" transform="scale(0.015625)"/>
       </defs>
       <use xlink:href="#DejaVuSans-30"/>
       <use xlink:href="#DejaVuSans-2e" x="63.623047"/>
       <use xlink:href="#DejaVuSans-35" x="95.410156"/>
      </g>
     </g>
    </g>
    <g id="ytick_3">
     <g id="line2d_3">
      <g>
       <use xlink:href="#me523a29cd1" x="7.2" y="16.643333" style="stroke: #000000; stroke-width: 0.8"/>
      </g>
     </g>
     <g id="text_3">
      <!-- 1.0 -->
      <g transform="translate(13.345313 22.342161) scale(0.15 -0.15)">
       <defs>
        <path id="DejaVuSans-31" d="M 794 531 
L 1825 531 
L 1825 4091 
L 703 3866 
L 703 4441 
L 1819 4666 
L 2450 4666 
L 2450 531 
L 3481 531 
L 3481 0 
L 794 0 
L 794 531 
z
" transform="scale(0.015625)"/>
       </defs>
       <use xlink:href="#DejaVuSans-31"/>
       <use xlink:href="#DejaVuSans-2e" x="63.623047"/>
       <use xlink:href="#DejaVuSans-30" x="95.410156"/>
      </g>
     </g>
    </g>
   </g>
   <g id="line2d_4">
    <path d="M 14.329 79.140974 
L 16.74561 78.885488 
L 19.16222 80.665226 
L 21.578831 84.926214 
L 23.995441 85.766276 
L 26.412051 81.206498 
L 28.828661 77.60806 
L 31.245271 76.69005 
L 33.661881 76.586118 
L 36.078492 77.114411 
L 38.495102 82.717771 
L 40.911712 86.12135 
L 43.328322 82.250105 
L 45.744932 82.354036 
L 48.161542 80.847106 
L 50.578153 78.552054 
L 52.994763 79.305532 
L 55.411373 81.695829 
L 57.827983 81.163218 
L 60.244593 79.032724 
L 62.661203 76.516831 
L 65.077814 78.318234 
L 67.494424 77.772619 
L 69.911034 80.007019 
L 72.327644 79.357498 
L 74.744254 75.927911 
L 77.160864 71.926752 
L 79.577475 68.514512 
L 81.994085 67.522871 
L 84.410695 74.442646 
L 86.827305 78.621342 
L 89.243915 77.876525 
L 91.660525 77.543116 
L 94.077136 74.044241 
L 96.493746 73.905692 
L 98.910356 80.634925 
L 101.326966 85.090747 
L 103.743576 84.68805 
L 106.160186 79.296871 
L 108.576797 75.516554 
L 110.993407 76.945535 
L 113.410017 82.1765 
L 115.826627 83.41494 
L 118.243237 81.695829 
L 120.659847 77.807262 
L 123.076458 75.888949 
L 125.493068 75.724391 
L 127.909678 76.698711 
L 130.326288 79.699567 
L 132.742898 83.475567 
L 135.159508 82.462286 
L 137.576119 80.916394 
L 139.992729 79.353154 
L 142.409339 77.149055 
L 144.825949 79.651945 
L 147.242559 81.306111 
L 149.659169 83.765696 
L 152.07578 82.436303 
L 154.49239 77.573417 
L 156.909 78.630003 
" clip-path="url(#p597cc6bd03)" style="fill: none; stroke: #808080; stroke-width: 2; stroke-linecap: square"/>
   </g>
   <g id="line2d_5">
    <path d="M 14.329 73.764364 
L 16.74561 75.383345 
L 19.16222 73.109832 
L 21.578831 67.17781 
L 23.995441 60.878971 
L 26.412051 59.367524 
L 28.828661 62.270272 
L 31.245271 65.192012 
L 33.661881 66.709802 
L 36.078492 67.424444 
L 38.495102 70.295589 
L 40.911712 71.835505 
L 43.328322 67.525635 
L 45.744932 64.35409 
L 48.161542 65.637857 
L 50.578153 65.444989 
L 52.994763 64.711392 
L 55.411373 66.858417 
L 57.827983 68.142221 
L 60.244593 66.741443 
L 62.661203 64.132716 
L 65.077814 62.956445 
L 67.494424 64.837881 
L 69.911034 67.459219 
L 72.327644 67.734323 
L 74.744254 63.487661 
L 77.160864 55.930352 
L 79.577475 47.718474 
L 81.994085 41.51452 
L 84.410695 42.131106 
L 86.827305 47.924028 
L 89.243915 50.080529 
L 91.660525 53.492404 
L 94.077136 61.732714 
L 96.493746 65.710616 
L 98.910356 65.966727 
L 101.326966 68.028381 
L 103.743576 72.116914 
L 106.160186 74.393599 
L 108.576797 72.401532 
L 110.993407 70.260814 
L 113.410017 70.965941 
L 115.826627 70.931166 
L 118.243237 66.668684 
L 120.659847 62.504257 
L 123.076458 63.626798 
L 125.493068 65.176191 
L 127.909678 63.215728 
L 130.326288 62.684513 
L 132.742898 64.594381 
L 135.159508 66.687676 
L 137.576119 68.148564 
L 139.992729 67.873461 
L 142.409339 65.802292 
L 144.825949 65.543009 
L 147.242559 68.379378 
L 149.659169 70.836281 
L 152.07578 71.813378 
L 154.49239 69.511396 
L 156.909 66.675027 
" clip-path="url(#p597cc6bd03)" style="fill: none; stroke: #35db09; stroke-width: 2; stroke-linecap: square"/>
   </g>
   <g id="patch_3">
    <path d="M 7.2 120.52 
L 7.2 7.2 
" style="fill: none; stroke: #000000; stroke-width: 0.8; stroke-linejoin: miter; stroke-linecap: square"/>
   </g>
   <g id="patch_4">
    <path d="M 7.2 120.52 
L 164.038 120.52 
" style="fill: none; stroke: #000000; stroke-width: 0.8; stroke-linejoin: miter; stroke-linecap: square"/>
   </g>
  </g>
  <g id="axes_2">
   <g id="patch_5">
    <path d="M 178.338 120.52 
L 335.176 120.52 
L 335.176 7.2 
L 178.338 7.2 
z
" style="fill: #ffffff"/>
   </g>
   <g id="PolyCollection_3"/>
   <g id="PolyCollection_4"/>
   <g id="matplotlib.axis_3"/>
   <g id="matplotlib.axis_4">
    <g id="ytick_4">
     <g id="line2d_6">
      <g>
       <use xlink:href="#me523a29cd1" x="178.338" y="111.076667" style="stroke: #000000; stroke-width: 0.8"/>
      </g>
     </g>
    </g>
    <g id="ytick_5">
     <g id="line2d_7">
      <g>
       <use xlink:href="#me523a29cd1" x="178.338" y="63.86" style="stroke: #000000; stroke-width: 0.8"/>
      </g>
     </g>
    </g>
    <g id="ytick_6">
     <g id="line2d_8">
      <g>
       <use xlink:href="#me523a29cd1" x="178.338" y="16.643333" style="stroke: #000000; stroke-width: 0.8"/>
      </g>
     </g>
    </g>
   </g>
   <g id="line2d_9">
    <path d="M 185.467 76.841604 
L 187.88361 79.541524 
L 190.30022 81.610318 
L 192.716831 81.586481 
L 195.133441 78.98942 
L 197.550051 78.325796 
L 199.966661 79.527447 
L 202.383271 80.497423 
L 204.799881 83.240648 
L 207.216492 85.283459 
L 209.633102 83.652031 
L 212.049712 81.23248 
L 214.466322 79.935585 
L 216.882932 80.694453 
L 219.299542 83.464734 
L 221.716153 84.770317 
L 224.132763 81.98813 
L 226.549373 79.205918 
L 228.965983 80.692282 
L 231.382593 82.220877 
L 233.799203 81.358077 
L 236.215814 81.605975 
L 238.632424 82.961351 
L 241.049034 83.084751 
L 243.465644 80.309054 
L 245.882254 78.166654 
L 248.298864 78.833522 
L 250.715475 80.350187 
L 253.132085 81.361322 
L 255.548695 79.166957 
L 257.965305 75.065111 
L 260.381915 73.565768 
L 262.798525 75.982048 
L 265.215136 77.439184 
L 267.631746 76.195302 
L 270.048356 75.875945 
L 272.464966 76.954196 
L 274.881576 76.876248 
L 277.298186 76.6435 
L 279.714797 77.421863 
L 282.131407 76.557964 
L 284.548017 75.031565 
L 286.964627 75.843473 
L 289.381237 77.249742 
L 291.797847 77.262721 
L 294.214458 76.485431 
L 296.631068 76.841604 
L 299.047678 79.845731 
L 301.464288 82.277161 
L 303.880898 80.295002 
L 306.297508 78.219718 
L 308.714119 77.746636 
L 311.130729 78.55747 
L 313.547339 82.611668 
L 315.963949 83.002484 
L 318.380559 78.636492 
L 320.797169 76.828625 
L 323.21378 78.27383 
L 325.63039 79.76561 
L 328.047 78.757745 
" clip-path="url(#p75d6987c7a)" style="fill: none; stroke: #808080; stroke-width: 2; stroke-linecap: square"/>
   </g>
   <g id="line2d_10">
    <path d="M 185.467 63.223639 
L 187.88361 62.864732 
L 190.30022 66.877409 
L 192.716831 70.614945 
L 195.133441 70.7952 
L 197.550051 69.026 
L 199.966661 66.455257 
L 202.383271 64.053688 
L 204.799881 65.573045 
L 207.216492 68.961189 
L 209.633102 69.33114 
L 212.049712 68.009427 
L 214.466322 69.438674 
L 216.882932 72.086878 
L 219.299542 71.223658 
L 221.716153 70.611773 
L 224.132763 69.936682 
L 226.549373 67.675817 
L 228.965983 66.539061 
L 231.382593 64.725608 
L 233.799203 61.097136 
L 236.215814 57.454448 
L 238.632424 59.452895 
L 241.049034 67.522464 
L 243.465644 72.766745 
L 245.882254 72.444218 
L 248.298864 64.984891 
L 250.715475 52.365124 
L 253.132085 42.148531 
L 255.548695 36.156399 
L 257.965305 37.500276 
L 260.381915 49.569873 
L 262.798525 63.897163 
L 265.215136 70.45842 
L 267.631746 70.338274 
L 270.048356 68.262367 
L 272.464966 65.139849 
L 274.881576 61.033929 
L 277.298186 61.130344 
L 279.714797 64.965937 
L 282.131407 66.488465 
L 284.548017 66.120081 
L 286.964627 65.448161 
L 289.381237 63.696386 
L 291.797847 63.10506 
L 294.214458 63.973056 
L 296.631068 65.525621 
L 299.047678 68.788881 
L 301.464288 70.871094 
L 303.880898 70.28294 
L 306.297508 70.641847 
L 308.714119 70.455285 
L 311.130729 68.877385 
L 313.547339 70.369877 
L 315.963949 70.205479 
L 318.380559 67.06397 
L 320.797169 65.467115 
L 323.21378 64.750906 
L 325.63039 65.438646 
L 328.047 65.648938 
" clip-path="url(#p75d6987c7a)" style="fill: none; stroke: #35db09; stroke-width: 2; stroke-linecap: square"/>
   </g>
   <g id="patch_6">
    <path d="M 178.338 120.52 
L 178.338 7.2 
" style="fill: none; stroke: #000000; stroke-width: 0.8; stroke-linejoin: miter; stroke-linecap: square"/>
   </g>
   <g id="patch_7">
    <path d="M 178.338 120.52 
L 335.176 120.52 
" style="fill: none; stroke: #000000; stroke-width: 0.8; stroke-linejoin: miter; stroke-linecap: square"/>
   </g>
  </g>
  <g id="axes_3">
   <g id="patch_8">
    <path d="M 349.476 120.52 
L 506.314 120.52 
L 506.314 7.2 
L 349.476 7.2 
z
" style="fill: #ffffff"/>
   </g>
   <g id="PolyCollection_5"/>
   <g id="PolyCollection_6"/>
   <g id="matplotlib.axis_5"/>
   <g id="matplotlib.axis_6">
    <g id="ytick_7">
     <g id="line2d_11">
      <g>
       <use xlink:href="#me523a29cd1" x="349.476" y="111.076667" style="stroke: #000000; stroke-width: 0.8"/>
      </g>
     </g>
    </g>
    <g id="ytick_8">
     <g id="line2d_12">
      <g>
       <use xlink:href="#me523a29cd1" x="349.476" y="63.86" style="stroke: #000000; stroke-width: 0.8"/>
      </g>
     </g>
    </g>
    <g id="ytick_9">
     <g id="line2d_13">
      <g>
       <use xlink:href="#me523a29cd1" x="349.476" y="16.643333" style="stroke: #000000; stroke-width: 0.8"/>
      </g>
     </g>
    </g>
   </g>
   <g id="line2d_14">
    <path d="M 356.605 75.564176 
L 359.02161 76.750676 
L 361.43822 78.8162 
L 363.854831 80.353457 
L 366.271441 80.128272 
L 368.688051 81.119914 
L 371.104661 81.613563 
L 373.521271 82.384337 
L 375.937881 85.043124 
L 378.354492 83.748374 
L 380.771102 80.955355 
L 383.187712 82.306388 
L 385.604322 85.61904 
L 388.020932 83.059866 
L 390.437542 80.050323 
L 392.854153 80.751836 
L 395.270763 81.669846 
L 397.687373 78.92445 
L 400.103983 74.109211 
L 402.520593 75.546854 
L 404.937203 79.054364 
L 407.353814 79.651945 
L 409.770424 77.703331 
L 412.187034 78.106053 
L 414.603644 79.452743 
L 417.020254 81.206498 
L 419.436864 80.808119 
L 421.853475 78.759917 
L 424.270085 73.485648 
L 426.686695 69.900189 
L 429.103305 69.765957 
L 431.519915 72.394418 
L 433.936525 71.398459 
L 436.353136 66.972938 
L 438.769746 66.358035 
L 441.186356 68.098812 
L 443.602966 71.983035 
L 446.019576 78.898467 
L 448.436186 75.624803 
L 450.852797 73.923014 
L 453.269407 79.504708 
L 455.686017 82.306388 
L 458.102627 79.283867 
L 460.519237 74.568217 
L 462.935847 72.494006 
L 465.352458 71.047703 
L 467.769068 71.350836 
L 470.185678 73.797417 
L 472.602288 75.702751 
L 475.018898 80.73017 
L 477.435508 81.0203 
L 479.852119 76.534152 
L 482.268729 78.166654 
L 484.685339 78.396157 
L 487.101949 79.52203 
L 489.518559 82.856347 
L 491.935169 82.579196 
L 494.35178 80.505011 
L 496.76839 80.461706 
L 499.185 80.673887 
" clip-path="url(#pf680db7d8a)" style="fill: none; stroke: #808080; stroke-width: 2; stroke-linecap: square"/>
   </g>
   <g id="line2d_15">
    <path d="M 356.605 62.943796 
L 359.02161 63.677356 
L 361.43822 66.649654 
L 363.854831 69.976046 
L 366.271441 66.301904 
L 368.688051 62.633731 
L 371.104661 61.868829 
L 373.521271 66.655997 
L 375.937881 73.340496 
L 378.354492 72.796856 
L 380.771102 65.536628 
L 383.187712 61.755026 
L 385.604322 68.028344 
L 388.020932 71.228247 
L 390.437542 66.902632 
L 392.854153 64.448975 
L 395.270763 65.726548 
L 397.687373 67.30747 
L 400.103983 69.723069 
L 402.520593 67.313813 
L 404.937203 61.318473 
L 407.353814 61.824427 
L 409.770424 65.834007 
L 412.187034 68.104461 
L 414.603644 70.311484 
L 417.020254 69.615609 
L 419.436864 64.328829 
L 421.853475 51.554216 
L 424.270085 37.425913 
L 426.686695 25.505005 
L 429.103305 21.830863 
L 431.519915 32.632401 
L 433.936525 41.682127 
L 436.353136 53.501918 
L 438.769746 66.57391 
L 441.186356 74.567698 
L 443.602966 75.794527 
L 446.019576 73.441986 
L 448.436186 67.933571 
L 450.852797 67.76268 
L 453.269407 70.311484 
L 455.686017 69.451435 
L 458.102627 65.998181 
L 460.519237 63.614298 
L 462.935847 67.990285 
L 465.352458 67.168295 
L 467.769068 61.520705 
L 470.185678 68.698846 
L 472.602288 70.102535 
L 475.018898 68.546985 
L 477.435508 65.726548 
L 479.852119 66.40302 
L 482.268729 71.810319 
L 484.685339 71.114444 
L 487.101949 68.6037 
L 489.518559 67.123894 
L 491.935169 66.845917 
L 494.35178 67.225383 
L 496.76839 70.102535 
L 499.185 72.644995 
" clip-path="url(#pf680db7d8a)" style="fill: none; stroke: #35db09; stroke-width: 2; stroke-linecap: square"/>
   </g>
   <g id="patch_9">
    <path d="M 349.476 120.52 
L 349.476 7.2 
" style="fill: none; stroke: #000000; stroke-width: 0.8; stroke-linejoin: miter; stroke-linecap: square"/>
   </g>
   <g id="patch_10">
    <path d="M 349.476 120.52 
L 506.314 120.52 
" style="fill: none; stroke: #000000; stroke-width: 0.8; stroke-linejoin: miter; stroke-linecap: square"/>
   </g>
  </g>
  <g id="axes_4">
   <g id="patch_11">
    <path d="M 520.614 120.52 
L 677.452 120.52 
L 677.452 7.2 
L 520.614 7.2 
z
" style="fill: #ffffff"/>
   </g>
   <g id="PolyCollection_7"/>
   <g id="PolyCollection_8"/>
   <g id="matplotlib.axis_7"/>
   <g id="matplotlib.axis_8">
    <g id="ytick_10">
     <g id="line2d_16">
      <g>
       <use xlink:href="#me523a29cd1" x="520.614" y="111.076667" style="stroke: #000000; stroke-width: 0.8"/>
      </g>
     </g>
    </g>
    <g id="ytick_11">
     <g id="line2d_17">
      <g>
       <use xlink:href="#me523a29cd1" x="520.614" y="63.86" style="stroke: #000000; stroke-width: 0.8"/>
      </g>
     </g>
    </g>
    <g id="ytick_12">
     <g id="line2d_18">
      <g>
       <use xlink:href="#me523a29cd1" x="520.614" y="16.643333" style="stroke: #000000; stroke-width: 0.8"/>
      </g>
     </g>
    </g>
   </g>
   <g id="line2d_19">
    <path d="M 527.743 81.7597 
L 530.15961 79.881371 
L 532.57622 78.96009 
L 534.992831 79.433249 
L 537.409441 79.779687 
L 539.826051 80.174924 
L 542.242661 80.881852 
L 544.659271 82.326878 
L 547.075881 83.864135 
L 549.492492 82.091065 
L 551.909102 77.565905 
L 554.325712 75.131128 
L 556.742322 74.276018 
L 559.158932 73.010343 
L 561.575542 73.486823 
L 563.992153 74.795675 
L 566.408763 73.629639 
L 568.825373 69.711769 
L 571.241983 64.806702 
L 573.658593 58.562379 
L 576.075203 52.507628 
L 578.491814 48.269378 
L 580.908424 47.618912 
L 583.325034 52.021694 
L 585.741644 53.873964 
L 588.158254 47.902501 
L 590.574864 40.158734 
L 592.991475 37.040022 
L 595.408085 37.350692 
L 597.824695 39.091571 
L 600.241305 40.533531 
L 602.657915 37.516247 
L 605.074525 29.107962 
L 607.491136 22.908094 
L 609.907746 24.196508 
L 612.324356 30.618137 
L 614.740966 39.564474 
L 617.157576 49.472204 
L 619.574186 57.966076 
L 621.990797 60.64101 
L 624.407407 61.502763 
L 626.824017 66.268079 
L 629.240627 70.45983 
L 631.657237 70.420997 
L 634.073847 71.689738 
L 636.490458 76.879416 
L 638.907068 79.732167 
L 641.323678 80.187698 
L 643.740288 79.768957 
L 646.156898 78.832347 
L 648.573508 78.946038 
L 650.990119 78.805266 
L 653.406729 77.34721 
L 655.823339 75.791558 
L 658.239949 75.911636 
L 660.656559 77.307098 
L 663.073169 78.309624 
L 665.48978 80.059955 
L 667.90639 82.052998 
L 670.323 81.440344 
" clip-path="url(#p6228c9f853)" style="fill: none; stroke: #808080; stroke-width: 2; stroke-linecap: square"/>
   </g>
   <g id="line2d_20">
    <path d="M 527.743 75.536699 
L 530.15961 74.659113 
L 532.57622 72.232321 
L 534.992831 70.562595 
L 537.409441 71.505104 
L 539.826051 74.243454 
L 542.242661 75.405359 
L 544.659271 73.310647 
L 547.075881 69.405541 
L 549.492492 65.667968 
L 551.909102 64.920229 
L 554.325712 68.426839 
L 556.742322 71.823005 
L 559.158932 73.577803 
L 561.575542 72.605444 
L 563.992153 69.938361 
L 566.408763 69.915973 
L 568.825373 72.225978 
L 571.241983 73.609518 
L 573.658593 72.537536 
L 576.075203 70.254396 
L 578.491814 65.856022 
L 580.908424 59.248759 
L 583.325034 53.320207 
L 585.741644 49.100186 
L 588.158254 42.932835 
L 590.574864 35.590521 
L 592.991475 33.596551 
L 595.408085 35.030836 
L 597.824695 36.972195 
L 600.241305 38.110593 
L 602.657915 33.911467 
L 605.074525 30.02054 
L 607.491136 38.132608 
L 609.907746 48.434534 
L 612.324356 49.351671 
L 614.740966 49.40055 
L 617.157576 57.240984 
L 619.574186 67.076507 
L 621.990797 68.967495 
L 624.407407 68.126475 
L 626.824017 71.152503 
L 629.240627 73.09722 
L 631.657237 71.531969 
L 634.073847 70.426779 
L 636.490458 70.787216 
L 638.907068 70.033134 
L 641.323678 70.205517 
L 643.740288 71.503612 
L 646.156898 70.836468 
L 648.573508 69.359647 
L 650.990119 67.30262 
L 653.406729 63.636313 
L 655.823339 61.71846 
L 658.239949 64.738145 
L 660.656559 68.233935 
L 663.073169 69.381661 
L 665.48978 69.698069 
L 667.90639 69.035403 
L 670.323 67.234711 
" clip-path="url(#p6228c9f853)" style="fill: none; stroke: #35db09; stroke-width: 2; stroke-linecap: square"/>
   </g>
   <g id="patch_12">
    <path d="M 520.614 120.52 
L 520.614 7.2 
" style="fill: none; stroke: #000000; stroke-width: 0.8; stroke-linejoin: miter; stroke-linecap: square"/>
   </g>
   <g id="patch_13">
    <path d="M 520.614 120.52 
L 677.452 120.52 
" style="fill: none; stroke: #000000; stroke-width: 0.8; stroke-linejoin: miter; stroke-linecap: square"/>
   </g>
  </g>
  <g id="axes_5">
   <g id="patch_14">
    <path d="M 691.752 120.52 
L 848.59 120.52 
L 848.59 7.2 
L 691.752 7.2 
z
" style="fill: #ffffff"/>
   </g>
   <g id="PolyCollection_9"/>
   <g id="PolyCollection_10"/>
   <g id="matplotlib.axis_9"/>
   <g id="matplotlib.axis_10">
    <g id="ytick_13">
     <g id="line2d_21">
      <g>
       <use xlink:href="#me523a29cd1" x="691.752" y="111.076667" style="stroke: #000000; stroke-width: 0.8"/>
      </g>
     </g>
    </g>
    <g id="ytick_14">
     <g id="line2d_22">
      <g>
       <use xlink:href="#me523a29cd1" x="691.752" y="63.86" style="stroke: #000000; stroke-width: 0.8"/>
      </g>
     </g>
    </g>
    <g id="ytick_15">
     <g id="line2d_23">
      <g>
       <use xlink:href="#me523a29cd1" x="691.752" y="16.643333" style="stroke: #000000; stroke-width: 0.8"/>
      </g>
     </g>
    </g>
   </g>
   <g id="line2d_24">
    <path d="M 698.881 73.392549 
L 701.29761 74.569315 
L 703.71422 75.138793 
L 706.130831 74.920097 
L 708.547441 74.777025 
L 710.964051 73.38284 
L 713.380661 70.863753 
L 715.797271 68.057755 
L 718.213881 67.377908 
L 720.630492 68.759063 
L 723.047102 68.867389 
L 725.463712 67.974211 
L 727.880322 67.937422 
L 730.296932 68.212579 
L 732.713542 68.803518 
L 735.130153 70.040834 
L 737.546763 70.307305 
L 739.963373 71.271763 
L 742.379983 71.719885 
L 744.796593 67.362579 
L 747.213203 57.19732 
L 749.629814 42.526318 
L 752.046424 30.517476 
L 754.463034 26.895202 
L 756.879644 29.385164 
L 759.296254 30.390755 
L 761.712864 30.560908 
L 764.129475 32.993386 
L 766.546085 36.277908 
L 768.962695 38.559905 
L 771.379305 34.423339 
L 773.795915 24.493127 
L 776.212525 17.986932 
L 778.629136 17.865576 
L 781.045746 16.835969 
L 783.462356 16.643333 
L 785.878966 24.974717 
L 788.295576 39.768096 
L 790.712186 54.905615 
L 793.128797 64.949518 
L 795.545407 66.553967 
L 797.962017 61.37502 
L 800.378627 59.076672 
L 802.795237 63.728553 
L 805.211847 69.752902 
L 807.628458 73.857022 
L 810.045068 75.793602 
L 812.461678 77.817048 
L 814.878288 80.187698 
L 817.294898 79.862976 
L 819.711508 77.762885 
L 822.128119 77.401373 
L 824.544729 78.916913 
L 826.961339 80.213757 
L 829.377949 78.258782 
L 831.794559 73.392549 
L 834.211169 68.877097 
L 836.62778 68.888083 
L 839.04439 72.697628 
L 841.461 77.097089 
" clip-path="url(#p89e80ea9e0)" style="fill: none; stroke: #808080; stroke-width: 2; stroke-linecap: square"/>
   </g>
   <g id="line2d_25">
    <path d="M 698.881 72.085311 
L 701.29761 68.012673 
L 703.71422 65.419841 
L 706.130831 67.421273 
L 708.547441 70.728635 
L 710.964051 70.282753 
L 713.380661 68.841006 
L 715.797271 68.558179 
L 718.213881 65.75789 
L 720.630492 61.240863 
L 723.047102 60.768116 
L 725.463712 65.335888 
L 727.880322 69.190622 
L 730.296932 69.675682 
L 732.713542 70.132758 
L 735.130153 71.528611 
L 737.546763 71.723381 
L 739.963373 69.908138 
L 742.379983 70.037984 
L 744.796593 72.167398 
L 747.213203 71.917778 
L 749.629814 68.671981 
L 752.046424 62.244937 
L 754.463034 49.965085 
L 756.879644 36.409526 
L 759.296254 26.618031 
L 761.712864 19.730926 
L 764.129475 16.643333 
L 766.546085 19.693241 
L 768.962695 26.630717 
L 771.379305 33.629759 
L 773.795915 40.039266 
L 776.212525 41.302661 
L 778.629136 42.837689 
L 781.045746 49.196825 
L 783.462356 53.667958 
L 785.878966 59.813294 
L 788.295576 68.282814 
L 790.712186 72.485298 
L 793.128797 73.608026 
L 795.545407 73.191993 
L 797.962017 69.473449 
L 800.378627 65.147834 
L 802.795237 64.554942 
L 805.211847 69.035403 
L 807.628458 73.233037 
L 810.045068 72.95021 
L 812.461678 70.939077 
L 814.878288 70.826767 
L 817.294898 71.958822 
L 819.711508 71.362944 
L 822.128119 70.695427 
L 824.544729 70.788708 
L 826.961339 71.114444 
L 829.377949 71.17004 
L 831.794559 71.016686 
L 834.211169 68.540642 
L 836.62778 65.568344 
L 839.04439 66.475779 
L 841.461 70.872661 
" clip-path="url(#p89e80ea9e0)" style="fill: none; stroke: #35db09; stroke-width: 2; stroke-linecap: square"/>
   </g>
   <g id="patch_15">
    <path d="M 691.752 120.52 
L 691.752 7.2 
" style="fill: none; stroke: #000000; stroke-width: 0.8; stroke-linejoin: miter; stroke-linecap: square"/>
   </g>
   <g id="patch_16">
    <path d="M 691.752 120.52 
L 848.59 120.52 
" style="fill: none; stroke: #000000; stroke-width: 0.8; stroke-linejoin: miter; stroke-linecap: square"/>
   </g>
  </g>
 </g>
 <defs>
  <clipPath id="p597cc6bd03">
   <rect x="7.2" y="7.2" width="156.838" height="113.32"/>
  </clipPath>
  <clipPath id="p75d6987c7a">
   <rect x="178.338" y="7.2" width="156.838" height="113.32"/>
  </clipPath>
  <clipPath id="pf680db7d8a">
   <rect x="349.476" y="7.2" width="156.838" height="113.32"/>
  </clipPath>
  <clipPath id="p6228c9f853">
   <rect x="520.614" y="7.2" width="156.838" height="113.32"/>
  </clipPath>
  <clipPath id="p89e80ea9e0">
   <rect x="691.752" y="7.2" width="156.838" height="113.32"/>
  </clipPath>
 </defs>
</svg>
