<?xml version="1.0" encoding="utf-8" standalone="no"?>
<!DOCTYPE svg PUBLIC "-//W3C//DTD SVG 1.1//EN"
  "http://www.w3.org/Graphics/SVG/1.1/DTD/svg11.dtd">
<svg xmlns:xlink="http://www.w3.org/1999/xlink" width="855.79pt" height="127.72pt" viewBox="0 0 855.79 127.72" xmlns="http://www.w3.org/2000/svg" version="1.1">
 <metadata>
  <rdf:RDF xmlns:dc="http://purl.org/dc/elements/1.1/" xmlns:cc="http://creativecommons.org/ns#" xmlns:rdf="http://www.w3.org/1999/02/22-rdf-syntax-ns#">
   <cc:Work>
    <dc:type rdf:resource="http://purl.org/dc/dcmitype/StillImage"/>
    <dc:date>2024-12-11T14:25:28.145661</dc:date>
    <dc:format>image/svg+xml</dc:format>
    <dc:creator>
     <cc:Agent>
      <dc:title>Matplotlib v3.7.2, https://matplotlib.org/</dc:title>
     </cc:Agent>
    </dc:creator>
   </cc:Work>
  </rdf:RDF>
 </metadata>
 <defs>
  <style type="text/css">*{stroke-linejoin: round; stroke-linecap: butt}</style>
 </defs>
 <g id="figure_1">
  <g id="patch_1">
   <path d="M 0 127.72 
L 855.79 127.72 
L 855.79 0 
L 0 0 
z
" style="fill: #ffffff"/>
  </g>
  <g id="axes_1">
   <g id="patch_2">
    <path d="M 7.2 120.52 
L 164.038 120.52 
L 164.038 7.2 
L 7.2 7.2 
z
" style="fill: #ffffff"/>
   </g>
   <g id="PolyCollection_1"/>
   <g id="PolyCollection_2"/>
   <g id="matplotlib.axis_1"/>
   <g id="matplotlib.axis_2">
    <g id="ytick_1">
     <g id="line2d_1">
      <defs>
       <path id="m7f0196c602" d="M 0 0 
L 3.5 0 
" style="stroke: #000000; stroke-width: 0.8"/>
      </defs>
      <g>
       <use xlink:href="#m7f0196c602" x="7.2" y="111.076667" style="stroke: #000000; stroke-width: 0.8"/>
      </g>
     </g>
     <g id="text_1">
      <!-- 0.0 -->
      <g transform="translate(13.345313 116.775495) scale(0.15 -0.15)">
       <defs>
        <path id="DejaVuSans-30" d="M 2034 4250 
Q 1547 4250 1301 3770 
Q 1056 3291 1056 2328 
Q 1056 1369 1301 889 
Q 1547 409 2034 409 
Q 2525 409 2770 889 
Q 3016 1369 3016 2328 
Q 3016 3291 2770 3770 
Q 2525 4250 2034 4250 
z
M 2034 4750 
Q 2819 4750 3233 4129 
Q 3647 3509 3647 2328 
Q 3647 1150 3233 529 
Q 2819 -91 2034 -91 
Q 1250 -91 836 529 
Q 422 1150 422 2328 
Q 422 3509 836 4129 
Q 1250 4750 2034 4750 
z
" transform="scale(0.015625)"/>
        <path id="DejaVuSans-2e" d="M 684 794 
L 1344 794 
L 1344 0 
L 684 0 
L 684 794 
z
" transform="scale(0.015625)"/>
       </defs>
       <use xlink:href="#DejaVuSans-30"/>
       <use xlink:href="#DejaVuSans-2e" x="63.623047"/>
       <use xlink:href="#DejaVuSans-30" x="95.410156"/>
      </g>
     </g>
    </g>
    <g id="ytick_2">
     <g id="line2d_2">
      <g>
       <use xlink:href="#m7f0196c602" x="7.2" y="63.86" style="stroke: #000000; stroke-width: 0.8"/>
      </g>
     </g>
     <g id="text_2">
      <!-- 0.5 -->
      <g transform="translate(13.345313 69.558828) scale(0.15 -0.15)">
       <defs>
        <path id="DejaVuSans-35" d="M 691 4666 
L 3169 4666 
L 3169 4134 
L 1269 4134 
L 1269 2991 
Q 1406 3038 1543 3061 
Q 1681 3084 1819 3084 
Q 2600 3084 3056 2656 
Q 3513 2228 3513 1497 
Q 3513 744 3044 326 
Q 2575 -91 1722 -91 
Q 1428 -91 1123 -41 
Q 819 9 494 109 
L 494 744 
Q 775 591 1075 516 
Q 1375 441 1709 441 
Q 2250 441 2565 725 
Q 2881 1009 2881 1497 
Q 2881 1984 2565 2268 
Q 2250 2553 1709 2553 
Q 1456 2553 1204 2497 
Q 953 2441 691 2322 
L 691 4666 
z
" transform="scale(0.015625)"/>
       </defs>
       <use xlink:href="#DejaVuSans-30"/>
       <use xlink:href="#DejaVuSans-2e" x="63.623047"/>
       <use xlink:href="#DejaVuSans-35" x="95.410156"/>
      </g>
     </g>
    </g>
    <g id="ytick_3">
     <g id="line2d_3">
      <g>
       <use xlink:href="#m7f0196c602" x="7.2" y="16.643333" style="stroke: #000000; stroke-width: 0.8"/>
      </g>
     </g>
     <g id="text_3">
      <!-- 1.0 -->
      <g transform="translate(13.345313 22.342161) scale(0.15 -0.15)">
       <defs>
        <path id="DejaVuSans-31" d="M 794 531 
L 1825 531 
L 1825 4091 
L 703 3866 
L 703 4441 
L 1819 4666 
L 2450 4666 
L 2450 531 
L 3481 531 
L 3481 0 
L 794 0 
L 794 531 
z
" transform="scale(0.015625)"/>
       </defs>
       <use xlink:href="#DejaVuSans-31"/>
       <use xlink:href="#DejaVuSans-2e" x="63.623047"/>
       <use xlink:href="#DejaVuSans-30" x="95.410156"/>
      </g>
     </g>
    </g>
   </g>
   <g id="line2d_4">
    <path d="M 14.329 70.426167 
L 18.646124 68.482026 
L 22.963248 66.85043 
L 27.280372 66.822853 
L 31.597497 67.096669 
L 35.914856 68.305409 
L 40.23198 66.696418 
L 44.549104 69.140571 
L 48.866229 69.05166 
L 53.183353 68.372921 
L 57.500477 66.704857 
L 61.817601 68.124874 
L 66.134725 64.361067 
L 70.451849 59.721862 
L 74.768973 61.84262 
L 79.086333 60.7032 
L 83.403457 54.212834 
L 87.720581 52.511013 
L 92.037705 56.191786 
L 96.354829 59.306089 
L 100.671954 61.181362 
L 104.989078 62.238049 
L 109.306202 63.529672 
L 113.623326 65.022024 
L 117.94045 65.904355 
L 122.25781 65.915054 
L 126.574934 64.399194 
L 130.892058 65.801881 
L 135.209182 65.827499 
L 139.526306 67.835235 
L 143.84343 67.318947 
L 148.160555 60.788947 
L 152.477679 60.466154 
L 156.794803 62.83948 
" clip-path="url(#p3accd8fcd3)" style="fill: none; stroke: #808080; stroke-width: 2; stroke-linecap: square"/>
   </g>
   <g id="line2d_5">
    <path d="M 14.329 48.232435 
L 18.646124 48.303649 
L 22.963248 49.855978 
L 27.280372 48.799252 
L 31.597497 48.384758 
L 35.914856 47.394817 
L 40.23198 45.379328 
L 44.549104 47.757753 
L 48.866229 43.956411 
L 53.183353 43.783709 
L 57.500477 45.331385 
L 61.817601 43.864412 
L 66.134725 47.476694 
L 70.451849 51.743862 
L 74.768973 47.60543 
L 79.086333 40.938238 
L 83.403457 38.756509 
L 87.720581 41.290963 
L 92.037705 43.176858 
L 96.354829 43.75226 
L 100.671954 45.592788 
L 104.989078 46.364208 
L 109.306202 44.537507 
L 113.623326 46.193359 
L 117.94045 48.140752 
L 122.25781 46.39873 
L 126.574934 47.650933 
L 130.892058 48.639744 
L 135.209182 49.706141 
L 139.526306 46.586841 
L 143.84343 46.598047 
L 148.160555 48.56347 
L 152.477679 46.710968 
L 156.794803 51.91087 
" clip-path="url(#p3accd8fcd3)" style="fill: none; stroke: #35db09; stroke-width: 2; stroke-linecap: square"/>
   </g>
   <g id="patch_3">
    <path d="M 7.2 120.52 
L 7.2 7.2 
" style="fill: none; stroke: #000000; stroke-width: 0.8; stroke-linejoin: miter; stroke-linecap: square"/>
   </g>
   <g id="patch_4">
    <path d="M 7.2 120.52 
L 164.038 120.52 
" style="fill: none; stroke: #000000; stroke-width: 0.8; stroke-linejoin: miter; stroke-linecap: square"/>
   </g>
  </g>
  <g id="axes_2">
   <g id="patch_5">
    <path d="M 178.338 120.52 
L 335.176 120.52 
L 335.176 7.2 
L 178.338 7.2 
z
" style="fill: #ffffff"/>
   </g>
   <g id="PolyCollection_3"/>
   <g id="PolyCollection_4"/>
   <g id="matplotlib.axis_3"/>
   <g id="matplotlib.axis_4">
    <g id="ytick_4">
     <g id="line2d_6">
      <g>
       <use xlink:href="#m7f0196c602" x="178.338" y="111.076667" style="stroke: #000000; stroke-width: 0.8"/>
      </g>
     </g>
    </g>
    <g id="ytick_5">
     <g id="line2d_7">
      <g>
       <use xlink:href="#m7f0196c602" x="178.338" y="63.86" style="stroke: #000000; stroke-width: 0.8"/>
      </g>
     </g>
    </g>
    <g id="ytick_6">
     <g id="line2d_8">
      <g>
       <use xlink:href="#m7f0196c602" x="178.338" y="16.643333" style="stroke: #000000; stroke-width: 0.8"/>
      </g>
     </g>
    </g>
   </g>
   <g id="line2d_9">
    <path d="M 185.467 68.535388 
L 189.784124 68.780783 
L 194.101248 65.548213 
L 198.418372 69.562809 
L 202.735497 70.029216 
L 207.052856 67.571711 
L 211.36998 66.964809 
L 215.687104 66.057824 
L 220.004229 61.040114 
L 224.321353 63.797099 
L 228.638477 61.624004 
L 232.955601 64.330792 
L 237.272725 67.644543 
L 241.589849 65.755752 
L 245.906973 63.520857 
L 250.224333 62.050883 
L 254.541457 61.527272 
L 258.858581 60.667757 
L 263.175705 59.546918 
L 267.492829 57.228777 
L 271.809954 57.621855 
L 276.127078 64.635351 
L 280.444202 66.070604 
L 284.761326 66.996877 
L 289.07845 65.139025 
L 293.39581 65.019914 
L 297.712934 69.499034 
L 302.030058 66.21152 
L 306.347182 66.50776 
L 310.664306 69.001403 
L 314.98143 69.163176 
L 319.298555 66.531525 
L 323.615679 64.56716 
L 327.932803 64.767964 
" clip-path="url(#pde29f5234a)" style="fill: none; stroke: #808080; stroke-width: 2; stroke-linecap: square"/>
   </g>
   <g id="line2d_10">
    <path d="M 185.467 50.039887 
L 189.784124 47.2476 
L 194.101248 45.580542 
L 198.418372 43.342782 
L 202.735497 42.940533 
L 207.052856 48.478881 
L 211.36998 45.936836 
L 215.687104 46.015279 
L 220.004229 49.98616 
L 224.321353 48.794281 
L 228.638477 52.288447 
L 232.955601 50.803173 
L 237.272725 49.60411 
L 241.589849 48.747152 
L 245.906973 48.054537 
L 250.224333 49.325085 
L 254.541457 51.304063 
L 258.858581 51.558553 
L 263.175705 51.089609 
L 267.492829 50.036317 
L 271.809954 49.674601 
L 276.127078 48.973174 
L 280.444202 52.229388 
L 284.761326 51.587562 
L 289.07845 50.936518 
L 293.39581 52.342806 
L 297.712934 49.812961 
L 302.030058 49.846896 
L 306.347182 53.320637 
L 310.664306 55.900277 
L 314.98143 53.308527 
L 319.298555 53.260359 
L 323.615679 55.585555 
L 327.932803 57.241451 
" clip-path="url(#pde29f5234a)" style="fill: none; stroke: #35db09; stroke-width: 2; stroke-linecap: square"/>
   </g>
   <g id="patch_6">
    <path d="M 178.338 120.52 
L 178.338 7.2 
" style="fill: none; stroke: #000000; stroke-width: 0.8; stroke-linejoin: miter; stroke-linecap: square"/>
   </g>
   <g id="patch_7">
    <path d="M 178.338 120.52 
L 335.176 120.52 
" style="fill: none; stroke: #000000; stroke-width: 0.8; stroke-linejoin: miter; stroke-linecap: square"/>
   </g>
  </g>
  <g id="axes_3">
   <g id="patch_8">
    <path d="M 349.476 120.52 
L 506.314 120.52 
L 506.314 7.2 
L 349.476 7.2 
z
" style="fill: #ffffff"/>
   </g>
   <g id="PolyCollection_5"/>
   <g id="PolyCollection_6"/>
   <g id="matplotlib.axis_5"/>
   <g id="matplotlib.axis_6">
    <g id="ytick_7">
     <g id="line2d_11">
      <g>
       <use xlink:href="#m7f0196c602" x="349.476" y="111.076667" style="stroke: #000000; stroke-width: 0.8"/>
      </g>
     </g>
    </g>
    <g id="ytick_8">
     <g id="line2d_12">
      <g>
       <use xlink:href="#m7f0196c602" x="349.476" y="63.86" style="stroke: #000000; stroke-width: 0.8"/>
      </g>
     </g>
    </g>
    <g id="ytick_9">
     <g id="line2d_13">
      <g>
       <use xlink:href="#m7f0196c602" x="349.476" y="16.643333" style="stroke: #000000; stroke-width: 0.8"/>
      </g>
     </g>
    </g>
   </g>
   <g id="line2d_14">
    <path d="M 356.605 63.336328 
L 360.925656 65.457237 
L 365.246312 64.804719 
L 369.566733 59.968854 
L 373.887389 62.271805 
L 378.208045 59.096922 
L 382.528701 64.032397 
L 386.849357 62.266983 
L 391.169777 63.774555 
L 395.490433 58.916236 
L 399.811089 60.353584 
L 404.131745 57.776967 
L 408.452166 57.930829 
L 412.772822 55.334321 
L 417.093478 56.67688 
L 421.414134 48.32631 
L 425.73479 51.507824 
L 430.05521 50.89931 
L 434.375866 58.184301 
L 438.696522 59.120732 
L 443.017178 58.645886 
L 447.337834 62.735952 
L 451.658255 67.290616 
L 455.978911 68.148383 
L 460.299567 68.141149 
L 464.620223 65.646211 
L 468.940643 69.919373 
L 473.261299 70.131253 
L 477.581955 69.841915 
L 481.902611 66.372269 
L 486.223267 65.708449 
L 490.543688 65.63521 
L 494.864344 69.067031 
L 499.185 68.711989 
" clip-path="url(#p722a63cc1b)" style="fill: none; stroke: #808080; stroke-width: 2; stroke-linecap: square"/>
   </g>
   <g id="line2d_15">
    <path d="M 356.605 46.636772 
L 360.925656 48.814977 
L 365.246312 47.888477 
L 369.566733 47.099796 
L 373.887389 49.015875 
L 378.208045 48.659129 
L 382.528701 44.714276 
L 386.849357 42.66675 
L 391.169777 47.575923 
L 395.490433 49.698369 
L 399.811089 46.406819 
L 404.131745 50.416424 
L 408.452166 44.860182 
L 412.772822 48.911992 
L 417.093478 48.920984 
L 421.414134 45.272733 
L 425.73479 47.955127 
L 430.05521 43.001715 
L 434.375866 40.768564 
L 438.696522 39.46146 
L 443.017178 30.320319 
L 447.337834 45.039843 
L 451.658255 45.464775 
L 455.978911 46.058523 
L 460.299567 51.098647 
L 464.620223 45.519495 
L 468.940643 47.581391 
L 473.261299 50.668292 
L 477.581955 49.211577 
L 481.902611 49.982771 
L 486.223267 53.513854 
L 490.543688 51.545449 
L 494.864344 51.409122 
L 499.185 49.708039 
" clip-path="url(#p722a63cc1b)" style="fill: none; stroke: #35db09; stroke-width: 2; stroke-linecap: square"/>
   </g>
   <g id="patch_9">
    <path d="M 349.476 120.52 
L 349.476 7.2 
" style="fill: none; stroke: #000000; stroke-width: 0.8; stroke-linejoin: miter; stroke-linecap: square"/>
   </g>
   <g id="patch_10">
    <path d="M 349.476 120.52 
L 506.314 120.52 
" style="fill: none; stroke: #000000; stroke-width: 0.8; stroke-linejoin: miter; stroke-linecap: square"/>
   </g>
  </g>
  <g id="axes_4">
   <g id="patch_11">
    <path d="M 520.614 120.52 
L 677.452 120.52 
L 677.452 7.2 
L 520.614 7.2 
z
" style="fill: #ffffff"/>
   </g>
   <g id="PolyCollection_7"/>
   <g id="PolyCollection_8"/>
   <g id="matplotlib.axis_7"/>
   <g id="matplotlib.axis_8">
    <g id="ytick_10">
     <g id="line2d_16">
      <g>
       <use xlink:href="#m7f0196c602" x="520.614" y="111.076667" style="stroke: #000000; stroke-width: 0.8"/>
      </g>
     </g>
    </g>
    <g id="ytick_11">
     <g id="line2d_17">
      <g>
       <use xlink:href="#m7f0196c602" x="520.614" y="63.86" style="stroke: #000000; stroke-width: 0.8"/>
      </g>
     </g>
    </g>
    <g id="ytick_12">
     <g id="line2d_18">
      <g>
       <use xlink:href="#m7f0196c602" x="520.614" y="16.643333" style="stroke: #000000; stroke-width: 0.8"/>
      </g>
     </g>
    </g>
   </g>
   <g id="line2d_19">
    <path d="M 527.743 63.369331 
L 532.063656 60.378449 
L 536.384312 57.94183 
L 540.704733 58.496696 
L 545.025389 58.535124 
L 549.346045 56.434258 
L 553.666701 55.184076 
L 557.987357 51.804697 
L 562.307777 42.7995 
L 566.628433 39.246518 
L 570.949089 34.651316 
L 575.269745 28.217612 
L 579.590166 25.891906 
L 583.910822 18.665686 
L 588.231478 16.643333 
L 592.552134 22.110317 
L 596.87279 25.573935 
L 601.19321 24.853303 
L 605.513866 32.813567 
L 609.834522 38.943617 
L 614.155178 41.697453 
L 618.475834 49.094111 
L 622.796255 49.971469 
L 627.116911 55.466482 
L 631.437567 61.337333 
L 635.758223 64.838927 
L 640.078643 65.447291 
L 644.399299 66.901516 
L 648.719955 65.332008 
L 653.040611 66.007431 
L 657.361267 66.704857 
L 661.681688 70.087852 
L 666.002344 72.933312 
L 670.323 76.710682 
" clip-path="url(#p09f372eed2)" style="fill: none; stroke: #808080; stroke-width: 2; stroke-linecap: square"/>
   </g>
   <g id="line2d_20">
    <path d="M 527.743 56.923701 
L 532.063656 56.385668 
L 536.384312 55.843523 
L 540.704733 53.35412 
L 545.025389 51.509254 
L 549.346045 54.157487 
L 553.666701 57.249675 
L 557.987357 55.661287 
L 562.307777 51.723799 
L 566.628433 48.642094 
L 570.949089 47.145524 
L 575.269745 43.516116 
L 579.590166 36.791041 
L 583.910822 31.731397 
L 588.231478 27.350767 
L 592.552134 26.353008 
L 596.87279 16.643333 
L 601.19321 20.238535 
L 605.513866 22.171831 
L 609.834522 21.854849 
L 614.155178 31.287622 
L 618.475834 38.566636 
L 622.796255 45.890746 
L 627.116911 46.267871 
L 631.437567 47.610129 
L 635.758223 53.85614 
L 640.078643 49.54347 
L 644.399299 50.251223 
L 648.719955 49.79683 
L 653.040611 52.441447 
L 657.361267 52.677636 
L 661.681688 53.613986 
L 666.002344 54.585266 
L 670.323 52.383925 
" clip-path="url(#p09f372eed2)" style="fill: none; stroke: #35db09; stroke-width: 2; stroke-linecap: square"/>
   </g>
   <g id="patch_12">
    <path d="M 520.614 120.52 
L 520.614 7.2 
" style="fill: none; stroke: #000000; stroke-width: 0.8; stroke-linejoin: miter; stroke-linecap: square"/>
   </g>
   <g id="patch_13">
    <path d="M 520.614 120.52 
L 677.452 120.52 
" style="fill: none; stroke: #000000; stroke-width: 0.8; stroke-linejoin: miter; stroke-linecap: square"/>
   </g>
  </g>
  <g id="axes_5">
   <g id="patch_14">
    <path d="M 691.752 120.52 
L 848.59 120.52 
L 848.59 7.2 
L 691.752 7.2 
z
" style="fill: #ffffff"/>
   </g>
   <g id="PolyCollection_9"/>
   <g id="PolyCollection_10"/>
   <g id="matplotlib.axis_9"/>
   <g id="matplotlib.axis_10">
    <g id="ytick_13">
     <g id="line2d_21">
      <g>
       <use xlink:href="#m7f0196c602" x="691.752" y="111.076667" style="stroke: #000000; stroke-width: 0.8"/>
      </g>
     </g>
    </g>
    <g id="ytick_14">
     <g id="line2d_22">
      <g>
       <use xlink:href="#m7f0196c602" x="691.752" y="63.86" style="stroke: #000000; stroke-width: 0.8"/>
      </g>
     </g>
    </g>
    <g id="ytick_15">
     <g id="line2d_23">
      <g>
       <use xlink:href="#m7f0196c602" x="691.752" y="16.643333" style="stroke: #000000; stroke-width: 0.8"/>
      </g>
     </g>
    </g>
   </g>
   <g id="line2d_24">
    <path d="M 698.881 59.114553 
L 703.199537 62.260352 
L 707.518074 61.877883 
L 711.836611 61.253546 
L 716.155383 58.862889 
L 720.47392 60.969783 
L 724.792457 59.370889 
L 729.110994 58.345698 
L 733.429531 57.68022 
L 737.748067 57.464723 
L 742.066604 60.612481 
L 746.385141 53.127364 
L 750.703914 47.99116 
L 755.02245 47.481654 
L 759.340987 49.855131 
L 763.659524 41.516165 
L 767.978061 43.487281 
L 772.296598 41.694138 
L 776.615135 40.433859 
L 780.933907 43.302828 
L 785.252444 47.458446 
L 789.570981 49.593671 
L 793.889518 52.744443 
L 798.208055 56.323646 
L 802.526592 60.949289 
L 806.845128 61.194171 
L 811.163901 62.964559 
L 815.482438 64.806226 
L 819.800975 66.352678 
L 824.119511 65.024285 
L 828.438048 66.35524 
L 832.756585 65.693379 
L 837.075122 67.99648 
L 841.393659 64.417127 
" clip-path="url(#p9539421ea2)" style="fill: none; stroke: #808080; stroke-width: 2; stroke-linecap: square"/>
   </g>
   <g id="line2d_25">
    <path d="M 698.881 54.113702 
L 703.199537 53.362389 
L 707.518074 53.78949 
L 711.836611 56.80084 
L 716.155383 55.978721 
L 720.47392 55.509371 
L 724.792457 55.234728 
L 729.110994 53.290182 
L 733.429531 52.782017 
L 737.748067 55.463913 
L 742.066604 55.366672 
L 746.385141 55.422206 
L 750.703914 55.450131 
L 755.02245 52.893853 
L 759.340987 47.547321 
L 763.659524 49.307778 
L 767.978061 47.517949 
L 772.296598 44.539676 
L 776.615135 33.085268 
L 780.933907 24.324279 
L 785.252444 25.009168 
L 789.570981 21.642835 
L 793.889518 29.5625 
L 798.208055 41.153235 
L 802.526592 49.321063 
L 806.845128 49.457119 
L 811.163901 54.569089 
L 815.482438 54.243703 
L 819.800975 53.387919 
L 824.119511 50.512264 
L 828.438048 50.424829 
L 832.756585 53.325834 
L 837.075122 53.270797 
L 841.393659 56.175326 
" clip-path="url(#p9539421ea2)" style="fill: none; stroke: #35db09; stroke-width: 2; stroke-linecap: square"/>
   </g>
   <g id="patch_15">
    <path d="M 691.752 120.52 
L 691.752 7.2 
" style="fill: none; stroke: #000000; stroke-width: 0.8; stroke-linejoin: miter; stroke-linecap: square"/>
   </g>
   <g id="patch_16">
    <path d="M 691.752 120.52 
L 848.59 120.52 
" style="fill: none; stroke: #000000; stroke-width: 0.8; stroke-linejoin: miter; stroke-linecap: square"/>
   </g>
  </g>
 </g>
 <defs>
  <clipPath id="p3accd8fcd3">
   <rect x="7.2" y="7.2" width="156.838" height="113.32"/>
  </clipPath>
  <clipPath id="pde29f5234a">
   <rect x="178.338" y="7.2" width="156.838" height="113.32"/>
  </clipPath>
  <clipPath id="p722a63cc1b">
   <rect x="349.476" y="7.2" width="156.838" height="113.32"/>
  </clipPath>
  <clipPath id="p09f372eed2">
   <rect x="520.614" y="7.2" width="156.838" height="113.32"/>
  </clipPath>
  <clipPath id="p9539421ea2">
   <rect x="691.752" y="7.2" width="156.838" height="113.32"/>
  </clipPath>
 </defs>
</svg>
