<?xml version="1.0" encoding="utf-8" standalone="no"?>
<!DOCTYPE svg PUBLIC "-//W3C//DTD SVG 1.1//EN"
  "http://www.w3.org/Graphics/SVG/1.1/DTD/svg11.dtd">
<svg xmlns:xlink="http://www.w3.org/1999/xlink" width="855.79pt" height="127.72pt" viewBox="0 0 855.79 127.72" xmlns="http://www.w3.org/2000/svg" version="1.1">
 <metadata>
  <rdf:RDF xmlns:dc="http://purl.org/dc/elements/1.1/" xmlns:cc="http://creativecommons.org/ns#" xmlns:rdf="http://www.w3.org/1999/02/22-rdf-syntax-ns#">
   <cc:Work>
    <dc:type rdf:resource="http://purl.org/dc/dcmitype/StillImage"/>
    <dc:date>2024-12-11T14:25:25.677266</dc:date>
    <dc:format>image/svg+xml</dc:format>
    <dc:creator>
     <cc:Agent>
      <dc:title>Matplotlib v3.7.2, https://matplotlib.org/</dc:title>
     </cc:Agent>
    </dc:creator>
   </cc:Work>
  </rdf:RDF>
 </metadata>
 <defs>
  <style type="text/css">*{stroke-linejoin: round; stroke-linecap: butt}</style>
 </defs>
 <g id="figure_1">
  <g id="patch_1">
   <path d="M 0 127.72 
L 855.79 127.72 
L 855.79 0 
L 0 0 
z
" style="fill: #ffffff"/>
  </g>
  <g id="axes_1">
   <g id="patch_2">
    <path d="M 7.2 120.52 
L 164.038 120.52 
L 164.038 7.2 
L 7.2 7.2 
z
" style="fill: #ffffff"/>
   </g>
   <g id="PolyCollection_1"/>
   <g id="PolyCollection_2"/>
   <g id="matplotlib.axis_1"/>
   <g id="matplotlib.axis_2">
    <g id="ytick_1">
     <g id="line2d_1">
      <defs>
       <path id="mbb742b05f5" d="M 0 0 
L 3.5 0 
" style="stroke: #000000; stroke-width: 0.8"/>
      </defs>
      <g>
       <use xlink:href="#mbb742b05f5" x="7.2" y="111.076667" style="stroke: #000000; stroke-width: 0.8"/>
      </g>
     </g>
     <g id="text_1">
      <!-- 0.0 -->
      <g transform="translate(13.345313 116.775495) scale(0.15 -0.15)">
       <defs>
        <path id="DejaVuSans-30" d="M 2034 4250 
Q 1547 4250 1301 3770 
Q 1056 3291 1056 2328 
Q 1056 1369 1301 889 
Q 1547 409 2034 409 
Q 2525 409 2770 889 
Q 3016 1369 3016 2328 
Q 3016 3291 2770 3770 
Q 2525 4250 2034 4250 
z
M 2034 4750 
Q 2819 4750 3233 4129 
Q 3647 3509 3647 2328 
Q 3647 1150 3233 529 
Q 2819 -91 2034 -91 
Q 1250 -91 836 529 
Q 422 1150 422 2328 
Q 422 3509 836 4129 
Q 1250 4750 2034 4750 
z
" transform="scale(0.015625)"/>
        <path id="DejaVuSans-2e" d="M 684 794 
L 1344 794 
L 1344 0 
L 684 0 
L 684 794 
z
" transform="scale(0.015625)"/>
       </defs>
       <use xlink:href="#DejaVuSans-30"/>
       <use xlink:href="#DejaVuSans-2e" x="63.623047"/>
       <use xlink:href="#DejaVuSans-30" x="95.410156"/>
      </g>
     </g>
    </g>
    <g id="ytick_2">
     <g id="line2d_2">
      <g>
       <use xlink:href="#mbb742b05f5" x="7.2" y="63.86" style="stroke: #000000; stroke-width: 0.8"/>
      </g>
     </g>
     <g id="text_2">
      <!-- 0.5 -->
      <g transform="translate(13.345313 69.558828) scale(0.15 -0.15)">
       <defs>
        <path id="DejaVuSans-35" d="M 691 4666 
L 3169 4666 
L 3169 4134 
L 1269 4134 
L 1269 2991 
Q 1406 3038 1543 3061 
Q 1681 3084 1819 3084 
Q 2600 3084 3056 2656 
Q 3513 2228 3513 1497 
Q 3513 744 3044 326 
Q 2575 -91 1722 -91 
Q 1428 -91 1123 -41 
Q 819 9 494 109 
L 494 744 
Q 775 591 1075 516 
Q 1375 441 1709 441 
Q 2250 441 2565 725 
Q 2881 1009 2881 1497 
Q 2881 1984 2565 2268 
Q 2250 2553 1709 2553 
Q 1456 2553 1204 2497 
Q 953 2441 691 2322 
L 691 4666 
z
" transform="scale(0.015625)"/>
       </defs>
       <use xlink:href="#DejaVuSans-30"/>
       <use xlink:href="#DejaVuSans-2e" x="63.623047"/>
       <use xlink:href="#DejaVuSans-35" x="95.410156"/>
      </g>
     </g>
    </g>
    <g id="ytick_3">
     <g id="line2d_3">
      <g>
       <use xlink:href="#mbb742b05f5" x="7.2" y="16.643333" style="stroke: #000000; stroke-width: 0.8"/>
      </g>
     </g>
     <g id="text_3">
      <!-- 1.0 -->
      <g transform="translate(13.345313 22.342161) scale(0.15 -0.15)">
       <defs>
        <path id="DejaVuSans-31" d="M 794 531 
L 1825 531 
L 1825 4091 
L 703 3866 
L 703 4441 
L 1819 4666 
L 2450 4666 
L 2450 531 
L 3481 531 
L 3481 0 
L 794 0 
L 794 531 
z
" transform="scale(0.015625)"/>
       </defs>
       <use xlink:href="#DejaVuSans-31"/>
       <use xlink:href="#DejaVuSans-2e" x="63.623047"/>
       <use xlink:href="#DejaVuSans-30" x="95.410156"/>
      </g>
     </g>
    </g>
   </g>
   <g id="line2d_4">
    <path d="M 14.329 84.057359 
L 18.649606 84.667893 
L 22.970212 82.323384 
L 27.290818 82.240225 
L 31.611424 82.45526 
L 35.93203 80.230783 
L 40.252636 78.655635 
L 44.573242 76.808029 
L 48.893848 76.809182 
L 53.214455 74.17621 
L 57.535061 72.551065 
L 61.855667 71.053378 
L 66.176273 67.19537 
L 70.496879 61.141181 
L 74.817485 55.33282 
L 79.138091 52.643001 
L 83.458697 49.88001 
L 87.779303 49.005853 
L 92.099909 48.96533 
L 96.420515 54.044982 
L 100.741121 61.403589 
L 105.061727 68.028684 
L 109.382333 72.167409 
L 113.702939 79.189732 
L 118.023545 85.271321 
L 122.344152 88.914934 
L 126.664758 92.061069 
L 130.985364 92.997707 
L 135.30597 93.307808 
L 139.626576 90.621702 
L 143.947182 83.396123 
L 148.267788 72.908538 
L 152.588394 65.211471 
L 156.909 63.347733 
" clip-path="url(#p736c32831d)" style="fill: none; stroke: #808080; stroke-width: 2; stroke-linecap: square"/>
   </g>
   <g id="line2d_5">
    <path d="M 14.329 80.474953 
L 18.649606 80.181854 
L 22.970212 79.427783 
L 27.290818 78.546453 
L 31.611424 76.147505 
L 35.93203 74.813101 
L 40.252636 76.859608 
L 44.573242 75.888025 
L 48.893848 74.007585 
L 53.214455 75.530393 
L 57.535061 74.833633 
L 61.855667 73.156039 
L 66.176273 73.040965 
L 70.496879 74.741574 
L 74.817485 74.476228 
L 79.138091 74.221938 
L 83.458697 72.484099 
L 87.779303 69.740154 
L 92.099909 64.731289 
L 96.420515 58.512344 
L 100.741121 55.200702 
L 105.061727 55.845115 
L 109.382333 61.236432 
L 113.702939 65.341179 
L 118.023545 67.025994 
L 122.344152 73.451395 
L 126.664758 78.73892 
L 130.985364 78.938606 
L 135.30597 78.557284 
L 139.626576 78.317434 
L 143.947182 78.925971 
L 148.267788 79.688165 
L 152.588394 77.810433 
L 156.909 79.417403 
" clip-path="url(#p736c32831d)" style="fill: none; stroke: #35db09; stroke-width: 2; stroke-linecap: square"/>
   </g>
   <g id="patch_3">
    <path d="M 7.2 120.52 
L 7.2 7.2 
" style="fill: none; stroke: #000000; stroke-width: 0.8; stroke-linejoin: miter; stroke-linecap: square"/>
   </g>
   <g id="patch_4">
    <path d="M 7.2 120.52 
L 164.038 120.52 
" style="fill: none; stroke: #000000; stroke-width: 0.8; stroke-linejoin: miter; stroke-linecap: square"/>
   </g>
  </g>
  <g id="axes_2">
   <g id="patch_5">
    <path d="M 178.338 120.52 
L 335.176 120.52 
L 335.176 7.2 
L 178.338 7.2 
z
" style="fill: #ffffff"/>
   </g>
   <g id="PolyCollection_3"/>
   <g id="PolyCollection_4"/>
   <g id="matplotlib.axis_3"/>
   <g id="matplotlib.axis_4">
    <g id="ytick_4">
     <g id="line2d_6">
      <g>
       <use xlink:href="#mbb742b05f5" x="178.338" y="111.076667" style="stroke: #000000; stroke-width: 0.8"/>
      </g>
     </g>
    </g>
    <g id="ytick_5">
     <g id="line2d_7">
      <g>
       <use xlink:href="#mbb742b05f5" x="178.338" y="63.86" style="stroke: #000000; stroke-width: 0.8"/>
      </g>
     </g>
    </g>
    <g id="ytick_6">
     <g id="line2d_8">
      <g>
       <use xlink:href="#mbb742b05f5" x="178.338" y="16.643333" style="stroke: #000000; stroke-width: 0.8"/>
      </g>
     </g>
    </g>
   </g>
   <g id="line2d_9">
    <path d="M 185.467 85.713745 
L 189.787606 83.647903 
L 194.108212 81.062817 
L 198.428818 73.800364 
L 202.749424 71.828821 
L 207.07003 69.566958 
L 211.390636 67.39536 
L 215.711242 66.767158 
L 220.031848 63.677486 
L 224.352455 63.545931 
L 228.673061 59.836571 
L 232.993667 57.811509 
L 237.314273 53.598845 
L 241.634879 51.992008 
L 245.955485 48.044888 
L 250.276091 46.622037 
L 254.596697 37.095737 
L 258.917303 37.17051 
L 263.237909 42.192866 
L 267.558515 44.850164 
L 271.879121 52.08112 
L 276.199727 56.773211 
L 280.520333 57.402054 
L 284.840939 56.219588 
L 289.161545 58.43984 
L 293.482152 63.686833 
L 297.802758 65.914446 
L 302.123364 66.11975 
L 306.44397 66.377228 
L 310.764576 66.224994 
L 315.085182 65.338802 
L 319.405788 65.705045 
L 323.726394 66.051123 
L 328.047 65.600313 
" clip-path="url(#pbb53388a52)" style="fill: none; stroke: #808080; stroke-width: 2; stroke-linecap: square"/>
   </g>
   <g id="line2d_10">
    <path d="M 185.467 74.481418 
L 189.787606 73.048637 
L 194.108212 74.612737 
L 198.428818 77.328928 
L 202.749424 71.93197 
L 207.07003 74.064896 
L 211.390636 72.984105 
L 215.711242 73.929741 
L 220.031848 73.967873 
L 224.352455 72.829094 
L 228.673061 69.999634 
L 232.993667 65.818171 
L 237.314273 60.87677 
L 241.634879 45.350392 
L 245.955485 30.64036 
L 250.276091 16.643333 
L 254.596697 22.761645 
L 258.917303 17.732247 
L 263.237909 33.546761 
L 267.558515 51.584228 
L 271.879121 58.291898 
L 276.199727 61.96275 
L 280.520333 67.980429 
L 284.840939 70.199998 
L 289.161545 72.439197 
L 293.482152 74.144319 
L 297.802758 71.395185 
L 302.123364 70.431725 
L 306.44397 70.90646 
L 310.764576 69.965789 
L 315.085182 72.090592 
L 319.405788 71.43422 
L 323.726394 71.721002 
L 328.047 74.693063 
" clip-path="url(#pbb53388a52)" style="fill: none; stroke: #35db09; stroke-width: 2; stroke-linecap: square"/>
   </g>
   <g id="patch_6">
    <path d="M 178.338 120.52 
L 178.338 7.2 
" style="fill: none; stroke: #000000; stroke-width: 0.8; stroke-linejoin: miter; stroke-linecap: square"/>
   </g>
   <g id="patch_7">
    <path d="M 178.338 120.52 
L 335.176 120.52 
" style="fill: none; stroke: #000000; stroke-width: 0.8; stroke-linejoin: miter; stroke-linecap: square"/>
   </g>
  </g>
  <g id="axes_3">
   <g id="patch_8">
    <path d="M 349.476 120.52 
L 506.314 120.52 
L 506.314 7.2 
L 349.476 7.2 
z
" style="fill: #ffffff"/>
   </g>
   <g id="PolyCollection_5"/>
   <g id="PolyCollection_6"/>
   <g id="matplotlib.axis_5"/>
   <g id="matplotlib.axis_6">
    <g id="ytick_7">
     <g id="line2d_11">
      <g>
       <use xlink:href="#mbb742b05f5" x="349.476" y="111.076667" style="stroke: #000000; stroke-width: 0.8"/>
      </g>
     </g>
    </g>
    <g id="ytick_8">
     <g id="line2d_12">
      <g>
       <use xlink:href="#mbb742b05f5" x="349.476" y="63.86" style="stroke: #000000; stroke-width: 0.8"/>
      </g>
     </g>
    </g>
    <g id="ytick_9">
     <g id="line2d_13">
      <g>
       <use xlink:href="#mbb742b05f5" x="349.476" y="16.643333" style="stroke: #000000; stroke-width: 0.8"/>
      </g>
     </g>
    </g>
   </g>
   <g id="line2d_14">
    <path d="M 356.605 85.521693 
L 360.925606 84.070098 
L 365.246212 83.557767 
L 369.566818 80.15153 
L 373.887424 78.390155 
L 378.20803 77.405696 
L 382.528636 75.984958 
L 386.849242 74.199001 
L 391.169848 71.051906 
L 395.490455 68.80592 
L 399.811061 62.557438 
L 404.131667 57.446738 
L 408.452273 52.104487 
L 412.772879 48.308319 
L 417.093485 42.926569 
L 421.414091 37.253348 
L 425.734697 34.00421 
L 430.055303 33.984044 
L 434.375909 36.107565 
L 438.696515 38.184417 
L 443.017121 39.630058 
L 447.337727 40.519515 
L 451.658333 42.101257 
L 455.978939 45.111035 
L 460.299545 47.610146 
L 464.620152 52.405432 
L 468.940758 56.718348 
L 473.261364 60.554398 
L 477.58197 61.699669 
L 481.902576 65.015578 
L 486.223182 66.112452 
L 490.543788 66.047794 
L 494.864394 67.577554 
L 499.185 66.98072 
" clip-path="url(#p48bdb99523)" style="fill: none; stroke: #808080; stroke-width: 2; stroke-linecap: square"/>
   </g>
   <g id="line2d_15">
    <path d="M 356.605 77.485293 
L 360.925606 75.920967 
L 365.246212 76.509874 
L 369.566818 73.763673 
L 373.887424 75.302277 
L 378.20803 75.385762 
L 382.528636 75.789873 
L 386.849242 73.959524 
L 391.169848 73.865435 
L 395.490455 73.632805 
L 399.811061 73.415745 
L 404.131667 74.30294 
L 408.452273 72.71041 
L 412.772879 71.251682 
L 417.093485 68.451103 
L 421.414091 59.042134 
L 425.734697 47.646676 
L 430.055303 27.496816 
L 434.375909 23.999703 
L 438.696515 20.777865 
L 443.017121 27.014635 
L 447.337727 37.555613 
L 451.658333 47.20556 
L 455.978939 57.977138 
L 460.299545 69.860418 
L 464.620152 72.093525 
L 468.940758 73.264569 
L 473.261364 74.751502 
L 477.58197 75.696912 
L 481.902576 74.941035 
L 486.223182 73.558571 
L 490.543788 71.961077 
L 494.864394 73.980734 
L 499.185 73.868142 
" clip-path="url(#p48bdb99523)" style="fill: none; stroke: #35db09; stroke-width: 2; stroke-linecap: square"/>
   </g>
   <g id="patch_9">
    <path d="M 349.476 120.52 
L 349.476 7.2 
" style="fill: none; stroke: #000000; stroke-width: 0.8; stroke-linejoin: miter; stroke-linecap: square"/>
   </g>
   <g id="patch_10">
    <path d="M 349.476 120.52 
L 506.314 120.52 
" style="fill: none; stroke: #000000; stroke-width: 0.8; stroke-linejoin: miter; stroke-linecap: square"/>
   </g>
  </g>
  <g id="axes_4">
   <g id="patch_11">
    <path d="M 520.614 120.52 
L 677.452 120.52 
L 677.452 7.2 
L 520.614 7.2 
z
" style="fill: #ffffff"/>
   </g>
   <g id="PolyCollection_7"/>
   <g id="PolyCollection_8"/>
   <g id="matplotlib.axis_7"/>
   <g id="matplotlib.axis_8">
    <g id="ytick_10">
     <g id="line2d_16">
      <g>
       <use xlink:href="#mbb742b05f5" x="520.614" y="111.076667" style="stroke: #000000; stroke-width: 0.8"/>
      </g>
     </g>
    </g>
    <g id="ytick_11">
     <g id="line2d_17">
      <g>
       <use xlink:href="#mbb742b05f5" x="520.614" y="63.86" style="stroke: #000000; stroke-width: 0.8"/>
      </g>
     </g>
    </g>
    <g id="ytick_12">
     <g id="line2d_18">
      <g>
       <use xlink:href="#mbb742b05f5" x="520.614" y="16.643333" style="stroke: #000000; stroke-width: 0.8"/>
      </g>
     </g>
    </g>
   </g>
   <g id="line2d_19">
    <path d="M 527.743 81.528672 
L 532.063606 79.926573 
L 536.384212 78.951972 
L 540.704818 78.314103 
L 545.025424 75.688173 
L 549.34603 73.558507 
L 553.666636 69.549354 
L 557.987242 67.654247 
L 562.307848 64.288981 
L 566.628455 59.908206 
L 570.949061 54.216996 
L 575.269667 49.563956 
L 579.590273 44.087013 
L 583.910879 36.905286 
L 588.231485 28.393341 
L 592.552091 26.044479 
L 596.872697 23.53775 
L 601.193303 16.643333 
L 605.513909 19.245896 
L 609.834515 23.018697 
L 614.155121 27.720903 
L 618.475727 33.418322 
L 622.796333 38.279547 
L 627.116939 42.60693 
L 631.437545 47.540111 
L 635.758152 53.740195 
L 640.078758 57.528104 
L 644.399364 62.860496 
L 648.71997 66.721769 
L 653.040576 68.875186 
L 657.361182 71.697393 
L 661.681788 71.435946 
L 666.002394 72.282 
L 670.323 73.522465 
" clip-path="url(#pa921478385)" style="fill: none; stroke: #808080; stroke-width: 2; stroke-linecap: square"/>
   </g>
   <g id="line2d_20">
    <path d="M 527.743 76.935421 
L 532.063606 77.104647 
L 536.384212 74.874248 
L 540.704818 72.555399 
L 545.025424 75.299569 
L 549.34603 74.550687 
L 553.666636 73.007797 
L 557.987242 71.963334 
L 562.307848 71.984769 
L 566.628455 69.834921 
L 570.949061 65.359681 
L 575.269667 66.15888 
L 579.590273 61.871594 
L 583.910879 54.443923 
L 588.231485 50.925601 
L 592.552091 44.854898 
L 596.872697 37.690543 
L 601.193303 35.272867 
L 605.513909 34.27872 
L 609.834515 44.022305 
L 614.155121 50.868515 
L 618.475727 54.84623 
L 622.796333 56.938316 
L 627.116939 64.299424 
L 631.437545 66.865116 
L 635.758152 67.537734 
L 640.078758 69.108828 
L 644.399364 69.884335 
L 648.71997 71.54952 
L 653.040576 72.51817 
L 657.361182 74.721267 
L 661.681788 73.611596 
L 666.002394 73.458164 
L 670.323 74.044363 
" clip-path="url(#pa921478385)" style="fill: none; stroke: #35db09; stroke-width: 2; stroke-linecap: square"/>
   </g>
   <g id="patch_12">
    <path d="M 520.614 120.52 
L 520.614 7.2 
" style="fill: none; stroke: #000000; stroke-width: 0.8; stroke-linejoin: miter; stroke-linecap: square"/>
   </g>
   <g id="patch_13">
    <path d="M 520.614 120.52 
L 677.452 120.52 
" style="fill: none; stroke: #000000; stroke-width: 0.8; stroke-linejoin: miter; stroke-linecap: square"/>
   </g>
  </g>
  <g id="axes_5">
   <g id="patch_14">
    <path d="M 691.752 120.52 
L 848.59 120.52 
L 848.59 7.2 
L 691.752 7.2 
z
" style="fill: #ffffff"/>
   </g>
   <g id="PolyCollection_9"/>
   <g id="PolyCollection_10"/>
   <g id="matplotlib.axis_9"/>
   <g id="matplotlib.axis_10">
    <g id="ytick_13">
     <g id="line2d_21">
      <g>
       <use xlink:href="#mbb742b05f5" x="691.752" y="111.076667" style="stroke: #000000; stroke-width: 0.8"/>
      </g>
     </g>
    </g>
    <g id="ytick_14">
     <g id="line2d_22">
      <g>
       <use xlink:href="#mbb742b05f5" x="691.752" y="63.86" style="stroke: #000000; stroke-width: 0.8"/>
      </g>
     </g>
    </g>
    <g id="ytick_15">
     <g id="line2d_23">
      <g>
       <use xlink:href="#mbb742b05f5" x="691.752" y="16.643333" style="stroke: #000000; stroke-width: 0.8"/>
      </g>
     </g>
    </g>
   </g>
   <g id="line2d_24">
    <path d="M 698.881 87.410206 
L 703.201606 85.887744 
L 707.522212 85.031511 
L 711.842818 84.471615 
L 716.163424 82.759022 
L 720.48403 82.010339 
L 724.804636 80.251205 
L 729.125242 81.288479 
L 733.445848 77.74518 
L 737.766455 73.580657 
L 742.087061 68.075545 
L 746.407667 61.713945 
L 750.728273 54.578055 
L 755.048879 43.981832 
L 759.369485 40.272472 
L 763.690091 37.888081 
L 768.010697 39.483138 
L 772.331303 39.682232 
L 776.651909 37.434453 
L 780.972515 43.228155 
L 785.293121 49.561076 
L 789.613727 56.49896 
L 793.934333 62.750195 
L 798.254939 67.086028 
L 802.575545 69.949462 
L 806.896152 72.164976 
L 811.216758 73.539814 
L 815.537364 76.29557 
L 819.85797 76.686588 
L 824.178576 78.685339 
L 828.499182 80.140263 
L 832.819788 81.474193 
L 837.140394 81.438343 
L 841.461 83.51718 
" clip-path="url(#p58c83a8cca)" style="fill: none; stroke: #808080; stroke-width: 2; stroke-linecap: square"/>
   </g>
   <g id="line2d_25">
    <path d="M 698.881 78.035165 
L 703.201606 80.261277 
L 707.522212 78.334808 
L 711.842818 78.610985 
L 716.163424 77.121118 
L 720.48403 75.185398 
L 724.804636 77.232808 
L 729.125242 76.959564 
L 733.445848 76.436994 
L 737.766455 76.911053 
L 742.087061 74.513909 
L 746.407667 71.336746 
L 750.728273 70.691882 
L 755.048879 63.450586 
L 759.369485 58.082735 
L 763.690091 54.698665 
L 768.010697 53.215793 
L 772.331303 54.638872 
L 776.651909 53.719185 
L 780.972515 54.796139 
L 785.293121 66.821118 
L 789.613727 69.585595 
L 793.934333 72.8221 
L 798.254939 76.751077 
L 802.575545 75.087924 
L 806.896152 75.738429 
L 811.216758 77.020711 
L 815.537364 77.457089 
L 819.85797 78.460486 
L 824.178576 74.676817 
L 828.499182 74.573928 
L 832.819788 75.960453 
L 837.140394 75.578002 
L 841.461 73.593093 
" clip-path="url(#p58c83a8cca)" style="fill: none; stroke: #35db09; stroke-width: 2; stroke-linecap: square"/>
   </g>
   <g id="patch_15">
    <path d="M 691.752 120.52 
L 691.752 7.2 
" style="fill: none; stroke: #000000; stroke-width: 0.8; stroke-linejoin: miter; stroke-linecap: square"/>
   </g>
   <g id="patch_16">
    <path d="M 691.752 120.52 
L 848.59 120.52 
" style="fill: none; stroke: #000000; stroke-width: 0.8; stroke-linejoin: miter; stroke-linecap: square"/>
   </g>
  </g>
 </g>
 <defs>
  <clipPath id="p736c32831d">
   <rect x="7.2" y="7.2" width="156.838" height="113.32"/>
  </clipPath>
  <clipPath id="pbb53388a52">
   <rect x="178.338" y="7.2" width="156.838" height="113.32"/>
  </clipPath>
  <clipPath id="p48bdb99523">
   <rect x="349.476" y="7.2" width="156.838" height="113.32"/>
  </clipPath>
  <clipPath id="pa921478385">
   <rect x="520.614" y="7.2" width="156.838" height="113.32"/>
  </clipPath>
  <clipPath id="p58c83a8cca">
   <rect x="691.752" y="7.2" width="156.838" height="113.32"/>
  </clipPath>
 </defs>
</svg>
