<?xml version="1.0" encoding="utf-8" standalone="no"?>
<!DOCTYPE svg PUBLIC "-//W3C//DTD SVG 1.1//EN"
  "http://www.w3.org/Graphics/SVG/1.1/DTD/svg11.dtd">
<svg xmlns:xlink="http://www.w3.org/1999/xlink" width="855.79pt" height="127.72pt" viewBox="0 0 855.79 127.72" xmlns="http://www.w3.org/2000/svg" version="1.1">
 <metadata>
  <rdf:RDF xmlns:dc="http://purl.org/dc/elements/1.1/" xmlns:cc="http://creativecommons.org/ns#" xmlns:rdf="http://www.w3.org/1999/02/22-rdf-syntax-ns#">
   <cc:Work>
    <dc:type rdf:resource="http://purl.org/dc/dcmitype/StillImage"/>
    <dc:date>2024-12-11T14:25:40.820909</dc:date>
    <dc:format>image/svg+xml</dc:format>
    <dc:creator>
     <cc:Agent>
      <dc:title>Matplotlib v3.7.2, https://matplotlib.org/</dc:title>
     </cc:Agent>
    </dc:creator>
   </cc:Work>
  </rdf:RDF>
 </metadata>
 <defs>
  <style type="text/css">*{stroke-linejoin: round; stroke-linecap: butt}</style>
 </defs>
 <g id="figure_1">
  <g id="patch_1">
   <path d="M 0 127.72 
L 855.79 127.72 
L 855.79 0 
L 0 0 
z
" style="fill: #ffffff"/>
  </g>
  <g id="axes_1">
   <g id="patch_2">
    <path d="M 7.2 120.52 
L 164.038 120.52 
L 164.038 7.2 
L 7.2 7.2 
z
" style="fill: #ffffff"/>
   </g>
   <g id="PolyCollection_1"/>
   <g id="PolyCollection_2"/>
   <g id="matplotlib.axis_1"/>
   <g id="matplotlib.axis_2">
    <g id="ytick_1">
     <g id="line2d_1">
      <defs>
       <path id="mf8e1c96955" d="M 0 0 
L 3.5 0 
" style="stroke: #000000; stroke-width: 0.8"/>
      </defs>
      <g>
       <use xlink:href="#mf8e1c96955" x="7.2" y="111.076667" style="stroke: #000000; stroke-width: 0.8"/>
      </g>
     </g>
     <g id="text_1">
      <!-- 0.0 -->
      <g transform="translate(13.345313 116.775495) scale(0.15 -0.15)">
       <defs>
        <path id="DejaVuSans-30" d="M 2034 4250 
Q 1547 4250 1301 3770 
Q 1056 3291 1056 2328 
Q 1056 1369 1301 889 
Q 1547 409 2034 409 
Q 2525 409 2770 889 
Q 3016 1369 3016 2328 
Q 3016 3291 2770 3770 
Q 2525 4250 2034 4250 
z
M 2034 4750 
Q 2819 4750 3233 4129 
Q 3647 3509 3647 2328 
Q 3647 1150 3233 529 
Q 2819 -91 2034 -91 
Q 1250 -91 836 529 
Q 422 1150 422 2328 
Q 422 3509 836 4129 
Q 1250 4750 2034 4750 
z
" transform="scale(0.015625)"/>
        <path id="DejaVuSans-2e" d="M 684 794 
L 1344 794 
L 1344 0 
L 684 0 
L 684 794 
z
" transform="scale(0.015625)"/>
       </defs>
       <use xlink:href="#DejaVuSans-30"/>
       <use xlink:href="#DejaVuSans-2e" x="63.623047"/>
       <use xlink:href="#DejaVuSans-30" x="95.410156"/>
      </g>
     </g>
    </g>
    <g id="ytick_2">
     <g id="line2d_2">
      <g>
       <use xlink:href="#mf8e1c96955" x="7.2" y="63.86" style="stroke: #000000; stroke-width: 0.8"/>
      </g>
     </g>
     <g id="text_2">
      <!-- 0.5 -->
      <g transform="translate(13.345313 69.558828) scale(0.15 -0.15)">
       <defs>
        <path id="DejaVuSans-35" d="M 691 4666 
L 3169 4666 
L 3169 4134 
L 1269 4134 
L 1269 2991 
Q 1406 3038 1543 3061 
Q 1681 3084 1819 3084 
Q 2600 3084 3056 2656 
Q 3513 2228 3513 1497 
Q 3513 744 3044 326 
Q 2575 -91 1722 -91 
Q 1428 -91 1123 -41 
Q 819 9 494 109 
L 494 744 
Q 775 591 1075 516 
Q 1375 441 1709 441 
Q 2250 441 2565 725 
Q 2881 1009 2881 1497 
Q 2881 1984 2565 2268 
Q 2250 2553 1709 2553 
Q 1456 2553 1204 2497 
Q 953 2441 691 2322 
L 691 4666 
z
" transform="scale(0.015625)"/>
       </defs>
       <use xlink:href="#DejaVuSans-30"/>
       <use xlink:href="#DejaVuSans-2e" x="63.623047"/>
       <use xlink:href="#DejaVuSans-35" x="95.410156"/>
      </g>
     </g>
    </g>
    <g id="ytick_3">
     <g id="line2d_3">
      <g>
       <use xlink:href="#mf8e1c96955" x="7.2" y="16.643333" style="stroke: #000000; stroke-width: 0.8"/>
      </g>
     </g>
     <g id="text_3">
      <!-- 1.0 -->
      <g transform="translate(13.345313 22.342161) scale(0.15 -0.15)">
       <defs>
        <path id="DejaVuSans-31" d="M 794 531 
L 1825 531 
L 1825 4091 
L 703 3866 
L 703 4441 
L 1819 4666 
L 2450 4666 
L 2450 531 
L 3481 531 
L 3481 0 
L 794 0 
L 794 531 
z
" transform="scale(0.015625)"/>
       </defs>
       <use xlink:href="#DejaVuSans-31"/>
       <use xlink:href="#DejaVuSans-2e" x="63.623047"/>
       <use xlink:href="#DejaVuSans-30" x="95.410156"/>
      </g>
     </g>
    </g>
   </g>
   <g id="line2d_4">
    <path d="M 14.329 64.756506 
L 16.745125 61.8556 
L 19.161251 59.807828 
L 21.577376 58.460754 
L 23.993501 55.02085 
L 26.409627 48.494339 
L 28.825752 48.461494 
L 31.241877 54.801882 
L 33.658002 63.546286 
L 36.074128 67.87301 
L 38.490253 70.476203 
L 40.906378 67.507502 
L 43.322504 63.608187 
L 45.738629 62.080043 
L 48.154754 58.571922 
L 50.57088 54.493221 
L 52.987005 56.27739 
L 55.40313 61.195749 
L 57.819255 61.06142 
L 60.235381 57.266536 
L 62.651506 55.5489 
L 65.067631 49.136084 
L 67.483757 39.766358 
L 69.899882 38.351908 
L 72.316007 37.99019 
L 74.732133 28.331173 
L 77.148258 22.544943 
L 79.564383 24.496706 
L 81.980509 34.896424 
L 84.396634 40.83509 
L 86.812759 44.609341 
L 89.228884 43.335537 
L 91.64501 45.513426 
L 94.061135 47.097155 
L 96.47726 50.617066 
L 98.893386 53.688093 
L 101.309511 56.701851 
L 103.725636 58.750886 
L 106.141762 62.622831 
L 108.557887 65.889665 
L 110.974012 69.263457 
L 113.390137 68.970798 
L 115.806263 64.906836 
L 118.222388 64.471005 
L 120.638513 67.924805 
L 123.054639 69.90815 
L 125.470764 66.054312 
L 127.886889 61.205855 
L 130.303015 60.551056 
L 132.71914 61.705691 
L 135.135265 64.705553 
L 137.55139 65.055902 
L 139.967516 64.158976 
L 142.383641 61.968874 
L 144.799766 59.3421 
L 147.215892 62.873381 
L 149.632017 67.818268 
L 152.048142 71.069944 
L 154.464268 69.390206 
L 156.880393 63.809048 
" clip-path="url(#p5c681d3562)" style="fill: none; stroke: #808080; stroke-width: 2; stroke-linecap: square"/>
   </g>
   <g id="line2d_5">
    <path d="M 14.329 82.108774 
L 16.745125 82.375849 
L 19.161251 80.518023 
L 21.577376 80.749594 
L 23.993501 79.249714 
L 26.409627 80.070975 
L 28.825752 80.130338 
L 31.241877 79.459196 
L 33.658002 77.882829 
L 36.074128 76.764754 
L 38.490253 75.08025 
L 40.906378 76.183941 
L 43.322504 78.390695 
L 45.738629 80.670568 
L 48.154754 81.611668 
L 50.57088 80.941353 
L 52.987005 78.20764 
L 55.40313 74.151793 
L 57.819255 75.081391 
L 60.235381 78.292689 
L 62.651506 79.386762 
L 65.067631 80.412482 
L 67.483757 83.09274 
L 69.899882 81.203234 
L 72.316007 76.194215 
L 74.732133 74.885694 
L 77.148258 70.833414 
L 79.564383 62.870097 
L 81.980509 56.945378 
L 84.396634 56.403122 
L 86.812759 59.217175 
L 89.228884 64.066799 
L 91.64501 69.123338 
L 94.061135 71.565545 
L 96.47726 75.155024 
L 98.893386 78.26843 
L 101.309511 76.665635 
L 103.725636 72.314544 
L 106.141762 71.143556 
L 108.557887 77.305241 
L 110.974012 79.606005 
L 113.390137 79.261958 
L 115.806263 78.808574 
L 118.222388 81.272015 
L 120.638513 79.000562 
L 123.054639 76.579474 
L 125.470764 77.188313 
L 127.886889 78.718417 
L 130.303015 80.504009 
L 132.71914 80.858046 
L 135.135265 80.078909 
L 137.55139 77.939966 
L 139.967516 75.053708 
L 142.383641 78.382447 
L 144.799766 78.378137 
L 147.215892 77.093818 
L 149.632017 76.510807 
L 152.048142 76.60242 
L 154.464268 78.315863 
L 156.880393 81.216905 
" clip-path="url(#p5c681d3562)" style="fill: none; stroke: #35db09; stroke-width: 2; stroke-linecap: square"/>
   </g>
   <g id="patch_3">
    <path d="M 7.2 120.52 
L 7.2 7.2 
" style="fill: none; stroke: #000000; stroke-width: 0.8; stroke-linejoin: miter; stroke-linecap: square"/>
   </g>
   <g id="patch_4">
    <path d="M 7.2 120.52 
L 164.038 120.52 
" style="fill: none; stroke: #000000; stroke-width: 0.8; stroke-linejoin: miter; stroke-linecap: square"/>
   </g>
  </g>
  <g id="axes_2">
   <g id="patch_5">
    <path d="M 178.338 120.52 
L 335.176 120.52 
L 335.176 7.2 
L 178.338 7.2 
z
" style="fill: #ffffff"/>
   </g>
   <g id="PolyCollection_3"/>
   <g id="PolyCollection_4"/>
   <g id="matplotlib.axis_3"/>
   <g id="matplotlib.axis_4">
    <g id="ytick_4">
     <g id="line2d_6">
      <g>
       <use xlink:href="#mf8e1c96955" x="178.338" y="111.076667" style="stroke: #000000; stroke-width: 0.8"/>
      </g>
     </g>
    </g>
    <g id="ytick_5">
     <g id="line2d_7">
      <g>
       <use xlink:href="#mf8e1c96955" x="178.338" y="63.86" style="stroke: #000000; stroke-width: 0.8"/>
      </g>
     </g>
    </g>
    <g id="ytick_6">
     <g id="line2d_8">
      <g>
       <use xlink:href="#mf8e1c96955" x="178.338" y="16.643333" style="stroke: #000000; stroke-width: 0.8"/>
      </g>
     </g>
    </g>
   </g>
   <g id="line2d_9">
    <path d="M 185.467 67.809425 
L 187.883125 67.797129 
L 190.299251 65.92449 
L 192.715376 63.918027 
L 195.131501 62.354637 
L 197.547627 61.995782 
L 199.963752 64.548907 
L 202.379877 66.326633 
L 204.796002 66.440875 
L 207.212128 66.795772 
L 209.628253 67.972557 
L 212.044378 62.812196 
L 214.460504 57.704724 
L 216.876629 59.807154 
L 219.292754 62.973516 
L 221.70888 65.137089 
L 224.125005 66.700352 
L 226.54113 66.165354 
L 228.957255 60.604619 
L 231.373381 54.211342 
L 233.789506 51.481105 
L 236.205631 55.452006 
L 238.621757 59.156398 
L 241.037882 55.07854 
L 243.454007 49.822254 
L 245.870133 45.68978 
L 248.286258 42.989483 
L 250.702383 43.241591 
L 253.118509 41.264689 
L 255.534634 38.888633 
L 257.950759 39.034962 
L 260.366884 34.989191 
L 262.78301 36.174566 
L 265.199135 47.609456 
L 267.61526 56.047473 
L 270.031386 53.841076 
L 272.447511 54.914735 
L 274.863636 56.73099 
L 277.279762 58.351859 
L 279.695887 59.465817 
L 282.112012 59.917986 
L 284.528137 55.670638 
L 286.944263 54.249914 
L 289.360388 56.923598 
L 291.776513 56.576913 
L 294.192639 57.842 
L 296.608764 61.211329 
L 299.024889 63.672066 
L 301.441015 63.242131 
L 303.85714 57.865455 
L 306.273265 53.700346 
L 308.68939 51.329302 
L 311.105516 55.324668 
L 313.521641 62.08897 
L 315.937766 64.832008 
L 318.353892 63.800121 
L 320.770017 60.152745 
L 323.186142 56.689386 
L 325.602268 55.14023 
L 328.018393 57.334753 
" clip-path="url(#p38102dd353)" style="fill: none; stroke: #808080; stroke-width: 2; stroke-linecap: square"/>
   </g>
   <g id="line2d_10">
    <path d="M 185.467 83.535763 
L 187.883125 82.621634 
L 190.299251 82.633906 
L 192.715376 82.384183 
L 195.131501 80.602729 
L 197.547627 79.92976 
L 199.963752 81.06279 
L 202.379877 82.007172 
L 204.796002 80.735439 
L 207.212128 78.277021 
L 209.628253 76.802084 
L 212.044378 77.084057 
L 214.460504 77.549256 
L 216.876629 77.938253 
L 219.292754 79.45971 
L 221.70888 79.179449 
L 224.125005 75.784926 
L 226.54113 76.845179 
L 228.957255 80.66095 
L 231.373381 82.816846 
L 233.789506 80.910388 
L 236.205631 79.130075 
L 238.621757 79.203422 
L 241.037882 78.39118 
L 243.454007 74.24292 
L 245.870133 65.51117 
L 248.286258 58.318856 
L 250.702383 49.362212 
L 253.118509 39.322482 
L 255.534634 36.416275 
L 257.950759 45.953989 
L 260.366884 54.670328 
L 262.78301 65.120745 
L 265.199135 75.208136 
L 267.61526 82.796583 
L 270.031386 83.574292 
L 272.447511 79.280765 
L 274.863636 77.316657 
L 277.279762 77.202497 
L 279.695887 75.572019 
L 282.112012 74.472951 
L 284.528137 77.964225 
L 286.944263 79.343553 
L 289.360388 76.593743 
L 291.776513 72.607019 
L 294.192639 73.802837 
L 296.608764 78.783317 
L 299.024889 82.695266 
L 301.441015 83.15647 
L 303.85714 80.846173 
L 306.273265 80.705757 
L 308.68939 80.979739 
L 311.105516 81.422962 
L 313.521641 82.766331 
L 315.937766 83.332275 
L 318.353892 81.166675 
L 320.770017 78.152016 
L 323.186142 76.618002 
L 325.602268 79.920913 
L 328.018393 82.750919 
" clip-path="url(#p38102dd353)" style="fill: none; stroke: #35db09; stroke-width: 2; stroke-linecap: square"/>
   </g>
   <g id="patch_6">
    <path d="M 178.338 120.52 
L 178.338 7.2 
" style="fill: none; stroke: #000000; stroke-width: 0.8; stroke-linejoin: miter; stroke-linecap: square"/>
   </g>
   <g id="patch_7">
    <path d="M 178.338 120.52 
L 335.176 120.52 
" style="fill: none; stroke: #000000; stroke-width: 0.8; stroke-linejoin: miter; stroke-linecap: square"/>
   </g>
  </g>
  <g id="axes_3">
   <g id="patch_8">
    <path d="M 349.476 120.52 
L 506.314 120.52 
L 506.314 7.2 
L 349.476 7.2 
z
" style="fill: #ffffff"/>
   </g>
   <g id="PolyCollection_5"/>
   <g id="PolyCollection_6"/>
   <g id="matplotlib.axis_5"/>
   <g id="matplotlib.axis_6">
    <g id="ytick_7">
     <g id="line2d_11">
      <g>
       <use xlink:href="#mf8e1c96955" x="349.476" y="111.076667" style="stroke: #000000; stroke-width: 0.8"/>
      </g>
     </g>
    </g>
    <g id="ytick_8">
     <g id="line2d_12">
      <g>
       <use xlink:href="#mf8e1c96955" x="349.476" y="63.86" style="stroke: #000000; stroke-width: 0.8"/>
      </g>
     </g>
    </g>
    <g id="ytick_9">
     <g id="line2d_13">
      <g>
       <use xlink:href="#mf8e1c96955" x="349.476" y="16.643333" style="stroke: #000000; stroke-width: 0.8"/>
      </g>
     </g>
    </g>
   </g>
   <g id="line2d_14">
    <path d="M 356.605 62.440498 
L 359.021125 61.314497 
L 361.437251 61.320813 
L 363.853376 63.927375 
L 366.269501 67.669623 
L 368.685627 68.764463 
L 371.101752 71.232485 
L 373.517877 71.425346 
L 375.934002 67.187893 
L 378.350128 63.160987 
L 380.766253 59.027544 
L 383.182378 57.915439 
L 385.598504 62.664098 
L 388.014629 67.690256 
L 390.430754 60.897194 
L 392.84688 54.93621 
L 395.263005 53.137304 
L 397.67913 53.83758 
L 400.095255 55.609116 
L 402.511381 56.288759 
L 404.927506 54.119712 
L 407.343631 49.947108 
L 409.759757 48.632037 
L 412.175882 44.468275 
L 414.592007 38.026404 
L 417.008133 33.560298 
L 419.424258 35.714186 
L 421.840383 42.422187 
L 424.256509 41.272184 
L 426.672634 31.611062 
L 429.088759 20.472326 
L 431.504884 18.753427 
L 433.92101 16.643333 
L 436.337135 18.505404 
L 438.75326 26.04801 
L 441.169386 34.527547 
L 443.585511 35.833776 
L 446.001636 41.887821 
L 448.417762 48.328008 
L 450.833887 52.184793 
L 453.250012 51.45125 
L 455.666137 44.6784 
L 458.082263 48.658986 
L 460.498388 57.239586 
L 462.914513 58.694039 
L 465.330639 55.777974 
L 467.746764 54.131503 
L 470.162889 52.879174 
L 472.579015 56.076529 
L 474.99514 58.920586 
L 477.411265 58.226205 
L 479.82739 60.344721 
L 482.243516 62.093517 
L 484.659641 58.504547 
L 487.075766 56.002416 
L 489.491892 60.287031 
L 491.908017 62.704101 
L 494.324142 61.023943 
L 496.740268 59.967843 
L 499.156393 61.49304 
" clip-path="url(#p16323d1d81)" style="fill: none; stroke: #808080; stroke-width: 2; stroke-linecap: square"/>
   </g>
   <g id="line2d_15">
    <path d="M 356.605 77.114309 
L 359.021125 76.650823 
L 361.437251 75.949886 
L 363.853376 75.714147 
L 366.269501 78.263322 
L 368.685627 81.271131 
L 371.101752 78.985664 
L 373.517877 77.431387 
L 375.934002 82.422997 
L 378.350128 87.529337 
L 380.766253 82.893333 
L 383.182378 78.22251 
L 385.598504 75.520076 
L 388.014629 75.938184 
L 390.430754 75.405632 
L 392.84688 74.92017 
L 395.263005 75.941324 
L 397.67913 78.777038 
L 400.095255 80.964899 
L 402.511381 81.233458 
L 404.927506 82.493205 
L 407.343631 82.778317 
L 409.759757 81.30652 
L 412.175882 80.228857 
L 414.592007 74.537166 
L 417.008133 64.60075 
L 419.424258 52.284116 
L 421.840383 39.393832 
L 424.256509 27.261564 
L 426.672634 22.73287 
L 429.088759 19.007285 
L 431.504884 16.643333 
L 433.92101 38.128663 
L 436.337135 58.431303 
L 438.75326 70.892634 
L 441.169386 76.094868 
L 443.585511 78.163718 
L 446.001636 77.144276 
L 448.417762 78.054125 
L 450.833887 79.771079 
L 453.250012 80.140384 
L 455.666137 80.5388 
L 458.082263 77.330641 
L 460.498388 77.04667 
L 462.914513 77.631165 
L 465.330639 77.684249 
L 467.746764 76.636268 
L 470.162889 79.324431 
L 472.579015 81.996612 
L 474.99514 82.079378 
L 477.411265 80.285937 
L 479.82739 78.194826 
L 482.243516 76.741865 
L 484.659641 76.057766 
L 487.075766 75.955023 
L 489.491892 78.148877 
L 491.908017 80.745713 
L 494.324142 83.166173 
L 496.740268 83.799186 
L 499.156393 81.18123 
" clip-path="url(#p16323d1d81)" style="fill: none; stroke: #35db09; stroke-width: 2; stroke-linecap: square"/>
   </g>
   <g id="patch_9">
    <path d="M 349.476 120.52 
L 349.476 7.2 
" style="fill: none; stroke: #000000; stroke-width: 0.8; stroke-linejoin: miter; stroke-linecap: square"/>
   </g>
   <g id="patch_10">
    <path d="M 349.476 120.52 
L 506.314 120.52 
" style="fill: none; stroke: #000000; stroke-width: 0.8; stroke-linejoin: miter; stroke-linecap: square"/>
   </g>
  </g>
  <g id="axes_4">
   <g id="patch_11">
    <path d="M 520.614 120.52 
L 677.452 120.52 
L 677.452 7.2 
L 520.614 7.2 
z
" style="fill: #ffffff"/>
   </g>
   <g id="PolyCollection_7"/>
   <g id="PolyCollection_8"/>
   <g id="matplotlib.axis_7"/>
   <g id="matplotlib.axis_8">
    <g id="ytick_10">
     <g id="line2d_16">
      <g>
       <use xlink:href="#mf8e1c96955" x="520.614" y="111.076667" style="stroke: #000000; stroke-width: 0.8"/>
      </g>
     </g>
    </g>
    <g id="ytick_11">
     <g id="line2d_17">
      <g>
       <use xlink:href="#mf8e1c96955" x="520.614" y="63.86" style="stroke: #000000; stroke-width: 0.8"/>
      </g>
     </g>
    </g>
    <g id="ytick_12">
     <g id="line2d_18">
      <g>
       <use xlink:href="#mf8e1c96955" x="520.614" y="16.643333" style="stroke: #000000; stroke-width: 0.8"/>
      </g>
     </g>
    </g>
   </g>
   <g id="line2d_19">
    <path d="M 527.743 70.230707 
L 530.159594 71.157826 
L 532.576189 69.25891 
L 534.992783 68.236876 
L 537.409377 68.466961 
L 539.825971 64.739115 
L 542.242566 59.742769 
L 544.659394 60.421065 
L 547.075989 62.986781 
L 549.492583 63.515589 
L 551.909177 60.456437 
L 554.325771 60.883466 
L 556.742366 67.436127 
L 559.15896 67.663012 
L 561.575554 64.302737 
L 563.992149 63.956093 
L 566.408743 63.013604 
L 568.825337 61.34372 
L 571.241931 55.990836 
L 573.658526 52.375169 
L 576.07512 53.266411 
L 578.491949 57.573849 
L 580.908543 54.615759 
L 583.325137 51.39815 
L 585.741732 49.633099 
L 588.158326 44.965964 
L 590.57492 38.877347 
L 592.991514 34.638674 
L 595.408109 35.473868 
L 597.824703 46.547966 
L 600.241297 49.377581 
L 602.657891 51.269296 
L 605.074486 49.453125 
L 607.49108 46.727267 
L 609.907674 49.298836 
L 612.324503 52.234061 
L 614.741097 52.456397 
L 617.157692 54.9336 
L 619.574286 59.49003 
L 621.99088 60.21254 
L 624.407474 55.922956 
L 626.824069 51.922958 
L 629.240663 52.385401 
L 631.657257 54.098531 
L 634.073851 58.27341 
L 636.490446 62.751769 
L 638.90704 66.165902 
L 641.323634 66.810468 
L 643.740463 68.990926 
L 646.157057 63.950072 
L 648.573652 58.02467 
L 650.990246 57.381157 
L 653.40684 58.972339 
L 655.823434 59.497778 
L 658.240029 61.471227 
L 660.656623 63.202296 
L 663.073217 64.007172 
L 665.489811 64.924816 
L 667.906406 64.306947 
L 670.323 62.229951 
" clip-path="url(#p1e73a9da4c)" style="fill: none; stroke: #808080; stroke-width: 2; stroke-linecap: square"/>
   </g>
   <g id="line2d_20">
    <path d="M 527.743 78.755348 
L 530.159594 80.964299 
L 532.576189 81.944984 
L 534.992783 80.041494 
L 537.409377 79.352571 
L 539.825971 82.285321 
L 542.242566 82.194764 
L 544.659394 78.206699 
L 547.075989 78.047646 
L 549.492583 79.934441 
L 551.909177 79.951451 
L 554.325771 76.561065 
L 556.742366 72.334379 
L 559.15896 74.774788 
L 561.575554 76.886705 
L 563.992149 78.676378 
L 566.408743 80.338307 
L 568.825337 83.290721 
L 571.241931 83.799585 
L 573.658526 80.900142 
L 576.07512 78.456821 
L 578.491949 76.737213 
L 580.908543 74.334619 
L 583.325137 71.327095 
L 585.741732 67.647202 
L 588.158326 61.835301 
L 590.57492 58.075269 
L 592.991514 59.891256 
L 595.408109 63.231097 
L 597.824703 66.652077 
L 600.241297 67.633304 
L 602.657891 64.472264 
L 605.074486 62.294992 
L 607.49108 65.96304 
L 609.907674 71.596568 
L 612.324503 70.558718 
L 614.741097 70.635604 
L 617.157692 71.900602 
L 619.574286 73.216201 
L 621.99088 72.677912 
L 624.407474 75.036698 
L 626.824069 77.129122 
L 629.240663 77.644807 
L 631.657257 78.432934 
L 634.073851 79.989722 
L 636.490446 78.885461 
L 638.90704 76.830338 
L 641.323634 76.218702 
L 643.740463 77.092962 
L 646.157057 80.444932 
L 648.573652 80.561374 
L 650.990246 78.134921 
L 653.40684 75.649961 
L 655.823434 77.90646 
L 658.240029 78.973363 
L 660.656623 78.225963 
L 663.073217 78.635024 
L 665.489811 79.268921 
L 667.906406 81.786616 
L 670.323 80.110988 
" clip-path="url(#p1e73a9da4c)" style="fill: none; stroke: #35db09; stroke-width: 2; stroke-linecap: square"/>
   </g>
   <g id="patch_12">
    <path d="M 520.614 120.52 
L 520.614 7.2 
" style="fill: none; stroke: #000000; stroke-width: 0.8; stroke-linejoin: miter; stroke-linecap: square"/>
   </g>
   <g id="patch_13">
    <path d="M 520.614 120.52 
L 677.452 120.52 
" style="fill: none; stroke: #000000; stroke-width: 0.8; stroke-linejoin: miter; stroke-linecap: square"/>
   </g>
  </g>
  <g id="axes_5">
   <g id="patch_14">
    <path d="M 691.752 120.52 
L 848.59 120.52 
L 848.59 7.2 
L 691.752 7.2 
z
" style="fill: #ffffff"/>
   </g>
   <g id="PolyCollection_9"/>
   <g id="PolyCollection_10"/>
   <g id="matplotlib.axis_9"/>
   <g id="matplotlib.axis_10">
    <g id="ytick_13">
     <g id="line2d_21">
      <g>
       <use xlink:href="#mf8e1c96955" x="691.752" y="111.076667" style="stroke: #000000; stroke-width: 0.8"/>
      </g>
     </g>
    </g>
    <g id="ytick_14">
     <g id="line2d_22">
      <g>
       <use xlink:href="#mf8e1c96955" x="691.752" y="63.86" style="stroke: #000000; stroke-width: 0.8"/>
      </g>
     </g>
    </g>
    <g id="ytick_15">
     <g id="line2d_23">
      <g>
       <use xlink:href="#mf8e1c96955" x="691.752" y="16.643333" style="stroke: #000000; stroke-width: 0.8"/>
      </g>
     </g>
    </g>
   </g>
   <g id="line2d_24">
    <path d="M 698.881 68.967429 
L 701.297594 63.829681 
L 703.714189 60.382198 
L 706.130783 61.439561 
L 708.547377 67.003033 
L 710.963971 67.385806 
L 713.380566 64.039385 
L 715.797394 61.964242 
L 718.213989 64.284882 
L 720.630583 68.737092 
L 723.047177 71.921813 
L 725.463771 73.006547 
L 727.880366 68.31221 
L 730.29696 62.019826 
L 732.713554 52.22227 
L 735.130149 50.796872 
L 737.546743 53.330585 
L 739.963337 55.184234 
L 742.379931 55.656699 
L 744.796526 59.853306 
L 747.21312 59.203982 
L 749.629949 56.930504 
L 752.046543 56.948611 
L 754.463137 57.18358 
L 756.879732 54.049811 
L 759.296326 47.890914 
L 761.71292 43.220578 
L 764.129514 37.232645 
L 766.546109 29.70604 
L 768.962703 25.025598 
L 771.379297 23.077625 
L 773.795891 22.118797 
L 776.212486 25.90905 
L 778.62908 27.806913 
L 781.045674 26.434573 
L 783.462503 29.203256 
L 785.879097 35.469531 
L 788.295692 41.687802 
L 790.712286 42.74685 
L 793.12888 49.005124 
L 795.545474 57.017249 
L 797.962069 61.058051 
L 800.378663 65.499734 
L 802.795257 70.427778 
L 805.211851 72.479761 
L 807.628446 72.8339 
L 810.04504 66.123372 
L 812.461634 62.010983 
L 814.878463 63.721461 
L 817.295057 68.267574 
L 819.711652 74.663546 
L 822.128246 76.883966 
L 824.54484 73.162352 
L 826.961434 69.88878 
L 829.378029 66.92471 
L 831.794623 64.668918 
L 834.211217 66.10358 
L 836.627811 69.693814 
L 839.044406 71.981188 
L 841.461 72.336168 
" clip-path="url(#p41fb709633)" style="fill: none; stroke: #808080; stroke-width: 2; stroke-linecap: square"/>
   </g>
   <g id="line2d_25">
    <path d="M 698.881 76.258115 
L 701.297594 77.649431 
L 703.714189 78.293859 
L 706.130783 79.768225 
L 708.547377 81.449219 
L 710.963971 81.956657 
L 713.380566 79.203708 
L 715.797394 75.810897 
L 718.213989 75.083703 
L 720.630583 78.640332 
L 723.047177 79.884953 
L 725.463771 77.214769 
L 727.880366 75.229256 
L 730.29696 76.273812 
L 732.713554 76.043211 
L 735.130149 74.78375 
L 737.546743 77.118876 
L 739.963337 79.834723 
L 742.379931 80.559919 
L 744.796526 78.271027 
L 747.21312 79.342126 
L 749.629949 80.367561 
L 752.046543 79.839289 
L 754.463137 78.021589 
L 756.879732 75.093692 
L 759.296326 69.553832 
L 761.71292 64.193488 
L 764.129514 59.417067 
L 766.546109 53.341801 
L 768.962703 44.932835 
L 771.379297 46.289617 
L 773.795891 52.853485 
L 776.212486 58.733254 
L 778.62908 59.195884 
L 781.045674 56.057933 
L 783.462503 59.25753 
L 785.879097 69.789 
L 788.295692 76.710186 
L 790.712286 80.154368 
L 793.12888 81.028257 
L 795.545474 80.243698 
L 797.962069 80.376408 
L 800.378663 80.348724 
L 802.795257 81.362743 
L 805.211851 83.801469 
L 807.628446 84.706466 
L 810.04504 81.36417 
L 812.461634 79.806183 
L 814.878463 80.71489 
L 817.295057 82.437838 
L 819.711652 81.192361 
L 822.128246 78.860374 
L 824.54484 80.755702 
L 826.961434 81.477473 
L 829.378029 82.016019 
L 831.794623 84.109128 
L 834.211217 82.954122 
L 836.627811 78.999934 
L 839.044406 80.464596 
L 841.461 84.106559 
" clip-path="url(#p41fb709633)" style="fill: none; stroke: #35db09; stroke-width: 2; stroke-linecap: square"/>
   </g>
   <g id="patch_15">
    <path d="M 691.752 120.52 
L 691.752 7.2 
" style="fill: none; stroke: #000000; stroke-width: 0.8; stroke-linejoin: miter; stroke-linecap: square"/>
   </g>
   <g id="patch_16">
    <path d="M 691.752 120.52 
L 848.59 120.52 
" style="fill: none; stroke: #000000; stroke-width: 0.8; stroke-linejoin: miter; stroke-linecap: square"/>
   </g>
  </g>
 </g>
 <defs>
  <clipPath id="p5c681d3562">
   <rect x="7.2" y="7.2" width="156.838" height="113.32"/>
  </clipPath>
  <clipPath id="p38102dd353">
   <rect x="178.338" y="7.2" width="156.838" height="113.32"/>
  </clipPath>
  <clipPath id="p16323d1d81">
   <rect x="349.476" y="7.2" width="156.838" height="113.32"/>
  </clipPath>
  <clipPath id="p1e73a9da4c">
   <rect x="520.614" y="7.2" width="156.838" height="113.32"/>
  </clipPath>
  <clipPath id="p41fb709633">
   <rect x="691.752" y="7.2" width="156.838" height="113.32"/>
  </clipPath>
 </defs>
</svg>
