<?xml version="1.0" encoding="utf-8" standalone="no"?>
<!DOCTYPE svg PUBLIC "-//W3C//DTD SVG 1.1//EN"
  "http://www.w3.org/Graphics/SVG/1.1/DTD/svg11.dtd">
<svg xmlns:xlink="http://www.w3.org/1999/xlink" width="551.841406pt" height="331.864344pt" viewBox="0 0 551.841406 331.864344" xmlns="http://www.w3.org/2000/svg" version="1.1">
 <metadata>
  <rdf:RDF xmlns:dc="http://purl.org/dc/elements/1.1/" xmlns:cc="http://creativecommons.org/ns#" xmlns:rdf="http://www.w3.org/1999/02/22-rdf-syntax-ns#">
   <cc:Work>
    <dc:type rdf:resource="http://purl.org/dc/dcmitype/StillImage"/>
    <dc:date>2024-12-11T14:20:38.297710</dc:date>
    <dc:format>image/svg+xml</dc:format>
    <dc:creator>
     <cc:Agent>
      <dc:title>Matplotlib v3.7.2, https://matplotlib.org/</dc:title>
     </cc:Agent>
    </dc:creator>
   </cc:Work>
  </rdf:RDF>
 </metadata>
 <defs>
  <style type="text/css">*{stroke-linejoin: round; stroke-linecap: butt}</style>
 </defs>
 <g id="figure_1">
  <g id="patch_1">
   <path d="M 0 331.864344 
L 551.841406 331.864344 
L 551.841406 0 
L 0 0 
z
" style="fill: #ffffff"/>
  </g>
  <g id="axes_1">
   <g id="patch_2">
    <path d="M 97.360703 298.308094 
L 454.480703 298.308094 
L 454.480703 32.196094 
L 97.360703 32.196094 
z
" style="fill: #ffffff"/>
   </g>
   <g id="matplotlib.axis_1">
    <g id="xtick_1">
     <g id="line2d_1">
      <defs>
       <path id="macdf6b1717" d="M 0 0 
L 0 3.5 
" style="stroke: #000000; stroke-width: 0.8"/>
      </defs>
      <g>
       <use xlink:href="#macdf6b1717" x="186.640703" y="298.308094" style="stroke: #000000; stroke-width: 0.8"/>
      </g>
     </g>
     <g id="text_1">
      <!-- interphase -->
      <g transform="translate(133.164141 320.504969) scale(0.2 -0.2)">
       <defs>
        <path id="DejaVuSans-69" d="M 603 3500 
L 1178 3500 
L 1178 0 
L 603 0 
L 603 3500 
z
M 603 4863 
L 1178 4863 
L 1178 4134 
L 603 4134 
L 603 4863 
z
" transform="scale(0.015625)"/>
        <path id="DejaVuSans-6e" d="M 3513 2113 
L 3513 0 
L 2938 0 
L 2938 2094 
Q 2938 2591 2744 2837 
Q 2550 3084 2163 3084 
Q 1697 3084 1428 2787 
Q 1159 2491 1159 1978 
L 1159 0 
L 581 0 
L 581 3500 
L 1159 3500 
L 1159 2956 
Q 1366 3272 1645 3428 
Q 1925 3584 2291 3584 
Q 2894 3584 3203 3211 
Q 3513 2838 3513 2113 
z
" transform="scale(0.015625)"/>
        <path id="DejaVuSans-74" d="M 1172 4494 
L 1172 3500 
L 2356 3500 
L 2356 3053 
L 1172 3053 
L 1172 1153 
Q 1172 725 1289 603 
Q 1406 481 1766 481 
L 2356 481 
L 2356 0 
L 1766 0 
Q 1100 0 847 248 
Q 594 497 594 1153 
L 594 3053 
L 172 3053 
L 172 3500 
L 594 3500 
L 594 4494 
L 1172 4494 
z
" transform="scale(0.015625)"/>
        <path id="DejaVuSans-65" d="M 3597 1894 
L 3597 1613 
L 953 1613 
Q 991 1019 1311 708 
Q 1631 397 2203 397 
Q 2534 397 2845 478 
Q 3156 559 3463 722 
L 3463 178 
Q 3153 47 2828 -22 
Q 2503 -91 2169 -91 
Q 1331 -91 842 396 
Q 353 884 353 1716 
Q 353 2575 817 3079 
Q 1281 3584 2069 3584 
Q 2775 3584 3186 3129 
Q 3597 2675 3597 1894 
z
M 3022 2063 
Q 3016 2534 2758 2815 
Q 2500 3097 2075 3097 
Q 1594 3097 1305 2825 
Q 1016 2553 972 2059 
L 3022 2063 
z
" transform="scale(0.015625)"/>
        <path id="DejaVuSans-72" d="M 2631 2963 
Q 2534 3019 2420 3045 
Q 2306 3072 2169 3072 
Q 1681 3072 1420 2755 
Q 1159 2438 1159 1844 
L 1159 0 
L 581 0 
L 581 3500 
L 1159 3500 
L 1159 2956 
Q 1341 3275 1631 3429 
Q 1922 3584 2338 3584 
Q 2397 3584 2469 3576 
Q 2541 3569 2628 3553 
L 2631 2963 
z
" transform="scale(0.015625)"/>
        <path id="DejaVuSans-70" d="M 1159 525 
L 1159 -1331 
L 581 -1331 
L 581 3500 
L 1159 3500 
L 1159 2969 
Q 1341 3281 1617 3432 
Q 1894 3584 2278 3584 
Q 2916 3584 3314 3078 
Q 3713 2572 3713 1747 
Q 3713 922 3314 415 
Q 2916 -91 2278 -91 
Q 1894 -91 1617 61 
Q 1341 213 1159 525 
z
M 3116 1747 
Q 3116 2381 2855 2742 
Q 2594 3103 2138 3103 
Q 1681 3103 1420 2742 
Q 1159 2381 1159 1747 
Q 1159 1113 1420 752 
Q 1681 391 2138 391 
Q 2594 391 2855 752 
Q 3116 1113 3116 1747 
z
" transform="scale(0.015625)"/>
        <path id="DejaVuSans-68" d="M 3513 2113 
L 3513 0 
L 2938 0 
L 2938 2094 
Q 2938 2591 2744 2837 
Q 2550 3084 2163 3084 
Q 1697 3084 1428 2787 
Q 1159 2491 1159 1978 
L 1159 0 
L 581 0 
L 581 4863 
L 1159 4863 
L 1159 2956 
Q 1366 3272 1645 3428 
Q 1925 3584 2291 3584 
Q 2894 3584 3203 3211 
Q 3513 2838 3513 2113 
z
" transform="scale(0.015625)"/>
        <path id="DejaVuSans-61" d="M 2194 1759 
Q 1497 1759 1228 1600 
Q 959 1441 959 1056 
Q 959 750 1161 570 
Q 1363 391 1709 391 
Q 2188 391 2477 730 
Q 2766 1069 2766 1631 
L 2766 1759 
L 2194 1759 
z
M 3341 1997 
L 3341 0 
L 2766 0 
L 2766 531 
Q 2569 213 2275 61 
Q 1981 -91 1556 -91 
Q 1019 -91 701 211 
Q 384 513 384 1019 
Q 384 1609 779 1909 
Q 1175 2209 1959 2209 
L 2766 2209 
L 2766 2266 
Q 2766 2663 2505 2880 
Q 2244 3097 1772 3097 
Q 1472 3097 1187 3025 
Q 903 2953 641 2809 
L 641 3341 
Q 956 3463 1253 3523 
Q 1550 3584 1831 3584 
Q 2591 3584 2966 3190 
Q 3341 2797 3341 1997 
z
" transform="scale(0.015625)"/>
        <path id="DejaVuSans-73" d="M 2834 3397 
L 2834 2853 
Q 2591 2978 2328 3040 
Q 2066 3103 1784 3103 
Q 1356 3103 1142 2972 
Q 928 2841 928 2578 
Q 928 2378 1081 2264 
Q 1234 2150 1697 2047 
L 1894 2003 
Q 2506 1872 2764 1633 
Q 3022 1394 3022 966 
Q 3022 478 2636 193 
Q 2250 -91 1575 -91 
Q 1294 -91 989 -36 
Q 684 19 347 128 
L 347 722 
Q 666 556 975 473 
Q 1284 391 1588 391 
Q 1994 391 2212 530 
Q 2431 669 2431 922 
Q 2431 1156 2273 1281 
Q 2116 1406 1581 1522 
L 1381 1569 
Q 847 1681 609 1914 
Q 372 2147 372 2553 
Q 372 3047 722 3315 
Q 1072 3584 1716 3584 
Q 2034 3584 2315 3537 
Q 2597 3491 2834 3397 
z
" transform="scale(0.015625)"/>
       </defs>
       <use xlink:href="#DejaVuSans-69"/>
       <use xlink:href="#DejaVuSans-6e" x="27.783203"/>
       <use xlink:href="#DejaVuSans-74" x="91.162109"/>
       <use xlink:href="#DejaVuSans-65" x="130.371094"/>
       <use xlink:href="#DejaVuSans-72" x="191.894531"/>
       <use xlink:href="#DejaVuSans-70" x="233.007812"/>
       <use xlink:href="#DejaVuSans-68" x="296.484375"/>
       <use xlink:href="#DejaVuSans-61" x="359.863281"/>
       <use xlink:href="#DejaVuSans-73" x="421.142578"/>
       <use xlink:href="#DejaVuSans-65" x="473.242188"/>
      </g>
     </g>
    </g>
    <g id="xtick_2">
     <g id="line2d_2">
      <g>
       <use xlink:href="#macdf6b1717" x="365.200703" y="298.308094" style="stroke: #000000; stroke-width: 0.8"/>
      </g>
     </g>
     <g id="text_2">
      <!-- prometaphase -->
      <g transform="translate(292.728828 320.504969) scale(0.2 -0.2)">
       <defs>
        <path id="DejaVuSans-6f" d="M 1959 3097 
Q 1497 3097 1228 2736 
Q 959 2375 959 1747 
Q 959 1119 1226 758 
Q 1494 397 1959 397 
Q 2419 397 2687 759 
Q 2956 1122 2956 1747 
Q 2956 2369 2687 2733 
Q 2419 3097 1959 3097 
z
M 1959 3584 
Q 2709 3584 3137 3096 
Q 3566 2609 3566 1747 
Q 3566 888 3137 398 
Q 2709 -91 1959 -91 
Q 1206 -91 779 398 
Q 353 888 353 1747 
Q 353 2609 779 3096 
Q 1206 3584 1959 3584 
z
" transform="scale(0.015625)"/>
        <path id="DejaVuSans-6d" d="M 3328 2828 
Q 3544 3216 3844 3400 
Q 4144 3584 4550 3584 
Q 5097 3584 5394 3201 
Q 5691 2819 5691 2113 
L 5691 0 
L 5113 0 
L 5113 2094 
Q 5113 2597 4934 2840 
Q 4756 3084 4391 3084 
Q 3944 3084 3684 2787 
Q 3425 2491 3425 1978 
L 3425 0 
L 2847 0 
L 2847 2094 
Q 2847 2600 2669 2842 
Q 2491 3084 2119 3084 
Q 1678 3084 1418 2786 
Q 1159 2488 1159 1978 
L 1159 0 
L 581 0 
L 581 3500 
L 1159 3500 
L 1159 2956 
Q 1356 3278 1631 3431 
Q 1906 3584 2284 3584 
Q 2666 3584 2933 3390 
Q 3200 3197 3328 2828 
z
" transform="scale(0.015625)"/>
       </defs>
       <use xlink:href="#DejaVuSans-70"/>
       <use xlink:href="#DejaVuSans-72" x="63.476562"/>
       <use xlink:href="#DejaVuSans-6f" x="102.339844"/>
       <use xlink:href="#DejaVuSans-6d" x="163.521484"/>
       <use xlink:href="#DejaVuSans-65" x="260.933594"/>
       <use xlink:href="#DejaVuSans-74" x="322.457031"/>
       <use xlink:href="#DejaVuSans-61" x="361.666016"/>
       <use xlink:href="#DejaVuSans-70" x="422.945312"/>
       <use xlink:href="#DejaVuSans-68" x="486.421875"/>
       <use xlink:href="#DejaVuSans-61" x="549.800781"/>
       <use xlink:href="#DejaVuSans-73" x="611.080078"/>
       <use xlink:href="#DejaVuSans-65" x="663.179688"/>
      </g>
     </g>
    </g>
   </g>
   <g id="matplotlib.axis_2">
    <g id="ytick_1">
     <g id="line2d_3">
      <defs>
       <path id="m1a1f0ad6c0" d="M 0 0 
L -3.5 0 
" style="stroke: #000000; stroke-width: 0.8"/>
      </defs>
      <g>
       <use xlink:href="#m1a1f0ad6c0" x="97.360703" y="298.308094" style="stroke: #000000; stroke-width: 0.8"/>
      </g>
     </g>
     <g id="text_3">
      <!-- 0 -->
      <g transform="translate(80.816953 304.006922) scale(0.15 -0.15)">
       <defs>
        <path id="DejaVuSans-30" d="M 2034 4250 
Q 1547 4250 1301 3770 
Q 1056 3291 1056 2328 
Q 1056 1369 1301 889 
Q 1547 409 2034 409 
Q 2525 409 2770 889 
Q 3016 1369 3016 2328 
Q 3016 3291 2770 3770 
Q 2525 4250 2034 4250 
z
M 2034 4750 
Q 2819 4750 3233 4129 
Q 3647 3509 3647 2328 
Q 3647 1150 3233 529 
Q 2819 -91 2034 -91 
Q 1250 -91 836 529 
Q 422 1150 422 2328 
Q 422 3509 836 4129 
Q 1250 4750 2034 4750 
z
" transform="scale(0.015625)"/>
       </defs>
       <use xlink:href="#DejaVuSans-30"/>
      </g>
     </g>
    </g>
    <g id="ytick_2">
     <g id="line2d_4">
      <g>
       <use xlink:href="#m1a1f0ad6c0" x="97.360703" y="245.085694" style="stroke: #000000; stroke-width: 0.8"/>
      </g>
     </g>
     <g id="text_4">
      <!-- 2 -->
      <g transform="translate(80.816953 250.784522) scale(0.15 -0.15)">
       <defs>
        <path id="DejaVuSans-32" d="M 1228 531 
L 3431 531 
L 3431 0 
L 469 0 
L 469 531 
Q 828 903 1448 1529 
Q 2069 2156 2228 2338 
Q 2531 2678 2651 2914 
Q 2772 3150 2772 3378 
Q 2772 3750 2511 3984 
Q 2250 4219 1831 4219 
Q 1534 4219 1204 4116 
Q 875 4013 500 3803 
L 500 4441 
Q 881 4594 1212 4672 
Q 1544 4750 1819 4750 
Q 2544 4750 2975 4387 
Q 3406 4025 3406 3419 
Q 3406 3131 3298 2873 
Q 3191 2616 2906 2266 
Q 2828 2175 2409 1742 
Q 1991 1309 1228 531 
z
" transform="scale(0.015625)"/>
       </defs>
       <use xlink:href="#DejaVuSans-32"/>
      </g>
     </g>
    </g>
    <g id="ytick_3">
     <g id="line2d_5">
      <g>
       <use xlink:href="#m1a1f0ad6c0" x="97.360703" y="191.863294" style="stroke: #000000; stroke-width: 0.8"/>
      </g>
     </g>
     <g id="text_5">
      <!-- 4 -->
      <g transform="translate(80.816953 197.562122) scale(0.15 -0.15)">
       <defs>
        <path id="DejaVuSans-34" d="M 2419 4116 
L 825 1625 
L 2419 1625 
L 2419 4116 
z
M 2253 4666 
L 3047 4666 
L 3047 1625 
L 3713 1625 
L 3713 1100 
L 3047 1100 
L 3047 0 
L 2419 0 
L 2419 1100 
L 313 1100 
L 313 1709 
L 2253 4666 
z
" transform="scale(0.015625)"/>
       </defs>
       <use xlink:href="#DejaVuSans-34"/>
      </g>
     </g>
    </g>
    <g id="ytick_4">
     <g id="line2d_6">
      <g>
       <use xlink:href="#m1a1f0ad6c0" x="97.360703" y="138.640894" style="stroke: #000000; stroke-width: 0.8"/>
      </g>
     </g>
     <g id="text_6">
      <!-- 6 -->
      <g transform="translate(80.816953 144.339722) scale(0.15 -0.15)">
       <defs>
        <path id="DejaVuSans-36" d="M 2113 2584 
Q 1688 2584 1439 2293 
Q 1191 2003 1191 1497 
Q 1191 994 1439 701 
Q 1688 409 2113 409 
Q 2538 409 2786 701 
Q 3034 994 3034 1497 
Q 3034 2003 2786 2293 
Q 2538 2584 2113 2584 
z
M 3366 4563 
L 3366 3988 
Q 3128 4100 2886 4159 
Q 2644 4219 2406 4219 
Q 1781 4219 1451 3797 
Q 1122 3375 1075 2522 
Q 1259 2794 1537 2939 
Q 1816 3084 2150 3084 
Q 2853 3084 3261 2657 
Q 3669 2231 3669 1497 
Q 3669 778 3244 343 
Q 2819 -91 2113 -91 
Q 1303 -91 875 529 
Q 447 1150 447 2328 
Q 447 3434 972 4092 
Q 1497 4750 2381 4750 
Q 2619 4750 2861 4703 
Q 3103 4656 3366 4563 
z
" transform="scale(0.015625)"/>
       </defs>
       <use xlink:href="#DejaVuSans-36"/>
      </g>
     </g>
    </g>
    <g id="ytick_5">
     <g id="line2d_7">
      <g>
       <use xlink:href="#m1a1f0ad6c0" x="97.360703" y="85.418494" style="stroke: #000000; stroke-width: 0.8"/>
      </g>
     </g>
     <g id="text_7">
      <!-- 8 -->
      <g transform="translate(80.816953 91.117322) scale(0.15 -0.15)">
       <defs>
        <path id="DejaVuSans-38" d="M 2034 2216 
Q 1584 2216 1326 1975 
Q 1069 1734 1069 1313 
Q 1069 891 1326 650 
Q 1584 409 2034 409 
Q 2484 409 2743 651 
Q 3003 894 3003 1313 
Q 3003 1734 2745 1975 
Q 2488 2216 2034 2216 
z
M 1403 2484 
Q 997 2584 770 2862 
Q 544 3141 544 3541 
Q 544 4100 942 4425 
Q 1341 4750 2034 4750 
Q 2731 4750 3128 4425 
Q 3525 4100 3525 3541 
Q 3525 3141 3298 2862 
Q 3072 2584 2669 2484 
Q 3125 2378 3379 2068 
Q 3634 1759 3634 1313 
Q 3634 634 3220 271 
Q 2806 -91 2034 -91 
Q 1263 -91 848 271 
Q 434 634 434 1313 
Q 434 1759 690 2068 
Q 947 2378 1403 2484 
z
M 1172 3481 
Q 1172 3119 1398 2916 
Q 1625 2713 2034 2713 
Q 2441 2713 2670 2916 
Q 2900 3119 2900 3481 
Q 2900 3844 2670 4047 
Q 2441 4250 2034 4250 
Q 1625 4250 1398 4047 
Q 1172 3844 1172 3481 
z
" transform="scale(0.015625)"/>
       </defs>
       <use xlink:href="#DejaVuSans-38"/>
      </g>
     </g>
    </g>
    <g id="ytick_6">
     <g id="line2d_8">
      <g>
       <use xlink:href="#m1a1f0ad6c0" x="97.360703" y="32.196094" style="stroke: #000000; stroke-width: 0.8"/>
      </g>
     </g>
     <g id="text_8">
      <!-- 10 -->
      <g transform="translate(71.273203 37.894922) scale(0.15 -0.15)">
       <defs>
        <path id="DejaVuSans-31" d="M 794 531 
L 1825 531 
L 1825 4091 
L 703 3866 
L 703 4441 
L 1819 4666 
L 2450 4666 
L 2450 531 
L 3481 531 
L 3481 0 
L 794 0 
L 794 531 
z
" transform="scale(0.015625)"/>
       </defs>
       <use xlink:href="#DejaVuSans-31"/>
       <use xlink:href="#DejaVuSans-30" x="63.623047"/>
      </g>
     </g>
    </g>
   </g>
   <g id="patch_3">
    <path d="M 115.216703 180.34774 
L 186.640703 180.34774 
L 186.640703 142.197924 
L 115.216703 142.197924 
L 115.216703 180.34774 
z
" clip-path="url(#p39d14c3227)" style="fill: #ffffff; stroke: #999999; stroke-linejoin: miter"/>
   </g>
   <g id="line2d_9">
    <path d="M 150.928703 180.34774 
L 150.928703 197.297301 
" clip-path="url(#p39d14c3227)" style="fill: none; stroke: #999999"/>
   </g>
   <g id="line2d_10">
    <path d="M 150.928703 142.197924 
L 150.928703 122.608533 
" clip-path="url(#p39d14c3227)" style="fill: none; stroke: #999999"/>
   </g>
   <g id="line2d_11">
    <path d="M 133.072703 197.297301 
L 168.784703 197.297301 
" clip-path="url(#p39d14c3227)" style="fill: none; stroke: #999999; stroke-linecap: square"/>
   </g>
   <g id="line2d_12">
    <path d="M 133.072703 122.608533 
L 168.784703 122.608533 
" clip-path="url(#p39d14c3227)" style="fill: none; stroke: #999999; stroke-linecap: square"/>
   </g>
   <g id="line2d_13"/>
   <g id="patch_4">
    <path d="M 293.776703 197.06534 
L 365.200703 197.06534 
L 365.200703 166.862958 
L 293.776703 166.862958 
L 293.776703 197.06534 
z
" clip-path="url(#p39d14c3227)" style="fill: #ffffff; stroke: #999999; stroke-linejoin: miter"/>
   </g>
   <g id="line2d_14">
    <path d="M 329.488703 197.06534 
L 329.488703 200.659182 
" clip-path="url(#p39d14c3227)" style="fill: none; stroke: #999999"/>
   </g>
   <g id="line2d_15">
    <path d="M 329.488703 166.862958 
L 329.488703 140.853172 
" clip-path="url(#p39d14c3227)" style="fill: none; stroke: #999999"/>
   </g>
   <g id="line2d_16">
    <path d="M 311.632703 200.659182 
L 347.344703 200.659182 
" clip-path="url(#p39d14c3227)" style="fill: none; stroke: #999999; stroke-linecap: square"/>
   </g>
   <g id="line2d_17">
    <path d="M 311.632703 140.853172 
L 347.344703 140.853172 
" clip-path="url(#p39d14c3227)" style="fill: none; stroke: #999999; stroke-linecap: square"/>
   </g>
   <g id="line2d_18">
    <defs>
     <path id="mb9dc013c7b" d="M 0 3 
C 0.795609 3 1.55874 2.683901 2.12132 2.12132 
C 2.683901 1.55874 3 0.795609 3 0 
C 3 -0.795609 2.683901 -1.55874 2.12132 -2.12132 
C 1.55874 -2.683901 0.795609 -3 0 -3 
C -0.795609 -3 -1.55874 -2.683901 -2.12132 -2.12132 
C -2.683901 -1.55874 -3 -0.795609 -3 0 
C -3 0.795609 -2.683901 1.55874 -2.12132 2.12132 
C -1.55874 2.683901 -0.795609 3 0 3 
z
" style="stroke: #999999"/>
    </defs>
    <g clip-path="url(#p39d14c3227)">
     <use xlink:href="#mb9dc013c7b" x="329.488703" y="252.18911" style="fill-opacity: 0; stroke: #999999"/>
    </g>
   </g>
   <g id="patch_5">
    <path d="M 186.640703 256.391906 
L 258.064703 256.391906 
L 258.064703 215.861274 
L 186.640703 215.861274 
L 186.640703 256.391906 
z
" clip-path="url(#p39d14c3227)" style="fill: #ffffff; stroke: #999999; stroke-linejoin: miter"/>
   </g>
   <g id="line2d_19">
    <path d="M 222.352703 256.391906 
L 222.352703 277.702155 
" clip-path="url(#p39d14c3227)" style="fill: none; stroke: #999999"/>
   </g>
   <g id="line2d_20">
    <path d="M 222.352703 215.861274 
L 222.352703 165.548365 
" clip-path="url(#p39d14c3227)" style="fill: none; stroke: #999999"/>
   </g>
   <g id="line2d_21">
    <path d="M 204.496703 277.702155 
L 240.208703 277.702155 
" clip-path="url(#p39d14c3227)" style="fill: none; stroke: #999999; stroke-linecap: square"/>
   </g>
   <g id="line2d_22">
    <path d="M 204.496703 165.548365 
L 240.208703 165.548365 
" clip-path="url(#p39d14c3227)" style="fill: none; stroke: #999999; stroke-linecap: square"/>
   </g>
   <g id="line2d_23">
    <g clip-path="url(#p39d14c3227)">
     <use xlink:href="#mb9dc013c7b" x="222.352703" y="144.86614" style="fill-opacity: 0; stroke: #999999"/>
    </g>
   </g>
   <g id="patch_6">
    <path d="M 365.200703 202.211502 
L 436.624703 202.211502 
L 436.624703 124.498815 
L 365.200703 124.498815 
L 365.200703 202.211502 
z
" clip-path="url(#p39d14c3227)" style="fill: #ffffff; stroke: #999999; stroke-linejoin: miter"/>
   </g>
   <g id="line2d_24">
    <path d="M 400.912703 202.211502 
L 400.912703 256.461095 
" clip-path="url(#p39d14c3227)" style="fill: none; stroke: #999999"/>
   </g>
   <g id="line2d_25">
    <path d="M 400.912703 124.498815 
L 400.912703 82.650929 
" clip-path="url(#p39d14c3227)" style="fill: none; stroke: #999999"/>
   </g>
   <g id="line2d_26">
    <path d="M 383.056703 256.461095 
L 418.768703 256.461095 
" clip-path="url(#p39d14c3227)" style="fill: none; stroke: #999999; stroke-linecap: square"/>
   </g>
   <g id="line2d_27">
    <path d="M 383.056703 82.650929 
L 418.768703 82.650929 
" clip-path="url(#p39d14c3227)" style="fill: none; stroke: #999999; stroke-linecap: square"/>
   </g>
   <g id="line2d_28"/>
   <g id="line2d_29">
    <path d="M 115.216703 168.800254 
L 186.640703 168.800254 
" clip-path="url(#p39d14c3227)" style="fill: none; stroke: #999999"/>
   </g>
   <g id="line2d_30">
    <path d="M 293.776703 186.657256 
L 365.200703 186.657256 
" clip-path="url(#p39d14c3227)" style="fill: none; stroke: #999999"/>
   </g>
   <g id="line2d_31">
    <path d="M 186.640703 233.236613 
L 258.064703 233.236613 
" clip-path="url(#p39d14c3227)" style="fill: none; stroke: #999999"/>
   </g>
   <g id="line2d_32">
    <path d="M 365.200703 172.257936 
L 436.624703 172.257936 
" clip-path="url(#p39d14c3227)" style="fill: none; stroke: #999999"/>
   </g>
   <g id="patch_7">
    <path d="M 97.360703 298.308094 
L 97.360703 32.196094 
" style="fill: none; stroke: #000000; stroke-width: 0.8; stroke-linejoin: miter; stroke-linecap: square"/>
   </g>
   <g id="patch_8">
    <path d="M 454.480703 298.308094 
L 454.480703 32.196094 
" style="fill: none; stroke: #000000; stroke-width: 0.8; stroke-linejoin: miter; stroke-linecap: square"/>
   </g>
   <g id="patch_9">
    <path d="M 97.360703 298.308094 
L 454.480703 298.308094 
" style="fill: none; stroke: #000000; stroke-width: 0.8; stroke-linejoin: miter; stroke-linecap: square"/>
   </g>
   <g id="patch_10">
    <path d="M 97.360703 32.196094 
L 454.480703 32.196094 
" style="fill: none; stroke: #000000; stroke-width: 0.8; stroke-linejoin: miter; stroke-linecap: square"/>
   </g>
   <g id="PathCollection_1">
    <defs>
     <path id="C0_0_1e15bc6b5a" d="M 0 5 
C 1.326016 5 2.597899 4.473168 3.535534 3.535534 
C 4.473168 2.597899 5 1.326016 5 -0 
C 5 -1.326016 4.473168 -2.597899 3.535534 -3.535534 
C 2.597899 -4.473168 1.326016 -5 0 -5 
C -1.326016 -5 -2.597899 -4.473168 -3.535534 -3.535534 
C -4.473168 -2.597899 -5 -1.326016 -5 0 
C -5 1.326016 -4.473168 2.597899 -3.535534 3.535534 
C -2.597899 4.473168 -1.326016 5 0 5 
z
"/>
    </defs>
    <g clip-path="url(#p39d14c3227)">
     <use xlink:href="#C0_0_1e15bc6b5a" x="158.259213" y="197.297301" style="fill: #808080; stroke: #000000"/>
    </g>
    <g clip-path="url(#p39d14c3227)">
     <use xlink:href="#C0_0_1e15bc6b5a" x="142.030062" y="164.781963" style="fill: #808080; stroke: #000000"/>
    </g>
    <g clip-path="url(#p39d14c3227)">
     <use xlink:href="#C0_0_1e15bc6b5a" x="150.365772" y="197.162471" style="fill: #808080; stroke: #000000"/>
    </g>
    <g clip-path="url(#p39d14c3227)">
     <use xlink:href="#C0_0_1e15bc6b5a" x="143.907943" y="127.632727" style="fill: #808080; stroke: #000000"/>
    </g>
    <g clip-path="url(#p39d14c3227)">
     <use xlink:href="#C0_0_1e15bc6b5a" x="156.586988" y="180.040825" style="fill: #808080; stroke: #000000"/>
    </g>
    <g clip-path="url(#p39d14c3227)">
     <use xlink:href="#C0_0_1e15bc6b5a" x="147.505216" y="166.378635" style="fill: #808080; stroke: #000000"/>
    </g>
    <g clip-path="url(#p39d14c3227)">
     <use xlink:href="#C0_0_1e15bc6b5a" x="144.786549" y="168.800254" style="fill: #808080; stroke: #000000"/>
    </g>
    <g clip-path="url(#p39d14c3227)">
     <use xlink:href="#C0_0_1e15bc6b5a" x="153.162326" y="177.072789" style="fill: #808080; stroke: #000000"/>
    </g>
    <g clip-path="url(#p39d14c3227)">
     <use xlink:href="#C0_0_1e15bc6b5a" x="149.31668" y="142.432103" style="fill: #808080; stroke: #000000"/>
    </g>
    <g clip-path="url(#p39d14c3227)">
     <use xlink:href="#C0_0_1e15bc6b5a" x="151.10745" y="192.982738" style="fill: #808080; stroke: #000000"/>
    </g>
    <g clip-path="url(#p39d14c3227)">
     <use xlink:href="#C0_0_1e15bc6b5a" x="142.642285" y="122.608533" style="fill: #808080; stroke: #000000"/>
    </g>
    <g clip-path="url(#p39d14c3227)">
     <use xlink:href="#C0_0_1e15bc6b5a" x="147.082431" y="141.963746" style="fill: #808080; stroke: #000000"/>
    </g>
    <g clip-path="url(#p39d14c3227)">
     <use xlink:href="#C0_0_1e15bc6b5a" x="153.620523" y="175.124849" style="fill: #808080; stroke: #000000"/>
    </g>
    <g clip-path="url(#p39d14c3227)">
     <use xlink:href="#C0_0_1e15bc6b5a" x="154.238267" y="180.654656" style="fill: #808080; stroke: #000000"/>
    </g>
    <g clip-path="url(#p39d14c3227)">
     <use xlink:href="#C0_0_1e15bc6b5a" x="153.200291" y="128.729109" style="fill: #808080; stroke: #000000"/>
    </g>
   </g>
   <g id="PathCollection_2">
    <defs>
     <path id="C1_0_71a3aaaf0d" d="M 0 5 
C 1.326016 5 2.597899 4.473168 3.535534 3.535534 
C 4.473168 2.597899 5 1.326016 5 -0 
C 5 -1.326016 4.473168 -2.597899 3.535534 -3.535534 
C 2.597899 -4.473168 1.326016 -5 0 -5 
C -1.326016 -5 -2.597899 -4.473168 -3.535534 -3.535534 
C -4.473168 -2.597899 -5 -1.326016 -5 0 
C -5 1.326016 -4.473168 2.597899 -3.535534 3.535534 
C -2.597899 4.473168 -1.326016 5 0 5 
z
"/>
    </defs>
    <g clip-path="url(#p39d14c3227)">
     <use xlink:href="#C1_0_71a3aaaf0d" x="213.935951" y="187.303908" style="fill: #3386ff; stroke: #000000"/>
    </g>
    <g clip-path="url(#p39d14c3227)">
     <use xlink:href="#C1_0_71a3aaaf0d" x="226.482983" y="169.440697" style="fill: #3386ff; stroke: #000000"/>
    </g>
    <g clip-path="url(#p39d14c3227)">
     <use xlink:href="#C1_0_71a3aaaf0d" x="219.626203" y="221.591552" style="fill: #3386ff; stroke: #000000"/>
    </g>
    <g clip-path="url(#p39d14c3227)">
     <use xlink:href="#C1_0_71a3aaaf0d" x="226.316283" y="222.318925" style="fill: #3386ff; stroke: #000000"/>
    </g>
    <g clip-path="url(#p39d14c3227)">
     <use xlink:href="#C1_0_71a3aaaf0d" x="219.17201" y="172.898379" style="fill: #3386ff; stroke: #000000"/>
    </g>
    <g clip-path="url(#p39d14c3227)">
     <use xlink:href="#C1_0_71a3aaaf0d" x="229.037126" y="244.711363" style="fill: #3386ff; stroke: #000000"/>
    </g>
    <g clip-path="url(#p39d14c3227)">
     <use xlink:href="#C1_0_71a3aaaf0d" x="218.763554" y="233.236613" style="fill: #3386ff; stroke: #000000"/>
    </g>
    <g clip-path="url(#p39d14c3227)">
     <use xlink:href="#C1_0_71a3aaaf0d" x="219.078455" y="258.295493" style="fill: #3386ff; stroke: #000000"/>
    </g>
    <g clip-path="url(#p39d14c3227)">
     <use xlink:href="#C1_0_71a3aaaf0d" x="229.564276" y="243.5316" style="fill: #3386ff; stroke: #000000"/>
    </g>
    <g clip-path="url(#p39d14c3227)">
     <use xlink:href="#C1_0_71a3aaaf0d" x="216.013629" y="144.86614" style="fill: #3386ff; stroke: #000000"/>
    </g>
    <g clip-path="url(#p39d14c3227)">
     <use xlink:href="#C1_0_71a3aaaf0d" x="224.917368" y="210.130996" style="fill: #3386ff; stroke: #000000"/>
    </g>
    <g clip-path="url(#p39d14c3227)">
     <use xlink:href="#C1_0_71a3aaaf0d" x="227.892404" y="256.63318" style="fill: #3386ff; stroke: #000000"/>
    </g>
    <g clip-path="url(#p39d14c3227)">
     <use xlink:href="#C1_0_71a3aaaf0d" x="225.010262" y="223.184676" style="fill: #3386ff; stroke: #000000"/>
    </g>
    <g clip-path="url(#p39d14c3227)">
     <use xlink:href="#C1_0_71a3aaaf0d" x="219.771675" y="232.613911" style="fill: #3386ff; stroke: #000000"/>
    </g>
    <g clip-path="url(#p39d14c3227)">
     <use xlink:href="#C1_0_71a3aaaf0d" x="216.432053" y="264.479936" style="fill: #3386ff; stroke: #000000"/>
    </g>
    <g clip-path="url(#p39d14c3227)">
     <use xlink:href="#C1_0_71a3aaaf0d" x="227.52573" y="165.548365" style="fill: #3386ff; stroke: #000000"/>
    </g>
    <g clip-path="url(#p39d14c3227)">
     <use xlink:href="#C1_0_71a3aaaf0d" x="218.668891" y="240.810161" style="fill: #3386ff; stroke: #000000"/>
    </g>
    <g clip-path="url(#p39d14c3227)">
     <use xlink:href="#C1_0_71a3aaaf0d" x="225.89101" y="230.568397" style="fill: #3386ff; stroke: #000000"/>
    </g>
    <g clip-path="url(#p39d14c3227)">
     <use xlink:href="#C1_0_71a3aaaf0d" x="229.348963" y="262.507159" style="fill: #3386ff; stroke: #000000"/>
    </g>
    <g clip-path="url(#p39d14c3227)">
     <use xlink:href="#C1_0_71a3aaaf0d" x="217.128594" y="277.702155" style="fill: #3386ff; stroke: #000000"/>
    </g>
    <g clip-path="url(#p39d14c3227)">
     <use xlink:href="#C1_0_71a3aaaf0d" x="215.490987" y="260.763239" style="fill: #3386ff; stroke: #000000"/>
    </g>
    <g clip-path="url(#p39d14c3227)">
     <use xlink:href="#C1_0_71a3aaaf0d" x="221.20237" y="256.150631" style="fill: #3386ff; stroke: #000000"/>
    </g>
    <g clip-path="url(#p39d14c3227)">
     <use xlink:href="#C1_0_71a3aaaf0d" x="214.108981" y="247.565858" style="fill: #3386ff; stroke: #000000"/>
    </g>
   </g>
   <g id="PathCollection_3">
    <defs>
     <path id="C2_0_d43e20c76d" d="M 0 5 
C 1.326016 5 2.597899 4.473168 3.535534 3.535534 
C 4.473168 2.597899 5 1.326016 5 -0 
C 5 -1.326016 4.473168 -2.597899 3.535534 -3.535534 
C 2.597899 -4.473168 1.326016 -5 0 -5 
C -1.326016 -5 -2.597899 -4.473168 -3.535534 -3.535534 
C -4.473168 -2.597899 -5 -1.326016 -5 0 
C -5 1.326016 -4.473168 2.597899 -3.535534 3.535534 
C -2.597899 4.473168 -1.326016 5 0 5 
z
"/>
    </defs>
    <g clip-path="url(#p39d14c3227)">
     <use xlink:href="#C2_0_d43e20c76d" x="331.448739" y="170.070495" style="fill: #808080; stroke: #000000"/>
    </g>
    <g clip-path="url(#p39d14c3227)">
     <use xlink:href="#C2_0_d43e20c76d" x="338.242542" y="140.853172" style="fill: #808080; stroke: #000000"/>
    </g>
    <g clip-path="url(#p39d14c3227)">
     <use xlink:href="#C2_0_d43e20c76d" x="324.333653" y="195.867392" style="fill: #808080; stroke: #000000"/>
    </g>
    <g clip-path="url(#p39d14c3227)">
     <use xlink:href="#C2_0_d43e20c76d" x="328.371864" y="180.567726" style="fill: #808080; stroke: #000000"/>
    </g>
    <g clip-path="url(#p39d14c3227)">
     <use xlink:href="#C2_0_d43e20c76d" x="320.61934" y="252.18911" style="fill: #808080; stroke: #000000"/>
    </g>
    <g clip-path="url(#p39d14c3227)">
     <use xlink:href="#C2_0_d43e20c76d" x="322.851195" y="192.746786" style="fill: #808080; stroke: #000000"/>
    </g>
    <g clip-path="url(#p39d14c3227)">
     <use xlink:href="#C2_0_d43e20c76d" x="328.742412" y="200.659182" style="fill: #808080; stroke: #000000"/>
    </g>
    <g clip-path="url(#p39d14c3227)">
     <use xlink:href="#C2_0_d43e20c76d" x="322.165029" y="157.240348" style="fill: #808080; stroke: #000000"/>
    </g>
   </g>
   <g id="PathCollection_4">
    <defs>
     <path id="C3_0_6902cdb22f" d="M 0 5 
C 1.326016 5 2.597899 4.473168 3.535534 3.535534 
C 4.473168 2.597899 5 1.326016 5 -0 
C 5 -1.326016 4.473168 -2.597899 3.535534 -3.535534 
C 2.597899 -4.473168 1.326016 -5 0 -5 
C -1.326016 -5 -2.597899 -4.473168 -3.535534 -3.535534 
C -4.473168 -2.597899 -5 -1.326016 -5 0 
C -5 1.326016 -4.473168 2.597899 -3.535534 3.535534 
C -2.597899 4.473168 -1.326016 5 0 5 
z
"/>
    </defs>
    <g clip-path="url(#p39d14c3227)">
     <use xlink:href="#C3_0_6902cdb22f" x="394.806958" y="172.257936" style="fill: #3386ff; stroke: #000000"/>
    </g>
    <g clip-path="url(#p39d14c3227)">
     <use xlink:href="#C3_0_6902cdb22f" x="402.493046" y="190.75272" style="fill: #3386ff; stroke: #000000"/>
    </g>
    <g clip-path="url(#p39d14c3227)">
     <use xlink:href="#C3_0_6902cdb22f" x="392.099205" y="132.355328" style="fill: #3386ff; stroke: #000000"/>
    </g>
    <g clip-path="url(#p39d14c3227)">
     <use xlink:href="#C3_0_6902cdb22f" x="395.925721" y="82.650929" style="fill: #3386ff; stroke: #000000"/>
    </g>
    <g clip-path="url(#p39d14c3227)">
     <use xlink:href="#C3_0_6902cdb22f" x="407.509204" y="116.642302" style="fill: #3386ff; stroke: #000000"/>
    </g>
    <g clip-path="url(#p39d14c3227)">
     <use xlink:href="#C3_0_6902cdb22f" x="405.124223" y="213.670285" style="fill: #3386ff; stroke: #000000"/>
    </g>
    <g clip-path="url(#p39d14c3227)">
     <use xlink:href="#C3_0_6902cdb22f" x="402.140755" y="256.461095" style="fill: #3386ff; stroke: #000000"/>
    </g>
   </g>
   <g id="line2d_33"/>
   <g id="line2d_34"/>
   <g id="text_9">
    <!-- p-val = 3e-07 -->
    <g transform="translate(152.589141 104.94934) scale(0.1 -0.1)">
     <defs>
      <path id="DejaVuSans-2d" d="M 313 2009 
L 1997 2009 
L 1997 1497 
L 313 1497 
L 313 2009 
z
" transform="scale(0.015625)"/>
      <path id="DejaVuSans-76" d="M 191 3500 
L 800 3500 
L 1894 563 
L 2988 3500 
L 3597 3500 
L 2284 0 
L 1503 0 
L 191 3500 
z
" transform="scale(0.015625)"/>
      <path id="DejaVuSans-6c" d="M 603 4863 
L 1178 4863 
L 1178 0 
L 603 0 
L 603 4863 
z
" transform="scale(0.015625)"/>
      <path id="DejaVuSans-20" transform="scale(0.015625)"/>
      <path id="DejaVuSans-3d" d="M 678 2906 
L 4684 2906 
L 4684 2381 
L 678 2381 
L 678 2906 
z
M 678 1631 
L 4684 1631 
L 4684 1100 
L 678 1100 
L 678 1631 
z
" transform="scale(0.015625)"/>
      <path id="DejaVuSans-33" d="M 2597 2516 
Q 3050 2419 3304 2112 
Q 3559 1806 3559 1356 
Q 3559 666 3084 287 
Q 2609 -91 1734 -91 
Q 1441 -91 1130 -33 
Q 819 25 488 141 
L 488 750 
Q 750 597 1062 519 
Q 1375 441 1716 441 
Q 2309 441 2620 675 
Q 2931 909 2931 1356 
Q 2931 1769 2642 2001 
Q 2353 2234 1838 2234 
L 1294 2234 
L 1294 2753 
L 1863 2753 
Q 2328 2753 2575 2939 
Q 2822 3125 2822 3475 
Q 2822 3834 2567 4026 
Q 2313 4219 1838 4219 
Q 1578 4219 1281 4162 
Q 984 4106 628 3988 
L 628 4550 
Q 988 4650 1302 4700 
Q 1616 4750 1894 4750 
Q 2613 4750 3031 4423 
Q 3450 4097 3450 3541 
Q 3450 3153 3228 2886 
Q 3006 2619 2597 2516 
z
" transform="scale(0.015625)"/>
      <path id="DejaVuSans-37" d="M 525 4666 
L 3525 4666 
L 3525 4397 
L 1831 0 
L 1172 0 
L 2766 4134 
L 525 4134 
L 525 4666 
z
" transform="scale(0.015625)"/>
     </defs>
     <use xlink:href="#DejaVuSans-70"/>
     <use xlink:href="#DejaVuSans-2d" x="63.476562"/>
     <use xlink:href="#DejaVuSans-76" x="96.935547"/>
     <use xlink:href="#DejaVuSans-61" x="156.115234"/>
     <use xlink:href="#DejaVuSans-6c" x="217.394531"/>
     <use xlink:href="#DejaVuSans-20" x="245.177734"/>
     <use xlink:href="#DejaVuSans-3d" x="276.964844"/>
     <use xlink:href="#DejaVuSans-20" x="360.753906"/>
     <use xlink:href="#DejaVuSans-33" x="392.541016"/>
     <use xlink:href="#DejaVuSans-65" x="456.164062"/>
     <use xlink:href="#DejaVuSans-2d" x="517.6875"/>
     <use xlink:href="#DejaVuSans-30" x="553.771484"/>
     <use xlink:href="#DejaVuSans-37" x="617.394531"/>
    </g>
   </g>
   <g id="text_10">
    <!-- n = 15 -->
    <g transform="translate(133.072703 285.002494) scale(0.1 -0.1)">
     <defs>
      <path id="DejaVuSans-35" d="M 691 4666 
L 3169 4666 
L 3169 4134 
L 1269 4134 
L 1269 2991 
Q 1406 3038 1543 3061 
Q 1681 3084 1819 3084 
Q 2600 3084 3056 2656 
Q 3513 2228 3513 1497 
Q 3513 744 3044 326 
Q 2575 -91 1722 -91 
Q 1428 -91 1123 -41 
Q 819 9 494 109 
L 494 744 
Q 775 591 1075 516 
Q 1375 441 1709 441 
Q 2250 441 2565 725 
Q 2881 1009 2881 1497 
Q 2881 1984 2565 2268 
Q 2250 2553 1709 2553 
Q 1456 2553 1204 2497 
Q 953 2441 691 2322 
L 691 4666 
z
" transform="scale(0.015625)"/>
     </defs>
     <use xlink:href="#DejaVuSans-6e"/>
     <use xlink:href="#DejaVuSans-20" x="63.378906"/>
     <use xlink:href="#DejaVuSans-3d" x="95.166016"/>
     <use xlink:href="#DejaVuSans-20" x="178.955078"/>
     <use xlink:href="#DejaVuSans-31" x="210.742188"/>
     <use xlink:href="#DejaVuSans-35" x="274.365234"/>
    </g>
   </g>
   <g id="text_11">
    <!-- n = 23 -->
    <g transform="translate(213.424703 285.002494) scale(0.1 -0.1)">
     <use xlink:href="#DejaVuSans-6e"/>
     <use xlink:href="#DejaVuSans-20" x="63.378906"/>
     <use xlink:href="#DejaVuSans-3d" x="95.166016"/>
     <use xlink:href="#DejaVuSans-20" x="178.955078"/>
     <use xlink:href="#DejaVuSans-32" x="210.742188"/>
     <use xlink:href="#DejaVuSans-33" x="274.365234"/>
    </g>
   </g>
   <g id="text_12">
    <!-- ns, p = 0.452 -->
    <g transform="translate(331.392891 69.345329) scale(0.1 -0.1)">
     <defs>
      <path id="DejaVuSans-2c" d="M 750 794 
L 1409 794 
L 1409 256 
L 897 -744 
L 494 -744 
L 750 256 
L 750 794 
z
" transform="scale(0.015625)"/>
      <path id="DejaVuSans-2e" d="M 684 794 
L 1344 794 
L 1344 0 
L 684 0 
L 684 794 
z
" transform="scale(0.015625)"/>
     </defs>
     <use xlink:href="#DejaVuSans-6e"/>
     <use xlink:href="#DejaVuSans-73" x="63.378906"/>
     <use xlink:href="#DejaVuSans-2c" x="115.478516"/>
     <use xlink:href="#DejaVuSans-20" x="147.265625"/>
     <use xlink:href="#DejaVuSans-70" x="179.052734"/>
     <use xlink:href="#DejaVuSans-20" x="242.529297"/>
     <use xlink:href="#DejaVuSans-3d" x="274.316406"/>
     <use xlink:href="#DejaVuSans-20" x="358.105469"/>
     <use xlink:href="#DejaVuSans-30" x="389.892578"/>
     <use xlink:href="#DejaVuSans-2e" x="453.515625"/>
     <use xlink:href="#DejaVuSans-34" x="485.302734"/>
     <use xlink:href="#DejaVuSans-35" x="548.925781"/>
     <use xlink:href="#DejaVuSans-32" x="612.548828"/>
    </g>
   </g>
   <g id="text_13">
    <!-- n = 8 -->
    <g transform="translate(311.632703 285.002494) scale(0.1 -0.1)">
     <use xlink:href="#DejaVuSans-6e"/>
     <use xlink:href="#DejaVuSans-20" x="63.378906"/>
     <use xlink:href="#DejaVuSans-3d" x="95.166016"/>
     <use xlink:href="#DejaVuSans-20" x="178.955078"/>
     <use xlink:href="#DejaVuSans-38" x="210.742188"/>
    </g>
   </g>
   <g id="text_14">
    <!-- n = 7 -->
    <g transform="translate(391.984703 285.002494) scale(0.1 -0.1)">
     <use xlink:href="#DejaVuSans-6e"/>
     <use xlink:href="#DejaVuSans-20" x="63.378906"/>
     <use xlink:href="#DejaVuSans-3d" x="95.166016"/>
     <use xlink:href="#DejaVuSans-20" x="178.955078"/>
     <use xlink:href="#DejaVuSans-37" x="210.742188"/>
    </g>
   </g>
   <g id="text_15">
    <!-- AC/Cytoplasm yTubulin23C::GFP, BC43 -->
    <g transform="translate(7.2 26.196094) scale(0.25 -0.25)">
     <defs>
      <path id="DejaVuSans-Bold-41" d="M 3419 850 
L 1538 850 
L 1241 0 
L 31 0 
L 1759 4666 
L 3194 4666 
L 4922 0 
L 3713 0 
L 3419 850 
z
M 1838 1716 
L 3116 1716 
L 2478 3572 
L 1838 1716 
z
" transform="scale(0.015625)"/>
      <path id="DejaVuSans-Bold-43" d="M 4288 256 
Q 3956 84 3597 -3 
Q 3238 -91 2847 -91 
Q 1681 -91 1000 561 
Q 319 1213 319 2328 
Q 319 3447 1000 4098 
Q 1681 4750 2847 4750 
Q 3238 4750 3597 4662 
Q 3956 4575 4288 4403 
L 4288 3438 
Q 3953 3666 3628 3772 
Q 3303 3878 2944 3878 
Q 2300 3878 1931 3465 
Q 1563 3053 1563 2328 
Q 1563 1606 1931 1193 
Q 2300 781 2944 781 
Q 3303 781 3628 887 
Q 3953 994 4288 1222 
L 4288 256 
z
" transform="scale(0.015625)"/>
      <path id="DejaVuSans-Bold-2f" d="M 1644 4666 
L 2338 4666 
L 691 -594 
L 0 -594 
L 1644 4666 
z
" transform="scale(0.015625)"/>
      <path id="DejaVuSans-Bold-79" d="M 78 3500 
L 1197 3500 
L 2138 1125 
L 2938 3500 
L 4056 3500 
L 2584 -331 
Q 2363 -916 2067 -1148 
Q 1772 -1381 1288 -1381 
L 641 -1381 
L 641 -647 
L 991 -647 
Q 1275 -647 1404 -556 
Q 1534 -466 1606 -231 
L 1638 -134 
L 78 3500 
z
" transform="scale(0.015625)"/>
      <path id="DejaVuSans-Bold-74" d="M 1759 4494 
L 1759 3500 
L 2913 3500 
L 2913 2700 
L 1759 2700 
L 1759 1216 
Q 1759 972 1856 886 
Q 1953 800 2241 800 
L 2816 800 
L 2816 0 
L 1856 0 
Q 1194 0 917 276 
Q 641 553 641 1216 
L 641 2700 
L 84 2700 
L 84 3500 
L 641 3500 
L 641 4494 
L 1759 4494 
z
" transform="scale(0.015625)"/>
      <path id="DejaVuSans-Bold-6f" d="M 2203 2784 
Q 1831 2784 1636 2517 
Q 1441 2250 1441 1747 
Q 1441 1244 1636 976 
Q 1831 709 2203 709 
Q 2569 709 2762 976 
Q 2956 1244 2956 1747 
Q 2956 2250 2762 2517 
Q 2569 2784 2203 2784 
z
M 2203 3584 
Q 3106 3584 3614 3096 
Q 4122 2609 4122 1747 
Q 4122 884 3614 396 
Q 3106 -91 2203 -91 
Q 1297 -91 786 396 
Q 275 884 275 1747 
Q 275 2609 786 3096 
Q 1297 3584 2203 3584 
z
" transform="scale(0.015625)"/>
      <path id="DejaVuSans-Bold-70" d="M 1656 506 
L 1656 -1331 
L 538 -1331 
L 538 3500 
L 1656 3500 
L 1656 2988 
Q 1888 3294 2169 3439 
Q 2450 3584 2816 3584 
Q 3463 3584 3878 3070 
Q 4294 2556 4294 1747 
Q 4294 938 3878 423 
Q 3463 -91 2816 -91 
Q 2450 -91 2169 54 
Q 1888 200 1656 506 
z
M 2400 2772 
Q 2041 2772 1848 2508 
Q 1656 2244 1656 1747 
Q 1656 1250 1848 986 
Q 2041 722 2400 722 
Q 2759 722 2948 984 
Q 3138 1247 3138 1747 
Q 3138 2247 2948 2509 
Q 2759 2772 2400 2772 
z
" transform="scale(0.015625)"/>
      <path id="DejaVuSans-Bold-6c" d="M 538 4863 
L 1656 4863 
L 1656 0 
L 538 0 
L 538 4863 
z
" transform="scale(0.015625)"/>
      <path id="DejaVuSans-Bold-61" d="M 2106 1575 
Q 1756 1575 1579 1456 
Q 1403 1338 1403 1106 
Q 1403 894 1545 773 
Q 1688 653 1941 653 
Q 2256 653 2472 879 
Q 2688 1106 2688 1447 
L 2688 1575 
L 2106 1575 
z
M 3816 1997 
L 3816 0 
L 2688 0 
L 2688 519 
Q 2463 200 2181 54 
Q 1900 -91 1497 -91 
Q 953 -91 614 226 
Q 275 544 275 1050 
Q 275 1666 698 1953 
Q 1122 2241 2028 2241 
L 2688 2241 
L 2688 2328 
Q 2688 2594 2478 2717 
Q 2269 2841 1825 2841 
Q 1466 2841 1156 2769 
Q 847 2697 581 2553 
L 581 3406 
Q 941 3494 1303 3539 
Q 1666 3584 2028 3584 
Q 2975 3584 3395 3211 
Q 3816 2838 3816 1997 
z
" transform="scale(0.015625)"/>
      <path id="DejaVuSans-Bold-73" d="M 3272 3391 
L 3272 2541 
Q 2913 2691 2578 2766 
Q 2244 2841 1947 2841 
Q 1628 2841 1473 2761 
Q 1319 2681 1319 2516 
Q 1319 2381 1436 2309 
Q 1553 2238 1856 2203 
L 2053 2175 
Q 2913 2066 3209 1816 
Q 3506 1566 3506 1031 
Q 3506 472 3093 190 
Q 2681 -91 1863 -91 
Q 1516 -91 1145 -36 
Q 775 19 384 128 
L 384 978 
Q 719 816 1070 734 
Q 1422 653 1784 653 
Q 2113 653 2278 743 
Q 2444 834 2444 1013 
Q 2444 1163 2330 1236 
Q 2216 1309 1875 1350 
L 1678 1375 
Q 931 1469 631 1722 
Q 331 1975 331 2491 
Q 331 3047 712 3315 
Q 1094 3584 1881 3584 
Q 2191 3584 2531 3537 
Q 2872 3491 3272 3391 
z
" transform="scale(0.015625)"/>
      <path id="DejaVuSans-Bold-6d" d="M 3781 2919 
Q 3994 3244 4286 3414 
Q 4578 3584 4928 3584 
Q 5531 3584 5847 3212 
Q 6163 2841 6163 2131 
L 6163 0 
L 5038 0 
L 5038 1825 
Q 5041 1866 5042 1909 
Q 5044 1953 5044 2034 
Q 5044 2406 4934 2573 
Q 4825 2741 4581 2741 
Q 4263 2741 4089 2478 
Q 3916 2216 3909 1719 
L 3909 0 
L 2784 0 
L 2784 1825 
Q 2784 2406 2684 2573 
Q 2584 2741 2328 2741 
Q 2006 2741 1831 2477 
Q 1656 2213 1656 1722 
L 1656 0 
L 531 0 
L 531 3500 
L 1656 3500 
L 1656 2988 
Q 1863 3284 2130 3434 
Q 2397 3584 2719 3584 
Q 3081 3584 3359 3409 
Q 3638 3234 3781 2919 
z
" transform="scale(0.015625)"/>
      <path id="DejaVuSans-Bold-20" transform="scale(0.015625)"/>
      <path id="DejaVuSans-Bold-54" d="M 31 4666 
L 4331 4666 
L 4331 3756 
L 2784 3756 
L 2784 0 
L 1581 0 
L 1581 3756 
L 31 3756 
L 31 4666 
z
" transform="scale(0.015625)"/>
      <path id="DejaVuSans-Bold-75" d="M 500 1363 
L 500 3500 
L 1625 3500 
L 1625 3150 
Q 1625 2866 1622 2436 
Q 1619 2006 1619 1863 
Q 1619 1441 1641 1255 
Q 1663 1069 1716 984 
Q 1784 875 1895 815 
Q 2006 756 2150 756 
Q 2500 756 2700 1025 
Q 2900 1294 2900 1772 
L 2900 3500 
L 4019 3500 
L 4019 0 
L 2900 0 
L 2900 506 
Q 2647 200 2364 54 
Q 2081 -91 1741 -91 
Q 1134 -91 817 281 
Q 500 653 500 1363 
z
" transform="scale(0.015625)"/>
      <path id="DejaVuSans-Bold-62" d="M 2400 722 
Q 2759 722 2948 984 
Q 3138 1247 3138 1747 
Q 3138 2247 2948 2509 
Q 2759 2772 2400 2772 
Q 2041 2772 1848 2508 
Q 1656 2244 1656 1747 
Q 1656 1250 1848 986 
Q 2041 722 2400 722 
z
M 1656 2988 
Q 1888 3294 2169 3439 
Q 2450 3584 2816 3584 
Q 3463 3584 3878 3070 
Q 4294 2556 4294 1747 
Q 4294 938 3878 423 
Q 3463 -91 2816 -91 
Q 2450 -91 2169 54 
Q 1888 200 1656 506 
L 1656 0 
L 538 0 
L 538 4863 
L 1656 4863 
L 1656 2988 
z
" transform="scale(0.015625)"/>
      <path id="DejaVuSans-Bold-69" d="M 538 3500 
L 1656 3500 
L 1656 0 
L 538 0 
L 538 3500 
z
M 538 4863 
L 1656 4863 
L 1656 3950 
L 538 3950 
L 538 4863 
z
" transform="scale(0.015625)"/>
      <path id="DejaVuSans-Bold-6e" d="M 4056 2131 
L 4056 0 
L 2931 0 
L 2931 347 
L 2931 1631 
Q 2931 2084 2911 2256 
Q 2891 2428 2841 2509 
Q 2775 2619 2662 2680 
Q 2550 2741 2406 2741 
Q 2056 2741 1856 2470 
Q 1656 2200 1656 1722 
L 1656 0 
L 538 0 
L 538 3500 
L 1656 3500 
L 1656 2988 
Q 1909 3294 2193 3439 
Q 2478 3584 2822 3584 
Q 3428 3584 3742 3212 
Q 4056 2841 4056 2131 
z
" transform="scale(0.015625)"/>
      <path id="DejaVuSans-Bold-32" d="M 1844 884 
L 3897 884 
L 3897 0 
L 506 0 
L 506 884 
L 2209 2388 
Q 2438 2594 2547 2791 
Q 2656 2988 2656 3200 
Q 2656 3528 2436 3728 
Q 2216 3928 1850 3928 
Q 1569 3928 1234 3808 
Q 900 3688 519 3450 
L 519 4475 
Q 925 4609 1322 4679 
Q 1719 4750 2100 4750 
Q 2938 4750 3402 4381 
Q 3866 4013 3866 3353 
Q 3866 2972 3669 2642 
Q 3472 2313 2841 1759 
L 1844 884 
z
" transform="scale(0.015625)"/>
      <path id="DejaVuSans-Bold-33" d="M 2981 2516 
Q 3453 2394 3698 2092 
Q 3944 1791 3944 1325 
Q 3944 631 3412 270 
Q 2881 -91 1863 -91 
Q 1503 -91 1142 -33 
Q 781 25 428 141 
L 428 1069 
Q 766 900 1098 814 
Q 1431 728 1753 728 
Q 2231 728 2486 893 
Q 2741 1059 2741 1369 
Q 2741 1688 2480 1852 
Q 2219 2016 1709 2016 
L 1228 2016 
L 1228 2791 
L 1734 2791 
Q 2188 2791 2409 2933 
Q 2631 3075 2631 3366 
Q 2631 3634 2415 3781 
Q 2200 3928 1806 3928 
Q 1516 3928 1219 3862 
Q 922 3797 628 3669 
L 628 4550 
Q 984 4650 1334 4700 
Q 1684 4750 2022 4750 
Q 2931 4750 3382 4451 
Q 3834 4153 3834 3553 
Q 3834 3144 3618 2883 
Q 3403 2622 2981 2516 
z
" transform="scale(0.015625)"/>
      <path id="DejaVuSans-Bold-3a" d="M 716 3500 
L 1844 3500 
L 1844 2291 
L 716 2291 
L 716 3500 
z
M 716 1209 
L 1844 1209 
L 1844 0 
L 716 0 
L 716 1209 
z
" transform="scale(0.015625)"/>
      <path id="DejaVuSans-Bold-47" d="M 4781 347 
Q 4331 128 3847 18 
Q 3363 -91 2847 -91 
Q 1681 -91 1000 561 
Q 319 1213 319 2328 
Q 319 3456 1012 4103 
Q 1706 4750 2913 4750 
Q 3378 4750 3804 4662 
Q 4231 4575 4609 4403 
L 4609 3438 
Q 4219 3659 3833 3768 
Q 3447 3878 3059 3878 
Q 2341 3878 1952 3476 
Q 1563 3075 1563 2328 
Q 1563 1588 1938 1184 
Q 2313 781 3003 781 
Q 3191 781 3352 804 
Q 3513 828 3641 878 
L 3641 1784 
L 2906 1784 
L 2906 2591 
L 4781 2591 
L 4781 347 
z
" transform="scale(0.015625)"/>
      <path id="DejaVuSans-Bold-46" d="M 588 4666 
L 3834 4666 
L 3834 3756 
L 1791 3756 
L 1791 2888 
L 3713 2888 
L 3713 1978 
L 1791 1978 
L 1791 0 
L 588 0 
L 588 4666 
z
" transform="scale(0.015625)"/>
      <path id="DejaVuSans-Bold-50" d="M 588 4666 
L 2584 4666 
Q 3475 4666 3951 4270 
Q 4428 3875 4428 3144 
Q 4428 2409 3951 2014 
Q 3475 1619 2584 1619 
L 1791 1619 
L 1791 0 
L 588 0 
L 588 4666 
z
M 1791 3794 
L 1791 2491 
L 2456 2491 
Q 2806 2491 2997 2661 
Q 3188 2831 3188 3144 
Q 3188 3456 2997 3625 
Q 2806 3794 2456 3794 
L 1791 3794 
z
" transform="scale(0.015625)"/>
      <path id="DejaVuSans-Bold-2c" d="M 653 1209 
L 1778 1209 
L 1778 256 
L 1006 -909 
L 341 -909 
L 653 256 
L 653 1209 
z
" transform="scale(0.015625)"/>
      <path id="DejaVuSans-Bold-42" d="M 2456 2859 
Q 2741 2859 2887 2984 
Q 3034 3109 3034 3353 
Q 3034 3594 2887 3720 
Q 2741 3847 2456 3847 
L 1791 3847 
L 1791 2859 
L 2456 2859 
z
M 2497 819 
Q 2859 819 3042 972 
Q 3225 1125 3225 1434 
Q 3225 1738 3044 1889 
Q 2863 2041 2497 2041 
L 1791 2041 
L 1791 819 
L 2497 819 
z
M 3616 2497 
Q 4003 2384 4215 2081 
Q 4428 1778 4428 1338 
Q 4428 663 3972 331 
Q 3516 0 2584 0 
L 588 0 
L 588 4666 
L 2394 4666 
Q 3366 4666 3802 4372 
Q 4238 4078 4238 3431 
Q 4238 3091 4078 2852 
Q 3919 2613 3616 2497 
z
" transform="scale(0.015625)"/>
      <path id="DejaVuSans-Bold-34" d="M 2356 3675 
L 1038 1722 
L 2356 1722 
L 2356 3675 
z
M 2156 4666 
L 3494 4666 
L 3494 1722 
L 4159 1722 
L 4159 850 
L 3494 850 
L 3494 0 
L 2356 0 
L 2356 850 
L 288 850 
L 288 1881 
L 2156 4666 
z
" transform="scale(0.015625)"/>
     </defs>
     <use xlink:href="#DejaVuSans-Bold-41"/>
     <use xlink:href="#DejaVuSans-Bold-43" x="77.392578"/>
     <use xlink:href="#DejaVuSans-Bold-2f" x="150.78125"/>
     <use xlink:href="#DejaVuSans-Bold-43" x="187.304688"/>
     <use xlink:href="#DejaVuSans-Bold-79" x="260.693359"/>
     <use xlink:href="#DejaVuSans-Bold-74" x="325.878906"/>
     <use xlink:href="#DejaVuSans-Bold-6f" x="373.681641"/>
     <use xlink:href="#DejaVuSans-Bold-70" x="442.382812"/>
     <use xlink:href="#DejaVuSans-Bold-6c" x="513.964844"/>
     <use xlink:href="#DejaVuSans-Bold-61" x="548.242188"/>
     <use xlink:href="#DejaVuSans-Bold-73" x="615.722656"/>
     <use xlink:href="#DejaVuSans-Bold-6d" x="675.244141"/>
     <use xlink:href="#DejaVuSans-Bold-20" x="779.443359"/>
     <use xlink:href="#DejaVuSans-Bold-79" x="814.257812"/>
     <use xlink:href="#DejaVuSans-Bold-54" x="879.443359"/>
     <use xlink:href="#DejaVuSans-Bold-75" x="936.65625"/>
     <use xlink:href="#DejaVuSans-Bold-62" x="1007.847656"/>
     <use xlink:href="#DejaVuSans-Bold-75" x="1079.429688"/>
     <use xlink:href="#DejaVuSans-Bold-6c" x="1150.621094"/>
     <use xlink:href="#DejaVuSans-Bold-69" x="1184.898438"/>
     <use xlink:href="#DejaVuSans-Bold-6e" x="1219.175781"/>
     <use xlink:href="#DejaVuSans-Bold-32" x="1290.367188"/>
     <use xlink:href="#DejaVuSans-Bold-33" x="1359.947266"/>
     <use xlink:href="#DejaVuSans-Bold-43" x="1429.527344"/>
     <use xlink:href="#DejaVuSans-Bold-3a" x="1502.916016"/>
     <use xlink:href="#DejaVuSans-Bold-3a" x="1542.90625"/>
     <use xlink:href="#DejaVuSans-Bold-47" x="1582.896484"/>
     <use xlink:href="#DejaVuSans-Bold-46" x="1664.976562"/>
     <use xlink:href="#DejaVuSans-Bold-50" x="1733.287109"/>
     <use xlink:href="#DejaVuSans-Bold-2c" x="1788.203125"/>
     <use xlink:href="#DejaVuSans-Bold-20" x="1826.191406"/>
     <use xlink:href="#DejaVuSans-Bold-42" x="1861.005859"/>
     <use xlink:href="#DejaVuSans-Bold-43" x="1937.226562"/>
     <use xlink:href="#DejaVuSans-Bold-34" x="2010.615234"/>
     <use xlink:href="#DejaVuSans-Bold-33" x="2080.195312"/>
    </g>
   </g>
   <g id="legend_1">
    <g id="patch_11">
     <path d="M 104.360703 84.230469 
L 168.662266 84.230469 
Q 170.662266 84.230469 170.662266 82.230469 
L 170.662266 39.196094 
Q 170.662266 37.196094 168.662266 37.196094 
L 104.360703 37.196094 
Q 102.360703 37.196094 102.360703 39.196094 
L 102.360703 82.230469 
Q 102.360703 84.230469 104.360703 84.230469 
z
" style="fill: #ffffff; opacity: 0.8; stroke: #cccccc; stroke-linejoin: miter"/>
    </g>
    <g id="text_16">
     <!-- genotype -->
     <g transform="translate(112.862266 48.794531) scale(0.1 -0.1)">
      <defs>
       <path id="DejaVuSans-67" d="M 2906 1791 
Q 2906 2416 2648 2759 
Q 2391 3103 1925 3103 
Q 1463 3103 1205 2759 
Q 947 2416 947 1791 
Q 947 1169 1205 825 
Q 1463 481 1925 481 
Q 2391 481 2648 825 
Q 2906 1169 2906 1791 
z
M 3481 434 
Q 3481 -459 3084 -895 
Q 2688 -1331 1869 -1331 
Q 1566 -1331 1297 -1286 
Q 1028 -1241 775 -1147 
L 775 -588 
Q 1028 -725 1275 -790 
Q 1522 -856 1778 -856 
Q 2344 -856 2625 -561 
Q 2906 -266 2906 331 
L 2906 616 
Q 2728 306 2450 153 
Q 2172 0 1784 0 
Q 1141 0 747 490 
Q 353 981 353 1791 
Q 353 2603 747 3093 
Q 1141 3584 1784 3584 
Q 2172 3584 2450 3431 
Q 2728 3278 2906 2969 
L 2906 3500 
L 3481 3500 
L 3481 434 
z
" transform="scale(0.015625)"/>
       <path id="DejaVuSans-79" d="M 2059 -325 
Q 1816 -950 1584 -1140 
Q 1353 -1331 966 -1331 
L 506 -1331 
L 506 -850 
L 844 -850 
Q 1081 -850 1212 -737 
Q 1344 -625 1503 -206 
L 1606 56 
L 191 3500 
L 800 3500 
L 1894 763 
L 2988 3500 
L 3597 3500 
L 2059 -325 
z
" transform="scale(0.015625)"/>
      </defs>
      <use xlink:href="#DejaVuSans-67"/>
      <use xlink:href="#DejaVuSans-65" x="63.476562"/>
      <use xlink:href="#DejaVuSans-6e" x="125"/>
      <use xlink:href="#DejaVuSans-6f" x="188.378906"/>
      <use xlink:href="#DejaVuSans-74" x="249.560547"/>
      <use xlink:href="#DejaVuSans-79" x="288.769531"/>
      <use xlink:href="#DejaVuSans-70" x="347.949219"/>
      <use xlink:href="#DejaVuSans-65" x="411.425781"/>
     </g>
    </g>
    <g id="line2d_35">
     <defs>
      <path id="m5061bc030b" d="M 0 5 
C 1.326016 5 2.597899 4.473168 3.535534 3.535534 
C 4.473168 2.597899 5 1.326016 5 0 
C 5 -1.326016 4.473168 -2.597899 3.535534 -3.535534 
C 2.597899 -4.473168 1.326016 -5 0 -5 
C -1.326016 -5 -2.597899 -4.473168 -3.535534 -3.535534 
C -4.473168 -2.597899 -5 -1.326016 -5 0 
C -5 1.326016 -4.473168 2.597899 -3.535534 3.535534 
C -2.597899 4.473168 -1.326016 5 0 5 
z
" style="stroke: #000000"/>
     </defs>
     <g>
      <use xlink:href="#m5061bc030b" x="116.360703" y="59.972656" style="fill: #808080; stroke: #000000"/>
     </g>
    </g>
    <g id="text_17">
     <!-- WT -->
     <g transform="translate(134.360703 63.472656) scale(0.1 -0.1)">
      <defs>
       <path id="DejaVuSans-57" d="M 213 4666 
L 850 4666 
L 1831 722 
L 2809 4666 
L 3519 4666 
L 4500 722 
L 5478 4666 
L 6119 4666 
L 4947 0 
L 4153 0 
L 3169 4050 
L 2175 0 
L 1381 0 
L 213 4666 
z
" transform="scale(0.015625)"/>
       <path id="DejaVuSans-54" d="M -19 4666 
L 3928 4666 
L 3928 4134 
L 2272 4134 
L 2272 0 
L 1638 0 
L 1638 4134 
L -19 4134 
L -19 4666 
z
" transform="scale(0.015625)"/>
      </defs>
      <use xlink:href="#DejaVuSans-57"/>
      <use xlink:href="#DejaVuSans-54" x="98.876953"/>
     </g>
    </g>
    <g id="line2d_36">
     <defs>
      <path id="mf3aa830cd6" d="M 0 5 
C 1.326016 5 2.597899 4.473168 3.535534 3.535534 
C 4.473168 2.597899 5 1.326016 5 0 
C 5 -1.326016 4.473168 -2.597899 3.535534 -3.535534 
C 2.597899 -4.473168 1.326016 -5 0 -5 
C -1.326016 -5 -2.597899 -4.473168 -3.535534 -3.535534 
C -4.473168 -2.597899 -5 -1.326016 -5 0 
C -5 1.326016 -4.473168 2.597899 -3.535534 3.535534 
C -2.597899 4.473168 -1.326016 5 0 5 
z
" style="stroke: #000000"/>
     </defs>
     <g>
      <use xlink:href="#mf3aa830cd6" x="116.360703" y="74.650781" style="fill: #3386ff; stroke: #000000"/>
     </g>
    </g>
    <g id="text_18">
     <!-- PP4KO -->
     <g transform="translate(134.360703 78.150781) scale(0.1 -0.1)">
      <defs>
       <path id="DejaVuSans-50" d="M 1259 4147 
L 1259 2394 
L 2053 2394 
Q 2494 2394 2734 2622 
Q 2975 2850 2975 3272 
Q 2975 3691 2734 3919 
Q 2494 4147 2053 4147 
L 1259 4147 
z
M 628 4666 
L 2053 4666 
Q 2838 4666 3239 4311 
Q 3641 3956 3641 3272 
Q 3641 2581 3239 2228 
Q 2838 1875 2053 1875 
L 1259 1875 
L 1259 0 
L 628 0 
L 628 4666 
z
" transform="scale(0.015625)"/>
       <path id="DejaVuSans-4b" d="M 628 4666 
L 1259 4666 
L 1259 2694 
L 3353 4666 
L 4166 4666 
L 1850 2491 
L 4331 0 
L 3500 0 
L 1259 2247 
L 1259 0 
L 628 0 
L 628 4666 
z
" transform="scale(0.015625)"/>
       <path id="DejaVuSans-4f" d="M 2522 4238 
Q 1834 4238 1429 3725 
Q 1025 3213 1025 2328 
Q 1025 1447 1429 934 
Q 1834 422 2522 422 
Q 3209 422 3611 934 
Q 4013 1447 4013 2328 
Q 4013 3213 3611 3725 
Q 3209 4238 2522 4238 
z
M 2522 4750 
Q 3503 4750 4090 4092 
Q 4678 3434 4678 2328 
Q 4678 1225 4090 567 
Q 3503 -91 2522 -91 
Q 1538 -91 948 565 
Q 359 1222 359 2328 
Q 359 3434 948 4092 
Q 1538 4750 2522 4750 
z
" transform="scale(0.015625)"/>
      </defs>
      <use xlink:href="#DejaVuSans-50"/>
      <use xlink:href="#DejaVuSans-50" x="60.302734"/>
      <use xlink:href="#DejaVuSans-34" x="120.605469"/>
      <use xlink:href="#DejaVuSans-4b" x="184.228516"/>
      <use xlink:href="#DejaVuSans-4f" x="244.304688"/>
     </g>
    </g>
   </g>
  </g>
 </g>
 <defs>
  <clipPath id="p39d14c3227">
   <rect x="97.360703" y="32.196094" width="357.12" height="266.112"/>
  </clipPath>
 </defs>
</svg>
