<?xml version="1.0" encoding="utf-8" standalone="no"?>
<!DOCTYPE svg PUBLIC "-//W3C//DTD SVG 1.1//EN"
  "http://www.w3.org/Graphics/SVG/1.1/DTD/svg11.dtd">
<svg xmlns:xlink="http://www.w3.org/1999/xlink" width="409.484375pt" height="327.025281pt" viewBox="0 0 409.484375 327.025281" xmlns="http://www.w3.org/2000/svg" version="1.1">
 <metadata>
  <rdf:RDF xmlns:dc="http://purl.org/dc/elements/1.1/" xmlns:cc="http://creativecommons.org/ns#" xmlns:rdf="http://www.w3.org/1999/02/22-rdf-syntax-ns#">
   <cc:Work>
    <dc:type rdf:resource="http://purl.org/dc/dcmitype/StillImage"/>
    <dc:date>2024-12-11T13:28:33.371795</dc:date>
    <dc:format>image/svg+xml</dc:format>
    <dc:creator>
     <cc:Agent>
      <dc:title>Matplotlib v3.7.2, https://matplotlib.org/</dc:title>
     </cc:Agent>
    </dc:creator>
   </cc:Work>
  </rdf:RDF>
 </metadata>
 <defs>
  <style type="text/css">*{stroke-linejoin: round; stroke-linecap: butt}</style>
 </defs>
 <g id="figure_1">
  <g id="patch_1">
   <path d="M 0 327.025281 
L 409.484375 327.025281 
L 409.484375 0 
L 0 0 
z
" style="fill: #ffffff"/>
  </g>
  <g id="axes_1">
   <g id="patch_2">
    <path d="M 45.164375 298.308094 
L 402.284375 298.308094 
L 402.284375 32.196094 
L 45.164375 32.196094 
z
" style="fill: #ffffff"/>
   </g>
   <g id="matplotlib.axis_1">
    <g id="xtick_1">
     <g id="line2d_1">
      <defs>
       <path id="m3ce899fe01" d="M 0 0 
L 0 3.5 
" style="stroke: #000000; stroke-width: 0.8"/>
      </defs>
      <g>
       <use xlink:href="#m3ce899fe01" x="134.444375" y="298.308094" style="stroke: #000000; stroke-width: 0.8"/>
      </g>
     </g>
     <g id="text_1">
      <!-- interphase -->
      <g transform="translate(94.336953 316.70575) scale(0.15 -0.15)">
       <defs>
        <path id="DejaVuSans-69" d="M 603 3500 
L 1178 3500 
L 1178 0 
L 603 0 
L 603 3500 
z
M 603 4863 
L 1178 4863 
L 1178 4134 
L 603 4134 
L 603 4863 
z
" transform="scale(0.015625)"/>
        <path id="DejaVuSans-6e" d="M 3513 2113 
L 3513 0 
L 2938 0 
L 2938 2094 
Q 2938 2591 2744 2837 
Q 2550 3084 2163 3084 
Q 1697 3084 1428 2787 
Q 1159 2491 1159 1978 
L 1159 0 
L 581 0 
L 581 3500 
L 1159 3500 
L 1159 2956 
Q 1366 3272 1645 3428 
Q 1925 3584 2291 3584 
Q 2894 3584 3203 3211 
Q 3513 2838 3513 2113 
z
" transform="scale(0.015625)"/>
        <path id="DejaVuSans-74" d="M 1172 4494 
L 1172 3500 
L 2356 3500 
L 2356 3053 
L 1172 3053 
L 1172 1153 
Q 1172 725 1289 603 
Q 1406 481 1766 481 
L 2356 481 
L 2356 0 
L 1766 0 
Q 1100 0 847 248 
Q 594 497 594 1153 
L 594 3053 
L 172 3053 
L 172 3500 
L 594 3500 
L 594 4494 
L 1172 4494 
z
" transform="scale(0.015625)"/>
        <path id="DejaVuSans-65" d="M 3597 1894 
L 3597 1613 
L 953 1613 
Q 991 1019 1311 708 
Q 1631 397 2203 397 
Q 2534 397 2845 478 
Q 3156 559 3463 722 
L 3463 178 
Q 3153 47 2828 -22 
Q 2503 -91 2169 -91 
Q 1331 -91 842 396 
Q 353 884 353 1716 
Q 353 2575 817 3079 
Q 1281 3584 2069 3584 
Q 2775 3584 3186 3129 
Q 3597 2675 3597 1894 
z
M 3022 2063 
Q 3016 2534 2758 2815 
Q 2500 3097 2075 3097 
Q 1594 3097 1305 2825 
Q 1016 2553 972 2059 
L 3022 2063 
z
" transform="scale(0.015625)"/>
        <path id="DejaVuSans-72" d="M 2631 2963 
Q 2534 3019 2420 3045 
Q 2306 3072 2169 3072 
Q 1681 3072 1420 2755 
Q 1159 2438 1159 1844 
L 1159 0 
L 581 0 
L 581 3500 
L 1159 3500 
L 1159 2956 
Q 1341 3275 1631 3429 
Q 1922 3584 2338 3584 
Q 2397 3584 2469 3576 
Q 2541 3569 2628 3553 
L 2631 2963 
z
" transform="scale(0.015625)"/>
        <path id="DejaVuSans-70" d="M 1159 525 
L 1159 -1331 
L 581 -1331 
L 581 3500 
L 1159 3500 
L 1159 2969 
Q 1341 3281 1617 3432 
Q 1894 3584 2278 3584 
Q 2916 3584 3314 3078 
Q 3713 2572 3713 1747 
Q 3713 922 3314 415 
Q 2916 -91 2278 -91 
Q 1894 -91 1617 61 
Q 1341 213 1159 525 
z
M 3116 1747 
Q 3116 2381 2855 2742 
Q 2594 3103 2138 3103 
Q 1681 3103 1420 2742 
Q 1159 2381 1159 1747 
Q 1159 1113 1420 752 
Q 1681 391 2138 391 
Q 2594 391 2855 752 
Q 3116 1113 3116 1747 
z
" transform="scale(0.015625)"/>
        <path id="DejaVuSans-68" d="M 3513 2113 
L 3513 0 
L 2938 0 
L 2938 2094 
Q 2938 2591 2744 2837 
Q 2550 3084 2163 3084 
Q 1697 3084 1428 2787 
Q 1159 2491 1159 1978 
L 1159 0 
L 581 0 
L 581 4863 
L 1159 4863 
L 1159 2956 
Q 1366 3272 1645 3428 
Q 1925 3584 2291 3584 
Q 2894 3584 3203 3211 
Q 3513 2838 3513 2113 
z
" transform="scale(0.015625)"/>
        <path id="DejaVuSans-61" d="M 2194 1759 
Q 1497 1759 1228 1600 
Q 959 1441 959 1056 
Q 959 750 1161 570 
Q 1363 391 1709 391 
Q 2188 391 2477 730 
Q 2766 1069 2766 1631 
L 2766 1759 
L 2194 1759 
z
M 3341 1997 
L 3341 0 
L 2766 0 
L 2766 531 
Q 2569 213 2275 61 
Q 1981 -91 1556 -91 
Q 1019 -91 701 211 
Q 384 513 384 1019 
Q 384 1609 779 1909 
Q 1175 2209 1959 2209 
L 2766 2209 
L 2766 2266 
Q 2766 2663 2505 2880 
Q 2244 3097 1772 3097 
Q 1472 3097 1187 3025 
Q 903 2953 641 2809 
L 641 3341 
Q 956 3463 1253 3523 
Q 1550 3584 1831 3584 
Q 2591 3584 2966 3190 
Q 3341 2797 3341 1997 
z
" transform="scale(0.015625)"/>
        <path id="DejaVuSans-73" d="M 2834 3397 
L 2834 2853 
Q 2591 2978 2328 3040 
Q 2066 3103 1784 3103 
Q 1356 3103 1142 2972 
Q 928 2841 928 2578 
Q 928 2378 1081 2264 
Q 1234 2150 1697 2047 
L 1894 2003 
Q 2506 1872 2764 1633 
Q 3022 1394 3022 966 
Q 3022 478 2636 193 
Q 2250 -91 1575 -91 
Q 1294 -91 989 -36 
Q 684 19 347 128 
L 347 722 
Q 666 556 975 473 
Q 1284 391 1588 391 
Q 1994 391 2212 530 
Q 2431 669 2431 922 
Q 2431 1156 2273 1281 
Q 2116 1406 1581 1522 
L 1381 1569 
Q 847 1681 609 1914 
Q 372 2147 372 2553 
Q 372 3047 722 3315 
Q 1072 3584 1716 3584 
Q 2034 3584 2315 3537 
Q 2597 3491 2834 3397 
z
" transform="scale(0.015625)"/>
       </defs>
       <use xlink:href="#DejaVuSans-69"/>
       <use xlink:href="#DejaVuSans-6e" x="27.783203"/>
       <use xlink:href="#DejaVuSans-74" x="91.162109"/>
       <use xlink:href="#DejaVuSans-65" x="130.371094"/>
       <use xlink:href="#DejaVuSans-72" x="191.894531"/>
       <use xlink:href="#DejaVuSans-70" x="233.007812"/>
       <use xlink:href="#DejaVuSans-68" x="296.484375"/>
       <use xlink:href="#DejaVuSans-61" x="359.863281"/>
       <use xlink:href="#DejaVuSans-73" x="421.142578"/>
       <use xlink:href="#DejaVuSans-65" x="473.242188"/>
      </g>
     </g>
    </g>
    <g id="xtick_2">
     <g id="line2d_2">
      <g>
       <use xlink:href="#m3ce899fe01" x="313.004375" y="298.308094" style="stroke: #000000; stroke-width: 0.8"/>
      </g>
     </g>
     <g id="text_2">
      <!-- prometaphase -->
      <g transform="translate(258.650469 316.70575) scale(0.15 -0.15)">
       <defs>
        <path id="DejaVuSans-6f" d="M 1959 3097 
Q 1497 3097 1228 2736 
Q 959 2375 959 1747 
Q 959 1119 1226 758 
Q 1494 397 1959 397 
Q 2419 397 2687 759 
Q 2956 1122 2956 1747 
Q 2956 2369 2687 2733 
Q 2419 3097 1959 3097 
z
M 1959 3584 
Q 2709 3584 3137 3096 
Q 3566 2609 3566 1747 
Q 3566 888 3137 398 
Q 2709 -91 1959 -91 
Q 1206 -91 779 398 
Q 353 888 353 1747 
Q 353 2609 779 3096 
Q 1206 3584 1959 3584 
z
" transform="scale(0.015625)"/>
        <path id="DejaVuSans-6d" d="M 3328 2828 
Q 3544 3216 3844 3400 
Q 4144 3584 4550 3584 
Q 5097 3584 5394 3201 
Q 5691 2819 5691 2113 
L 5691 0 
L 5113 0 
L 5113 2094 
Q 5113 2597 4934 2840 
Q 4756 3084 4391 3084 
Q 3944 3084 3684 2787 
Q 3425 2491 3425 1978 
L 3425 0 
L 2847 0 
L 2847 2094 
Q 2847 2600 2669 2842 
Q 2491 3084 2119 3084 
Q 1678 3084 1418 2786 
Q 1159 2488 1159 1978 
L 1159 0 
L 581 0 
L 581 3500 
L 1159 3500 
L 1159 2956 
Q 1356 3278 1631 3431 
Q 1906 3584 2284 3584 
Q 2666 3584 2933 3390 
Q 3200 3197 3328 2828 
z
" transform="scale(0.015625)"/>
       </defs>
       <use xlink:href="#DejaVuSans-70"/>
       <use xlink:href="#DejaVuSans-72" x="63.476562"/>
       <use xlink:href="#DejaVuSans-6f" x="102.339844"/>
       <use xlink:href="#DejaVuSans-6d" x="163.521484"/>
       <use xlink:href="#DejaVuSans-65" x="260.933594"/>
       <use xlink:href="#DejaVuSans-74" x="322.457031"/>
       <use xlink:href="#DejaVuSans-61" x="361.666016"/>
       <use xlink:href="#DejaVuSans-70" x="422.945312"/>
       <use xlink:href="#DejaVuSans-68" x="486.421875"/>
       <use xlink:href="#DejaVuSans-61" x="549.800781"/>
       <use xlink:href="#DejaVuSans-73" x="611.080078"/>
       <use xlink:href="#DejaVuSans-65" x="663.179688"/>
      </g>
     </g>
    </g>
   </g>
   <g id="matplotlib.axis_2">
    <g id="ytick_1">
     <g id="line2d_3">
      <defs>
       <path id="mdd59809875" d="M 0 0 
L -3.5 0 
" style="stroke: #000000; stroke-width: 0.8"/>
      </defs>
      <g>
       <use xlink:href="#mdd59809875" x="45.164375" y="298.308094" style="stroke: #000000; stroke-width: 0.8"/>
      </g>
     </g>
     <g id="text_3">
      <!-- 0 -->
      <g transform="translate(28.620625 304.006922) scale(0.15 -0.15)">
       <defs>
        <path id="DejaVuSans-30" d="M 2034 4250 
Q 1547 4250 1301 3770 
Q 1056 3291 1056 2328 
Q 1056 1369 1301 889 
Q 1547 409 2034 409 
Q 2525 409 2770 889 
Q 3016 1369 3016 2328 
Q 3016 3291 2770 3770 
Q 2525 4250 2034 4250 
z
M 2034 4750 
Q 2819 4750 3233 4129 
Q 3647 3509 3647 2328 
Q 3647 1150 3233 529 
Q 2819 -91 2034 -91 
Q 1250 -91 836 529 
Q 422 1150 422 2328 
Q 422 3509 836 4129 
Q 1250 4750 2034 4750 
z
" transform="scale(0.015625)"/>
       </defs>
       <use xlink:href="#DejaVuSans-30"/>
      </g>
     </g>
    </g>
    <g id="ytick_2">
     <g id="line2d_4">
      <g>
       <use xlink:href="#mdd59809875" x="45.164375" y="253.956094" style="stroke: #000000; stroke-width: 0.8"/>
      </g>
     </g>
     <g id="text_4">
      <!-- 1 -->
      <g transform="translate(28.620625 259.654922) scale(0.15 -0.15)">
       <defs>
        <path id="DejaVuSans-31" d="M 794 531 
L 1825 531 
L 1825 4091 
L 703 3866 
L 703 4441 
L 1819 4666 
L 2450 4666 
L 2450 531 
L 3481 531 
L 3481 0 
L 794 0 
L 794 531 
z
" transform="scale(0.015625)"/>
       </defs>
       <use xlink:href="#DejaVuSans-31"/>
      </g>
     </g>
    </g>
    <g id="ytick_3">
     <g id="line2d_5">
      <g>
       <use xlink:href="#mdd59809875" x="45.164375" y="209.604094" style="stroke: #000000; stroke-width: 0.8"/>
      </g>
     </g>
     <g id="text_5">
      <!-- 2 -->
      <g transform="translate(28.620625 215.302922) scale(0.15 -0.15)">
       <defs>
        <path id="DejaVuSans-32" d="M 1228 531 
L 3431 531 
L 3431 0 
L 469 0 
L 469 531 
Q 828 903 1448 1529 
Q 2069 2156 2228 2338 
Q 2531 2678 2651 2914 
Q 2772 3150 2772 3378 
Q 2772 3750 2511 3984 
Q 2250 4219 1831 4219 
Q 1534 4219 1204 4116 
Q 875 4013 500 3803 
L 500 4441 
Q 881 4594 1212 4672 
Q 1544 4750 1819 4750 
Q 2544 4750 2975 4387 
Q 3406 4025 3406 3419 
Q 3406 3131 3298 2873 
Q 3191 2616 2906 2266 
Q 2828 2175 2409 1742 
Q 1991 1309 1228 531 
z
" transform="scale(0.015625)"/>
       </defs>
       <use xlink:href="#DejaVuSans-32"/>
      </g>
     </g>
    </g>
    <g id="ytick_4">
     <g id="line2d_6">
      <g>
       <use xlink:href="#mdd59809875" x="45.164375" y="165.252094" style="stroke: #000000; stroke-width: 0.8"/>
      </g>
     </g>
     <g id="text_6">
      <!-- 3 -->
      <g transform="translate(28.620625 170.950922) scale(0.15 -0.15)">
       <defs>
        <path id="DejaVuSans-33" d="M 2597 2516 
Q 3050 2419 3304 2112 
Q 3559 1806 3559 1356 
Q 3559 666 3084 287 
Q 2609 -91 1734 -91 
Q 1441 -91 1130 -33 
Q 819 25 488 141 
L 488 750 
Q 750 597 1062 519 
Q 1375 441 1716 441 
Q 2309 441 2620 675 
Q 2931 909 2931 1356 
Q 2931 1769 2642 2001 
Q 2353 2234 1838 2234 
L 1294 2234 
L 1294 2753 
L 1863 2753 
Q 2328 2753 2575 2939 
Q 2822 3125 2822 3475 
Q 2822 3834 2567 4026 
Q 2313 4219 1838 4219 
Q 1578 4219 1281 4162 
Q 984 4106 628 3988 
L 628 4550 
Q 988 4650 1302 4700 
Q 1616 4750 1894 4750 
Q 2613 4750 3031 4423 
Q 3450 4097 3450 3541 
Q 3450 3153 3228 2886 
Q 3006 2619 2597 2516 
z
" transform="scale(0.015625)"/>
       </defs>
       <use xlink:href="#DejaVuSans-33"/>
      </g>
     </g>
    </g>
    <g id="ytick_5">
     <g id="line2d_7">
      <g>
       <use xlink:href="#mdd59809875" x="45.164375" y="120.900094" style="stroke: #000000; stroke-width: 0.8"/>
      </g>
     </g>
     <g id="text_7">
      <!-- 4 -->
      <g transform="translate(28.620625 126.598922) scale(0.15 -0.15)">
       <defs>
        <path id="DejaVuSans-34" d="M 2419 4116 
L 825 1625 
L 2419 1625 
L 2419 4116 
z
M 2253 4666 
L 3047 4666 
L 3047 1625 
L 3713 1625 
L 3713 1100 
L 3047 1100 
L 3047 0 
L 2419 0 
L 2419 1100 
L 313 1100 
L 313 1709 
L 2253 4666 
z
" transform="scale(0.015625)"/>
       </defs>
       <use xlink:href="#DejaVuSans-34"/>
      </g>
     </g>
    </g>
    <g id="ytick_6">
     <g id="line2d_8">
      <g>
       <use xlink:href="#mdd59809875" x="45.164375" y="76.548094" style="stroke: #000000; stroke-width: 0.8"/>
      </g>
     </g>
     <g id="text_8">
      <!-- 5 -->
      <g transform="translate(28.620625 82.246922) scale(0.15 -0.15)">
       <defs>
        <path id="DejaVuSans-35" d="M 691 4666 
L 3169 4666 
L 3169 4134 
L 1269 4134 
L 1269 2991 
Q 1406 3038 1543 3061 
Q 1681 3084 1819 3084 
Q 2600 3084 3056 2656 
Q 3513 2228 3513 1497 
Q 3513 744 3044 326 
Q 2575 -91 1722 -91 
Q 1428 -91 1123 -41 
Q 819 9 494 109 
L 494 744 
Q 775 591 1075 516 
Q 1375 441 1709 441 
Q 2250 441 2565 725 
Q 2881 1009 2881 1497 
Q 2881 1984 2565 2268 
Q 2250 2553 1709 2553 
Q 1456 2553 1204 2497 
Q 953 2441 691 2322 
L 691 4666 
z
" transform="scale(0.015625)"/>
       </defs>
       <use xlink:href="#DejaVuSans-35"/>
      </g>
     </g>
    </g>
    <g id="ytick_7">
     <g id="line2d_9">
      <g>
       <use xlink:href="#mdd59809875" x="45.164375" y="32.196094" style="stroke: #000000; stroke-width: 0.8"/>
      </g>
     </g>
     <g id="text_9">
      <!-- 6 -->
      <g transform="translate(28.620625 37.894922) scale(0.15 -0.15)">
       <defs>
        <path id="DejaVuSans-36" d="M 2113 2584 
Q 1688 2584 1439 2293 
Q 1191 2003 1191 1497 
Q 1191 994 1439 701 
Q 1688 409 2113 409 
Q 2538 409 2786 701 
Q 3034 994 3034 1497 
Q 3034 2003 2786 2293 
Q 2538 2584 2113 2584 
z
M 3366 4563 
L 3366 3988 
Q 3128 4100 2886 4159 
Q 2644 4219 2406 4219 
Q 1781 4219 1451 3797 
Q 1122 3375 1075 2522 
Q 1259 2794 1537 2939 
Q 1816 3084 2150 3084 
Q 2853 3084 3261 2657 
Q 3669 2231 3669 1497 
Q 3669 778 3244 343 
Q 2819 -91 2113 -91 
Q 1303 -91 875 529 
Q 447 1150 447 2328 
Q 447 3434 972 4092 
Q 1497 4750 2381 4750 
Q 2619 4750 2861 4703 
Q 3103 4656 3366 4563 
z
" transform="scale(0.015625)"/>
       </defs>
       <use xlink:href="#DejaVuSans-36"/>
      </g>
     </g>
    </g>
    <g id="text_10">
     <!-- AC/BC Ratio -->
     <g transform="translate(20.877187 218.831625) rotate(-90) scale(0.18 -0.18)">
      <defs>
       <path id="DejaVuSans-41" d="M 2188 4044 
L 1331 1722 
L 3047 1722 
L 2188 4044 
z
M 1831 4666 
L 2547 4666 
L 4325 0 
L 3669 0 
L 3244 1197 
L 1141 1197 
L 716 0 
L 50 0 
L 1831 4666 
z
" transform="scale(0.015625)"/>
       <path id="DejaVuSans-43" d="M 4122 4306 
L 4122 3641 
Q 3803 3938 3442 4084 
Q 3081 4231 2675 4231 
Q 1875 4231 1450 3742 
Q 1025 3253 1025 2328 
Q 1025 1406 1450 917 
Q 1875 428 2675 428 
Q 3081 428 3442 575 
Q 3803 722 4122 1019 
L 4122 359 
Q 3791 134 3420 21 
Q 3050 -91 2638 -91 
Q 1578 -91 968 557 
Q 359 1206 359 2328 
Q 359 3453 968 4101 
Q 1578 4750 2638 4750 
Q 3056 4750 3426 4639 
Q 3797 4528 4122 4306 
z
" transform="scale(0.015625)"/>
       <path id="DejaVuSans-2f" d="M 1625 4666 
L 2156 4666 
L 531 -594 
L 0 -594 
L 1625 4666 
z
" transform="scale(0.015625)"/>
       <path id="DejaVuSans-42" d="M 1259 2228 
L 1259 519 
L 2272 519 
Q 2781 519 3026 730 
Q 3272 941 3272 1375 
Q 3272 1813 3026 2020 
Q 2781 2228 2272 2228 
L 1259 2228 
z
M 1259 4147 
L 1259 2741 
L 2194 2741 
Q 2656 2741 2882 2914 
Q 3109 3088 3109 3444 
Q 3109 3797 2882 3972 
Q 2656 4147 2194 4147 
L 1259 4147 
z
M 628 4666 
L 2241 4666 
Q 2963 4666 3353 4366 
Q 3744 4066 3744 3513 
Q 3744 3084 3544 2831 
Q 3344 2578 2956 2516 
Q 3422 2416 3680 2098 
Q 3938 1781 3938 1306 
Q 3938 681 3513 340 
Q 3088 0 2303 0 
L 628 0 
L 628 4666 
z
" transform="scale(0.015625)"/>
       <path id="DejaVuSans-20" transform="scale(0.015625)"/>
       <path id="DejaVuSans-52" d="M 2841 2188 
Q 3044 2119 3236 1894 
Q 3428 1669 3622 1275 
L 4263 0 
L 3584 0 
L 2988 1197 
Q 2756 1666 2539 1819 
Q 2322 1972 1947 1972 
L 1259 1972 
L 1259 0 
L 628 0 
L 628 4666 
L 2053 4666 
Q 2853 4666 3247 4331 
Q 3641 3997 3641 3322 
Q 3641 2881 3436 2590 
Q 3231 2300 2841 2188 
z
M 1259 4147 
L 1259 2491 
L 2053 2491 
Q 2509 2491 2742 2702 
Q 2975 2913 2975 3322 
Q 2975 3731 2742 3939 
Q 2509 4147 2053 4147 
L 1259 4147 
z
" transform="scale(0.015625)"/>
      </defs>
      <use xlink:href="#DejaVuSans-41"/>
      <use xlink:href="#DejaVuSans-43" x="66.658203"/>
      <use xlink:href="#DejaVuSans-2f" x="136.482422"/>
      <use xlink:href="#DejaVuSans-42" x="170.173828"/>
      <use xlink:href="#DejaVuSans-43" x="237.027344"/>
      <use xlink:href="#DejaVuSans-20" x="306.851562"/>
      <use xlink:href="#DejaVuSans-52" x="338.638672"/>
      <use xlink:href="#DejaVuSans-61" x="405.871094"/>
      <use xlink:href="#DejaVuSans-74" x="467.150391"/>
      <use xlink:href="#DejaVuSans-69" x="506.359375"/>
      <use xlink:href="#DejaVuSans-6f" x="534.142578"/>
     </g>
    </g>
   </g>
   <g id="patch_3">
    <path d="M 63.020375 220.771929 
L 110.636375 220.771929 
L 110.636375 148.430594 
L 63.020375 148.430594 
L 63.020375 220.771929 
z
" clip-path="url(#pddffe1f533)" style="fill: #ffffff; stroke: #999999; stroke-linejoin: miter"/>
   </g>
   <g id="line2d_10">
    <path d="M 86.828375 220.771929 
L 86.828375 239.352386 
" clip-path="url(#pddffe1f533)" style="fill: none; stroke: #999999"/>
   </g>
   <g id="line2d_11">
    <path d="M 86.828375 148.430594 
L 86.828375 111.396094 
" clip-path="url(#pddffe1f533)" style="fill: none; stroke: #999999"/>
   </g>
   <g id="line2d_12">
    <path d="M 74.924375 239.352386 
L 98.732375 239.352386 
" clip-path="url(#pddffe1f533)" style="fill: none; stroke: #999999; stroke-linecap: square"/>
   </g>
   <g id="line2d_13">
    <path d="M 74.924375 111.396094 
L 98.732375 111.396094 
" clip-path="url(#pddffe1f533)" style="fill: none; stroke: #999999; stroke-linecap: square"/>
   </g>
   <g id="line2d_14"/>
   <g id="patch_4">
    <path d="M 241.580375 263.320959 
L 289.196375 263.320959 
L 289.196375 244.497136 
L 241.580375 244.497136 
L 241.580375 263.320959 
z
" clip-path="url(#pddffe1f533)" style="fill: #ffffff; stroke: #999999; stroke-linejoin: miter"/>
   </g>
   <g id="line2d_15">
    <path d="M 265.388375 263.320959 
L 265.388375 272.644218 
" clip-path="url(#pddffe1f533)" style="fill: none; stroke: #999999"/>
   </g>
   <g id="line2d_16">
    <path d="M 265.388375 244.497136 
L 265.388375 224.264067 
" clip-path="url(#pddffe1f533)" style="fill: none; stroke: #999999"/>
   </g>
   <g id="line2d_17">
    <path d="M 253.484375 272.644218 
L 277.292375 272.644218 
" clip-path="url(#pddffe1f533)" style="fill: none; stroke: #999999; stroke-linecap: square"/>
   </g>
   <g id="line2d_18">
    <path d="M 253.484375 224.264067 
L 277.292375 224.264067 
" clip-path="url(#pddffe1f533)" style="fill: none; stroke: #999999; stroke-linecap: square"/>
   </g>
   <g id="line2d_19"/>
   <g id="patch_5">
    <path d="M 110.636375 254.248525 
L 158.252375 254.248525 
L 158.252375 237.679367 
L 110.636375 237.679367 
L 110.636375 254.248525 
z
" clip-path="url(#pddffe1f533)" style="fill: #ffffff; stroke: #999999; stroke-linejoin: miter"/>
   </g>
   <g id="line2d_20">
    <path d="M 134.444375 254.248525 
L 134.444375 261.158555 
" clip-path="url(#pddffe1f533)" style="fill: none; stroke: #999999"/>
   </g>
   <g id="line2d_21">
    <path d="M 134.444375 237.679367 
L 134.444375 235.019285 
" clip-path="url(#pddffe1f533)" style="fill: none; stroke: #999999"/>
   </g>
   <g id="line2d_22">
    <path d="M 122.540375 261.158555 
L 146.348375 261.158555 
" clip-path="url(#pddffe1f533)" style="fill: none; stroke: #999999; stroke-linecap: square"/>
   </g>
   <g id="line2d_23">
    <path d="M 122.540375 235.019285 
L 146.348375 235.019285 
" clip-path="url(#pddffe1f533)" style="fill: none; stroke: #999999; stroke-linecap: square"/>
   </g>
   <g id="line2d_24"/>
   <g id="patch_6">
    <path d="M 289.196375 256.293662 
L 336.812375 256.293662 
L 336.812375 241.663703 
L 289.196375 241.663703 
L 289.196375 256.293662 
z
" clip-path="url(#pddffe1f533)" style="fill: #ffffff; stroke: #999999; stroke-linejoin: miter"/>
   </g>
   <g id="line2d_25">
    <path d="M 313.004375 256.293662 
L 313.004375 265.874473 
" clip-path="url(#pddffe1f533)" style="fill: none; stroke: #999999"/>
   </g>
   <g id="line2d_26">
    <path d="M 313.004375 241.663703 
L 313.004375 240.551934 
" clip-path="url(#pddffe1f533)" style="fill: none; stroke: #999999"/>
   </g>
   <g id="line2d_27">
    <path d="M 301.100375 265.874473 
L 324.908375 265.874473 
" clip-path="url(#pddffe1f533)" style="fill: none; stroke: #999999; stroke-linecap: square"/>
   </g>
   <g id="line2d_28">
    <path d="M 301.100375 240.551934 
L 324.908375 240.551934 
" clip-path="url(#pddffe1f533)" style="fill: none; stroke: #999999; stroke-linecap: square"/>
   </g>
   <g id="line2d_29">
    <defs>
     <path id="maf3b8dd867" d="M 0 3 
C 0.795609 3 1.55874 2.683901 2.12132 2.12132 
C 2.683901 1.55874 3 0.795609 3 0 
C 3 -0.795609 2.683901 -1.55874 2.12132 -2.12132 
C 1.55874 -2.683901 0.795609 -3 0 -3 
C -0.795609 -3 -1.55874 -2.683901 -2.12132 -2.12132 
C -2.683901 -1.55874 -3 -0.795609 -3 0 
C -3 0.795609 -2.683901 1.55874 -2.12132 2.12132 
C -1.55874 2.683901 -0.795609 3 0 3 
z
" style="stroke: #999999"/>
    </defs>
    <g clip-path="url(#pddffe1f533)">
     <use xlink:href="#maf3b8dd867" x="313.004375" y="211.269186" style="fill-opacity: 0; stroke: #999999"/>
    </g>
   </g>
   <g id="patch_7">
    <path d="M 158.252375 258.80126 
L 205.868375 258.80126 
L 205.868375 252.02843 
L 158.252375 252.02843 
L 158.252375 258.80126 
z
" clip-path="url(#pddffe1f533)" style="fill: #ffffff; stroke: #999999; stroke-linejoin: miter"/>
   </g>
   <g id="line2d_30">
    <path d="M 182.060375 258.80126 
L 182.060375 263.375988 
" clip-path="url(#pddffe1f533)" style="fill: none; stroke: #999999"/>
   </g>
   <g id="line2d_31">
    <path d="M 182.060375 252.02843 
L 182.060375 249.830326 
" clip-path="url(#pddffe1f533)" style="fill: none; stroke: #999999"/>
   </g>
   <g id="line2d_32">
    <path d="M 170.156375 263.375988 
L 193.964375 263.375988 
" clip-path="url(#pddffe1f533)" style="fill: none; stroke: #999999; stroke-linecap: square"/>
   </g>
   <g id="line2d_33">
    <path d="M 170.156375 249.830326 
L 193.964375 249.830326 
" clip-path="url(#pddffe1f533)" style="fill: none; stroke: #999999; stroke-linecap: square"/>
   </g>
   <g id="line2d_34"/>
   <g id="patch_8">
    <path d="M 336.812375 263.045041 
L 384.428375 263.045041 
L 384.428375 261.072377 
L 336.812375 261.072377 
L 336.812375 263.045041 
z
" clip-path="url(#pddffe1f533)" style="fill: #ffffff; stroke: #999999; stroke-linejoin: miter"/>
   </g>
   <g id="line2d_35">
    <path d="M 360.620375 263.045041 
L 360.620375 264.031372 
" clip-path="url(#pddffe1f533)" style="fill: none; stroke: #999999"/>
   </g>
   <g id="line2d_36">
    <path d="M 360.620375 261.072377 
L 360.620375 260.086045 
" clip-path="url(#pddffe1f533)" style="fill: none; stroke: #999999"/>
   </g>
   <g id="line2d_37">
    <path d="M 348.716375 264.031372 
L 372.524375 264.031372 
" clip-path="url(#pddffe1f533)" style="fill: none; stroke: #999999; stroke-linecap: square"/>
   </g>
   <g id="line2d_38">
    <path d="M 348.716375 260.086045 
L 372.524375 260.086045 
" clip-path="url(#pddffe1f533)" style="fill: none; stroke: #999999; stroke-linecap: square"/>
   </g>
   <g id="line2d_39"/>
   <g id="line2d_40">
    <path d="M 63.020375 178.385982 
L 110.636375 178.385982 
" clip-path="url(#pddffe1f533)" style="fill: none; stroke: #999999"/>
   </g>
   <g id="line2d_41">
    <path d="M 241.580375 252.295201 
L 289.196375 252.295201 
" clip-path="url(#pddffe1f533)" style="fill: none; stroke: #999999"/>
   </g>
   <g id="line2d_42">
    <path d="M 110.636375 247.994462 
L 158.252375 247.994462 
" clip-path="url(#pddffe1f533)" style="fill: none; stroke: #999999"/>
   </g>
   <g id="line2d_43">
    <path d="M 289.196375 248.883145 
L 336.812375 248.883145 
" clip-path="url(#pddffe1f533)" style="fill: none; stroke: #999999"/>
   </g>
   <g id="line2d_44">
    <path d="M 158.252375 254.226533 
L 205.868375 254.226533 
" clip-path="url(#pddffe1f533)" style="fill: none; stroke: #999999"/>
   </g>
   <g id="line2d_45">
    <path d="M 336.812375 262.058709 
L 384.428375 262.058709 
" clip-path="url(#pddffe1f533)" style="fill: none; stroke: #999999"/>
   </g>
   <g id="patch_9">
    <path d="M 45.164375 298.308094 
L 45.164375 32.196094 
" style="fill: none; stroke: #000000; stroke-width: 0.8; stroke-linejoin: miter; stroke-linecap: square"/>
   </g>
   <g id="patch_10">
    <path d="M 402.284375 298.308094 
L 402.284375 32.196094 
" style="fill: none; stroke: #000000; stroke-width: 0.8; stroke-linejoin: miter; stroke-linecap: square"/>
   </g>
   <g id="patch_11">
    <path d="M 45.164375 298.308094 
L 402.284375 298.308094 
" style="fill: none; stroke: #000000; stroke-width: 0.8; stroke-linejoin: miter; stroke-linecap: square"/>
   </g>
   <g id="patch_12">
    <path d="M 45.164375 32.196094 
L 402.284375 32.196094 
" style="fill: none; stroke: #000000; stroke-width: 0.8; stroke-linejoin: miter; stroke-linecap: square"/>
   </g>
   <g id="PathCollection_1">
    <defs>
     <path id="C0_0_eb4ffc3404" d="M 0 5 
C 1.326016 5 2.597899 4.473168 3.535534 3.535534 
C 4.473168 2.597899 5 1.326016 5 -0 
C 5 -1.326016 4.473168 -2.597899 3.535534 -3.535534 
C 2.597899 -4.473168 1.326016 -5 0 -5 
C -1.326016 -5 -2.597899 -4.473168 -3.535534 -3.535534 
C -4.473168 -2.597899 -5 -1.326016 -5 0 
C -5 1.326016 -4.473168 2.597899 -3.535534 3.535534 
C -2.597899 4.473168 -1.326016 5 0 5 
z
"/>
    </defs>
    <g clip-path="url(#pddffe1f533)">
     <use xlink:href="#C0_0_eb4ffc3404" x="83.734298" y="208.315861" style="fill: #808080; stroke: #000000"/>
    </g>
    <g clip-path="url(#pddffe1f533)">
     <use xlink:href="#C0_0_eb4ffc3404" x="87.343177" y="239.352386" style="fill: #808080; stroke: #000000"/>
    </g>
    <g clip-path="url(#pddffe1f533)">
     <use xlink:href="#C0_0_eb4ffc3404" x="90.267849" y="223.332094" style="fill: #808080; stroke: #000000"/>
    </g>
    <g clip-path="url(#pddffe1f533)">
     <use xlink:href="#C0_0_eb4ffc3404" x="83.003412" y="222.824401" style="fill: #808080; stroke: #000000"/>
    </g>
    <g clip-path="url(#pddffe1f533)">
     <use xlink:href="#C0_0_eb4ffc3404" x="90.43745" y="235.245094" style="fill: #808080; stroke: #000000"/>
    </g>
    <g clip-path="url(#pddffe1f533)">
     <use xlink:href="#C0_0_eb4ffc3404" x="83.278429" y="212.087806" style="fill: #808080; stroke: #000000"/>
    </g>
    <g clip-path="url(#pddffe1f533)">
     <use xlink:href="#C0_0_eb4ffc3404" x="82.672029" y="200.219029" style="fill: #808080; stroke: #000000"/>
    </g>
    <g clip-path="url(#pddffe1f533)">
     <use xlink:href="#C0_0_eb4ffc3404" x="81.488629" y="196.284324" style="fill: #808080; stroke: #000000"/>
    </g>
    <g clip-path="url(#pddffe1f533)">
     <use xlink:href="#C0_0_eb4ffc3404" x="81.364561" y="212.826248" style="fill: #808080; stroke: #000000"/>
    </g>
    <g clip-path="url(#pddffe1f533)">
     <use xlink:href="#C0_0_eb4ffc3404" x="87.579734" y="236.637694" style="fill: #808080; stroke: #000000"/>
    </g>
    <g clip-path="url(#pddffe1f533)">
     <use xlink:href="#C0_0_eb4ffc3404" x="91.127231" y="222.181527" style="fill: #808080; stroke: #000000"/>
    </g>
    <g clip-path="url(#pddffe1f533)">
     <use xlink:href="#C0_0_eb4ffc3404" x="84.901485" y="220.302064" style="fill: #808080; stroke: #000000"/>
    </g>
    <g clip-path="url(#pddffe1f533)">
     <use xlink:href="#C0_0_eb4ffc3404" x="89.001968" y="233.318837" style="fill: #808080; stroke: #000000"/>
    </g>
    <g clip-path="url(#pddffe1f533)">
     <use xlink:href="#C0_0_eb4ffc3404" x="92.436244" y="160.278038" style="fill: #808080; stroke: #000000"/>
    </g>
    <g clip-path="url(#pddffe1f533)">
     <use xlink:href="#C0_0_eb4ffc3404" x="84.437443" y="111.396094" style="fill: #808080; stroke: #000000"/>
    </g>
    <g clip-path="url(#pddffe1f533)">
     <use xlink:href="#C0_0_eb4ffc3404" x="83.763134" y="134.205694" style="fill: #808080; stroke: #000000"/>
    </g>
    <g clip-path="url(#pddffe1f533)">
     <use xlink:href="#C0_0_eb4ffc3404" x="82.698813" y="141.749325" style="fill: #808080; stroke: #000000"/>
    </g>
    <g clip-path="url(#pddffe1f533)">
     <use xlink:href="#C0_0_eb4ffc3404" x="88.479838" y="147.896963" style="fill: #808080; stroke: #000000"/>
    </g>
    <g clip-path="url(#pddffe1f533)">
     <use xlink:href="#C0_0_eb4ffc3404" x="90.442802" y="132.089819" style="fill: #808080; stroke: #000000"/>
    </g>
    <g clip-path="url(#pddffe1f533)">
     <use xlink:href="#C0_0_eb4ffc3404" x="88.475009" y="150.332461" style="fill: #808080; stroke: #000000"/>
    </g>
    <g clip-path="url(#pddffe1f533)">
     <use xlink:href="#C0_0_eb4ffc3404" x="92.231351" y="174.390424" style="fill: #808080; stroke: #000000"/>
    </g>
    <g clip-path="url(#pddffe1f533)">
     <use xlink:href="#C0_0_eb4ffc3404" x="85.101167" y="136.975525" style="fill: #808080; stroke: #000000"/>
    </g>
    <g clip-path="url(#pddffe1f533)">
     <use xlink:href="#C0_0_eb4ffc3404" x="91.726239" y="129.92084" style="fill: #808080; stroke: #000000"/>
    </g>
    <g clip-path="url(#pddffe1f533)">
     <use xlink:href="#C0_0_eb4ffc3404" x="81.913907" y="148.608471" style="fill: #808080; stroke: #000000"/>
    </g>
    <g clip-path="url(#pddffe1f533)">
     <use xlink:href="#C0_0_eb4ffc3404" x="91.204209" y="168.816094" style="fill: #808080; stroke: #000000"/>
    </g>
    <g clip-path="url(#pddffe1f533)">
     <use xlink:href="#C0_0_eb4ffc3404" x="86.504417" y="154.334678" style="fill: #808080; stroke: #000000"/>
    </g>
    <g clip-path="url(#pddffe1f533)">
     <use xlink:href="#C0_0_eb4ffc3404" x="91.783087" y="155.073701" style="fill: #808080; stroke: #000000"/>
    </g>
    <g clip-path="url(#pddffe1f533)">
     <use xlink:href="#C0_0_eb4ffc3404" x="89.34577" y="182.38154" style="fill: #808080; stroke: #000000"/>
    </g>
   </g>
   <g id="PathCollection_2">
    <defs>
     <path id="C1_0_0931cda697" d="M 0 5 
C 1.326016 5 2.597899 4.473168 3.535534 3.535534 
C 4.473168 2.597899 5 1.326016 5 -0 
C 5 -1.326016 4.473168 -2.597899 3.535534 -3.535534 
C 2.597899 -4.473168 1.326016 -5 0 -5 
C -1.326016 -5 -2.597899 -4.473168 -3.535534 -3.535534 
C -4.473168 -2.597899 -5 -1.326016 -5 0 
C -5 1.326016 -4.473168 2.597899 -3.535534 3.535534 
C -2.597899 4.473168 -1.326016 5 0 5 
z
"/>
    </defs>
    <g clip-path="url(#pddffe1f533)">
     <use xlink:href="#C1_0_0931cda697" x="131.930638" y="261.158555" style="fill: #3386ff; stroke: #000000"/>
    </g>
    <g clip-path="url(#pddffe1f533)">
     <use xlink:href="#C1_0_0931cda697" x="130.880917" y="251.031786" style="fill: #3386ff; stroke: #000000"/>
    </g>
    <g clip-path="url(#pddffe1f533)">
     <use xlink:href="#C1_0_0931cda697" x="137.072765" y="244.957137" style="fill: #3386ff; stroke: #000000"/>
    </g>
    <g clip-path="url(#pddffe1f533)">
     <use xlink:href="#C1_0_0931cda697" x="129.124151" y="255.320771" style="fill: #3386ff; stroke: #000000"/>
    </g>
    <g clip-path="url(#pddffe1f533)">
     <use xlink:href="#C1_0_0931cda697" x="139.545367" y="235.253443" style="fill: #3386ff; stroke: #000000"/>
    </g>
    <g clip-path="url(#pddffe1f533)">
     <use xlink:href="#C1_0_0931cda697" x="134.234683" y="235.019285" style="fill: #3386ff; stroke: #000000"/>
    </g>
   </g>
   <g id="PathCollection_3">
    <defs>
     <path id="C2_0_df3a0cb9c1" d="M 0 5 
C 1.326016 5 2.597899 4.473168 3.535534 3.535534 
C 4.473168 2.597899 5 1.326016 5 -0 
C 5 -1.326016 4.473168 -2.597899 3.535534 -3.535534 
C 2.597899 -4.473168 1.326016 -5 0 -5 
C -1.326016 -5 -2.597899 -4.473168 -3.535534 -3.535534 
C -4.473168 -2.597899 -5 -1.326016 -5 0 
C -5 1.326016 -4.473168 2.597899 -3.535534 3.535534 
C -2.597899 4.473168 -1.326016 5 0 5 
z
"/>
    </defs>
    <g clip-path="url(#pddffe1f533)">
     <use xlink:href="#C2_0_df3a0cb9c1" x="182.533018" y="249.830326" style="fill: #dc267f; stroke: #000000"/>
    </g>
    <g clip-path="url(#pddffe1f533)">
     <use xlink:href="#C2_0_df3a0cb9c1" x="187.682209" y="254.226533" style="fill: #dc267f; stroke: #000000"/>
    </g>
    <g clip-path="url(#pddffe1f533)">
     <use xlink:href="#C2_0_df3a0cb9c1" x="185.579702" y="263.375988" style="fill: #dc267f; stroke: #000000"/>
    </g>
   </g>
   <g id="PathCollection_4">
    <defs>
     <path id="C3_0_be950ed5f2" d="M 0 5 
C 1.326016 5 2.597899 4.473168 3.535534 3.535534 
C 4.473168 2.597899 5 1.326016 5 -0 
C 5 -1.326016 4.473168 -2.597899 3.535534 -3.535534 
C 2.597899 -4.473168 1.326016 -5 0 -5 
C -1.326016 -5 -2.597899 -4.473168 -3.535534 -3.535534 
C -4.473168 -2.597899 -5 -1.326016 -5 0 
C -5 1.326016 -4.473168 2.597899 -3.535534 3.535534 
C -2.597899 4.473168 -1.326016 5 0 5 
z
"/>
    </defs>
    <g clip-path="url(#pddffe1f533)">
     <use xlink:href="#C3_0_be950ed5f2" x="271.040744" y="261.280277" style="fill: #808080; stroke: #000000"/>
    </g>
    <g clip-path="url(#pddffe1f533)">
     <use xlink:href="#C3_0_be950ed5f2" x="259.853185" y="272.644218" style="fill: #808080; stroke: #000000"/>
    </g>
    <g clip-path="url(#pddffe1f533)">
     <use xlink:href="#C3_0_be950ed5f2" x="264.330313" y="242.868094" style="fill: #808080; stroke: #000000"/>
    </g>
    <g clip-path="url(#pddffe1f533)">
     <use xlink:href="#C3_0_be950ed5f2" x="265.683467" y="224.264067" style="fill: #808080; stroke: #000000"/>
    </g>
    <g clip-path="url(#pddffe1f533)">
     <use xlink:href="#C3_0_be950ed5f2" x="269.055962" y="264.600574" style="fill: #808080; stroke: #000000"/>
    </g>
    <g clip-path="url(#pddffe1f533)">
     <use xlink:href="#C3_0_be950ed5f2" x="268.369218" y="244.497136" style="fill: #808080; stroke: #000000"/>
    </g>
    <g clip-path="url(#pddffe1f533)">
     <use xlink:href="#C3_0_be950ed5f2" x="261.831018" y="252.295201" style="fill: #808080; stroke: #000000"/>
    </g>
    <g clip-path="url(#pddffe1f533)">
     <use xlink:href="#C3_0_be950ed5f2" x="259.562891" y="244.71873" style="fill: #808080; stroke: #000000"/>
    </g>
    <g clip-path="url(#pddffe1f533)">
     <use xlink:href="#C3_0_be950ed5f2" x="265.123828" y="242.436094" style="fill: #808080; stroke: #000000"/>
    </g>
    <g clip-path="url(#pddffe1f533)">
     <use xlink:href="#C3_0_be950ed5f2" x="263.822037" y="250.535631" style="fill: #808080; stroke: #000000"/>
    </g>
    <g clip-path="url(#pddffe1f533)">
     <use xlink:href="#C3_0_be950ed5f2" x="263.814261" y="263.620343" style="fill: #808080; stroke: #000000"/>
    </g>
    <g clip-path="url(#pddffe1f533)">
     <use xlink:href="#C3_0_be950ed5f2" x="268.606622" y="261.001829" style="fill: #808080; stroke: #000000"/>
    </g>
    <g clip-path="url(#pddffe1f533)">
     <use xlink:href="#C3_0_be950ed5f2" x="269.188232" y="263.320959" style="fill: #808080; stroke: #000000"/>
    </g>
   </g>
   <g id="PathCollection_5">
    <defs>
     <path id="C4_0_e453fccca9" d="M 0 5 
C 1.326016 5 2.597899 4.473168 3.535534 3.535534 
C 4.473168 2.597899 5 1.326016 5 -0 
C 5 -1.326016 4.473168 -2.597899 3.535534 -3.535534 
C 2.597899 -4.473168 1.326016 -5 0 -5 
C -1.326016 -5 -2.597899 -4.473168 -3.535534 -3.535534 
C -4.473168 -2.597899 -5 -1.326016 -5 0 
C -5 1.326016 -4.473168 2.597899 -3.535534 3.535534 
C -2.597899 4.473168 -1.326016 5 0 5 
z
"/>
    </defs>
    <g clip-path="url(#pddffe1f533)">
     <use xlink:href="#C4_0_e453fccca9" x="308.881122" y="252.767277" style="fill: #3386ff; stroke: #000000"/>
    </g>
    <g clip-path="url(#pddffe1f533)">
     <use xlink:href="#C4_0_e453fccca9" x="311.031252" y="240.551934" style="fill: #3386ff; stroke: #000000"/>
    </g>
    <g clip-path="url(#pddffe1f533)">
     <use xlink:href="#C4_0_e453fccca9" x="314.31694" y="265.874473" style="fill: #3386ff; stroke: #000000"/>
    </g>
    <g clip-path="url(#pddffe1f533)">
     <use xlink:href="#C4_0_e453fccca9" x="314.259912" y="211.269186" style="fill: #3386ff; stroke: #000000"/>
    </g>
    <g clip-path="url(#pddffe1f533)">
     <use xlink:href="#C4_0_e453fccca9" x="312.478585" y="244.999012" style="fill: #3386ff; stroke: #000000"/>
    </g>
    <g clip-path="url(#pddffe1f533)">
     <use xlink:href="#C4_0_e453fccca9" x="309.371117" y="257.469123" style="fill: #3386ff; stroke: #000000"/>
    </g>
   </g>
   <g id="PathCollection_6">
    <defs>
     <path id="C5_0_dc0d195d6e" d="M 0 5 
C 1.326016 5 2.597899 4.473168 3.535534 3.535534 
C 4.473168 2.597899 5 1.326016 5 -0 
C 5 -1.326016 4.473168 -2.597899 3.535534 -3.535534 
C 2.597899 -4.473168 1.326016 -5 0 -5 
C -1.326016 -5 -2.597899 -4.473168 -3.535534 -3.535534 
C -4.473168 -2.597899 -5 -1.326016 -5 0 
C -5 1.326016 -4.473168 2.597899 -3.535534 3.535534 
C -2.597899 4.473168 -1.326016 5 0 5 
z
"/>
    </defs>
    <g clip-path="url(#pddffe1f533)">
     <use xlink:href="#C5_0_dc0d195d6e" x="361.961163" y="260.086045" style="fill: #dc267f; stroke: #000000"/>
    </g>
    <g clip-path="url(#pddffe1f533)">
     <use xlink:href="#C5_0_dc0d195d6e" x="361.335657" y="264.031372" style="fill: #dc267f; stroke: #000000"/>
    </g>
   </g>
   <g id="line2d_46"/>
   <g id="line2d_47"/>
   <g id="line2d_48"/>
   <g id="text_11">
    <!-- p = 1.538e-08 -->
    <g transform="translate(98.345156 217.278485) scale(0.1 -0.1)">
     <defs>
      <path id="DejaVuSans-3d" d="M 678 2906 
L 4684 2906 
L 4684 2381 
L 678 2381 
L 678 2906 
z
M 678 1631 
L 4684 1631 
L 4684 1100 
L 678 1100 
L 678 1631 
z
" transform="scale(0.015625)"/>
      <path id="DejaVuSans-2e" d="M 684 794 
L 1344 794 
L 1344 0 
L 684 0 
L 684 794 
z
" transform="scale(0.015625)"/>
      <path id="DejaVuSans-38" d="M 2034 2216 
Q 1584 2216 1326 1975 
Q 1069 1734 1069 1313 
Q 1069 891 1326 650 
Q 1584 409 2034 409 
Q 2484 409 2743 651 
Q 3003 894 3003 1313 
Q 3003 1734 2745 1975 
Q 2488 2216 2034 2216 
z
M 1403 2484 
Q 997 2584 770 2862 
Q 544 3141 544 3541 
Q 544 4100 942 4425 
Q 1341 4750 2034 4750 
Q 2731 4750 3128 4425 
Q 3525 4100 3525 3541 
Q 3525 3141 3298 2862 
Q 3072 2584 2669 2484 
Q 3125 2378 3379 2068 
Q 3634 1759 3634 1313 
Q 3634 634 3220 271 
Q 2806 -91 2034 -91 
Q 1263 -91 848 271 
Q 434 634 434 1313 
Q 434 1759 690 2068 
Q 947 2378 1403 2484 
z
M 1172 3481 
Q 1172 3119 1398 2916 
Q 1625 2713 2034 2713 
Q 2441 2713 2670 2916 
Q 2900 3119 2900 3481 
Q 2900 3844 2670 4047 
Q 2441 4250 2034 4250 
Q 1625 4250 1398 4047 
Q 1172 3844 1172 3481 
z
" transform="scale(0.015625)"/>
      <path id="DejaVuSans-2d" d="M 313 2009 
L 1997 2009 
L 1997 1497 
L 313 1497 
L 313 2009 
z
" transform="scale(0.015625)"/>
     </defs>
     <use xlink:href="#DejaVuSans-70"/>
     <use xlink:href="#DejaVuSans-20" x="63.476562"/>
     <use xlink:href="#DejaVuSans-3d" x="95.263672"/>
     <use xlink:href="#DejaVuSans-20" x="179.052734"/>
     <use xlink:href="#DejaVuSans-31" x="210.839844"/>
     <use xlink:href="#DejaVuSans-2e" x="274.462891"/>
     <use xlink:href="#DejaVuSans-35" x="306.25"/>
     <use xlink:href="#DejaVuSans-33" x="369.873047"/>
     <use xlink:href="#DejaVuSans-38" x="433.496094"/>
     <use xlink:href="#DejaVuSans-65" x="497.119141"/>
     <use xlink:href="#DejaVuSans-2d" x="558.642578"/>
     <use xlink:href="#DejaVuSans-30" x="594.726562"/>
     <use xlink:href="#DejaVuSans-38" x="658.349609"/>
    </g>
   </g>
   <g id="text_12">
    <!-- p = 1.48e-09 -->
    <g transform="translate(146.166406 240.959926) scale(0.1 -0.1)">
     <defs>
      <path id="DejaVuSans-39" d="M 703 97 
L 703 672 
Q 941 559 1184 500 
Q 1428 441 1663 441 
Q 2288 441 2617 861 
Q 2947 1281 2994 2138 
Q 2813 1869 2534 1725 
Q 2256 1581 1919 1581 
Q 1219 1581 811 2004 
Q 403 2428 403 3163 
Q 403 3881 828 4315 
Q 1253 4750 1959 4750 
Q 2769 4750 3195 4129 
Q 3622 3509 3622 2328 
Q 3622 1225 3098 567 
Q 2575 -91 1691 -91 
Q 1453 -91 1209 -44 
Q 966 3 703 97 
z
M 1959 2075 
Q 2384 2075 2632 2365 
Q 2881 2656 2881 3163 
Q 2881 3666 2632 3958 
Q 2384 4250 1959 4250 
Q 1534 4250 1286 3958 
Q 1038 3666 1038 3163 
Q 1038 2656 1286 2365 
Q 1534 2075 1959 2075 
z
" transform="scale(0.015625)"/>
     </defs>
     <use xlink:href="#DejaVuSans-70"/>
     <use xlink:href="#DejaVuSans-20" x="63.476562"/>
     <use xlink:href="#DejaVuSans-3d" x="95.263672"/>
     <use xlink:href="#DejaVuSans-20" x="179.052734"/>
     <use xlink:href="#DejaVuSans-31" x="210.839844"/>
     <use xlink:href="#DejaVuSans-2e" x="274.462891"/>
     <use xlink:href="#DejaVuSans-34" x="306.25"/>
     <use xlink:href="#DejaVuSans-38" x="369.873047"/>
     <use xlink:href="#DejaVuSans-65" x="433.496094"/>
     <use xlink:href="#DejaVuSans-2d" x="495.019531"/>
     <use xlink:href="#DejaVuSans-30" x="531.103516"/>
     <use xlink:href="#DejaVuSans-39" x="594.726562"/>
    </g>
   </g>
   <g id="text_13">
    <!-- p = 0.397 -->
    <g transform="translate(288.148125 202.398786) scale(0.1 -0.1)">
     <defs>
      <path id="DejaVuSans-37" d="M 525 4666 
L 3525 4666 
L 3525 4397 
L 1831 0 
L 1172 0 
L 2766 4134 
L 525 4134 
L 525 4666 
z
" transform="scale(0.015625)"/>
     </defs>
     <use xlink:href="#DejaVuSans-70"/>
     <use xlink:href="#DejaVuSans-20" x="63.476562"/>
     <use xlink:href="#DejaVuSans-3d" x="95.263672"/>
     <use xlink:href="#DejaVuSans-20" x="179.052734"/>
     <use xlink:href="#DejaVuSans-30" x="210.839844"/>
     <use xlink:href="#DejaVuSans-2e" x="274.462891"/>
     <use xlink:href="#DejaVuSans-33" x="306.25"/>
     <use xlink:href="#DejaVuSans-39" x="369.873047"/>
     <use xlink:href="#DejaVuSans-37" x="433.496094"/>
    </g>
   </g>
   <g id="text_14">
    <!-- p = 0.046 -->
    <g transform="translate(341.716125 251.215645) scale(0.1 -0.1)">
     <use xlink:href="#DejaVuSans-70"/>
     <use xlink:href="#DejaVuSans-20" x="63.476562"/>
     <use xlink:href="#DejaVuSans-3d" x="95.263672"/>
     <use xlink:href="#DejaVuSans-20" x="179.052734"/>
     <use xlink:href="#DejaVuSans-30" x="210.839844"/>
     <use xlink:href="#DejaVuSans-2e" x="274.462891"/>
     <use xlink:href="#DejaVuSans-30" x="306.25"/>
     <use xlink:href="#DejaVuSans-34" x="369.873047"/>
     <use xlink:href="#DejaVuSans-36" x="433.496094"/>
    </g>
   </g>
   <g id="text_15">
    <!-- AC/BC MT Ratio -->
    <g transform="translate(115.031016 26.196094) scale(0.25 -0.25)">
     <defs>
      <path id="DejaVuSans-Bold-41" d="M 3419 850 
L 1538 850 
L 1241 0 
L 31 0 
L 1759 4666 
L 3194 4666 
L 4922 0 
L 3713 0 
L 3419 850 
z
M 1838 1716 
L 3116 1716 
L 2478 3572 
L 1838 1716 
z
" transform="scale(0.015625)"/>
      <path id="DejaVuSans-Bold-43" d="M 4288 256 
Q 3956 84 3597 -3 
Q 3238 -91 2847 -91 
Q 1681 -91 1000 561 
Q 319 1213 319 2328 
Q 319 3447 1000 4098 
Q 1681 4750 2847 4750 
Q 3238 4750 3597 4662 
Q 3956 4575 4288 4403 
L 4288 3438 
Q 3953 3666 3628 3772 
Q 3303 3878 2944 3878 
Q 2300 3878 1931 3465 
Q 1563 3053 1563 2328 
Q 1563 1606 1931 1193 
Q 2300 781 2944 781 
Q 3303 781 3628 887 
Q 3953 994 4288 1222 
L 4288 256 
z
" transform="scale(0.015625)"/>
      <path id="DejaVuSans-Bold-2f" d="M 1644 4666 
L 2338 4666 
L 691 -594 
L 0 -594 
L 1644 4666 
z
" transform="scale(0.015625)"/>
      <path id="DejaVuSans-Bold-42" d="M 2456 2859 
Q 2741 2859 2887 2984 
Q 3034 3109 3034 3353 
Q 3034 3594 2887 3720 
Q 2741 3847 2456 3847 
L 1791 3847 
L 1791 2859 
L 2456 2859 
z
M 2497 819 
Q 2859 819 3042 972 
Q 3225 1125 3225 1434 
Q 3225 1738 3044 1889 
Q 2863 2041 2497 2041 
L 1791 2041 
L 1791 819 
L 2497 819 
z
M 3616 2497 
Q 4003 2384 4215 2081 
Q 4428 1778 4428 1338 
Q 4428 663 3972 331 
Q 3516 0 2584 0 
L 588 0 
L 588 4666 
L 2394 4666 
Q 3366 4666 3802 4372 
Q 4238 4078 4238 3431 
Q 4238 3091 4078 2852 
Q 3919 2613 3616 2497 
z
" transform="scale(0.015625)"/>
      <path id="DejaVuSans-Bold-20" transform="scale(0.015625)"/>
      <path id="DejaVuSans-Bold-4d" d="M 588 4666 
L 2119 4666 
L 3181 2169 
L 4250 4666 
L 5778 4666 
L 5778 0 
L 4641 0 
L 4641 3413 
L 3566 897 
L 2803 897 
L 1728 3413 
L 1728 0 
L 588 0 
L 588 4666 
z
" transform="scale(0.015625)"/>
      <path id="DejaVuSans-Bold-54" d="M 31 4666 
L 4331 4666 
L 4331 3756 
L 2784 3756 
L 2784 0 
L 1581 0 
L 1581 3756 
L 31 3756 
L 31 4666 
z
" transform="scale(0.015625)"/>
      <path id="DejaVuSans-Bold-52" d="M 2297 2597 
Q 2675 2597 2839 2737 
Q 3003 2878 3003 3200 
Q 3003 3519 2839 3656 
Q 2675 3794 2297 3794 
L 1791 3794 
L 1791 2597 
L 2297 2597 
z
M 1791 1766 
L 1791 0 
L 588 0 
L 588 4666 
L 2425 4666 
Q 3347 4666 3776 4356 
Q 4206 4047 4206 3378 
Q 4206 2916 3982 2619 
Q 3759 2322 3309 2181 
Q 3556 2125 3751 1926 
Q 3947 1728 4147 1325 
L 4800 0 
L 3519 0 
L 2950 1159 
Q 2778 1509 2601 1637 
Q 2425 1766 2131 1766 
L 1791 1766 
z
" transform="scale(0.015625)"/>
      <path id="DejaVuSans-Bold-61" d="M 2106 1575 
Q 1756 1575 1579 1456 
Q 1403 1338 1403 1106 
Q 1403 894 1545 773 
Q 1688 653 1941 653 
Q 2256 653 2472 879 
Q 2688 1106 2688 1447 
L 2688 1575 
L 2106 1575 
z
M 3816 1997 
L 3816 0 
L 2688 0 
L 2688 519 
Q 2463 200 2181 54 
Q 1900 -91 1497 -91 
Q 953 -91 614 226 
Q 275 544 275 1050 
Q 275 1666 698 1953 
Q 1122 2241 2028 2241 
L 2688 2241 
L 2688 2328 
Q 2688 2594 2478 2717 
Q 2269 2841 1825 2841 
Q 1466 2841 1156 2769 
Q 847 2697 581 2553 
L 581 3406 
Q 941 3494 1303 3539 
Q 1666 3584 2028 3584 
Q 2975 3584 3395 3211 
Q 3816 2838 3816 1997 
z
" transform="scale(0.015625)"/>
      <path id="DejaVuSans-Bold-74" d="M 1759 4494 
L 1759 3500 
L 2913 3500 
L 2913 2700 
L 1759 2700 
L 1759 1216 
Q 1759 972 1856 886 
Q 1953 800 2241 800 
L 2816 800 
L 2816 0 
L 1856 0 
Q 1194 0 917 276 
Q 641 553 641 1216 
L 641 2700 
L 84 2700 
L 84 3500 
L 641 3500 
L 641 4494 
L 1759 4494 
z
" transform="scale(0.015625)"/>
      <path id="DejaVuSans-Bold-69" d="M 538 3500 
L 1656 3500 
L 1656 0 
L 538 0 
L 538 3500 
z
M 538 4863 
L 1656 4863 
L 1656 3950 
L 538 3950 
L 538 4863 
z
" transform="scale(0.015625)"/>
      <path id="DejaVuSans-Bold-6f" d="M 2203 2784 
Q 1831 2784 1636 2517 
Q 1441 2250 1441 1747 
Q 1441 1244 1636 976 
Q 1831 709 2203 709 
Q 2569 709 2762 976 
Q 2956 1244 2956 1747 
Q 2956 2250 2762 2517 
Q 2569 2784 2203 2784 
z
M 2203 3584 
Q 3106 3584 3614 3096 
Q 4122 2609 4122 1747 
Q 4122 884 3614 396 
Q 3106 -91 2203 -91 
Q 1297 -91 786 396 
Q 275 884 275 1747 
Q 275 2609 786 3096 
Q 1297 3584 2203 3584 
z
" transform="scale(0.015625)"/>
     </defs>
     <use xlink:href="#DejaVuSans-Bold-41"/>
     <use xlink:href="#DejaVuSans-Bold-43" x="77.392578"/>
     <use xlink:href="#DejaVuSans-Bold-2f" x="150.78125"/>
     <use xlink:href="#DejaVuSans-Bold-42" x="187.304688"/>
     <use xlink:href="#DejaVuSans-Bold-43" x="263.525391"/>
     <use xlink:href="#DejaVuSans-Bold-20" x="336.914062"/>
     <use xlink:href="#DejaVuSans-Bold-4d" x="371.728516"/>
     <use xlink:href="#DejaVuSans-Bold-54" x="471.240234"/>
     <use xlink:href="#DejaVuSans-Bold-20" x="539.453125"/>
     <use xlink:href="#DejaVuSans-Bold-52" x="574.267578"/>
     <use xlink:href="#DejaVuSans-Bold-61" x="651.269531"/>
     <use xlink:href="#DejaVuSans-Bold-74" x="718.75"/>
     <use xlink:href="#DejaVuSans-Bold-69" x="766.552734"/>
     <use xlink:href="#DejaVuSans-Bold-6f" x="800.830078"/>
    </g>
   </g>
   <g id="legend_1">
    <g id="patch_13">
     <path d="M 52.164375 84.230469 
L 192.62375 84.230469 
Q 194.62375 84.230469 194.62375 82.230469 
L 194.62375 39.196094 
Q 194.62375 37.196094 192.62375 37.196094 
L 52.164375 37.196094 
Q 50.164375 37.196094 50.164375 39.196094 
L 50.164375 82.230469 
Q 50.164375 84.230469 52.164375 84.230469 
z
" style="fill: #ffffff; opacity: 0.8; stroke: #cccccc; stroke-linejoin: miter"/>
    </g>
    <g id="line2d_49">
     <defs>
      <path id="mbed07ece5d" d="M 0 5 
C 1.326016 5 2.597899 4.473168 3.535534 3.535534 
C 4.473168 2.597899 5 1.326016 5 0 
C 5 -1.326016 4.473168 -2.597899 3.535534 -3.535534 
C 2.597899 -4.473168 1.326016 -5 0 -5 
C -1.326016 -5 -2.597899 -4.473168 -3.535534 -3.535534 
C -4.473168 -2.597899 -5 -1.326016 -5 0 
C -5 1.326016 -4.473168 2.597899 -3.535534 3.535534 
C -2.597899 4.473168 -1.326016 5 0 5 
z
" style="stroke: #000000"/>
     </defs>
     <g>
      <use xlink:href="#mbed07ece5d" x="64.164375" y="45.294531" style="fill: #808080; stroke: #000000"/>
     </g>
    </g>
    <g id="text_16">
     <!-- WT -->
     <g transform="translate(82.164375 48.794531) scale(0.1 -0.1)">
      <defs>
       <path id="DejaVuSans-57" d="M 213 4666 
L 850 4666 
L 1831 722 
L 2809 4666 
L 3519 4666 
L 4500 722 
L 5478 4666 
L 6119 4666 
L 4947 0 
L 4153 0 
L 3169 4050 
L 2175 0 
L 1381 0 
L 213 4666 
z
" transform="scale(0.015625)"/>
       <path id="DejaVuSans-54" d="M -19 4666 
L 3928 4666 
L 3928 4134 
L 2272 4134 
L 2272 0 
L 1638 0 
L 1638 4134 
L -19 4134 
L -19 4666 
z
" transform="scale(0.015625)"/>
      </defs>
      <use xlink:href="#DejaVuSans-57"/>
      <use xlink:href="#DejaVuSans-54" x="98.876953"/>
     </g>
    </g>
    <g id="line2d_50">
     <defs>
      <path id="md94c40f70e" d="M 0 5 
C 1.326016 5 2.597899 4.473168 3.535534 3.535534 
C 4.473168 2.597899 5 1.326016 5 0 
C 5 -1.326016 4.473168 -2.597899 3.535534 -3.535534 
C 2.597899 -4.473168 1.326016 -5 0 -5 
C -1.326016 -5 -2.597899 -4.473168 -3.535534 -3.535534 
C -4.473168 -2.597899 -5 -1.326016 -5 0 
C -5 1.326016 -4.473168 2.597899 -3.535534 3.535534 
C -2.597899 4.473168 -1.326016 5 0 5 
z
" style="stroke: #000000"/>
     </defs>
     <g>
      <use xlink:href="#md94c40f70e" x="64.164375" y="59.972656" style="fill: #3386ff; stroke: #000000"/>
     </g>
    </g>
    <g id="text_17">
     <!-- PP4r2 RNAi, 0X MTOC -->
     <g transform="translate(82.164375 63.472656) scale(0.1 -0.1)">
      <defs>
       <path id="DejaVuSans-50" d="M 1259 4147 
L 1259 2394 
L 2053 2394 
Q 2494 2394 2734 2622 
Q 2975 2850 2975 3272 
Q 2975 3691 2734 3919 
Q 2494 4147 2053 4147 
L 1259 4147 
z
M 628 4666 
L 2053 4666 
Q 2838 4666 3239 4311 
Q 3641 3956 3641 3272 
Q 3641 2581 3239 2228 
Q 2838 1875 2053 1875 
L 1259 1875 
L 1259 0 
L 628 0 
L 628 4666 
z
" transform="scale(0.015625)"/>
       <path id="DejaVuSans-4e" d="M 628 4666 
L 1478 4666 
L 3547 763 
L 3547 4666 
L 4159 4666 
L 4159 0 
L 3309 0 
L 1241 3903 
L 1241 0 
L 628 0 
L 628 4666 
z
" transform="scale(0.015625)"/>
       <path id="DejaVuSans-2c" d="M 750 794 
L 1409 794 
L 1409 256 
L 897 -744 
L 494 -744 
L 750 256 
L 750 794 
z
" transform="scale(0.015625)"/>
       <path id="DejaVuSans-58" d="M 403 4666 
L 1081 4666 
L 2241 2931 
L 3406 4666 
L 4084 4666 
L 2584 2425 
L 4184 0 
L 3506 0 
L 2194 1984 
L 872 0 
L 191 0 
L 1856 2491 
L 403 4666 
z
" transform="scale(0.015625)"/>
       <path id="DejaVuSans-4d" d="M 628 4666 
L 1569 4666 
L 2759 1491 
L 3956 4666 
L 4897 4666 
L 4897 0 
L 4281 0 
L 4281 4097 
L 3078 897 
L 2444 897 
L 1241 4097 
L 1241 0 
L 628 0 
L 628 4666 
z
" transform="scale(0.015625)"/>
       <path id="DejaVuSans-4f" d="M 2522 4238 
Q 1834 4238 1429 3725 
Q 1025 3213 1025 2328 
Q 1025 1447 1429 934 
Q 1834 422 2522 422 
Q 3209 422 3611 934 
Q 4013 1447 4013 2328 
Q 4013 3213 3611 3725 
Q 3209 4238 2522 4238 
z
M 2522 4750 
Q 3503 4750 4090 4092 
Q 4678 3434 4678 2328 
Q 4678 1225 4090 567 
Q 3503 -91 2522 -91 
Q 1538 -91 948 565 
Q 359 1222 359 2328 
Q 359 3434 948 4092 
Q 1538 4750 2522 4750 
z
" transform="scale(0.015625)"/>
      </defs>
      <use xlink:href="#DejaVuSans-50"/>
      <use xlink:href="#DejaVuSans-50" x="60.302734"/>
      <use xlink:href="#DejaVuSans-34" x="120.605469"/>
      <use xlink:href="#DejaVuSans-72" x="184.228516"/>
      <use xlink:href="#DejaVuSans-32" x="225.341797"/>
      <use xlink:href="#DejaVuSans-20" x="288.964844"/>
      <use xlink:href="#DejaVuSans-52" x="320.751953"/>
      <use xlink:href="#DejaVuSans-4e" x="390.234375"/>
      <use xlink:href="#DejaVuSans-41" x="465.039062"/>
      <use xlink:href="#DejaVuSans-69" x="533.447266"/>
      <use xlink:href="#DejaVuSans-2c" x="561.230469"/>
      <use xlink:href="#DejaVuSans-20" x="593.017578"/>
      <use xlink:href="#DejaVuSans-30" x="624.804688"/>
      <use xlink:href="#DejaVuSans-58" x="688.427734"/>
      <use xlink:href="#DejaVuSans-20" x="756.933594"/>
      <use xlink:href="#DejaVuSans-4d" x="788.720703"/>
      <use xlink:href="#DejaVuSans-54" x="875"/>
      <use xlink:href="#DejaVuSans-4f" x="936.083984"/>
      <use xlink:href="#DejaVuSans-43" x="1014.794922"/>
     </g>
    </g>
    <g id="line2d_51">
     <defs>
      <path id="mfebf1f4626" d="M 0 5 
C 1.326016 5 2.597899 4.473168 3.535534 3.535534 
C 4.473168 2.597899 5 1.326016 5 0 
C 5 -1.326016 4.473168 -2.597899 3.535534 -3.535534 
C 2.597899 -4.473168 1.326016 -5 0 -5 
C -1.326016 -5 -2.597899 -4.473168 -3.535534 -3.535534 
C -4.473168 -2.597899 -5 -1.326016 -5 0 
C -5 1.326016 -4.473168 2.597899 -3.535534 3.535534 
C -2.597899 4.473168 -1.326016 5 0 5 
z
" style="stroke: #000000"/>
     </defs>
     <g>
      <use xlink:href="#mfebf1f4626" x="64.164375" y="74.650781" style="fill: #dc267f; stroke: #000000"/>
     </g>
    </g>
    <g id="text_18">
     <!-- PP4r2 RNAi, 2X MTOC -->
     <g transform="translate(82.164375 78.150781) scale(0.1 -0.1)">
      <use xlink:href="#DejaVuSans-50"/>
      <use xlink:href="#DejaVuSans-50" x="60.302734"/>
      <use xlink:href="#DejaVuSans-34" x="120.605469"/>
      <use xlink:href="#DejaVuSans-72" x="184.228516"/>
      <use xlink:href="#DejaVuSans-32" x="225.341797"/>
      <use xlink:href="#DejaVuSans-20" x="288.964844"/>
      <use xlink:href="#DejaVuSans-52" x="320.751953"/>
      <use xlink:href="#DejaVuSans-4e" x="390.234375"/>
      <use xlink:href="#DejaVuSans-41" x="465.039062"/>
      <use xlink:href="#DejaVuSans-69" x="533.447266"/>
      <use xlink:href="#DejaVuSans-2c" x="561.230469"/>
      <use xlink:href="#DejaVuSans-20" x="593.017578"/>
      <use xlink:href="#DejaVuSans-32" x="624.804688"/>
      <use xlink:href="#DejaVuSans-58" x="688.427734"/>
      <use xlink:href="#DejaVuSans-20" x="756.933594"/>
      <use xlink:href="#DejaVuSans-4d" x="788.720703"/>
      <use xlink:href="#DejaVuSans-54" x="875"/>
      <use xlink:href="#DejaVuSans-4f" x="936.083984"/>
      <use xlink:href="#DejaVuSans-43" x="1014.794922"/>
     </g>
    </g>
   </g>
  </g>
 </g>
 <defs>
  <clipPath id="pddffe1f533">
   <rect x="45.164375" y="32.196094" width="357.12" height="266.112"/>
  </clipPath>
 </defs>
</svg>
