<?xml version="1.0" encoding="utf-8" standalone="no"?>
<!DOCTYPE svg PUBLIC "-//W3C//DTD SVG 1.1//EN"
  "http://www.w3.org/Graphics/SVG/1.1/DTD/svg11.dtd">
<svg xmlns:xlink="http://www.w3.org/1999/xlink" width="433.461406pt" height="323.226062pt" viewBox="0 0 433.461406 323.226062" xmlns="http://www.w3.org/2000/svg" version="1.1">
 <metadata>
  <rdf:RDF xmlns:dc="http://purl.org/dc/elements/1.1/" xmlns:cc="http://creativecommons.org/ns#" xmlns:rdf="http://www.w3.org/1999/02/22-rdf-syntax-ns#">
   <cc:Work>
    <dc:type rdf:resource="http://purl.org/dc/dcmitype/StillImage"/>
    <dc:date>2024-12-18T15:03:13.141205</dc:date>
    <dc:format>image/svg+xml</dc:format>
    <dc:creator>
     <cc:Agent>
      <dc:title>Matplotlib v3.7.2, https://matplotlib.org/</dc:title>
     </cc:Agent>
    </dc:creator>
   </cc:Work>
  </rdf:RDF>
 </metadata>
 <defs>
  <style type="text/css">*{stroke-linejoin: round; stroke-linecap: butt}</style>
 </defs>
 <g id="figure_1">
  <g id="patch_1">
   <path d="M 0 323.226062 
L 433.461406 323.226062 
L 433.461406 0 
L 0 0 
z
" style="fill: #ffffff"/>
  </g>
  <g id="axes_1">
   <g id="patch_2">
    <path d="M 69.141406 294.508875 
L 426.261406 294.508875 
L 426.261406 28.396875 
L 69.141406 28.396875 
z
" style="fill: #ffffff"/>
   </g>
   <g id="matplotlib.axis_1">
    <g id="xtick_1">
     <g id="line2d_1">
      <defs>
       <path id="m1ee8152d5a" d="M 0 0 
L 0 3.5 
" style="stroke: #000000; stroke-width: 0.8"/>
      </defs>
      <g>
       <use xlink:href="#m1ee8152d5a" x="113.781406" y="294.508875" style="stroke: #000000; stroke-width: 0.8"/>
      </g>
     </g>
     <g id="text_1">
      <!-- Daughter -->
      <g transform="translate(78.504453 312.906531) scale(0.15 -0.15)">
       <defs>
        <path id="DejaVuSans-44" d="M 1259 4147 
L 1259 519 
L 2022 519 
Q 2988 519 3436 956 
Q 3884 1394 3884 2338 
Q 3884 3275 3436 3711 
Q 2988 4147 2022 4147 
L 1259 4147 
z
M 628 4666 
L 1925 4666 
Q 3281 4666 3915 4102 
Q 4550 3538 4550 2338 
Q 4550 1131 3912 565 
Q 3275 0 1925 0 
L 628 0 
L 628 4666 
z
" transform="scale(0.015625)"/>
        <path id="DejaVuSans-61" d="M 2194 1759 
Q 1497 1759 1228 1600 
Q 959 1441 959 1056 
Q 959 750 1161 570 
Q 1363 391 1709 391 
Q 2188 391 2477 730 
Q 2766 1069 2766 1631 
L 2766 1759 
L 2194 1759 
z
M 3341 1997 
L 3341 0 
L 2766 0 
L 2766 531 
Q 2569 213 2275 61 
Q 1981 -91 1556 -91 
Q 1019 -91 701 211 
Q 384 513 384 1019 
Q 384 1609 779 1909 
Q 1175 2209 1959 2209 
L 2766 2209 
L 2766 2266 
Q 2766 2663 2505 2880 
Q 2244 3097 1772 3097 
Q 1472 3097 1187 3025 
Q 903 2953 641 2809 
L 641 3341 
Q 956 3463 1253 3523 
Q 1550 3584 1831 3584 
Q 2591 3584 2966 3190 
Q 3341 2797 3341 1997 
z
" transform="scale(0.015625)"/>
        <path id="DejaVuSans-75" d="M 544 1381 
L 544 3500 
L 1119 3500 
L 1119 1403 
Q 1119 906 1312 657 
Q 1506 409 1894 409 
Q 2359 409 2629 706 
Q 2900 1003 2900 1516 
L 2900 3500 
L 3475 3500 
L 3475 0 
L 2900 0 
L 2900 538 
Q 2691 219 2414 64 
Q 2138 -91 1772 -91 
Q 1169 -91 856 284 
Q 544 659 544 1381 
z
M 1991 3584 
L 1991 3584 
z
" transform="scale(0.015625)"/>
        <path id="DejaVuSans-67" d="M 2906 1791 
Q 2906 2416 2648 2759 
Q 2391 3103 1925 3103 
Q 1463 3103 1205 2759 
Q 947 2416 947 1791 
Q 947 1169 1205 825 
Q 1463 481 1925 481 
Q 2391 481 2648 825 
Q 2906 1169 2906 1791 
z
M 3481 434 
Q 3481 -459 3084 -895 
Q 2688 -1331 1869 -1331 
Q 1566 -1331 1297 -1286 
Q 1028 -1241 775 -1147 
L 775 -588 
Q 1028 -725 1275 -790 
Q 1522 -856 1778 -856 
Q 2344 -856 2625 -561 
Q 2906 -266 2906 331 
L 2906 616 
Q 2728 306 2450 153 
Q 2172 0 1784 0 
Q 1141 0 747 490 
Q 353 981 353 1791 
Q 353 2603 747 3093 
Q 1141 3584 1784 3584 
Q 2172 3584 2450 3431 
Q 2728 3278 2906 2969 
L 2906 3500 
L 3481 3500 
L 3481 434 
z
" transform="scale(0.015625)"/>
        <path id="DejaVuSans-68" d="M 3513 2113 
L 3513 0 
L 2938 0 
L 2938 2094 
Q 2938 2591 2744 2837 
Q 2550 3084 2163 3084 
Q 1697 3084 1428 2787 
Q 1159 2491 1159 1978 
L 1159 0 
L 581 0 
L 581 4863 
L 1159 4863 
L 1159 2956 
Q 1366 3272 1645 3428 
Q 1925 3584 2291 3584 
Q 2894 3584 3203 3211 
Q 3513 2838 3513 2113 
z
" transform="scale(0.015625)"/>
        <path id="DejaVuSans-74" d="M 1172 4494 
L 1172 3500 
L 2356 3500 
L 2356 3053 
L 1172 3053 
L 1172 1153 
Q 1172 725 1289 603 
Q 1406 481 1766 481 
L 2356 481 
L 2356 0 
L 1766 0 
Q 1100 0 847 248 
Q 594 497 594 1153 
L 594 3053 
L 172 3053 
L 172 3500 
L 594 3500 
L 594 4494 
L 1172 4494 
z
" transform="scale(0.015625)"/>
        <path id="DejaVuSans-65" d="M 3597 1894 
L 3597 1613 
L 953 1613 
Q 991 1019 1311 708 
Q 1631 397 2203 397 
Q 2534 397 2845 478 
Q 3156 559 3463 722 
L 3463 178 
Q 3153 47 2828 -22 
Q 2503 -91 2169 -91 
Q 1331 -91 842 396 
Q 353 884 353 1716 
Q 353 2575 817 3079 
Q 1281 3584 2069 3584 
Q 2775 3584 3186 3129 
Q 3597 2675 3597 1894 
z
M 3022 2063 
Q 3016 2534 2758 2815 
Q 2500 3097 2075 3097 
Q 1594 3097 1305 2825 
Q 1016 2553 972 2059 
L 3022 2063 
z
" transform="scale(0.015625)"/>
        <path id="DejaVuSans-72" d="M 2631 2963 
Q 2534 3019 2420 3045 
Q 2306 3072 2169 3072 
Q 1681 3072 1420 2755 
Q 1159 2438 1159 1844 
L 1159 0 
L 581 0 
L 581 3500 
L 1159 3500 
L 1159 2956 
Q 1341 3275 1631 3429 
Q 1922 3584 2338 3584 
Q 2397 3584 2469 3576 
Q 2541 3569 2628 3553 
L 2631 2963 
z
" transform="scale(0.015625)"/>
       </defs>
       <use xlink:href="#DejaVuSans-44"/>
       <use xlink:href="#DejaVuSans-61" x="77.001953"/>
       <use xlink:href="#DejaVuSans-75" x="138.28125"/>
       <use xlink:href="#DejaVuSans-67" x="201.660156"/>
       <use xlink:href="#DejaVuSans-68" x="265.136719"/>
       <use xlink:href="#DejaVuSans-74" x="328.515625"/>
       <use xlink:href="#DejaVuSans-65" x="367.724609"/>
       <use xlink:href="#DejaVuSans-72" x="429.248047"/>
      </g>
     </g>
    </g>
    <g id="xtick_2">
     <g id="line2d_2">
      <g>
       <use xlink:href="#m1ee8152d5a" x="203.061406" y="294.508875" style="stroke: #000000; stroke-width: 0.8"/>
      </g>
     </g>
     <g id="text_2">
      <!-- Mother -->
      <g transform="translate(176.609844 312.906531) scale(0.15 -0.15)">
       <defs>
        <path id="DejaVuSans-4d" d="M 628 4666 
L 1569 4666 
L 2759 1491 
L 3956 4666 
L 4897 4666 
L 4897 0 
L 4281 0 
L 4281 4097 
L 3078 897 
L 2444 897 
L 1241 4097 
L 1241 0 
L 628 0 
L 628 4666 
z
" transform="scale(0.015625)"/>
        <path id="DejaVuSans-6f" d="M 1959 3097 
Q 1497 3097 1228 2736 
Q 959 2375 959 1747 
Q 959 1119 1226 758 
Q 1494 397 1959 397 
Q 2419 397 2687 759 
Q 2956 1122 2956 1747 
Q 2956 2369 2687 2733 
Q 2419 3097 1959 3097 
z
M 1959 3584 
Q 2709 3584 3137 3096 
Q 3566 2609 3566 1747 
Q 3566 888 3137 398 
Q 2709 -91 1959 -91 
Q 1206 -91 779 398 
Q 353 888 353 1747 
Q 353 2609 779 3096 
Q 1206 3584 1959 3584 
z
" transform="scale(0.015625)"/>
       </defs>
       <use xlink:href="#DejaVuSans-4d"/>
       <use xlink:href="#DejaVuSans-6f" x="86.279297"/>
       <use xlink:href="#DejaVuSans-74" x="147.460938"/>
       <use xlink:href="#DejaVuSans-68" x="186.669922"/>
       <use xlink:href="#DejaVuSans-65" x="250.048828"/>
       <use xlink:href="#DejaVuSans-72" x="311.572266"/>
      </g>
     </g>
    </g>
    <g id="xtick_3">
     <g id="line2d_3">
      <g>
       <use xlink:href="#m1ee8152d5a" x="292.341406" y="294.508875" style="stroke: #000000; stroke-width: 0.8"/>
      </g>
     </g>
     <g id="text_3">
      <!-- None -->
      <g transform="translate(272.773438 312.906531) scale(0.15 -0.15)">
       <defs>
        <path id="DejaVuSans-4e" d="M 628 4666 
L 1478 4666 
L 3547 763 
L 3547 4666 
L 4159 4666 
L 4159 0 
L 3309 0 
L 1241 3903 
L 1241 0 
L 628 0 
L 628 4666 
z
" transform="scale(0.015625)"/>
        <path id="DejaVuSans-6e" d="M 3513 2113 
L 3513 0 
L 2938 0 
L 2938 2094 
Q 2938 2591 2744 2837 
Q 2550 3084 2163 3084 
Q 1697 3084 1428 2787 
Q 1159 2491 1159 1978 
L 1159 0 
L 581 0 
L 581 3500 
L 1159 3500 
L 1159 2956 
Q 1366 3272 1645 3428 
Q 1925 3584 2291 3584 
Q 2894 3584 3203 3211 
Q 3513 2838 3513 2113 
z
" transform="scale(0.015625)"/>
       </defs>
       <use xlink:href="#DejaVuSans-4e"/>
       <use xlink:href="#DejaVuSans-6f" x="74.804688"/>
       <use xlink:href="#DejaVuSans-6e" x="135.986328"/>
       <use xlink:href="#DejaVuSans-65" x="199.365234"/>
      </g>
     </g>
    </g>
    <g id="xtick_4">
     <g id="line2d_4">
      <g>
       <use xlink:href="#m1ee8152d5a" x="381.621406" y="294.508875" style="stroke: #000000; stroke-width: 0.8"/>
      </g>
     </g>
     <g id="text_4">
      <!-- Symmetric -->
      <g transform="translate(340.964375 312.906531) scale(0.15 -0.15)">
       <defs>
        <path id="DejaVuSans-53" d="M 3425 4513 
L 3425 3897 
Q 3066 4069 2747 4153 
Q 2428 4238 2131 4238 
Q 1616 4238 1336 4038 
Q 1056 3838 1056 3469 
Q 1056 3159 1242 3001 
Q 1428 2844 1947 2747 
L 2328 2669 
Q 3034 2534 3370 2195 
Q 3706 1856 3706 1288 
Q 3706 609 3251 259 
Q 2797 -91 1919 -91 
Q 1588 -91 1214 -16 
Q 841 59 441 206 
L 441 856 
Q 825 641 1194 531 
Q 1563 422 1919 422 
Q 2459 422 2753 634 
Q 3047 847 3047 1241 
Q 3047 1584 2836 1778 
Q 2625 1972 2144 2069 
L 1759 2144 
Q 1053 2284 737 2584 
Q 422 2884 422 3419 
Q 422 4038 858 4394 
Q 1294 4750 2059 4750 
Q 2388 4750 2728 4690 
Q 3069 4631 3425 4513 
z
" transform="scale(0.015625)"/>
        <path id="DejaVuSans-79" d="M 2059 -325 
Q 1816 -950 1584 -1140 
Q 1353 -1331 966 -1331 
L 506 -1331 
L 506 -850 
L 844 -850 
Q 1081 -850 1212 -737 
Q 1344 -625 1503 -206 
L 1606 56 
L 191 3500 
L 800 3500 
L 1894 763 
L 2988 3500 
L 3597 3500 
L 2059 -325 
z
" transform="scale(0.015625)"/>
        <path id="DejaVuSans-6d" d="M 3328 2828 
Q 3544 3216 3844 3400 
Q 4144 3584 4550 3584 
Q 5097 3584 5394 3201 
Q 5691 2819 5691 2113 
L 5691 0 
L 5113 0 
L 5113 2094 
Q 5113 2597 4934 2840 
Q 4756 3084 4391 3084 
Q 3944 3084 3684 2787 
Q 3425 2491 3425 1978 
L 3425 0 
L 2847 0 
L 2847 2094 
Q 2847 2600 2669 2842 
Q 2491 3084 2119 3084 
Q 1678 3084 1418 2786 
Q 1159 2488 1159 1978 
L 1159 0 
L 581 0 
L 581 3500 
L 1159 3500 
L 1159 2956 
Q 1356 3278 1631 3431 
Q 1906 3584 2284 3584 
Q 2666 3584 2933 3390 
Q 3200 3197 3328 2828 
z
" transform="scale(0.015625)"/>
        <path id="DejaVuSans-69" d="M 603 3500 
L 1178 3500 
L 1178 0 
L 603 0 
L 603 3500 
z
M 603 4863 
L 1178 4863 
L 1178 4134 
L 603 4134 
L 603 4863 
z
" transform="scale(0.015625)"/>
        <path id="DejaVuSans-63" d="M 3122 3366 
L 3122 2828 
Q 2878 2963 2633 3030 
Q 2388 3097 2138 3097 
Q 1578 3097 1268 2742 
Q 959 2388 959 1747 
Q 959 1106 1268 751 
Q 1578 397 2138 397 
Q 2388 397 2633 464 
Q 2878 531 3122 666 
L 3122 134 
Q 2881 22 2623 -34 
Q 2366 -91 2075 -91 
Q 1284 -91 818 406 
Q 353 903 353 1747 
Q 353 2603 823 3093 
Q 1294 3584 2113 3584 
Q 2378 3584 2631 3529 
Q 2884 3475 3122 3366 
z
" transform="scale(0.015625)"/>
       </defs>
       <use xlink:href="#DejaVuSans-53"/>
       <use xlink:href="#DejaVuSans-79" x="63.476562"/>
       <use xlink:href="#DejaVuSans-6d" x="122.65625"/>
       <use xlink:href="#DejaVuSans-6d" x="220.068359"/>
       <use xlink:href="#DejaVuSans-65" x="317.480469"/>
       <use xlink:href="#DejaVuSans-74" x="379.003906"/>
       <use xlink:href="#DejaVuSans-72" x="418.212891"/>
       <use xlink:href="#DejaVuSans-69" x="459.326172"/>
       <use xlink:href="#DejaVuSans-63" x="487.109375"/>
      </g>
     </g>
    </g>
   </g>
   <g id="matplotlib.axis_2">
    <g id="ytick_1">
     <g id="line2d_5">
      <defs>
       <path id="m404b9c8371" d="M 0 0 
L -3.5 0 
" style="stroke: #000000; stroke-width: 0.8"/>
      </defs>
      <g>
       <use xlink:href="#m404b9c8371" x="69.141406" y="294.508875" style="stroke: #000000; stroke-width: 0.8"/>
      </g>
     </g>
     <g id="text_5">
      <!-- −2.0 -->
      <g transform="translate(25.717188 300.207703) scale(0.15 -0.15)">
       <defs>
        <path id="DejaVuSans-2212" d="M 678 2272 
L 4684 2272 
L 4684 1741 
L 678 1741 
L 678 2272 
z
" transform="scale(0.015625)"/>
        <path id="DejaVuSans-32" d="M 1228 531 
L 3431 531 
L 3431 0 
L 469 0 
L 469 531 
Q 828 903 1448 1529 
Q 2069 2156 2228 2338 
Q 2531 2678 2651 2914 
Q 2772 3150 2772 3378 
Q 2772 3750 2511 3984 
Q 2250 4219 1831 4219 
Q 1534 4219 1204 4116 
Q 875 4013 500 3803 
L 500 4441 
Q 881 4594 1212 4672 
Q 1544 4750 1819 4750 
Q 2544 4750 2975 4387 
Q 3406 4025 3406 3419 
Q 3406 3131 3298 2873 
Q 3191 2616 2906 2266 
Q 2828 2175 2409 1742 
Q 1991 1309 1228 531 
z
" transform="scale(0.015625)"/>
        <path id="DejaVuSans-2e" d="M 684 794 
L 1344 794 
L 1344 0 
L 684 0 
L 684 794 
z
" transform="scale(0.015625)"/>
        <path id="DejaVuSans-30" d="M 2034 4250 
Q 1547 4250 1301 3770 
Q 1056 3291 1056 2328 
Q 1056 1369 1301 889 
Q 1547 409 2034 409 
Q 2525 409 2770 889 
Q 3016 1369 3016 2328 
Q 3016 3291 2770 3770 
Q 2525 4250 2034 4250 
z
M 2034 4750 
Q 2819 4750 3233 4129 
Q 3647 3509 3647 2328 
Q 3647 1150 3233 529 
Q 2819 -91 2034 -91 
Q 1250 -91 836 529 
Q 422 1150 422 2328 
Q 422 3509 836 4129 
Q 1250 4750 2034 4750 
z
" transform="scale(0.015625)"/>
       </defs>
       <use xlink:href="#DejaVuSans-2212"/>
       <use xlink:href="#DejaVuSans-32" x="83.789062"/>
       <use xlink:href="#DejaVuSans-2e" x="147.412109"/>
       <use xlink:href="#DejaVuSans-30" x="179.199219"/>
      </g>
     </g>
    </g>
    <g id="ytick_2">
     <g id="line2d_6">
      <g>
       <use xlink:href="#m404b9c8371" x="69.141406" y="261.244875" style="stroke: #000000; stroke-width: 0.8"/>
      </g>
     </g>
     <g id="text_6">
      <!-- −1.5 -->
      <g transform="translate(25.717188 266.943703) scale(0.15 -0.15)">
       <defs>
        <path id="DejaVuSans-31" d="M 794 531 
L 1825 531 
L 1825 4091 
L 703 3866 
L 703 4441 
L 1819 4666 
L 2450 4666 
L 2450 531 
L 3481 531 
L 3481 0 
L 794 0 
L 794 531 
z
" transform="scale(0.015625)"/>
        <path id="DejaVuSans-35" d="M 691 4666 
L 3169 4666 
L 3169 4134 
L 1269 4134 
L 1269 2991 
Q 1406 3038 1543 3061 
Q 1681 3084 1819 3084 
Q 2600 3084 3056 2656 
Q 3513 2228 3513 1497 
Q 3513 744 3044 326 
Q 2575 -91 1722 -91 
Q 1428 -91 1123 -41 
Q 819 9 494 109 
L 494 744 
Q 775 591 1075 516 
Q 1375 441 1709 441 
Q 2250 441 2565 725 
Q 2881 1009 2881 1497 
Q 2881 1984 2565 2268 
Q 2250 2553 1709 2553 
Q 1456 2553 1204 2497 
Q 953 2441 691 2322 
L 691 4666 
z
" transform="scale(0.015625)"/>
       </defs>
       <use xlink:href="#DejaVuSans-2212"/>
       <use xlink:href="#DejaVuSans-31" x="83.789062"/>
       <use xlink:href="#DejaVuSans-2e" x="147.412109"/>
       <use xlink:href="#DejaVuSans-35" x="179.199219"/>
      </g>
     </g>
    </g>
    <g id="ytick_3">
     <g id="line2d_7">
      <g>
       <use xlink:href="#m404b9c8371" x="69.141406" y="227.980875" style="stroke: #000000; stroke-width: 0.8"/>
      </g>
     </g>
     <g id="text_7">
      <!-- −1.0 -->
      <g transform="translate(25.717188 233.679703) scale(0.15 -0.15)">
       <use xlink:href="#DejaVuSans-2212"/>
       <use xlink:href="#DejaVuSans-31" x="83.789062"/>
       <use xlink:href="#DejaVuSans-2e" x="147.412109"/>
       <use xlink:href="#DejaVuSans-30" x="179.199219"/>
      </g>
     </g>
    </g>
    <g id="ytick_4">
     <g id="line2d_8">
      <g>
       <use xlink:href="#m404b9c8371" x="69.141406" y="194.716875" style="stroke: #000000; stroke-width: 0.8"/>
      </g>
     </g>
     <g id="text_8">
      <!-- −0.5 -->
      <g transform="translate(25.717188 200.415703) scale(0.15 -0.15)">
       <use xlink:href="#DejaVuSans-2212"/>
       <use xlink:href="#DejaVuSans-30" x="83.789062"/>
       <use xlink:href="#DejaVuSans-2e" x="147.412109"/>
       <use xlink:href="#DejaVuSans-35" x="179.199219"/>
      </g>
     </g>
    </g>
    <g id="ytick_5">
     <g id="line2d_9">
      <g>
       <use xlink:href="#m404b9c8371" x="69.141406" y="161.452875" style="stroke: #000000; stroke-width: 0.8"/>
      </g>
     </g>
     <g id="text_9">
      <!-- 0.0 -->
      <g transform="translate(38.286719 167.151703) scale(0.15 -0.15)">
       <use xlink:href="#DejaVuSans-30"/>
       <use xlink:href="#DejaVuSans-2e" x="63.623047"/>
       <use xlink:href="#DejaVuSans-30" x="95.410156"/>
      </g>
     </g>
    </g>
    <g id="ytick_6">
     <g id="line2d_10">
      <g>
       <use xlink:href="#m404b9c8371" x="69.141406" y="128.188875" style="stroke: #000000; stroke-width: 0.8"/>
      </g>
     </g>
     <g id="text_10">
      <!-- 0.5 -->
      <g transform="translate(38.286719 133.887703) scale(0.15 -0.15)">
       <use xlink:href="#DejaVuSans-30"/>
       <use xlink:href="#DejaVuSans-2e" x="63.623047"/>
       <use xlink:href="#DejaVuSans-35" x="95.410156"/>
      </g>
     </g>
    </g>
    <g id="ytick_7">
     <g id="line2d_11">
      <g>
       <use xlink:href="#m404b9c8371" x="69.141406" y="94.924875" style="stroke: #000000; stroke-width: 0.8"/>
      </g>
     </g>
     <g id="text_11">
      <!-- 1.0 -->
      <g transform="translate(38.286719 100.623703) scale(0.15 -0.15)">
       <use xlink:href="#DejaVuSans-31"/>
       <use xlink:href="#DejaVuSans-2e" x="63.623047"/>
       <use xlink:href="#DejaVuSans-30" x="95.410156"/>
      </g>
     </g>
    </g>
    <g id="ytick_8">
     <g id="line2d_12">
      <g>
       <use xlink:href="#m404b9c8371" x="69.141406" y="61.660875" style="stroke: #000000; stroke-width: 0.8"/>
      </g>
     </g>
     <g id="text_12">
      <!-- 1.5 -->
      <g transform="translate(38.286719 67.359703) scale(0.15 -0.15)">
       <use xlink:href="#DejaVuSans-31"/>
       <use xlink:href="#DejaVuSans-2e" x="63.623047"/>
       <use xlink:href="#DejaVuSans-35" x="95.410156"/>
      </g>
     </g>
    </g>
    <g id="ytick_9">
     <g id="line2d_13">
      <g>
       <use xlink:href="#m404b9c8371" x="69.141406" y="28.396875" style="stroke: #000000; stroke-width: 0.8"/>
      </g>
     </g>
     <g id="text_13">
      <!-- 2.0 -->
      <g transform="translate(38.286719 34.095703) scale(0.15 -0.15)">
       <use xlink:href="#DejaVuSans-32"/>
       <use xlink:href="#DejaVuSans-2e" x="63.623047"/>
       <use xlink:href="#DejaVuSans-30" x="95.410156"/>
      </g>
     </g>
    </g>
    <g id="text_14">
     <!-- D/M Ratio -->
     <g transform="translate(18.597656 197.860687) rotate(-90) scale(0.15 -0.15)">
      <defs>
       <path id="DejaVuSans-2f" d="M 1625 4666 
L 2156 4666 
L 531 -594 
L 0 -594 
L 1625 4666 
z
" transform="scale(0.015625)"/>
       <path id="DejaVuSans-20" transform="scale(0.015625)"/>
       <path id="DejaVuSans-52" d="M 2841 2188 
Q 3044 2119 3236 1894 
Q 3428 1669 3622 1275 
L 4263 0 
L 3584 0 
L 2988 1197 
Q 2756 1666 2539 1819 
Q 2322 1972 1947 1972 
L 1259 1972 
L 1259 0 
L 628 0 
L 628 4666 
L 2053 4666 
Q 2853 4666 3247 4331 
Q 3641 3997 3641 3322 
Q 3641 2881 3436 2590 
Q 3231 2300 2841 2188 
z
M 1259 4147 
L 1259 2491 
L 2053 2491 
Q 2509 2491 2742 2702 
Q 2975 2913 2975 3322 
Q 2975 3731 2742 3939 
Q 2509 4147 2053 4147 
L 1259 4147 
z
" transform="scale(0.015625)"/>
      </defs>
      <use xlink:href="#DejaVuSans-44"/>
      <use xlink:href="#DejaVuSans-2f" x="77.001953"/>
      <use xlink:href="#DejaVuSans-4d" x="110.693359"/>
      <use xlink:href="#DejaVuSans-20" x="196.972656"/>
      <use xlink:href="#DejaVuSans-52" x="228.759766"/>
      <use xlink:href="#DejaVuSans-61" x="295.992188"/>
      <use xlink:href="#DejaVuSans-74" x="357.271484"/>
      <use xlink:href="#DejaVuSans-69" x="396.480469"/>
      <use xlink:href="#DejaVuSans-6f" x="424.263672"/>
     </g>
    </g>
   </g>
   <g id="patch_3">
    <path d="M 78.069406 150.459464 
L 101.877406 150.459464 
L 101.877406 110.251222 
L 78.069406 110.251222 
L 78.069406 150.459464 
z
" clip-path="url(#p621ed38f7a)" style="fill: #ffffff; stroke: #999999; stroke-linejoin: miter"/>
   </g>
   <g id="line2d_14">
    <path d="M 89.973406 150.459464 
L 89.973406 156.465321 
" clip-path="url(#p621ed38f7a)" style="fill: none; stroke: #999999"/>
   </g>
   <g id="line2d_15">
    <path d="M 89.973406 110.251222 
L 89.973406 86.892439 
" clip-path="url(#p621ed38f7a)" style="fill: none; stroke: #999999"/>
   </g>
   <g id="line2d_16">
    <path d="M 84.021406 156.465321 
L 95.925406 156.465321 
" clip-path="url(#p621ed38f7a)" style="fill: none; stroke: #999999; stroke-linecap: square"/>
   </g>
   <g id="line2d_17">
    <path d="M 84.021406 86.892439 
L 95.925406 86.892439 
" clip-path="url(#p621ed38f7a)" style="fill: none; stroke: #999999; stroke-linecap: square"/>
   </g>
   <g id="line2d_18"/>
   <g id="patch_4">
    <path d="M 101.877406 147.142949 
L 125.685406 147.142949 
L 125.685406 115.085543 
L 101.877406 115.085543 
L 101.877406 147.142949 
z
" clip-path="url(#p621ed38f7a)" style="fill: #ffffff; stroke: #999999; stroke-linejoin: miter"/>
   </g>
   <g id="line2d_19">
    <path d="M 113.781406 147.142949 
L 113.781406 158.653832 
" clip-path="url(#p621ed38f7a)" style="fill: none; stroke: #999999"/>
   </g>
   <g id="line2d_20">
    <path d="M 113.781406 115.085543 
L 113.781406 111.675099 
" clip-path="url(#p621ed38f7a)" style="fill: none; stroke: #999999"/>
   </g>
   <g id="line2d_21">
    <path d="M 107.829406 158.653832 
L 119.733406 158.653832 
" clip-path="url(#p621ed38f7a)" style="fill: none; stroke: #999999; stroke-linecap: square"/>
   </g>
   <g id="line2d_22">
    <path d="M 107.829406 111.675099 
L 119.733406 111.675099 
" clip-path="url(#p621ed38f7a)" style="fill: none; stroke: #999999; stroke-linecap: square"/>
   </g>
   <g id="line2d_23"/>
   <g id="patch_5">
    <path d="M 191.157406 233.631842 
L 214.965406 233.631842 
L 214.965406 180.515108 
L 191.157406 180.515108 
L 191.157406 233.631842 
z
" clip-path="url(#p621ed38f7a)" style="fill: #ffffff; stroke: #999999; stroke-linejoin: miter"/>
   </g>
   <g id="line2d_24">
    <path d="M 203.061406 233.631842 
L 203.061406 274.751284 
" clip-path="url(#p621ed38f7a)" style="fill: none; stroke: #999999"/>
   </g>
   <g id="line2d_25">
    <path d="M 203.061406 180.515108 
L 203.061406 169.469092 
" clip-path="url(#p621ed38f7a)" style="fill: none; stroke: #999999"/>
   </g>
   <g id="line2d_26">
    <path d="M 197.109406 274.751284 
L 209.013406 274.751284 
" clip-path="url(#p621ed38f7a)" style="fill: none; stroke: #999999; stroke-linecap: square"/>
   </g>
   <g id="line2d_27">
    <path d="M 197.109406 169.469092 
L 209.013406 169.469092 
" clip-path="url(#p621ed38f7a)" style="fill: none; stroke: #999999; stroke-linecap: square"/>
   </g>
   <g id="line2d_28"/>
   <g id="patch_6">
    <path d="M 280.437406 167.404725 
L 304.245406 167.404725 
L 304.245406 158.07783 
L 280.437406 158.07783 
L 280.437406 167.404725 
z
" clip-path="url(#p621ed38f7a)" style="fill: #ffffff; stroke: #999999; stroke-linejoin: miter"/>
   </g>
   <g id="line2d_29">
    <path d="M 292.341406 167.404725 
L 292.341406 172.068173 
" clip-path="url(#p621ed38f7a)" style="fill: none; stroke: #999999"/>
   </g>
   <g id="line2d_30">
    <path d="M 292.341406 158.07783 
L 292.341406 153.414382 
" clip-path="url(#p621ed38f7a)" style="fill: none; stroke: #999999"/>
   </g>
   <g id="line2d_31">
    <path d="M 286.389406 172.068173 
L 298.293406 172.068173 
" clip-path="url(#p621ed38f7a)" style="fill: none; stroke: #999999; stroke-linecap: square"/>
   </g>
   <g id="line2d_32">
    <path d="M 286.389406 153.414382 
L 298.293406 153.414382 
" clip-path="url(#p621ed38f7a)" style="fill: none; stroke: #999999; stroke-linecap: square"/>
   </g>
   <g id="line2d_33"/>
   <g id="patch_7">
    <path d="M 369.717406 164.034088 
L 393.525406 164.034088 
L 393.525406 163.705772 
L 369.717406 163.705772 
L 369.717406 164.034088 
z
" clip-path="url(#p621ed38f7a)" style="fill: #ffffff; stroke: #999999; stroke-linejoin: miter"/>
   </g>
   <g id="line2d_34">
    <path d="M 381.621406 164.034088 
L 381.621406 164.198245 
" clip-path="url(#p621ed38f7a)" style="fill: none; stroke: #999999"/>
   </g>
   <g id="line2d_35">
    <path d="M 381.621406 163.705772 
L 381.621406 163.541615 
" clip-path="url(#p621ed38f7a)" style="fill: none; stroke: #999999"/>
   </g>
   <g id="line2d_36">
    <path d="M 375.669406 164.198245 
L 387.573406 164.198245 
" clip-path="url(#p621ed38f7a)" style="fill: none; stroke: #999999; stroke-linecap: square"/>
   </g>
   <g id="line2d_37">
    <path d="M 375.669406 163.541615 
L 387.573406 163.541615 
" clip-path="url(#p621ed38f7a)" style="fill: none; stroke: #999999; stroke-linecap: square"/>
   </g>
   <g id="line2d_38"/>
   <g id="patch_8">
    <path d="M 125.685406 135.015994 
L 149.493406 135.015994 
L 149.493406 126.367667 
L 125.685406 126.367667 
L 125.685406 135.015994 
z
" clip-path="url(#p621ed38f7a)" style="fill: #ffffff; stroke: #999999; stroke-linejoin: miter"/>
   </g>
   <g id="line2d_39">
    <path d="M 137.589406 135.015994 
L 137.589406 136.683397 
" clip-path="url(#p621ed38f7a)" style="fill: none; stroke: #999999"/>
   </g>
   <g id="line2d_40">
    <path d="M 137.589406 126.367667 
L 137.589406 120.924168 
" clip-path="url(#p621ed38f7a)" style="fill: none; stroke: #999999"/>
   </g>
   <g id="line2d_41">
    <path d="M 131.637406 136.683397 
L 143.541406 136.683397 
" clip-path="url(#p621ed38f7a)" style="fill: none; stroke: #999999; stroke-linecap: square"/>
   </g>
   <g id="line2d_42">
    <path d="M 131.637406 120.924168 
L 143.541406 120.924168 
" clip-path="url(#p621ed38f7a)" style="fill: none; stroke: #999999; stroke-linecap: square"/>
   </g>
   <g id="line2d_43"/>
   <g id="patch_9">
    <path d="M 214.965406 196.604037 
L 238.773406 196.604037 
L 238.773406 172.679092 
L 214.965406 172.679092 
L 214.965406 196.604037 
z
" clip-path="url(#p621ed38f7a)" style="fill: #ffffff; stroke: #999999; stroke-linejoin: miter"/>
   </g>
   <g id="line2d_44">
    <path d="M 226.869406 196.604037 
L 226.869406 196.604037 
" clip-path="url(#p621ed38f7a)" style="fill: none; stroke: #999999"/>
   </g>
   <g id="line2d_45">
    <path d="M 226.869406 172.679092 
L 226.869406 171.239161 
" clip-path="url(#p621ed38f7a)" style="fill: none; stroke: #999999"/>
   </g>
   <g id="line2d_46">
    <path d="M 220.917406 196.604037 
L 232.821406 196.604037 
" clip-path="url(#p621ed38f7a)" style="fill: none; stroke: #999999; stroke-linecap: square"/>
   </g>
   <g id="line2d_47">
    <path d="M 220.917406 171.239161 
L 232.821406 171.239161 
" clip-path="url(#p621ed38f7a)" style="fill: none; stroke: #999999; stroke-linecap: square"/>
   </g>
   <g id="line2d_48">
    <defs>
     <path id="m298a44850f" d="M 0 3 
C 0.795609 3 1.55874 2.683901 2.12132 2.12132 
C 2.683901 1.55874 3 0.795609 3 0 
C 3 -0.795609 2.683901 -1.55874 2.12132 -2.12132 
C 1.55874 -2.683901 0.795609 -3 0 -3 
C -0.795609 -3 -1.55874 -2.683901 -2.12132 -2.12132 
C -2.683901 -1.55874 -3 -0.795609 -3 0 
C -3 0.795609 -2.683901 1.55874 -2.12132 2.12132 
C -1.55874 2.683901 -0.795609 3 0 3 
z
" style="stroke: #999999"/>
    </defs>
    <g clip-path="url(#p621ed38f7a)">
     <use xlink:href="#m298a44850f" x="226.869406" y="260.816259" style="fill-opacity: 0; stroke: #999999"/>
    </g>
   </g>
   <g id="patch_10">
    <path d="M 393.525406 161.098646 
L 417.333406 161.098646 
L 417.333406 161.098646 
L 393.525406 161.098646 
L 393.525406 161.098646 
z
" clip-path="url(#p621ed38f7a)" style="fill: #ffffff; stroke: #999999; stroke-linejoin: miter"/>
   </g>
   <g id="line2d_49">
    <path d="M 405.429406 161.098646 
L 405.429406 161.098646 
" clip-path="url(#p621ed38f7a)" style="fill: none; stroke: #999999"/>
   </g>
   <g id="line2d_50">
    <path d="M 405.429406 161.098646 
L 405.429406 161.098646 
" clip-path="url(#p621ed38f7a)" style="fill: none; stroke: #999999"/>
   </g>
   <g id="line2d_51">
    <path d="M 399.477406 161.098646 
L 411.381406 161.098646 
" clip-path="url(#p621ed38f7a)" style="fill: none; stroke: #999999; stroke-linecap: square"/>
   </g>
   <g id="line2d_52">
    <path d="M 399.477406 161.098646 
L 411.381406 161.098646 
" clip-path="url(#p621ed38f7a)" style="fill: none; stroke: #999999; stroke-linecap: square"/>
   </g>
   <g id="line2d_53"/>
   <g id="line2d_54">
    <path d="M 69.141406 161.452875 
L 426.261406 161.452875 
" clip-path="url(#p621ed38f7a)" style="fill: none; stroke-dasharray: 5.55,2.4; stroke-dashoffset: 0; stroke: #000000; stroke-width: 1.5"/>
   </g>
   <g id="line2d_55">
    <path d="M 78.069406 134.566075 
L 101.877406 134.566075 
" clip-path="url(#p621ed38f7a)" style="fill: none; stroke: #999999"/>
   </g>
   <g id="line2d_56">
    <path d="M 101.877406 124.346114 
L 125.685406 124.346114 
" clip-path="url(#p621ed38f7a)" style="fill: none; stroke: #999999"/>
   </g>
   <g id="line2d_57">
    <path d="M 191.157406 215.527038 
L 214.965406 215.527038 
" clip-path="url(#p621ed38f7a)" style="fill: none; stroke: #999999"/>
   </g>
   <g id="line2d_58">
    <path d="M 280.437406 162.741277 
L 304.245406 162.741277 
" clip-path="url(#p621ed38f7a)" style="fill: none; stroke: #999999"/>
   </g>
   <g id="line2d_59">
    <path d="M 369.717406 163.86993 
L 393.525406 163.86993 
" clip-path="url(#p621ed38f7a)" style="fill: none; stroke: #999999"/>
   </g>
   <g id="line2d_60">
    <path d="M 125.685406 128.035635 
L 149.493406 128.035635 
" clip-path="url(#p621ed38f7a)" style="fill: none; stroke: #999999"/>
   </g>
   <g id="line2d_61">
    <path d="M 214.965406 174.179516 
L 238.773406 174.179516 
" clip-path="url(#p621ed38f7a)" style="fill: none; stroke: #999999"/>
   </g>
   <g id="line2d_62">
    <path d="M 393.525406 161.098646 
L 417.333406 161.098646 
" clip-path="url(#p621ed38f7a)" style="fill: none; stroke: #999999"/>
   </g>
   <g id="patch_11">
    <path d="M 69.141406 294.508875 
L 69.141406 28.396875 
" style="fill: none; stroke: #000000; stroke-width: 0.8; stroke-linejoin: miter; stroke-linecap: square"/>
   </g>
   <g id="patch_12">
    <path d="M 426.261406 294.508875 
L 426.261406 28.396875 
" style="fill: none; stroke: #000000; stroke-width: 0.8; stroke-linejoin: miter; stroke-linecap: square"/>
   </g>
   <g id="patch_13">
    <path d="M 69.141406 294.508875 
L 426.261406 294.508875 
" style="fill: none; stroke: #000000; stroke-width: 0.8; stroke-linejoin: miter; stroke-linecap: square"/>
   </g>
   <g id="patch_14">
    <path d="M 69.141406 28.396875 
L 426.261406 28.396875 
" style="fill: none; stroke: #000000; stroke-width: 0.8; stroke-linejoin: miter; stroke-linecap: square"/>
   </g>
   <g id="PathCollection_1">
    <defs>
     <path id="C0_0_7b721324be" d="M 0 5 
C 1.326016 5 2.597899 4.473168 3.535534 3.535534 
C 4.473168 2.597899 5 1.326016 5 -0 
C 5 -1.326016 4.473168 -2.597899 3.535534 -3.535534 
C 2.597899 -4.473168 1.326016 -5 0 -5 
C -1.326016 -5 -2.597899 -4.473168 -3.535534 -3.535534 
C -4.473168 -2.597899 -5 -1.326016 -5 0 
C -5 1.326016 -4.473168 2.597899 -3.535534 3.535534 
C -2.597899 4.473168 -1.326016 5 0 5 
z
"/>
    </defs>
    <g clip-path="url(#p621ed38f7a)">
     <use xlink:href="#C0_0_7b721324be" x="87.467614" y="92.093565" style="fill: #808080; stroke: #000000"/>
    </g>
    <g clip-path="url(#p621ed38f7a)">
     <use xlink:href="#C0_0_7b721324be" x="92.684772" y="114.61928" style="fill: #808080; stroke: #000000"/>
    </g>
    <g clip-path="url(#p621ed38f7a)">
     <use xlink:href="#C0_0_7b721324be" x="90.925423" y="87.420481" style="fill: #808080; stroke: #000000"/>
    </g>
    <g clip-path="url(#p621ed38f7a)">
     <use xlink:href="#C0_0_7b721324be" x="92.538606" y="150.250418" style="fill: #808080; stroke: #000000"/>
    </g>
    <g clip-path="url(#p621ed38f7a)">
     <use xlink:href="#C0_0_7b721324be" x="87.03154" y="154.238609" style="fill: #808080; stroke: #000000"/>
    </g>
    <g clip-path="url(#p621ed38f7a)">
     <use xlink:href="#C0_0_7b721324be" x="88.207685" y="86.892439" style="fill: #808080; stroke: #000000"/>
    </g>
    <g clip-path="url(#p621ed38f7a)">
     <use xlink:href="#C0_0_7b721324be" x="88.004676" y="134.566075" style="fill: #808080; stroke: #000000"/>
    </g>
    <g clip-path="url(#p621ed38f7a)">
     <use xlink:href="#C0_0_7b721324be" x="88.359182" y="105.883163" style="fill: #808080; stroke: #000000"/>
    </g>
    <g clip-path="url(#p621ed38f7a)">
     <use xlink:href="#C0_0_7b721324be" x="92.13458" y="156.465321" style="fill: #808080; stroke: #000000"/>
    </g>
    <g clip-path="url(#p621ed38f7a)">
     <use xlink:href="#C0_0_7b721324be" x="89.32784" y="132.794716" style="fill: #808080; stroke: #000000"/>
    </g>
    <g clip-path="url(#p621ed38f7a)">
     <use xlink:href="#C0_0_7b721324be" x="91.217233" y="118.95845" style="fill: #808080; stroke: #000000"/>
    </g>
    <g clip-path="url(#p621ed38f7a)">
     <use xlink:href="#C0_0_7b721324be" x="92.078087" y="154.983589" style="fill: #808080; stroke: #000000"/>
    </g>
    <g clip-path="url(#p621ed38f7a)">
     <use xlink:href="#C0_0_7b721324be" x="90.527423" y="145.077158" style="fill: #808080; stroke: #000000"/>
    </g>
    <g clip-path="url(#p621ed38f7a)">
     <use xlink:href="#C0_0_7b721324be" x="89.431206" y="139.809529" style="fill: #808080; stroke: #000000"/>
    </g>
    <g clip-path="url(#p621ed38f7a)">
     <use xlink:href="#C0_0_7b721324be" x="91.945598" y="150.66851" style="fill: #808080; stroke: #000000"/>
    </g>
   </g>
   <g id="PathCollection_2">
    <defs>
     <path id="C1_0_cef0d48d84" d="M 0 5 
C 1.326016 5 2.597899 4.473168 3.535534 3.535534 
C 4.473168 2.597899 5 1.326016 5 -0 
C 5 -1.326016 4.473168 -2.597899 3.535534 -3.535534 
C 2.597899 -4.473168 1.326016 -5 0 -5 
C -1.326016 -5 -2.597899 -4.473168 -3.535534 -3.535534 
C -4.473168 -2.597899 -5 -1.326016 -5 0 
C -5 1.326016 -4.473168 2.597899 -3.535534 3.535534 
C -2.597899 4.473168 -1.326016 5 0 5 
z
"/>
    </defs>
    <g clip-path="url(#p621ed38f7a)">
     <use xlink:href="#C1_0_cef0d48d84" x="111.667422" y="121.793018" style="fill: #3386ff; stroke: #000000"/>
    </g>
    <g clip-path="url(#p621ed38f7a)">
     <use xlink:href="#C1_0_cef0d48d84" x="113.564217" y="112.87152" style="fill: #3386ff; stroke: #000000"/>
    </g>
    <g clip-path="url(#p621ed38f7a)">
     <use xlink:href="#C1_0_cef0d48d84" x="116.316585" y="116.38207" style="fill: #3386ff; stroke: #000000"/>
    </g>
    <g clip-path="url(#p621ed38f7a)">
     <use xlink:href="#C1_0_cef0d48d84" x="111.279628" y="148.923862" style="fill: #3386ff; stroke: #000000"/>
    </g>
    <g clip-path="url(#p621ed38f7a)">
     <use xlink:href="#C1_0_cef0d48d84" x="111.832412" y="124.592035" style="fill: #3386ff; stroke: #000000"/>
    </g>
    <g clip-path="url(#p621ed38f7a)">
     <use xlink:href="#C1_0_cef0d48d84" x="112.70218" y="152.782004" style="fill: #3386ff; stroke: #000000"/>
    </g>
    <g clip-path="url(#p621ed38f7a)">
     <use xlink:href="#C1_0_cef0d48d84" x="111.09203" y="124.346114" style="fill: #3386ff; stroke: #000000"/>
    </g>
    <g clip-path="url(#p621ed38f7a)">
     <use xlink:href="#C1_0_cef0d48d84" x="111.57478" y="130.345875" style="fill: #3386ff; stroke: #000000"/>
    </g>
    <g clip-path="url(#p621ed38f7a)">
     <use xlink:href="#C1_0_cef0d48d84" x="114.06408" y="111.675099" style="fill: #3386ff; stroke: #000000"/>
    </g>
    <g clip-path="url(#p621ed38f7a)">
     <use xlink:href="#C1_0_cef0d48d84" x="112.691407" y="147.141005" style="fill: #3386ff; stroke: #000000"/>
    </g>
    <g clip-path="url(#p621ed38f7a)">
     <use xlink:href="#C1_0_cef0d48d84" x="112.751485" y="147.142949" style="fill: #3386ff; stroke: #000000"/>
    </g>
    <g clip-path="url(#p621ed38f7a)">
     <use xlink:href="#C1_0_cef0d48d84" x="114.626669" y="115.085543" style="fill: #3386ff; stroke: #000000"/>
    </g>
    <g clip-path="url(#p621ed38f7a)">
     <use xlink:href="#C1_0_cef0d48d84" x="111.817385" y="158.451686" style="fill: #3386ff; stroke: #000000"/>
    </g>
    <g clip-path="url(#p621ed38f7a)">
     <use xlink:href="#C1_0_cef0d48d84" x="114.691998" y="113.942678" style="fill: #3386ff; stroke: #000000"/>
    </g>
    <g clip-path="url(#p621ed38f7a)">
     <use xlink:href="#C1_0_cef0d48d84" x="114.675521" y="158.653832" style="fill: #3386ff; stroke: #000000"/>
    </g>
    <g clip-path="url(#p621ed38f7a)">
     <use xlink:href="#C1_0_cef0d48d84" x="110.946724" y="116.766812" style="fill: #3386ff; stroke: #000000"/>
    </g>
    <g clip-path="url(#p621ed38f7a)">
     <use xlink:href="#C1_0_cef0d48d84" x="111.446795" y="113.118834" style="fill: #3386ff; stroke: #000000"/>
    </g>
   </g>
   <g id="PathCollection_3">
    <defs>
     <path id="C2_0_30aebb9354" d="M 0 5 
C 1.326016 5 2.597899 4.473168 3.535534 3.535534 
C 4.473168 2.597899 5 1.326016 5 -0 
C 5 -1.326016 4.473168 -2.597899 3.535534 -3.535534 
C 2.597899 -4.473168 1.326016 -5 0 -5 
C -1.326016 -5 -2.597899 -4.473168 -3.535534 -3.535534 
C -4.473168 -2.597899 -5 -1.326016 -5 0 
C -5 1.326016 -4.473168 2.597899 -3.535534 3.535534 
C -2.597899 4.473168 -1.326016 5 0 5 
z
"/>
    </defs>
    <g clip-path="url(#p621ed38f7a)">
     <use xlink:href="#C2_0_30aebb9354" x="140.371441" y="128.035635" style="fill: #ff5733; stroke: #000000"/>
    </g>
    <g clip-path="url(#p621ed38f7a)">
     <use xlink:href="#C2_0_30aebb9354" x="136.517111" y="120.924168" style="fill: #ff5733; stroke: #000000"/>
    </g>
    <g clip-path="url(#p621ed38f7a)">
     <use xlink:href="#C2_0_30aebb9354" x="135.915633" y="126.367667" style="fill: #ff5733; stroke: #000000"/>
    </g>
    <g clip-path="url(#p621ed38f7a)">
     <use xlink:href="#C2_0_30aebb9354" x="139.589225" y="135.015994" style="fill: #ff5733; stroke: #000000"/>
    </g>
    <g clip-path="url(#p621ed38f7a)">
     <use xlink:href="#C2_0_30aebb9354" x="138.288445" y="136.683397" style="fill: #ff5733; stroke: #000000"/>
    </g>
   </g>
   <g id="PathCollection_4">
    <path d="M 0 328.226062 
C 1.326016 328.226062 2.597899 327.699231 3.535534 326.761596 
C 4.473168 325.823962 5 324.552078 5 323.226062 
C 5 321.900047 4.473168 320.628163 3.535534 319.690529 
C 2.597899 318.752894 1.326016 318.226062 0 318.226062 
C -1.326016 318.226062 -2.597899 318.752894 -3.535534 319.690529 
C -4.473168 320.628163 -5 321.900047 -5 323.226062 
C -5 324.552078 -4.473168 325.823962 -3.535534 326.761596 
C -2.597899 327.699231 -1.326016 328.226062 0 328.226062 
" clip-path="url(#p621ed38f7a)" style="fill: none; stroke: #000000"/>
   </g>
   <g id="PathCollection_5">
    <defs>
     <path id="C3_0_c1cf9a83e9" d="M 0 5 
C 1.326016 5 2.597899 4.473168 3.535534 3.535534 
C 4.473168 2.597899 5 1.326016 5 -0 
C 5 -1.326016 4.473168 -2.597899 3.535534 -3.535534 
C 2.597899 -4.473168 1.326016 -5 0 -5 
C -1.326016 -5 -2.597899 -4.473168 -3.535534 -3.535534 
C -4.473168 -2.597899 -5 -1.326016 -5 0 
C -5 1.326016 -4.473168 2.597899 -3.535534 3.535534 
C -2.597899 4.473168 -1.326016 5 0 5 
z
"/>
    </defs>
    <g clip-path="url(#p621ed38f7a)">
     <use xlink:href="#C3_0_c1cf9a83e9" x="206.01262" y="215.527038" style="fill: #3386ff; stroke: #000000"/>
    </g>
    <g clip-path="url(#p621ed38f7a)">
     <use xlink:href="#C3_0_c1cf9a83e9" x="202.733268" y="233.631842" style="fill: #3386ff; stroke: #000000"/>
    </g>
    <g clip-path="url(#p621ed38f7a)">
     <use xlink:href="#C3_0_c1cf9a83e9" x="205.031243" y="214.952838" style="fill: #3386ff; stroke: #000000"/>
    </g>
    <g clip-path="url(#p621ed38f7a)">
     <use xlink:href="#C3_0_c1cf9a83e9" x="201.858" y="169.469092" style="fill: #3386ff; stroke: #000000"/>
    </g>
    <g clip-path="url(#p621ed38f7a)">
     <use xlink:href="#C3_0_c1cf9a83e9" x="205.798301" y="180.515108" style="fill: #3386ff; stroke: #000000"/>
    </g>
    <g clip-path="url(#p621ed38f7a)">
     <use xlink:href="#C3_0_c1cf9a83e9" x="205.440021" y="223.349219" style="fill: #3386ff; stroke: #000000"/>
    </g>
    <g clip-path="url(#p621ed38f7a)">
     <use xlink:href="#C3_0_c1cf9a83e9" x="202.972765" y="258.598256" style="fill: #3386ff; stroke: #000000"/>
    </g>
    <g clip-path="url(#p621ed38f7a)">
     <use xlink:href="#C3_0_c1cf9a83e9" x="203.091431" y="192.199861" style="fill: #3386ff; stroke: #000000"/>
    </g>
    <g clip-path="url(#p621ed38f7a)">
     <use xlink:href="#C3_0_c1cf9a83e9" x="201.907378" y="274.751284" style="fill: #3386ff; stroke: #000000"/>
    </g>
    <g clip-path="url(#p621ed38f7a)">
     <use xlink:href="#C3_0_c1cf9a83e9" x="204.959104" y="237.215597" style="fill: #3386ff; stroke: #000000"/>
    </g>
    <g clip-path="url(#p621ed38f7a)">
     <use xlink:href="#C3_0_c1cf9a83e9" x="204.124641" y="178.838143" style="fill: #3386ff; stroke: #000000"/>
    </g>
    <g clip-path="url(#p621ed38f7a)">
     <use xlink:href="#C3_0_c1cf9a83e9" x="201.333045" y="232.781389" style="fill: #3386ff; stroke: #000000"/>
    </g>
    <g clip-path="url(#p621ed38f7a)">
     <use xlink:href="#C3_0_c1cf9a83e9" x="201.017262" y="171.721349" style="fill: #3386ff; stroke: #000000"/>
    </g>
   </g>
   <g id="PathCollection_6">
    <defs>
     <path id="C4_0_38a7e0ff41" d="M 0 5 
C 1.326016 5 2.597899 4.473168 3.535534 3.535534 
C 4.473168 2.597899 5 1.326016 5 -0 
C 5 -1.326016 4.473168 -2.597899 3.535534 -3.535534 
C 2.597899 -4.473168 1.326016 -5 0 -5 
C -1.326016 -5 -2.597899 -4.473168 -3.535534 -3.535534 
C -4.473168 -2.597899 -5 -1.326016 -5 0 
C -5 1.326016 -4.473168 2.597899 -3.535534 3.535534 
C -2.597899 4.473168 -1.326016 5 0 5 
z
"/>
    </defs>
    <g clip-path="url(#p621ed38f7a)">
     <use xlink:href="#C4_0_38a7e0ff41" x="228.157107" y="175.199963" style="fill: #ff5733; stroke: #000000"/>
    </g>
    <g clip-path="url(#p621ed38f7a)">
     <use xlink:href="#C4_0_38a7e0ff41" x="228.706902" y="171.239161" style="fill: #ff5733; stroke: #000000"/>
    </g>
    <g clip-path="url(#p621ed38f7a)">
     <use xlink:href="#C4_0_38a7e0ff41" x="227.082186" y="260.816259" style="fill: #ff5733; stroke: #000000"/>
    </g>
    <g clip-path="url(#p621ed38f7a)">
     <use xlink:href="#C4_0_38a7e0ff41" x="223.977618" y="173.159069" style="fill: #ff5733; stroke: #000000"/>
    </g>
   </g>
   <g id="PathCollection_7">
    <path d="M 0 328.226062 
C 1.326016 328.226062 2.597899 327.699231 3.535534 326.761596 
C 4.473168 325.823962 5 324.552078 5 323.226062 
C 5 321.900047 4.473168 320.628163 3.535534 319.690529 
C 2.597899 318.752894 1.326016 318.226062 0 318.226062 
C -1.326016 318.226062 -2.597899 318.752894 -3.535534 319.690529 
C -4.473168 320.628163 -5 321.900047 -5 323.226062 
C -5 324.552078 -4.473168 325.823962 -3.535534 326.761596 
C -2.597899 327.699231 -1.326016 328.226062 0 328.226062 
" clip-path="url(#p621ed38f7a)" style="fill: none; stroke: #000000"/>
   </g>
   <g id="PathCollection_8">
    <defs>
     <path id="C5_0_e8e858e27e" d="M 0 5 
C 1.326016 5 2.597899 4.473168 3.535534 3.535534 
C 4.473168 2.597899 5 1.326016 5 -0 
C 5 -1.326016 4.473168 -2.597899 3.535534 -3.535534 
C 2.597899 -4.473168 1.326016 -5 0 -5 
C -1.326016 -5 -2.597899 -4.473168 -3.535534 -3.535534 
C -4.473168 -2.597899 -5 -1.326016 -5 0 
C -5 1.326016 -4.473168 2.597899 -3.535534 3.535534 
C -2.597899 4.473168 -1.326016 5 0 5 
z
"/>
    </defs>
    <g clip-path="url(#p621ed38f7a)">
     <use xlink:href="#C5_0_e8e858e27e" x="289.436911" y="153.414382" style="fill: #3386ff; stroke: #000000"/>
    </g>
    <g clip-path="url(#p621ed38f7a)">
     <use xlink:href="#C5_0_e8e858e27e" x="291.793788" y="172.068173" style="fill: #3386ff; stroke: #000000"/>
    </g>
   </g>
   <g id="PathCollection_9">
    <path d="M 0 328.226062 
C 1.326016 328.226062 2.597899 327.699231 3.535534 326.761596 
C 4.473168 325.823962 5 324.552078 5 323.226062 
C 5 321.900047 4.473168 320.628163 3.535534 319.690529 
C 2.597899 318.752894 1.326016 318.226062 0 318.226062 
C -1.326016 318.226062 -2.597899 318.752894 -3.535534 319.690529 
C -4.473168 320.628163 -5 321.900047 -5 323.226062 
C -5 324.552078 -4.473168 325.823962 -3.535534 326.761596 
C -2.597899 327.699231 -1.326016 328.226062 0 328.226062 
" clip-path="url(#p621ed38f7a)" style="fill: none; stroke: #000000"/>
   </g>
   <g id="PathCollection_10">
    <path d="M 0 328.226062 
C 1.326016 328.226062 2.597899 327.699231 3.535534 326.761596 
C 4.473168 325.823962 5 324.552078 5 323.226062 
C 5 321.900047 4.473168 320.628163 3.535534 319.690529 
C 2.597899 318.752894 1.326016 318.226062 0 318.226062 
C -1.326016 318.226062 -2.597899 318.752894 -3.535534 319.690529 
C -4.473168 320.628163 -5 321.900047 -5 323.226062 
C -5 324.552078 -4.473168 325.823962 -3.535534 326.761596 
C -2.597899 327.699231 -1.326016 328.226062 0 328.226062 
" clip-path="url(#p621ed38f7a)" style="fill: none; stroke: #000000"/>
   </g>
   <g id="PathCollection_11">
    <defs>
     <path id="C6_0_3f5dd7729e" d="M 0 5 
C 1.326016 5 2.597899 4.473168 3.535534 3.535534 
C 4.473168 2.597899 5 1.326016 5 -0 
C 5 -1.326016 4.473168 -2.597899 3.535534 -3.535534 
C 2.597899 -4.473168 1.326016 -5 0 -5 
C -1.326016 -5 -2.597899 -4.473168 -3.535534 -3.535534 
C -4.473168 -2.597899 -5 -1.326016 -5 0 
C -5 1.326016 -4.473168 2.597899 -3.535534 3.535534 
C -2.597899 4.473168 -1.326016 5 0 5 
z
"/>
    </defs>
    <g clip-path="url(#p621ed38f7a)">
     <use xlink:href="#C6_0_3f5dd7729e" x="382.137723" y="163.541615" style="fill: #3386ff; stroke: #000000"/>
    </g>
    <g clip-path="url(#p621ed38f7a)">
     <use xlink:href="#C6_0_3f5dd7729e" x="381.347824" y="164.198245" style="fill: #3386ff; stroke: #000000"/>
    </g>
   </g>
   <g id="PathCollection_12">
    <defs>
     <path id="mbd2159ac51" d="M 0 5 
C 1.326016 5 2.597899 4.473168 3.535534 3.535534 
C 4.473168 2.597899 5 1.326016 5 0 
C 5 -1.326016 4.473168 -2.597899 3.535534 -3.535534 
C 2.597899 -4.473168 1.326016 -5 0 -5 
C -1.326016 -5 -2.597899 -4.473168 -3.535534 -3.535534 
C -4.473168 -2.597899 -5 -1.326016 -5 0 
C -5 1.326016 -4.473168 2.597899 -3.535534 3.535534 
C -2.597899 4.473168 -1.326016 5 0 5 
z
" style="stroke: #000000"/>
    </defs>
    <g clip-path="url(#p621ed38f7a)">
     <use xlink:href="#mbd2159ac51" x="405.429406" y="161.098646" style="fill: #ff5733; stroke: #000000"/>
    </g>
   </g>
   <g id="line2d_63"/>
   <g id="line2d_64"/>
   <g id="line2d_65"/>
   <g id="text_15">
    <!-- p = 0.80838 -->
    <g transform="translate(86.997406 61.660875) scale(0.1 -0.1)">
     <defs>
      <path id="DejaVuSans-70" d="M 1159 525 
L 1159 -1331 
L 581 -1331 
L 581 3500 
L 1159 3500 
L 1159 2969 
Q 1341 3281 1617 3432 
Q 1894 3584 2278 3584 
Q 2916 3584 3314 3078 
Q 3713 2572 3713 1747 
Q 3713 922 3314 415 
Q 2916 -91 2278 -91 
Q 1894 -91 1617 61 
Q 1341 213 1159 525 
z
M 3116 1747 
Q 3116 2381 2855 2742 
Q 2594 3103 2138 3103 
Q 1681 3103 1420 2742 
Q 1159 2381 1159 1747 
Q 1159 1113 1420 752 
Q 1681 391 2138 391 
Q 2594 391 2855 752 
Q 3116 1113 3116 1747 
z
" transform="scale(0.015625)"/>
      <path id="DejaVuSans-3d" d="M 678 2906 
L 4684 2906 
L 4684 2381 
L 678 2381 
L 678 2906 
z
M 678 1631 
L 4684 1631 
L 4684 1100 
L 678 1100 
L 678 1631 
z
" transform="scale(0.015625)"/>
      <path id="DejaVuSans-38" d="M 2034 2216 
Q 1584 2216 1326 1975 
Q 1069 1734 1069 1313 
Q 1069 891 1326 650 
Q 1584 409 2034 409 
Q 2484 409 2743 651 
Q 3003 894 3003 1313 
Q 3003 1734 2745 1975 
Q 2488 2216 2034 2216 
z
M 1403 2484 
Q 997 2584 770 2862 
Q 544 3141 544 3541 
Q 544 4100 942 4425 
Q 1341 4750 2034 4750 
Q 2731 4750 3128 4425 
Q 3525 4100 3525 3541 
Q 3525 3141 3298 2862 
Q 3072 2584 2669 2484 
Q 3125 2378 3379 2068 
Q 3634 1759 3634 1313 
Q 3634 634 3220 271 
Q 2806 -91 2034 -91 
Q 1263 -91 848 271 
Q 434 634 434 1313 
Q 434 1759 690 2068 
Q 947 2378 1403 2484 
z
M 1172 3481 
Q 1172 3119 1398 2916 
Q 1625 2713 2034 2713 
Q 2441 2713 2670 2916 
Q 2900 3119 2900 3481 
Q 2900 3844 2670 4047 
Q 2441 4250 2034 4250 
Q 1625 4250 1398 4047 
Q 1172 3844 1172 3481 
z
" transform="scale(0.015625)"/>
      <path id="DejaVuSans-33" d="M 2597 2516 
Q 3050 2419 3304 2112 
Q 3559 1806 3559 1356 
Q 3559 666 3084 287 
Q 2609 -91 1734 -91 
Q 1441 -91 1130 -33 
Q 819 25 488 141 
L 488 750 
Q 750 597 1062 519 
Q 1375 441 1716 441 
Q 2309 441 2620 675 
Q 2931 909 2931 1356 
Q 2931 1769 2642 2001 
Q 2353 2234 1838 2234 
L 1294 2234 
L 1294 2753 
L 1863 2753 
Q 2328 2753 2575 2939 
Q 2822 3125 2822 3475 
Q 2822 3834 2567 4026 
Q 2313 4219 1838 4219 
Q 1578 4219 1281 4162 
Q 984 4106 628 3988 
L 628 4550 
Q 988 4650 1302 4700 
Q 1616 4750 1894 4750 
Q 2613 4750 3031 4423 
Q 3450 4097 3450 3541 
Q 3450 3153 3228 2886 
Q 3006 2619 2597 2516 
z
" transform="scale(0.015625)"/>
     </defs>
     <use xlink:href="#DejaVuSans-70"/>
     <use xlink:href="#DejaVuSans-20" x="63.476562"/>
     <use xlink:href="#DejaVuSans-3d" x="95.263672"/>
     <use xlink:href="#DejaVuSans-20" x="179.052734"/>
     <use xlink:href="#DejaVuSans-30" x="210.839844"/>
     <use xlink:href="#DejaVuSans-2e" x="274.462891"/>
     <use xlink:href="#DejaVuSans-38" x="306.25"/>
     <use xlink:href="#DejaVuSans-30" x="369.873047"/>
     <use xlink:href="#DejaVuSans-38" x="433.496094"/>
     <use xlink:href="#DejaVuSans-33" x="497.119141"/>
     <use xlink:href="#DejaVuSans-38" x="560.742188"/>
    </g>
   </g>
   <g id="text_16">
    <!-- p = 5.798e-08 -->
    <g transform="translate(176.277406 128.188875) scale(0.1 -0.1)">
     <defs>
      <path id="DejaVuSans-37" d="M 525 4666 
L 3525 4666 
L 3525 4397 
L 1831 0 
L 1172 0 
L 2766 4134 
L 525 4134 
L 525 4666 
z
" transform="scale(0.015625)"/>
      <path id="DejaVuSans-39" d="M 703 97 
L 703 672 
Q 941 559 1184 500 
Q 1428 441 1663 441 
Q 2288 441 2617 861 
Q 2947 1281 2994 2138 
Q 2813 1869 2534 1725 
Q 2256 1581 1919 1581 
Q 1219 1581 811 2004 
Q 403 2428 403 3163 
Q 403 3881 828 4315 
Q 1253 4750 1959 4750 
Q 2769 4750 3195 4129 
Q 3622 3509 3622 2328 
Q 3622 1225 3098 567 
Q 2575 -91 1691 -91 
Q 1453 -91 1209 -44 
Q 966 3 703 97 
z
M 1959 2075 
Q 2384 2075 2632 2365 
Q 2881 2656 2881 3163 
Q 2881 3666 2632 3958 
Q 2384 4250 1959 4250 
Q 1534 4250 1286 3958 
Q 1038 3666 1038 3163 
Q 1038 2656 1286 2365 
Q 1534 2075 1959 2075 
z
" transform="scale(0.015625)"/>
      <path id="DejaVuSans-2d" d="M 313 2009 
L 1997 2009 
L 1997 1497 
L 313 1497 
L 313 2009 
z
" transform="scale(0.015625)"/>
     </defs>
     <use xlink:href="#DejaVuSans-70"/>
     <use xlink:href="#DejaVuSans-20" x="63.476562"/>
     <use xlink:href="#DejaVuSans-3d" x="95.263672"/>
     <use xlink:href="#DejaVuSans-20" x="179.052734"/>
     <use xlink:href="#DejaVuSans-35" x="210.839844"/>
     <use xlink:href="#DejaVuSans-2e" x="274.462891"/>
     <use xlink:href="#DejaVuSans-37" x="306.25"/>
     <use xlink:href="#DejaVuSans-39" x="369.873047"/>
     <use xlink:href="#DejaVuSans-38" x="433.496094"/>
     <use xlink:href="#DejaVuSans-65" x="497.119141"/>
     <use xlink:href="#DejaVuSans-2d" x="558.642578"/>
     <use xlink:href="#DejaVuSans-30" x="594.726562"/>
     <use xlink:href="#DejaVuSans-38" x="658.349609"/>
    </g>
   </g>
   <g id="text_17">
    <!-- p = 0.0087 -->
    <g transform="translate(265.557406 61.660875) scale(0.1 -0.1)">
     <use xlink:href="#DejaVuSans-70"/>
     <use xlink:href="#DejaVuSans-20" x="63.476562"/>
     <use xlink:href="#DejaVuSans-3d" x="95.263672"/>
     <use xlink:href="#DejaVuSans-20" x="179.052734"/>
     <use xlink:href="#DejaVuSans-30" x="210.839844"/>
     <use xlink:href="#DejaVuSans-2e" x="274.462891"/>
     <use xlink:href="#DejaVuSans-30" x="306.25"/>
     <use xlink:href="#DejaVuSans-30" x="369.873047"/>
     <use xlink:href="#DejaVuSans-38" x="433.496094"/>
     <use xlink:href="#DejaVuSans-37" x="497.119141"/>
    </g>
   </g>
   <g id="text_18">
    <!-- p = 7e-05 -->
    <g transform="translate(354.837406 128.188875) scale(0.1 -0.1)">
     <use xlink:href="#DejaVuSans-70"/>
     <use xlink:href="#DejaVuSans-20" x="63.476562"/>
     <use xlink:href="#DejaVuSans-3d" x="95.263672"/>
     <use xlink:href="#DejaVuSans-20" x="179.052734"/>
     <use xlink:href="#DejaVuSans-37" x="210.839844"/>
     <use xlink:href="#DejaVuSans-65" x="274.462891"/>
     <use xlink:href="#DejaVuSans-2d" x="335.986328"/>
     <use xlink:href="#DejaVuSans-30" x="372.070312"/>
     <use xlink:href="#DejaVuSans-35" x="435.693359"/>
    </g>
   </g>
   <g id="text_19">
    <!-- p = 0.88117 -->
    <g transform="translate(131.637406 81.619275) scale(0.1 -0.1)">
     <use xlink:href="#DejaVuSans-70"/>
     <use xlink:href="#DejaVuSans-20" x="63.476562"/>
     <use xlink:href="#DejaVuSans-3d" x="95.263672"/>
     <use xlink:href="#DejaVuSans-20" x="179.052734"/>
     <use xlink:href="#DejaVuSans-30" x="210.839844"/>
     <use xlink:href="#DejaVuSans-2e" x="274.462891"/>
     <use xlink:href="#DejaVuSans-38" x="306.25"/>
     <use xlink:href="#DejaVuSans-38" x="369.873047"/>
     <use xlink:href="#DejaVuSans-31" x="433.496094"/>
     <use xlink:href="#DejaVuSans-31" x="497.119141"/>
     <use xlink:href="#DejaVuSans-37" x="560.742188"/>
    </g>
   </g>
   <g id="text_20">
    <!-- p = 0.00959 -->
    <g transform="translate(220.917406 148.147275) scale(0.1 -0.1)">
     <use xlink:href="#DejaVuSans-70"/>
     <use xlink:href="#DejaVuSans-20" x="63.476562"/>
     <use xlink:href="#DejaVuSans-3d" x="95.263672"/>
     <use xlink:href="#DejaVuSans-20" x="179.052734"/>
     <use xlink:href="#DejaVuSans-30" x="210.839844"/>
     <use xlink:href="#DejaVuSans-2e" x="274.462891"/>
     <use xlink:href="#DejaVuSans-30" x="306.25"/>
     <use xlink:href="#DejaVuSans-30" x="369.873047"/>
     <use xlink:href="#DejaVuSans-39" x="433.496094"/>
     <use xlink:href="#DejaVuSans-35" x="497.119141"/>
     <use xlink:href="#DejaVuSans-39" x="560.742188"/>
    </g>
   </g>
   <g id="text_21">
    <!-- p = nan -->
    <g transform="translate(372.693406 114.883275) scale(0.1 -0.1)">
     <use xlink:href="#DejaVuSans-70"/>
     <use xlink:href="#DejaVuSans-20" x="63.476562"/>
     <use xlink:href="#DejaVuSans-3d" x="95.263672"/>
     <use xlink:href="#DejaVuSans-20" x="179.052734"/>
     <use xlink:href="#DejaVuSans-6e" x="210.839844"/>
     <use xlink:href="#DejaVuSans-61" x="274.21875"/>
     <use xlink:href="#DejaVuSans-6e" x="335.498047"/>
    </g>
   </g>
   <g id="text_22">
    <!-- Telophase D/M Cnb Ratio -->
    <g transform="translate(107.871719 22.396875) scale(0.2 -0.2)">
     <defs>
      <path id="DejaVuSans-Bold-54" d="M 31 4666 
L 4331 4666 
L 4331 3756 
L 2784 3756 
L 2784 0 
L 1581 0 
L 1581 3756 
L 31 3756 
L 31 4666 
z
" transform="scale(0.015625)"/>
      <path id="DejaVuSans-Bold-65" d="M 4031 1759 
L 4031 1441 
L 1416 1441 
Q 1456 1047 1700 850 
Q 1944 653 2381 653 
Q 2734 653 3104 758 
Q 3475 863 3866 1075 
L 3866 213 
Q 3469 63 3072 -14 
Q 2675 -91 2278 -91 
Q 1328 -91 801 392 
Q 275 875 275 1747 
Q 275 2603 792 3093 
Q 1309 3584 2216 3584 
Q 3041 3584 3536 3087 
Q 4031 2591 4031 1759 
z
M 2881 2131 
Q 2881 2450 2695 2645 
Q 2509 2841 2209 2841 
Q 1884 2841 1681 2658 
Q 1478 2475 1428 2131 
L 2881 2131 
z
" transform="scale(0.015625)"/>
      <path id="DejaVuSans-Bold-6c" d="M 538 4863 
L 1656 4863 
L 1656 0 
L 538 0 
L 538 4863 
z
" transform="scale(0.015625)"/>
      <path id="DejaVuSans-Bold-6f" d="M 2203 2784 
Q 1831 2784 1636 2517 
Q 1441 2250 1441 1747 
Q 1441 1244 1636 976 
Q 1831 709 2203 709 
Q 2569 709 2762 976 
Q 2956 1244 2956 1747 
Q 2956 2250 2762 2517 
Q 2569 2784 2203 2784 
z
M 2203 3584 
Q 3106 3584 3614 3096 
Q 4122 2609 4122 1747 
Q 4122 884 3614 396 
Q 3106 -91 2203 -91 
Q 1297 -91 786 396 
Q 275 884 275 1747 
Q 275 2609 786 3096 
Q 1297 3584 2203 3584 
z
" transform="scale(0.015625)"/>
      <path id="DejaVuSans-Bold-70" d="M 1656 506 
L 1656 -1331 
L 538 -1331 
L 538 3500 
L 1656 3500 
L 1656 2988 
Q 1888 3294 2169 3439 
Q 2450 3584 2816 3584 
Q 3463 3584 3878 3070 
Q 4294 2556 4294 1747 
Q 4294 938 3878 423 
Q 3463 -91 2816 -91 
Q 2450 -91 2169 54 
Q 1888 200 1656 506 
z
M 2400 2772 
Q 2041 2772 1848 2508 
Q 1656 2244 1656 1747 
Q 1656 1250 1848 986 
Q 2041 722 2400 722 
Q 2759 722 2948 984 
Q 3138 1247 3138 1747 
Q 3138 2247 2948 2509 
Q 2759 2772 2400 2772 
z
" transform="scale(0.015625)"/>
      <path id="DejaVuSans-Bold-68" d="M 4056 2131 
L 4056 0 
L 2931 0 
L 2931 347 
L 2931 1625 
Q 2931 2084 2911 2256 
Q 2891 2428 2841 2509 
Q 2775 2619 2662 2680 
Q 2550 2741 2406 2741 
Q 2056 2741 1856 2470 
Q 1656 2200 1656 1722 
L 1656 0 
L 538 0 
L 538 4863 
L 1656 4863 
L 1656 2988 
Q 1909 3294 2193 3439 
Q 2478 3584 2822 3584 
Q 3428 3584 3742 3212 
Q 4056 2841 4056 2131 
z
" transform="scale(0.015625)"/>
      <path id="DejaVuSans-Bold-61" d="M 2106 1575 
Q 1756 1575 1579 1456 
Q 1403 1338 1403 1106 
Q 1403 894 1545 773 
Q 1688 653 1941 653 
Q 2256 653 2472 879 
Q 2688 1106 2688 1447 
L 2688 1575 
L 2106 1575 
z
M 3816 1997 
L 3816 0 
L 2688 0 
L 2688 519 
Q 2463 200 2181 54 
Q 1900 -91 1497 -91 
Q 953 -91 614 226 
Q 275 544 275 1050 
Q 275 1666 698 1953 
Q 1122 2241 2028 2241 
L 2688 2241 
L 2688 2328 
Q 2688 2594 2478 2717 
Q 2269 2841 1825 2841 
Q 1466 2841 1156 2769 
Q 847 2697 581 2553 
L 581 3406 
Q 941 3494 1303 3539 
Q 1666 3584 2028 3584 
Q 2975 3584 3395 3211 
Q 3816 2838 3816 1997 
z
" transform="scale(0.015625)"/>
      <path id="DejaVuSans-Bold-73" d="M 3272 3391 
L 3272 2541 
Q 2913 2691 2578 2766 
Q 2244 2841 1947 2841 
Q 1628 2841 1473 2761 
Q 1319 2681 1319 2516 
Q 1319 2381 1436 2309 
Q 1553 2238 1856 2203 
L 2053 2175 
Q 2913 2066 3209 1816 
Q 3506 1566 3506 1031 
Q 3506 472 3093 190 
Q 2681 -91 1863 -91 
Q 1516 -91 1145 -36 
Q 775 19 384 128 
L 384 978 
Q 719 816 1070 734 
Q 1422 653 1784 653 
Q 2113 653 2278 743 
Q 2444 834 2444 1013 
Q 2444 1163 2330 1236 
Q 2216 1309 1875 1350 
L 1678 1375 
Q 931 1469 631 1722 
Q 331 1975 331 2491 
Q 331 3047 712 3315 
Q 1094 3584 1881 3584 
Q 2191 3584 2531 3537 
Q 2872 3491 3272 3391 
z
" transform="scale(0.015625)"/>
      <path id="DejaVuSans-Bold-20" transform="scale(0.015625)"/>
      <path id="DejaVuSans-Bold-44" d="M 1791 3756 
L 1791 909 
L 2222 909 
Q 2959 909 3348 1275 
Q 3738 1641 3738 2338 
Q 3738 3031 3350 3393 
Q 2963 3756 2222 3756 
L 1791 3756 
z
M 588 4666 
L 1856 4666 
Q 2919 4666 3439 4514 
Q 3959 4363 4331 4000 
Q 4659 3684 4818 3271 
Q 4978 2859 4978 2338 
Q 4978 1809 4818 1395 
Q 4659 981 4331 666 
Q 3956 303 3431 151 
Q 2906 0 1856 0 
L 588 0 
L 588 4666 
z
" transform="scale(0.015625)"/>
      <path id="DejaVuSans-Bold-2f" d="M 1644 4666 
L 2338 4666 
L 691 -594 
L 0 -594 
L 1644 4666 
z
" transform="scale(0.015625)"/>
      <path id="DejaVuSans-Bold-4d" d="M 588 4666 
L 2119 4666 
L 3181 2169 
L 4250 4666 
L 5778 4666 
L 5778 0 
L 4641 0 
L 4641 3413 
L 3566 897 
L 2803 897 
L 1728 3413 
L 1728 0 
L 588 0 
L 588 4666 
z
" transform="scale(0.015625)"/>
      <path id="DejaVuSans-Bold-43" d="M 4288 256 
Q 3956 84 3597 -3 
Q 3238 -91 2847 -91 
Q 1681 -91 1000 561 
Q 319 1213 319 2328 
Q 319 3447 1000 4098 
Q 1681 4750 2847 4750 
Q 3238 4750 3597 4662 
Q 3956 4575 4288 4403 
L 4288 3438 
Q 3953 3666 3628 3772 
Q 3303 3878 2944 3878 
Q 2300 3878 1931 3465 
Q 1563 3053 1563 2328 
Q 1563 1606 1931 1193 
Q 2300 781 2944 781 
Q 3303 781 3628 887 
Q 3953 994 4288 1222 
L 4288 256 
z
" transform="scale(0.015625)"/>
      <path id="DejaVuSans-Bold-6e" d="M 4056 2131 
L 4056 0 
L 2931 0 
L 2931 347 
L 2931 1631 
Q 2931 2084 2911 2256 
Q 2891 2428 2841 2509 
Q 2775 2619 2662 2680 
Q 2550 2741 2406 2741 
Q 2056 2741 1856 2470 
Q 1656 2200 1656 1722 
L 1656 0 
L 538 0 
L 538 3500 
L 1656 3500 
L 1656 2988 
Q 1909 3294 2193 3439 
Q 2478 3584 2822 3584 
Q 3428 3584 3742 3212 
Q 4056 2841 4056 2131 
z
" transform="scale(0.015625)"/>
      <path id="DejaVuSans-Bold-62" d="M 2400 722 
Q 2759 722 2948 984 
Q 3138 1247 3138 1747 
Q 3138 2247 2948 2509 
Q 2759 2772 2400 2772 
Q 2041 2772 1848 2508 
Q 1656 2244 1656 1747 
Q 1656 1250 1848 986 
Q 2041 722 2400 722 
z
M 1656 2988 
Q 1888 3294 2169 3439 
Q 2450 3584 2816 3584 
Q 3463 3584 3878 3070 
Q 4294 2556 4294 1747 
Q 4294 938 3878 423 
Q 3463 -91 2816 -91 
Q 2450 -91 2169 54 
Q 1888 200 1656 506 
L 1656 0 
L 538 0 
L 538 4863 
L 1656 4863 
L 1656 2988 
z
" transform="scale(0.015625)"/>
      <path id="DejaVuSans-Bold-52" d="M 2297 2597 
Q 2675 2597 2839 2737 
Q 3003 2878 3003 3200 
Q 3003 3519 2839 3656 
Q 2675 3794 2297 3794 
L 1791 3794 
L 1791 2597 
L 2297 2597 
z
M 1791 1766 
L 1791 0 
L 588 0 
L 588 4666 
L 2425 4666 
Q 3347 4666 3776 4356 
Q 4206 4047 4206 3378 
Q 4206 2916 3982 2619 
Q 3759 2322 3309 2181 
Q 3556 2125 3751 1926 
Q 3947 1728 4147 1325 
L 4800 0 
L 3519 0 
L 2950 1159 
Q 2778 1509 2601 1637 
Q 2425 1766 2131 1766 
L 1791 1766 
z
" transform="scale(0.015625)"/>
      <path id="DejaVuSans-Bold-74" d="M 1759 4494 
L 1759 3500 
L 2913 3500 
L 2913 2700 
L 1759 2700 
L 1759 1216 
Q 1759 972 1856 886 
Q 1953 800 2241 800 
L 2816 800 
L 2816 0 
L 1856 0 
Q 1194 0 917 276 
Q 641 553 641 1216 
L 641 2700 
L 84 2700 
L 84 3500 
L 641 3500 
L 641 4494 
L 1759 4494 
z
" transform="scale(0.015625)"/>
      <path id="DejaVuSans-Bold-69" d="M 538 3500 
L 1656 3500 
L 1656 0 
L 538 0 
L 538 3500 
z
M 538 4863 
L 1656 4863 
L 1656 3950 
L 538 3950 
L 538 4863 
z
" transform="scale(0.015625)"/>
     </defs>
     <use xlink:href="#DejaVuSans-Bold-54"/>
     <use xlink:href="#DejaVuSans-Bold-65" x="54.962891"/>
     <use xlink:href="#DejaVuSans-Bold-6c" x="122.785156"/>
     <use xlink:href="#DejaVuSans-Bold-6f" x="157.0625"/>
     <use xlink:href="#DejaVuSans-Bold-70" x="225.763672"/>
     <use xlink:href="#DejaVuSans-Bold-68" x="297.345703"/>
     <use xlink:href="#DejaVuSans-Bold-61" x="368.537109"/>
     <use xlink:href="#DejaVuSans-Bold-73" x="436.017578"/>
     <use xlink:href="#DejaVuSans-Bold-65" x="495.539062"/>
     <use xlink:href="#DejaVuSans-Bold-20" x="563.361328"/>
     <use xlink:href="#DejaVuSans-Bold-44" x="598.175781"/>
     <use xlink:href="#DejaVuSans-Bold-2f" x="681.183594"/>
     <use xlink:href="#DejaVuSans-Bold-4d" x="717.707031"/>
     <use xlink:href="#DejaVuSans-Bold-20" x="817.21875"/>
     <use xlink:href="#DejaVuSans-Bold-43" x="852.033203"/>
     <use xlink:href="#DejaVuSans-Bold-6e" x="925.421875"/>
     <use xlink:href="#DejaVuSans-Bold-62" x="996.613281"/>
     <use xlink:href="#DejaVuSans-Bold-20" x="1068.195312"/>
     <use xlink:href="#DejaVuSans-Bold-52" x="1103.009766"/>
     <use xlink:href="#DejaVuSans-Bold-61" x="1180.011719"/>
     <use xlink:href="#DejaVuSans-Bold-74" x="1247.492188"/>
     <use xlink:href="#DejaVuSans-Bold-69" x="1295.294922"/>
     <use xlink:href="#DejaVuSans-Bold-6f" x="1329.572266"/>
    </g>
   </g>
   <g id="legend_1">
    <g id="patch_15">
     <path d="M 320.978594 95.109375 
L 419.261406 95.109375 
Q 421.261406 95.109375 421.261406 93.109375 
L 421.261406 35.396875 
Q 421.261406 33.396875 419.261406 33.396875 
L 320.978594 33.396875 
Q 318.978594 33.396875 318.978594 35.396875 
L 318.978594 93.109375 
Q 318.978594 95.109375 320.978594 95.109375 
z
" style="fill: #ffffff; opacity: 0.8; stroke: #cccccc; stroke-linejoin: miter"/>
    </g>
    <g id="text_23">
     <!-- Genotype -->
     <g transform="translate(345.770781 44.995312) scale(0.1 -0.1)">
      <defs>
       <path id="DejaVuSans-47" d="M 3809 666 
L 3809 1919 
L 2778 1919 
L 2778 2438 
L 4434 2438 
L 4434 434 
Q 4069 175 3628 42 
Q 3188 -91 2688 -91 
Q 1594 -91 976 548 
Q 359 1188 359 2328 
Q 359 3472 976 4111 
Q 1594 4750 2688 4750 
Q 3144 4750 3555 4637 
Q 3966 4525 4313 4306 
L 4313 3634 
Q 3963 3931 3569 4081 
Q 3175 4231 2741 4231 
Q 1884 4231 1454 3753 
Q 1025 3275 1025 2328 
Q 1025 1384 1454 906 
Q 1884 428 2741 428 
Q 3075 428 3337 486 
Q 3600 544 3809 666 
z
" transform="scale(0.015625)"/>
      </defs>
      <use xlink:href="#DejaVuSans-47"/>
      <use xlink:href="#DejaVuSans-65" x="77.490234"/>
      <use xlink:href="#DejaVuSans-6e" x="139.013672"/>
      <use xlink:href="#DejaVuSans-6f" x="202.392578"/>
      <use xlink:href="#DejaVuSans-74" x="263.574219"/>
      <use xlink:href="#DejaVuSans-79" x="302.783203"/>
      <use xlink:href="#DejaVuSans-70" x="361.962891"/>
      <use xlink:href="#DejaVuSans-65" x="425.439453"/>
     </g>
    </g>
    <g id="line2d_66">
     <defs>
      <path id="me76cc9a657" d="M 0 5 
C 1.326016 5 2.597899 4.473168 3.535534 3.535534 
C 4.473168 2.597899 5 1.326016 5 0 
C 5 -1.326016 4.473168 -2.597899 3.535534 -3.535534 
C 2.597899 -4.473168 1.326016 -5 0 -5 
C -1.326016 -5 -2.597899 -4.473168 -3.535534 -3.535534 
C -4.473168 -2.597899 -5 -1.326016 -5 0 
C -5 1.326016 -4.473168 2.597899 -3.535534 3.535534 
C -2.597899 4.473168 -1.326016 5 0 5 
z
" style="stroke: #000000"/>
     </defs>
     <g>
      <use xlink:href="#me76cc9a657" x="332.978594" y="56.173437" style="fill: #808080; stroke: #000000"/>
     </g>
    </g>
    <g id="text_24">
     <!-- WT -->
     <g transform="translate(350.978594 59.673437) scale(0.1 -0.1)">
      <defs>
       <path id="DejaVuSans-57" d="M 213 4666 
L 850 4666 
L 1831 722 
L 2809 4666 
L 3519 4666 
L 4500 722 
L 5478 4666 
L 6119 4666 
L 4947 0 
L 4153 0 
L 3169 4050 
L 2175 0 
L 1381 0 
L 213 4666 
z
" transform="scale(0.015625)"/>
       <path id="DejaVuSans-54" d="M -19 4666 
L 3928 4666 
L 3928 4134 
L 2272 4134 
L 2272 0 
L 1638 0 
L 1638 4134 
L -19 4134 
L -19 4666 
z
" transform="scale(0.015625)"/>
      </defs>
      <use xlink:href="#DejaVuSans-57"/>
      <use xlink:href="#DejaVuSans-54" x="98.876953"/>
     </g>
    </g>
    <g id="line2d_67">
     <defs>
      <path id="m262f73534c" d="M 0 5 
C 1.326016 5 2.597899 4.473168 3.535534 3.535534 
C 4.473168 2.597899 5 1.326016 5 0 
C 5 -1.326016 4.473168 -2.597899 3.535534 -3.535534 
C 2.597899 -4.473168 1.326016 -5 0 -5 
C -1.326016 -5 -2.597899 -4.473168 -3.535534 -3.535534 
C -4.473168 -2.597899 -5 -1.326016 -5 0 
C -5 1.326016 -4.473168 2.597899 -3.535534 3.535534 
C -2.597899 4.473168 -1.326016 5 0 5 
z
" style="stroke: #000000"/>
     </defs>
     <g>
      <use xlink:href="#m262f73534c" x="332.978594" y="70.851562" style="fill: #3386ff; stroke: #000000"/>
     </g>
    </g>
    <g id="text_25">
     <!-- PP4KO -->
     <g transform="translate(350.978594 74.351562) scale(0.1 -0.1)">
      <defs>
       <path id="DejaVuSans-50" d="M 1259 4147 
L 1259 2394 
L 2053 2394 
Q 2494 2394 2734 2622 
Q 2975 2850 2975 3272 
Q 2975 3691 2734 3919 
Q 2494 4147 2053 4147 
L 1259 4147 
z
M 628 4666 
L 2053 4666 
Q 2838 4666 3239 4311 
Q 3641 3956 3641 3272 
Q 3641 2581 3239 2228 
Q 2838 1875 2053 1875 
L 1259 1875 
L 1259 0 
L 628 0 
L 628 4666 
z
" transform="scale(0.015625)"/>
       <path id="DejaVuSans-34" d="M 2419 4116 
L 825 1625 
L 2419 1625 
L 2419 4116 
z
M 2253 4666 
L 3047 4666 
L 3047 1625 
L 3713 1625 
L 3713 1100 
L 3047 1100 
L 3047 0 
L 2419 0 
L 2419 1100 
L 313 1100 
L 313 1709 
L 2253 4666 
z
" transform="scale(0.015625)"/>
       <path id="DejaVuSans-4b" d="M 628 4666 
L 1259 4666 
L 1259 2694 
L 3353 4666 
L 4166 4666 
L 1850 2491 
L 4331 0 
L 3500 0 
L 1259 2247 
L 1259 0 
L 628 0 
L 628 4666 
z
" transform="scale(0.015625)"/>
       <path id="DejaVuSans-4f" d="M 2522 4238 
Q 1834 4238 1429 3725 
Q 1025 3213 1025 2328 
Q 1025 1447 1429 934 
Q 1834 422 2522 422 
Q 3209 422 3611 934 
Q 4013 1447 4013 2328 
Q 4013 3213 3611 3725 
Q 3209 4238 2522 4238 
z
M 2522 4750 
Q 3503 4750 4090 4092 
Q 4678 3434 4678 2328 
Q 4678 1225 4090 567 
Q 3503 -91 2522 -91 
Q 1538 -91 948 565 
Q 359 1222 359 2328 
Q 359 3434 948 4092 
Q 1538 4750 2522 4750 
z
" transform="scale(0.015625)"/>
      </defs>
      <use xlink:href="#DejaVuSans-50"/>
      <use xlink:href="#DejaVuSans-50" x="60.302734"/>
      <use xlink:href="#DejaVuSans-34" x="120.605469"/>
      <use xlink:href="#DejaVuSans-4b" x="184.228516"/>
      <use xlink:href="#DejaVuSans-4f" x="244.304688"/>
     </g>
    </g>
    <g id="line2d_68">
     <g>
      <use xlink:href="#mbd2159ac51" x="332.978594" y="85.529687" style="fill: #ff5733; stroke: #000000"/>
     </g>
    </g>
    <g id="text_26">
     <!-- phospho-Cnb -->
     <g transform="translate(350.978594 89.029687) scale(0.1 -0.1)">
      <defs>
       <path id="DejaVuSans-73" d="M 2834 3397 
L 2834 2853 
Q 2591 2978 2328 3040 
Q 2066 3103 1784 3103 
Q 1356 3103 1142 2972 
Q 928 2841 928 2578 
Q 928 2378 1081 2264 
Q 1234 2150 1697 2047 
L 1894 2003 
Q 2506 1872 2764 1633 
Q 3022 1394 3022 966 
Q 3022 478 2636 193 
Q 2250 -91 1575 -91 
Q 1294 -91 989 -36 
Q 684 19 347 128 
L 347 722 
Q 666 556 975 473 
Q 1284 391 1588 391 
Q 1994 391 2212 530 
Q 2431 669 2431 922 
Q 2431 1156 2273 1281 
Q 2116 1406 1581 1522 
L 1381 1569 
Q 847 1681 609 1914 
Q 372 2147 372 2553 
Q 372 3047 722 3315 
Q 1072 3584 1716 3584 
Q 2034 3584 2315 3537 
Q 2597 3491 2834 3397 
z
" transform="scale(0.015625)"/>
       <path id="DejaVuSans-43" d="M 4122 4306 
L 4122 3641 
Q 3803 3938 3442 4084 
Q 3081 4231 2675 4231 
Q 1875 4231 1450 3742 
Q 1025 3253 1025 2328 
Q 1025 1406 1450 917 
Q 1875 428 2675 428 
Q 3081 428 3442 575 
Q 3803 722 4122 1019 
L 4122 359 
Q 3791 134 3420 21 
Q 3050 -91 2638 -91 
Q 1578 -91 968 557 
Q 359 1206 359 2328 
Q 359 3453 968 4101 
Q 1578 4750 2638 4750 
Q 3056 4750 3426 4639 
Q 3797 4528 4122 4306 
z
" transform="scale(0.015625)"/>
       <path id="DejaVuSans-62" d="M 3116 1747 
Q 3116 2381 2855 2742 
Q 2594 3103 2138 3103 
Q 1681 3103 1420 2742 
Q 1159 2381 1159 1747 
Q 1159 1113 1420 752 
Q 1681 391 2138 391 
Q 2594 391 2855 752 
Q 3116 1113 3116 1747 
z
M 1159 2969 
Q 1341 3281 1617 3432 
Q 1894 3584 2278 3584 
Q 2916 3584 3314 3078 
Q 3713 2572 3713 1747 
Q 3713 922 3314 415 
Q 2916 -91 2278 -91 
Q 1894 -91 1617 61 
Q 1341 213 1159 525 
L 1159 0 
L 581 0 
L 581 4863 
L 1159 4863 
L 1159 2969 
z
" transform="scale(0.015625)"/>
      </defs>
      <use xlink:href="#DejaVuSans-70"/>
      <use xlink:href="#DejaVuSans-68" x="63.476562"/>
      <use xlink:href="#DejaVuSans-6f" x="126.855469"/>
      <use xlink:href="#DejaVuSans-73" x="188.037109"/>
      <use xlink:href="#DejaVuSans-70" x="240.136719"/>
      <use xlink:href="#DejaVuSans-68" x="303.613281"/>
      <use xlink:href="#DejaVuSans-6f" x="366.992188"/>
      <use xlink:href="#DejaVuSans-2d" x="430.048828"/>
      <use xlink:href="#DejaVuSans-43" x="466.132812"/>
      <use xlink:href="#DejaVuSans-6e" x="535.957031"/>
      <use xlink:href="#DejaVuSans-62" x="599.335938"/>
     </g>
    </g>
   </g>
  </g>
 </g>
 <defs>
  <clipPath id="p621ed38f7a">
   <rect x="69.141406" y="28.396875" width="357.12" height="266.112"/>
  </clipPath>
 </defs>
</svg>
