<?xml version="1.0" encoding="utf-8" standalone="no"?>
<!DOCTYPE svg PUBLIC "-//W3C//DTD SVG 1.1//EN"
  "http://www.w3.org/Graphics/SVG/1.1/DTD/svg11.dtd">
<svg xmlns:xlink="http://www.w3.org/1999/xlink" width="849.4pt" height="127.72pt" viewBox="0 0 849.4 127.72" xmlns="http://www.w3.org/2000/svg" version="1.1">
 <metadata>
  <rdf:RDF xmlns:dc="http://purl.org/dc/elements/1.1/" xmlns:cc="http://creativecommons.org/ns#" xmlns:rdf="http://www.w3.org/1999/02/22-rdf-syntax-ns#">
   <cc:Work>
    <dc:type rdf:resource="http://purl.org/dc/dcmitype/StillImage"/>
    <dc:date>2024-12-11T12:09:01.464313</dc:date>
    <dc:format>image/svg+xml</dc:format>
    <dc:creator>
     <cc:Agent>
      <dc:title>Matplotlib v3.7.2, https://matplotlib.org/</dc:title>
     </cc:Agent>
    </dc:creator>
   </cc:Work>
  </rdf:RDF>
 </metadata>
 <defs>
  <style type="text/css">*{stroke-linejoin: round; stroke-linecap: butt}</style>
 </defs>
 <g id="figure_1">
  <g id="patch_1">
   <path d="M 0 127.72 
L 849.4 127.72 
L 849.4 0 
L 0 0 
z
" style="fill: #ffffff"/>
  </g>
  <g id="axes_1">
   <g id="patch_2">
    <path d="M 7.2 120.52 
L 162.76 120.52 
L 162.76 7.2 
L 7.2 7.2 
z
" style="fill: #ffffff"/>
   </g>
   <g id="PolyCollection_1"/>
   <g id="PolyCollection_2"/>
   <g id="matplotlib.axis_1"/>
   <g id="matplotlib.axis_2">
    <g id="ytick_1">
     <g id="line2d_1">
      <defs>
       <path id="m6f8d6bbf4e" d="M 0 0 
L 3.5 0 
" style="stroke: #000000; stroke-width: 0.8"/>
      </defs>
      <g>
       <use xlink:href="#m6f8d6bbf4e" x="7.2" y="111.076667" style="stroke: #000000; stroke-width: 0.8"/>
      </g>
     </g>
     <g id="text_1">
      <!-- 0.0 -->
      <g transform="translate(13.345313 116.775495) scale(0.15 -0.15)">
       <defs>
        <path id="DejaVuSans-30" d="M 2034 4250 
Q 1547 4250 1301 3770 
Q 1056 3291 1056 2328 
Q 1056 1369 1301 889 
Q 1547 409 2034 409 
Q 2525 409 2770 889 
Q 3016 1369 3016 2328 
Q 3016 3291 2770 3770 
Q 2525 4250 2034 4250 
z
M 2034 4750 
Q 2819 4750 3233 4129 
Q 3647 3509 3647 2328 
Q 3647 1150 3233 529 
Q 2819 -91 2034 -91 
Q 1250 -91 836 529 
Q 422 1150 422 2328 
Q 422 3509 836 4129 
Q 1250 4750 2034 4750 
z
" transform="scale(0.015625)"/>
        <path id="DejaVuSans-2e" d="M 684 794 
L 1344 794 
L 1344 0 
L 684 0 
L 684 794 
z
" transform="scale(0.015625)"/>
       </defs>
       <use xlink:href="#DejaVuSans-30"/>
       <use xlink:href="#DejaVuSans-2e" x="63.623047"/>
       <use xlink:href="#DejaVuSans-30" x="95.410156"/>
      </g>
     </g>
    </g>
    <g id="ytick_2">
     <g id="line2d_2">
      <g>
       <use xlink:href="#m6f8d6bbf4e" x="7.2" y="63.86" style="stroke: #000000; stroke-width: 0.8"/>
      </g>
     </g>
     <g id="text_2">
      <!-- 0.5 -->
      <g transform="translate(13.345313 69.558828) scale(0.15 -0.15)">
       <defs>
        <path id="DejaVuSans-35" d="M 691 4666 
L 3169 4666 
L 3169 4134 
L 1269 4134 
L 1269 2991 
Q 1406 3038 1543 3061 
Q 1681 3084 1819 3084 
Q 2600 3084 3056 2656 
Q 3513 2228 3513 1497 
Q 3513 744 3044 326 
Q 2575 -91 1722 -91 
Q 1428 -91 1123 -41 
Q 819 9 494 109 
L 494 744 
Q 775 591 1075 516 
Q 1375 441 1709 441 
Q 2250 441 2565 725 
Q 2881 1009 2881 1497 
Q 2881 1984 2565 2268 
Q 2250 2553 1709 2553 
Q 1456 2553 1204 2497 
Q 953 2441 691 2322 
L 691 4666 
z
" transform="scale(0.015625)"/>
       </defs>
       <use xlink:href="#DejaVuSans-30"/>
       <use xlink:href="#DejaVuSans-2e" x="63.623047"/>
       <use xlink:href="#DejaVuSans-35" x="95.410156"/>
      </g>
     </g>
    </g>
    <g id="ytick_3">
     <g id="line2d_3">
      <g>
       <use xlink:href="#m6f8d6bbf4e" x="7.2" y="16.643333" style="stroke: #000000; stroke-width: 0.8"/>
      </g>
     </g>
     <g id="text_3">
      <!-- 1.0 -->
      <g transform="translate(13.345313 22.342161) scale(0.15 -0.15)">
       <defs>
        <path id="DejaVuSans-31" d="M 794 531 
L 1825 531 
L 1825 4091 
L 703 3866 
L 703 4441 
L 1819 4666 
L 2450 4666 
L 2450 531 
L 3481 531 
L 3481 0 
L 794 0 
L 794 531 
z
" transform="scale(0.015625)"/>
       </defs>
       <use xlink:href="#DejaVuSans-31"/>
       <use xlink:href="#DejaVuSans-2e" x="63.623047"/>
       <use xlink:href="#DejaVuSans-30" x="95.410156"/>
      </g>
     </g>
    </g>
   </g>
   <g id="line2d_4">
    <path d="M 14.270909 75.17234 
L 18.556309 74.428615 
L 22.841708 69.630269 
L 27.127107 64.730911 
L 31.412507 62.065443 
L 35.697906 59.438557 
L 39.983306 56.14259 
L 44.268705 49.512849 
L 48.554105 43.765071 
L 52.839504 39.213146 
L 57.124904 35.251976 
L 61.410303 38.735037 
L 65.695702 37.068635 
L 69.981102 36.077906 
L 74.266501 31.322795 
L 78.551901 26.148515 
L 82.8373 24.100168 
L 87.1227 22.1222 
L 91.408099 20.403062 
L 95.693499 32.521558 
L 99.978898 29.508268 
L 104.264298 36.290399 
L 108.549697 41.481741 
L 112.835096 46.658348 
L 117.120496 48.820696 
L 121.405895 46.929974 
L 125.691295 48.895922 
L 129.976694 47.166315 
L 134.262094 44.381416 
L 138.547493 47.082171 
L 142.832893 50.513078 
L 147.118292 55.958792 
L 151.403691 62.21667 
L 155.689091 65.951 
" clip-path="url(#p751b22ebbf)" style="fill: none; stroke: #ffb000; stroke-width: 2; stroke-linecap: square"/>
   </g>
   <g id="line2d_5">
    <path d="M 14.270909 111.076667 
L 18.556309 111.076667 
L 22.841708 111.076667 
L 27.127107 111.076667 
L 31.412507 111.076667 
L 35.697906 111.076667 
L 39.983306 111.076667 
L 44.268705 111.076667 
L 48.554105 111.076667 
L 52.839504 111.076667 
L 57.124904 111.076667 
L 61.410303 111.076667 
L 65.695702 111.076667 
L 69.981102 111.076667 
L 74.266501 111.076667 
L 78.551901 111.076667 
L 82.8373 111.076667 
L 87.1227 111.076667 
L 91.408099 111.076667 
L 95.693499 111.076667 
L 99.978898 111.076667 
L 104.264298 111.076667 
L 108.549697 111.076667 
L 112.835096 111.076667 
L 117.120496 111.076667 
L 121.405895 111.076667 
L 125.691295 111.076667 
L 129.976694 111.076667 
L 134.262094 111.076667 
L 138.547493 111.076667 
L 142.832893 111.076667 
L 147.118292 111.076667 
L 151.403691 111.076667 
L 155.689091 111.076667 
" clip-path="url(#p751b22ebbf)" style="fill: none; stroke: #dc267f; stroke-width: 2; stroke-linecap: square"/>
   </g>
   <g id="patch_3">
    <path d="M 7.2 120.52 
L 7.2 7.2 
" style="fill: none; stroke: #000000; stroke-width: 0.8; stroke-linejoin: miter; stroke-linecap: square"/>
   </g>
   <g id="patch_4">
    <path d="M 7.2 120.52 
L 162.76 120.52 
" style="fill: none; stroke: #000000; stroke-width: 0.8; stroke-linejoin: miter; stroke-linecap: square"/>
   </g>
  </g>
  <g id="axes_2">
   <g id="patch_5">
    <path d="M 177.06 120.52 
L 332.62 120.52 
L 332.62 7.2 
L 177.06 7.2 
z
" style="fill: #ffffff"/>
   </g>
   <g id="PolyCollection_3"/>
   <g id="PolyCollection_4"/>
   <g id="matplotlib.axis_3"/>
   <g id="matplotlib.axis_4">
    <g id="ytick_4">
     <g id="line2d_6">
      <g>
       <use xlink:href="#m6f8d6bbf4e" x="177.06" y="111.076667" style="stroke: #000000; stroke-width: 0.8"/>
      </g>
     </g>
    </g>
    <g id="ytick_5">
     <g id="line2d_7">
      <g>
       <use xlink:href="#m6f8d6bbf4e" x="177.06" y="63.86" style="stroke: #000000; stroke-width: 0.8"/>
      </g>
     </g>
    </g>
    <g id="ytick_6">
     <g id="line2d_8">
      <g>
       <use xlink:href="#m6f8d6bbf4e" x="177.06" y="16.643333" style="stroke: #000000; stroke-width: 0.8"/>
      </g>
     </g>
    </g>
   </g>
   <g id="line2d_9">
    <path d="M 184.130909 67.986745 
L 188.416309 66.468079 
L 192.701708 66.572387 
L 196.987107 67.595106 
L 201.272507 68.709337 
L 205.557906 68.953626 
L 209.843306 66.927964 
L 214.128705 64.812341 
L 218.414105 60.061107 
L 222.699504 55.577816 
L 226.984904 54.168694 
L 231.270303 50.788001 
L 235.555702 38.120436 
L 239.841102 32.042091 
L 244.126501 31.831343 
L 248.411901 29.526881 
L 252.6973 26.317772 
L 256.9827 26.172943 
L 261.268099 26.946526 
L 265.553499 30.492211 
L 269.838898 34.098193 
L 274.124298 39.223422 
L 278.409697 41.053459 
L 282.695096 45.489249 
L 286.980496 45.950491 
L 291.265895 45.693017 
L 295.551295 48.364302 
L 299.836694 47.960643 
L 304.122094 46.293271 
L 308.407493 38.924652 
L 312.692893 46.757615 
L 316.978292 49.670668 
L 321.263691 51.436725 
L 325.549091 53.663829 
" clip-path="url(#p4659f81690)" style="fill: none; stroke: #ffb000; stroke-width: 2; stroke-linecap: square"/>
   </g>
   <g id="line2d_10">
    <path d="M 184.130909 68.912284 
L 188.416309 68.916863 
L 192.701708 67.090828 
L 196.987107 66.042243 
L 201.272507 68.21315 
L 205.557906 68.33223 
L 209.843306 65.572109 
L 214.128705 65.680654 
L 218.414105 64.880762 
L 222.699504 64.366889 
L 226.984904 61.759052 
L 231.270303 56.987864 
L 235.555702 51.341214 
L 239.841102 45.0165 
L 244.126501 38.978262 
L 248.411901 33.904109 
L 252.6973 25.997701 
L 256.9827 17.072706 
L 261.268099 16.643333 
L 265.553499 19.419942 
L 269.838898 20.790958 
L 274.124298 20.809048 
L 278.409697 25.840837 
L 282.695096 34.199289 
L 286.980496 40.572093 
L 291.265895 45.052681 
L 295.551295 50.12088 
L 299.836694 55.143738 
L 304.122094 59.699666 
L 308.407493 63.475168 
L 312.692893 63.773324 
L 316.978292 67.600121 
L 321.263691 67.786984 
L 325.549091 67.410281 
" clip-path="url(#p4659f81690)" style="fill: none; stroke: #dc267f; stroke-width: 2; stroke-linecap: square"/>
   </g>
   <g id="patch_6">
    <path d="M 177.06 120.52 
L 177.06 7.2 
" style="fill: none; stroke: #000000; stroke-width: 0.8; stroke-linejoin: miter; stroke-linecap: square"/>
   </g>
   <g id="patch_7">
    <path d="M 177.06 120.52 
L 332.62 120.52 
" style="fill: none; stroke: #000000; stroke-width: 0.8; stroke-linejoin: miter; stroke-linecap: square"/>
   </g>
  </g>
  <g id="axes_3">
   <g id="patch_8">
    <path d="M 346.92 120.52 
L 502.48 120.52 
L 502.48 7.2 
L 346.92 7.2 
z
" style="fill: #ffffff"/>
   </g>
   <g id="PolyCollection_5"/>
   <g id="PolyCollection_6"/>
   <g id="matplotlib.axis_5"/>
   <g id="matplotlib.axis_6">
    <g id="ytick_7">
     <g id="line2d_11">
      <g>
       <use xlink:href="#m6f8d6bbf4e" x="346.92" y="111.076667" style="stroke: #000000; stroke-width: 0.8"/>
      </g>
     </g>
    </g>
    <g id="ytick_8">
     <g id="line2d_12">
      <g>
       <use xlink:href="#m6f8d6bbf4e" x="346.92" y="63.86" style="stroke: #000000; stroke-width: 0.8"/>
      </g>
     </g>
    </g>
    <g id="ytick_9">
     <g id="line2d_13">
      <g>
       <use xlink:href="#m6f8d6bbf4e" x="346.92" y="16.643333" style="stroke: #000000; stroke-width: 0.8"/>
      </g>
     </g>
    </g>
   </g>
   <g id="line2d_14">
    <path d="M 353.990909 68.023194 
L 358.276309 68.331852 
L 362.561708 68.907483 
L 366.847107 69.681453 
L 371.132507 68.815971 
L 375.417906 71.266232 
L 379.703306 68.330107 
L 383.988705 66.114829 
L 388.274105 60.203997 
L 392.559504 54.533964 
L 396.844904 40.565656 
L 401.130303 38.924846 
L 405.415702 35.57246 
L 409.701102 30.158155 
L 413.986501 16.643333 
L 418.271901 19.442191 
L 422.5573 16.88297 
L 426.8427 21.226279 
L 431.128099 24.752576 
L 435.413499 29.906111 
L 439.698898 37.502152 
L 443.984298 43.012621 
L 448.269697 49.228815 
L 452.555096 54.197194 
L 456.840496 58.734577 
L 461.125895 62.037718 
L 465.411295 64.450172 
L 469.696694 67.179427 
L 473.982094 68.733378 
L 478.267493 65.917653 
L 482.552893 65.814702 
L 486.838292 66.490763 
L 491.123691 68.91834 
L 495.409091 69.065107 
" clip-path="url(#p282503e4ce)" style="fill: none; stroke: #ffb000; stroke-width: 2; stroke-linecap: square"/>
   </g>
   <g id="line2d_15">
    <path d="M 353.990909 67.621189 
L 358.276309 67.880186 
L 362.561708 68.225287 
L 366.847107 65.813244 
L 371.132507 64.704433 
L 375.417906 76.46924 
L 379.703306 77.419814 
L 383.988705 78.555876 
L 388.274105 77.23318 
L 392.559504 75.554848 
L 396.844904 75.997732 
L 401.130303 76.14223 
L 405.415702 75.045555 
L 409.701102 71.538211 
L 413.986501 70.706717 
L 418.271901 69.969799 
L 422.5573 65.635541 
L 426.8427 61.084192 
L 431.128099 58.925193 
L 435.413499 56.180186 
L 439.698898 50.407129 
L 443.984298 41.965779 
L 448.269697 37.308862 
L 452.555096 38.096846 
L 456.840496 39.743576 
L 461.125895 43.074591 
L 465.411295 47.312669 
L 469.696694 48.861388 
L 473.982094 53.845086 
L 478.267493 60.837103 
L 482.552893 64.258572 
L 486.838292 66.23048 
L 491.123691 68.446729 
L 495.409091 70.290856 
" clip-path="url(#p282503e4ce)" style="fill: none; stroke: #dc267f; stroke-width: 2; stroke-linecap: square"/>
   </g>
   <g id="patch_9">
    <path d="M 346.92 120.52 
L 346.92 7.2 
" style="fill: none; stroke: #000000; stroke-width: 0.8; stroke-linejoin: miter; stroke-linecap: square"/>
   </g>
   <g id="patch_10">
    <path d="M 346.92 120.52 
L 502.48 120.52 
" style="fill: none; stroke: #000000; stroke-width: 0.8; stroke-linejoin: miter; stroke-linecap: square"/>
   </g>
  </g>
  <g id="axes_4">
   <g id="patch_11">
    <path d="M 516.78 120.52 
L 672.34 120.52 
L 672.34 7.2 
L 516.78 7.2 
z
" style="fill: #ffffff"/>
   </g>
   <g id="PolyCollection_7"/>
   <g id="PolyCollection_8"/>
   <g id="matplotlib.axis_7"/>
   <g id="matplotlib.axis_8">
    <g id="ytick_10">
     <g id="line2d_16">
      <g>
       <use xlink:href="#m6f8d6bbf4e" x="516.78" y="111.076667" style="stroke: #000000; stroke-width: 0.8"/>
      </g>
     </g>
    </g>
    <g id="ytick_11">
     <g id="line2d_17">
      <g>
       <use xlink:href="#m6f8d6bbf4e" x="516.78" y="63.86" style="stroke: #000000; stroke-width: 0.8"/>
      </g>
     </g>
    </g>
    <g id="ytick_12">
     <g id="line2d_18">
      <g>
       <use xlink:href="#m6f8d6bbf4e" x="516.78" y="16.643333" style="stroke: #000000; stroke-width: 0.8"/>
      </g>
     </g>
    </g>
   </g>
   <g id="line2d_19">
    <path d="M 523.850909 73.415396 
L 528.136309 76.285214 
L 532.421708 72.11601 
L 536.707107 71.841281 
L 540.992507 69.382296 
L 545.277906 65.23403 
L 549.563306 63.202552 
L 553.848705 57.933464 
L 558.134105 57.157166 
L 562.419504 55.688134 
L 566.704904 48.175656 
L 570.990303 43.79202 
L 575.275702 34.759519 
L 579.561102 27.06363 
L 583.846501 18.860162 
L 588.131901 23.643773 
L 592.4173 19.401088 
L 596.7027 22.99757 
L 600.988099 24.094545 
L 605.273499 19.462936 
L 609.558898 24.640707 
L 613.844298 31.881946 
L 618.129697 32.89439 
L 622.415096 37.34569 
L 626.700496 48.88584 
L 630.985895 52.637038 
L 635.271295 54.772631 
L 639.556694 60.914375 
L 643.842094 64.677206 
L 648.127493 65.336787 
L 652.412893 67.458033 
L 656.698292 70.329402 
L 660.983691 66.867473 
L 665.269091 69.974019 
" clip-path="url(#p64fbf9bbdc)" style="fill: none; stroke: #ffb000; stroke-width: 2; stroke-linecap: square"/>
   </g>
   <g id="line2d_20">
    <path d="M 523.850909 71.411575 
L 528.136309 71.605995 
L 532.421708 73.400429 
L 536.707107 76.656103 
L 540.992507 76.6545 
L 545.277906 78.031469 
L 549.563306 79.143487 
L 553.848705 80.467786 
L 558.134105 81.54179 
L 562.419504 80.991964 
L 566.704904 111.076667 
L 570.990303 111.076667 
L 575.275702 111.076667 
L 579.561102 111.076667 
L 583.846501 111.076667 
L 588.131901 111.076667 
L 592.4173 111.076667 
L 596.7027 111.076667 
L 600.988099 111.076667 
L 605.273499 111.076667 
L 609.558898 111.076667 
L 613.844298 111.076667 
L 618.129697 111.076667 
L 622.415096 111.076667 
L 626.700496 111.076667 
L 630.985895 111.076667 
L 635.271295 111.076667 
L 639.556694 111.076667 
L 643.842094 111.076667 
L 648.127493 111.076667 
L 652.412893 111.076667 
L 656.698292 111.076667 
L 660.983691 111.076667 
L 665.269091 111.076667 
" clip-path="url(#p64fbf9bbdc)" style="fill: none; stroke: #dc267f; stroke-width: 2; stroke-linecap: square"/>
   </g>
   <g id="patch_12">
    <path d="M 516.78 120.52 
L 516.78 7.2 
" style="fill: none; stroke: #000000; stroke-width: 0.8; stroke-linejoin: miter; stroke-linecap: square"/>
   </g>
   <g id="patch_13">
    <path d="M 516.78 120.52 
L 672.34 120.52 
" style="fill: none; stroke: #000000; stroke-width: 0.8; stroke-linejoin: miter; stroke-linecap: square"/>
   </g>
  </g>
  <g id="axes_5">
   <g id="patch_14">
    <path d="M 686.64 120.52 
L 842.2 120.52 
L 842.2 7.2 
L 686.64 7.2 
z
" style="fill: #ffffff"/>
   </g>
   <g id="PolyCollection_9"/>
   <g id="PolyCollection_10"/>
   <g id="matplotlib.axis_9"/>
   <g id="matplotlib.axis_10">
    <g id="ytick_13">
     <g id="line2d_21">
      <g>
       <use xlink:href="#m6f8d6bbf4e" x="686.64" y="111.076667" style="stroke: #000000; stroke-width: 0.8"/>
      </g>
     </g>
    </g>
    <g id="ytick_14">
     <g id="line2d_22">
      <g>
       <use xlink:href="#m6f8d6bbf4e" x="686.64" y="63.86" style="stroke: #000000; stroke-width: 0.8"/>
      </g>
     </g>
    </g>
    <g id="ytick_15">
     <g id="line2d_23">
      <g>
       <use xlink:href="#m6f8d6bbf4e" x="686.64" y="16.643333" style="stroke: #000000; stroke-width: 0.8"/>
      </g>
     </g>
    </g>
   </g>
   <g id="line2d_24">
    <path d="M 693.710909 75.148299 
L 697.996309 74.647894 
L 702.281708 75.079278 
L 706.567107 74.536801 
L 710.852507 73.626532 
L 715.137906 74.033681 
L 719.423306 72.274798 
L 723.708705 66.173381 
L 727.994105 65.891673 
L 732.279504 63.970512 
L 736.564904 60.97661 
L 740.850303 56.495259 
L 745.135702 51.125159 
L 749.421102 42.523267 
L 753.706501 42.707453 
L 757.991901 39.557284 
L 762.2773 39.71297 
L 766.5627 36.64617 
L 770.848099 35.921832 
L 775.133499 35.548613 
L 779.418898 40.306632 
L 783.704298 49.319745 
L 787.989697 52.189562 
L 792.275096 60.401367 
L 796.560496 66.221463 
L 800.845895 69.083332 
L 805.131295 70.996738 
L 809.416694 71.375193 
L 813.702094 72.687181 
L 817.987493 74.852826 
L 822.272893 75.512019 
L 826.558292 74.917582 
L 830.843691 75.204331 
L 835.129091 76.905244 
" clip-path="url(#p3248dcbbc1)" style="fill: none; stroke: #ffb000; stroke-width: 2; stroke-linecap: square"/>
   </g>
   <g id="line2d_25">
    <path d="M 693.710909 111.076667 
L 697.996309 111.076667 
L 702.281708 111.076667 
L 706.567107 111.076667 
L 710.852507 111.076667 
L 715.137906 111.076667 
L 719.423306 111.076667 
L 723.708705 111.076667 
L 727.994105 111.076667 
L 732.279504 111.076667 
L 736.564904 111.076667 
L 740.850303 111.076667 
L 745.135702 111.076667 
L 749.421102 111.076667 
L 753.706501 111.076667 
L 757.991901 111.076667 
L 762.2773 111.076667 
L 766.5627 111.076667 
L 770.848099 111.076667 
L 775.133499 111.076667 
L 779.418898 111.076667 
L 783.704298 111.076667 
L 787.989697 111.076667 
L 792.275096 111.076667 
L 796.560496 111.076667 
L 800.845895 111.076667 
L 805.131295 111.076667 
L 809.416694 111.076667 
L 813.702094 111.076667 
L 817.987493 111.076667 
L 822.272893 111.076667 
L 826.558292 111.076667 
L 830.843691 111.076667 
L 835.129091 111.076667 
" clip-path="url(#p3248dcbbc1)" style="fill: none; stroke: #dc267f; stroke-width: 2; stroke-linecap: square"/>
   </g>
   <g id="patch_15">
    <path d="M 686.64 120.52 
L 686.64 7.2 
" style="fill: none; stroke: #000000; stroke-width: 0.8; stroke-linejoin: miter; stroke-linecap: square"/>
   </g>
   <g id="patch_16">
    <path d="M 686.64 120.52 
L 842.2 120.52 
" style="fill: none; stroke: #000000; stroke-width: 0.8; stroke-linejoin: miter; stroke-linecap: square"/>
   </g>
  </g>
 </g>
 <defs>
  <clipPath id="p751b22ebbf">
   <rect x="7.2" y="7.2" width="155.56" height="113.32"/>
  </clipPath>
  <clipPath id="p4659f81690">
   <rect x="177.06" y="7.2" width="155.56" height="113.32"/>
  </clipPath>
  <clipPath id="p282503e4ce">
   <rect x="346.92" y="7.2" width="155.56" height="113.32"/>
  </clipPath>
  <clipPath id="p64fbf9bbdc">
   <rect x="516.78" y="7.2" width="155.56" height="113.32"/>
  </clipPath>
  <clipPath id="p3248dcbbc1">
   <rect x="686.64" y="7.2" width="155.56" height="113.32"/>
  </clipPath>
 </defs>
</svg>
