<?xml version="1.0" encoding="utf-8" standalone="no"?>
<!DOCTYPE svg PUBLIC "-//W3C//DTD SVG 1.1//EN"
  "http://www.w3.org/Graphics/SVG/1.1/DTD/svg11.dtd">
<svg xmlns:xlink="http://www.w3.org/1999/xlink" width="855.79pt" height="127.72pt" viewBox="0 0 855.79 127.72" xmlns="http://www.w3.org/2000/svg" version="1.1">
 <metadata>
  <rdf:RDF xmlns:dc="http://purl.org/dc/elements/1.1/" xmlns:cc="http://creativecommons.org/ns#" xmlns:rdf="http://www.w3.org/1999/02/22-rdf-syntax-ns#">
   <cc:Work>
    <dc:type rdf:resource="http://purl.org/dc/dcmitype/StillImage"/>
    <dc:date>2024-12-11T12:08:58.799254</dc:date>
    <dc:format>image/svg+xml</dc:format>
    <dc:creator>
     <cc:Agent>
      <dc:title>Matplotlib v3.7.2, https://matplotlib.org/</dc:title>
     </cc:Agent>
    </dc:creator>
   </cc:Work>
  </rdf:RDF>
 </metadata>
 <defs>
  <style type="text/css">*{stroke-linejoin: round; stroke-linecap: butt}</style>
 </defs>
 <g id="figure_1">
  <g id="patch_1">
   <path d="M 0 127.72 
L 855.79 127.72 
L 855.79 0 
L 0 0 
z
" style="fill: #ffffff"/>
  </g>
  <g id="axes_1">
   <g id="patch_2">
    <path d="M 7.2 120.52 
L 164.038 120.52 
L 164.038 7.2 
L 7.2 7.2 
z
" style="fill: #ffffff"/>
   </g>
   <g id="PolyCollection_1"/>
   <g id="PolyCollection_2"/>
   <g id="matplotlib.axis_1"/>
   <g id="matplotlib.axis_2">
    <g id="ytick_1">
     <g id="line2d_1">
      <defs>
       <path id="mb5e189859f" d="M 0 0 
L 3.5 0 
" style="stroke: #000000; stroke-width: 0.8"/>
      </defs>
      <g>
       <use xlink:href="#mb5e189859f" x="7.2" y="111.076667" style="stroke: #000000; stroke-width: 0.8"/>
      </g>
     </g>
     <g id="text_1">
      <!-- 0.0 -->
      <g transform="translate(13.345313 116.775495) scale(0.15 -0.15)">
       <defs>
        <path id="DejaVuSans-30" d="M 2034 4250 
Q 1547 4250 1301 3770 
Q 1056 3291 1056 2328 
Q 1056 1369 1301 889 
Q 1547 409 2034 409 
Q 2525 409 2770 889 
Q 3016 1369 3016 2328 
Q 3016 3291 2770 3770 
Q 2525 4250 2034 4250 
z
M 2034 4750 
Q 2819 4750 3233 4129 
Q 3647 3509 3647 2328 
Q 3647 1150 3233 529 
Q 2819 -91 2034 -91 
Q 1250 -91 836 529 
Q 422 1150 422 2328 
Q 422 3509 836 4129 
Q 1250 4750 2034 4750 
z
" transform="scale(0.015625)"/>
        <path id="DejaVuSans-2e" d="M 684 794 
L 1344 794 
L 1344 0 
L 684 0 
L 684 794 
z
" transform="scale(0.015625)"/>
       </defs>
       <use xlink:href="#DejaVuSans-30"/>
       <use xlink:href="#DejaVuSans-2e" x="63.623047"/>
       <use xlink:href="#DejaVuSans-30" x="95.410156"/>
      </g>
     </g>
    </g>
    <g id="ytick_2">
     <g id="line2d_2">
      <g>
       <use xlink:href="#mb5e189859f" x="7.2" y="63.86" style="stroke: #000000; stroke-width: 0.8"/>
      </g>
     </g>
     <g id="text_2">
      <!-- 0.5 -->
      <g transform="translate(13.345313 69.558828) scale(0.15 -0.15)">
       <defs>
        <path id="DejaVuSans-35" d="M 691 4666 
L 3169 4666 
L 3169 4134 
L 1269 4134 
L 1269 2991 
Q 1406 3038 1543 3061 
Q 1681 3084 1819 3084 
Q 2600 3084 3056 2656 
Q 3513 2228 3513 1497 
Q 3513 744 3044 326 
Q 2575 -91 1722 -91 
Q 1428 -91 1123 -41 
Q 819 9 494 109 
L 494 744 
Q 775 591 1075 516 
Q 1375 441 1709 441 
Q 2250 441 2565 725 
Q 2881 1009 2881 1497 
Q 2881 1984 2565 2268 
Q 2250 2553 1709 2553 
Q 1456 2553 1204 2497 
Q 953 2441 691 2322 
L 691 4666 
z
" transform="scale(0.015625)"/>
       </defs>
       <use xlink:href="#DejaVuSans-30"/>
       <use xlink:href="#DejaVuSans-2e" x="63.623047"/>
       <use xlink:href="#DejaVuSans-35" x="95.410156"/>
      </g>
     </g>
    </g>
    <g id="ytick_3">
     <g id="line2d_3">
      <g>
       <use xlink:href="#mb5e189859f" x="7.2" y="16.643333" style="stroke: #000000; stroke-width: 0.8"/>
      </g>
     </g>
     <g id="text_3">
      <!-- 1.0 -->
      <g transform="translate(13.345313 22.342161) scale(0.15 -0.15)">
       <defs>
        <path id="DejaVuSans-31" d="M 794 531 
L 1825 531 
L 1825 4091 
L 703 3866 
L 703 4441 
L 1819 4666 
L 2450 4666 
L 2450 531 
L 3481 531 
L 3481 0 
L 794 0 
L 794 531 
z
" transform="scale(0.015625)"/>
       </defs>
       <use xlink:href="#DejaVuSans-31"/>
       <use xlink:href="#DejaVuSans-2e" x="63.623047"/>
       <use xlink:href="#DejaVuSans-30" x="95.410156"/>
      </g>
     </g>
    </g>
   </g>
   <g id="line2d_4">
    <path d="M 14.329 80.082248 
L 18.784541 82.182663 
L 23.240326 84.225712 
L 27.695867 81.852736 
L 32.151409 79.903894 
L 36.607193 79.239417 
L 41.062735 79.999732 
L 45.518276 79.267557 
L 49.974061 76.116322 
L 54.429602 75.754992 
L 58.885144 76.476972 
L 63.340928 77.469609 
L 67.79647 77.504953 
L 72.252011 74.910122 
L 76.707796 73.051816 
L 81.163337 72.302649 
L 85.618878 72.175001 
L 90.074663 72.20015 
L 94.530204 70.526179 
L 98.985746 69.810453 
L 103.44153 71.614246 
L 107.897072 73.229898 
L 112.352613 75.570249 
L 116.808398 76.317242 
L 121.263939 74.597867 
L 125.719481 75.544828 
L 130.175265 75.814398 
L 134.630807 75.386593 
L 139.086348 75.058161 
L 143.542133 75.53069 
L 147.997674 73.827764 
L 152.453216 72.803997 
L 156.909 77.673111 
" clip-path="url(#p4e05ae1eb8)" style="fill: none; stroke: #ffb000; stroke-width: 2; stroke-linecap: square"/>
   </g>
   <g id="line2d_5">
    <path d="M 14.329 89.287751 
L 18.784541 90.050649 
L 23.240326 89.926757 
L 27.695867 88.311911 
L 32.151409 86.960195 
L 36.607193 86.652276 
L 41.062735 88.936848 
L 45.518276 89.042715 
L 49.974061 89.081696 
L 54.429602 89.504058 
L 58.885144 89.268808 
L 63.340928 90.080984 
L 67.79647 89.622294 
L 72.252011 90.473255 
L 76.707796 90.881525 
L 81.163337 89.208951 
L 85.618878 89.025935 
L 90.074663 88.119388 
L 94.530204 88.695489 
L 98.985746 88.836485 
L 103.44153 88.202006 
L 107.897072 89.450252 
L 112.352613 90.571988 
L 116.808398 90.812778 
L 121.263939 89.825929 
L 125.719481 89.608389 
L 130.175265 90.045703 
L 134.630807 90.293253 
L 139.086348 89.061694 
L 143.542133 88.883554 
L 147.997674 88.62844 
L 152.453216 89.310745 
L 156.909 88.133817 
" clip-path="url(#p4e05ae1eb8)" style="fill: none; stroke: #dc267f; stroke-width: 2; stroke-linecap: square"/>
   </g>
   <g id="patch_3">
    <path d="M 7.2 120.52 
L 7.2 7.2 
" style="fill: none; stroke: #000000; stroke-width: 0.8; stroke-linejoin: miter; stroke-linecap: square"/>
   </g>
   <g id="patch_4">
    <path d="M 7.2 120.52 
L 164.038 120.52 
" style="fill: none; stroke: #000000; stroke-width: 0.8; stroke-linejoin: miter; stroke-linecap: square"/>
   </g>
  </g>
  <g id="axes_2">
   <g id="patch_5">
    <path d="M 178.338 120.52 
L 335.176 120.52 
L 335.176 7.2 
L 178.338 7.2 
z
" style="fill: #ffffff"/>
   </g>
   <g id="PolyCollection_3"/>
   <g id="PolyCollection_4"/>
   <g id="matplotlib.axis_3"/>
   <g id="matplotlib.axis_4">
    <g id="ytick_4">
     <g id="line2d_6">
      <g>
       <use xlink:href="#mb5e189859f" x="178.338" y="111.076667" style="stroke: #000000; stroke-width: 0.8"/>
      </g>
     </g>
    </g>
    <g id="ytick_5">
     <g id="line2d_7">
      <g>
       <use xlink:href="#mb5e189859f" x="178.338" y="63.86" style="stroke: #000000; stroke-width: 0.8"/>
      </g>
     </g>
    </g>
    <g id="ytick_6">
     <g id="line2d_8">
      <g>
       <use xlink:href="#mb5e189859f" x="178.338" y="16.643333" style="stroke: #000000; stroke-width: 0.8"/>
      </g>
     </g>
    </g>
   </g>
   <g id="line2d_9">
    <path d="M 185.467 74.737138 
L 189.922541 74.662874 
L 194.378326 75.582225 
L 198.833867 79.760341 
L 203.289409 80.626716 
L 207.745193 80.493916 
L 212.200735 81.584199 
L 216.656276 79.850469 
L 221.112061 79.006048 
L 225.567602 76.880796 
L 230.023144 75.959188 
L 234.478928 79.129686 
L 238.93447 78.918965 
L 243.390011 81.081192 
L 247.845796 82.464033 
L 252.301337 80.799007 
L 256.756878 80.138894 
L 261.212663 81.029005 
L 265.668204 80.223789 
L 270.123746 80.282624 
L 274.57953 79.2128 
L 279.035072 78.873275 
L 283.490613 79.292447 
L 287.946398 78.717583 
L 292.401939 77.531475 
L 296.857481 75.016822 
L 301.313265 75.805793 
L 305.768807 76.223021 
L 310.224348 77.161894 
L 314.680133 77.332907 
L 319.135674 77.590718 
L 323.591216 77.590487 
L 328.047 78.552918 
" clip-path="url(#p9e1f604100)" style="fill: none; stroke: #ffb000; stroke-width: 2; stroke-linecap: square"/>
   </g>
   <g id="line2d_10">
    <path d="M 185.467 85.399294 
L 189.922541 86.185499 
L 194.378326 86.866558 
L 198.833867 86.210621 
L 203.289409 85.814441 
L 207.745193 89.129405 
L 212.200735 88.92669 
L 216.656276 86.572021 
L 221.112061 86.596061 
L 225.567602 87.408831 
L 230.023144 86.95262 
L 234.478928 87.083179 
L 238.93447 87.790187 
L 243.390011 88.633176 
L 247.845796 90.919005 
L 252.301337 89.670282 
L 256.756878 88.715631 
L 261.212663 87.567457 
L 265.668204 86.369142 
L 270.123746 88.763095 
L 274.57953 88.527147 
L 279.035072 88.026252 
L 283.490613 90.685163 
L 287.946398 89.037222 
L 292.401939 86.264742 
L 296.857481 87.05588 
L 301.313265 88.343014 
L 305.768807 88.699049 
L 310.224348 90.480469 
L 314.680133 88.539656 
L 319.135674 88.717155 
L 323.591216 89.301459 
L 328.047 88.722101 
" clip-path="url(#p9e1f604100)" style="fill: none; stroke: #dc267f; stroke-width: 2; stroke-linecap: square"/>
   </g>
   <g id="patch_6">
    <path d="M 178.338 120.52 
L 178.338 7.2 
" style="fill: none; stroke: #000000; stroke-width: 0.8; stroke-linejoin: miter; stroke-linecap: square"/>
   </g>
   <g id="patch_7">
    <path d="M 178.338 120.52 
L 335.176 120.52 
" style="fill: none; stroke: #000000; stroke-width: 0.8; stroke-linejoin: miter; stroke-linecap: square"/>
   </g>
  </g>
  <g id="axes_3">
   <g id="patch_8">
    <path d="M 349.476 120.52 
L 506.314 120.52 
L 506.314 7.2 
L 349.476 7.2 
z
" style="fill: #ffffff"/>
   </g>
   <g id="PolyCollection_5"/>
   <g id="PolyCollection_6"/>
   <g id="matplotlib.axis_5"/>
   <g id="matplotlib.axis_6">
    <g id="ytick_7">
     <g id="line2d_11">
      <g>
       <use xlink:href="#mb5e189859f" x="349.476" y="111.076667" style="stroke: #000000; stroke-width: 0.8"/>
      </g>
     </g>
    </g>
    <g id="ytick_8">
     <g id="line2d_12">
      <g>
       <use xlink:href="#mb5e189859f" x="349.476" y="63.86" style="stroke: #000000; stroke-width: 0.8"/>
      </g>
     </g>
    </g>
    <g id="ytick_9">
     <g id="line2d_13">
      <g>
       <use xlink:href="#mb5e189859f" x="349.476" y="16.643333" style="stroke: #000000; stroke-width: 0.8"/>
      </g>
     </g>
    </g>
   </g>
   <g id="line2d_14">
    <path d="M 356.605 96.59901 
L 361.060541 93.967068 
L 365.516326 89.846441 
L 369.971867 85.441835 
L 374.427409 86.422646 
L 378.883193 84.311491 
L 383.338735 82.746408 
L 387.794276 82.265587 
L 392.250061 84.324677 
L 396.705602 77.352564 
L 401.161144 70.087363 
L 405.616928 56.030171 
L 410.07247 47.787966 
L 414.528011 35.727331 
L 418.983796 22.264878 
L 423.439337 24.260484 
L 427.894878 21.967712 
L 432.350663 22.147426 
L 436.806204 34.454521 
L 441.261746 47.253041 
L 445.71753 49.220235 
L 450.173072 59.712797 
L 454.628613 63.359263 
L 459.084398 70.865622 
L 463.539939 74.308993 
L 467.995481 77.908424 
L 472.451265 80.429304 
L 476.906807 81.207019 
L 481.362348 79.428102 
L 485.818133 82.941347 
L 490.273674 84.771105 
L 494.729216 84.253444 
L 499.185 84.126476 
" clip-path="url(#p161dc65f4f)" style="fill: none; stroke: #ffb000; stroke-width: 2; stroke-linecap: square"/>
   </g>
   <g id="line2d_15">
    <path d="M 356.605 89.695021 
L 361.060541 90.973847 
L 365.516326 91.209365 
L 369.971867 87.096642 
L 374.427409 85.964433 
L 378.883193 85.053196 
L 383.338735 82.373247 
L 387.794276 78.053049 
L 392.250061 77.572704 
L 396.705602 70.668323 
L 401.161144 65.980187 
L 405.616928 53.605014 
L 410.07247 42.904533 
L 414.528011 34.77462 
L 418.983796 28.428431 
L 423.439337 26.755368 
L 427.894878 28.226425 
L 432.350663 27.157401 
L 436.806204 28.316025 
L 441.261746 35.734612 
L 445.71753 45.165111 
L 450.173072 53.4826 
L 454.628613 61.454143 
L 459.084398 66.238977 
L 463.539939 71.331591 
L 467.995481 75.723817 
L 472.451265 77.8294 
L 476.906807 80.962 
L 481.362348 82.754219 
L 485.818133 83.698386 
L 490.273674 85.028062 
L 494.729216 85.732638 
L 499.185 87.619925 
" clip-path="url(#p161dc65f4f)" style="fill: none; stroke: #dc267f; stroke-width: 2; stroke-linecap: square"/>
   </g>
   <g id="patch_9">
    <path d="M 349.476 120.52 
L 349.476 7.2 
" style="fill: none; stroke: #000000; stroke-width: 0.8; stroke-linejoin: miter; stroke-linecap: square"/>
   </g>
   <g id="patch_10">
    <path d="M 349.476 120.52 
L 506.314 120.52 
" style="fill: none; stroke: #000000; stroke-width: 0.8; stroke-linejoin: miter; stroke-linecap: square"/>
   </g>
  </g>
  <g id="axes_4">
   <g id="patch_11">
    <path d="M 520.614 120.52 
L 677.452 120.52 
L 677.452 7.2 
L 520.614 7.2 
z
" style="fill: #ffffff"/>
   </g>
   <g id="PolyCollection_7"/>
   <g id="PolyCollection_8"/>
   <g id="matplotlib.axis_7"/>
   <g id="matplotlib.axis_8">
    <g id="ytick_10">
     <g id="line2d_16">
      <g>
       <use xlink:href="#mb5e189859f" x="520.614" y="111.076667" style="stroke: #000000; stroke-width: 0.8"/>
      </g>
     </g>
    </g>
    <g id="ytick_11">
     <g id="line2d_17">
      <g>
       <use xlink:href="#mb5e189859f" x="520.614" y="63.86" style="stroke: #000000; stroke-width: 0.8"/>
      </g>
     </g>
    </g>
    <g id="ytick_12">
     <g id="line2d_18">
      <g>
       <use xlink:href="#mb5e189859f" x="520.614" y="16.643333" style="stroke: #000000; stroke-width: 0.8"/>
      </g>
     </g>
    </g>
   </g>
   <g id="line2d_19">
    <path d="M 527.743 99.472655 
L 532.198541 99.28832 
L 536.654326 99.459741 
L 541.109867 98.204331 
L 545.565409 93.610768 
L 550.021193 88.811255 
L 554.476735 86.168165 
L 558.932276 82.803911 
L 563.388061 77.592363 
L 567.843602 73.826133 
L 572.299144 67.983277 
L 576.754928 58.840331 
L 581.21047 48.344643 
L 585.666011 38.274175 
L 590.121796 28.992706 
L 594.577337 20.045107 
L 599.032878 16.643333 
L 603.488663 19.103311 
L 607.944204 26.390534 
L 612.399746 36.842179 
L 616.85553 48.287955 
L 621.311072 59.378927 
L 625.766613 69.722227 
L 630.222398 79.385009 
L 634.677939 83.113991 
L 639.133481 85.776793 
L 643.589265 86.143424 
L 648.044807 85.874262 
L 652.500348 87.352206 
L 656.956133 84.886791 
L 661.411674 86.519027 
L 665.867216 88.55324 
L 670.323 88.200882 
" clip-path="url(#pbd2c4bd469)" style="fill: none; stroke: #ffb000; stroke-width: 2; stroke-linecap: square"/>
   </g>
   <g id="line2d_20">
    <path d="M 527.743 94.514415 
L 532.198541 91.564853 
L 536.654326 90.84771 
L 541.109867 90.810125 
L 545.565409 90.466855 
L 550.021193 88.89526 
L 554.476735 87.371956 
L 558.932276 84.917983 
L 563.388061 81.955738 
L 567.843602 78.818018 
L 572.299144 68.31675 
L 576.754928 52.088109 
L 581.21047 40.442414 
L 585.666011 36.002246 
L 590.121796 32.046846 
L 594.577337 25.629443 
L 599.032878 18.684684 
L 603.488663 16.643333 
L 607.944204 21.160766 
L 612.399746 29.239712 
L 616.85553 38.51731 
L 621.311072 48.35147 
L 625.766613 55.837316 
L 630.222398 62.446251 
L 634.677939 70.466085 
L 639.133481 74.237167 
L 643.589265 78.911341 
L 648.044807 82.166936 
L 652.500348 84.456023 
L 656.956133 87.740127 
L 661.411674 88.009624 
L 665.867216 89.845361 
L 670.323 89.627181 
" clip-path="url(#pbd2c4bd469)" style="fill: none; stroke: #dc267f; stroke-width: 2; stroke-linecap: square"/>
   </g>
   <g id="patch_12">
    <path d="M 520.614 120.52 
L 520.614 7.2 
" style="fill: none; stroke: #000000; stroke-width: 0.8; stroke-linejoin: miter; stroke-linecap: square"/>
   </g>
   <g id="patch_13">
    <path d="M 520.614 120.52 
L 677.452 120.52 
" style="fill: none; stroke: #000000; stroke-width: 0.8; stroke-linejoin: miter; stroke-linecap: square"/>
   </g>
  </g>
  <g id="axes_5">
   <g id="patch_14">
    <path d="M 691.752 120.52 
L 848.59 120.52 
L 848.59 7.2 
L 691.752 7.2 
z
" style="fill: #ffffff"/>
   </g>
   <g id="PolyCollection_9"/>
   <g id="PolyCollection_10"/>
   <g id="matplotlib.axis_9"/>
   <g id="matplotlib.axis_10">
    <g id="ytick_13">
     <g id="line2d_21">
      <g>
       <use xlink:href="#mb5e189859f" x="691.752" y="111.076667" style="stroke: #000000; stroke-width: 0.8"/>
      </g>
     </g>
    </g>
    <g id="ytick_14">
     <g id="line2d_22">
      <g>
       <use xlink:href="#mb5e189859f" x="691.752" y="63.86" style="stroke: #000000; stroke-width: 0.8"/>
      </g>
     </g>
    </g>
    <g id="ytick_15">
     <g id="line2d_23">
      <g>
       <use xlink:href="#mb5e189859f" x="691.752" y="16.643333" style="stroke: #000000; stroke-width: 0.8"/>
      </g>
     </g>
    </g>
   </g>
   <g id="line2d_24">
    <path d="M 698.881 90.085153 
L 703.336541 87.829357 
L 707.792326 90.324 
L 712.247867 88.563843 
L 716.703409 87.993437 
L 721.159193 88.230245 
L 725.614735 86.114876 
L 730.070276 84.680841 
L 734.526061 82.103002 
L 738.981602 78.227069 
L 743.437144 72.463602 
L 747.892928 69.002287 
L 752.34847 68.105624 
L 756.804011 62.666647 
L 761.259796 55.901299 
L 765.715337 53.336375 
L 770.170878 51.557459 
L 774.626663 54.136385 
L 779.082204 60.045851 
L 783.537746 63.029608 
L 787.99353 72.56379 
L 792.449072 72.31733 
L 796.904613 78.958972 
L 801.360398 82.100419 
L 805.815939 83.591142 
L 810.271481 82.315613 
L 814.727265 85.39045 
L 819.182807 86.007347 
L 823.638348 83.882055 
L 828.094133 83.231852 
L 832.549674 83.608135 
L 837.005216 82.280676 
L 841.461 80.433382 
" clip-path="url(#p1c9ccb1919)" style="fill: none; stroke: #ffb000; stroke-width: 2; stroke-linecap: square"/>
   </g>
   <g id="line2d_25">
    <path d="M 698.881 92.216251 
L 703.336541 90.299641 
L 707.792326 93.436547 
L 712.247867 92.927228 
L 716.703409 89.560506 
L 721.159193 88.613197 
L 725.614735 87.275142 
L 730.070276 87.315171 
L 734.526061 86.505985 
L 738.981602 83.991969 
L 743.437144 78.86561 
L 747.892928 70.974706 
L 752.34847 66.574218 
L 756.804011 61.94275 
L 761.259796 58.549614 
L 765.715337 57.664792 
L 770.170878 55.455297 
L 774.626663 57.099967 
L 779.082204 64.697171 
L 783.537746 68.226452 
L 787.99353 71.400594 
L 792.449072 79.370275 
L 796.904613 83.48358 
L 801.360398 88.115397 
L 805.815939 85.564145 
L 810.271481 85.659912 
L 814.727265 86.616529 
L 819.182807 88.007529 
L 823.638348 86.444778 
L 828.094133 85.902295 
L 832.549674 84.559237 
L 837.005216 85.281267 
L 841.461 85.486531 
" clip-path="url(#p1c9ccb1919)" style="fill: none; stroke: #dc267f; stroke-width: 2; stroke-linecap: square"/>
   </g>
   <g id="patch_15">
    <path d="M 691.752 120.52 
L 691.752 7.2 
" style="fill: none; stroke: #000000; stroke-width: 0.8; stroke-linejoin: miter; stroke-linecap: square"/>
   </g>
   <g id="patch_16">
    <path d="M 691.752 120.52 
L 848.59 120.52 
" style="fill: none; stroke: #000000; stroke-width: 0.8; stroke-linejoin: miter; stroke-linecap: square"/>
   </g>
  </g>
 </g>
 <defs>
  <clipPath id="p4e05ae1eb8">
   <rect x="7.2" y="7.2" width="156.838" height="113.32"/>
  </clipPath>
  <clipPath id="p9e1f604100">
   <rect x="178.338" y="7.2" width="156.838" height="113.32"/>
  </clipPath>
  <clipPath id="p161dc65f4f">
   <rect x="349.476" y="7.2" width="156.838" height="113.32"/>
  </clipPath>
  <clipPath id="pbd2c4bd469">
   <rect x="520.614" y="7.2" width="156.838" height="113.32"/>
  </clipPath>
  <clipPath id="p1c9ccb1919">
   <rect x="691.752" y="7.2" width="156.838" height="113.32"/>
  </clipPath>
 </defs>
</svg>
