<?xml version="1.0" encoding="utf-8" standalone="no"?>
<!DOCTYPE svg PUBLIC "-//W3C//DTD SVG 1.1//EN"
  "http://www.w3.org/Graphics/SVG/1.1/DTD/svg11.dtd">
<svg xmlns:xlink="http://www.w3.org/1999/xlink" width="855.79pt" height="127.72pt" viewBox="0 0 855.79 127.72" xmlns="http://www.w3.org/2000/svg" version="1.1">
 <metadata>
  <rdf:RDF xmlns:dc="http://purl.org/dc/elements/1.1/" xmlns:cc="http://creativecommons.org/ns#" xmlns:rdf="http://www.w3.org/1999/02/22-rdf-syntax-ns#">
   <cc:Work>
    <dc:type rdf:resource="http://purl.org/dc/dcmitype/StillImage"/>
    <dc:date>2024-12-11T12:08:55.807422</dc:date>
    <dc:format>image/svg+xml</dc:format>
    <dc:creator>
     <cc:Agent>
      <dc:title>Matplotlib v3.7.2, https://matplotlib.org/</dc:title>
     </cc:Agent>
    </dc:creator>
   </cc:Work>
  </rdf:RDF>
 </metadata>
 <defs>
  <style type="text/css">*{stroke-linejoin: round; stroke-linecap: butt}</style>
 </defs>
 <g id="figure_1">
  <g id="patch_1">
   <path d="M 0 127.72 
L 855.79 127.72 
L 855.79 0 
L 0 0 
z
" style="fill: #ffffff"/>
  </g>
  <g id="axes_1">
   <g id="patch_2">
    <path d="M 7.2 120.52 
L 164.038 120.52 
L 164.038 7.2 
L 7.2 7.2 
z
" style="fill: #ffffff"/>
   </g>
   <g id="PolyCollection_1"/>
   <g id="PolyCollection_2"/>
   <g id="matplotlib.axis_1"/>
   <g id="matplotlib.axis_2">
    <g id="ytick_1">
     <g id="line2d_1">
      <defs>
       <path id="m40d0585c37" d="M 0 0 
L 3.5 0 
" style="stroke: #000000; stroke-width: 0.8"/>
      </defs>
      <g>
       <use xlink:href="#m40d0585c37" x="7.2" y="111.076667" style="stroke: #000000; stroke-width: 0.8"/>
      </g>
     </g>
     <g id="text_1">
      <!-- 0.0 -->
      <g transform="translate(13.345313 116.775495) scale(0.15 -0.15)">
       <defs>
        <path id="DejaVuSans-30" d="M 2034 4250 
Q 1547 4250 1301 3770 
Q 1056 3291 1056 2328 
Q 1056 1369 1301 889 
Q 1547 409 2034 409 
Q 2525 409 2770 889 
Q 3016 1369 3016 2328 
Q 3016 3291 2770 3770 
Q 2525 4250 2034 4250 
z
M 2034 4750 
Q 2819 4750 3233 4129 
Q 3647 3509 3647 2328 
Q 3647 1150 3233 529 
Q 2819 -91 2034 -91 
Q 1250 -91 836 529 
Q 422 1150 422 2328 
Q 422 3509 836 4129 
Q 1250 4750 2034 4750 
z
" transform="scale(0.015625)"/>
        <path id="DejaVuSans-2e" d="M 684 794 
L 1344 794 
L 1344 0 
L 684 0 
L 684 794 
z
" transform="scale(0.015625)"/>
       </defs>
       <use xlink:href="#DejaVuSans-30"/>
       <use xlink:href="#DejaVuSans-2e" x="63.623047"/>
       <use xlink:href="#DejaVuSans-30" x="95.410156"/>
      </g>
     </g>
    </g>
    <g id="ytick_2">
     <g id="line2d_2">
      <g>
       <use xlink:href="#m40d0585c37" x="7.2" y="63.86" style="stroke: #000000; stroke-width: 0.8"/>
      </g>
     </g>
     <g id="text_2">
      <!-- 0.5 -->
      <g transform="translate(13.345313 69.558828) scale(0.15 -0.15)">
       <defs>
        <path id="DejaVuSans-35" d="M 691 4666 
L 3169 4666 
L 3169 4134 
L 1269 4134 
L 1269 2991 
Q 1406 3038 1543 3061 
Q 1681 3084 1819 3084 
Q 2600 3084 3056 2656 
Q 3513 2228 3513 1497 
Q 3513 744 3044 326 
Q 2575 -91 1722 -91 
Q 1428 -91 1123 -41 
Q 819 9 494 109 
L 494 744 
Q 775 591 1075 516 
Q 1375 441 1709 441 
Q 2250 441 2565 725 
Q 2881 1009 2881 1497 
Q 2881 1984 2565 2268 
Q 2250 2553 1709 2553 
Q 1456 2553 1204 2497 
Q 953 2441 691 2322 
L 691 4666 
z
" transform="scale(0.015625)"/>
       </defs>
       <use xlink:href="#DejaVuSans-30"/>
       <use xlink:href="#DejaVuSans-2e" x="63.623047"/>
       <use xlink:href="#DejaVuSans-35" x="95.410156"/>
      </g>
     </g>
    </g>
    <g id="ytick_3">
     <g id="line2d_3">
      <g>
       <use xlink:href="#m40d0585c37" x="7.2" y="16.643333" style="stroke: #000000; stroke-width: 0.8"/>
      </g>
     </g>
     <g id="text_3">
      <!-- 1.0 -->
      <g transform="translate(13.345313 22.342161) scale(0.15 -0.15)">
       <defs>
        <path id="DejaVuSans-31" d="M 794 531 
L 1825 531 
L 1825 4091 
L 703 3866 
L 703 4441 
L 1819 4666 
L 2450 4666 
L 2450 531 
L 3481 531 
L 3481 0 
L 794 0 
L 794 531 
z
" transform="scale(0.015625)"/>
       </defs>
       <use xlink:href="#DejaVuSans-31"/>
       <use xlink:href="#DejaVuSans-2e" x="63.623047"/>
       <use xlink:href="#DejaVuSans-30" x="95.410156"/>
      </g>
     </g>
    </g>
   </g>
   <g id="line2d_4">
    <path d="M 14.329 88.388943 
L 18.784541 88.534569 
L 23.240326 88.822632 
L 27.695867 88.268844 
L 32.151409 89.585141 
L 36.607193 90.934072 
L 41.062735 92.430806 
L 45.518276 92.751359 
L 49.974061 92.338992 
L 54.429602 87.565369 
L 58.885144 77.665517 
L 63.340928 65.239681 
L 67.79647 50.853254 
L 72.252011 35.050883 
L 76.707796 18.795097 
L 81.163337 21.63409 
L 85.618878 18.194605 
L 90.074663 22.904987 
L 94.530204 28.851164 
L 98.985746 38.691983 
L 103.44153 43.852154 
L 107.897072 47.975968 
L 112.352613 54.579206 
L 116.808398 56.164853 
L 121.263939 56.962318 
L 125.719481 64.774518 
L 130.175265 67.130071 
L 134.630807 68.136983 
L 139.086348 68.677281 
L 143.542133 68.576039 
L 147.997674 63.158411 
L 152.453216 66.575704 
L 156.909 65.959112 
" clip-path="url(#pef613fbbee)" style="fill: none; stroke: #ffb000; stroke-width: 2; stroke-linecap: square"/>
   </g>
   <g id="line2d_5">
    <path d="M 14.329 79.292575 
L 18.784541 78.516987 
L 23.240326 80.326223 
L 27.695867 78.250227 
L 32.151409 77.522809 
L 36.607193 77.684342 
L 41.062735 76.498087 
L 45.518276 75.606711 
L 49.974061 77.432294 
L 54.429602 78.512109 
L 58.885144 77.535254 
L 63.340928 78.541441 
L 67.79647 79.81108 
L 72.252011 77.345602 
L 76.707796 74.98998 
L 81.163337 72.153029 
L 85.618878 71.190464 
L 90.074663 71.258977 
L 94.530204 72.956763 
L 98.985746 74.835474 
L 103.44153 74.206204 
L 107.897072 76.574826 
L 112.352613 78.941562 
L 116.808398 78.510092 
L 121.263939 80.699687 
L 125.719481 81.944462 
L 130.175265 81.150852 
L 134.630807 81.911412 
L 139.086348 81.873352 
L 143.542133 83.421734 
L 147.997674 84.297685 
L 152.453216 81.822399 
L 156.909 78.975812 
" clip-path="url(#pef613fbbee)" style="fill: none; stroke: #dc267f; stroke-width: 2; stroke-linecap: square"/>
   </g>
   <g id="patch_3">
    <path d="M 7.2 120.52 
L 7.2 7.2 
" style="fill: none; stroke: #000000; stroke-width: 0.8; stroke-linejoin: miter; stroke-linecap: square"/>
   </g>
   <g id="patch_4">
    <path d="M 7.2 120.52 
L 164.038 120.52 
" style="fill: none; stroke: #000000; stroke-width: 0.8; stroke-linejoin: miter; stroke-linecap: square"/>
   </g>
  </g>
  <g id="axes_2">
   <g id="patch_5">
    <path d="M 178.338 120.52 
L 335.176 120.52 
L 335.176 7.2 
L 178.338 7.2 
z
" style="fill: #ffffff"/>
   </g>
   <g id="PolyCollection_3"/>
   <g id="PolyCollection_4"/>
   <g id="matplotlib.axis_3"/>
   <g id="matplotlib.axis_4">
    <g id="ytick_4">
     <g id="line2d_6">
      <g>
       <use xlink:href="#m40d0585c37" x="178.338" y="111.076667" style="stroke: #000000; stroke-width: 0.8"/>
      </g>
     </g>
    </g>
    <g id="ytick_5">
     <g id="line2d_7">
      <g>
       <use xlink:href="#m40d0585c37" x="178.338" y="63.86" style="stroke: #000000; stroke-width: 0.8"/>
      </g>
     </g>
    </g>
    <g id="ytick_6">
     <g id="line2d_8">
      <g>
       <use xlink:href="#m40d0585c37" x="178.338" y="16.643333" style="stroke: #000000; stroke-width: 0.8"/>
      </g>
     </g>
    </g>
   </g>
   <g id="line2d_9">
    <path d="M 185.467 92.63155 
L 189.922541 93.901577 
L 194.378326 90.885482 
L 198.833867 91.288856 
L 203.289409 92.751214 
L 207.745193 88.824517 
L 212.200735 87.596119 
L 216.656276 83.06603 
L 221.112061 65.947073 
L 225.567602 63.34494 
L 230.023144 52.969046 
L 234.478928 44.562011 
L 238.93447 40.80879 
L 243.390011 31.199465 
L 247.845796 28.22877 
L 252.301337 22.471153 
L 256.756878 16.643333 
L 261.212663 21.32253 
L 265.668204 25.685816 
L 270.123746 37.924687 
L 274.57953 46.469951 
L 279.035072 52.939891 
L 283.490613 55.494448 
L 287.946398 60.997944 
L 292.401939 66.561054 
L 296.857481 69.158255 
L 301.313265 71.031239 
L 305.768807 73.659335 
L 310.224348 75.028283 
L 314.680133 76.250009 
L 319.135674 75.853162 
L 323.591216 76.364741 
L 328.047 78.977027 
" clip-path="url(#p49ee94e66e)" style="fill: none; stroke: #ffb000; stroke-width: 2; stroke-linecap: square"/>
   </g>
   <g id="line2d_10">
    <path d="M 185.467 82.743977 
L 189.922541 81.922182 
L 194.378326 82.349868 
L 198.833867 82.238524 
L 203.289409 81.357009 
L 207.745193 80.357533 
L 212.200735 82.474739 
L 216.656276 83.992496 
L 221.112061 82.650601 
L 225.567602 82.689676 
L 230.023144 82.828613 
L 234.478928 82.46232 
L 238.93447 81.232047 
L 243.390011 80.975253 
L 247.845796 78.460075 
L 252.301337 78.239601 
L 256.756878 75.855806 
L 261.212663 78.223518 
L 265.668204 79.41241 
L 270.123746 80.388407 
L 274.57953 81.536221 
L 279.035072 84.024399 
L 283.490613 82.176919 
L 287.946398 85.197168 
L 292.401939 84.257292 
L 296.857481 83.021824 
L 301.313265 82.107827 
L 305.768807 77.524813 
L 310.224348 81.954019 
L 314.680133 82.141681 
L 319.135674 79.806795 
L 323.591216 79.967919 
L 328.047 82.864827 
" clip-path="url(#p49ee94e66e)" style="fill: none; stroke: #dc267f; stroke-width: 2; stroke-linecap: square"/>
   </g>
   <g id="patch_6">
    <path d="M 178.338 120.52 
L 178.338 7.2 
" style="fill: none; stroke: #000000; stroke-width: 0.8; stroke-linejoin: miter; stroke-linecap: square"/>
   </g>
   <g id="patch_7">
    <path d="M 178.338 120.52 
L 335.176 120.52 
" style="fill: none; stroke: #000000; stroke-width: 0.8; stroke-linejoin: miter; stroke-linecap: square"/>
   </g>
  </g>
  <g id="axes_3">
   <g id="patch_8">
    <path d="M 349.476 120.52 
L 506.314 120.52 
L 506.314 7.2 
L 349.476 7.2 
z
" style="fill: #ffffff"/>
   </g>
   <g id="PolyCollection_5"/>
   <g id="PolyCollection_6"/>
   <g id="matplotlib.axis_5"/>
   <g id="matplotlib.axis_6">
    <g id="ytick_7">
     <g id="line2d_11">
      <g>
       <use xlink:href="#m40d0585c37" x="349.476" y="111.076667" style="stroke: #000000; stroke-width: 0.8"/>
      </g>
     </g>
    </g>
    <g id="ytick_8">
     <g id="line2d_12">
      <g>
       <use xlink:href="#m40d0585c37" x="349.476" y="63.86" style="stroke: #000000; stroke-width: 0.8"/>
      </g>
     </g>
    </g>
    <g id="ytick_9">
     <g id="line2d_13">
      <g>
       <use xlink:href="#m40d0585c37" x="349.476" y="16.643333" style="stroke: #000000; stroke-width: 0.8"/>
      </g>
     </g>
    </g>
   </g>
   <g id="line2d_14">
    <path d="M 356.605 94.910084 
L 361.060541 94.155553 
L 365.516326 93.78583 
L 369.971867 93.811213 
L 374.427409 93.702863 
L 378.883193 92.828668 
L 383.338735 92.290256 
L 387.794276 92.219618 
L 392.250061 89.023521 
L 396.705602 83.459396 
L 401.161144 66.667228 
L 405.616928 53.057234 
L 410.07247 42.986372 
L 414.528011 28.904831 
L 418.983796 25.583124 
L 423.439337 22.786339 
L 427.894878 28.400215 
L 432.350663 28.472303 
L 436.806204 21.939703 
L 441.261746 29.152426 
L 445.71753 32.418871 
L 450.173072 43.708703 
L 454.628613 48.703086 
L 459.084398 52.651104 
L 463.539939 57.136084 
L 467.995481 63.903369 
L 472.451265 64.918694 
L 476.906807 69.771656 
L 481.362348 71.576469 
L 485.818133 72.646186 
L 490.273674 70.353147 
L 494.729216 72.67505 
L 499.185 73.576079 
" clip-path="url(#pda47908ceb)" style="fill: none; stroke: #ffb000; stroke-width: 2; stroke-linecap: square"/>
   </g>
   <g id="line2d_15">
    <path d="M 356.605 79.283373 
L 361.060541 79.039222 
L 365.516326 79.793955 
L 369.971867 78.963156 
L 374.427409 78.524686 
L 378.883193 77.826904 
L 383.338735 75.127532 
L 387.794276 75.492704 
L 392.250061 74.846468 
L 396.705602 73.082305 
L 401.161144 72.050991 
L 405.616928 69.070951 
L 410.07247 64.333208 
L 414.528011 62.672532 
L 418.983796 58.352166 
L 423.439337 51.495897 
L 427.894878 48.303082 
L 432.350663 46.105195 
L 436.806204 47.098937 
L 441.261746 54.272259 
L 445.71753 63.92519 
L 450.173072 69.650085 
L 454.628613 72.184009 
L 459.084398 75.673972 
L 463.539939 78.666404 
L 467.995481 79.863957 
L 472.451265 79.58553 
L 476.906807 81.861988 
L 481.362348 81.782758 
L 485.818133 81.738594 
L 490.273674 82.2588 
L 494.729216 83.250564 
L 499.185 82.260645 
" clip-path="url(#pda47908ceb)" style="fill: none; stroke: #dc267f; stroke-width: 2; stroke-linecap: square"/>
   </g>
   <g id="patch_9">
    <path d="M 349.476 120.52 
L 349.476 7.2 
" style="fill: none; stroke: #000000; stroke-width: 0.8; stroke-linejoin: miter; stroke-linecap: square"/>
   </g>
   <g id="patch_10">
    <path d="M 349.476 120.52 
L 506.314 120.52 
" style="fill: none; stroke: #000000; stroke-width: 0.8; stroke-linejoin: miter; stroke-linecap: square"/>
   </g>
  </g>
  <g id="axes_4">
   <g id="patch_11">
    <path d="M 520.614 120.52 
L 677.452 120.52 
L 677.452 7.2 
L 520.614 7.2 
z
" style="fill: #ffffff"/>
   </g>
   <g id="PolyCollection_7"/>
   <g id="PolyCollection_8"/>
   <g id="matplotlib.axis_7"/>
   <g id="matplotlib.axis_8">
    <g id="ytick_10">
     <g id="line2d_16">
      <g>
       <use xlink:href="#m40d0585c37" x="520.614" y="111.076667" style="stroke: #000000; stroke-width: 0.8"/>
      </g>
     </g>
    </g>
    <g id="ytick_11">
     <g id="line2d_17">
      <g>
       <use xlink:href="#m40d0585c37" x="520.614" y="63.86" style="stroke: #000000; stroke-width: 0.8"/>
      </g>
     </g>
    </g>
    <g id="ytick_12">
     <g id="line2d_18">
      <g>
       <use xlink:href="#m40d0585c37" x="520.614" y="16.643333" style="stroke: #000000; stroke-width: 0.8"/>
      </g>
     </g>
    </g>
   </g>
   <g id="line2d_19">
    <path d="M 527.743 91.640448 
L 532.198541 94.028782 
L 536.654326 92.988364 
L 541.109867 90.954524 
L 545.565409 90.461221 
L 550.021193 87.802955 
L 554.476735 83.329869 
L 558.932276 81.463992 
L 563.388061 77.50292 
L 567.843602 73.610455 
L 572.299144 62.652344 
L 576.754928 49.986601 
L 581.21047 41.293825 
L 585.666011 34.248196 
L 590.121796 30.603905 
L 594.577337 31.350604 
L 599.032878 23.516938 
L 603.488663 25.510745 
L 607.944204 27.362263 
L 612.399746 23.778311 
L 616.85553 26.536078 
L 621.311072 35.905206 
L 625.766613 45.813616 
L 630.222398 55.016666 
L 634.677939 59.916043 
L 639.133481 64.738836 
L 643.589265 67.339228 
L 648.044807 73.719529 
L 652.500348 72.932508 
L 656.956133 75.81458 
L 661.411674 77.261273 
L 665.867216 76.574333 
L 670.323 78.296179 
" clip-path="url(#p0f77972466)" style="fill: none; stroke: #ffb000; stroke-width: 2; stroke-linecap: square"/>
   </g>
   <g id="line2d_20">
    <path d="M 527.743 81.546517 
L 532.198541 79.013383 
L 536.654326 78.954587 
L 541.109867 78.359501 
L 545.565409 78.117064 
L 550.021193 76.433186 
L 554.476735 75.003347 
L 558.932276 72.414054 
L 563.388061 70.174772 
L 567.843602 66.80583 
L 572.299144 63.208821 
L 576.754928 51.580269 
L 581.21047 42.70725 
L 585.666011 32.004812 
L 590.121796 17.947538 
L 594.577337 16.643333 
L 599.032878 23.423667 
L 603.488663 23.410352 
L 607.944204 22.976891 
L 612.399746 31.186009 
L 616.85553 44.20195 
L 621.311072 50.23032 
L 625.766613 63.628966 
L 630.222398 69.040234 
L 634.677939 76.461003 
L 639.133481 77.074544 
L 643.589265 81.159988 
L 648.044807 82.671563 
L 652.500348 81.892968 
L 656.956133 78.944699 
L 661.411674 79.000728 
L 665.867216 78.221343 
L 670.323 80.316138 
" clip-path="url(#p0f77972466)" style="fill: none; stroke: #dc267f; stroke-width: 2; stroke-linecap: square"/>
   </g>
   <g id="patch_12">
    <path d="M 520.614 120.52 
L 520.614 7.2 
" style="fill: none; stroke: #000000; stroke-width: 0.8; stroke-linejoin: miter; stroke-linecap: square"/>
   </g>
   <g id="patch_13">
    <path d="M 520.614 120.52 
L 677.452 120.52 
" style="fill: none; stroke: #000000; stroke-width: 0.8; stroke-linejoin: miter; stroke-linecap: square"/>
   </g>
  </g>
  <g id="axes_5">
   <g id="patch_14">
    <path d="M 691.752 120.52 
L 848.59 120.52 
L 848.59 7.2 
L 691.752 7.2 
z
" style="fill: #ffffff"/>
   </g>
   <g id="PolyCollection_9"/>
   <g id="PolyCollection_10"/>
   <g id="matplotlib.axis_9"/>
   <g id="matplotlib.axis_10">
    <g id="ytick_13">
     <g id="line2d_21">
      <g>
       <use xlink:href="#m40d0585c37" x="691.752" y="111.076667" style="stroke: #000000; stroke-width: 0.8"/>
      </g>
     </g>
    </g>
    <g id="ytick_14">
     <g id="line2d_22">
      <g>
       <use xlink:href="#m40d0585c37" x="691.752" y="63.86" style="stroke: #000000; stroke-width: 0.8"/>
      </g>
     </g>
    </g>
    <g id="ytick_15">
     <g id="line2d_23">
      <g>
       <use xlink:href="#m40d0585c37" x="691.752" y="16.643333" style="stroke: #000000; stroke-width: 0.8"/>
      </g>
     </g>
    </g>
   </g>
   <g id="line2d_24">
    <path d="M 698.881 78.667788 
L 703.336541 77.462452 
L 707.792326 76.319196 
L 712.247867 74.448098 
L 716.703409 77.625919 
L 721.159193 76.104528 
L 725.614735 73.737225 
L 730.070276 71.993767 
L 734.526061 74.156264 
L 738.981602 71.597936 
L 743.437144 64.320812 
L 747.892928 59.781875 
L 752.34847 50.711543 
L 756.804011 44.628007 
L 761.259796 39.216906 
L 765.715337 38.126592 
L 770.170878 40.076451 
L 774.626663 38.967281 
L 779.082204 42.546736 
L 783.537746 44.992073 
L 787.99353 50.933754 
L 792.449072 58.191151 
L 796.904613 66.89031 
L 801.360398 71.306392 
L 805.815939 72.814875 
L 810.271481 75.704054 
L 814.727265 78.874914 
L 819.182807 78.710866 
L 823.638348 79.217659 
L 828.094133 80.891639 
L 832.549674 83.024402 
L 837.005216 83.580509 
L 841.461 84.128205 
" clip-path="url(#p77def519a0)" style="fill: none; stroke: #ffb000; stroke-width: 2; stroke-linecap: square"/>
   </g>
   <g id="line2d_25">
    <path d="M 698.881 82.189193 
L 703.336541 83.091576 
L 707.792326 81.140082 
L 712.247867 82.982947 
L 716.703409 82.475793 
L 721.159193 82.312587 
L 725.614735 81.555349 
L 730.070276 76.02807 
L 734.526061 76.356329 
L 738.981602 77.057934 
L 743.437144 72.262185 
L 747.892928 64.647756 
L 752.34847 60.346637 
L 756.804011 50.672349 
L 761.259796 50.341717 
L 765.715337 43.226533 
L 770.170878 40.525051 
L 774.626663 39.708094 
L 779.082204 44.925044 
L 783.537746 50.456014 
L 787.99353 55.796753 
L 792.449072 66.786451 
L 796.904613 70.186505 
L 801.360398 73.676468 
L 805.815939 77.990506 
L 810.271481 78.063013 
L 814.727265 77.230237 
L 819.182807 80.846098 
L 823.638348 83.091181 
L 828.094133 81.504462 
L 832.549674 82.943134 
L 837.005216 84.108916 
L 841.461 85.136144 
" clip-path="url(#p77def519a0)" style="fill: none; stroke: #dc267f; stroke-width: 2; stroke-linecap: square"/>
   </g>
   <g id="patch_15">
    <path d="M 691.752 120.52 
L 691.752 7.2 
" style="fill: none; stroke: #000000; stroke-width: 0.8; stroke-linejoin: miter; stroke-linecap: square"/>
   </g>
   <g id="patch_16">
    <path d="M 691.752 120.52 
L 848.59 120.52 
" style="fill: none; stroke: #000000; stroke-width: 0.8; stroke-linejoin: miter; stroke-linecap: square"/>
   </g>
  </g>
 </g>
 <defs>
  <clipPath id="pef613fbbee">
   <rect x="7.2" y="7.2" width="156.838" height="113.32"/>
  </clipPath>
  <clipPath id="p49ee94e66e">
   <rect x="178.338" y="7.2" width="156.838" height="113.32"/>
  </clipPath>
  <clipPath id="pda47908ceb">
   <rect x="349.476" y="7.2" width="156.838" height="113.32"/>
  </clipPath>
  <clipPath id="p0f77972466">
   <rect x="520.614" y="7.2" width="156.838" height="113.32"/>
  </clipPath>
  <clipPath id="p77def519a0">
   <rect x="691.752" y="7.2" width="156.838" height="113.32"/>
  </clipPath>
 </defs>
</svg>
