<?xml version="1.0" encoding="utf-8" standalone="no"?>
<!DOCTYPE svg PUBLIC "-//W3C//DTD SVG 1.1//EN"
  "http://www.w3.org/Graphics/SVG/1.1/DTD/svg11.dtd">
<svg xmlns:xlink="http://www.w3.org/1999/xlink" width="419.440313pt" height="331.864344pt" viewBox="0 0 419.440313 331.864344" xmlns="http://www.w3.org/2000/svg" version="1.1">
 <metadata>
  <rdf:RDF xmlns:dc="http://purl.org/dc/elements/1.1/" xmlns:cc="http://creativecommons.org/ns#" xmlns:rdf="http://www.w3.org/1999/02/22-rdf-syntax-ns#">
   <cc:Work>
    <dc:type rdf:resource="http://purl.org/dc/dcmitype/StillImage"/>
    <dc:date>2024-12-11T13:40:10.187989</dc:date>
    <dc:format>image/svg+xml</dc:format>
    <dc:creator>
     <cc:Agent>
      <dc:title>Matplotlib v3.7.2, https://matplotlib.org/</dc:title>
     </cc:Agent>
    </dc:creator>
   </cc:Work>
  </rdf:RDF>
 </metadata>
 <defs>
  <style type="text/css">*{stroke-linejoin: round; stroke-linecap: butt}</style>
 </defs>
 <g id="figure_1">
  <g id="patch_1">
   <path d="M 0 331.864344 
L 419.440313 331.864344 
L 419.440313 0 
L 0 0 
z
" style="fill: #ffffff"/>
  </g>
  <g id="axes_1">
   <g id="patch_2">
    <path d="M 55.120313 298.308094 
L 412.240313 298.308094 
L 412.240313 32.196094 
L 55.120313 32.196094 
z
" style="fill: #ffffff"/>
   </g>
   <g id="matplotlib.axis_1">
    <g id="xtick_1">
     <g id="line2d_1">
      <defs>
       <path id="m5a6f08a4f1" d="M 0 0 
L 0 3.5 
" style="stroke: #000000; stroke-width: 0.8"/>
      </defs>
      <g>
       <use xlink:href="#m5a6f08a4f1" x="144.400313" y="298.308094" style="stroke: #000000; stroke-width: 0.8"/>
      </g>
     </g>
     <g id="text_1">
      <!-- Interphase -->
      <g transform="translate(90.751875 320.504969) scale(0.2 -0.2)">
       <defs>
        <path id="DejaVuSans-49" d="M 628 4666 
L 1259 4666 
L 1259 0 
L 628 0 
L 628 4666 
z
" transform="scale(0.015625)"/>
        <path id="DejaVuSans-6e" d="M 3513 2113 
L 3513 0 
L 2938 0 
L 2938 2094 
Q 2938 2591 2744 2837 
Q 2550 3084 2163 3084 
Q 1697 3084 1428 2787 
Q 1159 2491 1159 1978 
L 1159 0 
L 581 0 
L 581 3500 
L 1159 3500 
L 1159 2956 
Q 1366 3272 1645 3428 
Q 1925 3584 2291 3584 
Q 2894 3584 3203 3211 
Q 3513 2838 3513 2113 
z
" transform="scale(0.015625)"/>
        <path id="DejaVuSans-74" d="M 1172 4494 
L 1172 3500 
L 2356 3500 
L 2356 3053 
L 1172 3053 
L 1172 1153 
Q 1172 725 1289 603 
Q 1406 481 1766 481 
L 2356 481 
L 2356 0 
L 1766 0 
Q 1100 0 847 248 
Q 594 497 594 1153 
L 594 3053 
L 172 3053 
L 172 3500 
L 594 3500 
L 594 4494 
L 1172 4494 
z
" transform="scale(0.015625)"/>
        <path id="DejaVuSans-65" d="M 3597 1894 
L 3597 1613 
L 953 1613 
Q 991 1019 1311 708 
Q 1631 397 2203 397 
Q 2534 397 2845 478 
Q 3156 559 3463 722 
L 3463 178 
Q 3153 47 2828 -22 
Q 2503 -91 2169 -91 
Q 1331 -91 842 396 
Q 353 884 353 1716 
Q 353 2575 817 3079 
Q 1281 3584 2069 3584 
Q 2775 3584 3186 3129 
Q 3597 2675 3597 1894 
z
M 3022 2063 
Q 3016 2534 2758 2815 
Q 2500 3097 2075 3097 
Q 1594 3097 1305 2825 
Q 1016 2553 972 2059 
L 3022 2063 
z
" transform="scale(0.015625)"/>
        <path id="DejaVuSans-72" d="M 2631 2963 
Q 2534 3019 2420 3045 
Q 2306 3072 2169 3072 
Q 1681 3072 1420 2755 
Q 1159 2438 1159 1844 
L 1159 0 
L 581 0 
L 581 3500 
L 1159 3500 
L 1159 2956 
Q 1341 3275 1631 3429 
Q 1922 3584 2338 3584 
Q 2397 3584 2469 3576 
Q 2541 3569 2628 3553 
L 2631 2963 
z
" transform="scale(0.015625)"/>
        <path id="DejaVuSans-70" d="M 1159 525 
L 1159 -1331 
L 581 -1331 
L 581 3500 
L 1159 3500 
L 1159 2969 
Q 1341 3281 1617 3432 
Q 1894 3584 2278 3584 
Q 2916 3584 3314 3078 
Q 3713 2572 3713 1747 
Q 3713 922 3314 415 
Q 2916 -91 2278 -91 
Q 1894 -91 1617 61 
Q 1341 213 1159 525 
z
M 3116 1747 
Q 3116 2381 2855 2742 
Q 2594 3103 2138 3103 
Q 1681 3103 1420 2742 
Q 1159 2381 1159 1747 
Q 1159 1113 1420 752 
Q 1681 391 2138 391 
Q 2594 391 2855 752 
Q 3116 1113 3116 1747 
z
" transform="scale(0.015625)"/>
        <path id="DejaVuSans-68" d="M 3513 2113 
L 3513 0 
L 2938 0 
L 2938 2094 
Q 2938 2591 2744 2837 
Q 2550 3084 2163 3084 
Q 1697 3084 1428 2787 
Q 1159 2491 1159 1978 
L 1159 0 
L 581 0 
L 581 4863 
L 1159 4863 
L 1159 2956 
Q 1366 3272 1645 3428 
Q 1925 3584 2291 3584 
Q 2894 3584 3203 3211 
Q 3513 2838 3513 2113 
z
" transform="scale(0.015625)"/>
        <path id="DejaVuSans-61" d="M 2194 1759 
Q 1497 1759 1228 1600 
Q 959 1441 959 1056 
Q 959 750 1161 570 
Q 1363 391 1709 391 
Q 2188 391 2477 730 
Q 2766 1069 2766 1631 
L 2766 1759 
L 2194 1759 
z
M 3341 1997 
L 3341 0 
L 2766 0 
L 2766 531 
Q 2569 213 2275 61 
Q 1981 -91 1556 -91 
Q 1019 -91 701 211 
Q 384 513 384 1019 
Q 384 1609 779 1909 
Q 1175 2209 1959 2209 
L 2766 2209 
L 2766 2266 
Q 2766 2663 2505 2880 
Q 2244 3097 1772 3097 
Q 1472 3097 1187 3025 
Q 903 2953 641 2809 
L 641 3341 
Q 956 3463 1253 3523 
Q 1550 3584 1831 3584 
Q 2591 3584 2966 3190 
Q 3341 2797 3341 1997 
z
" transform="scale(0.015625)"/>
        <path id="DejaVuSans-73" d="M 2834 3397 
L 2834 2853 
Q 2591 2978 2328 3040 
Q 2066 3103 1784 3103 
Q 1356 3103 1142 2972 
Q 928 2841 928 2578 
Q 928 2378 1081 2264 
Q 1234 2150 1697 2047 
L 1894 2003 
Q 2506 1872 2764 1633 
Q 3022 1394 3022 966 
Q 3022 478 2636 193 
Q 2250 -91 1575 -91 
Q 1294 -91 989 -36 
Q 684 19 347 128 
L 347 722 
Q 666 556 975 473 
Q 1284 391 1588 391 
Q 1994 391 2212 530 
Q 2431 669 2431 922 
Q 2431 1156 2273 1281 
Q 2116 1406 1581 1522 
L 1381 1569 
Q 847 1681 609 1914 
Q 372 2147 372 2553 
Q 372 3047 722 3315 
Q 1072 3584 1716 3584 
Q 2034 3584 2315 3537 
Q 2597 3491 2834 3397 
z
" transform="scale(0.015625)"/>
       </defs>
       <use xlink:href="#DejaVuSans-49"/>
       <use xlink:href="#DejaVuSans-6e" x="29.492188"/>
       <use xlink:href="#DejaVuSans-74" x="92.871094"/>
       <use xlink:href="#DejaVuSans-65" x="132.080078"/>
       <use xlink:href="#DejaVuSans-72" x="193.603516"/>
       <use xlink:href="#DejaVuSans-70" x="234.716797"/>
       <use xlink:href="#DejaVuSans-68" x="298.193359"/>
       <use xlink:href="#DejaVuSans-61" x="361.572266"/>
       <use xlink:href="#DejaVuSans-73" x="422.851562"/>
       <use xlink:href="#DejaVuSans-65" x="474.951172"/>
      </g>
     </g>
    </g>
    <g id="xtick_2">
     <g id="line2d_2">
      <g>
       <use xlink:href="#m5a6f08a4f1" x="322.960312" y="298.308094" style="stroke: #000000; stroke-width: 0.8"/>
      </g>
     </g>
     <g id="text_2">
      <!-- Prometaphase -->
      <g transform="translate(250.982187 320.504969) scale(0.2 -0.2)">
       <defs>
        <path id="DejaVuSans-50" d="M 1259 4147 
L 1259 2394 
L 2053 2394 
Q 2494 2394 2734 2622 
Q 2975 2850 2975 3272 
Q 2975 3691 2734 3919 
Q 2494 4147 2053 4147 
L 1259 4147 
z
M 628 4666 
L 2053 4666 
Q 2838 4666 3239 4311 
Q 3641 3956 3641 3272 
Q 3641 2581 3239 2228 
Q 2838 1875 2053 1875 
L 1259 1875 
L 1259 0 
L 628 0 
L 628 4666 
z
" transform="scale(0.015625)"/>
        <path id="DejaVuSans-6f" d="M 1959 3097 
Q 1497 3097 1228 2736 
Q 959 2375 959 1747 
Q 959 1119 1226 758 
Q 1494 397 1959 397 
Q 2419 397 2687 759 
Q 2956 1122 2956 1747 
Q 2956 2369 2687 2733 
Q 2419 3097 1959 3097 
z
M 1959 3584 
Q 2709 3584 3137 3096 
Q 3566 2609 3566 1747 
Q 3566 888 3137 398 
Q 2709 -91 1959 -91 
Q 1206 -91 779 398 
Q 353 888 353 1747 
Q 353 2609 779 3096 
Q 1206 3584 1959 3584 
z
" transform="scale(0.015625)"/>
        <path id="DejaVuSans-6d" d="M 3328 2828 
Q 3544 3216 3844 3400 
Q 4144 3584 4550 3584 
Q 5097 3584 5394 3201 
Q 5691 2819 5691 2113 
L 5691 0 
L 5113 0 
L 5113 2094 
Q 5113 2597 4934 2840 
Q 4756 3084 4391 3084 
Q 3944 3084 3684 2787 
Q 3425 2491 3425 1978 
L 3425 0 
L 2847 0 
L 2847 2094 
Q 2847 2600 2669 2842 
Q 2491 3084 2119 3084 
Q 1678 3084 1418 2786 
Q 1159 2488 1159 1978 
L 1159 0 
L 581 0 
L 581 3500 
L 1159 3500 
L 1159 2956 
Q 1356 3278 1631 3431 
Q 1906 3584 2284 3584 
Q 2666 3584 2933 3390 
Q 3200 3197 3328 2828 
z
" transform="scale(0.015625)"/>
       </defs>
       <use xlink:href="#DejaVuSans-50"/>
       <use xlink:href="#DejaVuSans-72" x="58.552734"/>
       <use xlink:href="#DejaVuSans-6f" x="97.416016"/>
       <use xlink:href="#DejaVuSans-6d" x="158.597656"/>
       <use xlink:href="#DejaVuSans-65" x="256.009766"/>
       <use xlink:href="#DejaVuSans-74" x="317.533203"/>
       <use xlink:href="#DejaVuSans-61" x="356.742188"/>
       <use xlink:href="#DejaVuSans-70" x="418.021484"/>
       <use xlink:href="#DejaVuSans-68" x="481.498047"/>
       <use xlink:href="#DejaVuSans-61" x="544.876953"/>
       <use xlink:href="#DejaVuSans-73" x="606.15625"/>
       <use xlink:href="#DejaVuSans-65" x="658.255859"/>
      </g>
     </g>
    </g>
   </g>
   <g id="matplotlib.axis_2">
    <g id="ytick_1">
     <g id="line2d_3">
      <defs>
       <path id="me15f3d38c0" d="M 0 0 
L -3.5 0 
" style="stroke: #000000; stroke-width: 0.8"/>
      </defs>
      <g>
       <use xlink:href="#me15f3d38c0" x="55.120313" y="298.308094" style="stroke: #000000; stroke-width: 0.8"/>
      </g>
     </g>
     <g id="text_3">
      <!-- 0 -->
      <g transform="translate(35.395313 305.906531) scale(0.2 -0.2)">
       <defs>
        <path id="DejaVuSans-30" d="M 2034 4250 
Q 1547 4250 1301 3770 
Q 1056 3291 1056 2328 
Q 1056 1369 1301 889 
Q 1547 409 2034 409 
Q 2525 409 2770 889 
Q 3016 1369 3016 2328 
Q 3016 3291 2770 3770 
Q 2525 4250 2034 4250 
z
M 2034 4750 
Q 2819 4750 3233 4129 
Q 3647 3509 3647 2328 
Q 3647 1150 3233 529 
Q 2819 -91 2034 -91 
Q 1250 -91 836 529 
Q 422 1150 422 2328 
Q 422 3509 836 4129 
Q 1250 4750 2034 4750 
z
" transform="scale(0.015625)"/>
       </defs>
       <use xlink:href="#DejaVuSans-30"/>
      </g>
     </g>
    </g>
    <g id="ytick_2">
     <g id="line2d_4">
      <g>
       <use xlink:href="#me15f3d38c0" x="55.120313" y="245.085694" style="stroke: #000000; stroke-width: 0.8"/>
      </g>
     </g>
     <g id="text_4">
      <!-- 1 -->
      <g transform="translate(35.395313 252.684131) scale(0.2 -0.2)">
       <defs>
        <path id="DejaVuSans-31" d="M 794 531 
L 1825 531 
L 1825 4091 
L 703 3866 
L 703 4441 
L 1819 4666 
L 2450 4666 
L 2450 531 
L 3481 531 
L 3481 0 
L 794 0 
L 794 531 
z
" transform="scale(0.015625)"/>
       </defs>
       <use xlink:href="#DejaVuSans-31"/>
      </g>
     </g>
    </g>
    <g id="ytick_3">
     <g id="line2d_5">
      <g>
       <use xlink:href="#me15f3d38c0" x="55.120313" y="191.863294" style="stroke: #000000; stroke-width: 0.8"/>
      </g>
     </g>
     <g id="text_5">
      <!-- 2 -->
      <g transform="translate(35.395313 199.461731) scale(0.2 -0.2)">
       <defs>
        <path id="DejaVuSans-32" d="M 1228 531 
L 3431 531 
L 3431 0 
L 469 0 
L 469 531 
Q 828 903 1448 1529 
Q 2069 2156 2228 2338 
Q 2531 2678 2651 2914 
Q 2772 3150 2772 3378 
Q 2772 3750 2511 3984 
Q 2250 4219 1831 4219 
Q 1534 4219 1204 4116 
Q 875 4013 500 3803 
L 500 4441 
Q 881 4594 1212 4672 
Q 1544 4750 1819 4750 
Q 2544 4750 2975 4387 
Q 3406 4025 3406 3419 
Q 3406 3131 3298 2873 
Q 3191 2616 2906 2266 
Q 2828 2175 2409 1742 
Q 1991 1309 1228 531 
z
" transform="scale(0.015625)"/>
       </defs>
       <use xlink:href="#DejaVuSans-32"/>
      </g>
     </g>
    </g>
    <g id="ytick_4">
     <g id="line2d_6">
      <g>
       <use xlink:href="#me15f3d38c0" x="55.120313" y="138.640894" style="stroke: #000000; stroke-width: 0.8"/>
      </g>
     </g>
     <g id="text_6">
      <!-- 3 -->
      <g transform="translate(35.395313 146.239331) scale(0.2 -0.2)">
       <defs>
        <path id="DejaVuSans-33" d="M 2597 2516 
Q 3050 2419 3304 2112 
Q 3559 1806 3559 1356 
Q 3559 666 3084 287 
Q 2609 -91 1734 -91 
Q 1441 -91 1130 -33 
Q 819 25 488 141 
L 488 750 
Q 750 597 1062 519 
Q 1375 441 1716 441 
Q 2309 441 2620 675 
Q 2931 909 2931 1356 
Q 2931 1769 2642 2001 
Q 2353 2234 1838 2234 
L 1294 2234 
L 1294 2753 
L 1863 2753 
Q 2328 2753 2575 2939 
Q 2822 3125 2822 3475 
Q 2822 3834 2567 4026 
Q 2313 4219 1838 4219 
Q 1578 4219 1281 4162 
Q 984 4106 628 3988 
L 628 4550 
Q 988 4650 1302 4700 
Q 1616 4750 1894 4750 
Q 2613 4750 3031 4423 
Q 3450 4097 3450 3541 
Q 3450 3153 3228 2886 
Q 3006 2619 2597 2516 
z
" transform="scale(0.015625)"/>
       </defs>
       <use xlink:href="#DejaVuSans-33"/>
      </g>
     </g>
    </g>
    <g id="ytick_5">
     <g id="line2d_7">
      <g>
       <use xlink:href="#me15f3d38c0" x="55.120313" y="85.418494" style="stroke: #000000; stroke-width: 0.8"/>
      </g>
     </g>
     <g id="text_7">
      <!-- 4 -->
      <g transform="translate(35.395313 93.016931) scale(0.2 -0.2)">
       <defs>
        <path id="DejaVuSans-34" d="M 2419 4116 
L 825 1625 
L 2419 1625 
L 2419 4116 
z
M 2253 4666 
L 3047 4666 
L 3047 1625 
L 3713 1625 
L 3713 1100 
L 3047 1100 
L 3047 0 
L 2419 0 
L 2419 1100 
L 313 1100 
L 313 1709 
L 2253 4666 
z
" transform="scale(0.015625)"/>
       </defs>
       <use xlink:href="#DejaVuSans-34"/>
      </g>
     </g>
    </g>
    <g id="ytick_6">
     <g id="line2d_8">
      <g>
       <use xlink:href="#me15f3d38c0" x="55.120313" y="32.196094" style="stroke: #000000; stroke-width: 0.8"/>
      </g>
     </g>
     <g id="text_8">
      <!-- 5 -->
      <g transform="translate(35.395313 39.794531) scale(0.2 -0.2)">
       <defs>
        <path id="DejaVuSans-35" d="M 691 4666 
L 3169 4666 
L 3169 4134 
L 1269 4134 
L 1269 2991 
Q 1406 3038 1543 3061 
Q 1681 3084 1819 3084 
Q 2600 3084 3056 2656 
Q 3513 2228 3513 1497 
Q 3513 744 3044 326 
Q 2575 -91 1722 -91 
Q 1428 -91 1123 -41 
Q 819 9 494 109 
L 494 744 
Q 775 591 1075 516 
Q 1375 441 1709 441 
Q 2250 441 2565 725 
Q 2881 1009 2881 1497 
Q 2881 1984 2565 2268 
Q 2250 2553 1709 2553 
Q 1456 2553 1204 2497 
Q 953 2441 691 2322 
L 691 4666 
z
" transform="scale(0.015625)"/>
       </defs>
       <use xlink:href="#DejaVuSans-35"/>
      </g>
     </g>
    </g>
    <g id="text_9">
     <!-- Ratio -->
     <g transform="translate(26.196094 197.338031) rotate(-90) scale(0.25 -0.25)">
      <defs>
       <path id="DejaVuSans-52" d="M 2841 2188 
Q 3044 2119 3236 1894 
Q 3428 1669 3622 1275 
L 4263 0 
L 3584 0 
L 2988 1197 
Q 2756 1666 2539 1819 
Q 2322 1972 1947 1972 
L 1259 1972 
L 1259 0 
L 628 0 
L 628 4666 
L 2053 4666 
Q 2853 4666 3247 4331 
Q 3641 3997 3641 3322 
Q 3641 2881 3436 2590 
Q 3231 2300 2841 2188 
z
M 1259 4147 
L 1259 2491 
L 2053 2491 
Q 2509 2491 2742 2702 
Q 2975 2913 2975 3322 
Q 2975 3731 2742 3939 
Q 2509 4147 2053 4147 
L 1259 4147 
z
" transform="scale(0.015625)"/>
       <path id="DejaVuSans-69" d="M 603 3500 
L 1178 3500 
L 1178 0 
L 603 0 
L 603 3500 
z
M 603 4863 
L 1178 4863 
L 1178 4134 
L 603 4134 
L 603 4863 
z
" transform="scale(0.015625)"/>
      </defs>
      <use xlink:href="#DejaVuSans-52"/>
      <use xlink:href="#DejaVuSans-61" x="67.232422"/>
      <use xlink:href="#DejaVuSans-74" x="128.511719"/>
      <use xlink:href="#DejaVuSans-69" x="167.720703"/>
      <use xlink:href="#DejaVuSans-6f" x="195.503906"/>
     </g>
    </g>
   </g>
   <g id="patch_3">
    <path d="M 72.976313 199.582573 
L 144.400313 199.582573 
L 144.400313 152.604185 
L 72.976313 152.604185 
L 72.976313 199.582573 
z
" clip-path="url(#p269ce68d80)" style="fill: #ffffff; stroke: #999999; stroke-linejoin: miter"/>
   </g>
   <g id="line2d_9">
    <path d="M 108.688313 199.582573 
L 108.688313 215.036683 
" clip-path="url(#p269ce68d80)" style="fill: none; stroke: #999999"/>
   </g>
   <g id="line2d_10">
    <path d="M 108.688313 152.604185 
L 108.688313 89.876915 
" clip-path="url(#p269ce68d80)" style="fill: none; stroke: #999999"/>
   </g>
   <g id="line2d_11">
    <path d="M 90.832313 215.036683 
L 126.544313 215.036683 
" clip-path="url(#p269ce68d80)" style="fill: none; stroke: #999999; stroke-linecap: square"/>
   </g>
   <g id="line2d_12">
    <path d="M 90.832313 89.876915 
L 126.544313 89.876915 
" clip-path="url(#p269ce68d80)" style="fill: none; stroke: #999999; stroke-linecap: square"/>
   </g>
   <g id="line2d_13"/>
   <g id="patch_4">
    <path d="M 251.536313 167.555838 
L 322.960312 167.555838 
L 322.960312 118.455094 
L 251.536313 118.455094 
L 251.536313 167.555838 
z
" clip-path="url(#p269ce68d80)" style="fill: #ffffff; stroke: #999999; stroke-linejoin: miter"/>
   </g>
   <g id="line2d_14">
    <path d="M 287.248312 167.555838 
L 287.248312 217.799083 
" clip-path="url(#p269ce68d80)" style="fill: none; stroke: #999999"/>
   </g>
   <g id="line2d_15">
    <path d="M 287.248312 118.455094 
L 287.248312 74.013694 
" clip-path="url(#p269ce68d80)" style="fill: none; stroke: #999999"/>
   </g>
   <g id="line2d_16">
    <path d="M 269.392313 217.799083 
L 305.104312 217.799083 
" clip-path="url(#p269ce68d80)" style="fill: none; stroke: #999999; stroke-linecap: square"/>
   </g>
   <g id="line2d_17">
    <path d="M 269.392313 74.013694 
L 305.104312 74.013694 
" clip-path="url(#p269ce68d80)" style="fill: none; stroke: #999999; stroke-linecap: square"/>
   </g>
   <g id="line2d_18"/>
   <g id="patch_5">
    <path d="M 144.400313 228.431065 
L 215.824313 228.431065 
L 215.824313 213.006439 
L 144.400313 213.006439 
L 144.400313 228.431065 
z
" clip-path="url(#p269ce68d80)" style="fill: #ffffff; stroke: #999999; stroke-linejoin: miter"/>
   </g>
   <g id="line2d_19">
    <path d="M 180.112313 228.431065 
L 180.112313 248.444389 
" clip-path="url(#p269ce68d80)" style="fill: none; stroke: #999999"/>
   </g>
   <g id="line2d_20">
    <path d="M 180.112313 213.006439 
L 180.112313 205.916399 
" clip-path="url(#p269ce68d80)" style="fill: none; stroke: #999999"/>
   </g>
   <g id="line2d_21">
    <path d="M 162.256313 248.444389 
L 197.968313 248.444389 
" clip-path="url(#p269ce68d80)" style="fill: none; stroke: #999999; stroke-linecap: square"/>
   </g>
   <g id="line2d_22">
    <path d="M 162.256313 205.916399 
L 197.968313 205.916399 
" clip-path="url(#p269ce68d80)" style="fill: none; stroke: #999999; stroke-linecap: square"/>
   </g>
   <g id="line2d_23">
    <defs>
     <path id="mbf9f25995e" d="M 0 3 
C 0.795609 3 1.55874 2.683901 2.12132 2.12132 
C 2.683901 1.55874 3 0.795609 3 0 
C 3 -0.795609 2.683901 -1.55874 2.12132 -2.12132 
C 1.55874 -2.683901 0.795609 -3 0 -3 
C -0.795609 -3 -1.55874 -2.683901 -2.12132 -2.12132 
C -2.683901 -1.55874 -3 -0.795609 -3 0 
C -3 0.795609 -2.683901 1.55874 -2.12132 2.12132 
C -1.55874 2.683901 -0.795609 3 0 3 
z
" style="stroke: #999999"/>
    </defs>
    <g clip-path="url(#p269ce68d80)">
     <use xlink:href="#mbf9f25995e" x="180.112313" y="185.055777" style="fill-opacity: 0; stroke: #999999"/>
     <use xlink:href="#mbf9f25995e" x="180.112313" y="176.411629" style="fill-opacity: 0; stroke: #999999"/>
     <use xlink:href="#mbf9f25995e" x="180.112313" y="168.103294" style="fill-opacity: 0; stroke: #999999"/>
     <use xlink:href="#mbf9f25995e" x="180.112313" y="169.404196" style="fill-opacity: 0; stroke: #999999"/>
     <use xlink:href="#mbf9f25995e" x="180.112313" y="186.723646" style="fill-opacity: 0; stroke: #999999"/>
    </g>
   </g>
   <g id="patch_6">
    <path d="M 322.960313 170.771454 
L 394.384313 170.771454 
L 394.384313 131.491616 
L 322.960313 131.491616 
L 322.960313 170.771454 
z
" clip-path="url(#p269ce68d80)" style="fill: #ffffff; stroke: #999999; stroke-linejoin: miter"/>
   </g>
   <g id="line2d_24">
    <path d="M 358.672313 170.771454 
L 358.672313 195.931248 
" clip-path="url(#p269ce68d80)" style="fill: none; stroke: #999999"/>
   </g>
   <g id="line2d_25">
    <path d="M 358.672313 131.491616 
L 358.672313 80.694612 
" clip-path="url(#p269ce68d80)" style="fill: none; stroke: #999999"/>
   </g>
   <g id="line2d_26">
    <path d="M 340.816313 195.931248 
L 376.528313 195.931248 
" clip-path="url(#p269ce68d80)" style="fill: none; stroke: #999999; stroke-linecap: square"/>
   </g>
   <g id="line2d_27">
    <path d="M 340.816313 80.694612 
L 376.528313 80.694612 
" clip-path="url(#p269ce68d80)" style="fill: none; stroke: #999999; stroke-linecap: square"/>
   </g>
   <g id="line2d_28">
    <g clip-path="url(#p269ce68d80)">
     <use xlink:href="#mbf9f25995e" x="358.672313" y="67.950629" style="fill-opacity: 0; stroke: #999999"/>
    </g>
   </g>
   <g id="line2d_29">
    <path d="M 72.976313 176.871068 
L 144.400313 176.871068 
" clip-path="url(#p269ce68d80)" style="fill: none; stroke: #999999"/>
   </g>
   <g id="line2d_30">
    <path d="M 251.536313 137.79486 
L 322.960312 137.79486 
" clip-path="url(#p269ce68d80)" style="fill: none; stroke: #999999"/>
   </g>
   <g id="line2d_31">
    <path d="M 144.400313 219.718008 
L 215.824313 219.718008 
" clip-path="url(#p269ce68d80)" style="fill: none; stroke: #999999"/>
   </g>
   <g id="line2d_32">
    <path d="M 322.960313 155.088094 
L 394.384313 155.088094 
" clip-path="url(#p269ce68d80)" style="fill: none; stroke: #999999"/>
   </g>
   <g id="patch_7">
    <path d="M 55.120313 298.308094 
L 55.120313 32.196094 
" style="fill: none; stroke: #000000; stroke-width: 0.8; stroke-linejoin: miter; stroke-linecap: square"/>
   </g>
   <g id="patch_8">
    <path d="M 412.240313 298.308094 
L 412.240313 32.196094 
" style="fill: none; stroke: #000000; stroke-width: 0.8; stroke-linejoin: miter; stroke-linecap: square"/>
   </g>
   <g id="patch_9">
    <path d="M 55.120313 298.308094 
L 412.240313 298.308094 
" style="fill: none; stroke: #000000; stroke-width: 0.8; stroke-linejoin: miter; stroke-linecap: square"/>
   </g>
   <g id="patch_10">
    <path d="M 55.120313 32.196094 
L 412.240313 32.196094 
" style="fill: none; stroke: #000000; stroke-width: 0.8; stroke-linejoin: miter; stroke-linecap: square"/>
   </g>
   <g id="PathCollection_1">
    <defs>
     <path id="C0_0_acf4ca7fd6" d="M 0 5 
C 1.326016 5 2.597899 4.473168 3.535534 3.535534 
C 4.473168 2.597899 5 1.326016 5 -0 
C 5 -1.326016 4.473168 -2.597899 3.535534 -3.535534 
C 2.597899 -4.473168 1.326016 -5 0 -5 
C -1.326016 -5 -2.597899 -4.473168 -3.535534 -3.535534 
C -4.473168 -2.597899 -5 -1.326016 -5 0 
C -5 1.326016 -4.473168 2.597899 -3.535534 3.535534 
C -2.597899 4.473168 -1.326016 5 0 5 
z
"/>
    </defs>
    <g clip-path="url(#p269ce68d80)">
     <use xlink:href="#C0_0_acf4ca7fd6" x="107.454522" y="187.560206" style="fill: #808080; stroke: #000000"/>
    </g>
    <g clip-path="url(#p269ce68d80)">
     <use xlink:href="#C0_0_acf4ca7fd6" x="116.90059" y="215.036683" style="fill: #808080; stroke: #000000"/>
    </g>
    <g clip-path="url(#p269ce68d80)">
     <use xlink:href="#C0_0_acf4ca7fd6" x="108.710426" y="199.902094" style="fill: #808080; stroke: #000000"/>
    </g>
    <g clip-path="url(#p269ce68d80)">
     <use xlink:href="#C0_0_acf4ca7fd6" x="110.660943" y="193.052621" style="fill: #808080; stroke: #000000"/>
    </g>
    <g clip-path="url(#p269ce68d80)">
     <use xlink:href="#C0_0_acf4ca7fd6" x="100.257742" y="211.821694" style="fill: #808080; stroke: #000000"/>
    </g>
    <g clip-path="url(#p269ce68d80)">
     <use xlink:href="#C0_0_acf4ca7fd6" x="108.882687" y="199.582573" style="fill: #808080; stroke: #000000"/>
    </g>
    <g clip-path="url(#p269ce68d80)">
     <use xlink:href="#C0_0_acf4ca7fd6" x="113.798625" y="176.871068" style="fill: #808080; stroke: #000000"/>
    </g>
    <g clip-path="url(#p269ce68d80)">
     <use xlink:href="#C0_0_acf4ca7fd6" x="111.813946" y="152.604185" style="fill: #808080; stroke: #000000"/>
    </g>
    <g clip-path="url(#p269ce68d80)">
     <use xlink:href="#C0_0_acf4ca7fd6" x="116.179399" y="187.181694" style="fill: #808080; stroke: #000000"/>
    </g>
    <g clip-path="url(#p269ce68d80)">
     <use xlink:href="#C0_0_acf4ca7fd6" x="99.800575" y="205.802494" style="fill: #808080; stroke: #000000"/>
    </g>
    <g clip-path="url(#p269ce68d80)">
     <use xlink:href="#C0_0_acf4ca7fd6" x="103.331197" y="213.691836" style="fill: #808080; stroke: #000000"/>
    </g>
    <g clip-path="url(#p269ce68d80)">
     <use xlink:href="#C0_0_acf4ca7fd6" x="108.424885" y="197.617067" style="fill: #808080; stroke: #000000"/>
    </g>
    <g clip-path="url(#p269ce68d80)">
     <use xlink:href="#C0_0_acf4ca7fd6" x="105.090721" y="214.872104" style="fill: #808080; stroke: #000000"/>
    </g>
    <g clip-path="url(#p269ce68d80)">
     <use xlink:href="#C0_0_acf4ca7fd6" x="102.770562" y="160.231113" style="fill: #808080; stroke: #000000"/>
    </g>
    <g clip-path="url(#p269ce68d80)">
     <use xlink:href="#C0_0_acf4ca7fd6" x="113.14786" y="89.876915" style="fill: #808080; stroke: #000000"/>
    </g>
    <g clip-path="url(#p269ce68d80)">
     <use xlink:href="#C0_0_acf4ca7fd6" x="113.067839" y="140.476149" style="fill: #808080; stroke: #000000"/>
    </g>
    <g clip-path="url(#p269ce68d80)">
     <use xlink:href="#C0_0_acf4ca7fd6" x="108.764444" y="157.820137" style="fill: #808080; stroke: #000000"/>
    </g>
    <g clip-path="url(#p269ce68d80)">
     <use xlink:href="#C0_0_acf4ca7fd6" x="106.614659" y="160.844104" style="fill: #808080; stroke: #000000"/>
    </g>
    <g clip-path="url(#p269ce68d80)">
     <use xlink:href="#C0_0_acf4ca7fd6" x="112.364491" y="150.748359" style="fill: #808080; stroke: #000000"/>
    </g>
    <g clip-path="url(#p269ce68d80)">
     <use xlink:href="#C0_0_acf4ca7fd6" x="112.978633" y="146.857685" style="fill: #808080; stroke: #000000"/>
    </g>
    <g clip-path="url(#p269ce68d80)">
     <use xlink:href="#C0_0_acf4ca7fd6" x="115.460137" y="176.109463" style="fill: #808080; stroke: #000000"/>
    </g>
    <g clip-path="url(#p269ce68d80)">
     <use xlink:href="#C0_0_acf4ca7fd6" x="108.839395" y="125.581044" style="fill: #808080; stroke: #000000"/>
    </g>
    <g clip-path="url(#p269ce68d80)">
     <use xlink:href="#C0_0_acf4ca7fd6" x="105.864551" y="115.100217" style="fill: #808080; stroke: #000000"/>
    </g>
    <g clip-path="url(#p269ce68d80)">
     <use xlink:href="#C0_0_acf4ca7fd6" x="108.779846" y="149.482494" style="fill: #808080; stroke: #000000"/>
    </g>
    <g clip-path="url(#p269ce68d80)">
     <use xlink:href="#C0_0_acf4ca7fd6" x="101.750815" y="172.961881" style="fill: #808080; stroke: #000000"/>
    </g>
    <g clip-path="url(#p269ce68d80)">
     <use xlink:href="#C0_0_acf4ca7fd6" x="103.257687" y="194.917038" style="fill: #808080; stroke: #000000"/>
    </g>
    <g clip-path="url(#p269ce68d80)">
     <use xlink:href="#C0_0_acf4ca7fd6" x="105.72465" y="190.209323" style="fill: #808080; stroke: #000000"/>
    </g>
    <g clip-path="url(#p269ce68d80)">
     <use xlink:href="#C0_0_acf4ca7fd6" x="103.387699" y="152.655076" style="fill: #808080; stroke: #000000"/>
    </g>
    <g clip-path="url(#p269ce68d80)">
     <use xlink:href="#C0_0_acf4ca7fd6" x="105.413877" y="214.872104" style="fill: #808080; stroke: #000000"/>
    </g>
   </g>
   <g id="PathCollection_2">
    <defs>
     <path id="C1_0_839c87418a" d="M 0 5 
C 1.326016 5 2.597899 4.473168 3.535534 3.535534 
C 4.473168 2.597899 5 1.326016 5 -0 
C 5 -1.326016 4.473168 -2.597899 3.535534 -3.535534 
C 2.597899 -4.473168 1.326016 -5 0 -5 
C -1.326016 -5 -2.597899 -4.473168 -3.535534 -3.535534 
C -4.473168 -2.597899 -5 -1.326016 -5 0 
C -5 1.326016 -4.473168 2.597899 -3.535534 3.535534 
C -2.597899 4.473168 -1.326016 5 0 5 
z
"/>
    </defs>
    <g clip-path="url(#p269ce68d80)">
     <use xlink:href="#C1_0_839c87418a" x="188.057022" y="185.055777" style="fill: #3386ff; stroke: #000000"/>
    </g>
    <g clip-path="url(#p269ce68d80)">
     <use xlink:href="#C1_0_839c87418a" x="180.975359" y="224.650089" style="fill: #3386ff; stroke: #000000"/>
    </g>
    <g clip-path="url(#p269ce68d80)">
     <use xlink:href="#C1_0_839c87418a" x="187.738008" y="218.474494" style="fill: #3386ff; stroke: #000000"/>
    </g>
    <g clip-path="url(#p269ce68d80)">
     <use xlink:href="#C1_0_839c87418a" x="184.358267" y="205.916399" style="fill: #3386ff; stroke: #000000"/>
    </g>
    <g clip-path="url(#p269ce68d80)">
     <use xlink:href="#C1_0_839c87418a" x="178.296316" y="228.431065" style="fill: #3386ff; stroke: #000000"/>
    </g>
    <g clip-path="url(#p269ce68d80)">
     <use xlink:href="#C1_0_839c87418a" x="184.930027" y="245.548497" style="fill: #3386ff; stroke: #000000"/>
    </g>
    <g clip-path="url(#p269ce68d80)">
     <use xlink:href="#C1_0_839c87418a" x="177.398695" y="176.411629" style="fill: #3386ff; stroke: #000000"/>
    </g>
    <g clip-path="url(#p269ce68d80)">
     <use xlink:href="#C1_0_839c87418a" x="172.296992" y="215.926613" style="fill: #3386ff; stroke: #000000"/>
    </g>
    <g clip-path="url(#p269ce68d80)">
     <use xlink:href="#C1_0_839c87418a" x="186.680561" y="215.132622" style="fill: #3386ff; stroke: #000000"/>
    </g>
    <g clip-path="url(#p269ce68d80)">
     <use xlink:href="#C1_0_839c87418a" x="184.809992" y="168.103294" style="fill: #3386ff; stroke: #000000"/>
    </g>
    <g clip-path="url(#p269ce68d80)">
     <use xlink:href="#C1_0_839c87418a" x="178.447666" y="224.388094" style="fill: #3386ff; stroke: #000000"/>
    </g>
    <g clip-path="url(#p269ce68d80)">
     <use xlink:href="#C1_0_839c87418a" x="177.03701" y="206.575177" style="fill: #3386ff; stroke: #000000"/>
    </g>
    <g clip-path="url(#p269ce68d80)">
     <use xlink:href="#C1_0_839c87418a" x="187.807269" y="223.402494" style="fill: #3386ff; stroke: #000000"/>
    </g>
    <g clip-path="url(#p269ce68d80)">
     <use xlink:href="#C1_0_839c87418a" x="176.49834" y="215.442838" style="fill: #3386ff; stroke: #000000"/>
    </g>
    <g clip-path="url(#p269ce68d80)">
     <use xlink:href="#C1_0_839c87418a" x="175.411558" y="228.197817" style="fill: #3386ff; stroke: #000000"/>
    </g>
    <g clip-path="url(#p269ce68d80)">
     <use xlink:href="#C1_0_839c87418a" x="187.469006" y="229.879294" style="fill: #3386ff; stroke: #000000"/>
    </g>
    <g clip-path="url(#p269ce68d80)">
     <use xlink:href="#C1_0_839c87418a" x="171.525634" y="231.568894" style="fill: #3386ff; stroke: #000000"/>
    </g>
    <g clip-path="url(#p269ce68d80)">
     <use xlink:href="#C1_0_839c87418a" x="176.597034" y="207.772163" style="fill: #3386ff; stroke: #000000"/>
    </g>
    <g clip-path="url(#p269ce68d80)">
     <use xlink:href="#C1_0_839c87418a" x="185.796448" y="233.19242" style="fill: #3386ff; stroke: #000000"/>
    </g>
    <g clip-path="url(#p269ce68d80)">
     <use xlink:href="#C1_0_839c87418a" x="187.508733" y="213.006439" style="fill: #3386ff; stroke: #000000"/>
    </g>
    <g clip-path="url(#p269ce68d80)">
     <use xlink:href="#C1_0_839c87418a" x="181.481511" y="214.765054" style="fill: #3386ff; stroke: #000000"/>
    </g>
    <g clip-path="url(#p269ce68d80)">
     <use xlink:href="#C1_0_839c87418a" x="185.686587" y="248.444389" style="fill: #3386ff; stroke: #000000"/>
    </g>
    <g clip-path="url(#p269ce68d80)">
     <use xlink:href="#C1_0_839c87418a" x="181.13858" y="229.05074" style="fill: #3386ff; stroke: #000000"/>
    </g>
    <g clip-path="url(#p269ce68d80)">
     <use xlink:href="#C1_0_839c87418a" x="179.810208" y="235.125946" style="fill: #3386ff; stroke: #000000"/>
    </g>
    <g clip-path="url(#p269ce68d80)">
     <use xlink:href="#C1_0_839c87418a" x="184.302547" y="228.556998" style="fill: #3386ff; stroke: #000000"/>
    </g>
    <g clip-path="url(#p269ce68d80)">
     <use xlink:href="#C1_0_839c87418a" x="187.725387" y="169.404196" style="fill: #3386ff; stroke: #000000"/>
    </g>
    <g clip-path="url(#p269ce68d80)">
     <use xlink:href="#C1_0_839c87418a" x="178.761199" y="211.62758" style="fill: #3386ff; stroke: #000000"/>
    </g>
    <g clip-path="url(#p269ce68d80)">
     <use xlink:href="#C1_0_839c87418a" x="187.676944" y="216.170638" style="fill: #3386ff; stroke: #000000"/>
    </g>
    <g clip-path="url(#p269ce68d80)">
     <use xlink:href="#C1_0_839c87418a" x="177.373232" y="186.723646" style="fill: #3386ff; stroke: #000000"/>
    </g>
    <g clip-path="url(#p269ce68d80)">
     <use xlink:href="#C1_0_839c87418a" x="180.512879" y="215.517694" style="fill: #3386ff; stroke: #000000"/>
    </g>
    <g clip-path="url(#p269ce68d80)">
     <use xlink:href="#C1_0_839c87418a" x="177.447662" y="224.111349" style="fill: #3386ff; stroke: #000000"/>
    </g>
    <g clip-path="url(#p269ce68d80)">
     <use xlink:href="#C1_0_839c87418a" x="185.745733" y="219.718008" style="fill: #3386ff; stroke: #000000"/>
    </g>
    <g clip-path="url(#p269ce68d80)">
     <use xlink:href="#C1_0_839c87418a" x="188.180354" y="226.461341" style="fill: #3386ff; stroke: #000000"/>
    </g>
    <g clip-path="url(#p269ce68d80)">
     <use xlink:href="#C1_0_839c87418a" x="186.402009" y="226.01177" style="fill: #3386ff; stroke: #000000"/>
    </g>
    <g clip-path="url(#p269ce68d80)">
     <use xlink:href="#C1_0_839c87418a" x="179.207942" y="223.543294" style="fill: #3386ff; stroke: #000000"/>
    </g>
    <g clip-path="url(#p269ce68d80)">
     <use xlink:href="#C1_0_839c87418a" x="177.44066" y="237.805271" style="fill: #3386ff; stroke: #000000"/>
    </g>
    <g clip-path="url(#p269ce68d80)">
     <use xlink:href="#C1_0_839c87418a" x="173.401864" y="218.347167" style="fill: #3386ff; stroke: #000000"/>
    </g>
   </g>
   <g id="PathCollection_3">
    <defs>
     <path id="C2_0_67cdd11ad1" d="M 0 5 
C 1.326016 5 2.597899 4.473168 3.535534 3.535534 
C 4.473168 2.597899 5 1.326016 5 -0 
C 5 -1.326016 4.473168 -2.597899 3.535534 -3.535534 
C 2.597899 -4.473168 1.326016 -5 0 -5 
C -1.326016 -5 -2.597899 -4.473168 -3.535534 -3.535534 
C -4.473168 -2.597899 -5 -1.326016 -5 0 
C -5 1.326016 -4.473168 2.597899 -3.535534 3.535534 
C -2.597899 4.473168 -1.326016 5 0 5 
z
"/>
    </defs>
    <g clip-path="url(#p269ce68d80)">
     <use xlink:href="#C2_0_67cdd11ad1" x="295.963994" y="166.817458" style="fill: #808080; stroke: #000000"/>
    </g>
    <g clip-path="url(#p269ce68d80)">
     <use xlink:href="#C2_0_67cdd11ad1" x="294.419178" y="217.799083" style="fill: #808080; stroke: #000000"/>
    </g>
    <g clip-path="url(#p269ce68d80)">
     <use xlink:href="#C2_0_67cdd11ad1" x="280.184286" y="176.851848" style="fill: #808080; stroke: #000000"/>
    </g>
    <g clip-path="url(#p269ce68d80)">
     <use xlink:href="#C2_0_67cdd11ad1" x="285.728724" y="125.248329" style="fill: #808080; stroke: #000000"/>
    </g>
    <g clip-path="url(#p269ce68d80)">
     <use xlink:href="#C2_0_67cdd11ad1" x="294.264935" y="154.489342" style="fill: #808080; stroke: #000000"/>
    </g>
    <g clip-path="url(#p269ce68d80)">
     <use xlink:href="#C2_0_67cdd11ad1" x="280.507201" y="169.770977" style="fill: #808080; stroke: #000000"/>
    </g>
    <g clip-path="url(#p269ce68d80)">
     <use xlink:href="#C2_0_67cdd11ad1" x="284.374324" y="151.946494" style="fill: #808080; stroke: #000000"/>
    </g>
    <g clip-path="url(#p269ce68d80)">
     <use xlink:href="#C2_0_67cdd11ad1" x="291.487153" y="131.963545" style="fill: #808080; stroke: #000000"/>
    </g>
    <g clip-path="url(#p269ce68d80)">
     <use xlink:href="#C2_0_67cdd11ad1" x="286.555687" y="158.147746" style="fill: #808080; stroke: #000000"/>
    </g>
    <g clip-path="url(#p269ce68d80)">
     <use xlink:href="#C2_0_67cdd11ad1" x="282.329323" y="170.878462" style="fill: #808080; stroke: #000000"/>
    </g>
    <g clip-path="url(#p269ce68d80)">
     <use xlink:href="#C2_0_67cdd11ad1" x="287.729405" y="209.89733" style="fill: #808080; stroke: #000000"/>
    </g>
    <g clip-path="url(#p269ce68d80)">
     <use xlink:href="#C2_0_67cdd11ad1" x="288.346223" y="179.492682" style="fill: #808080; stroke: #000000"/>
    </g>
    <g clip-path="url(#p269ce68d80)">
     <use xlink:href="#C2_0_67cdd11ad1" x="283.43176" y="183.239294" style="fill: #808080; stroke: #000000"/>
    </g>
    <g clip-path="url(#p269ce68d80)">
     <use xlink:href="#C2_0_67cdd11ad1" x="282.537437" y="132.672026" style="fill: #808080; stroke: #000000"/>
    </g>
    <g clip-path="url(#p269ce68d80)">
     <use xlink:href="#C2_0_67cdd11ad1" x="288.69357" y="74.013694" style="fill: #808080; stroke: #000000"/>
    </g>
    <g clip-path="url(#p269ce68d80)">
     <use xlink:href="#C2_0_67cdd11ad1" x="281.12413" y="101.385214" style="fill: #808080; stroke: #000000"/>
    </g>
    <g clip-path="url(#p269ce68d80)">
     <use xlink:href="#C2_0_67cdd11ad1" x="295.57882" y="110.437571" style="fill: #808080; stroke: #000000"/>
    </g>
    <g clip-path="url(#p269ce68d80)">
     <use xlink:href="#C2_0_67cdd11ad1" x="289.893992" y="117.814737" style="fill: #808080; stroke: #000000"/>
    </g>
    <g clip-path="url(#p269ce68d80)">
     <use xlink:href="#C2_0_67cdd11ad1" x="287.009111" y="98.846163" style="fill: #808080; stroke: #000000"/>
    </g>
    <g clip-path="url(#p269ce68d80)">
     <use xlink:href="#C2_0_67cdd11ad1" x="293.388469" y="120.737334" style="fill: #808080; stroke: #000000"/>
    </g>
    <g clip-path="url(#p269ce68d80)">
     <use xlink:href="#C2_0_67cdd11ad1" x="284.846814" y="149.60689" style="fill: #808080; stroke: #000000"/>
    </g>
    <g clip-path="url(#p269ce68d80)">
     <use xlink:href="#C2_0_67cdd11ad1" x="281.392487" y="104.709012" style="fill: #808080; stroke: #000000"/>
    </g>
    <g clip-path="url(#p269ce68d80)">
     <use xlink:href="#C2_0_67cdd11ad1" x="280.958226" y="96.243389" style="fill: #808080; stroke: #000000"/>
    </g>
    <g clip-path="url(#p269ce68d80)">
     <use xlink:href="#C2_0_67cdd11ad1" x="281.703351" y="118.668547" style="fill: #808080; stroke: #000000"/>
    </g>
    <g clip-path="url(#p269ce68d80)">
     <use xlink:href="#C2_0_67cdd11ad1" x="281.454723" y="142.917694" style="fill: #808080; stroke: #000000"/>
    </g>
    <g clip-path="url(#p269ce68d80)">
     <use xlink:href="#C2_0_67cdd11ad1" x="281.577907" y="125.539995" style="fill: #808080; stroke: #000000"/>
    </g>
    <g clip-path="url(#p269ce68d80)">
     <use xlink:href="#C2_0_67cdd11ad1" x="288.056059" y="126.426823" style="fill: #808080; stroke: #000000"/>
    </g>
    <g clip-path="url(#p269ce68d80)">
     <use xlink:href="#C2_0_67cdd11ad1" x="287.456041" y="159.196229" style="fill: #808080; stroke: #000000"/>
    </g>
   </g>
   <g id="PathCollection_4">
    <defs>
     <path id="C3_0_80c242ca1e" d="M 0 5 
C 1.326016 5 2.597899 4.473168 3.535534 3.535534 
C 4.473168 2.597899 5 1.326016 5 -0 
C 5 -1.326016 4.473168 -2.597899 3.535534 -3.535534 
C 2.597899 -4.473168 1.326016 -5 0 -5 
C -1.326016 -5 -2.597899 -4.473168 -3.535534 -3.535534 
C -4.473168 -2.597899 -5 -1.326016 -5 0 
C -5 1.326016 -4.473168 2.597899 -3.535534 3.535534 
C -2.597899 4.473168 -1.326016 5 0 5 
z
"/>
    </defs>
    <g clip-path="url(#p269ce68d80)">
     <use xlink:href="#C3_0_80c242ca1e" x="354.566838" y="85.135396" style="fill: #3386ff; stroke: #000000"/>
    </g>
    <g clip-path="url(#p269ce68d80)">
     <use xlink:href="#C3_0_80c242ca1e" x="367.300478" y="118.347461" style="fill: #3386ff; stroke: #000000"/>
    </g>
    <g clip-path="url(#p269ce68d80)">
     <use xlink:href="#C3_0_80c242ca1e" x="357.90903" y="112.43494" style="fill: #3386ff; stroke: #000000"/>
    </g>
    <g clip-path="url(#p269ce68d80)">
     <use xlink:href="#C3_0_80c242ca1e" x="351.463715" y="133.864525" style="fill: #3386ff; stroke: #000000"/>
    </g>
    <g clip-path="url(#p269ce68d80)">
     <use xlink:href="#C3_0_80c242ca1e" x="361.774168" y="162.05875" style="fill: #3386ff; stroke: #000000"/>
    </g>
    <g clip-path="url(#p269ce68d80)">
     <use xlink:href="#C3_0_80c242ca1e" x="353.978787" y="139.612992" style="fill: #3386ff; stroke: #000000"/>
    </g>
    <g clip-path="url(#p269ce68d80)">
     <use xlink:href="#C3_0_80c242ca1e" x="358.044183" y="164.563873" style="fill: #3386ff; stroke: #000000"/>
    </g>
    <g clip-path="url(#p269ce68d80)">
     <use xlink:href="#C3_0_80c242ca1e" x="354.188244" y="102.21197" style="fill: #3386ff; stroke: #000000"/>
    </g>
    <g clip-path="url(#p269ce68d80)">
     <use xlink:href="#C3_0_80c242ca1e" x="359.147592" y="106.757664" style="fill: #3386ff; stroke: #000000"/>
    </g>
    <g clip-path="url(#p269ce68d80)">
     <use xlink:href="#C3_0_80c242ca1e" x="356.922875" y="124.943953" style="fill: #3386ff; stroke: #000000"/>
    </g>
    <g clip-path="url(#p269ce68d80)">
     <use xlink:href="#C3_0_80c242ca1e" x="357.161862" y="168.423377" style="fill: #3386ff; stroke: #000000"/>
    </g>
    <g clip-path="url(#p269ce68d80)">
     <use xlink:href="#C3_0_80c242ca1e" x="363.119624" y="170.061347" style="fill: #3386ff; stroke: #000000"/>
    </g>
    <g clip-path="url(#p269ce68d80)">
     <use xlink:href="#C3_0_80c242ca1e" x="360.889635" y="145.953895" style="fill: #3386ff; stroke: #000000"/>
    </g>
    <g clip-path="url(#p269ce68d80)">
     <use xlink:href="#C3_0_80c242ca1e" x="354.774727" y="185.100226" style="fill: #3386ff; stroke: #000000"/>
    </g>
    <g clip-path="url(#p269ce68d80)">
     <use xlink:href="#C3_0_80c242ca1e" x="350.778475" y="154.053715" style="fill: #3386ff; stroke: #000000"/>
    </g>
    <g clip-path="url(#p269ce68d80)">
     <use xlink:href="#C3_0_80c242ca1e" x="353.422887" y="157.880916" style="fill: #3386ff; stroke: #000000"/>
    </g>
    <g clip-path="url(#p269ce68d80)">
     <use xlink:href="#C3_0_80c242ca1e" x="351.740512" y="80.694612" style="fill: #3386ff; stroke: #000000"/>
    </g>
    <g clip-path="url(#p269ce68d80)">
     <use xlink:href="#C3_0_80c242ca1e" x="366.852743" y="67.950629" style="fill: #3386ff; stroke: #000000"/>
    </g>
    <g clip-path="url(#p269ce68d80)">
     <use xlink:href="#C3_0_80c242ca1e" x="366.477377" y="170.508627" style="fill: #3386ff; stroke: #000000"/>
    </g>
    <g clip-path="url(#p269ce68d80)">
     <use xlink:href="#C3_0_80c242ca1e" x="355.329205" y="177.69618" style="fill: #3386ff; stroke: #000000"/>
    </g>
    <g clip-path="url(#p269ce68d80)">
     <use xlink:href="#C3_0_80c242ca1e" x="354.757432" y="167.323624" style="fill: #3386ff; stroke: #000000"/>
    </g>
    <g clip-path="url(#p269ce68d80)">
     <use xlink:href="#C3_0_80c242ca1e" x="363.528938" y="163.898982" style="fill: #3386ff; stroke: #000000"/>
    </g>
    <g clip-path="url(#p269ce68d80)">
     <use xlink:href="#C3_0_80c242ca1e" x="366.871091" y="190.462704" style="fill: #3386ff; stroke: #000000"/>
    </g>
    <g clip-path="url(#p269ce68d80)">
     <use xlink:href="#C3_0_80c242ca1e" x="364.124802" y="146.131454" style="fill: #3386ff; stroke: #000000"/>
    </g>
    <g clip-path="url(#p269ce68d80)">
     <use xlink:href="#C3_0_80c242ca1e" x="362.258959" y="195.931248" style="fill: #3386ff; stroke: #000000"/>
    </g>
    <g clip-path="url(#p269ce68d80)">
     <use xlink:href="#C3_0_80c242ca1e" x="363.744035" y="127.736304" style="fill: #3386ff; stroke: #000000"/>
    </g>
    <g clip-path="url(#p269ce68d80)">
     <use xlink:href="#C3_0_80c242ca1e" x="362.008903" y="170.771454" style="fill: #3386ff; stroke: #000000"/>
    </g>
    <g clip-path="url(#p269ce68d80)">
     <use xlink:href="#C3_0_80c242ca1e" x="357.639973" y="131.491616" style="fill: #3386ff; stroke: #000000"/>
    </g>
    <g clip-path="url(#p269ce68d80)">
     <use xlink:href="#C3_0_80c242ca1e" x="366.142501" y="183.857382" style="fill: #3386ff; stroke: #000000"/>
    </g>
    <g clip-path="url(#p269ce68d80)">
     <use xlink:href="#C3_0_80c242ca1e" x="362.940101" y="155.088094" style="fill: #3386ff; stroke: #000000"/>
    </g>
    <g clip-path="url(#p269ce68d80)">
     <use xlink:href="#C3_0_80c242ca1e" x="364.675146" y="178.170152" style="fill: #3386ff; stroke: #000000"/>
    </g>
    <g clip-path="url(#p269ce68d80)">
     <use xlink:href="#C3_0_80c242ca1e" x="353.502228" y="179.216387" style="fill: #3386ff; stroke: #000000"/>
    </g>
    <g clip-path="url(#p269ce68d80)">
     <use xlink:href="#C3_0_80c242ca1e" x="362.523926" y="185.251816" style="fill: #3386ff; stroke: #000000"/>
    </g>
    <g clip-path="url(#p269ce68d80)">
     <use xlink:href="#C3_0_80c242ca1e" x="351.526987" y="141.597694" style="fill: #3386ff; stroke: #000000"/>
    </g>
    <g clip-path="url(#p269ce68d80)">
     <use xlink:href="#C3_0_80c242ca1e" x="363.294775" y="150.437611" style="fill: #3386ff; stroke: #000000"/>
    </g>
    <g clip-path="url(#p269ce68d80)">
     <use xlink:href="#C3_0_80c242ca1e" x="362.654453" y="152.970001" style="fill: #3386ff; stroke: #000000"/>
    </g>
    <g clip-path="url(#p269ce68d80)">
     <use xlink:href="#C3_0_80c242ca1e" x="360.824884" y="172.855294" style="fill: #3386ff; stroke: #000000"/>
    </g>
   </g>
   <g id="line2d_33"/>
   <g id="line2d_34"/>
   <g id="text_10">
    <!-- p-val = 3.4e-08 -->
    <g transform="translate(141.290438 114.880894) scale(0.1 -0.1)">
     <defs>
      <path id="DejaVuSans-2d" d="M 313 2009 
L 1997 2009 
L 1997 1497 
L 313 1497 
L 313 2009 
z
" transform="scale(0.015625)"/>
      <path id="DejaVuSans-76" d="M 191 3500 
L 800 3500 
L 1894 563 
L 2988 3500 
L 3597 3500 
L 2284 0 
L 1503 0 
L 191 3500 
z
" transform="scale(0.015625)"/>
      <path id="DejaVuSans-6c" d="M 603 4863 
L 1178 4863 
L 1178 0 
L 603 0 
L 603 4863 
z
" transform="scale(0.015625)"/>
      <path id="DejaVuSans-20" transform="scale(0.015625)"/>
      <path id="DejaVuSans-3d" d="M 678 2906 
L 4684 2906 
L 4684 2381 
L 678 2381 
L 678 2906 
z
M 678 1631 
L 4684 1631 
L 4684 1100 
L 678 1100 
L 678 1631 
z
" transform="scale(0.015625)"/>
      <path id="DejaVuSans-2e" d="M 684 794 
L 1344 794 
L 1344 0 
L 684 0 
L 684 794 
z
" transform="scale(0.015625)"/>
      <path id="DejaVuSans-38" d="M 2034 2216 
Q 1584 2216 1326 1975 
Q 1069 1734 1069 1313 
Q 1069 891 1326 650 
Q 1584 409 2034 409 
Q 2484 409 2743 651 
Q 3003 894 3003 1313 
Q 3003 1734 2745 1975 
Q 2488 2216 2034 2216 
z
M 1403 2484 
Q 997 2584 770 2862 
Q 544 3141 544 3541 
Q 544 4100 942 4425 
Q 1341 4750 2034 4750 
Q 2731 4750 3128 4425 
Q 3525 4100 3525 3541 
Q 3525 3141 3298 2862 
Q 3072 2584 2669 2484 
Q 3125 2378 3379 2068 
Q 3634 1759 3634 1313 
Q 3634 634 3220 271 
Q 2806 -91 2034 -91 
Q 1263 -91 848 271 
Q 434 634 434 1313 
Q 434 1759 690 2068 
Q 947 2378 1403 2484 
z
M 1172 3481 
Q 1172 3119 1398 2916 
Q 1625 2713 2034 2713 
Q 2441 2713 2670 2916 
Q 2900 3119 2900 3481 
Q 2900 3844 2670 4047 
Q 2441 4250 2034 4250 
Q 1625 4250 1398 4047 
Q 1172 3844 1172 3481 
z
" transform="scale(0.015625)"/>
     </defs>
     <use xlink:href="#DejaVuSans-70"/>
     <use xlink:href="#DejaVuSans-2d" x="63.476562"/>
     <use xlink:href="#DejaVuSans-76" x="96.935547"/>
     <use xlink:href="#DejaVuSans-61" x="156.115234"/>
     <use xlink:href="#DejaVuSans-6c" x="217.394531"/>
     <use xlink:href="#DejaVuSans-20" x="245.177734"/>
     <use xlink:href="#DejaVuSans-3d" x="276.964844"/>
     <use xlink:href="#DejaVuSans-20" x="360.753906"/>
     <use xlink:href="#DejaVuSans-33" x="392.541016"/>
     <use xlink:href="#DejaVuSans-2e" x="456.164062"/>
     <use xlink:href="#DejaVuSans-34" x="487.951172"/>
     <use xlink:href="#DejaVuSans-65" x="551.574219"/>
     <use xlink:href="#DejaVuSans-2d" x="613.097656"/>
     <use xlink:href="#DejaVuSans-30" x="649.181641"/>
     <use xlink:href="#DejaVuSans-38" x="712.804688"/>
    </g>
   </g>
   <g id="text_11">
    <!-- p-val = 0.395 -->
    <g transform="translate(324.730906 57.306149) scale(0.1 -0.1)">
     <defs>
      <path id="DejaVuSans-39" d="M 703 97 
L 703 672 
Q 941 559 1184 500 
Q 1428 441 1663 441 
Q 2288 441 2617 861 
Q 2947 1281 2994 2138 
Q 2813 1869 2534 1725 
Q 2256 1581 1919 1581 
Q 1219 1581 811 2004 
Q 403 2428 403 3163 
Q 403 3881 828 4315 
Q 1253 4750 1959 4750 
Q 2769 4750 3195 4129 
Q 3622 3509 3622 2328 
Q 3622 1225 3098 567 
Q 2575 -91 1691 -91 
Q 1453 -91 1209 -44 
Q 966 3 703 97 
z
M 1959 2075 
Q 2384 2075 2632 2365 
Q 2881 2656 2881 3163 
Q 2881 3666 2632 3958 
Q 2384 4250 1959 4250 
Q 1534 4250 1286 3958 
Q 1038 3666 1038 3163 
Q 1038 2656 1286 2365 
Q 1534 2075 1959 2075 
z
" transform="scale(0.015625)"/>
     </defs>
     <use xlink:href="#DejaVuSans-70"/>
     <use xlink:href="#DejaVuSans-2d" x="63.476562"/>
     <use xlink:href="#DejaVuSans-76" x="96.935547"/>
     <use xlink:href="#DejaVuSans-61" x="156.115234"/>
     <use xlink:href="#DejaVuSans-6c" x="217.394531"/>
     <use xlink:href="#DejaVuSans-20" x="245.177734"/>
     <use xlink:href="#DejaVuSans-3d" x="276.964844"/>
     <use xlink:href="#DejaVuSans-20" x="360.753906"/>
     <use xlink:href="#DejaVuSans-30" x="392.541016"/>
     <use xlink:href="#DejaVuSans-2e" x="456.164062"/>
     <use xlink:href="#DejaVuSans-33" x="487.951172"/>
     <use xlink:href="#DejaVuSans-39" x="551.574219"/>
     <use xlink:href="#DejaVuSans-35" x="615.197266"/>
    </g>
   </g>
   <g id="text_12">
    <!-- AC/Cytoplasm Ratio -->
    <g transform="translate(94.988906 26.196094) scale(0.25 -0.25)">
     <defs>
      <path id="DejaVuSans-Bold-41" d="M 3419 850 
L 1538 850 
L 1241 0 
L 31 0 
L 1759 4666 
L 3194 4666 
L 4922 0 
L 3713 0 
L 3419 850 
z
M 1838 1716 
L 3116 1716 
L 2478 3572 
L 1838 1716 
z
" transform="scale(0.015625)"/>
      <path id="DejaVuSans-Bold-43" d="M 4288 256 
Q 3956 84 3597 -3 
Q 3238 -91 2847 -91 
Q 1681 -91 1000 561 
Q 319 1213 319 2328 
Q 319 3447 1000 4098 
Q 1681 4750 2847 4750 
Q 3238 4750 3597 4662 
Q 3956 4575 4288 4403 
L 4288 3438 
Q 3953 3666 3628 3772 
Q 3303 3878 2944 3878 
Q 2300 3878 1931 3465 
Q 1563 3053 1563 2328 
Q 1563 1606 1931 1193 
Q 2300 781 2944 781 
Q 3303 781 3628 887 
Q 3953 994 4288 1222 
L 4288 256 
z
" transform="scale(0.015625)"/>
      <path id="DejaVuSans-Bold-2f" d="M 1644 4666 
L 2338 4666 
L 691 -594 
L 0 -594 
L 1644 4666 
z
" transform="scale(0.015625)"/>
      <path id="DejaVuSans-Bold-79" d="M 78 3500 
L 1197 3500 
L 2138 1125 
L 2938 3500 
L 4056 3500 
L 2584 -331 
Q 2363 -916 2067 -1148 
Q 1772 -1381 1288 -1381 
L 641 -1381 
L 641 -647 
L 991 -647 
Q 1275 -647 1404 -556 
Q 1534 -466 1606 -231 
L 1638 -134 
L 78 3500 
z
" transform="scale(0.015625)"/>
      <path id="DejaVuSans-Bold-74" d="M 1759 4494 
L 1759 3500 
L 2913 3500 
L 2913 2700 
L 1759 2700 
L 1759 1216 
Q 1759 972 1856 886 
Q 1953 800 2241 800 
L 2816 800 
L 2816 0 
L 1856 0 
Q 1194 0 917 276 
Q 641 553 641 1216 
L 641 2700 
L 84 2700 
L 84 3500 
L 641 3500 
L 641 4494 
L 1759 4494 
z
" transform="scale(0.015625)"/>
      <path id="DejaVuSans-Bold-6f" d="M 2203 2784 
Q 1831 2784 1636 2517 
Q 1441 2250 1441 1747 
Q 1441 1244 1636 976 
Q 1831 709 2203 709 
Q 2569 709 2762 976 
Q 2956 1244 2956 1747 
Q 2956 2250 2762 2517 
Q 2569 2784 2203 2784 
z
M 2203 3584 
Q 3106 3584 3614 3096 
Q 4122 2609 4122 1747 
Q 4122 884 3614 396 
Q 3106 -91 2203 -91 
Q 1297 -91 786 396 
Q 275 884 275 1747 
Q 275 2609 786 3096 
Q 1297 3584 2203 3584 
z
" transform="scale(0.015625)"/>
      <path id="DejaVuSans-Bold-70" d="M 1656 506 
L 1656 -1331 
L 538 -1331 
L 538 3500 
L 1656 3500 
L 1656 2988 
Q 1888 3294 2169 3439 
Q 2450 3584 2816 3584 
Q 3463 3584 3878 3070 
Q 4294 2556 4294 1747 
Q 4294 938 3878 423 
Q 3463 -91 2816 -91 
Q 2450 -91 2169 54 
Q 1888 200 1656 506 
z
M 2400 2772 
Q 2041 2772 1848 2508 
Q 1656 2244 1656 1747 
Q 1656 1250 1848 986 
Q 2041 722 2400 722 
Q 2759 722 2948 984 
Q 3138 1247 3138 1747 
Q 3138 2247 2948 2509 
Q 2759 2772 2400 2772 
z
" transform="scale(0.015625)"/>
      <path id="DejaVuSans-Bold-6c" d="M 538 4863 
L 1656 4863 
L 1656 0 
L 538 0 
L 538 4863 
z
" transform="scale(0.015625)"/>
      <path id="DejaVuSans-Bold-61" d="M 2106 1575 
Q 1756 1575 1579 1456 
Q 1403 1338 1403 1106 
Q 1403 894 1545 773 
Q 1688 653 1941 653 
Q 2256 653 2472 879 
Q 2688 1106 2688 1447 
L 2688 1575 
L 2106 1575 
z
M 3816 1997 
L 3816 0 
L 2688 0 
L 2688 519 
Q 2463 200 2181 54 
Q 1900 -91 1497 -91 
Q 953 -91 614 226 
Q 275 544 275 1050 
Q 275 1666 698 1953 
Q 1122 2241 2028 2241 
L 2688 2241 
L 2688 2328 
Q 2688 2594 2478 2717 
Q 2269 2841 1825 2841 
Q 1466 2841 1156 2769 
Q 847 2697 581 2553 
L 581 3406 
Q 941 3494 1303 3539 
Q 1666 3584 2028 3584 
Q 2975 3584 3395 3211 
Q 3816 2838 3816 1997 
z
" transform="scale(0.015625)"/>
      <path id="DejaVuSans-Bold-73" d="M 3272 3391 
L 3272 2541 
Q 2913 2691 2578 2766 
Q 2244 2841 1947 2841 
Q 1628 2841 1473 2761 
Q 1319 2681 1319 2516 
Q 1319 2381 1436 2309 
Q 1553 2238 1856 2203 
L 2053 2175 
Q 2913 2066 3209 1816 
Q 3506 1566 3506 1031 
Q 3506 472 3093 190 
Q 2681 -91 1863 -91 
Q 1516 -91 1145 -36 
Q 775 19 384 128 
L 384 978 
Q 719 816 1070 734 
Q 1422 653 1784 653 
Q 2113 653 2278 743 
Q 2444 834 2444 1013 
Q 2444 1163 2330 1236 
Q 2216 1309 1875 1350 
L 1678 1375 
Q 931 1469 631 1722 
Q 331 1975 331 2491 
Q 331 3047 712 3315 
Q 1094 3584 1881 3584 
Q 2191 3584 2531 3537 
Q 2872 3491 3272 3391 
z
" transform="scale(0.015625)"/>
      <path id="DejaVuSans-Bold-6d" d="M 3781 2919 
Q 3994 3244 4286 3414 
Q 4578 3584 4928 3584 
Q 5531 3584 5847 3212 
Q 6163 2841 6163 2131 
L 6163 0 
L 5038 0 
L 5038 1825 
Q 5041 1866 5042 1909 
Q 5044 1953 5044 2034 
Q 5044 2406 4934 2573 
Q 4825 2741 4581 2741 
Q 4263 2741 4089 2478 
Q 3916 2216 3909 1719 
L 3909 0 
L 2784 0 
L 2784 1825 
Q 2784 2406 2684 2573 
Q 2584 2741 2328 2741 
Q 2006 2741 1831 2477 
Q 1656 2213 1656 1722 
L 1656 0 
L 531 0 
L 531 3500 
L 1656 3500 
L 1656 2988 
Q 1863 3284 2130 3434 
Q 2397 3584 2719 3584 
Q 3081 3584 3359 3409 
Q 3638 3234 3781 2919 
z
" transform="scale(0.015625)"/>
      <path id="DejaVuSans-Bold-20" transform="scale(0.015625)"/>
      <path id="DejaVuSans-Bold-52" d="M 2297 2597 
Q 2675 2597 2839 2737 
Q 3003 2878 3003 3200 
Q 3003 3519 2839 3656 
Q 2675 3794 2297 3794 
L 1791 3794 
L 1791 2597 
L 2297 2597 
z
M 1791 1766 
L 1791 0 
L 588 0 
L 588 4666 
L 2425 4666 
Q 3347 4666 3776 4356 
Q 4206 4047 4206 3378 
Q 4206 2916 3982 2619 
Q 3759 2322 3309 2181 
Q 3556 2125 3751 1926 
Q 3947 1728 4147 1325 
L 4800 0 
L 3519 0 
L 2950 1159 
Q 2778 1509 2601 1637 
Q 2425 1766 2131 1766 
L 1791 1766 
z
" transform="scale(0.015625)"/>
      <path id="DejaVuSans-Bold-69" d="M 538 3500 
L 1656 3500 
L 1656 0 
L 538 0 
L 538 3500 
z
M 538 4863 
L 1656 4863 
L 1656 3950 
L 538 3950 
L 538 4863 
z
" transform="scale(0.015625)"/>
     </defs>
     <use xlink:href="#DejaVuSans-Bold-41"/>
     <use xlink:href="#DejaVuSans-Bold-43" x="77.392578"/>
     <use xlink:href="#DejaVuSans-Bold-2f" x="150.78125"/>
     <use xlink:href="#DejaVuSans-Bold-43" x="187.304688"/>
     <use xlink:href="#DejaVuSans-Bold-79" x="260.693359"/>
     <use xlink:href="#DejaVuSans-Bold-74" x="325.878906"/>
     <use xlink:href="#DejaVuSans-Bold-6f" x="373.681641"/>
     <use xlink:href="#DejaVuSans-Bold-70" x="442.382812"/>
     <use xlink:href="#DejaVuSans-Bold-6c" x="513.964844"/>
     <use xlink:href="#DejaVuSans-Bold-61" x="548.242188"/>
     <use xlink:href="#DejaVuSans-Bold-73" x="615.722656"/>
     <use xlink:href="#DejaVuSans-Bold-6d" x="675.244141"/>
     <use xlink:href="#DejaVuSans-Bold-20" x="779.443359"/>
     <use xlink:href="#DejaVuSans-Bold-52" x="814.257812"/>
     <use xlink:href="#DejaVuSans-Bold-61" x="891.259766"/>
     <use xlink:href="#DejaVuSans-Bold-74" x="958.740234"/>
     <use xlink:href="#DejaVuSans-Bold-69" x="1006.542969"/>
     <use xlink:href="#DejaVuSans-Bold-6f" x="1040.820312"/>
    </g>
   </g>
   <g id="legend_1">
    <g id="patch_11">
     <path d="M 62.120313 84.230469 
L 126.421875 84.230469 
Q 128.421875 84.230469 128.421875 82.230469 
L 128.421875 39.196094 
Q 128.421875 37.196094 126.421875 37.196094 
L 62.120313 37.196094 
Q 60.120313 37.196094 60.120313 39.196094 
L 60.120313 82.230469 
Q 60.120313 84.230469 62.120313 84.230469 
z
" style="fill: #ffffff; opacity: 0.8; stroke: #cccccc; stroke-linejoin: miter"/>
    </g>
    <g id="text_13">
     <!-- Genotype -->
     <g transform="translate(69.921875 48.794531) scale(0.1 -0.1)">
      <defs>
       <path id="DejaVuSans-47" d="M 3809 666 
L 3809 1919 
L 2778 1919 
L 2778 2438 
L 4434 2438 
L 4434 434 
Q 4069 175 3628 42 
Q 3188 -91 2688 -91 
Q 1594 -91 976 548 
Q 359 1188 359 2328 
Q 359 3472 976 4111 
Q 1594 4750 2688 4750 
Q 3144 4750 3555 4637 
Q 3966 4525 4313 4306 
L 4313 3634 
Q 3963 3931 3569 4081 
Q 3175 4231 2741 4231 
Q 1884 4231 1454 3753 
Q 1025 3275 1025 2328 
Q 1025 1384 1454 906 
Q 1884 428 2741 428 
Q 3075 428 3337 486 
Q 3600 544 3809 666 
z
" transform="scale(0.015625)"/>
       <path id="DejaVuSans-79" d="M 2059 -325 
Q 1816 -950 1584 -1140 
Q 1353 -1331 966 -1331 
L 506 -1331 
L 506 -850 
L 844 -850 
Q 1081 -850 1212 -737 
Q 1344 -625 1503 -206 
L 1606 56 
L 191 3500 
L 800 3500 
L 1894 763 
L 2988 3500 
L 3597 3500 
L 2059 -325 
z
" transform="scale(0.015625)"/>
      </defs>
      <use xlink:href="#DejaVuSans-47"/>
      <use xlink:href="#DejaVuSans-65" x="77.490234"/>
      <use xlink:href="#DejaVuSans-6e" x="139.013672"/>
      <use xlink:href="#DejaVuSans-6f" x="202.392578"/>
      <use xlink:href="#DejaVuSans-74" x="263.574219"/>
      <use xlink:href="#DejaVuSans-79" x="302.783203"/>
      <use xlink:href="#DejaVuSans-70" x="361.962891"/>
      <use xlink:href="#DejaVuSans-65" x="425.439453"/>
     </g>
    </g>
    <g id="line2d_35">
     <defs>
      <path id="mdfae14a727" d="M 0 5 
C 1.326016 5 2.597899 4.473168 3.535534 3.535534 
C 4.473168 2.597899 5 1.326016 5 0 
C 5 -1.326016 4.473168 -2.597899 3.535534 -3.535534 
C 2.597899 -4.473168 1.326016 -5 0 -5 
C -1.326016 -5 -2.597899 -4.473168 -3.535534 -3.535534 
C -4.473168 -2.597899 -5 -1.326016 -5 0 
C -5 1.326016 -4.473168 2.597899 -3.535534 3.535534 
C -2.597899 4.473168 -1.326016 5 0 5 
z
" style="stroke: #000000"/>
     </defs>
     <g>
      <use xlink:href="#mdfae14a727" x="74.120313" y="59.972656" style="fill: #808080; stroke: #000000"/>
     </g>
    </g>
    <g id="text_14">
     <!-- WT -->
     <g transform="translate(92.120313 63.472656) scale(0.1 -0.1)">
      <defs>
       <path id="DejaVuSans-57" d="M 213 4666 
L 850 4666 
L 1831 722 
L 2809 4666 
L 3519 4666 
L 4500 722 
L 5478 4666 
L 6119 4666 
L 4947 0 
L 4153 0 
L 3169 4050 
L 2175 0 
L 1381 0 
L 213 4666 
z
" transform="scale(0.015625)"/>
       <path id="DejaVuSans-54" d="M -19 4666 
L 3928 4666 
L 3928 4134 
L 2272 4134 
L 2272 0 
L 1638 0 
L 1638 4134 
L -19 4134 
L -19 4666 
z
" transform="scale(0.015625)"/>
      </defs>
      <use xlink:href="#DejaVuSans-57"/>
      <use xlink:href="#DejaVuSans-54" x="98.876953"/>
     </g>
    </g>
    <g id="line2d_36">
     <defs>
      <path id="mff6f850094" d="M 0 5 
C 1.326016 5 2.597899 4.473168 3.535534 3.535534 
C 4.473168 2.597899 5 1.326016 5 0 
C 5 -1.326016 4.473168 -2.597899 3.535534 -3.535534 
C 2.597899 -4.473168 1.326016 -5 0 -5 
C -1.326016 -5 -2.597899 -4.473168 -3.535534 -3.535534 
C -4.473168 -2.597899 -5 -1.326016 -5 0 
C -5 1.326016 -4.473168 2.597899 -3.535534 3.535534 
C -2.597899 4.473168 -1.326016 5 0 5 
z
" style="stroke: #000000"/>
     </defs>
     <g>
      <use xlink:href="#mff6f850094" x="74.120313" y="74.650781" style="fill: #3386ff; stroke: #000000"/>
     </g>
    </g>
    <g id="text_15">
     <!-- PP4KO -->
     <g transform="translate(92.120313 78.150781) scale(0.1 -0.1)">
      <defs>
       <path id="DejaVuSans-4b" d="M 628 4666 
L 1259 4666 
L 1259 2694 
L 3353 4666 
L 4166 4666 
L 1850 2491 
L 4331 0 
L 3500 0 
L 1259 2247 
L 1259 0 
L 628 0 
L 628 4666 
z
" transform="scale(0.015625)"/>
       <path id="DejaVuSans-4f" d="M 2522 4238 
Q 1834 4238 1429 3725 
Q 1025 3213 1025 2328 
Q 1025 1447 1429 934 
Q 1834 422 2522 422 
Q 3209 422 3611 934 
Q 4013 1447 4013 2328 
Q 4013 3213 3611 3725 
Q 3209 4238 2522 4238 
z
M 2522 4750 
Q 3503 4750 4090 4092 
Q 4678 3434 4678 2328 
Q 4678 1225 4090 567 
Q 3503 -91 2522 -91 
Q 1538 -91 948 565 
Q 359 1222 359 2328 
Q 359 3434 948 4092 
Q 1538 4750 2522 4750 
z
" transform="scale(0.015625)"/>
      </defs>
      <use xlink:href="#DejaVuSans-50"/>
      <use xlink:href="#DejaVuSans-50" x="60.302734"/>
      <use xlink:href="#DejaVuSans-34" x="120.605469"/>
      <use xlink:href="#DejaVuSans-4b" x="184.228516"/>
      <use xlink:href="#DejaVuSans-4f" x="244.304688"/>
     </g>
    </g>
   </g>
  </g>
 </g>
 <defs>
  <clipPath id="p269ce68d80">
   <rect x="55.120313" y="32.196094" width="357.12" height="266.112"/>
  </clipPath>
 </defs>
</svg>
