<?xml version="1.0" encoding="utf-8" standalone="no"?>
<!DOCTYPE svg PUBLIC "-//W3C//DTD SVG 1.1//EN"
  "http://www.w3.org/Graphics/SVG/1.1/DTD/svg11.dtd">
<svg xmlns:xlink="http://www.w3.org/1999/xlink" width="588.912344pt" height="329.928719pt" viewBox="0 0 588.912344 329.928719" xmlns="http://www.w3.org/2000/svg" version="1.1">
 <metadata>
  <rdf:RDF xmlns:dc="http://purl.org/dc/elements/1.1/" xmlns:cc="http://creativecommons.org/ns#" xmlns:rdf="http://www.w3.org/1999/02/22-rdf-syntax-ns#">
   <cc:Work>
    <dc:type rdf:resource="http://purl.org/dc/dcmitype/StillImage"/>
    <dc:date>2024-12-18T14:14:03.638975</dc:date>
    <dc:format>image/svg+xml</dc:format>
    <dc:creator>
     <cc:Agent>
      <dc:title>Matplotlib v3.7.2, https://matplotlib.org/</dc:title>
     </cc:Agent>
    </dc:creator>
   </cc:Work>
  </rdf:RDF>
 </metadata>
 <defs>
  <style type="text/css">*{stroke-linejoin: round; stroke-linecap: butt}</style>
 </defs>
 <g id="figure_1">
  <g id="patch_1">
   <path d="M 0 329.928719 
L 588.912344 329.928719 
L 588.912344 0 
L 0 0 
z
" style="fill: #ffffff"/>
  </g>
  <g id="axes_1">
   <g id="patch_2">
    <path d="M 76.104844 298.308094 
L 433.224844 298.308094 
L 433.224844 32.196094 
L 76.104844 32.196094 
z
" style="fill: #ffffff"/>
   </g>
   <g id="matplotlib.axis_1">
    <g id="xtick_1">
     <g id="line2d_1">
      <defs>
       <path id="md995ed68da" d="M 0 0 
L 0 3.5 
" style="stroke: #000000; stroke-width: 0.8"/>
      </defs>
      <g>
       <use xlink:href="#md995ed68da" x="165.384844" y="298.308094" style="stroke: #000000; stroke-width: 0.8"/>
      </g>
     </g>
     <g id="text_1">
      <!-- interphase -->
      <g transform="translate(117.255938 318.985281) scale(0.18 -0.18)">
       <defs>
        <path id="DejaVuSans-69" d="M 603 3500 
L 1178 3500 
L 1178 0 
L 603 0 
L 603 3500 
z
M 603 4863 
L 1178 4863 
L 1178 4134 
L 603 4134 
L 603 4863 
z
" transform="scale(0.015625)"/>
        <path id="DejaVuSans-6e" d="M 3513 2113 
L 3513 0 
L 2938 0 
L 2938 2094 
Q 2938 2591 2744 2837 
Q 2550 3084 2163 3084 
Q 1697 3084 1428 2787 
Q 1159 2491 1159 1978 
L 1159 0 
L 581 0 
L 581 3500 
L 1159 3500 
L 1159 2956 
Q 1366 3272 1645 3428 
Q 1925 3584 2291 3584 
Q 2894 3584 3203 3211 
Q 3513 2838 3513 2113 
z
" transform="scale(0.015625)"/>
        <path id="DejaVuSans-74" d="M 1172 4494 
L 1172 3500 
L 2356 3500 
L 2356 3053 
L 1172 3053 
L 1172 1153 
Q 1172 725 1289 603 
Q 1406 481 1766 481 
L 2356 481 
L 2356 0 
L 1766 0 
Q 1100 0 847 248 
Q 594 497 594 1153 
L 594 3053 
L 172 3053 
L 172 3500 
L 594 3500 
L 594 4494 
L 1172 4494 
z
" transform="scale(0.015625)"/>
        <path id="DejaVuSans-65" d="M 3597 1894 
L 3597 1613 
L 953 1613 
Q 991 1019 1311 708 
Q 1631 397 2203 397 
Q 2534 397 2845 478 
Q 3156 559 3463 722 
L 3463 178 
Q 3153 47 2828 -22 
Q 2503 -91 2169 -91 
Q 1331 -91 842 396 
Q 353 884 353 1716 
Q 353 2575 817 3079 
Q 1281 3584 2069 3584 
Q 2775 3584 3186 3129 
Q 3597 2675 3597 1894 
z
M 3022 2063 
Q 3016 2534 2758 2815 
Q 2500 3097 2075 3097 
Q 1594 3097 1305 2825 
Q 1016 2553 972 2059 
L 3022 2063 
z
" transform="scale(0.015625)"/>
        <path id="DejaVuSans-72" d="M 2631 2963 
Q 2534 3019 2420 3045 
Q 2306 3072 2169 3072 
Q 1681 3072 1420 2755 
Q 1159 2438 1159 1844 
L 1159 0 
L 581 0 
L 581 3500 
L 1159 3500 
L 1159 2956 
Q 1341 3275 1631 3429 
Q 1922 3584 2338 3584 
Q 2397 3584 2469 3576 
Q 2541 3569 2628 3553 
L 2631 2963 
z
" transform="scale(0.015625)"/>
        <path id="DejaVuSans-70" d="M 1159 525 
L 1159 -1331 
L 581 -1331 
L 581 3500 
L 1159 3500 
L 1159 2969 
Q 1341 3281 1617 3432 
Q 1894 3584 2278 3584 
Q 2916 3584 3314 3078 
Q 3713 2572 3713 1747 
Q 3713 922 3314 415 
Q 2916 -91 2278 -91 
Q 1894 -91 1617 61 
Q 1341 213 1159 525 
z
M 3116 1747 
Q 3116 2381 2855 2742 
Q 2594 3103 2138 3103 
Q 1681 3103 1420 2742 
Q 1159 2381 1159 1747 
Q 1159 1113 1420 752 
Q 1681 391 2138 391 
Q 2594 391 2855 752 
Q 3116 1113 3116 1747 
z
" transform="scale(0.015625)"/>
        <path id="DejaVuSans-68" d="M 3513 2113 
L 3513 0 
L 2938 0 
L 2938 2094 
Q 2938 2591 2744 2837 
Q 2550 3084 2163 3084 
Q 1697 3084 1428 2787 
Q 1159 2491 1159 1978 
L 1159 0 
L 581 0 
L 581 4863 
L 1159 4863 
L 1159 2956 
Q 1366 3272 1645 3428 
Q 1925 3584 2291 3584 
Q 2894 3584 3203 3211 
Q 3513 2838 3513 2113 
z
" transform="scale(0.015625)"/>
        <path id="DejaVuSans-61" d="M 2194 1759 
Q 1497 1759 1228 1600 
Q 959 1441 959 1056 
Q 959 750 1161 570 
Q 1363 391 1709 391 
Q 2188 391 2477 730 
Q 2766 1069 2766 1631 
L 2766 1759 
L 2194 1759 
z
M 3341 1997 
L 3341 0 
L 2766 0 
L 2766 531 
Q 2569 213 2275 61 
Q 1981 -91 1556 -91 
Q 1019 -91 701 211 
Q 384 513 384 1019 
Q 384 1609 779 1909 
Q 1175 2209 1959 2209 
L 2766 2209 
L 2766 2266 
Q 2766 2663 2505 2880 
Q 2244 3097 1772 3097 
Q 1472 3097 1187 3025 
Q 903 2953 641 2809 
L 641 3341 
Q 956 3463 1253 3523 
Q 1550 3584 1831 3584 
Q 2591 3584 2966 3190 
Q 3341 2797 3341 1997 
z
" transform="scale(0.015625)"/>
        <path id="DejaVuSans-73" d="M 2834 3397 
L 2834 2853 
Q 2591 2978 2328 3040 
Q 2066 3103 1784 3103 
Q 1356 3103 1142 2972 
Q 928 2841 928 2578 
Q 928 2378 1081 2264 
Q 1234 2150 1697 2047 
L 1894 2003 
Q 2506 1872 2764 1633 
Q 3022 1394 3022 966 
Q 3022 478 2636 193 
Q 2250 -91 1575 -91 
Q 1294 -91 989 -36 
Q 684 19 347 128 
L 347 722 
Q 666 556 975 473 
Q 1284 391 1588 391 
Q 1994 391 2212 530 
Q 2431 669 2431 922 
Q 2431 1156 2273 1281 
Q 2116 1406 1581 1522 
L 1381 1569 
Q 847 1681 609 1914 
Q 372 2147 372 2553 
Q 372 3047 722 3315 
Q 1072 3584 1716 3584 
Q 2034 3584 2315 3537 
Q 2597 3491 2834 3397 
z
" transform="scale(0.015625)"/>
       </defs>
       <use xlink:href="#DejaVuSans-69"/>
       <use xlink:href="#DejaVuSans-6e" x="27.783203"/>
       <use xlink:href="#DejaVuSans-74" x="91.162109"/>
       <use xlink:href="#DejaVuSans-65" x="130.371094"/>
       <use xlink:href="#DejaVuSans-72" x="191.894531"/>
       <use xlink:href="#DejaVuSans-70" x="233.007812"/>
       <use xlink:href="#DejaVuSans-68" x="296.484375"/>
       <use xlink:href="#DejaVuSans-61" x="359.863281"/>
       <use xlink:href="#DejaVuSans-73" x="421.142578"/>
       <use xlink:href="#DejaVuSans-65" x="473.242188"/>
      </g>
     </g>
    </g>
    <g id="xtick_2">
     <g id="line2d_2">
      <g>
       <use xlink:href="#md995ed68da" x="343.944844" y="298.308094" style="stroke: #000000; stroke-width: 0.8"/>
      </g>
     </g>
     <g id="text_2">
      <!-- prometaphase -->
      <g transform="translate(278.720156 318.985281) scale(0.18 -0.18)">
       <defs>
        <path id="DejaVuSans-6f" d="M 1959 3097 
Q 1497 3097 1228 2736 
Q 959 2375 959 1747 
Q 959 1119 1226 758 
Q 1494 397 1959 397 
Q 2419 397 2687 759 
Q 2956 1122 2956 1747 
Q 2956 2369 2687 2733 
Q 2419 3097 1959 3097 
z
M 1959 3584 
Q 2709 3584 3137 3096 
Q 3566 2609 3566 1747 
Q 3566 888 3137 398 
Q 2709 -91 1959 -91 
Q 1206 -91 779 398 
Q 353 888 353 1747 
Q 353 2609 779 3096 
Q 1206 3584 1959 3584 
z
" transform="scale(0.015625)"/>
        <path id="DejaVuSans-6d" d="M 3328 2828 
Q 3544 3216 3844 3400 
Q 4144 3584 4550 3584 
Q 5097 3584 5394 3201 
Q 5691 2819 5691 2113 
L 5691 0 
L 5113 0 
L 5113 2094 
Q 5113 2597 4934 2840 
Q 4756 3084 4391 3084 
Q 3944 3084 3684 2787 
Q 3425 2491 3425 1978 
L 3425 0 
L 2847 0 
L 2847 2094 
Q 2847 2600 2669 2842 
Q 2491 3084 2119 3084 
Q 1678 3084 1418 2786 
Q 1159 2488 1159 1978 
L 1159 0 
L 581 0 
L 581 3500 
L 1159 3500 
L 1159 2956 
Q 1356 3278 1631 3431 
Q 1906 3584 2284 3584 
Q 2666 3584 2933 3390 
Q 3200 3197 3328 2828 
z
" transform="scale(0.015625)"/>
       </defs>
       <use xlink:href="#DejaVuSans-70"/>
       <use xlink:href="#DejaVuSans-72" x="63.476562"/>
       <use xlink:href="#DejaVuSans-6f" x="102.339844"/>
       <use xlink:href="#DejaVuSans-6d" x="163.521484"/>
       <use xlink:href="#DejaVuSans-65" x="260.933594"/>
       <use xlink:href="#DejaVuSans-74" x="322.457031"/>
       <use xlink:href="#DejaVuSans-61" x="361.666016"/>
       <use xlink:href="#DejaVuSans-70" x="422.945312"/>
       <use xlink:href="#DejaVuSans-68" x="486.421875"/>
       <use xlink:href="#DejaVuSans-61" x="549.800781"/>
       <use xlink:href="#DejaVuSans-73" x="611.080078"/>
       <use xlink:href="#DejaVuSans-65" x="663.179688"/>
      </g>
     </g>
    </g>
   </g>
   <g id="matplotlib.axis_2">
    <g id="ytick_1">
     <g id="line2d_3">
      <defs>
       <path id="m57b4a20c7f" d="M 0 0 
L -3.5 0 
" style="stroke: #000000; stroke-width: 0.8"/>
      </defs>
      <g>
       <use xlink:href="#m57b4a20c7f" x="76.104844" y="298.308094" style="stroke: #000000; stroke-width: 0.8"/>
      </g>
     </g>
     <g id="text_3">
      <!-- 0 -->
      <g transform="translate(57.652344 305.146687) scale(0.18 -0.18)">
       <defs>
        <path id="DejaVuSans-30" d="M 2034 4250 
Q 1547 4250 1301 3770 
Q 1056 3291 1056 2328 
Q 1056 1369 1301 889 
Q 1547 409 2034 409 
Q 2525 409 2770 889 
Q 3016 1369 3016 2328 
Q 3016 3291 2770 3770 
Q 2525 4250 2034 4250 
z
M 2034 4750 
Q 2819 4750 3233 4129 
Q 3647 3509 3647 2328 
Q 3647 1150 3233 529 
Q 2819 -91 2034 -91 
Q 1250 -91 836 529 
Q 422 1150 422 2328 
Q 422 3509 836 4129 
Q 1250 4750 2034 4750 
z
" transform="scale(0.015625)"/>
       </defs>
       <use xlink:href="#DejaVuSans-30"/>
      </g>
     </g>
    </g>
    <g id="ytick_2">
     <g id="line2d_4">
      <g>
       <use xlink:href="#m57b4a20c7f" x="76.104844" y="265.044094" style="stroke: #000000; stroke-width: 0.8"/>
      </g>
     </g>
     <g id="text_4">
      <!-- 1 -->
      <g transform="translate(57.652344 271.882687) scale(0.18 -0.18)">
       <defs>
        <path id="DejaVuSans-31" d="M 794 531 
L 1825 531 
L 1825 4091 
L 703 3866 
L 703 4441 
L 1819 4666 
L 2450 4666 
L 2450 531 
L 3481 531 
L 3481 0 
L 794 0 
L 794 531 
z
" transform="scale(0.015625)"/>
       </defs>
       <use xlink:href="#DejaVuSans-31"/>
      </g>
     </g>
    </g>
    <g id="ytick_3">
     <g id="line2d_5">
      <g>
       <use xlink:href="#m57b4a20c7f" x="76.104844" y="231.780094" style="stroke: #000000; stroke-width: 0.8"/>
      </g>
     </g>
     <g id="text_5">
      <!-- 2 -->
      <g transform="translate(57.652344 238.618687) scale(0.18 -0.18)">
       <defs>
        <path id="DejaVuSans-32" d="M 1228 531 
L 3431 531 
L 3431 0 
L 469 0 
L 469 531 
Q 828 903 1448 1529 
Q 2069 2156 2228 2338 
Q 2531 2678 2651 2914 
Q 2772 3150 2772 3378 
Q 2772 3750 2511 3984 
Q 2250 4219 1831 4219 
Q 1534 4219 1204 4116 
Q 875 4013 500 3803 
L 500 4441 
Q 881 4594 1212 4672 
Q 1544 4750 1819 4750 
Q 2544 4750 2975 4387 
Q 3406 4025 3406 3419 
Q 3406 3131 3298 2873 
Q 3191 2616 2906 2266 
Q 2828 2175 2409 1742 
Q 1991 1309 1228 531 
z
" transform="scale(0.015625)"/>
       </defs>
       <use xlink:href="#DejaVuSans-32"/>
      </g>
     </g>
    </g>
    <g id="ytick_4">
     <g id="line2d_6">
      <g>
       <use xlink:href="#m57b4a20c7f" x="76.104844" y="198.516094" style="stroke: #000000; stroke-width: 0.8"/>
      </g>
     </g>
     <g id="text_6">
      <!-- 3 -->
      <g transform="translate(57.652344 205.354687) scale(0.18 -0.18)">
       <defs>
        <path id="DejaVuSans-33" d="M 2597 2516 
Q 3050 2419 3304 2112 
Q 3559 1806 3559 1356 
Q 3559 666 3084 287 
Q 2609 -91 1734 -91 
Q 1441 -91 1130 -33 
Q 819 25 488 141 
L 488 750 
Q 750 597 1062 519 
Q 1375 441 1716 441 
Q 2309 441 2620 675 
Q 2931 909 2931 1356 
Q 2931 1769 2642 2001 
Q 2353 2234 1838 2234 
L 1294 2234 
L 1294 2753 
L 1863 2753 
Q 2328 2753 2575 2939 
Q 2822 3125 2822 3475 
Q 2822 3834 2567 4026 
Q 2313 4219 1838 4219 
Q 1578 4219 1281 4162 
Q 984 4106 628 3988 
L 628 4550 
Q 988 4650 1302 4700 
Q 1616 4750 1894 4750 
Q 2613 4750 3031 4423 
Q 3450 4097 3450 3541 
Q 3450 3153 3228 2886 
Q 3006 2619 2597 2516 
z
" transform="scale(0.015625)"/>
       </defs>
       <use xlink:href="#DejaVuSans-33"/>
      </g>
     </g>
    </g>
    <g id="ytick_5">
     <g id="line2d_7">
      <g>
       <use xlink:href="#m57b4a20c7f" x="76.104844" y="165.252094" style="stroke: #000000; stroke-width: 0.8"/>
      </g>
     </g>
     <g id="text_7">
      <!-- 4 -->
      <g transform="translate(57.652344 172.090687) scale(0.18 -0.18)">
       <defs>
        <path id="DejaVuSans-34" d="M 2419 4116 
L 825 1625 
L 2419 1625 
L 2419 4116 
z
M 2253 4666 
L 3047 4666 
L 3047 1625 
L 3713 1625 
L 3713 1100 
L 3047 1100 
L 3047 0 
L 2419 0 
L 2419 1100 
L 313 1100 
L 313 1709 
L 2253 4666 
z
" transform="scale(0.015625)"/>
       </defs>
       <use xlink:href="#DejaVuSans-34"/>
      </g>
     </g>
    </g>
    <g id="ytick_6">
     <g id="line2d_8">
      <g>
       <use xlink:href="#m57b4a20c7f" x="76.104844" y="131.988094" style="stroke: #000000; stroke-width: 0.8"/>
      </g>
     </g>
     <g id="text_8">
      <!-- 5 -->
      <g transform="translate(57.652344 138.826687) scale(0.18 -0.18)">
       <defs>
        <path id="DejaVuSans-35" d="M 691 4666 
L 3169 4666 
L 3169 4134 
L 1269 4134 
L 1269 2991 
Q 1406 3038 1543 3061 
Q 1681 3084 1819 3084 
Q 2600 3084 3056 2656 
Q 3513 2228 3513 1497 
Q 3513 744 3044 326 
Q 2575 -91 1722 -91 
Q 1428 -91 1123 -41 
Q 819 9 494 109 
L 494 744 
Q 775 591 1075 516 
Q 1375 441 1709 441 
Q 2250 441 2565 725 
Q 2881 1009 2881 1497 
Q 2881 1984 2565 2268 
Q 2250 2553 1709 2553 
Q 1456 2553 1204 2497 
Q 953 2441 691 2322 
L 691 4666 
z
" transform="scale(0.015625)"/>
       </defs>
       <use xlink:href="#DejaVuSans-35"/>
      </g>
     </g>
    </g>
    <g id="ytick_7">
     <g id="line2d_9">
      <g>
       <use xlink:href="#m57b4a20c7f" x="76.104844" y="98.724094" style="stroke: #000000; stroke-width: 0.8"/>
      </g>
     </g>
     <g id="text_9">
      <!-- 6 -->
      <g transform="translate(57.652344 105.562687) scale(0.18 -0.18)">
       <defs>
        <path id="DejaVuSans-36" d="M 2113 2584 
Q 1688 2584 1439 2293 
Q 1191 2003 1191 1497 
Q 1191 994 1439 701 
Q 1688 409 2113 409 
Q 2538 409 2786 701 
Q 3034 994 3034 1497 
Q 3034 2003 2786 2293 
Q 2538 2584 2113 2584 
z
M 3366 4563 
L 3366 3988 
Q 3128 4100 2886 4159 
Q 2644 4219 2406 4219 
Q 1781 4219 1451 3797 
Q 1122 3375 1075 2522 
Q 1259 2794 1537 2939 
Q 1816 3084 2150 3084 
Q 2853 3084 3261 2657 
Q 3669 2231 3669 1497 
Q 3669 778 3244 343 
Q 2819 -91 2113 -91 
Q 1303 -91 875 529 
Q 447 1150 447 2328 
Q 447 3434 972 4092 
Q 1497 4750 2381 4750 
Q 2619 4750 2861 4703 
Q 3103 4656 3366 4563 
z
" transform="scale(0.015625)"/>
       </defs>
       <use xlink:href="#DejaVuSans-36"/>
      </g>
     </g>
    </g>
    <g id="ytick_8">
     <g id="line2d_10">
      <g>
       <use xlink:href="#m57b4a20c7f" x="76.104844" y="65.460094" style="stroke: #000000; stroke-width: 0.8"/>
      </g>
     </g>
     <g id="text_10">
      <!-- 7 -->
      <g transform="translate(57.652344 72.298687) scale(0.18 -0.18)">
       <defs>
        <path id="DejaVuSans-37" d="M 525 4666 
L 3525 4666 
L 3525 4397 
L 1831 0 
L 1172 0 
L 2766 4134 
L 525 4134 
L 525 4666 
z
" transform="scale(0.015625)"/>
       </defs>
       <use xlink:href="#DejaVuSans-37"/>
      </g>
     </g>
    </g>
    <g id="ytick_9">
     <g id="line2d_11">
      <g>
       <use xlink:href="#m57b4a20c7f" x="76.104844" y="32.196094" style="stroke: #000000; stroke-width: 0.8"/>
      </g>
     </g>
     <g id="text_11">
      <!-- 8 -->
      <g transform="translate(57.652344 39.034687) scale(0.18 -0.18)">
       <defs>
        <path id="DejaVuSans-38" d="M 2034 2216 
Q 1584 2216 1326 1975 
Q 1069 1734 1069 1313 
Q 1069 891 1326 650 
Q 1584 409 2034 409 
Q 2484 409 2743 651 
Q 3003 894 3003 1313 
Q 3003 1734 2745 1975 
Q 2488 2216 2034 2216 
z
M 1403 2484 
Q 997 2584 770 2862 
Q 544 3141 544 3541 
Q 544 4100 942 4425 
Q 1341 4750 2034 4750 
Q 2731 4750 3128 4425 
Q 3525 4100 3525 3541 
Q 3525 3141 3298 2862 
Q 3072 2584 2669 2484 
Q 3125 2378 3379 2068 
Q 3634 1759 3634 1313 
Q 3634 634 3220 271 
Q 2806 -91 2034 -91 
Q 1263 -91 848 271 
Q 434 634 434 1313 
Q 434 1759 690 2068 
Q 947 2378 1403 2484 
z
M 1172 3481 
Q 1172 3119 1398 2916 
Q 1625 2713 2034 2713 
Q 2441 2713 2670 2916 
Q 2900 3119 2900 3481 
Q 2900 3844 2670 4047 
Q 2441 4250 2034 4250 
Q 1625 4250 1398 4047 
Q 1172 3844 1172 3481 
z
" transform="scale(0.015625)"/>
       </defs>
       <use xlink:href="#DejaVuSans-38"/>
      </g>
     </g>
    </g>
    <g id="text_12">
     <!-- Ratio -->
     <g transform="translate(49.492969 190.920844) rotate(-90) scale(0.2 -0.2)">
      <defs>
       <path id="DejaVuSans-52" d="M 2841 2188 
Q 3044 2119 3236 1894 
Q 3428 1669 3622 1275 
L 4263 0 
L 3584 0 
L 2988 1197 
Q 2756 1666 2539 1819 
Q 2322 1972 1947 1972 
L 1259 1972 
L 1259 0 
L 628 0 
L 628 4666 
L 2053 4666 
Q 2853 4666 3247 4331 
Q 3641 3997 3641 3322 
Q 3641 2881 3436 2590 
Q 3231 2300 2841 2188 
z
M 1259 4147 
L 1259 2491 
L 2053 2491 
Q 2509 2491 2742 2702 
Q 2975 2913 2975 3322 
Q 2975 3731 2742 3939 
Q 2509 4147 2053 4147 
L 1259 4147 
z
" transform="scale(0.015625)"/>
      </defs>
      <use xlink:href="#DejaVuSans-52"/>
      <use xlink:href="#DejaVuSans-61" x="67.232422"/>
      <use xlink:href="#DejaVuSans-74" x="128.511719"/>
      <use xlink:href="#DejaVuSans-69" x="167.720703"/>
      <use xlink:href="#DejaVuSans-6f" x="195.503906"/>
     </g>
    </g>
   </g>
   <g id="patch_3">
    <path d="M 93.960844 213.832649 
L 129.672844 213.832649 
L 129.672844 163.135201 
L 93.960844 163.135201 
L 93.960844 213.832649 
z
" clip-path="url(#pd9a6b87907)" style="fill: #ffffff; stroke: #999999; stroke-linejoin: miter"/>
   </g>
   <g id="line2d_12">
    <path d="M 111.816844 213.832649 
L 111.816844 233.471484 
" clip-path="url(#pd9a6b87907)" style="fill: none; stroke: #999999"/>
   </g>
   <g id="line2d_13">
    <path d="M 111.816844 163.135201 
L 111.816844 152.616931 
" clip-path="url(#pd9a6b87907)" style="fill: none; stroke: #999999"/>
   </g>
   <g id="line2d_14">
    <path d="M 102.888844 233.471484 
L 120.744844 233.471484 
" clip-path="url(#pd9a6b87907)" style="fill: none; stroke: #999999; stroke-linecap: square"/>
   </g>
   <g id="line2d_15">
    <path d="M 102.888844 152.616931 
L 120.744844 152.616931 
" clip-path="url(#pd9a6b87907)" style="fill: none; stroke: #999999; stroke-linecap: square"/>
   </g>
   <g id="line2d_16">
    <defs>
     <path id="ma0dcd1832c" d="M 0 3 
C 0.795609 3 1.55874 2.683901 2.12132 2.12132 
C 2.683901 1.55874 3 0.795609 3 0 
C 3 -0.795609 2.683901 -1.55874 2.12132 -2.12132 
C 1.55874 -2.683901 0.795609 -3 0 -3 
C -0.795609 -3 -1.55874 -2.683901 -2.12132 -2.12132 
C -2.683901 -1.55874 -3 -0.795609 -3 0 
C -3 0.795609 -2.683901 1.55874 -2.12132 2.12132 
C -1.55874 2.683901 -0.795609 3 0 3 
z
" style="stroke: #999999"/>
    </defs>
    <g clip-path="url(#pd9a6b87907)">
     <use xlink:href="#ma0dcd1832c" x="111.816844" y="71.004094" style="fill-opacity: 0; stroke: #999999"/>
    </g>
   </g>
   <g id="patch_4">
    <path d="M 272.520844 207.456637 
L 308.232844 207.456637 
L 308.232844 187.247871 
L 272.520844 187.247871 
L 272.520844 207.456637 
z
" clip-path="url(#pd9a6b87907)" style="fill: #ffffff; stroke: #999999; stroke-linejoin: miter"/>
   </g>
   <g id="line2d_17">
    <path d="M 290.376844 207.456637 
L 290.376844 215.871224 
" clip-path="url(#pd9a6b87907)" style="fill: none; stroke: #999999"/>
   </g>
   <g id="line2d_18">
    <path d="M 290.376844 187.247871 
L 290.376844 162.430594 
" clip-path="url(#pd9a6b87907)" style="fill: none; stroke: #999999"/>
   </g>
   <g id="line2d_19">
    <path d="M 281.448844 215.871224 
L 299.304844 215.871224 
" clip-path="url(#pd9a6b87907)" style="fill: none; stroke: #999999; stroke-linecap: square"/>
   </g>
   <g id="line2d_20">
    <path d="M 281.448844 162.430594 
L 299.304844 162.430594 
" clip-path="url(#pd9a6b87907)" style="fill: none; stroke: #999999; stroke-linecap: square"/>
   </g>
   <g id="line2d_21"/>
   <g id="patch_5">
    <path d="M 129.672844 252.570094 
L 165.384844 252.570094 
L 165.384844 248.412094 
L 129.672844 248.412094 
L 129.672844 252.570094 
z
" clip-path="url(#pd9a6b87907)" style="fill: #ffffff; stroke: #999999; stroke-linejoin: miter"/>
   </g>
   <g id="line2d_22">
    <path d="M 147.528844 252.570094 
L 147.528844 254.539673 
" clip-path="url(#pd9a6b87907)" style="fill: none; stroke: #999999"/>
   </g>
   <g id="line2d_23">
    <path d="M 147.528844 248.412094 
L 147.528844 243.792094 
" clip-path="url(#pd9a6b87907)" style="fill: none; stroke: #999999"/>
   </g>
   <g id="line2d_24">
    <path d="M 138.600844 254.539673 
L 156.456844 254.539673 
" clip-path="url(#pd9a6b87907)" style="fill: none; stroke: #999999; stroke-linecap: square"/>
   </g>
   <g id="line2d_25">
    <path d="M 138.600844 243.792094 
L 156.456844 243.792094 
" clip-path="url(#pd9a6b87907)" style="fill: none; stroke: #999999; stroke-linecap: square"/>
   </g>
   <g id="line2d_26">
    <g clip-path="url(#pd9a6b87907)">
     <use xlink:href="#ma0dcd1832c" x="147.528844" y="261.717694" style="fill-opacity: 0; stroke: #999999"/>
     <use xlink:href="#ma0dcd1832c" x="147.528844" y="238.908094" style="fill-opacity: 0; stroke: #999999"/>
    </g>
   </g>
   <g id="patch_6">
    <path d="M 308.232844 184.986844 
L 343.944844 184.986844 
L 343.944844 123.73841 
L 308.232844 123.73841 
L 308.232844 184.986844 
z
" clip-path="url(#pd9a6b87907)" style="fill: #ffffff; stroke: #999999; stroke-linejoin: miter"/>
   </g>
   <g id="line2d_27">
    <path d="M 326.088844 184.986844 
L 326.088844 203.713594 
" clip-path="url(#pd9a6b87907)" style="fill: none; stroke: #999999"/>
   </g>
   <g id="line2d_28">
    <path d="M 326.088844 123.73841 
L 326.088844 81.216725 
" clip-path="url(#pd9a6b87907)" style="fill: none; stroke: #999999"/>
   </g>
   <g id="line2d_29">
    <path d="M 317.160844 203.713594 
L 335.016844 203.713594 
" clip-path="url(#pd9a6b87907)" style="fill: none; stroke: #999999; stroke-linecap: square"/>
   </g>
   <g id="line2d_30">
    <path d="M 317.160844 81.216725 
L 335.016844 81.216725 
" clip-path="url(#pd9a6b87907)" style="fill: none; stroke: #999999; stroke-linecap: square"/>
   </g>
   <g id="line2d_31"/>
   <g id="patch_7">
    <path d="M 165.384844 216.747325 
L 201.096844 216.747325 
L 201.096844 173.053559 
L 165.384844 173.053559 
L 165.384844 216.747325 
z
" clip-path="url(#pd9a6b87907)" style="fill: #ffffff; stroke: #999999; stroke-linejoin: miter"/>
   </g>
   <g id="line2d_32">
    <path d="M 183.240844 216.747325 
L 183.240844 225.543094 
" clip-path="url(#pd9a6b87907)" style="fill: none; stroke: #999999"/>
   </g>
   <g id="line2d_33">
    <path d="M 183.240844 173.053559 
L 183.240844 148.083578 
" clip-path="url(#pd9a6b87907)" style="fill: none; stroke: #999999"/>
   </g>
   <g id="line2d_34">
    <path d="M 174.312844 225.543094 
L 192.168844 225.543094 
" clip-path="url(#pd9a6b87907)" style="fill: none; stroke: #999999; stroke-linecap: square"/>
   </g>
   <g id="line2d_35">
    <path d="M 174.312844 148.083578 
L 192.168844 148.083578 
" clip-path="url(#pd9a6b87907)" style="fill: none; stroke: #999999; stroke-linecap: square"/>
   </g>
   <g id="line2d_36"/>
   <g id="patch_8">
    <path d="M 343.944844 116.138513 
L 379.656844 116.138513 
L 379.656844 84.953513 
L 343.944844 84.953513 
L 343.944844 116.138513 
z
" clip-path="url(#pd9a6b87907)" style="fill: #ffffff; stroke: #999999; stroke-linejoin: miter"/>
   </g>
   <g id="line2d_37">
    <path d="M 361.800844 116.138513 
L 361.800844 138.918094 
" clip-path="url(#pd9a6b87907)" style="fill: none; stroke: #999999"/>
   </g>
   <g id="line2d_38">
    <path d="M 361.800844 84.953513 
L 361.800844 76.548094 
" clip-path="url(#pd9a6b87907)" style="fill: none; stroke: #999999"/>
   </g>
   <g id="line2d_39">
    <path d="M 352.872844 138.918094 
L 370.728844 138.918094 
" clip-path="url(#pd9a6b87907)" style="fill: none; stroke: #999999; stroke-linecap: square"/>
   </g>
   <g id="line2d_40">
    <path d="M 352.872844 76.548094 
L 370.728844 76.548094 
" clip-path="url(#pd9a6b87907)" style="fill: none; stroke: #999999; stroke-linecap: square"/>
   </g>
   <g id="line2d_41"/>
   <g id="patch_9">
    <path d="M 201.096844 238.754803 
L 236.808844 238.754803 
L 236.808844 234.818632 
L 201.096844 234.818632 
L 201.096844 238.754803 
z
" clip-path="url(#pd9a6b87907)" style="fill: #ffffff; stroke: #999999; stroke-linejoin: miter"/>
   </g>
   <g id="line2d_42">
    <path d="M 218.952844 238.754803 
L 218.952844 239.172094 
" clip-path="url(#pd9a6b87907)" style="fill: none; stroke: #999999"/>
   </g>
   <g id="line2d_43">
    <path d="M 218.952844 234.818632 
L 218.952844 233.137808 
" clip-path="url(#pd9a6b87907)" style="fill: none; stroke: #999999"/>
   </g>
   <g id="line2d_44">
    <path d="M 210.024844 239.172094 
L 227.880844 239.172094 
" clip-path="url(#pd9a6b87907)" style="fill: none; stroke: #999999; stroke-linecap: square"/>
   </g>
   <g id="line2d_45">
    <path d="M 210.024844 233.137808 
L 227.880844 233.137808 
" clip-path="url(#pd9a6b87907)" style="fill: none; stroke: #999999; stroke-linecap: square"/>
   </g>
   <g id="line2d_46">
    <g clip-path="url(#pd9a6b87907)">
     <use xlink:href="#ma0dcd1832c" x="218.952844" y="251.184094" style="fill-opacity: 0; stroke: #999999"/>
    </g>
   </g>
   <g id="patch_10">
    <path d="M 379.656844 217.22076 
L 415.368844 217.22076 
L 415.368844 207.541808 
L 379.656844 207.541808 
L 379.656844 217.22076 
z
" clip-path="url(#pd9a6b87907)" style="fill: #ffffff; stroke: #999999; stroke-linejoin: miter"/>
   </g>
   <g id="line2d_47">
    <path d="M 397.512844 217.22076 
L 397.512844 225.89266 
" clip-path="url(#pd9a6b87907)" style="fill: none; stroke: #999999"/>
   </g>
   <g id="line2d_48">
    <path d="M 397.512844 207.541808 
L 397.512844 194.442951 
" clip-path="url(#pd9a6b87907)" style="fill: none; stroke: #999999"/>
   </g>
   <g id="line2d_49">
    <path d="M 388.584844 225.89266 
L 406.440844 225.89266 
" clip-path="url(#pd9a6b87907)" style="fill: none; stroke: #999999; stroke-linecap: square"/>
   </g>
   <g id="line2d_50">
    <path d="M 388.584844 194.442951 
L 406.440844 194.442951 
" clip-path="url(#pd9a6b87907)" style="fill: none; stroke: #999999; stroke-linecap: square"/>
   </g>
   <g id="line2d_51"/>
   <g id="line2d_52">
    <path d="M 93.960844 191.568444 
L 129.672844 191.568444 
" clip-path="url(#pd9a6b87907)" style="fill: none; stroke: #999999"/>
   </g>
   <g id="line2d_53">
    <path d="M 272.520844 192.635785 
L 308.232844 192.635785 
" clip-path="url(#pd9a6b87907)" style="fill: none; stroke: #999999"/>
   </g>
   <g id="line2d_54">
    <path d="M 129.672844 249.390447 
L 165.384844 249.390447 
" clip-path="url(#pd9a6b87907)" style="fill: none; stroke: #999999"/>
   </g>
   <g id="line2d_55">
    <path d="M 308.232844 166.260094 
L 343.944844 166.260094 
" clip-path="url(#pd9a6b87907)" style="fill: none; stroke: #999999"/>
   </g>
   <g id="line2d_56">
    <path d="M 165.384844 202.620599 
L 201.096844 202.620599 
" clip-path="url(#pd9a6b87907)" style="fill: none; stroke: #999999"/>
   </g>
   <g id="line2d_57">
    <path d="M 343.944844 93.358932 
L 379.656844 93.358932 
" clip-path="url(#pd9a6b87907)" style="fill: none; stroke: #999999"/>
   </g>
   <g id="line2d_58">
    <path d="M 201.096844 236.56059 
L 236.808844 236.56059 
" clip-path="url(#pd9a6b87907)" style="fill: none; stroke: #999999"/>
   </g>
   <g id="line2d_59">
    <path d="M 379.656844 213.11911 
L 415.368844 213.11911 
" clip-path="url(#pd9a6b87907)" style="fill: none; stroke: #999999"/>
   </g>
   <g id="patch_11">
    <path d="M 76.104844 298.308094 
L 76.104844 32.196094 
" style="fill: none; stroke: #000000; stroke-width: 0.8; stroke-linejoin: miter; stroke-linecap: square"/>
   </g>
   <g id="patch_12">
    <path d="M 433.224844 298.308094 
L 433.224844 32.196094 
" style="fill: none; stroke: #000000; stroke-width: 0.8; stroke-linejoin: miter; stroke-linecap: square"/>
   </g>
   <g id="patch_13">
    <path d="M 76.104844 298.308094 
L 433.224844 298.308094 
" style="fill: none; stroke: #000000; stroke-width: 0.8; stroke-linejoin: miter; stroke-linecap: square"/>
   </g>
   <g id="patch_14">
    <path d="M 76.104844 32.196094 
L 433.224844 32.196094 
" style="fill: none; stroke: #000000; stroke-width: 0.8; stroke-linejoin: miter; stroke-linecap: square"/>
   </g>
   <g id="PathCollection_1">
    <defs>
     <path id="C0_0_f532c32ef6" d="M 0 5 
C 1.326016 5 2.597899 4.473168 3.535534 3.535534 
C 4.473168 2.597899 5 1.326016 5 -0 
C 5 -1.326016 4.473168 -2.597899 3.535534 -3.535534 
C 2.597899 -4.473168 1.326016 -5 0 -5 
C -1.326016 -5 -2.597899 -4.473168 -3.535534 -3.535534 
C -4.473168 -2.597899 -5 -1.326016 -5 0 
C -5 1.326016 -4.473168 2.597899 -3.535534 3.535534 
C -2.597899 4.473168 -1.326016 5 0 5 
z
"/>
    </defs>
    <g clip-path="url(#pd9a6b87907)">
     <use xlink:href="#C0_0_f532c32ef6" x="107.974085" y="71.004094" style="fill: #808080; stroke: #000000"/>
    </g>
    <g clip-path="url(#pd9a6b87907)">
     <use xlink:href="#C0_0_f532c32ef6" x="116.058077" y="221.232972" style="fill: #808080; stroke: #000000"/>
    </g>
    <g clip-path="url(#pd9a6b87907)">
     <use xlink:href="#C0_0_f532c32ef6" x="111.978892" y="152.616931" style="fill: #808080; stroke: #000000"/>
    </g>
    <g clip-path="url(#pd9a6b87907)">
     <use xlink:href="#C0_0_f532c32ef6" x="108.34623" y="233.471484" style="fill: #808080; stroke: #000000"/>
    </g>
    <g clip-path="url(#pd9a6b87907)">
     <use xlink:href="#C0_0_f532c32ef6" x="111.288358" y="214.272725" style="fill: #808080; stroke: #000000"/>
    </g>
    <g clip-path="url(#pd9a6b87907)">
     <use xlink:href="#C0_0_f532c32ef6" x="111.478425" y="160.06413" style="fill: #808080; stroke: #000000"/>
    </g>
    <g clip-path="url(#pd9a6b87907)">
     <use xlink:href="#C0_0_f532c32ef6" x="114.452389" y="172.348414" style="fill: #808080; stroke: #000000"/>
    </g>
    <g clip-path="url(#pd9a6b87907)">
     <use xlink:href="#C0_0_f532c32ef6" x="111.068574" y="212.512422" style="fill: #808080; stroke: #000000"/>
    </g>
    <g clip-path="url(#pd9a6b87907)">
     <use xlink:href="#C0_0_f532c32ef6" x="115.220569" y="187.797694" style="fill: #808080; stroke: #000000"/>
    </g>
    <g clip-path="url(#pd9a6b87907)">
     <use xlink:href="#C0_0_f532c32ef6" x="111.815562" y="195.339195" style="fill: #808080; stroke: #000000"/>
    </g>
   </g>
   <g id="PathCollection_2">
    <defs>
     <path id="C1_0_1864883aba" d="M 0 5 
C 1.326016 5 2.597899 4.473168 3.535534 3.535534 
C 4.473168 2.597899 5 1.326016 5 -0 
C 5 -1.326016 4.473168 -2.597899 3.535534 -3.535534 
C 2.597899 -4.473168 1.326016 -5 0 -5 
C -1.326016 -5 -2.597899 -4.473168 -3.535534 -3.535534 
C -4.473168 -2.597899 -5 -1.326016 -5 0 
C -5 1.326016 -4.473168 2.597899 -3.535534 3.535534 
C -2.597899 4.473168 -1.326016 5 0 5 
z
"/>
    </defs>
    <g clip-path="url(#pd9a6b87907)">
     <use xlink:href="#C1_0_1864883aba" x="143.568243" y="251.492094" style="fill: #648fff; stroke: #000000"/>
    </g>
    <g clip-path="url(#pd9a6b87907)">
     <use xlink:href="#C1_0_1864883aba" x="149.792393" y="254.539673" style="fill: #648fff; stroke: #000000"/>
    </g>
    <g clip-path="url(#pd9a6b87907)">
     <use xlink:href="#C1_0_1864883aba" x="147.389329" y="249.390447" style="fill: #648fff; stroke: #000000"/>
    </g>
    <g clip-path="url(#pd9a6b87907)">
     <use xlink:href="#C1_0_1864883aba" x="146.627876" y="261.717694" style="fill: #648fff; stroke: #000000"/>
    </g>
    <g clip-path="url(#pd9a6b87907)">
     <use xlink:href="#C1_0_1864883aba" x="149.167182" y="249.287462" style="fill: #648fff; stroke: #000000"/>
    </g>
    <g clip-path="url(#pd9a6b87907)">
     <use xlink:href="#C1_0_1864883aba" x="147.918945" y="243.792094" style="fill: #648fff; stroke: #000000"/>
    </g>
    <g clip-path="url(#pd9a6b87907)">
     <use xlink:href="#C1_0_1864883aba" x="143.277439" y="248.412094" style="fill: #648fff; stroke: #000000"/>
    </g>
    <g clip-path="url(#pd9a6b87907)">
     <use xlink:href="#C1_0_1864883aba" x="146.717654" y="252.570094" style="fill: #648fff; stroke: #000000"/>
    </g>
    <g clip-path="url(#pd9a6b87907)">
     <use xlink:href="#C1_0_1864883aba" x="148.321663" y="238.908094" style="fill: #648fff; stroke: #000000"/>
    </g>
   </g>
   <g id="PathCollection_3">
    <defs>
     <path id="C2_0_96f4f7b3b5" d="M 0 5 
C 1.326016 5 2.597899 4.473168 3.535534 3.535534 
C 4.473168 2.597899 5 1.326016 5 -0 
C 5 -1.326016 4.473168 -2.597899 3.535534 -3.535534 
C 2.597899 -4.473168 1.326016 -5 0 -5 
C -1.326016 -5 -2.597899 -4.473168 -3.535534 -3.535534 
C -4.473168 -2.597899 -5 -1.326016 -5 0 
C -5 1.326016 -4.473168 2.597899 -3.535534 3.535534 
C -2.597899 4.473168 -1.326016 5 0 5 
z
"/>
    </defs>
    <g clip-path="url(#pd9a6b87907)">
     <use xlink:href="#C2_0_96f4f7b3b5" x="184.852545" y="167.2088" style="fill: #fe6100; stroke: #000000"/>
    </g>
    <g clip-path="url(#pd9a6b87907)">
     <use xlink:href="#C2_0_96f4f7b3b5" x="181.069699" y="225.543094" style="fill: #fe6100; stroke: #000000"/>
    </g>
    <g clip-path="url(#pd9a6b87907)">
     <use xlink:href="#C2_0_96f4f7b3b5" x="182.674307" y="148.083578" style="fill: #fe6100; stroke: #000000"/>
    </g>
    <g clip-path="url(#pd9a6b87907)">
     <use xlink:href="#C2_0_96f4f7b3b5" x="179.017355" y="203.768304" style="fill: #fe6100; stroke: #000000"/>
    </g>
    <g clip-path="url(#pd9a6b87907)">
     <use xlink:href="#C2_0_96f4f7b3b5" x="179.627845" y="169.590876" style="fill: #fe6100; stroke: #000000"/>
    </g>
    <g clip-path="url(#pd9a6b87907)">
     <use xlink:href="#C2_0_96f4f7b3b5" x="185.785886" y="174.207786" style="fill: #fe6100; stroke: #000000"/>
    </g>
    <g clip-path="url(#pd9a6b87907)">
     <use xlink:href="#C2_0_96f4f7b3b5" x="187.380004" y="211.70699" style="fill: #fe6100; stroke: #000000"/>
    </g>
    <g clip-path="url(#pd9a6b87907)">
     <use xlink:href="#C2_0_96f4f7b3b5" x="182.556493" y="221.545017" style="fill: #fe6100; stroke: #000000"/>
    </g>
    <g clip-path="url(#pd9a6b87907)">
     <use xlink:href="#C2_0_96f4f7b3b5" x="184.783796" y="196.248094" style="fill: #fe6100; stroke: #000000"/>
    </g>
    <g clip-path="url(#pd9a6b87907)">
     <use xlink:href="#C2_0_96f4f7b3b5" x="181.393221" y="224.522494" style="fill: #fe6100; stroke: #000000"/>
    </g>
    <g clip-path="url(#pd9a6b87907)">
     <use xlink:href="#C2_0_96f4f7b3b5" x="187.302537" y="201.472894" style="fill: #fe6100; stroke: #000000"/>
    </g>
    <g clip-path="url(#pd9a6b87907)">
     <use xlink:href="#C2_0_96f4f7b3b5" x="180.896411" y="215.148094" style="fill: #fe6100; stroke: #000000"/>
    </g>
   </g>
   <g id="PathCollection_4">
    <defs>
     <path id="C3_0_70211a0ac9" d="M 0 5 
C 1.326016 5 2.597899 4.473168 3.535534 3.535534 
C 4.473168 2.597899 5 1.326016 5 -0 
C 5 -1.326016 4.473168 -2.597899 3.535534 -3.535534 
C 2.597899 -4.473168 1.326016 -5 0 -5 
C -1.326016 -5 -2.597899 -4.473168 -3.535534 -3.535534 
C -4.473168 -2.597899 -5 -1.326016 -5 0 
C -5 1.326016 -4.473168 2.597899 -3.535534 3.535534 
C -2.597899 4.473168 -1.326016 5 0 5 
z
"/>
    </defs>
    <g clip-path="url(#pd9a6b87907)">
     <use xlink:href="#C3_0_70211a0ac9" x="218.913411" y="239.172094" style="fill: #ffb000; stroke: #000000"/>
    </g>
    <g clip-path="url(#pd9a6b87907)">
     <use xlink:href="#C3_0_70211a0ac9" x="218.328178" y="237.502932" style="fill: #ffb000; stroke: #000000"/>
    </g>
    <g clip-path="url(#pd9a6b87907)">
     <use xlink:href="#C3_0_70211a0ac9" x="219.026784" y="235.618248" style="fill: #ffb000; stroke: #000000"/>
    </g>
    <g clip-path="url(#pd9a6b87907)">
     <use xlink:href="#C3_0_70211a0ac9" x="223.287292" y="251.184094" style="fill: #ffb000; stroke: #000000"/>
    </g>
    <g clip-path="url(#pd9a6b87907)">
     <use xlink:href="#C3_0_70211a0ac9" x="219.438873" y="233.137808" style="fill: #ffb000; stroke: #000000"/>
    </g>
    <g clip-path="url(#pd9a6b87907)">
     <use xlink:href="#C3_0_70211a0ac9" x="218.329102" y="234.552094" style="fill: #ffb000; stroke: #000000"/>
    </g>
   </g>
   <g id="PathCollection_5">
    <defs>
     <path id="C4_0_c10b89ec9c" d="M 0 5 
C 1.326016 5 2.597899 4.473168 3.535534 3.535534 
C 4.473168 2.597899 5 1.326016 5 -0 
C 5 -1.326016 4.473168 -2.597899 3.535534 -3.535534 
C 2.597899 -4.473168 1.326016 -5 0 -5 
C -1.326016 -5 -2.597899 -4.473168 -3.535534 -3.535534 
C -4.473168 -2.597899 -5 -1.326016 -5 0 
C -5 1.326016 -4.473168 2.597899 -3.535534 3.535534 
C -2.597899 4.473168 -1.326016 5 0 5 
z
"/>
    </defs>
    <g clip-path="url(#pd9a6b87907)">
     <use xlink:href="#C4_0_c10b89ec9c" x="289.868758" y="186.99327" style="fill: #808080; stroke: #000000"/>
    </g>
    <g clip-path="url(#pd9a6b87907)">
     <use xlink:href="#C4_0_c10b89ec9c" x="286.886521" y="162.430594" style="fill: #808080; stroke: #000000"/>
    </g>
    <g clip-path="url(#pd9a6b87907)">
     <use xlink:href="#C4_0_c10b89ec9c" x="286.897008" y="188.011673" style="fill: #808080; stroke: #000000"/>
    </g>
    <g clip-path="url(#pd9a6b87907)">
     <use xlink:href="#C4_0_c10b89ec9c" x="286.027491" y="215.012874" style="fill: #808080; stroke: #000000"/>
    </g>
    <g clip-path="url(#pd9a6b87907)">
     <use xlink:href="#C4_0_c10b89ec9c" x="286.838414" y="186.289326" style="fill: #808080; stroke: #000000"/>
    </g>
    <g clip-path="url(#pd9a6b87907)">
     <use xlink:href="#C4_0_c10b89ec9c" x="292.47682" y="192.645976" style="fill: #808080; stroke: #000000"/>
    </g>
    <g clip-path="url(#pd9a6b87907)">
     <use xlink:href="#C4_0_c10b89ec9c" x="290.251815" y="195.524094" style="fill: #808080; stroke: #000000"/>
    </g>
    <g clip-path="url(#pd9a6b87907)">
     <use xlink:href="#C4_0_c10b89ec9c" x="288.007012" y="215.871224" style="fill: #808080; stroke: #000000"/>
    </g>
    <g clip-path="url(#pd9a6b87907)">
     <use xlink:href="#C4_0_c10b89ec9c" x="291.52291" y="192.625594" style="fill: #808080; stroke: #000000"/>
    </g>
    <g clip-path="url(#pd9a6b87907)">
     <use xlink:href="#C4_0_c10b89ec9c" x="286.194715" y="211.434152" style="fill: #808080; stroke: #000000"/>
    </g>
   </g>
   <g id="PathCollection_6">
    <defs>
     <path id="C5_0_1757703ecd" d="M 0 5 
C 1.326016 5 2.597899 4.473168 3.535534 3.535534 
C 4.473168 2.597899 5 1.326016 5 -0 
C 5 -1.326016 4.473168 -2.597899 3.535534 -3.535534 
C 2.597899 -4.473168 1.326016 -5 0 -5 
C -1.326016 -5 -2.597899 -4.473168 -3.535534 -3.535534 
C -4.473168 -2.597899 -5 -1.326016 -5 0 
C -5 1.326016 -4.473168 2.597899 -3.535534 3.535534 
C -2.597899 4.473168 -1.326016 5 0 5 
z
"/>
    </defs>
    <g clip-path="url(#pd9a6b87907)">
     <use xlink:href="#C5_0_1757703ecd" x="325.331533" y="81.216725" style="fill: #648fff; stroke: #000000"/>
    </g>
    <g clip-path="url(#pd9a6b87907)">
     <use xlink:href="#C5_0_1757703ecd" x="327.204794" y="203.713594" style="fill: #648fff; stroke: #000000"/>
    </g>
    <g clip-path="url(#pd9a6b87907)">
     <use xlink:href="#C5_0_1757703ecd" x="323.931926" y="166.260094" style="fill: #648fff; stroke: #000000"/>
    </g>
   </g>
   <g id="PathCollection_7">
    <defs>
     <path id="C6_0_5b6a292feb" d="M 0 5 
C 1.326016 5 2.597899 4.473168 3.535534 3.535534 
C 4.473168 2.597899 5 1.326016 5 -0 
C 5 -1.326016 4.473168 -2.597899 3.535534 -3.535534 
C 2.597899 -4.473168 1.326016 -5 0 -5 
C -1.326016 -5 -2.597899 -4.473168 -3.535534 -3.535534 
C -4.473168 -2.597899 -5 -1.326016 -5 0 
C -5 1.326016 -4.473168 2.597899 -3.535534 3.535534 
C -2.597899 4.473168 -1.326016 5 0 5 
z
"/>
    </defs>
    <g clip-path="url(#pd9a6b87907)">
     <use xlink:href="#C6_0_5b6a292feb" x="358.398933" y="138.918094" style="fill: #fe6100; stroke: #000000"/>
    </g>
    <g clip-path="url(#pd9a6b87907)">
     <use xlink:href="#C6_0_5b6a292feb" x="363.687165" y="93.358932" style="fill: #fe6100; stroke: #000000"/>
    </g>
    <g clip-path="url(#pd9a6b87907)">
     <use xlink:href="#C6_0_5b6a292feb" x="365.756823" y="76.548094" style="fill: #fe6100; stroke: #000000"/>
    </g>
   </g>
   <g id="PathCollection_8">
    <defs>
     <path id="C7_0_d2627ad7a6" d="M 0 5 
C 1.326016 5 2.597899 4.473168 3.535534 3.535534 
C 4.473168 2.597899 5 1.326016 5 -0 
C 5 -1.326016 4.473168 -2.597899 3.535534 -3.535534 
C 2.597899 -4.473168 1.326016 -5 0 -5 
C -1.326016 -5 -2.597899 -4.473168 -3.535534 -3.535534 
C -4.473168 -2.597899 -5 -1.326016 -5 0 
C -5 1.326016 -4.473168 2.597899 -3.535534 3.535534 
C -2.597899 4.473168 -1.326016 5 0 5 
z
"/>
    </defs>
    <g clip-path="url(#pd9a6b87907)">
     <use xlink:href="#C7_0_d2627ad7a6" x="393.88649" y="225.89266" style="fill: #ffb000; stroke: #000000"/>
    </g>
    <g clip-path="url(#pd9a6b87907)">
     <use xlink:href="#C7_0_d2627ad7a6" x="400.081362" y="211.908094" style="fill: #ffb000; stroke: #000000"/>
    </g>
    <g clip-path="url(#pd9a6b87907)">
     <use xlink:href="#C7_0_d2627ad7a6" x="398.940293" y="214.330127" style="fill: #ffb000; stroke: #000000"/>
    </g>
    <g clip-path="url(#pd9a6b87907)">
     <use xlink:href="#C7_0_d2627ad7a6" x="399.150768" y="194.442951" style="fill: #ffb000; stroke: #000000"/>
    </g>
   </g>
   <g id="line2d_60"/>
   <g id="line2d_61"/>
   <g id="line2d_62"/>
   <g id="line2d_63"/>
   <g id="text_13">
    <!-- p = 0.0 -->
    <g transform="translate(129.035094 205.644094) scale(0.1 -0.1)">
     <defs>
      <path id="DejaVuSans-20" transform="scale(0.015625)"/>
      <path id="DejaVuSans-3d" d="M 678 2906 
L 4684 2906 
L 4684 2381 
L 678 2381 
L 678 2906 
z
M 678 1631 
L 4684 1631 
L 4684 1100 
L 678 1100 
L 678 1631 
z
" transform="scale(0.015625)"/>
      <path id="DejaVuSans-2e" d="M 684 794 
L 1344 794 
L 1344 0 
L 684 0 
L 684 794 
z
" transform="scale(0.015625)"/>
     </defs>
     <use xlink:href="#DejaVuSans-70"/>
     <use xlink:href="#DejaVuSans-20" x="63.476562"/>
     <use xlink:href="#DejaVuSans-3d" x="95.263672"/>
     <use xlink:href="#DejaVuSans-20" x="179.052734"/>
     <use xlink:href="#DejaVuSans-30" x="210.839844"/>
     <use xlink:href="#DejaVuSans-2e" x="274.462891"/>
     <use xlink:href="#DejaVuSans-30" x="306.25"/>
    </g>
   </g>
   <g id="text_14">
    <!-- p = 0.395 -->
    <g transform="translate(158.384594 81.555578) scale(0.1 -0.1)">
     <defs>
      <path id="DejaVuSans-39" d="M 703 97 
L 703 672 
Q 941 559 1184 500 
Q 1428 441 1663 441 
Q 2288 441 2617 861 
Q 2947 1281 2994 2138 
Q 2813 1869 2534 1725 
Q 2256 1581 1919 1581 
Q 1219 1581 811 2004 
Q 403 2428 403 3163 
Q 403 3881 828 4315 
Q 1253 4750 1959 4750 
Q 2769 4750 3195 4129 
Q 3622 3509 3622 2328 
Q 3622 1225 3098 567 
Q 2575 -91 1691 -91 
Q 1453 -91 1209 -44 
Q 966 3 703 97 
z
M 1959 2075 
Q 2384 2075 2632 2365 
Q 2881 2656 2881 3163 
Q 2881 3666 2632 3958 
Q 2384 4250 1959 4250 
Q 1534 4250 1286 3958 
Q 1038 3666 1038 3163 
Q 1038 2656 1286 2365 
Q 1534 2075 1959 2075 
z
" transform="scale(0.015625)"/>
     </defs>
     <use xlink:href="#DejaVuSans-70"/>
     <use xlink:href="#DejaVuSans-20" x="63.476562"/>
     <use xlink:href="#DejaVuSans-3d" x="95.263672"/>
     <use xlink:href="#DejaVuSans-20" x="179.052734"/>
     <use xlink:href="#DejaVuSans-30" x="210.839844"/>
     <use xlink:href="#DejaVuSans-2e" x="274.462891"/>
     <use xlink:href="#DejaVuSans-33" x="306.25"/>
     <use xlink:href="#DejaVuSans-39" x="369.873047"/>
     <use xlink:href="#DejaVuSans-35" x="433.496094"/>
    </g>
   </g>
   <g id="text_15">
    <!-- p = 0.002 -->
    <g transform="translate(194.096594 199.873808) scale(0.1 -0.1)">
     <use xlink:href="#DejaVuSans-70"/>
     <use xlink:href="#DejaVuSans-20" x="63.476562"/>
     <use xlink:href="#DejaVuSans-3d" x="95.263672"/>
     <use xlink:href="#DejaVuSans-20" x="179.052734"/>
     <use xlink:href="#DejaVuSans-30" x="210.839844"/>
     <use xlink:href="#DejaVuSans-2e" x="274.462891"/>
     <use xlink:href="#DejaVuSans-30" x="306.25"/>
     <use xlink:href="#DejaVuSans-30" x="369.873047"/>
     <use xlink:href="#DejaVuSans-32" x="433.496094"/>
    </g>
   </g>
   <g id="text_16">
    <!-- p = 0.252 -->
    <g transform="translate(301.232594 64.584725) scale(0.1 -0.1)">
     <use xlink:href="#DejaVuSans-70"/>
     <use xlink:href="#DejaVuSans-20" x="63.476562"/>
     <use xlink:href="#DejaVuSans-3d" x="95.263672"/>
     <use xlink:href="#DejaVuSans-20" x="179.052734"/>
     <use xlink:href="#DejaVuSans-30" x="210.839844"/>
     <use xlink:href="#DejaVuSans-2e" x="274.462891"/>
     <use xlink:href="#DejaVuSans-32" x="306.25"/>
     <use xlink:href="#DejaVuSans-35" x="369.873047"/>
     <use xlink:href="#DejaVuSans-32" x="433.496094"/>
    </g>
   </g>
   <g id="text_17">
    <!-- p = 0.001 -->
    <g transform="translate(336.944594 59.916094) scale(0.1 -0.1)">
     <use xlink:href="#DejaVuSans-70"/>
     <use xlink:href="#DejaVuSans-20" x="63.476562"/>
     <use xlink:href="#DejaVuSans-3d" x="95.263672"/>
     <use xlink:href="#DejaVuSans-20" x="179.052734"/>
     <use xlink:href="#DejaVuSans-30" x="210.839844"/>
     <use xlink:href="#DejaVuSans-2e" x="274.462891"/>
     <use xlink:href="#DejaVuSans-30" x="306.25"/>
     <use xlink:href="#DejaVuSans-30" x="369.873047"/>
     <use xlink:href="#DejaVuSans-31" x="433.496094"/>
    </g>
   </g>
   <g id="text_18">
    <!-- p = 0.063 -->
    <g transform="translate(372.656594 177.810951) scale(0.1 -0.1)">
     <use xlink:href="#DejaVuSans-70"/>
     <use xlink:href="#DejaVuSans-20" x="63.476562"/>
     <use xlink:href="#DejaVuSans-3d" x="95.263672"/>
     <use xlink:href="#DejaVuSans-20" x="179.052734"/>
     <use xlink:href="#DejaVuSans-30" x="210.839844"/>
     <use xlink:href="#DejaVuSans-2e" x="274.462891"/>
     <use xlink:href="#DejaVuSans-30" x="306.25"/>
     <use xlink:href="#DejaVuSans-36" x="369.873047"/>
     <use xlink:href="#DejaVuSans-33" x="433.496094"/>
    </g>
   </g>
   <g id="text_19">
    <!-- AC/Cytoplasm Cherry::Jupiter Ratio -->
    <g transform="translate(7.2 26.196094) scale(0.25 -0.25)">
     <defs>
      <path id="DejaVuSans-Bold-41" d="M 3419 850 
L 1538 850 
L 1241 0 
L 31 0 
L 1759 4666 
L 3194 4666 
L 4922 0 
L 3713 0 
L 3419 850 
z
M 1838 1716 
L 3116 1716 
L 2478 3572 
L 1838 1716 
z
" transform="scale(0.015625)"/>
      <path id="DejaVuSans-Bold-43" d="M 4288 256 
Q 3956 84 3597 -3 
Q 3238 -91 2847 -91 
Q 1681 -91 1000 561 
Q 319 1213 319 2328 
Q 319 3447 1000 4098 
Q 1681 4750 2847 4750 
Q 3238 4750 3597 4662 
Q 3956 4575 4288 4403 
L 4288 3438 
Q 3953 3666 3628 3772 
Q 3303 3878 2944 3878 
Q 2300 3878 1931 3465 
Q 1563 3053 1563 2328 
Q 1563 1606 1931 1193 
Q 2300 781 2944 781 
Q 3303 781 3628 887 
Q 3953 994 4288 1222 
L 4288 256 
z
" transform="scale(0.015625)"/>
      <path id="DejaVuSans-Bold-2f" d="M 1644 4666 
L 2338 4666 
L 691 -594 
L 0 -594 
L 1644 4666 
z
" transform="scale(0.015625)"/>
      <path id="DejaVuSans-Bold-79" d="M 78 3500 
L 1197 3500 
L 2138 1125 
L 2938 3500 
L 4056 3500 
L 2584 -331 
Q 2363 -916 2067 -1148 
Q 1772 -1381 1288 -1381 
L 641 -1381 
L 641 -647 
L 991 -647 
Q 1275 -647 1404 -556 
Q 1534 -466 1606 -231 
L 1638 -134 
L 78 3500 
z
" transform="scale(0.015625)"/>
      <path id="DejaVuSans-Bold-74" d="M 1759 4494 
L 1759 3500 
L 2913 3500 
L 2913 2700 
L 1759 2700 
L 1759 1216 
Q 1759 972 1856 886 
Q 1953 800 2241 800 
L 2816 800 
L 2816 0 
L 1856 0 
Q 1194 0 917 276 
Q 641 553 641 1216 
L 641 2700 
L 84 2700 
L 84 3500 
L 641 3500 
L 641 4494 
L 1759 4494 
z
" transform="scale(0.015625)"/>
      <path id="DejaVuSans-Bold-6f" d="M 2203 2784 
Q 1831 2784 1636 2517 
Q 1441 2250 1441 1747 
Q 1441 1244 1636 976 
Q 1831 709 2203 709 
Q 2569 709 2762 976 
Q 2956 1244 2956 1747 
Q 2956 2250 2762 2517 
Q 2569 2784 2203 2784 
z
M 2203 3584 
Q 3106 3584 3614 3096 
Q 4122 2609 4122 1747 
Q 4122 884 3614 396 
Q 3106 -91 2203 -91 
Q 1297 -91 786 396 
Q 275 884 275 1747 
Q 275 2609 786 3096 
Q 1297 3584 2203 3584 
z
" transform="scale(0.015625)"/>
      <path id="DejaVuSans-Bold-70" d="M 1656 506 
L 1656 -1331 
L 538 -1331 
L 538 3500 
L 1656 3500 
L 1656 2988 
Q 1888 3294 2169 3439 
Q 2450 3584 2816 3584 
Q 3463 3584 3878 3070 
Q 4294 2556 4294 1747 
Q 4294 938 3878 423 
Q 3463 -91 2816 -91 
Q 2450 -91 2169 54 
Q 1888 200 1656 506 
z
M 2400 2772 
Q 2041 2772 1848 2508 
Q 1656 2244 1656 1747 
Q 1656 1250 1848 986 
Q 2041 722 2400 722 
Q 2759 722 2948 984 
Q 3138 1247 3138 1747 
Q 3138 2247 2948 2509 
Q 2759 2772 2400 2772 
z
" transform="scale(0.015625)"/>
      <path id="DejaVuSans-Bold-6c" d="M 538 4863 
L 1656 4863 
L 1656 0 
L 538 0 
L 538 4863 
z
" transform="scale(0.015625)"/>
      <path id="DejaVuSans-Bold-61" d="M 2106 1575 
Q 1756 1575 1579 1456 
Q 1403 1338 1403 1106 
Q 1403 894 1545 773 
Q 1688 653 1941 653 
Q 2256 653 2472 879 
Q 2688 1106 2688 1447 
L 2688 1575 
L 2106 1575 
z
M 3816 1997 
L 3816 0 
L 2688 0 
L 2688 519 
Q 2463 200 2181 54 
Q 1900 -91 1497 -91 
Q 953 -91 614 226 
Q 275 544 275 1050 
Q 275 1666 698 1953 
Q 1122 2241 2028 2241 
L 2688 2241 
L 2688 2328 
Q 2688 2594 2478 2717 
Q 2269 2841 1825 2841 
Q 1466 2841 1156 2769 
Q 847 2697 581 2553 
L 581 3406 
Q 941 3494 1303 3539 
Q 1666 3584 2028 3584 
Q 2975 3584 3395 3211 
Q 3816 2838 3816 1997 
z
" transform="scale(0.015625)"/>
      <path id="DejaVuSans-Bold-73" d="M 3272 3391 
L 3272 2541 
Q 2913 2691 2578 2766 
Q 2244 2841 1947 2841 
Q 1628 2841 1473 2761 
Q 1319 2681 1319 2516 
Q 1319 2381 1436 2309 
Q 1553 2238 1856 2203 
L 2053 2175 
Q 2913 2066 3209 1816 
Q 3506 1566 3506 1031 
Q 3506 472 3093 190 
Q 2681 -91 1863 -91 
Q 1516 -91 1145 -36 
Q 775 19 384 128 
L 384 978 
Q 719 816 1070 734 
Q 1422 653 1784 653 
Q 2113 653 2278 743 
Q 2444 834 2444 1013 
Q 2444 1163 2330 1236 
Q 2216 1309 1875 1350 
L 1678 1375 
Q 931 1469 631 1722 
Q 331 1975 331 2491 
Q 331 3047 712 3315 
Q 1094 3584 1881 3584 
Q 2191 3584 2531 3537 
Q 2872 3491 3272 3391 
z
" transform="scale(0.015625)"/>
      <path id="DejaVuSans-Bold-6d" d="M 3781 2919 
Q 3994 3244 4286 3414 
Q 4578 3584 4928 3584 
Q 5531 3584 5847 3212 
Q 6163 2841 6163 2131 
L 6163 0 
L 5038 0 
L 5038 1825 
Q 5041 1866 5042 1909 
Q 5044 1953 5044 2034 
Q 5044 2406 4934 2573 
Q 4825 2741 4581 2741 
Q 4263 2741 4089 2478 
Q 3916 2216 3909 1719 
L 3909 0 
L 2784 0 
L 2784 1825 
Q 2784 2406 2684 2573 
Q 2584 2741 2328 2741 
Q 2006 2741 1831 2477 
Q 1656 2213 1656 1722 
L 1656 0 
L 531 0 
L 531 3500 
L 1656 3500 
L 1656 2988 
Q 1863 3284 2130 3434 
Q 2397 3584 2719 3584 
Q 3081 3584 3359 3409 
Q 3638 3234 3781 2919 
z
" transform="scale(0.015625)"/>
      <path id="DejaVuSans-Bold-20" transform="scale(0.015625)"/>
      <path id="DejaVuSans-Bold-68" d="M 4056 2131 
L 4056 0 
L 2931 0 
L 2931 347 
L 2931 1625 
Q 2931 2084 2911 2256 
Q 2891 2428 2841 2509 
Q 2775 2619 2662 2680 
Q 2550 2741 2406 2741 
Q 2056 2741 1856 2470 
Q 1656 2200 1656 1722 
L 1656 0 
L 538 0 
L 538 4863 
L 1656 4863 
L 1656 2988 
Q 1909 3294 2193 3439 
Q 2478 3584 2822 3584 
Q 3428 3584 3742 3212 
Q 4056 2841 4056 2131 
z
" transform="scale(0.015625)"/>
      <path id="DejaVuSans-Bold-65" d="M 4031 1759 
L 4031 1441 
L 1416 1441 
Q 1456 1047 1700 850 
Q 1944 653 2381 653 
Q 2734 653 3104 758 
Q 3475 863 3866 1075 
L 3866 213 
Q 3469 63 3072 -14 
Q 2675 -91 2278 -91 
Q 1328 -91 801 392 
Q 275 875 275 1747 
Q 275 2603 792 3093 
Q 1309 3584 2216 3584 
Q 3041 3584 3536 3087 
Q 4031 2591 4031 1759 
z
M 2881 2131 
Q 2881 2450 2695 2645 
Q 2509 2841 2209 2841 
Q 1884 2841 1681 2658 
Q 1478 2475 1428 2131 
L 2881 2131 
z
" transform="scale(0.015625)"/>
      <path id="DejaVuSans-Bold-72" d="M 3138 2547 
Q 2991 2616 2845 2648 
Q 2700 2681 2553 2681 
Q 2122 2681 1889 2404 
Q 1656 2128 1656 1613 
L 1656 0 
L 538 0 
L 538 3500 
L 1656 3500 
L 1656 2925 
Q 1872 3269 2151 3426 
Q 2431 3584 2822 3584 
Q 2878 3584 2943 3579 
Q 3009 3575 3134 3559 
L 3138 2547 
z
" transform="scale(0.015625)"/>
      <path id="DejaVuSans-Bold-3a" d="M 716 3500 
L 1844 3500 
L 1844 2291 
L 716 2291 
L 716 3500 
z
M 716 1209 
L 1844 1209 
L 1844 0 
L 716 0 
L 716 1209 
z
" transform="scale(0.015625)"/>
      <path id="DejaVuSans-Bold-4a" d="M 588 4666 
L 1791 4666 
L 1791 453 
Q 1791 -419 1317 -850 
Q 844 -1281 -116 -1281 
L -359 -1281 
L -359 -372 
L -172 -372 
Q 203 -372 395 -162 
Q 588 47 588 453 
L 588 4666 
z
" transform="scale(0.015625)"/>
      <path id="DejaVuSans-Bold-75" d="M 500 1363 
L 500 3500 
L 1625 3500 
L 1625 3150 
Q 1625 2866 1622 2436 
Q 1619 2006 1619 1863 
Q 1619 1441 1641 1255 
Q 1663 1069 1716 984 
Q 1784 875 1895 815 
Q 2006 756 2150 756 
Q 2500 756 2700 1025 
Q 2900 1294 2900 1772 
L 2900 3500 
L 4019 3500 
L 4019 0 
L 2900 0 
L 2900 506 
Q 2647 200 2364 54 
Q 2081 -91 1741 -91 
Q 1134 -91 817 281 
Q 500 653 500 1363 
z
" transform="scale(0.015625)"/>
      <path id="DejaVuSans-Bold-69" d="M 538 3500 
L 1656 3500 
L 1656 0 
L 538 0 
L 538 3500 
z
M 538 4863 
L 1656 4863 
L 1656 3950 
L 538 3950 
L 538 4863 
z
" transform="scale(0.015625)"/>
      <path id="DejaVuSans-Bold-52" d="M 2297 2597 
Q 2675 2597 2839 2737 
Q 3003 2878 3003 3200 
Q 3003 3519 2839 3656 
Q 2675 3794 2297 3794 
L 1791 3794 
L 1791 2597 
L 2297 2597 
z
M 1791 1766 
L 1791 0 
L 588 0 
L 588 4666 
L 2425 4666 
Q 3347 4666 3776 4356 
Q 4206 4047 4206 3378 
Q 4206 2916 3982 2619 
Q 3759 2322 3309 2181 
Q 3556 2125 3751 1926 
Q 3947 1728 4147 1325 
L 4800 0 
L 3519 0 
L 2950 1159 
Q 2778 1509 2601 1637 
Q 2425 1766 2131 1766 
L 1791 1766 
z
" transform="scale(0.015625)"/>
     </defs>
     <use xlink:href="#DejaVuSans-Bold-41"/>
     <use xlink:href="#DejaVuSans-Bold-43" x="77.392578"/>
     <use xlink:href="#DejaVuSans-Bold-2f" x="150.78125"/>
     <use xlink:href="#DejaVuSans-Bold-43" x="187.304688"/>
     <use xlink:href="#DejaVuSans-Bold-79" x="260.693359"/>
     <use xlink:href="#DejaVuSans-Bold-74" x="325.878906"/>
     <use xlink:href="#DejaVuSans-Bold-6f" x="373.681641"/>
     <use xlink:href="#DejaVuSans-Bold-70" x="442.382812"/>
     <use xlink:href="#DejaVuSans-Bold-6c" x="513.964844"/>
     <use xlink:href="#DejaVuSans-Bold-61" x="548.242188"/>
     <use xlink:href="#DejaVuSans-Bold-73" x="615.722656"/>
     <use xlink:href="#DejaVuSans-Bold-6d" x="675.244141"/>
     <use xlink:href="#DejaVuSans-Bold-20" x="779.443359"/>
     <use xlink:href="#DejaVuSans-Bold-43" x="814.257812"/>
     <use xlink:href="#DejaVuSans-Bold-68" x="887.646484"/>
     <use xlink:href="#DejaVuSans-Bold-65" x="958.837891"/>
     <use xlink:href="#DejaVuSans-Bold-72" x="1026.660156"/>
     <use xlink:href="#DejaVuSans-Bold-72" x="1075.976562"/>
     <use xlink:href="#DejaVuSans-Bold-79" x="1125.292969"/>
     <use xlink:href="#DejaVuSans-Bold-3a" x="1190.478516"/>
     <use xlink:href="#DejaVuSans-Bold-3a" x="1230.46875"/>
     <use xlink:href="#DejaVuSans-Bold-4a" x="1270.458984"/>
     <use xlink:href="#DejaVuSans-Bold-75" x="1307.666016"/>
     <use xlink:href="#DejaVuSans-Bold-70" x="1378.857422"/>
     <use xlink:href="#DejaVuSans-Bold-69" x="1450.439453"/>
     <use xlink:href="#DejaVuSans-Bold-74" x="1484.716797"/>
     <use xlink:href="#DejaVuSans-Bold-65" x="1532.519531"/>
     <use xlink:href="#DejaVuSans-Bold-72" x="1600.341797"/>
     <use xlink:href="#DejaVuSans-Bold-20" x="1649.658203"/>
     <use xlink:href="#DejaVuSans-Bold-52" x="1684.472656"/>
     <use xlink:href="#DejaVuSans-Bold-61" x="1761.474609"/>
     <use xlink:href="#DejaVuSans-Bold-74" x="1828.955078"/>
     <use xlink:href="#DejaVuSans-Bold-69" x="1876.757812"/>
     <use xlink:href="#DejaVuSans-Bold-6f" x="1911.035156"/>
    </g>
   </g>
   <g id="legend_1">
    <g id="patch_15">
     <path d="M 440.224844 98.908594 
L 579.712344 98.908594 
Q 581.712344 98.908594 581.712344 96.908594 
L 581.712344 39.196094 
Q 581.712344 37.196094 579.712344 37.196094 
L 440.224844 37.196094 
Q 438.224844 37.196094 438.224844 39.196094 
L 438.224844 96.908594 
Q 438.224844 98.908594 440.224844 98.908594 
z
" style="fill: #ffffff; opacity: 0.8; stroke: #cccccc; stroke-linejoin: miter"/>
    </g>
    <g id="line2d_64">
     <defs>
      <path id="m60989434f0" d="M 0 5 
C 1.326016 5 2.597899 4.473168 3.535534 3.535534 
C 4.473168 2.597899 5 1.326016 5 0 
C 5 -1.326016 4.473168 -2.597899 3.535534 -3.535534 
C 2.597899 -4.473168 1.326016 -5 0 -5 
C -1.326016 -5 -2.597899 -4.473168 -3.535534 -3.535534 
C -4.473168 -2.597899 -5 -1.326016 -5 0 
C -5 1.326016 -4.473168 2.597899 -3.535534 3.535534 
C -2.597899 4.473168 -1.326016 5 0 5 
z
" style="stroke: #000000"/>
     </defs>
     <g>
      <use xlink:href="#m60989434f0" x="452.224844" y="45.294531" style="fill: #808080; stroke: #000000"/>
     </g>
    </g>
    <g id="text_20">
     <!-- WT -->
     <g transform="translate(470.224844 48.794531) scale(0.1 -0.1)">
      <defs>
       <path id="DejaVuSans-57" d="M 213 4666 
L 850 4666 
L 1831 722 
L 2809 4666 
L 3519 4666 
L 4500 722 
L 5478 4666 
L 6119 4666 
L 4947 0 
L 4153 0 
L 3169 4050 
L 2175 0 
L 1381 0 
L 213 4666 
z
" transform="scale(0.015625)"/>
       <path id="DejaVuSans-54" d="M -19 4666 
L 3928 4666 
L 3928 4134 
L 2272 4134 
L 2272 0 
L 1638 0 
L 1638 4134 
L -19 4134 
L -19 4666 
z
" transform="scale(0.015625)"/>
      </defs>
      <use xlink:href="#DejaVuSans-57"/>
      <use xlink:href="#DejaVuSans-54" x="98.876953"/>
     </g>
    </g>
    <g id="line2d_65">
     <defs>
      <path id="m7cc363d089" d="M 0 5 
C 1.326016 5 2.597899 4.473168 3.535534 3.535534 
C 4.473168 2.597899 5 1.326016 5 0 
C 5 -1.326016 4.473168 -2.597899 3.535534 -3.535534 
C 2.597899 -4.473168 1.326016 -5 0 -5 
C -1.326016 -5 -2.597899 -4.473168 -3.535534 -3.535534 
C -4.473168 -2.597899 -5 -1.326016 -5 0 
C -5 1.326016 -4.473168 2.597899 -3.535534 3.535534 
C -2.597899 4.473168 -1.326016 5 0 5 
z
" style="stroke: #000000"/>
     </defs>
     <g>
      <use xlink:href="#m7cc363d089" x="452.224844" y="59.972656" style="fill: #648fff; stroke: #000000"/>
     </g>
    </g>
    <g id="text_21">
     <!-- cdk1 RNAi, 0X MTOC -->
     <g transform="translate(470.224844 63.472656) scale(0.1 -0.1)">
      <defs>
       <path id="DejaVuSans-63" d="M 3122 3366 
L 3122 2828 
Q 2878 2963 2633 3030 
Q 2388 3097 2138 3097 
Q 1578 3097 1268 2742 
Q 959 2388 959 1747 
Q 959 1106 1268 751 
Q 1578 397 2138 397 
Q 2388 397 2633 464 
Q 2878 531 3122 666 
L 3122 134 
Q 2881 22 2623 -34 
Q 2366 -91 2075 -91 
Q 1284 -91 818 406 
Q 353 903 353 1747 
Q 353 2603 823 3093 
Q 1294 3584 2113 3584 
Q 2378 3584 2631 3529 
Q 2884 3475 3122 3366 
z
" transform="scale(0.015625)"/>
       <path id="DejaVuSans-64" d="M 2906 2969 
L 2906 4863 
L 3481 4863 
L 3481 0 
L 2906 0 
L 2906 525 
Q 2725 213 2448 61 
Q 2172 -91 1784 -91 
Q 1150 -91 751 415 
Q 353 922 353 1747 
Q 353 2572 751 3078 
Q 1150 3584 1784 3584 
Q 2172 3584 2448 3432 
Q 2725 3281 2906 2969 
z
M 947 1747 
Q 947 1113 1208 752 
Q 1469 391 1925 391 
Q 2381 391 2643 752 
Q 2906 1113 2906 1747 
Q 2906 2381 2643 2742 
Q 2381 3103 1925 3103 
Q 1469 3103 1208 2742 
Q 947 2381 947 1747 
z
" transform="scale(0.015625)"/>
       <path id="DejaVuSans-6b" d="M 581 4863 
L 1159 4863 
L 1159 1991 
L 2875 3500 
L 3609 3500 
L 1753 1863 
L 3688 0 
L 2938 0 
L 1159 1709 
L 1159 0 
L 581 0 
L 581 4863 
z
" transform="scale(0.015625)"/>
       <path id="DejaVuSans-4e" d="M 628 4666 
L 1478 4666 
L 3547 763 
L 3547 4666 
L 4159 4666 
L 4159 0 
L 3309 0 
L 1241 3903 
L 1241 0 
L 628 0 
L 628 4666 
z
" transform="scale(0.015625)"/>
       <path id="DejaVuSans-41" d="M 2188 4044 
L 1331 1722 
L 3047 1722 
L 2188 4044 
z
M 1831 4666 
L 2547 4666 
L 4325 0 
L 3669 0 
L 3244 1197 
L 1141 1197 
L 716 0 
L 50 0 
L 1831 4666 
z
" transform="scale(0.015625)"/>
       <path id="DejaVuSans-2c" d="M 750 794 
L 1409 794 
L 1409 256 
L 897 -744 
L 494 -744 
L 750 256 
L 750 794 
z
" transform="scale(0.015625)"/>
       <path id="DejaVuSans-58" d="M 403 4666 
L 1081 4666 
L 2241 2931 
L 3406 4666 
L 4084 4666 
L 2584 2425 
L 4184 0 
L 3506 0 
L 2194 1984 
L 872 0 
L 191 0 
L 1856 2491 
L 403 4666 
z
" transform="scale(0.015625)"/>
       <path id="DejaVuSans-4d" d="M 628 4666 
L 1569 4666 
L 2759 1491 
L 3956 4666 
L 4897 4666 
L 4897 0 
L 4281 0 
L 4281 4097 
L 3078 897 
L 2444 897 
L 1241 4097 
L 1241 0 
L 628 0 
L 628 4666 
z
" transform="scale(0.015625)"/>
       <path id="DejaVuSans-4f" d="M 2522 4238 
Q 1834 4238 1429 3725 
Q 1025 3213 1025 2328 
Q 1025 1447 1429 934 
Q 1834 422 2522 422 
Q 3209 422 3611 934 
Q 4013 1447 4013 2328 
Q 4013 3213 3611 3725 
Q 3209 4238 2522 4238 
z
M 2522 4750 
Q 3503 4750 4090 4092 
Q 4678 3434 4678 2328 
Q 4678 1225 4090 567 
Q 3503 -91 2522 -91 
Q 1538 -91 948 565 
Q 359 1222 359 2328 
Q 359 3434 948 4092 
Q 1538 4750 2522 4750 
z
" transform="scale(0.015625)"/>
       <path id="DejaVuSans-43" d="M 4122 4306 
L 4122 3641 
Q 3803 3938 3442 4084 
Q 3081 4231 2675 4231 
Q 1875 4231 1450 3742 
Q 1025 3253 1025 2328 
Q 1025 1406 1450 917 
Q 1875 428 2675 428 
Q 3081 428 3442 575 
Q 3803 722 4122 1019 
L 4122 359 
Q 3791 134 3420 21 
Q 3050 -91 2638 -91 
Q 1578 -91 968 557 
Q 359 1206 359 2328 
Q 359 3453 968 4101 
Q 1578 4750 2638 4750 
Q 3056 4750 3426 4639 
Q 3797 4528 4122 4306 
z
" transform="scale(0.015625)"/>
      </defs>
      <use xlink:href="#DejaVuSans-63"/>
      <use xlink:href="#DejaVuSans-64" x="54.980469"/>
      <use xlink:href="#DejaVuSans-6b" x="118.457031"/>
      <use xlink:href="#DejaVuSans-31" x="176.367188"/>
      <use xlink:href="#DejaVuSans-20" x="239.990234"/>
      <use xlink:href="#DejaVuSans-52" x="271.777344"/>
      <use xlink:href="#DejaVuSans-4e" x="341.259766"/>
      <use xlink:href="#DejaVuSans-41" x="416.064453"/>
      <use xlink:href="#DejaVuSans-69" x="484.472656"/>
      <use xlink:href="#DejaVuSans-2c" x="512.255859"/>
      <use xlink:href="#DejaVuSans-20" x="544.042969"/>
      <use xlink:href="#DejaVuSans-30" x="575.830078"/>
      <use xlink:href="#DejaVuSans-58" x="639.453125"/>
      <use xlink:href="#DejaVuSans-20" x="707.958984"/>
      <use xlink:href="#DejaVuSans-4d" x="739.746094"/>
      <use xlink:href="#DejaVuSans-54" x="826.025391"/>
      <use xlink:href="#DejaVuSans-4f" x="887.109375"/>
      <use xlink:href="#DejaVuSans-43" x="965.820312"/>
     </g>
    </g>
    <g id="line2d_66">
     <defs>
      <path id="m5408a515fe" d="M 0 5 
C 1.326016 5 2.597899 4.473168 3.535534 3.535534 
C 4.473168 2.597899 5 1.326016 5 0 
C 5 -1.326016 4.473168 -2.597899 3.535534 -3.535534 
C 2.597899 -4.473168 1.326016 -5 0 -5 
C -1.326016 -5 -2.597899 -4.473168 -3.535534 -3.535534 
C -4.473168 -2.597899 -5 -1.326016 -5 0 
C -5 1.326016 -4.473168 2.597899 -3.535534 3.535534 
C -2.597899 4.473168 -1.326016 5 0 5 
z
" style="stroke: #000000"/>
     </defs>
     <g>
      <use xlink:href="#m5408a515fe" x="452.224844" y="74.650781" style="fill: #fe6100; stroke: #000000"/>
     </g>
    </g>
    <g id="text_22">
     <!-- cdk1 RNAi, 2X MTOC -->
     <g transform="translate(470.224844 78.150781) scale(0.1 -0.1)">
      <use xlink:href="#DejaVuSans-63"/>
      <use xlink:href="#DejaVuSans-64" x="54.980469"/>
      <use xlink:href="#DejaVuSans-6b" x="118.457031"/>
      <use xlink:href="#DejaVuSans-31" x="176.367188"/>
      <use xlink:href="#DejaVuSans-20" x="239.990234"/>
      <use xlink:href="#DejaVuSans-52" x="271.777344"/>
      <use xlink:href="#DejaVuSans-4e" x="341.259766"/>
      <use xlink:href="#DejaVuSans-41" x="416.064453"/>
      <use xlink:href="#DejaVuSans-69" x="484.472656"/>
      <use xlink:href="#DejaVuSans-2c" x="512.255859"/>
      <use xlink:href="#DejaVuSans-20" x="544.042969"/>
      <use xlink:href="#DejaVuSans-32" x="575.830078"/>
      <use xlink:href="#DejaVuSans-58" x="639.453125"/>
      <use xlink:href="#DejaVuSans-20" x="707.958984"/>
      <use xlink:href="#DejaVuSans-4d" x="739.746094"/>
      <use xlink:href="#DejaVuSans-54" x="826.025391"/>
      <use xlink:href="#DejaVuSans-4f" x="887.109375"/>
      <use xlink:href="#DejaVuSans-43" x="965.820312"/>
     </g>
    </g>
    <g id="line2d_67">
     <defs>
      <path id="m296626dc07" d="M 0 5 
C 1.326016 5 2.597899 4.473168 3.535534 3.535534 
C 4.473168 2.597899 5 1.326016 5 0 
C 5 -1.326016 4.473168 -2.597899 3.535534 -3.535534 
C 2.597899 -4.473168 1.326016 -5 0 -5 
C -1.326016 -5 -2.597899 -4.473168 -3.535534 -3.535534 
C -4.473168 -2.597899 -5 -1.326016 -5 0 
C -5 1.326016 -4.473168 2.597899 -3.535534 3.535534 
C -2.597899 4.473168 -1.326016 5 0 5 
z
" style="stroke: #000000"/>
     </defs>
     <g>
      <use xlink:href="#m296626dc07" x="452.224844" y="89.328906" style="fill: #ffb000; stroke: #000000"/>
     </g>
    </g>
    <g id="text_23">
     <!-- Cdk1::GFP, PACT::vhh -->
     <g transform="translate(470.224844 92.828906) scale(0.1 -0.1)">
      <defs>
       <path id="DejaVuSans-3a" d="M 750 794 
L 1409 794 
L 1409 0 
L 750 0 
L 750 794 
z
M 750 3309 
L 1409 3309 
L 1409 2516 
L 750 2516 
L 750 3309 
z
" transform="scale(0.015625)"/>
       <path id="DejaVuSans-47" d="M 3809 666 
L 3809 1919 
L 2778 1919 
L 2778 2438 
L 4434 2438 
L 4434 434 
Q 4069 175 3628 42 
Q 3188 -91 2688 -91 
Q 1594 -91 976 548 
Q 359 1188 359 2328 
Q 359 3472 976 4111 
Q 1594 4750 2688 4750 
Q 3144 4750 3555 4637 
Q 3966 4525 4313 4306 
L 4313 3634 
Q 3963 3931 3569 4081 
Q 3175 4231 2741 4231 
Q 1884 4231 1454 3753 
Q 1025 3275 1025 2328 
Q 1025 1384 1454 906 
Q 1884 428 2741 428 
Q 3075 428 3337 486 
Q 3600 544 3809 666 
z
" transform="scale(0.015625)"/>
       <path id="DejaVuSans-46" d="M 628 4666 
L 3309 4666 
L 3309 4134 
L 1259 4134 
L 1259 2759 
L 3109 2759 
L 3109 2228 
L 1259 2228 
L 1259 0 
L 628 0 
L 628 4666 
z
" transform="scale(0.015625)"/>
       <path id="DejaVuSans-50" d="M 1259 4147 
L 1259 2394 
L 2053 2394 
Q 2494 2394 2734 2622 
Q 2975 2850 2975 3272 
Q 2975 3691 2734 3919 
Q 2494 4147 2053 4147 
L 1259 4147 
z
M 628 4666 
L 2053 4666 
Q 2838 4666 3239 4311 
Q 3641 3956 3641 3272 
Q 3641 2581 3239 2228 
Q 2838 1875 2053 1875 
L 1259 1875 
L 1259 0 
L 628 0 
L 628 4666 
z
" transform="scale(0.015625)"/>
       <path id="DejaVuSans-76" d="M 191 3500 
L 800 3500 
L 1894 563 
L 2988 3500 
L 3597 3500 
L 2284 0 
L 1503 0 
L 191 3500 
z
" transform="scale(0.015625)"/>
      </defs>
      <use xlink:href="#DejaVuSans-43"/>
      <use xlink:href="#DejaVuSans-64" x="69.824219"/>
      <use xlink:href="#DejaVuSans-6b" x="133.300781"/>
      <use xlink:href="#DejaVuSans-31" x="191.210938"/>
      <use xlink:href="#DejaVuSans-3a" x="254.833984"/>
      <use xlink:href="#DejaVuSans-3a" x="288.525391"/>
      <use xlink:href="#DejaVuSans-47" x="322.216797"/>
      <use xlink:href="#DejaVuSans-46" x="399.707031"/>
      <use xlink:href="#DejaVuSans-50" x="457.226562"/>
      <use xlink:href="#DejaVuSans-2c" x="517.529297"/>
      <use xlink:href="#DejaVuSans-20" x="549.316406"/>
      <use xlink:href="#DejaVuSans-50" x="581.103516"/>
      <use xlink:href="#DejaVuSans-41" x="635.03125"/>
      <use xlink:href="#DejaVuSans-43" x="701.689453"/>
      <use xlink:href="#DejaVuSans-54" x="771.513672"/>
      <use xlink:href="#DejaVuSans-3a" x="821.597656"/>
      <use xlink:href="#DejaVuSans-3a" x="855.289062"/>
      <use xlink:href="#DejaVuSans-76" x="888.980469"/>
      <use xlink:href="#DejaVuSans-68" x="948.160156"/>
      <use xlink:href="#DejaVuSans-68" x="1011.539062"/>
     </g>
    </g>
   </g>
  </g>
 </g>
 <defs>
  <clipPath id="pd9a6b87907">
   <rect x="76.104844" y="32.196094" width="357.12" height="266.112"/>
  </clipPath>
 </defs>
</svg>
