<?xml version="1.0" encoding="utf-8" standalone="no"?>
<!DOCTYPE svg PUBLIC "-//W3C//DTD SVG 1.1//EN"
  "http://www.w3.org/Graphics/SVG/1.1/DTD/svg11.dtd">
<svg xmlns:xlink="http://www.w3.org/1999/xlink" width="855.79pt" height="127.72pt" viewBox="0 0 855.79 127.72" xmlns="http://www.w3.org/2000/svg" version="1.1">
 <metadata>
  <rdf:RDF xmlns:dc="http://purl.org/dc/elements/1.1/" xmlns:cc="http://creativecommons.org/ns#" xmlns:rdf="http://www.w3.org/1999/02/22-rdf-syntax-ns#">
   <cc:Work>
    <dc:type rdf:resource="http://purl.org/dc/dcmitype/StillImage"/>
    <dc:date>2024-12-18T14:28:15.187472</dc:date>
    <dc:format>image/svg+xml</dc:format>
    <dc:creator>
     <cc:Agent>
      <dc:title>Matplotlib v3.7.2, https://matplotlib.org/</dc:title>
     </cc:Agent>
    </dc:creator>
   </cc:Work>
  </rdf:RDF>
 </metadata>
 <defs>
  <style type="text/css">*{stroke-linejoin: round; stroke-linecap: butt}</style>
 </defs>
 <g id="figure_1">
  <g id="patch_1">
   <path d="M 0 127.72 
L 855.79 127.72 
L 855.79 0 
L 0 0 
z
" style="fill: #ffffff"/>
  </g>
  <g id="axes_1">
   <g id="patch_2">
    <path d="M 7.2 120.52 
L 164.038 120.52 
L 164.038 7.2 
L 7.2 7.2 
z
" style="fill: #ffffff"/>
   </g>
   <g id="PolyCollection_1"/>
   <g id="PolyCollection_2"/>
   <g id="matplotlib.axis_1"/>
   <g id="matplotlib.axis_2">
    <g id="ytick_1">
     <g id="line2d_1">
      <defs>
       <path id="m9cdd378425" d="M 0 0 
L 3.5 0 
" style="stroke: #000000; stroke-width: 0.8"/>
      </defs>
      <g>
       <use xlink:href="#m9cdd378425" x="7.2" y="111.076667" style="stroke: #000000; stroke-width: 0.8"/>
      </g>
     </g>
     <g id="text_1">
      <!-- 0.0 -->
      <g transform="translate(13.345313 116.775495) scale(0.15 -0.15)">
       <defs>
        <path id="DejaVuSans-30" d="M 2034 4250 
Q 1547 4250 1301 3770 
Q 1056 3291 1056 2328 
Q 1056 1369 1301 889 
Q 1547 409 2034 409 
Q 2525 409 2770 889 
Q 3016 1369 3016 2328 
Q 3016 3291 2770 3770 
Q 2525 4250 2034 4250 
z
M 2034 4750 
Q 2819 4750 3233 4129 
Q 3647 3509 3647 2328 
Q 3647 1150 3233 529 
Q 2819 -91 2034 -91 
Q 1250 -91 836 529 
Q 422 1150 422 2328 
Q 422 3509 836 4129 
Q 1250 4750 2034 4750 
z
" transform="scale(0.015625)"/>
        <path id="DejaVuSans-2e" d="M 684 794 
L 1344 794 
L 1344 0 
L 684 0 
L 684 794 
z
" transform="scale(0.015625)"/>
       </defs>
       <use xlink:href="#DejaVuSans-30"/>
       <use xlink:href="#DejaVuSans-2e" x="63.623047"/>
       <use xlink:href="#DejaVuSans-30" x="95.410156"/>
      </g>
     </g>
    </g>
    <g id="ytick_2">
     <g id="line2d_2">
      <g>
       <use xlink:href="#m9cdd378425" x="7.2" y="63.86" style="stroke: #000000; stroke-width: 0.8"/>
      </g>
     </g>
     <g id="text_2">
      <!-- 0.5 -->
      <g transform="translate(13.345313 69.558828) scale(0.15 -0.15)">
       <defs>
        <path id="DejaVuSans-35" d="M 691 4666 
L 3169 4666 
L 3169 4134 
L 1269 4134 
L 1269 2991 
Q 1406 3038 1543 3061 
Q 1681 3084 1819 3084 
Q 2600 3084 3056 2656 
Q 3513 2228 3513 1497 
Q 3513 744 3044 326 
Q 2575 -91 1722 -91 
Q 1428 -91 1123 -41 
Q 819 9 494 109 
L 494 744 
Q 775 591 1075 516 
Q 1375 441 1709 441 
Q 2250 441 2565 725 
Q 2881 1009 2881 1497 
Q 2881 1984 2565 2268 
Q 2250 2553 1709 2553 
Q 1456 2553 1204 2497 
Q 953 2441 691 2322 
L 691 4666 
z
" transform="scale(0.015625)"/>
       </defs>
       <use xlink:href="#DejaVuSans-30"/>
       <use xlink:href="#DejaVuSans-2e" x="63.623047"/>
       <use xlink:href="#DejaVuSans-35" x="95.410156"/>
      </g>
     </g>
    </g>
    <g id="ytick_3">
     <g id="line2d_3">
      <g>
       <use xlink:href="#m9cdd378425" x="7.2" y="16.643333" style="stroke: #000000; stroke-width: 0.8"/>
      </g>
     </g>
     <g id="text_3">
      <!-- 1.0 -->
      <g transform="translate(13.345313 22.342161) scale(0.15 -0.15)">
       <defs>
        <path id="DejaVuSans-31" d="M 794 531 
L 1825 531 
L 1825 4091 
L 703 3866 
L 703 4441 
L 1819 4666 
L 2450 4666 
L 2450 531 
L 3481 531 
L 3481 0 
L 794 0 
L 794 531 
z
" transform="scale(0.015625)"/>
       </defs>
       <use xlink:href="#DejaVuSans-31"/>
       <use xlink:href="#DejaVuSans-2e" x="63.623047"/>
       <use xlink:href="#DejaVuSans-30" x="95.410156"/>
      </g>
     </g>
    </g>
   </g>
   <g id="line2d_4">
    <path d="M 14.329 77.388243 
L 18.649528 78.263321 
L 22.970291 75.394188 
L 27.290818 74.832764 
L 31.611346 77.200878 
L 35.932109 74.656355 
L 40.252636 75.924839 
L 44.573164 71.360192 
L 48.893927 75.481862 
L 53.214455 75.953392 
L 57.534982 76.386837 
L 61.855745 71.759362 
L 66.176273 79.265664 
L 70.4968 76.518583 
L 74.817563 75.527563 
L 79.138091 71.497091 
L 83.458618 67.335728 
L 87.779382 70.969861 
L 92.099909 69.187936 
L 96.420437 71.001388 
L 100.7412 72.948826 
L 105.061727 74.212259 
L 109.382255 72.378828 
L 113.703018 73.037213 
L 118.023545 74.506178 
L 122.344073 69.93365 
L 126.664836 70.64576 
L 130.985364 71.148917 
L 135.305891 70.343186 
L 139.626654 66.91658 
L 143.947182 65.807255 
L 148.267709 67.727016 
L 152.588472 70.255939 
L 156.909 71.267202 
" clip-path="url(#p02573e870b)" style="fill: none; stroke: #808080; stroke-width: 2; stroke-linecap: square"/>
   </g>
   <g id="line2d_5">
    <path d="M 14.329 78.041069 
L 18.649528 82.037256 
L 22.970291 82.632668 
L 27.290818 81.349816 
L 31.611346 78.365547 
L 35.932109 86.170519 
L 40.252636 79.029176 
L 44.573164 75.247549 
L 48.893927 79.837989 
L 53.214455 78.533514 
L 57.534982 75.895346 
L 61.855745 74.418142 
L 66.176273 79.082848 
L 70.4968 81.920774 
L 74.817563 73.07042 
L 79.138091 54.566176 
L 83.458618 38.011502 
L 87.779382 16.643333 
L 92.099909 25.884322 
L 96.420437 54.552147 
L 100.7412 71.723728 
L 105.061727 77.860747 
L 109.382255 79.56654 
L 113.703018 81.908932 
L 118.023545 79.719833 
L 122.344073 79.910067 
L 126.664836 77.171119 
L 130.985364 78.445734 
L 135.305891 82.950582 
L 139.626654 80.484242 
L 143.947182 80.275603 
L 148.267709 74.466408 
L 152.588472 76.419839 
L 156.909 81.384053 
" clip-path="url(#p02573e870b)" style="fill: none; stroke: #35db09; stroke-width: 2; stroke-linecap: square"/>
   </g>
   <g id="patch_3">
    <path d="M 7.2 120.52 
L 7.2 7.2 
" style="fill: none; stroke: #000000; stroke-width: 0.8; stroke-linejoin: miter; stroke-linecap: square"/>
   </g>
   <g id="patch_4">
    <path d="M 7.2 120.52 
L 164.038 120.52 
" style="fill: none; stroke: #000000; stroke-width: 0.8; stroke-linejoin: miter; stroke-linecap: square"/>
   </g>
  </g>
  <g id="axes_2">
   <g id="patch_5">
    <path d="M 178.338 120.52 
L 335.176 120.52 
L 335.176 7.2 
L 178.338 7.2 
z
" style="fill: #ffffff"/>
   </g>
   <g id="PolyCollection_3"/>
   <g id="PolyCollection_4"/>
   <g id="matplotlib.axis_3"/>
   <g id="matplotlib.axis_4">
    <g id="ytick_4">
     <g id="line2d_6">
      <g>
       <use xlink:href="#m9cdd378425" x="178.338" y="111.076667" style="stroke: #000000; stroke-width: 0.8"/>
      </g>
     </g>
    </g>
    <g id="ytick_5">
     <g id="line2d_7">
      <g>
       <use xlink:href="#m9cdd378425" x="178.338" y="63.86" style="stroke: #000000; stroke-width: 0.8"/>
      </g>
     </g>
    </g>
    <g id="ytick_6">
     <g id="line2d_8">
      <g>
       <use xlink:href="#m9cdd378425" x="178.338" y="16.643333" style="stroke: #000000; stroke-width: 0.8"/>
      </g>
     </g>
    </g>
   </g>
   <g id="line2d_9">
    <path d="M 185.467 84.041076 
L 189.787528 84.354098 
L 194.108291 83.603415 
L 198.428818 83.999326 
L 202.749346 82.062132 
L 207.070109 79.604388 
L 211.390636 82.848455 
L 215.711164 81.953582 
L 220.031927 80.135324 
L 224.352455 78.711348 
L 228.672982 74.723929 
L 232.993745 73.637618 
L 237.314273 74.901111 
L 241.6348 75.742015 
L 245.955563 72.451921 
L 250.276091 65.306175 
L 254.596618 62.550479 
L 258.917382 61.690432 
L 263.237909 64.179743 
L 267.558437 65.341612 
L 271.8792 66.508979 
L 276.199727 70.633663 
L 280.520255 70.724087 
L 284.841018 72.617495 
L 289.161545 75.265252 
L 293.482073 75.114138 
L 297.802836 75.231852 
L 302.123364 75.223705 
L 306.443891 71.761724 
L 310.764654 70.052627 
L 315.085182 70.042648 
L 319.405709 68.072257 
L 323.726472 73.139674 
L 328.047 80.842017 
" clip-path="url(#pb94efb35ba)" style="fill: none; stroke: #808080; stroke-width: 2; stroke-linecap: square"/>
   </g>
   <g id="line2d_10">
    <path d="M 185.467 82.59959 
L 189.787528 80.316275 
L 194.108291 80.574725 
L 198.428818 80.941934 
L 202.749346 84.759343 
L 207.070109 85.016119 
L 211.390636 76.188418 
L 215.711164 74.316332 
L 220.031927 77.859074 
L 224.352455 81.488051 
L 228.672982 82.110363 
L 232.993745 80.275603 
L 237.314273 80.391056 
L 241.6348 78.104523 
L 245.955563 67.004835 
L 250.276091 49.354453 
L 254.596618 31.429275 
L 258.917382 31.981827 
L 263.237909 49.456777 
L 267.558437 62.114886 
L 271.8792 74.446329 
L 276.199727 79.030849 
L 280.520255 79.042175 
L 284.841018 80.820046 
L 289.161545 80.917608 
L 293.482073 75.774101 
L 297.802836 72.06069 
L 302.123364 77.231741 
L 306.443891 78.843962 
L 310.764654 77.014093 
L 315.085182 82.414376 
L 319.405709 83.018927 
L 323.726472 81.473378 
L 328.047 81.52705 
" clip-path="url(#pb94efb35ba)" style="fill: none; stroke: #35db09; stroke-width: 2; stroke-linecap: square"/>
   </g>
   <g id="patch_6">
    <path d="M 178.338 120.52 
L 178.338 7.2 
" style="fill: none; stroke: #000000; stroke-width: 0.8; stroke-linejoin: miter; stroke-linecap: square"/>
   </g>
   <g id="patch_7">
    <path d="M 178.338 120.52 
L 335.176 120.52 
" style="fill: none; stroke: #000000; stroke-width: 0.8; stroke-linejoin: miter; stroke-linecap: square"/>
   </g>
  </g>
  <g id="axes_3">
   <g id="patch_8">
    <path d="M 349.476 120.52 
L 506.314 120.52 
L 506.314 7.2 
L 349.476 7.2 
z
" style="fill: #ffffff"/>
   </g>
   <g id="PolyCollection_5"/>
   <g id="PolyCollection_6"/>
   <g id="matplotlib.axis_5"/>
   <g id="matplotlib.axis_6">
    <g id="ytick_7">
     <g id="line2d_11">
      <g>
       <use xlink:href="#m9cdd378425" x="349.476" y="111.076667" style="stroke: #000000; stroke-width: 0.8"/>
      </g>
     </g>
    </g>
    <g id="ytick_8">
     <g id="line2d_12">
      <g>
       <use xlink:href="#m9cdd378425" x="349.476" y="63.86" style="stroke: #000000; stroke-width: 0.8"/>
      </g>
     </g>
    </g>
    <g id="ytick_9">
     <g id="line2d_13">
      <g>
       <use xlink:href="#m9cdd378425" x="349.476" y="16.643333" style="stroke: #000000; stroke-width: 0.8"/>
      </g>
     </g>
    </g>
   </g>
   <g id="line2d_14">
    <path d="M 356.605 81.749924 
L 360.925528 79.898062 
L 365.246291 81.082333 
L 369.566818 78.147419 
L 373.887346 78.465125 
L 378.208109 75.616969 
L 382.528636 74.62658 
L 386.849164 72.29429 
L 391.169927 76.418363 
L 395.490455 72.903227 
L 399.810982 73.533141 
L 404.131745 72.262926 
L 408.452273 64.633493 
L 412.7728 51.835425 
L 417.093563 34.650361 
L 421.414091 24.23509 
L 425.734618 24.468482 
L 430.055382 22.344126 
L 434.375909 26.379608 
L 438.696437 35.22488 
L 443.0172 40.68556 
L 447.337727 59.54958 
L 451.658255 63.3812 
L 455.979018 69.515988 
L 460.299545 73.362883 
L 464.620073 73.518681 
L 468.940836 80.667278 
L 473.261364 87.986134 
L 477.581891 83.629076 
L 481.902654 89.38506 
L 486.223182 94.677519 
L 490.543709 91.729774 
L 494.864472 93.55292 
L 499.185 90.965446 
" clip-path="url(#p29d465ac3e)" style="fill: none; stroke: #808080; stroke-width: 2; stroke-linecap: square"/>
   </g>
   <g id="line2d_15">
    <path d="M 356.605 82.760477 
L 360.925528 79.646726 
L 365.246291 80.355274 
L 369.566818 82.068146 
L 373.887346 81.427814 
L 378.208109 85.445238 
L 382.528636 85.159116 
L 386.849164 78.616403 
L 391.169927 79.139738 
L 395.490455 80.556834 
L 399.810982 75.067097 
L 404.131745 84.726908 
L 408.452273 74.52111 
L 412.7728 75.642431 
L 417.093563 67.611058 
L 421.414091 62.459443 
L 425.734618 59.264347 
L 430.055382 49.890658 
L 434.375909 60.587228 
L 438.696437 72.063908 
L 443.0172 74.534109 
L 447.337727 73.750781 
L 451.658255 76.289198 
L 455.979018 77.625079 
L 460.299545 80.186278 
L 464.620073 79.02274 
L 468.940836 77.706295 
L 473.261364 83.413809 
L 477.581891 77.771293 
L 481.902654 80.514617 
L 486.223182 78.899179 
L 490.543709 78.642402 
L 494.864472 76.614191 
L 499.185 76.968529 
" clip-path="url(#p29d465ac3e)" style="fill: none; stroke: #35db09; stroke-width: 2; stroke-linecap: square"/>
   </g>
   <g id="patch_9">
    <path d="M 349.476 120.52 
L 349.476 7.2 
" style="fill: none; stroke: #000000; stroke-width: 0.8; stroke-linejoin: miter; stroke-linecap: square"/>
   </g>
   <g id="patch_10">
    <path d="M 349.476 120.52 
L 506.314 120.52 
" style="fill: none; stroke: #000000; stroke-width: 0.8; stroke-linejoin: miter; stroke-linecap: square"/>
   </g>
  </g>
  <g id="axes_4">
   <g id="patch_11">
    <path d="M 520.614 120.52 
L 677.452 120.52 
L 677.452 7.2 
L 520.614 7.2 
z
" style="fill: #ffffff"/>
   </g>
   <g id="PolyCollection_7"/>
   <g id="PolyCollection_8"/>
   <g id="matplotlib.axis_7"/>
   <g id="matplotlib.axis_8">
    <g id="ytick_10">
     <g id="line2d_16">
      <g>
       <use xlink:href="#m9cdd378425" x="520.614" y="111.076667" style="stroke: #000000; stroke-width: 0.8"/>
      </g>
     </g>
    </g>
    <g id="ytick_11">
     <g id="line2d_17">
      <g>
       <use xlink:href="#m9cdd378425" x="520.614" y="63.86" style="stroke: #000000; stroke-width: 0.8"/>
      </g>
     </g>
    </g>
    <g id="ytick_12">
     <g id="line2d_18">
      <g>
       <use xlink:href="#m9cdd378425" x="520.614" y="16.643333" style="stroke: #000000; stroke-width: 0.8"/>
      </g>
     </g>
    </g>
   </g>
   <g id="line2d_19">
    <path d="M 527.743 75.577867 
L 532.063528 76.390054 
L 536.384291 78.770001 
L 540.704818 74.944287 
L 545.025346 71.289849 
L 549.346109 71.886974 
L 553.666636 71.196166 
L 557.987164 68.579976 
L 562.307927 64.720862 
L 566.628455 61.225277 
L 570.948982 56.093912 
L 575.269745 48.885643 
L 579.590273 42.130717 
L 583.9108 33.511709 
L 588.231563 26.774501 
L 592.552091 22.017459 
L 596.872618 16.643333 
L 601.193382 18.128 
L 605.513909 25.261526 
L 609.834437 30.504496 
L 614.1552 36.49428 
L 618.475727 48.063069 
L 622.796255 54.389906 
L 627.117018 57.60485 
L 631.437545 64.112332 
L 635.758073 69.841026 
L 640.078836 73.023589 
L 644.399364 77.761691 
L 648.719891 80.030847 
L 653.040654 79.992152 
L 657.361182 80.026571 
L 661.681709 80.220657 
L 666.002472 80.685608 
L 670.323 83.622355 
" clip-path="url(#pf0f1e0399e)" style="fill: none; stroke: #808080; stroke-width: 2; stroke-linecap: square"/>
   </g>
   <g id="line2d_20">
    <path d="M 527.743 77.612079 
L 532.063528 82.191708 
L 536.384291 82.358516 
L 540.704818 80.137497 
L 545.025346 80.445243 
L 549.346109 79.895909 
L 553.666636 81.096386 
L 557.987164 84.982526 
L 562.307927 81.289194 
L 566.628455 80.777829 
L 570.948982 82.046523 
L 575.269745 83.213408 
L 579.590273 83.521024 
L 583.9108 79.253517 
L 588.231563 69.860265 
L 592.552091 54.78228 
L 596.872618 43.267759 
L 601.193382 36.99804 
L 605.513909 52.503857 
L 609.834437 72.730239 
L 614.1552 75.264281 
L 618.475727 78.674966 
L 622.796255 81.973931 
L 627.117018 80.762641 
L 631.437545 80.202496 
L 635.758073 76.812533 
L 640.078836 75.647837 
L 644.399364 74.556891 
L 648.719891 76.4766 
L 653.040654 79.373732 
L 657.361182 80.137497 
L 661.681709 81.47016 
L 666.002472 83.34881 
L 670.323 77.290304 
" clip-path="url(#pf0f1e0399e)" style="fill: none; stroke: #35db09; stroke-width: 2; stroke-linecap: square"/>
   </g>
   <g id="patch_12">
    <path d="M 520.614 120.52 
L 520.614 7.2 
" style="fill: none; stroke: #000000; stroke-width: 0.8; stroke-linejoin: miter; stroke-linecap: square"/>
   </g>
   <g id="patch_13">
    <path d="M 520.614 120.52 
L 677.452 120.52 
" style="fill: none; stroke: #000000; stroke-width: 0.8; stroke-linejoin: miter; stroke-linecap: square"/>
   </g>
  </g>
  <g id="axes_5">
   <g id="patch_14">
    <path d="M 691.752 120.52 
L 848.59 120.52 
L 848.59 7.2 
L 691.752 7.2 
z
" style="fill: #ffffff"/>
   </g>
   <g id="PolyCollection_9"/>
   <g id="PolyCollection_10"/>
   <g id="matplotlib.axis_9"/>
   <g id="matplotlib.axis_10">
    <g id="ytick_13">
     <g id="line2d_21">
      <g>
       <use xlink:href="#m9cdd378425" x="691.752" y="111.076667" style="stroke: #000000; stroke-width: 0.8"/>
      </g>
     </g>
    </g>
    <g id="ytick_14">
     <g id="line2d_22">
      <g>
       <use xlink:href="#m9cdd378425" x="691.752" y="63.86" style="stroke: #000000; stroke-width: 0.8"/>
      </g>
     </g>
    </g>
    <g id="ytick_15">
     <g id="line2d_23">
      <g>
       <use xlink:href="#m9cdd378425" x="691.752" y="16.643333" style="stroke: #000000; stroke-width: 0.8"/>
      </g>
     </g>
    </g>
   </g>
   <g id="line2d_24">
    <path d="M 698.881 77.495713 
L 703.201528 76.64646 
L 707.522291 76.818143 
L 711.842818 74.223134 
L 716.163346 78.515225 
L 720.484109 75.981924 
L 724.804636 76.393313 
L 729.125164 75.592123 
L 733.445927 74.706618 
L 737.766455 70.601689 
L 742.086982 72.362108 
L 746.407745 72.091243 
L 750.728273 69.541242 
L 755.0488 65.381936 
L 759.369563 64.523518 
L 763.690091 59.584405 
L 768.010618 56.564769 
L 772.331382 59.803949 
L 776.651909 59.262015 
L 780.972437 66.954582 
L 785.2932 78.074102 
L 789.613727 87.385954 
L 793.934255 91.34262 
L 798.255018 90.112526 
L 802.575545 90.752216 
L 806.896073 91.846266 
L 811.216836 91.741586 
L 815.537364 91.143035 
L 819.857891 90.916771 
L 824.178654 90.38054 
L 828.499182 93.429299 
L 832.819709 93.217495 
L 837.140472 92.108578 
L 841.461 91.805535 
" clip-path="url(#pfbca65036f)" style="fill: none; stroke: #808080; stroke-width: 2; stroke-linecap: square"/>
   </g>
   <g id="line2d_25">
    <path d="M 698.881 83.654239 
L 703.201528 77.630999 
L 707.522291 75.44898 
L 711.842818 80.634832 
L 716.163346 78.266441 
L 720.484109 78.740479 
L 724.804636 85.086009 
L 729.125164 79.517244 
L 733.445927 78.653214 
L 737.766455 75.19555 
L 742.086982 76.501055 
L 746.407745 77.004311 
L 750.728273 76.125093 
L 755.0488 77.505379 
L 759.369563 75.0828 
L 763.690091 74.552 
L 768.010618 84.368322 
L 772.331382 80.346651 
L 776.651909 81.063823 
L 780.972437 80.696613 
L 785.2932 82.054117 
L 789.613727 78.830962 
L 793.934255 82.18849 
L 798.255018 80.336869 
L 802.575545 79.727942 
L 806.896073 87.475509 
L 811.216836 81.173226 
L 815.537364 81.023279 
L 819.857891 80.324899 
L 824.178654 77.385164 
L 828.499182 77.977744 
L 832.819709 81.240928 
L 837.140472 81.463596 
L 841.461 81.151603 
" clip-path="url(#pfbca65036f)" style="fill: none; stroke: #35db09; stroke-width: 2; stroke-linecap: square"/>
   </g>
   <g id="patch_15">
    <path d="M 691.752 120.52 
L 691.752 7.2 
" style="fill: none; stroke: #000000; stroke-width: 0.8; stroke-linejoin: miter; stroke-linecap: square"/>
   </g>
   <g id="patch_16">
    <path d="M 691.752 120.52 
L 848.59 120.52 
" style="fill: none; stroke: #000000; stroke-width: 0.8; stroke-linejoin: miter; stroke-linecap: square"/>
   </g>
  </g>
 </g>
 <defs>
  <clipPath id="p02573e870b">
   <rect x="7.2" y="7.2" width="156.838" height="113.32"/>
  </clipPath>
  <clipPath id="pb94efb35ba">
   <rect x="178.338" y="7.2" width="156.838" height="113.32"/>
  </clipPath>
  <clipPath id="p29d465ac3e">
   <rect x="349.476" y="7.2" width="156.838" height="113.32"/>
  </clipPath>
  <clipPath id="pf0f1e0399e">
   <rect x="520.614" y="7.2" width="156.838" height="113.32"/>
  </clipPath>
  <clipPath id="pfbca65036f">
   <rect x="691.752" y="7.2" width="156.838" height="113.32"/>
  </clipPath>
 </defs>
</svg>
