<?xml version="1.0" encoding="utf-8" standalone="no"?>
<!DOCTYPE svg PUBLIC "-//W3C//DTD SVG 1.1//EN"
  "http://www.w3.org/Graphics/SVG/1.1/DTD/svg11.dtd">
<svg xmlns:xlink="http://www.w3.org/1999/xlink" width="855.79pt" height="127.72pt" viewBox="0 0 855.79 127.72" xmlns="http://www.w3.org/2000/svg" version="1.1">
 <metadata>
  <rdf:RDF xmlns:dc="http://purl.org/dc/elements/1.1/" xmlns:cc="http://creativecommons.org/ns#" xmlns:rdf="http://www.w3.org/1999/02/22-rdf-syntax-ns#">
   <cc:Work>
    <dc:type rdf:resource="http://purl.org/dc/dcmitype/StillImage"/>
    <dc:date>2024-12-18T14:28:11.604919</dc:date>
    <dc:format>image/svg+xml</dc:format>
    <dc:creator>
     <cc:Agent>
      <dc:title>Matplotlib v3.7.2, https://matplotlib.org/</dc:title>
     </cc:Agent>
    </dc:creator>
   </cc:Work>
  </rdf:RDF>
 </metadata>
 <defs>
  <style type="text/css">*{stroke-linejoin: round; stroke-linecap: butt}</style>
 </defs>
 <g id="figure_1">
  <g id="patch_1">
   <path d="M 0 127.72 
L 855.79 127.72 
L 855.79 0 
L 0 0 
z
" style="fill: #ffffff"/>
  </g>
  <g id="axes_1">
   <g id="patch_2">
    <path d="M 7.2 120.52 
L 164.038 120.52 
L 164.038 7.2 
L 7.2 7.2 
z
" style="fill: #ffffff"/>
   </g>
   <g id="PolyCollection_1"/>
   <g id="PolyCollection_2"/>
   <g id="matplotlib.axis_1"/>
   <g id="matplotlib.axis_2">
    <g id="ytick_1">
     <g id="line2d_1">
      <defs>
       <path id="mc1eaea6009" d="M 0 0 
L 3.5 0 
" style="stroke: #000000; stroke-width: 0.8"/>
      </defs>
      <g>
       <use xlink:href="#mc1eaea6009" x="7.2" y="111.076667" style="stroke: #000000; stroke-width: 0.8"/>
      </g>
     </g>
     <g id="text_1">
      <!-- 0.0 -->
      <g transform="translate(13.345313 116.775495) scale(0.15 -0.15)">
       <defs>
        <path id="DejaVuSans-30" d="M 2034 4250 
Q 1547 4250 1301 3770 
Q 1056 3291 1056 2328 
Q 1056 1369 1301 889 
Q 1547 409 2034 409 
Q 2525 409 2770 889 
Q 3016 1369 3016 2328 
Q 3016 3291 2770 3770 
Q 2525 4250 2034 4250 
z
M 2034 4750 
Q 2819 4750 3233 4129 
Q 3647 3509 3647 2328 
Q 3647 1150 3233 529 
Q 2819 -91 2034 -91 
Q 1250 -91 836 529 
Q 422 1150 422 2328 
Q 422 3509 836 4129 
Q 1250 4750 2034 4750 
z
" transform="scale(0.015625)"/>
        <path id="DejaVuSans-2e" d="M 684 794 
L 1344 794 
L 1344 0 
L 684 0 
L 684 794 
z
" transform="scale(0.015625)"/>
       </defs>
       <use xlink:href="#DejaVuSans-30"/>
       <use xlink:href="#DejaVuSans-2e" x="63.623047"/>
       <use xlink:href="#DejaVuSans-30" x="95.410156"/>
      </g>
     </g>
    </g>
    <g id="ytick_2">
     <g id="line2d_2">
      <g>
       <use xlink:href="#mc1eaea6009" x="7.2" y="63.86" style="stroke: #000000; stroke-width: 0.8"/>
      </g>
     </g>
     <g id="text_2">
      <!-- 0.5 -->
      <g transform="translate(13.345313 69.558828) scale(0.15 -0.15)">
       <defs>
        <path id="DejaVuSans-35" d="M 691 4666 
L 3169 4666 
L 3169 4134 
L 1269 4134 
L 1269 2991 
Q 1406 3038 1543 3061 
Q 1681 3084 1819 3084 
Q 2600 3084 3056 2656 
Q 3513 2228 3513 1497 
Q 3513 744 3044 326 
Q 2575 -91 1722 -91 
Q 1428 -91 1123 -41 
Q 819 9 494 109 
L 494 744 
Q 775 591 1075 516 
Q 1375 441 1709 441 
Q 2250 441 2565 725 
Q 2881 1009 2881 1497 
Q 2881 1984 2565 2268 
Q 2250 2553 1709 2553 
Q 1456 2553 1204 2497 
Q 953 2441 691 2322 
L 691 4666 
z
" transform="scale(0.015625)"/>
       </defs>
       <use xlink:href="#DejaVuSans-30"/>
       <use xlink:href="#DejaVuSans-2e" x="63.623047"/>
       <use xlink:href="#DejaVuSans-35" x="95.410156"/>
      </g>
     </g>
    </g>
    <g id="ytick_3">
     <g id="line2d_3">
      <g>
       <use xlink:href="#mc1eaea6009" x="7.2" y="16.643333" style="stroke: #000000; stroke-width: 0.8"/>
      </g>
     </g>
     <g id="text_3">
      <!-- 1.0 -->
      <g transform="translate(13.345313 22.342161) scale(0.15 -0.15)">
       <defs>
        <path id="DejaVuSans-31" d="M 794 531 
L 1825 531 
L 1825 4091 
L 703 3866 
L 703 4441 
L 1819 4666 
L 2450 4666 
L 2450 531 
L 3481 531 
L 3481 0 
L 794 0 
L 794 531 
z
" transform="scale(0.015625)"/>
       </defs>
       <use xlink:href="#DejaVuSans-31"/>
       <use xlink:href="#DejaVuSans-2e" x="63.623047"/>
       <use xlink:href="#DejaVuSans-30" x="95.410156"/>
      </g>
     </g>
    </g>
   </g>
   <g id="line2d_4">
    <path d="M 14.329 77.468354 
L 18.649528 75.780706 
L 22.970291 71.791979 
L 27.290818 71.303801 
L 31.611346 69.874636 
L 35.932109 73.476567 
L 40.252636 73.877641 
L 44.573164 75.827758 
L 48.893927 74.357475 
L 53.214455 74.482313 
L 57.534982 75.862108 
L 61.855745 74.895857 
L 66.176273 71.928591 
L 70.4968 73.003825 
L 74.817563 68.060807 
L 79.138091 68.419281 
L 83.458618 62.242629 
L 87.779382 55.572746 
L 92.099909 50.697918 
L 96.420437 53.248859 
L 100.7412 54.86025 
L 105.061727 62.766316 
L 109.382255 66.115373 
L 113.703018 71.413434 
L 118.023545 74.971418 
L 122.344073 76.468402 
L 126.664836 73.172377 
L 130.985364 78.459312 
L 135.305891 82.632074 
L 139.626654 85.142916 
L 143.947182 88.058681 
L 148.267709 90.36486 
L 152.588472 89.183933 
L 156.909 86.700998 
" clip-path="url(#pc12d0cf1bd)" style="fill: none; stroke: #808080; stroke-width: 2; stroke-linecap: square"/>
   </g>
   <g id="line2d_5">
    <path d="M 14.329 83.598112 
L 18.649528 76.832596 
L 22.970291 77.306291 
L 27.290818 81.836175 
L 31.611346 79.050027 
L 35.932109 77.58084 
L 40.252636 76.140609 
L 44.573164 77.148038 
L 48.893927 74.11807 
L 53.214455 74.29535 
L 57.534982 76.993567 
L 61.855745 76.762157 
L 66.176273 70.627052 
L 70.4968 68.214021 
L 74.817563 70.707892 
L 79.138091 60.328562 
L 83.458618 49.848301 
L 87.779382 53.994785 
L 92.099909 62.99345 
L 96.420437 60.31048 
L 100.7412 63.671491 
L 105.061727 70.049471 
L 109.382255 66.595919 
L 113.703018 70.78495 
L 118.023545 72.202607 
L 122.344073 77.74252 
L 126.664836 75.968056 
L 130.985364 80.268184 
L 135.305891 83.089434 
L 139.626654 82.276305 
L 143.947182 82.184 
L 148.267709 82.238721 
L 152.588472 81.715624 
L 156.909 79.166087 
" clip-path="url(#pc12d0cf1bd)" style="fill: none; stroke: #35db09; stroke-width: 2; stroke-linecap: square"/>
   </g>
   <g id="patch_3">
    <path d="M 7.2 120.52 
L 7.2 7.2 
" style="fill: none; stroke: #000000; stroke-width: 0.8; stroke-linejoin: miter; stroke-linecap: square"/>
   </g>
   <g id="patch_4">
    <path d="M 7.2 120.52 
L 164.038 120.52 
" style="fill: none; stroke: #000000; stroke-width: 0.8; stroke-linejoin: miter; stroke-linecap: square"/>
   </g>
  </g>
  <g id="axes_2">
   <g id="patch_5">
    <path d="M 178.338 120.52 
L 335.176 120.52 
L 335.176 7.2 
L 178.338 7.2 
z
" style="fill: #ffffff"/>
   </g>
   <g id="PolyCollection_3"/>
   <g id="PolyCollection_4"/>
   <g id="matplotlib.axis_3"/>
   <g id="matplotlib.axis_4">
    <g id="ytick_4">
     <g id="line2d_6">
      <g>
       <use xlink:href="#mc1eaea6009" x="178.338" y="111.076667" style="stroke: #000000; stroke-width: 0.8"/>
      </g>
     </g>
    </g>
    <g id="ytick_5">
     <g id="line2d_7">
      <g>
       <use xlink:href="#mc1eaea6009" x="178.338" y="63.86" style="stroke: #000000; stroke-width: 0.8"/>
      </g>
     </g>
    </g>
    <g id="ytick_6">
     <g id="line2d_8">
      <g>
       <use xlink:href="#mc1eaea6009" x="178.338" y="16.643333" style="stroke: #000000; stroke-width: 0.8"/>
      </g>
     </g>
    </g>
   </g>
   <g id="line2d_9">
    <path d="M 185.467 76.657118 
L 189.787528 71.022835 
L 194.108291 67.949181 
L 198.428818 70.482136 
L 202.749346 73.158794 
L 207.070109 69.292911 
L 211.390636 64.113986 
L 215.711164 60.829272 
L 220.031927 64.46583 
L 224.352455 65.078568 
L 228.672982 67.151853 
L 232.993745 66.248415 
L 237.314273 64.490956 
L 241.6348 65.677955 
L 245.955563 63.924621 
L 250.276091 60.048446 
L 254.596618 54.748161 
L 258.917382 63.249812 
L 263.237909 58.167262 
L 267.558437 54.584152 
L 271.8792 51.588284 
L 276.199727 55.927882 
L 280.520255 57.064446 
L 284.841018 55.457551 
L 289.161545 60.424211 
L 293.482073 60.993651 
L 297.802836 62.536389 
L 302.123364 60.622059 
L 306.443891 61.437327 
L 310.764654 60.481971 
L 315.085182 60.866728 
L 319.405709 62.019516 
L 323.726472 63.166973 
L 328.047 67.591867 
" clip-path="url(#pdee0d0c711)" style="fill: none; stroke: #808080; stroke-width: 2; stroke-linecap: square"/>
   </g>
   <g id="line2d_10">
    <path d="M 185.467 78.279682 
L 189.787528 77.708601 
L 194.108291 73.002027 
L 198.428818 71.973324 
L 202.749346 70.861772 
L 207.070109 67.951527 
L 211.390636 68.976921 
L 215.711164 76.714173 
L 220.031927 73.154606 
L 224.352455 67.159318 
L 228.672982 70.779868 
L 232.993745 64.137386 
L 237.314273 66.535525 
L 241.6348 67.615639 
L 245.955563 66.34418 
L 250.276091 64.282283 
L 254.596618 56.889193 
L 258.917382 58.224001 
L 263.237909 53.379738 
L 267.558437 58.850039 
L 271.8792 56.725031 
L 276.199727 57.72525 
L 280.520255 57.815782 
L 284.841018 57.410517 
L 289.161545 64.780679 
L 293.482073 66.23982 
L 297.802836 71.370214 
L 302.123364 66.514724 
L 306.443891 69.501909 
L 310.764654 65.882303 
L 315.085182 66.902615 
L 319.405709 73.838084 
L 323.726472 75.910617 
L 328.047 75.292142 
" clip-path="url(#pdee0d0c711)" style="fill: none; stroke: #35db09; stroke-width: 2; stroke-linecap: square"/>
   </g>
   <g id="patch_6">
    <path d="M 178.338 120.52 
L 178.338 7.2 
" style="fill: none; stroke: #000000; stroke-width: 0.8; stroke-linejoin: miter; stroke-linecap: square"/>
   </g>
   <g id="patch_7">
    <path d="M 178.338 120.52 
L 335.176 120.52 
" style="fill: none; stroke: #000000; stroke-width: 0.8; stroke-linejoin: miter; stroke-linecap: square"/>
   </g>
  </g>
  <g id="axes_3">
   <g id="patch_8">
    <path d="M 349.476 120.52 
L 506.314 120.52 
L 506.314 7.2 
L 349.476 7.2 
z
" style="fill: #ffffff"/>
   </g>
   <g id="PolyCollection_5"/>
   <g id="PolyCollection_6"/>
   <g id="matplotlib.axis_5"/>
   <g id="matplotlib.axis_6">
    <g id="ytick_7">
     <g id="line2d_11">
      <g>
       <use xlink:href="#mc1eaea6009" x="349.476" y="111.076667" style="stroke: #000000; stroke-width: 0.8"/>
      </g>
     </g>
    </g>
    <g id="ytick_8">
     <g id="line2d_12">
      <g>
       <use xlink:href="#mc1eaea6009" x="349.476" y="63.86" style="stroke: #000000; stroke-width: 0.8"/>
      </g>
     </g>
    </g>
    <g id="ytick_9">
     <g id="line2d_13">
      <g>
       <use xlink:href="#mc1eaea6009" x="349.476" y="16.643333" style="stroke: #000000; stroke-width: 0.8"/>
      </g>
     </g>
    </g>
   </g>
   <g id="line2d_14">
    <path d="M 356.605 86.849013 
L 360.925528 83.338451 
L 365.246291 75.318349 
L 369.566818 76.774863 
L 373.887346 72.760408 
L 378.208109 64.732889 
L 382.528636 64.535875 
L 386.849164 61.580661 
L 391.169927 55.700365 
L 395.490455 41.679904 
L 399.810982 41.444878 
L 404.131745 30.43943 
L 408.452273 25.328185 
L 412.7728 29.376944 
L 417.093563 24.904488 
L 421.414091 21.542266 
L 425.734618 23.189306 
L 430.055382 28.631998 
L 434.375909 34.709308 
L 438.696437 44.560484 
L 443.0172 43.153107 
L 447.337727 52.522178 
L 451.658255 54.221599 
L 455.979018 57.455414 
L 460.299545 56.878279 
L 464.620073 65.337839 
L 468.940836 68.303251 
L 473.261364 61.830058 
L 477.581891 67.081762 
L 481.902654 63.791393 
L 486.223182 71.419321 
L 490.543709 68.708405 
L 494.864472 67.873528 
L 499.185 69.182166 
" clip-path="url(#p85dbf896c4)" style="fill: none; stroke: #808080; stroke-width: 2; stroke-linecap: square"/>
   </g>
   <g id="line2d_15">
    <path d="M 356.605 85.2889 
L 360.925528 80.237337 
L 365.246291 82.864759 
L 369.566818 81.337306 
L 373.887346 78.284291 
L 378.208109 75.121362 
L 382.528636 73.462603 
L 386.849164 71.207825 
L 391.169927 65.16337 
L 395.490455 61.006721 
L 399.810982 62.595632 
L 404.131745 51.61461 
L 408.452273 40.101628 
L 412.7728 28.208082 
L 417.093563 27.314704 
L 421.414091 23.331555 
L 425.734618 16.643333 
L 430.055382 18.568723 
L 434.375909 28.636511 
L 438.696437 42.618545 
L 443.0172 49.871938 
L 447.337727 42.71605 
L 451.658255 49.803508 
L 455.979018 61.3354 
L 460.299545 69.088844 
L 464.620073 67.386474 
L 468.940836 67.472041 
L 473.261364 76.700817 
L 477.581891 72.309331 
L 481.902654 75.108243 
L 486.223182 75.414585 
L 490.543709 73.54687 
L 494.864472 66.350325 
L 499.185 60.797766 
" clip-path="url(#p85dbf896c4)" style="fill: none; stroke: #35db09; stroke-width: 2; stroke-linecap: square"/>
   </g>
   <g id="patch_9">
    <path d="M 349.476 120.52 
L 349.476 7.2 
" style="fill: none; stroke: #000000; stroke-width: 0.8; stroke-linejoin: miter; stroke-linecap: square"/>
   </g>
   <g id="patch_10">
    <path d="M 349.476 120.52 
L 506.314 120.52 
" style="fill: none; stroke: #000000; stroke-width: 0.8; stroke-linejoin: miter; stroke-linecap: square"/>
   </g>
  </g>
  <g id="axes_4">
   <g id="patch_11">
    <path d="M 520.614 120.52 
L 677.452 120.52 
L 677.452 7.2 
L 520.614 7.2 
z
" style="fill: #ffffff"/>
   </g>
   <g id="PolyCollection_7"/>
   <g id="PolyCollection_8"/>
   <g id="matplotlib.axis_7"/>
   <g id="matplotlib.axis_8">
    <g id="ytick_10">
     <g id="line2d_16">
      <g>
       <use xlink:href="#mc1eaea6009" x="520.614" y="111.076667" style="stroke: #000000; stroke-width: 0.8"/>
      </g>
     </g>
    </g>
    <g id="ytick_11">
     <g id="line2d_17">
      <g>
       <use xlink:href="#mc1eaea6009" x="520.614" y="63.86" style="stroke: #000000; stroke-width: 0.8"/>
      </g>
     </g>
    </g>
    <g id="ytick_12">
     <g id="line2d_18">
      <g>
       <use xlink:href="#mc1eaea6009" x="520.614" y="16.643333" style="stroke: #000000; stroke-width: 0.8"/>
      </g>
     </g>
    </g>
   </g>
   <g id="line2d_19">
    <path d="M 527.743 73.425158 
L 532.063528 69.810294 
L 536.384291 68.936941 
L 540.704818 71.105025 
L 545.025346 58.626374 
L 549.346109 63.371868 
L 553.666636 63.358888 
L 557.987164 53.721415 
L 562.307927 47.194912 
L 566.628455 38.81833 
L 570.948982 35.656831 
L 575.269745 38.152654 
L 579.590273 32.302489 
L 583.9108 35.25214 
L 588.231563 30.000436 
L 592.552091 16.643333 
L 596.872618 20.461238 
L 601.193382 31.170005 
L 605.513909 34.575802 
L 609.834437 40.63596 
L 614.1552 47.914826 
L 618.475727 51.888024 
L 622.796255 57.557862 
L 627.117018 63.416834 
L 631.437545 61.321993 
L 635.758073 59.638796 
L 640.078836 62.873074 
L 644.399364 67.685321 
L 648.719891 70.204322 
L 653.040654 65.371215 
L 657.361182 67.638501 
L 661.681709 66.523633 
L 666.002472 68.396427 
L 670.323 71.029928 
" clip-path="url(#pc04d91e72b)" style="fill: none; stroke: #808080; stroke-width: 2; stroke-linecap: square"/>
   </g>
   <g id="line2d_20">
    <path d="M 527.743 75.357855 
L 532.063528 73.169498 
L 536.384291 69.411377 
L 540.704818 69.845361 
L 545.025346 79.535895 
L 549.346109 77.306409 
L 553.666636 71.716739 
L 557.987164 73.18439 
L 562.307927 70.768995 
L 566.628455 66.660922 
L 570.948982 56.615707 
L 575.269745 53.245123 
L 579.590273 49.323785 
L 583.9108 45.56791 
L 588.231563 35.46963 
L 592.552091 23.758329 
L 596.872618 21.371063 
L 601.193382 26.184715 
L 605.513909 45.497589 
L 609.834437 44.488151 
L 614.1552 52.665178 
L 618.475727 58.724997 
L 622.796255 65.432246 
L 627.117018 67.724726 
L 631.437545 73.274685 
L 635.758073 70.009878 
L 640.078836 70.190941 
L 644.399364 65.944588 
L 648.719891 70.274145 
L 653.040654 76.006467 
L 657.361182 72.289712 
L 661.681709 72.886321 
L 666.002472 68.278552 
L 670.323 70.597505 
" clip-path="url(#pc04d91e72b)" style="fill: none; stroke: #35db09; stroke-width: 2; stroke-linecap: square"/>
   </g>
   <g id="patch_12">
    <path d="M 520.614 120.52 
L 520.614 7.2 
" style="fill: none; stroke: #000000; stroke-width: 0.8; stroke-linejoin: miter; stroke-linecap: square"/>
   </g>
   <g id="patch_13">
    <path d="M 520.614 120.52 
L 677.452 120.52 
" style="fill: none; stroke: #000000; stroke-width: 0.8; stroke-linejoin: miter; stroke-linecap: square"/>
   </g>
  </g>
  <g id="axes_5">
   <g id="patch_14">
    <path d="M 691.752 120.52 
L 848.59 120.52 
L 848.59 7.2 
L 691.752 7.2 
z
" style="fill: #ffffff"/>
   </g>
   <g id="PolyCollection_9"/>
   <g id="PolyCollection_10"/>
   <g id="matplotlib.axis_9"/>
   <g id="matplotlib.axis_10">
    <g id="ytick_13">
     <g id="line2d_21">
      <g>
       <use xlink:href="#mc1eaea6009" x="691.752" y="111.076667" style="stroke: #000000; stroke-width: 0.8"/>
      </g>
     </g>
    </g>
    <g id="ytick_14">
     <g id="line2d_22">
      <g>
       <use xlink:href="#mc1eaea6009" x="691.752" y="63.86" style="stroke: #000000; stroke-width: 0.8"/>
      </g>
     </g>
    </g>
    <g id="ytick_15">
     <g id="line2d_23">
      <g>
       <use xlink:href="#mc1eaea6009" x="691.752" y="16.643333" style="stroke: #000000; stroke-width: 0.8"/>
      </g>
     </g>
    </g>
   </g>
   <g id="line2d_24">
    <path d="M 698.881 84.190016 
L 703.201528 75.60344 
L 707.522291 75.230133 
L 711.842818 80.706248 
L 716.163346 83.653349 
L 720.484109 78.780978 
L 724.804636 70.919924 
L 729.125164 69.632008 
L 733.445927 69.024323 
L 737.766455 66.321751 
L 742.086982 62.328156 
L 746.407745 66.056686 
L 750.728273 53.281123 
L 755.0488 50.877595 
L 759.369563 46.481025 
L 763.690091 44.479314 
L 768.010618 40.396206 
L 772.331382 45.009862 
L 776.651909 45.967166 
L 780.972437 46.085745 
L 785.2932 54.352231 
L 789.613727 62.303078 
L 793.934255 68.095528 
L 798.255018 69.942734 
L 802.575545 70.67762 
L 806.896073 71.304033 
L 811.216836 73.807458 
L 815.537364 73.064506 
L 819.857891 73.290678 
L 824.178654 73.055142 
L 828.499182 72.858498 
L 832.819709 76.482031 
L 837.140472 78.208571 
L 841.461 79.477111 
" clip-path="url(#p64e97e6de9)" style="fill: none; stroke: #808080; stroke-width: 2; stroke-linecap: square"/>
   </g>
   <g id="line2d_25">
    <path d="M 698.881 84.484517 
L 703.201528 75.264369 
L 707.522291 74.670713 
L 711.842818 78.658709 
L 716.163346 75.734518 
L 720.484109 72.232745 
L 724.804636 69.03365 
L 729.125164 76.443878 
L 733.445927 79.108057 
L 737.766455 67.911462 
L 742.086982 76.034004 
L 746.407745 70.053962 
L 750.728273 77.106791 
L 755.0488 78.689201 
L 759.369563 70.408169 
L 763.690091 65.431301 
L 768.010618 61.247587 
L 772.331382 61.047969 
L 776.651909 49.404389 
L 780.972437 50.255929 
L 785.2932 58.619219 
L 789.613727 66.648985 
L 793.934255 71.199433 
L 798.255018 72.37197 
L 802.575545 73.743179 
L 806.896073 70.927839 
L 811.216836 76.485953 
L 815.537364 80.724032 
L 819.857891 74.425357 
L 824.178654 77.093554 
L 828.499182 80.562825 
L 832.819709 79.108766 
L 837.140472 79.565678 
L 841.461 78.181232 
" clip-path="url(#p64e97e6de9)" style="fill: none; stroke: #35db09; stroke-width: 2; stroke-linecap: square"/>
   </g>
   <g id="patch_15">
    <path d="M 691.752 120.52 
L 691.752 7.2 
" style="fill: none; stroke: #000000; stroke-width: 0.8; stroke-linejoin: miter; stroke-linecap: square"/>
   </g>
   <g id="patch_16">
    <path d="M 691.752 120.52 
L 848.59 120.52 
" style="fill: none; stroke: #000000; stroke-width: 0.8; stroke-linejoin: miter; stroke-linecap: square"/>
   </g>
  </g>
 </g>
 <defs>
  <clipPath id="pc12d0cf1bd">
   <rect x="7.2" y="7.2" width="156.838" height="113.32"/>
  </clipPath>
  <clipPath id="pdee0d0c711">
   <rect x="178.338" y="7.2" width="156.838" height="113.32"/>
  </clipPath>
  <clipPath id="p85dbf896c4">
   <rect x="349.476" y="7.2" width="156.838" height="113.32"/>
  </clipPath>
  <clipPath id="pc04d91e72b">
   <rect x="520.614" y="7.2" width="156.838" height="113.32"/>
  </clipPath>
  <clipPath id="p64e97e6de9">
   <rect x="691.752" y="7.2" width="156.838" height="113.32"/>
  </clipPath>
 </defs>
</svg>
