<?xml version="1.0" encoding="utf-8" standalone="no"?>
<!DOCTYPE svg PUBLIC "-//W3C//DTD SVG 1.1//EN"
  "http://www.w3.org/Graphics/SVG/1.1/DTD/svg11.dtd">
<svg xmlns:xlink="http://www.w3.org/1999/xlink" width="886.460937pt" height="321.615234pt" viewBox="0 0 886.460937 321.615234" xmlns="http://www.w3.org/2000/svg" version="1.1">
 <metadata>
  <rdf:RDF xmlns:dc="http://purl.org/dc/elements/1.1/" xmlns:cc="http://creativecommons.org/ns#" xmlns:rdf="http://www.w3.org/1999/02/22-rdf-syntax-ns#">
   <cc:Work>
    <dc:type rdf:resource="http://purl.org/dc/dcmitype/StillImage"/>
    <dc:date>2024-12-18T14:24:33.403567</dc:date>
    <dc:format>image/svg+xml</dc:format>
    <dc:creator>
     <cc:Agent>
      <dc:title>Matplotlib v3.7.2, https://matplotlib.org/</dc:title>
     </cc:Agent>
    </dc:creator>
   </cc:Work>
  </rdf:RDF>
 </metadata>
 <defs>
  <style type="text/css">*{stroke-linejoin: round; stroke-linecap: butt}</style>
 </defs>
 <g id="figure_1">
  <g id="patch_1">
   <path d="M 0 321.615234 
L 886.460937 321.615234 
L 886.460937 0 
L 0 0 
z
" style="fill: #ffffff"/>
  </g>
  <g id="axes_1">
   <g id="patch_2">
    <path d="M 42.260938 305.596875 
L 422.715483 305.596875 
L 422.715483 28.396875 
L 42.260938 28.396875 
z
" style="fill: #ffffff"/>
   </g>
   <g id="matplotlib.axis_1">
    <g id="xtick_1">
     <g id="line2d_1">
      <defs>
       <path id="mc9874e4909" d="M 0 0 
L 0 3.5 
" style="stroke: #000000; stroke-width: 0.8"/>
      </defs>
      <g>
       <use xlink:href="#mc9874e4909" x="232.48821" y="305.596875" style="stroke: #000000; stroke-width: 0.8"/>
      </g>
     </g>
    </g>
   </g>
   <g id="matplotlib.axis_2">
    <g id="ytick_1">
     <g id="line2d_2">
      <defs>
       <path id="m0210f053df" d="M 0 0 
L -3.5 0 
" style="stroke: #000000; stroke-width: 0.8"/>
      </defs>
      <g>
       <use xlink:href="#m0210f053df" x="42.260938" y="305.596875" style="stroke: #000000; stroke-width: 0.8"/>
      </g>
     </g>
     <g id="text_1">
      <!-- 0 -->
      <g transform="translate(25.717188 311.295703) scale(0.15 -0.15)">
       <defs>
        <path id="DejaVuSans-30" d="M 2034 4250 
Q 1547 4250 1301 3770 
Q 1056 3291 1056 2328 
Q 1056 1369 1301 889 
Q 1547 409 2034 409 
Q 2525 409 2770 889 
Q 3016 1369 3016 2328 
Q 3016 3291 2770 3770 
Q 2525 4250 2034 4250 
z
M 2034 4750 
Q 2819 4750 3233 4129 
Q 3647 3509 3647 2328 
Q 3647 1150 3233 529 
Q 2819 -91 2034 -91 
Q 1250 -91 836 529 
Q 422 1150 422 2328 
Q 422 3509 836 4129 
Q 1250 4750 2034 4750 
z
" transform="scale(0.015625)"/>
       </defs>
       <use xlink:href="#DejaVuSans-30"/>
      </g>
     </g>
    </g>
    <g id="ytick_2">
     <g id="line2d_3">
      <g>
       <use xlink:href="#m0210f053df" x="42.260938" y="250.156875" style="stroke: #000000; stroke-width: 0.8"/>
      </g>
     </g>
     <g id="text_2">
      <!-- 1 -->
      <g transform="translate(25.717188 255.855703) scale(0.15 -0.15)">
       <defs>
        <path id="DejaVuSans-31" d="M 794 531 
L 1825 531 
L 1825 4091 
L 703 3866 
L 703 4441 
L 1819 4666 
L 2450 4666 
L 2450 531 
L 3481 531 
L 3481 0 
L 794 0 
L 794 531 
z
" transform="scale(0.015625)"/>
       </defs>
       <use xlink:href="#DejaVuSans-31"/>
      </g>
     </g>
    </g>
    <g id="ytick_3">
     <g id="line2d_4">
      <g>
       <use xlink:href="#m0210f053df" x="42.260938" y="194.716875" style="stroke: #000000; stroke-width: 0.8"/>
      </g>
     </g>
     <g id="text_3">
      <!-- 2 -->
      <g transform="translate(25.717188 200.415703) scale(0.15 -0.15)">
       <defs>
        <path id="DejaVuSans-32" d="M 1228 531 
L 3431 531 
L 3431 0 
L 469 0 
L 469 531 
Q 828 903 1448 1529 
Q 2069 2156 2228 2338 
Q 2531 2678 2651 2914 
Q 2772 3150 2772 3378 
Q 2772 3750 2511 3984 
Q 2250 4219 1831 4219 
Q 1534 4219 1204 4116 
Q 875 4013 500 3803 
L 500 4441 
Q 881 4594 1212 4672 
Q 1544 4750 1819 4750 
Q 2544 4750 2975 4387 
Q 3406 4025 3406 3419 
Q 3406 3131 3298 2873 
Q 3191 2616 2906 2266 
Q 2828 2175 2409 1742 
Q 1991 1309 1228 531 
z
" transform="scale(0.015625)"/>
       </defs>
       <use xlink:href="#DejaVuSans-32"/>
      </g>
     </g>
    </g>
    <g id="ytick_4">
     <g id="line2d_5">
      <g>
       <use xlink:href="#m0210f053df" x="42.260938" y="139.276875" style="stroke: #000000; stroke-width: 0.8"/>
      </g>
     </g>
     <g id="text_4">
      <!-- 3 -->
      <g transform="translate(25.717188 144.975703) scale(0.15 -0.15)">
       <defs>
        <path id="DejaVuSans-33" d="M 2597 2516 
Q 3050 2419 3304 2112 
Q 3559 1806 3559 1356 
Q 3559 666 3084 287 
Q 2609 -91 1734 -91 
Q 1441 -91 1130 -33 
Q 819 25 488 141 
L 488 750 
Q 750 597 1062 519 
Q 1375 441 1716 441 
Q 2309 441 2620 675 
Q 2931 909 2931 1356 
Q 2931 1769 2642 2001 
Q 2353 2234 1838 2234 
L 1294 2234 
L 1294 2753 
L 1863 2753 
Q 2328 2753 2575 2939 
Q 2822 3125 2822 3475 
Q 2822 3834 2567 4026 
Q 2313 4219 1838 4219 
Q 1578 4219 1281 4162 
Q 984 4106 628 3988 
L 628 4550 
Q 988 4650 1302 4700 
Q 1616 4750 1894 4750 
Q 2613 4750 3031 4423 
Q 3450 4097 3450 3541 
Q 3450 3153 3228 2886 
Q 3006 2619 2597 2516 
z
" transform="scale(0.015625)"/>
       </defs>
       <use xlink:href="#DejaVuSans-33"/>
      </g>
     </g>
    </g>
    <g id="ytick_5">
     <g id="line2d_6">
      <g>
       <use xlink:href="#m0210f053df" x="42.260938" y="83.836875" style="stroke: #000000; stroke-width: 0.8"/>
      </g>
     </g>
     <g id="text_5">
      <!-- 4 -->
      <g transform="translate(25.717188 89.535703) scale(0.15 -0.15)">
       <defs>
        <path id="DejaVuSans-34" d="M 2419 4116 
L 825 1625 
L 2419 1625 
L 2419 4116 
z
M 2253 4666 
L 3047 4666 
L 3047 1625 
L 3713 1625 
L 3713 1100 
L 3047 1100 
L 3047 0 
L 2419 0 
L 2419 1100 
L 313 1100 
L 313 1709 
L 2253 4666 
z
" transform="scale(0.015625)"/>
       </defs>
       <use xlink:href="#DejaVuSans-34"/>
      </g>
     </g>
    </g>
    <g id="ytick_6">
     <g id="line2d_7">
      <g>
       <use xlink:href="#m0210f053df" x="42.260938" y="28.396875" style="stroke: #000000; stroke-width: 0.8"/>
      </g>
     </g>
     <g id="text_6">
      <!-- 5 -->
      <g transform="translate(25.717188 34.095703) scale(0.15 -0.15)">
       <defs>
        <path id="DejaVuSans-35" d="M 691 4666 
L 3169 4666 
L 3169 4134 
L 1269 4134 
L 1269 2991 
Q 1406 3038 1543 3061 
Q 1681 3084 1819 3084 
Q 2600 3084 3056 2656 
Q 3513 2228 3513 1497 
Q 3513 744 3044 326 
Q 2575 -91 1722 -91 
Q 1428 -91 1123 -41 
Q 819 9 494 109 
L 494 744 
Q 775 591 1075 516 
Q 1375 441 1709 441 
Q 2250 441 2565 725 
Q 2881 1009 2881 1497 
Q 2881 1984 2565 2268 
Q 2250 2553 1709 2553 
Q 1456 2553 1204 2497 
Q 953 2441 691 2322 
L 691 4666 
z
" transform="scale(0.015625)"/>
       </defs>
       <use xlink:href="#DejaVuSans-35"/>
      </g>
     </g>
    </g>
    <g id="text_7">
     <!-- Width (um) -->
     <g transform="translate(18.597656 209.076562) rotate(-90) scale(0.15 -0.15)">
      <defs>
       <path id="DejaVuSans-57" d="M 213 4666 
L 850 4666 
L 1831 722 
L 2809 4666 
L 3519 4666 
L 4500 722 
L 5478 4666 
L 6119 4666 
L 4947 0 
L 4153 0 
L 3169 4050 
L 2175 0 
L 1381 0 
L 213 4666 
z
" transform="scale(0.015625)"/>
       <path id="DejaVuSans-69" d="M 603 3500 
L 1178 3500 
L 1178 0 
L 603 0 
L 603 3500 
z
M 603 4863 
L 1178 4863 
L 1178 4134 
L 603 4134 
L 603 4863 
z
" transform="scale(0.015625)"/>
       <path id="DejaVuSans-64" d="M 2906 2969 
L 2906 4863 
L 3481 4863 
L 3481 0 
L 2906 0 
L 2906 525 
Q 2725 213 2448 61 
Q 2172 -91 1784 -91 
Q 1150 -91 751 415 
Q 353 922 353 1747 
Q 353 2572 751 3078 
Q 1150 3584 1784 3584 
Q 2172 3584 2448 3432 
Q 2725 3281 2906 2969 
z
M 947 1747 
Q 947 1113 1208 752 
Q 1469 391 1925 391 
Q 2381 391 2643 752 
Q 2906 1113 2906 1747 
Q 2906 2381 2643 2742 
Q 2381 3103 1925 3103 
Q 1469 3103 1208 2742 
Q 947 2381 947 1747 
z
" transform="scale(0.015625)"/>
       <path id="DejaVuSans-74" d="M 1172 4494 
L 1172 3500 
L 2356 3500 
L 2356 3053 
L 1172 3053 
L 1172 1153 
Q 1172 725 1289 603 
Q 1406 481 1766 481 
L 2356 481 
L 2356 0 
L 1766 0 
Q 1100 0 847 248 
Q 594 497 594 1153 
L 594 3053 
L 172 3053 
L 172 3500 
L 594 3500 
L 594 4494 
L 1172 4494 
z
" transform="scale(0.015625)"/>
       <path id="DejaVuSans-68" d="M 3513 2113 
L 3513 0 
L 2938 0 
L 2938 2094 
Q 2938 2591 2744 2837 
Q 2550 3084 2163 3084 
Q 1697 3084 1428 2787 
Q 1159 2491 1159 1978 
L 1159 0 
L 581 0 
L 581 4863 
L 1159 4863 
L 1159 2956 
Q 1366 3272 1645 3428 
Q 1925 3584 2291 3584 
Q 2894 3584 3203 3211 
Q 3513 2838 3513 2113 
z
" transform="scale(0.015625)"/>
       <path id="DejaVuSans-20" transform="scale(0.015625)"/>
       <path id="DejaVuSans-28" d="M 1984 4856 
Q 1566 4138 1362 3434 
Q 1159 2731 1159 2009 
Q 1159 1288 1364 580 
Q 1569 -128 1984 -844 
L 1484 -844 
Q 1016 -109 783 600 
Q 550 1309 550 2009 
Q 550 2706 781 3412 
Q 1013 4119 1484 4856 
L 1984 4856 
z
" transform="scale(0.015625)"/>
       <path id="DejaVuSans-75" d="M 544 1381 
L 544 3500 
L 1119 3500 
L 1119 1403 
Q 1119 906 1312 657 
Q 1506 409 1894 409 
Q 2359 409 2629 706 
Q 2900 1003 2900 1516 
L 2900 3500 
L 3475 3500 
L 3475 0 
L 2900 0 
L 2900 538 
Q 2691 219 2414 64 
Q 2138 -91 1772 -91 
Q 1169 -91 856 284 
Q 544 659 544 1381 
z
M 1991 3584 
L 1991 3584 
z
" transform="scale(0.015625)"/>
       <path id="DejaVuSans-6d" d="M 3328 2828 
Q 3544 3216 3844 3400 
Q 4144 3584 4550 3584 
Q 5097 3584 5394 3201 
Q 5691 2819 5691 2113 
L 5691 0 
L 5113 0 
L 5113 2094 
Q 5113 2597 4934 2840 
Q 4756 3084 4391 3084 
Q 3944 3084 3684 2787 
Q 3425 2491 3425 1978 
L 3425 0 
L 2847 0 
L 2847 2094 
Q 2847 2600 2669 2842 
Q 2491 3084 2119 3084 
Q 1678 3084 1418 2786 
Q 1159 2488 1159 1978 
L 1159 0 
L 581 0 
L 581 3500 
L 1159 3500 
L 1159 2956 
Q 1356 3278 1631 3431 
Q 1906 3584 2284 3584 
Q 2666 3584 2933 3390 
Q 3200 3197 3328 2828 
z
" transform="scale(0.015625)"/>
       <path id="DejaVuSans-29" d="M 513 4856 
L 1013 4856 
Q 1481 4119 1714 3412 
Q 1947 2706 1947 2009 
Q 1947 1309 1714 600 
Q 1481 -109 1013 -844 
L 513 -844 
Q 928 -128 1133 580 
Q 1338 1288 1338 2009 
Q 1338 2731 1133 3434 
Q 928 4138 513 4856 
z
" transform="scale(0.015625)"/>
      </defs>
      <use xlink:href="#DejaVuSans-57"/>
      <use xlink:href="#DejaVuSans-69" x="96.626953"/>
      <use xlink:href="#DejaVuSans-64" x="124.410156"/>
      <use xlink:href="#DejaVuSans-74" x="187.886719"/>
      <use xlink:href="#DejaVuSans-68" x="227.095703"/>
      <use xlink:href="#DejaVuSans-20" x="290.474609"/>
      <use xlink:href="#DejaVuSans-28" x="322.261719"/>
      <use xlink:href="#DejaVuSans-75" x="361.275391"/>
      <use xlink:href="#DejaVuSans-6d" x="424.654297"/>
      <use xlink:href="#DejaVuSans-29" x="522.066406"/>
     </g>
    </g>
   </g>
   <g id="patch_3">
    <path d="M 80.306392 271.089208 
L 232.48821 271.089208 
L 232.48821 260.04184 
L 80.306392 260.04184 
L 80.306392 271.089208 
z
" clip-path="url(#pbbf16e8173)" style="fill: #ffffff; stroke: #999999; stroke-linejoin: miter"/>
   </g>
   <g id="line2d_8">
    <path d="M 156.397301 271.089208 
L 156.397301 275.862267 
" clip-path="url(#pbbf16e8173)" style="fill: none; stroke: #999999"/>
   </g>
   <g id="line2d_9">
    <path d="M 156.397301 260.04184 
L 156.397301 255.197825 
" clip-path="url(#pbbf16e8173)" style="fill: none; stroke: #999999"/>
   </g>
   <g id="line2d_10">
    <path d="M 118.351847 275.862267 
L 194.442756 275.862267 
" clip-path="url(#pbbf16e8173)" style="fill: none; stroke: #999999; stroke-linecap: square"/>
   </g>
   <g id="line2d_11">
    <path d="M 118.351847 255.197825 
L 194.442756 255.197825 
" clip-path="url(#pbbf16e8173)" style="fill: none; stroke: #999999; stroke-linecap: square"/>
   </g>
   <g id="line2d_12"/>
   <g id="patch_4">
    <path d="M 232.48821 270.354615 
L 384.670028 270.354615 
L 384.670028 265.414193 
L 232.48821 265.414193 
L 232.48821 270.354615 
z
" clip-path="url(#pbbf16e8173)" style="fill: #ffffff; stroke: #999999; stroke-linejoin: miter"/>
   </g>
   <g id="line2d_13">
    <path d="M 308.579119 270.354615 
L 308.579119 275.325229 
" clip-path="url(#pbbf16e8173)" style="fill: none; stroke: #999999"/>
   </g>
   <g id="line2d_14">
    <path d="M 308.579119 265.414193 
L 308.579119 261.840531 
" clip-path="url(#pbbf16e8173)" style="fill: none; stroke: #999999"/>
   </g>
   <g id="line2d_15">
    <path d="M 270.533665 275.325229 
L 346.624574 275.325229 
" clip-path="url(#pbbf16e8173)" style="fill: none; stroke: #999999; stroke-linecap: square"/>
   </g>
   <g id="line2d_16">
    <path d="M 270.533665 261.840531 
L 346.624574 261.840531 
" clip-path="url(#pbbf16e8173)" style="fill: none; stroke: #999999; stroke-linecap: square"/>
   </g>
   <g id="line2d_17"/>
   <g id="line2d_18">
    <path d="M 80.306392 267.192674 
L 232.48821 267.192674 
" clip-path="url(#pbbf16e8173)" style="fill: none; stroke: #999999"/>
   </g>
   <g id="line2d_19">
    <path d="M 232.48821 268.164892 
L 384.670028 268.164892 
" clip-path="url(#pbbf16e8173)" style="fill: none; stroke: #999999"/>
   </g>
   <g id="patch_5">
    <path d="M 42.260938 305.596875 
L 42.260938 28.396875 
" style="fill: none; stroke: #000000; stroke-width: 0.8; stroke-linejoin: miter; stroke-linecap: square"/>
   </g>
   <g id="patch_6">
    <path d="M 422.715483 305.596875 
L 422.715483 28.396875 
" style="fill: none; stroke: #000000; stroke-width: 0.8; stroke-linejoin: miter; stroke-linecap: square"/>
   </g>
   <g id="patch_7">
    <path d="M 42.260938 305.596875 
L 422.715483 305.596875 
" style="fill: none; stroke: #000000; stroke-width: 0.8; stroke-linejoin: miter; stroke-linecap: square"/>
   </g>
   <g id="patch_8">
    <path d="M 42.260938 28.396875 
L 422.715483 28.396875 
" style="fill: none; stroke: #000000; stroke-width: 0.8; stroke-linejoin: miter; stroke-linecap: square"/>
   </g>
   <g id="PathCollection_1">
    <defs>
     <path id="C0_0_a4dbe6e840" d="M 0 5 
C 1.326016 5 2.597899 4.473168 3.535534 3.535534 
C 4.473168 2.597899 5 1.326016 5 -0 
C 5 -1.326016 4.473168 -2.597899 3.535534 -3.535534 
C 2.597899 -4.473168 1.326016 -5 0 -5 
C -1.326016 -5 -2.597899 -4.473168 -3.535534 -3.535534 
C -4.473168 -2.597899 -5 -1.326016 -5 0 
C -5 1.326016 -4.473168 2.597899 -3.535534 3.535534 
C -2.597899 4.473168 -1.326016 5 0 5 
z
"/>
    </defs>
    <g clip-path="url(#pbbf16e8173)">
     <use xlink:href="#C0_0_a4dbe6e840" x="161.812114" y="264.444947" style="fill: #808080; stroke: #000000"/>
    </g>
    <g clip-path="url(#pbbf16e8173)">
     <use xlink:href="#C0_0_a4dbe6e840" x="170.159212" y="275.862267" style="fill: #808080; stroke: #000000"/>
    </g>
    <g clip-path="url(#pbbf16e8173)">
     <use xlink:href="#C0_0_a4dbe6e840" x="143.831523" y="272.194785" style="fill: #808080; stroke: #000000"/>
    </g>
    <g clip-path="url(#pbbf16e8173)">
     <use xlink:href="#C0_0_a4dbe6e840" x="173.983769" y="272.050447" style="fill: #808080; stroke: #000000"/>
    </g>
    <g clip-path="url(#pbbf16e8173)">
     <use xlink:href="#C0_0_a4dbe6e840" x="146.023663" y="255.496853" style="fill: #808080; stroke: #000000"/>
    </g>
    <g clip-path="url(#pbbf16e8173)">
     <use xlink:href="#C0_0_a4dbe6e840" x="156.07574" y="270.127969" style="fill: #808080; stroke: #000000"/>
    </g>
    <g clip-path="url(#pbbf16e8173)">
     <use xlink:href="#C0_0_a4dbe6e840" x="171.567342" y="260.197711" style="fill: #808080; stroke: #000000"/>
    </g>
    <g clip-path="url(#pbbf16e8173)">
     <use xlink:href="#C0_0_a4dbe6e840" x="151.321628" y="269.149372" style="fill: #808080; stroke: #000000"/>
    </g>
    <g clip-path="url(#pbbf16e8173)">
     <use xlink:href="#C0_0_a4dbe6e840" x="142.927297" y="267.192674" style="fill: #808080; stroke: #000000"/>
    </g>
    <g clip-path="url(#pbbf16e8173)">
     <use xlink:href="#C0_0_a4dbe6e840" x="167.064538" y="255.197825" style="fill: #808080; stroke: #000000"/>
    </g>
    <g clip-path="url(#pbbf16e8173)">
     <use xlink:href="#C0_0_a4dbe6e840" x="160.033763" y="257.812136" style="fill: #808080; stroke: #000000"/>
    </g>
    <g clip-path="url(#pbbf16e8173)">
     <use xlink:href="#C0_0_a4dbe6e840" x="137.608278" y="272.315816" style="fill: #808080; stroke: #000000"/>
    </g>
    <g clip-path="url(#pbbf16e8173)">
     <use xlink:href="#C0_0_a4dbe6e840" x="174.239683" y="259.885968" style="fill: #808080; stroke: #000000"/>
    </g>
    <g clip-path="url(#pbbf16e8173)">
     <use xlink:href="#C0_0_a4dbe6e840" x="160.633441" y="266.669914" style="fill: #808080; stroke: #000000"/>
    </g>
    <g clip-path="url(#pbbf16e8173)">
     <use xlink:href="#C0_0_a4dbe6e840" x="161.366554" y="269.973445" style="fill: #808080; stroke: #000000"/>
    </g>
   </g>
   <g id="PathCollection_2">
    <defs>
     <path id="C1_0_03f17cf2c0" d="M 0 5 
C 1.326016 5 2.597899 4.473168 3.535534 3.535534 
C 4.473168 2.597899 5 1.326016 5 -0 
C 5 -1.326016 4.473168 -2.597899 3.535534 -3.535534 
C 2.597899 -4.473168 1.326016 -5 0 -5 
C -1.326016 -5 -2.597899 -4.473168 -3.535534 -3.535534 
C -4.473168 -2.597899 -5 -1.326016 -5 0 
C -5 1.326016 -4.473168 2.597899 -3.535534 3.535534 
C -2.597899 4.473168 -1.326016 5 0 5 
z
"/>
    </defs>
    <g clip-path="url(#pbbf16e8173)">
     <use xlink:href="#C1_0_03f17cf2c0" x="321.251366" y="275.325229" style="fill: #3386ff; stroke: #000000"/>
    </g>
    <g clip-path="url(#pbbf16e8173)">
     <use xlink:href="#C1_0_03f17cf2c0" x="297.9536" y="262.800813" style="fill: #3386ff; stroke: #000000"/>
    </g>
    <g clip-path="url(#pbbf16e8173)">
     <use xlink:href="#C1_0_03f17cf2c0" x="318.8512" y="261.840531" style="fill: #3386ff; stroke: #000000"/>
    </g>
    <g clip-path="url(#pbbf16e8173)">
     <use xlink:href="#C1_0_03f17cf2c0" x="310.04545" y="268.027573" style="fill: #3386ff; stroke: #000000"/>
    </g>
    <g clip-path="url(#pbbf16e8173)">
     <use xlink:href="#C1_0_03f17cf2c0" x="299.543899" y="272.446381" style="fill: #3386ff; stroke: #000000"/>
    </g>
    <g clip-path="url(#pbbf16e8173)">
     <use xlink:href="#C1_0_03f17cf2c0" x="296.402309" y="268.164892" style="fill: #3386ff; stroke: #000000"/>
    </g>
    <g clip-path="url(#pbbf16e8173)">
     <use xlink:href="#C1_0_03f17cf2c0" x="313.210632" y="268.26285" style="fill: #3386ff; stroke: #000000"/>
    </g>
   </g>
   <g id="text_8">
    <!-- p = 0.38589 -->
    <g transform="translate(277.360369 250.156875) scale(0.1 -0.1)">
     <defs>
      <path id="DejaVuSans-70" d="M 1159 525 
L 1159 -1331 
L 581 -1331 
L 581 3500 
L 1159 3500 
L 1159 2969 
Q 1341 3281 1617 3432 
Q 1894 3584 2278 3584 
Q 2916 3584 3314 3078 
Q 3713 2572 3713 1747 
Q 3713 922 3314 415 
Q 2916 -91 2278 -91 
Q 1894 -91 1617 61 
Q 1341 213 1159 525 
z
M 3116 1747 
Q 3116 2381 2855 2742 
Q 2594 3103 2138 3103 
Q 1681 3103 1420 2742 
Q 1159 2381 1159 1747 
Q 1159 1113 1420 752 
Q 1681 391 2138 391 
Q 2594 391 2855 752 
Q 3116 1113 3116 1747 
z
" transform="scale(0.015625)"/>
      <path id="DejaVuSans-3d" d="M 678 2906 
L 4684 2906 
L 4684 2381 
L 678 2381 
L 678 2906 
z
M 678 1631 
L 4684 1631 
L 4684 1100 
L 678 1100 
L 678 1631 
z
" transform="scale(0.015625)"/>
      <path id="DejaVuSans-2e" d="M 684 794 
L 1344 794 
L 1344 0 
L 684 0 
L 684 794 
z
" transform="scale(0.015625)"/>
      <path id="DejaVuSans-38" d="M 2034 2216 
Q 1584 2216 1326 1975 
Q 1069 1734 1069 1313 
Q 1069 891 1326 650 
Q 1584 409 2034 409 
Q 2484 409 2743 651 
Q 3003 894 3003 1313 
Q 3003 1734 2745 1975 
Q 2488 2216 2034 2216 
z
M 1403 2484 
Q 997 2584 770 2862 
Q 544 3141 544 3541 
Q 544 4100 942 4425 
Q 1341 4750 2034 4750 
Q 2731 4750 3128 4425 
Q 3525 4100 3525 3541 
Q 3525 3141 3298 2862 
Q 3072 2584 2669 2484 
Q 3125 2378 3379 2068 
Q 3634 1759 3634 1313 
Q 3634 634 3220 271 
Q 2806 -91 2034 -91 
Q 1263 -91 848 271 
Q 434 634 434 1313 
Q 434 1759 690 2068 
Q 947 2378 1403 2484 
z
M 1172 3481 
Q 1172 3119 1398 2916 
Q 1625 2713 2034 2713 
Q 2441 2713 2670 2916 
Q 2900 3119 2900 3481 
Q 2900 3844 2670 4047 
Q 2441 4250 2034 4250 
Q 1625 4250 1398 4047 
Q 1172 3844 1172 3481 
z
" transform="scale(0.015625)"/>
      <path id="DejaVuSans-39" d="M 703 97 
L 703 672 
Q 941 559 1184 500 
Q 1428 441 1663 441 
Q 2288 441 2617 861 
Q 2947 1281 2994 2138 
Q 2813 1869 2534 1725 
Q 2256 1581 1919 1581 
Q 1219 1581 811 2004 
Q 403 2428 403 3163 
Q 403 3881 828 4315 
Q 1253 4750 1959 4750 
Q 2769 4750 3195 4129 
Q 3622 3509 3622 2328 
Q 3622 1225 3098 567 
Q 2575 -91 1691 -91 
Q 1453 -91 1209 -44 
Q 966 3 703 97 
z
M 1959 2075 
Q 2384 2075 2632 2365 
Q 2881 2656 2881 3163 
Q 2881 3666 2632 3958 
Q 2384 4250 1959 4250 
Q 1534 4250 1286 3958 
Q 1038 3666 1038 3163 
Q 1038 2656 1286 2365 
Q 1534 2075 1959 2075 
z
" transform="scale(0.015625)"/>
     </defs>
     <use xlink:href="#DejaVuSans-70"/>
     <use xlink:href="#DejaVuSans-20" x="63.476562"/>
     <use xlink:href="#DejaVuSans-3d" x="95.263672"/>
     <use xlink:href="#DejaVuSans-20" x="179.052734"/>
     <use xlink:href="#DejaVuSans-30" x="210.839844"/>
     <use xlink:href="#DejaVuSans-2e" x="274.462891"/>
     <use xlink:href="#DejaVuSans-33" x="306.25"/>
     <use xlink:href="#DejaVuSans-38" x="369.873047"/>
     <use xlink:href="#DejaVuSans-35" x="433.496094"/>
     <use xlink:href="#DejaVuSans-38" x="497.119141"/>
     <use xlink:href="#DejaVuSans-39" x="560.742188"/>
    </g>
   </g>
   <g id="text_9">
    <!-- Asl Width at Half Height -->
    <g transform="translate(95.871023 22.396875) scale(0.2 -0.2)">
     <defs>
      <path id="DejaVuSans-Bold-41" d="M 3419 850 
L 1538 850 
L 1241 0 
L 31 0 
L 1759 4666 
L 3194 4666 
L 4922 0 
L 3713 0 
L 3419 850 
z
M 1838 1716 
L 3116 1716 
L 2478 3572 
L 1838 1716 
z
" transform="scale(0.015625)"/>
      <path id="DejaVuSans-Bold-73" d="M 3272 3391 
L 3272 2541 
Q 2913 2691 2578 2766 
Q 2244 2841 1947 2841 
Q 1628 2841 1473 2761 
Q 1319 2681 1319 2516 
Q 1319 2381 1436 2309 
Q 1553 2238 1856 2203 
L 2053 2175 
Q 2913 2066 3209 1816 
Q 3506 1566 3506 1031 
Q 3506 472 3093 190 
Q 2681 -91 1863 -91 
Q 1516 -91 1145 -36 
Q 775 19 384 128 
L 384 978 
Q 719 816 1070 734 
Q 1422 653 1784 653 
Q 2113 653 2278 743 
Q 2444 834 2444 1013 
Q 2444 1163 2330 1236 
Q 2216 1309 1875 1350 
L 1678 1375 
Q 931 1469 631 1722 
Q 331 1975 331 2491 
Q 331 3047 712 3315 
Q 1094 3584 1881 3584 
Q 2191 3584 2531 3537 
Q 2872 3491 3272 3391 
z
" transform="scale(0.015625)"/>
      <path id="DejaVuSans-Bold-6c" d="M 538 4863 
L 1656 4863 
L 1656 0 
L 538 0 
L 538 4863 
z
" transform="scale(0.015625)"/>
      <path id="DejaVuSans-Bold-20" transform="scale(0.015625)"/>
      <path id="DejaVuSans-Bold-57" d="M 191 4666 
L 1344 4666 
L 2150 1275 
L 2950 4666 
L 4109 4666 
L 4909 1275 
L 5716 4666 
L 6859 4666 
L 5759 0 
L 4372 0 
L 3525 3547 
L 2688 0 
L 1300 0 
L 191 4666 
z
" transform="scale(0.015625)"/>
      <path id="DejaVuSans-Bold-69" d="M 538 3500 
L 1656 3500 
L 1656 0 
L 538 0 
L 538 3500 
z
M 538 4863 
L 1656 4863 
L 1656 3950 
L 538 3950 
L 538 4863 
z
" transform="scale(0.015625)"/>
      <path id="DejaVuSans-Bold-64" d="M 2919 2988 
L 2919 4863 
L 4044 4863 
L 4044 0 
L 2919 0 
L 2919 506 
Q 2688 197 2409 53 
Q 2131 -91 1766 -91 
Q 1119 -91 703 423 
Q 288 938 288 1747 
Q 288 2556 703 3070 
Q 1119 3584 1766 3584 
Q 2128 3584 2408 3439 
Q 2688 3294 2919 2988 
z
M 2181 722 
Q 2541 722 2730 984 
Q 2919 1247 2919 1747 
Q 2919 2247 2730 2509 
Q 2541 2772 2181 2772 
Q 1825 2772 1636 2509 
Q 1447 2247 1447 1747 
Q 1447 1247 1636 984 
Q 1825 722 2181 722 
z
" transform="scale(0.015625)"/>
      <path id="DejaVuSans-Bold-74" d="M 1759 4494 
L 1759 3500 
L 2913 3500 
L 2913 2700 
L 1759 2700 
L 1759 1216 
Q 1759 972 1856 886 
Q 1953 800 2241 800 
L 2816 800 
L 2816 0 
L 1856 0 
Q 1194 0 917 276 
Q 641 553 641 1216 
L 641 2700 
L 84 2700 
L 84 3500 
L 641 3500 
L 641 4494 
L 1759 4494 
z
" transform="scale(0.015625)"/>
      <path id="DejaVuSans-Bold-68" d="M 4056 2131 
L 4056 0 
L 2931 0 
L 2931 347 
L 2931 1625 
Q 2931 2084 2911 2256 
Q 2891 2428 2841 2509 
Q 2775 2619 2662 2680 
Q 2550 2741 2406 2741 
Q 2056 2741 1856 2470 
Q 1656 2200 1656 1722 
L 1656 0 
L 538 0 
L 538 4863 
L 1656 4863 
L 1656 2988 
Q 1909 3294 2193 3439 
Q 2478 3584 2822 3584 
Q 3428 3584 3742 3212 
Q 4056 2841 4056 2131 
z
" transform="scale(0.015625)"/>
      <path id="DejaVuSans-Bold-61" d="M 2106 1575 
Q 1756 1575 1579 1456 
Q 1403 1338 1403 1106 
Q 1403 894 1545 773 
Q 1688 653 1941 653 
Q 2256 653 2472 879 
Q 2688 1106 2688 1447 
L 2688 1575 
L 2106 1575 
z
M 3816 1997 
L 3816 0 
L 2688 0 
L 2688 519 
Q 2463 200 2181 54 
Q 1900 -91 1497 -91 
Q 953 -91 614 226 
Q 275 544 275 1050 
Q 275 1666 698 1953 
Q 1122 2241 2028 2241 
L 2688 2241 
L 2688 2328 
Q 2688 2594 2478 2717 
Q 2269 2841 1825 2841 
Q 1466 2841 1156 2769 
Q 847 2697 581 2553 
L 581 3406 
Q 941 3494 1303 3539 
Q 1666 3584 2028 3584 
Q 2975 3584 3395 3211 
Q 3816 2838 3816 1997 
z
" transform="scale(0.015625)"/>
      <path id="DejaVuSans-Bold-48" d="M 588 4666 
L 1791 4666 
L 1791 2888 
L 3566 2888 
L 3566 4666 
L 4769 4666 
L 4769 0 
L 3566 0 
L 3566 1978 
L 1791 1978 
L 1791 0 
L 588 0 
L 588 4666 
z
" transform="scale(0.015625)"/>
      <path id="DejaVuSans-Bold-66" d="M 2841 4863 
L 2841 4128 
L 2222 4128 
Q 1984 4128 1890 4042 
Q 1797 3956 1797 3744 
L 1797 3500 
L 2753 3500 
L 2753 2700 
L 1797 2700 
L 1797 0 
L 678 0 
L 678 2700 
L 122 2700 
L 122 3500 
L 678 3500 
L 678 3744 
Q 678 4316 997 4589 
Q 1316 4863 1984 4863 
L 2841 4863 
z
" transform="scale(0.015625)"/>
      <path id="DejaVuSans-Bold-65" d="M 4031 1759 
L 4031 1441 
L 1416 1441 
Q 1456 1047 1700 850 
Q 1944 653 2381 653 
Q 2734 653 3104 758 
Q 3475 863 3866 1075 
L 3866 213 
Q 3469 63 3072 -14 
Q 2675 -91 2278 -91 
Q 1328 -91 801 392 
Q 275 875 275 1747 
Q 275 2603 792 3093 
Q 1309 3584 2216 3584 
Q 3041 3584 3536 3087 
Q 4031 2591 4031 1759 
z
M 2881 2131 
Q 2881 2450 2695 2645 
Q 2509 2841 2209 2841 
Q 1884 2841 1681 2658 
Q 1478 2475 1428 2131 
L 2881 2131 
z
" transform="scale(0.015625)"/>
      <path id="DejaVuSans-Bold-67" d="M 2919 594 
Q 2688 288 2409 144 
Q 2131 0 1766 0 
Q 1125 0 706 504 
Q 288 1009 288 1791 
Q 288 2575 706 3076 
Q 1125 3578 1766 3578 
Q 2131 3578 2409 3434 
Q 2688 3291 2919 2981 
L 2919 3500 
L 4044 3500 
L 4044 353 
Q 4044 -491 3511 -936 
Q 2978 -1381 1966 -1381 
Q 1638 -1381 1331 -1331 
Q 1025 -1281 716 -1178 
L 716 -306 
Q 1009 -475 1290 -558 
Q 1572 -641 1856 -641 
Q 2406 -641 2662 -400 
Q 2919 -159 2919 353 
L 2919 594 
z
M 2181 2772 
Q 1834 2772 1640 2515 
Q 1447 2259 1447 1791 
Q 1447 1309 1634 1061 
Q 1822 813 2181 813 
Q 2531 813 2725 1069 
Q 2919 1325 2919 1791 
Q 2919 2259 2725 2515 
Q 2531 2772 2181 2772 
z
" transform="scale(0.015625)"/>
     </defs>
     <use xlink:href="#DejaVuSans-Bold-41"/>
     <use xlink:href="#DejaVuSans-Bold-73" x="77.392578"/>
     <use xlink:href="#DejaVuSans-Bold-6c" x="136.914062"/>
     <use xlink:href="#DejaVuSans-Bold-20" x="171.191406"/>
     <use xlink:href="#DejaVuSans-Bold-57" x="206.005859"/>
     <use xlink:href="#DejaVuSans-Bold-69" x="316.308594"/>
     <use xlink:href="#DejaVuSans-Bold-64" x="350.585938"/>
     <use xlink:href="#DejaVuSans-Bold-74" x="422.167969"/>
     <use xlink:href="#DejaVuSans-Bold-68" x="469.970703"/>
     <use xlink:href="#DejaVuSans-Bold-20" x="541.162109"/>
     <use xlink:href="#DejaVuSans-Bold-61" x="575.976562"/>
     <use xlink:href="#DejaVuSans-Bold-74" x="643.457031"/>
     <use xlink:href="#DejaVuSans-Bold-20" x="691.259766"/>
     <use xlink:href="#DejaVuSans-Bold-48" x="726.074219"/>
     <use xlink:href="#DejaVuSans-Bold-61" x="809.765625"/>
     <use xlink:href="#DejaVuSans-Bold-6c" x="877.246094"/>
     <use xlink:href="#DejaVuSans-Bold-66" x="911.523438"/>
     <use xlink:href="#DejaVuSans-Bold-20" x="955.029297"/>
     <use xlink:href="#DejaVuSans-Bold-48" x="989.84375"/>
     <use xlink:href="#DejaVuSans-Bold-65" x="1073.535156"/>
     <use xlink:href="#DejaVuSans-Bold-69" x="1141.357422"/>
     <use xlink:href="#DejaVuSans-Bold-67" x="1175.634766"/>
     <use xlink:href="#DejaVuSans-Bold-68" x="1247.216797"/>
     <use xlink:href="#DejaVuSans-Bold-74" x="1318.408203"/>
    </g>
   </g>
  </g>
  <g id="axes_2">
   <g id="patch_9">
    <path d="M 498.806392 305.596875 
L 879.260937 305.596875 
L 879.260937 28.396875 
L 498.806392 28.396875 
z
" style="fill: #ffffff"/>
   </g>
   <g id="matplotlib.axis_3">
    <g id="xtick_2">
     <g id="line2d_20">
      <g>
       <use xlink:href="#mc9874e4909" x="689.033665" y="305.596875" style="stroke: #000000; stroke-width: 0.8"/>
      </g>
     </g>
    </g>
   </g>
   <g id="matplotlib.axis_4">
    <g id="ytick_7">
     <g id="line2d_21">
      <g>
       <use xlink:href="#m0210f053df" x="498.806392" y="305.596875" style="stroke: #000000; stroke-width: 0.8"/>
      </g>
     </g>
    </g>
    <g id="ytick_8">
     <g id="line2d_22">
      <g>
       <use xlink:href="#m0210f053df" x="498.806392" y="250.156875" style="stroke: #000000; stroke-width: 0.8"/>
      </g>
     </g>
    </g>
    <g id="ytick_9">
     <g id="line2d_23">
      <g>
       <use xlink:href="#m0210f053df" x="498.806392" y="194.716875" style="stroke: #000000; stroke-width: 0.8"/>
      </g>
     </g>
    </g>
    <g id="ytick_10">
     <g id="line2d_24">
      <g>
       <use xlink:href="#m0210f053df" x="498.806392" y="139.276875" style="stroke: #000000; stroke-width: 0.8"/>
      </g>
     </g>
    </g>
    <g id="ytick_11">
     <g id="line2d_25">
      <g>
       <use xlink:href="#m0210f053df" x="498.806392" y="83.836875" style="stroke: #000000; stroke-width: 0.8"/>
      </g>
     </g>
    </g>
    <g id="ytick_12">
     <g id="line2d_26">
      <g>
       <use xlink:href="#m0210f053df" x="498.806392" y="28.396875" style="stroke: #000000; stroke-width: 0.8"/>
      </g>
     </g>
    </g>
   </g>
   <g id="patch_10">
    <path d="M 536.851847 218.337701 
L 689.033665 218.337701 
L 689.033665 184.988373 
L 536.851847 184.988373 
L 536.851847 218.337701 
z
" clip-path="url(#paf10678e64)" style="fill: #ffffff; stroke: #999999; stroke-linejoin: miter"/>
   </g>
   <g id="line2d_27">
    <path d="M 612.942756 218.337701 
L 612.942756 237.069531 
" clip-path="url(#paf10678e64)" style="fill: none; stroke: #999999"/>
   </g>
   <g id="line2d_28">
    <path d="M 612.942756 184.988373 
L 612.942756 164.742298 
" clip-path="url(#paf10678e64)" style="fill: none; stroke: #999999"/>
   </g>
   <g id="line2d_29">
    <path d="M 574.897301 237.069531 
L 650.98821 237.069531 
" clip-path="url(#paf10678e64)" style="fill: none; stroke: #999999; stroke-linecap: square"/>
   </g>
   <g id="line2d_30">
    <path d="M 574.897301 164.742298 
L 650.98821 164.742298 
" clip-path="url(#paf10678e64)" style="fill: none; stroke: #999999; stroke-linecap: square"/>
   </g>
   <g id="line2d_31">
    <defs>
     <path id="me671a1a2b9" d="M 0 3 
C 0.795609 3 1.55874 2.683901 2.12132 2.12132 
C 2.683901 1.55874 3 0.795609 3 0 
C 3 -0.795609 2.683901 -1.55874 2.12132 -2.12132 
C 1.55874 -2.683901 0.795609 -3 0 -3 
C -0.795609 -3 -1.55874 -2.683901 -2.12132 -2.12132 
C -2.683901 -1.55874 -3 -0.795609 -3 0 
C -3 0.795609 -2.683901 1.55874 -2.12132 2.12132 
C -1.55874 2.683901 -0.795609 3 0 3 
z
" style="stroke: #999999"/>
    </defs>
    <g clip-path="url(#paf10678e64)">
     <use xlink:href="#me671a1a2b9" x="612.942756" y="123.27075" style="fill-opacity: 0; stroke: #999999"/>
    </g>
   </g>
   <g id="patch_11">
    <path d="M 689.033665 284.758917 
L 841.215483 284.758917 
L 841.215483 254.505908 
L 689.033665 254.505908 
L 689.033665 284.758917 
z
" clip-path="url(#paf10678e64)" style="fill: #ffffff; stroke: #999999; stroke-linejoin: miter"/>
   </g>
   <g id="line2d_32">
    <path d="M 765.124574 284.758917 
L 765.124574 292.424606 
" clip-path="url(#paf10678e64)" style="fill: none; stroke: #999999"/>
   </g>
   <g id="line2d_33">
    <path d="M 765.124574 254.505908 
L 765.124574 250.444611 
" clip-path="url(#paf10678e64)" style="fill: none; stroke: #999999"/>
   </g>
   <g id="line2d_34">
    <path d="M 727.079119 292.424606 
L 803.170028 292.424606 
" clip-path="url(#paf10678e64)" style="fill: none; stroke: #999999; stroke-linecap: square"/>
   </g>
   <g id="line2d_35">
    <path d="M 727.079119 250.444611 
L 803.170028 250.444611 
" clip-path="url(#paf10678e64)" style="fill: none; stroke: #999999; stroke-linecap: square"/>
   </g>
   <g id="line2d_36">
    <g clip-path="url(#paf10678e64)">
     <use xlink:href="#me671a1a2b9" x="765.124574" y="194.566446" style="fill-opacity: 0; stroke: #999999"/>
    </g>
   </g>
   <g id="line2d_37">
    <path d="M 536.851847 206.954548 
L 689.033665 206.954548 
" clip-path="url(#paf10678e64)" style="fill: none; stroke: #999999"/>
   </g>
   <g id="line2d_38">
    <path d="M 689.033665 258.765895 
L 841.215483 258.765895 
" clip-path="url(#paf10678e64)" style="fill: none; stroke: #999999"/>
   </g>
   <g id="patch_12">
    <path d="M 498.806392 305.596875 
L 498.806392 28.396875 
" style="fill: none; stroke: #000000; stroke-width: 0.8; stroke-linejoin: miter; stroke-linecap: square"/>
   </g>
   <g id="patch_13">
    <path d="M 879.260937 305.596875 
L 879.260937 28.396875 
" style="fill: none; stroke: #000000; stroke-width: 0.8; stroke-linejoin: miter; stroke-linecap: square"/>
   </g>
   <g id="patch_14">
    <path d="M 498.806392 305.596875 
L 879.260937 305.596875 
" style="fill: none; stroke: #000000; stroke-width: 0.8; stroke-linejoin: miter; stroke-linecap: square"/>
   </g>
   <g id="patch_15">
    <path d="M 498.806392 28.396875 
L 879.260937 28.396875 
" style="fill: none; stroke: #000000; stroke-width: 0.8; stroke-linejoin: miter; stroke-linecap: square"/>
   </g>
   <g id="PathCollection_3">
    <defs>
     <path id="C2_0_46d0b4b2ad" d="M 0 5 
C 1.326016 5 2.597899 4.473168 3.535534 3.535534 
C 4.473168 2.597899 5 1.326016 5 -0 
C 5 -1.326016 4.473168 -2.597899 3.535534 -3.535534 
C 2.597899 -4.473168 1.326016 -5 0 -5 
C -1.326016 -5 -2.597899 -4.473168 -3.535534 -3.535534 
C -4.473168 -2.597899 -5 -1.326016 -5 0 
C -5 1.326016 -4.473168 2.597899 -3.535534 3.535534 
C -2.597899 4.473168 -1.326016 5 0 5 
z
"/>
    </defs>
    <g clip-path="url(#paf10678e64)">
     <use xlink:href="#C2_0_46d0b4b2ad" x="611.618482" y="232.905932" style="fill: #808080; stroke: #000000"/>
    </g>
    <g clip-path="url(#paf10678e64)">
     <use xlink:href="#C2_0_46d0b4b2ad" x="627.467019" y="220.44214" style="fill: #808080; stroke: #000000"/>
    </g>
    <g clip-path="url(#paf10678e64)">
     <use xlink:href="#C2_0_46d0b4b2ad" x="601.391243" y="177.015652" style="fill: #808080; stroke: #000000"/>
    </g>
    <g clip-path="url(#paf10678e64)">
     <use xlink:href="#C2_0_46d0b4b2ad" x="600.112905" y="206.954548" style="fill: #808080; stroke: #000000"/>
    </g>
    <g clip-path="url(#paf10678e64)">
     <use xlink:href="#C2_0_46d0b4b2ad" x="603.011573" y="123.27075" style="fill: #808080; stroke: #000000"/>
    </g>
    <g clip-path="url(#paf10678e64)">
     <use xlink:href="#C2_0_46d0b4b2ad" x="628.684423" y="191.211397" style="fill: #808080; stroke: #000000"/>
    </g>
    <g clip-path="url(#paf10678e64)">
     <use xlink:href="#C2_0_46d0b4b2ad" x="610.075297" y="208.785593" style="fill: #808080; stroke: #000000"/>
    </g>
    <g clip-path="url(#paf10678e64)">
     <use xlink:href="#C2_0_46d0b4b2ad" x="604.634264" y="202.304346" style="fill: #808080; stroke: #000000"/>
    </g>
    <g clip-path="url(#paf10678e64)">
     <use xlink:href="#C2_0_46d0b4b2ad" x="604.55144" y="237.069531" style="fill: #808080; stroke: #000000"/>
    </g>
    <g clip-path="url(#paf10678e64)">
     <use xlink:href="#C2_0_46d0b4b2ad" x="602.130837" y="222.951863" style="fill: #808080; stroke: #000000"/>
    </g>
    <g clip-path="url(#paf10678e64)">
     <use xlink:href="#C2_0_46d0b4b2ad" x="598.287787" y="180.299615" style="fill: #808080; stroke: #000000"/>
    </g>
    <g clip-path="url(#paf10678e64)">
     <use xlink:href="#C2_0_46d0b4b2ad" x="627.495567" y="164.742298" style="fill: #808080; stroke: #000000"/>
    </g>
    <g clip-path="url(#paf10678e64)">
     <use xlink:href="#C2_0_46d0b4b2ad" x="625.783495" y="216.233262" style="fill: #808080; stroke: #000000"/>
    </g>
    <g clip-path="url(#paf10678e64)">
     <use xlink:href="#C2_0_46d0b4b2ad" x="618.61283" y="212.973559" style="fill: #808080; stroke: #000000"/>
    </g>
    <g clip-path="url(#paf10678e64)">
     <use xlink:href="#C2_0_46d0b4b2ad" x="595.009807" y="189.67713" style="fill: #808080; stroke: #000000"/>
    </g>
   </g>
   <g id="PathCollection_4">
    <defs>
     <path id="C3_0_e104e27c9a" d="M 0 5 
C 1.326016 5 2.597899 4.473168 3.535534 3.535534 
C 4.473168 2.597899 5 1.326016 5 -0 
C 5 -1.326016 4.473168 -2.597899 3.535534 -3.535534 
C 2.597899 -4.473168 1.326016 -5 0 -5 
C -1.326016 -5 -2.597899 -4.473168 -3.535534 -3.535534 
C -4.473168 -2.597899 -5 -1.326016 -5 0 
C -5 1.326016 -4.473168 2.597899 -3.535534 3.535534 
C -2.597899 4.473168 -1.326016 5 0 5 
z
"/>
    </defs>
    <g clip-path="url(#paf10678e64)">
     <use xlink:href="#C3_0_e104e27c9a" x="764.011367" y="258.765895" style="fill: #3386ff; stroke: #000000"/>
    </g>
    <g clip-path="url(#paf10678e64)">
     <use xlink:href="#C3_0_e104e27c9a" x="781.12859" y="258.567206" style="fill: #3386ff; stroke: #000000"/>
    </g>
    <g clip-path="url(#paf10678e64)">
     <use xlink:href="#C3_0_e104e27c9a" x="752.99582" y="250.444611" style="fill: #3386ff; stroke: #000000"/>
    </g>
    <g clip-path="url(#paf10678e64)">
     <use xlink:href="#C3_0_e104e27c9a" x="763.125945" y="194.566446" style="fill: #3386ff; stroke: #000000"/>
    </g>
    <g clip-path="url(#paf10678e64)">
     <use xlink:href="#C3_0_e104e27c9a" x="757.522157" y="292.424606" style="fill: #3386ff; stroke: #000000"/>
    </g>
    <g clip-path="url(#paf10678e64)">
     <use xlink:href="#C3_0_e104e27c9a" x="774.515143" y="286.417494" style="fill: #3386ff; stroke: #000000"/>
    </g>
    <g clip-path="url(#paf10678e64)">
     <use xlink:href="#C3_0_e104e27c9a" x="775.227504" y="283.10034" style="fill: #3386ff; stroke: #000000"/>
    </g>
   </g>
   <g id="line2d_39"/>
   <g id="line2d_40"/>
   <g id="text_10">
    <!-- p = 0.00046 -->
    <g transform="translate(733.905824 194.716875) scale(0.1 -0.1)">
     <defs>
      <path id="DejaVuSans-36" d="M 2113 2584 
Q 1688 2584 1439 2293 
Q 1191 2003 1191 1497 
Q 1191 994 1439 701 
Q 1688 409 2113 409 
Q 2538 409 2786 701 
Q 3034 994 3034 1497 
Q 3034 2003 2786 2293 
Q 2538 2584 2113 2584 
z
M 3366 4563 
L 3366 3988 
Q 3128 4100 2886 4159 
Q 2644 4219 2406 4219 
Q 1781 4219 1451 3797 
Q 1122 3375 1075 2522 
Q 1259 2794 1537 2939 
Q 1816 3084 2150 3084 
Q 2853 3084 3261 2657 
Q 3669 2231 3669 1497 
Q 3669 778 3244 343 
Q 2819 -91 2113 -91 
Q 1303 -91 875 529 
Q 447 1150 447 2328 
Q 447 3434 972 4092 
Q 1497 4750 2381 4750 
Q 2619 4750 2861 4703 
Q 3103 4656 3366 4563 
z
" transform="scale(0.015625)"/>
     </defs>
     <use xlink:href="#DejaVuSans-70"/>
     <use xlink:href="#DejaVuSans-20" x="63.476562"/>
     <use xlink:href="#DejaVuSans-3d" x="95.263672"/>
     <use xlink:href="#DejaVuSans-20" x="179.052734"/>
     <use xlink:href="#DejaVuSans-30" x="210.839844"/>
     <use xlink:href="#DejaVuSans-2e" x="274.462891"/>
     <use xlink:href="#DejaVuSans-30" x="306.25"/>
     <use xlink:href="#DejaVuSans-30" x="369.873047"/>
     <use xlink:href="#DejaVuSans-30" x="433.496094"/>
     <use xlink:href="#DejaVuSans-34" x="497.119141"/>
     <use xlink:href="#DejaVuSans-36" x="560.742188"/>
    </g>
   </g>
   <g id="text_11">
    <!-- Polo Width at Half Height -->
    <g transform="translate(545.03679 22.396875) scale(0.2 -0.2)">
     <defs>
      <path id="DejaVuSans-Bold-50" d="M 588 4666 
L 2584 4666 
Q 3475 4666 3951 4270 
Q 4428 3875 4428 3144 
Q 4428 2409 3951 2014 
Q 3475 1619 2584 1619 
L 1791 1619 
L 1791 0 
L 588 0 
L 588 4666 
z
M 1791 3794 
L 1791 2491 
L 2456 2491 
Q 2806 2491 2997 2661 
Q 3188 2831 3188 3144 
Q 3188 3456 2997 3625 
Q 2806 3794 2456 3794 
L 1791 3794 
z
" transform="scale(0.015625)"/>
      <path id="DejaVuSans-Bold-6f" d="M 2203 2784 
Q 1831 2784 1636 2517 
Q 1441 2250 1441 1747 
Q 1441 1244 1636 976 
Q 1831 709 2203 709 
Q 2569 709 2762 976 
Q 2956 1244 2956 1747 
Q 2956 2250 2762 2517 
Q 2569 2784 2203 2784 
z
M 2203 3584 
Q 3106 3584 3614 3096 
Q 4122 2609 4122 1747 
Q 4122 884 3614 396 
Q 3106 -91 2203 -91 
Q 1297 -91 786 396 
Q 275 884 275 1747 
Q 275 2609 786 3096 
Q 1297 3584 2203 3584 
z
" transform="scale(0.015625)"/>
     </defs>
     <use xlink:href="#DejaVuSans-Bold-50"/>
     <use xlink:href="#DejaVuSans-Bold-6f" x="73.291016"/>
     <use xlink:href="#DejaVuSans-Bold-6c" x="141.992188"/>
     <use xlink:href="#DejaVuSans-Bold-6f" x="176.269531"/>
     <use xlink:href="#DejaVuSans-Bold-20" x="244.970703"/>
     <use xlink:href="#DejaVuSans-Bold-57" x="279.785156"/>
     <use xlink:href="#DejaVuSans-Bold-69" x="390.087891"/>
     <use xlink:href="#DejaVuSans-Bold-64" x="424.365234"/>
     <use xlink:href="#DejaVuSans-Bold-74" x="495.947266"/>
     <use xlink:href="#DejaVuSans-Bold-68" x="543.75"/>
     <use xlink:href="#DejaVuSans-Bold-20" x="614.941406"/>
     <use xlink:href="#DejaVuSans-Bold-61" x="649.755859"/>
     <use xlink:href="#DejaVuSans-Bold-74" x="717.236328"/>
     <use xlink:href="#DejaVuSans-Bold-20" x="765.039062"/>
     <use xlink:href="#DejaVuSans-Bold-48" x="799.853516"/>
     <use xlink:href="#DejaVuSans-Bold-61" x="883.544922"/>
     <use xlink:href="#DejaVuSans-Bold-6c" x="951.025391"/>
     <use xlink:href="#DejaVuSans-Bold-66" x="985.302734"/>
     <use xlink:href="#DejaVuSans-Bold-20" x="1028.808594"/>
     <use xlink:href="#DejaVuSans-Bold-48" x="1063.623047"/>
     <use xlink:href="#DejaVuSans-Bold-65" x="1147.314453"/>
     <use xlink:href="#DejaVuSans-Bold-69" x="1215.136719"/>
     <use xlink:href="#DejaVuSans-Bold-67" x="1249.414062"/>
     <use xlink:href="#DejaVuSans-Bold-68" x="1320.996094"/>
     <use xlink:href="#DejaVuSans-Bold-74" x="1392.1875"/>
    </g>
   </g>
   <g id="legend_1">
    <g id="patch_16">
     <path d="M 807.959375 80.43125 
L 872.260937 80.43125 
Q 874.260937 80.43125 874.260937 78.43125 
L 874.260937 35.396875 
Q 874.260937 33.396875 872.260937 33.396875 
L 807.959375 33.396875 
Q 805.959375 33.396875 805.959375 35.396875 
L 805.959375 78.43125 
Q 805.959375 80.43125 807.959375 80.43125 
z
" style="fill: #ffffff; opacity: 0.8; stroke: #cccccc; stroke-linejoin: miter"/>
    </g>
    <g id="text_12">
     <!-- genotype -->
     <g transform="translate(816.460937 44.995312) scale(0.1 -0.1)">
      <defs>
       <path id="DejaVuSans-67" d="M 2906 1791 
Q 2906 2416 2648 2759 
Q 2391 3103 1925 3103 
Q 1463 3103 1205 2759 
Q 947 2416 947 1791 
Q 947 1169 1205 825 
Q 1463 481 1925 481 
Q 2391 481 2648 825 
Q 2906 1169 2906 1791 
z
M 3481 434 
Q 3481 -459 3084 -895 
Q 2688 -1331 1869 -1331 
Q 1566 -1331 1297 -1286 
Q 1028 -1241 775 -1147 
L 775 -588 
Q 1028 -725 1275 -790 
Q 1522 -856 1778 -856 
Q 2344 -856 2625 -561 
Q 2906 -266 2906 331 
L 2906 616 
Q 2728 306 2450 153 
Q 2172 0 1784 0 
Q 1141 0 747 490 
Q 353 981 353 1791 
Q 353 2603 747 3093 
Q 1141 3584 1784 3584 
Q 2172 3584 2450 3431 
Q 2728 3278 2906 2969 
L 2906 3500 
L 3481 3500 
L 3481 434 
z
" transform="scale(0.015625)"/>
       <path id="DejaVuSans-65" d="M 3597 1894 
L 3597 1613 
L 953 1613 
Q 991 1019 1311 708 
Q 1631 397 2203 397 
Q 2534 397 2845 478 
Q 3156 559 3463 722 
L 3463 178 
Q 3153 47 2828 -22 
Q 2503 -91 2169 -91 
Q 1331 -91 842 396 
Q 353 884 353 1716 
Q 353 2575 817 3079 
Q 1281 3584 2069 3584 
Q 2775 3584 3186 3129 
Q 3597 2675 3597 1894 
z
M 3022 2063 
Q 3016 2534 2758 2815 
Q 2500 3097 2075 3097 
Q 1594 3097 1305 2825 
Q 1016 2553 972 2059 
L 3022 2063 
z
" transform="scale(0.015625)"/>
       <path id="DejaVuSans-6e" d="M 3513 2113 
L 3513 0 
L 2938 0 
L 2938 2094 
Q 2938 2591 2744 2837 
Q 2550 3084 2163 3084 
Q 1697 3084 1428 2787 
Q 1159 2491 1159 1978 
L 1159 0 
L 581 0 
L 581 3500 
L 1159 3500 
L 1159 2956 
Q 1366 3272 1645 3428 
Q 1925 3584 2291 3584 
Q 2894 3584 3203 3211 
Q 3513 2838 3513 2113 
z
" transform="scale(0.015625)"/>
       <path id="DejaVuSans-6f" d="M 1959 3097 
Q 1497 3097 1228 2736 
Q 959 2375 959 1747 
Q 959 1119 1226 758 
Q 1494 397 1959 397 
Q 2419 397 2687 759 
Q 2956 1122 2956 1747 
Q 2956 2369 2687 2733 
Q 2419 3097 1959 3097 
z
M 1959 3584 
Q 2709 3584 3137 3096 
Q 3566 2609 3566 1747 
Q 3566 888 3137 398 
Q 2709 -91 1959 -91 
Q 1206 -91 779 398 
Q 353 888 353 1747 
Q 353 2609 779 3096 
Q 1206 3584 1959 3584 
z
" transform="scale(0.015625)"/>
       <path id="DejaVuSans-79" d="M 2059 -325 
Q 1816 -950 1584 -1140 
Q 1353 -1331 966 -1331 
L 506 -1331 
L 506 -850 
L 844 -850 
Q 1081 -850 1212 -737 
Q 1344 -625 1503 -206 
L 1606 56 
L 191 3500 
L 800 3500 
L 1894 763 
L 2988 3500 
L 3597 3500 
L 2059 -325 
z
" transform="scale(0.015625)"/>
      </defs>
      <use xlink:href="#DejaVuSans-67"/>
      <use xlink:href="#DejaVuSans-65" x="63.476562"/>
      <use xlink:href="#DejaVuSans-6e" x="125"/>
      <use xlink:href="#DejaVuSans-6f" x="188.378906"/>
      <use xlink:href="#DejaVuSans-74" x="249.560547"/>
      <use xlink:href="#DejaVuSans-79" x="288.769531"/>
      <use xlink:href="#DejaVuSans-70" x="347.949219"/>
      <use xlink:href="#DejaVuSans-65" x="411.425781"/>
     </g>
    </g>
    <g id="line2d_41">
     <defs>
      <path id="m3405a89995" d="M 0 5 
C 1.326016 5 2.597899 4.473168 3.535534 3.535534 
C 4.473168 2.597899 5 1.326016 5 0 
C 5 -1.326016 4.473168 -2.597899 3.535534 -3.535534 
C 2.597899 -4.473168 1.326016 -5 0 -5 
C -1.326016 -5 -2.597899 -4.473168 -3.535534 -3.535534 
C -4.473168 -2.597899 -5 -1.326016 -5 0 
C -5 1.326016 -4.473168 2.597899 -3.535534 3.535534 
C -2.597899 4.473168 -1.326016 5 0 5 
z
" style="stroke: #000000"/>
     </defs>
     <g>
      <use xlink:href="#m3405a89995" x="819.959375" y="56.173437" style="fill: #808080; stroke: #000000"/>
     </g>
    </g>
    <g id="text_13">
     <!-- WT -->
     <g transform="translate(837.959375 59.673437) scale(0.1 -0.1)">
      <defs>
       <path id="DejaVuSans-54" d="M -19 4666 
L 3928 4666 
L 3928 4134 
L 2272 4134 
L 2272 0 
L 1638 0 
L 1638 4134 
L -19 4134 
L -19 4666 
z
" transform="scale(0.015625)"/>
      </defs>
      <use xlink:href="#DejaVuSans-57"/>
      <use xlink:href="#DejaVuSans-54" x="98.876953"/>
     </g>
    </g>
    <g id="line2d_42">
     <defs>
      <path id="m7e1c05e1ed" d="M 0 5 
C 1.326016 5 2.597899 4.473168 3.535534 3.535534 
C 4.473168 2.597899 5 1.326016 5 0 
C 5 -1.326016 4.473168 -2.597899 3.535534 -3.535534 
C 2.597899 -4.473168 1.326016 -5 0 -5 
C -1.326016 -5 -2.597899 -4.473168 -3.535534 -3.535534 
C -4.473168 -2.597899 -5 -1.326016 -5 0 
C -5 1.326016 -4.473168 2.597899 -3.535534 3.535534 
C -2.597899 4.473168 -1.326016 5 0 5 
z
" style="stroke: #000000"/>
     </defs>
     <g>
      <use xlink:href="#m7e1c05e1ed" x="819.959375" y="70.851562" style="fill: #3386ff; stroke: #000000"/>
     </g>
    </g>
    <g id="text_14">
     <!-- PP4KO -->
     <g transform="translate(837.959375 74.351562) scale(0.1 -0.1)">
      <defs>
       <path id="DejaVuSans-50" d="M 1259 4147 
L 1259 2394 
L 2053 2394 
Q 2494 2394 2734 2622 
Q 2975 2850 2975 3272 
Q 2975 3691 2734 3919 
Q 2494 4147 2053 4147 
L 1259 4147 
z
M 628 4666 
L 2053 4666 
Q 2838 4666 3239 4311 
Q 3641 3956 3641 3272 
Q 3641 2581 3239 2228 
Q 2838 1875 2053 1875 
L 1259 1875 
L 1259 0 
L 628 0 
L 628 4666 
z
" transform="scale(0.015625)"/>
       <path id="DejaVuSans-4b" d="M 628 4666 
L 1259 4666 
L 1259 2694 
L 3353 4666 
L 4166 4666 
L 1850 2491 
L 4331 0 
L 3500 0 
L 1259 2247 
L 1259 0 
L 628 0 
L 628 4666 
z
" transform="scale(0.015625)"/>
       <path id="DejaVuSans-4f" d="M 2522 4238 
Q 1834 4238 1429 3725 
Q 1025 3213 1025 2328 
Q 1025 1447 1429 934 
Q 1834 422 2522 422 
Q 3209 422 3611 934 
Q 4013 1447 4013 2328 
Q 4013 3213 3611 3725 
Q 3209 4238 2522 4238 
z
M 2522 4750 
Q 3503 4750 4090 4092 
Q 4678 3434 4678 2328 
Q 4678 1225 4090 567 
Q 3503 -91 2522 -91 
Q 1538 -91 948 565 
Q 359 1222 359 2328 
Q 359 3434 948 4092 
Q 1538 4750 2522 4750 
z
" transform="scale(0.015625)"/>
      </defs>
      <use xlink:href="#DejaVuSans-50"/>
      <use xlink:href="#DejaVuSans-50" x="60.302734"/>
      <use xlink:href="#DejaVuSans-34" x="120.605469"/>
      <use xlink:href="#DejaVuSans-4b" x="184.228516"/>
      <use xlink:href="#DejaVuSans-4f" x="244.304688"/>
     </g>
    </g>
   </g>
  </g>
 </g>
 <defs>
  <clipPath id="pbbf16e8173">
   <rect x="42.260938" y="28.396875" width="380.454545" height="277.2"/>
  </clipPath>
  <clipPath id="paf10678e64">
   <rect x="498.806392" y="28.396875" width="380.454545" height="277.2"/>
  </clipPath>
 </defs>
</svg>
