<?xml version="1.0" encoding="utf-8" standalone="no"?>
<!DOCTYPE svg PUBLIC "-//W3C//DTD SVG 1.1//EN"
  "http://www.w3.org/Graphics/SVG/1.1/DTD/svg11.dtd">
<svg xmlns:xlink="http://www.w3.org/1999/xlink" width="855.79pt" height="127.72pt" viewBox="0 0 855.79 127.72" xmlns="http://www.w3.org/2000/svg" version="1.1">
 <metadata>
  <rdf:RDF xmlns:dc="http://purl.org/dc/elements/1.1/" xmlns:cc="http://creativecommons.org/ns#" xmlns:rdf="http://www.w3.org/1999/02/22-rdf-syntax-ns#">
   <cc:Work>
    <dc:type rdf:resource="http://purl.org/dc/dcmitype/StillImage"/>
    <dc:date>2024-12-18T14:28:13.319061</dc:date>
    <dc:format>image/svg+xml</dc:format>
    <dc:creator>
     <cc:Agent>
      <dc:title>Matplotlib v3.7.2, https://matplotlib.org/</dc:title>
     </cc:Agent>
    </dc:creator>
   </cc:Work>
  </rdf:RDF>
 </metadata>
 <defs>
  <style type="text/css">*{stroke-linejoin: round; stroke-linecap: butt}</style>
 </defs>
 <g id="figure_1">
  <g id="patch_1">
   <path d="M 0 127.72 
L 855.79 127.72 
L 855.79 0 
L 0 0 
z
" style="fill: #ffffff"/>
  </g>
  <g id="axes_1">
   <g id="patch_2">
    <path d="M 7.2 120.52 
L 164.038 120.52 
L 164.038 7.2 
L 7.2 7.2 
z
" style="fill: #ffffff"/>
   </g>
   <g id="PolyCollection_1"/>
   <g id="PolyCollection_2"/>
   <g id="matplotlib.axis_1"/>
   <g id="matplotlib.axis_2">
    <g id="ytick_1">
     <g id="line2d_1">
      <defs>
       <path id="m7b02a07f14" d="M 0 0 
L 3.5 0 
" style="stroke: #000000; stroke-width: 0.8"/>
      </defs>
      <g>
       <use xlink:href="#m7b02a07f14" x="7.2" y="111.076667" style="stroke: #000000; stroke-width: 0.8"/>
      </g>
     </g>
     <g id="text_1">
      <!-- 0.0 -->
      <g transform="translate(13.345313 116.775495) scale(0.15 -0.15)">
       <defs>
        <path id="DejaVuSans-30" d="M 2034 4250 
Q 1547 4250 1301 3770 
Q 1056 3291 1056 2328 
Q 1056 1369 1301 889 
Q 1547 409 2034 409 
Q 2525 409 2770 889 
Q 3016 1369 3016 2328 
Q 3016 3291 2770 3770 
Q 2525 4250 2034 4250 
z
M 2034 4750 
Q 2819 4750 3233 4129 
Q 3647 3509 3647 2328 
Q 3647 1150 3233 529 
Q 2819 -91 2034 -91 
Q 1250 -91 836 529 
Q 422 1150 422 2328 
Q 422 3509 836 4129 
Q 1250 4750 2034 4750 
z
" transform="scale(0.015625)"/>
        <path id="DejaVuSans-2e" d="M 684 794 
L 1344 794 
L 1344 0 
L 684 0 
L 684 794 
z
" transform="scale(0.015625)"/>
       </defs>
       <use xlink:href="#DejaVuSans-30"/>
       <use xlink:href="#DejaVuSans-2e" x="63.623047"/>
       <use xlink:href="#DejaVuSans-30" x="95.410156"/>
      </g>
     </g>
    </g>
    <g id="ytick_2">
     <g id="line2d_2">
      <g>
       <use xlink:href="#m7b02a07f14" x="7.2" y="63.86" style="stroke: #000000; stroke-width: 0.8"/>
      </g>
     </g>
     <g id="text_2">
      <!-- 0.5 -->
      <g transform="translate(13.345313 69.558828) scale(0.15 -0.15)">
       <defs>
        <path id="DejaVuSans-35" d="M 691 4666 
L 3169 4666 
L 3169 4134 
L 1269 4134 
L 1269 2991 
Q 1406 3038 1543 3061 
Q 1681 3084 1819 3084 
Q 2600 3084 3056 2656 
Q 3513 2228 3513 1497 
Q 3513 744 3044 326 
Q 2575 -91 1722 -91 
Q 1428 -91 1123 -41 
Q 819 9 494 109 
L 494 744 
Q 775 591 1075 516 
Q 1375 441 1709 441 
Q 2250 441 2565 725 
Q 2881 1009 2881 1497 
Q 2881 1984 2565 2268 
Q 2250 2553 1709 2553 
Q 1456 2553 1204 2497 
Q 953 2441 691 2322 
L 691 4666 
z
" transform="scale(0.015625)"/>
       </defs>
       <use xlink:href="#DejaVuSans-30"/>
       <use xlink:href="#DejaVuSans-2e" x="63.623047"/>
       <use xlink:href="#DejaVuSans-35" x="95.410156"/>
      </g>
     </g>
    </g>
    <g id="ytick_3">
     <g id="line2d_3">
      <g>
       <use xlink:href="#m7b02a07f14" x="7.2" y="16.643333" style="stroke: #000000; stroke-width: 0.8"/>
      </g>
     </g>
     <g id="text_3">
      <!-- 1.0 -->
      <g transform="translate(13.345313 22.342161) scale(0.15 -0.15)">
       <defs>
        <path id="DejaVuSans-31" d="M 794 531 
L 1825 531 
L 1825 4091 
L 703 3866 
L 703 4441 
L 1819 4666 
L 2450 4666 
L 2450 531 
L 3481 531 
L 3481 0 
L 794 0 
L 794 531 
z
" transform="scale(0.015625)"/>
       </defs>
       <use xlink:href="#DejaVuSans-31"/>
       <use xlink:href="#DejaVuSans-2e" x="63.623047"/>
       <use xlink:href="#DejaVuSans-30" x="95.410156"/>
      </g>
     </g>
    </g>
   </g>
   <g id="line2d_4">
    <path d="M 14.329 91.408166 
L 18.649528 91.761663 
L 22.970291 91.538634 
L 27.290818 90.355937 
L 31.611346 88.783987 
L 35.932109 86.635965 
L 40.252636 88.325936 
L 44.573164 83.315429 
L 48.893927 87.410737 
L 53.214455 81.557678 
L 57.534982 77.419598 
L 61.855745 63.185369 
L 66.176273 51.403664 
L 70.4968 43.606149 
L 74.817563 36.439699 
L 79.138091 26.559225 
L 83.458618 24.128088 
L 87.779382 18.337491 
L 92.099909 25.02835 
L 96.420437 33.857387 
L 100.7412 40.881601 
L 105.061727 47.675997 
L 109.382255 52.985685 
L 113.703018 56.946112 
L 118.023545 57.799867 
L 122.344073 60.849623 
L 126.664836 61.349768 
L 130.985364 66.821608 
L 135.305891 66.406328 
L 139.626654 65.90358 
L 143.947182 70.590124 
L 148.267709 71.042065 
L 152.588472 73.41538 
L 156.909 73.3347 
" clip-path="url(#p841baf16e4)" style="fill: none; stroke: #808080; stroke-width: 2; stroke-linecap: square"/>
   </g>
   <g id="line2d_5">
    <path d="M 14.329 74.210557 
L 18.649528 73.281406 
L 22.970291 78.604926 
L 27.290818 90.045012 
L 31.611346 85.396999 
L 35.932109 81.39401 
L 40.252636 83.097014 
L 44.573164 77.968055 
L 48.893927 71.456472 
L 53.214455 76.061583 
L 57.534982 78.225087 
L 61.855745 76.841333 
L 66.176273 70.218105 
L 70.4968 68.214039 
L 74.817563 63.108538 
L 79.138091 51.188384 
L 83.458618 33.616679 
L 87.779382 43.922641 
L 92.099909 58.99654 
L 96.420437 68.145673 
L 100.7412 73.340364 
L 105.061727 76.073626 
L 109.382255 78.601037 
L 113.703018 79.659394 
L 118.023545 77.509564 
L 122.344073 80.897384 
L 126.664836 78.084717 
L 130.985364 73.753947 
L 135.305891 73.124854 
L 139.626654 77.098239 
L 143.947182 75.326241 
L 148.267709 74.271898 
L 152.588472 76.452713 
L 156.909 79.036573 
" clip-path="url(#p841baf16e4)" style="fill: none; stroke: #35db09; stroke-width: 2; stroke-linecap: square"/>
   </g>
   <g id="patch_3">
    <path d="M 7.2 120.52 
L 7.2 7.2 
" style="fill: none; stroke: #000000; stroke-width: 0.8; stroke-linejoin: miter; stroke-linecap: square"/>
   </g>
   <g id="patch_4">
    <path d="M 7.2 120.52 
L 164.038 120.52 
" style="fill: none; stroke: #000000; stroke-width: 0.8; stroke-linejoin: miter; stroke-linecap: square"/>
   </g>
  </g>
  <g id="axes_2">
   <g id="patch_5">
    <path d="M 178.338 120.52 
L 335.176 120.52 
L 335.176 7.2 
L 178.338 7.2 
z
" style="fill: #ffffff"/>
   </g>
   <g id="PolyCollection_3"/>
   <g id="PolyCollection_4"/>
   <g id="matplotlib.axis_3"/>
   <g id="matplotlib.axis_4">
    <g id="ytick_4">
     <g id="line2d_6">
      <g>
       <use xlink:href="#m7b02a07f14" x="178.338" y="111.076667" style="stroke: #000000; stroke-width: 0.8"/>
      </g>
     </g>
    </g>
    <g id="ytick_5">
     <g id="line2d_7">
      <g>
       <use xlink:href="#m7b02a07f14" x="178.338" y="63.86" style="stroke: #000000; stroke-width: 0.8"/>
      </g>
     </g>
    </g>
    <g id="ytick_6">
     <g id="line2d_8">
      <g>
       <use xlink:href="#m7b02a07f14" x="178.338" y="16.643333" style="stroke: #000000; stroke-width: 0.8"/>
      </g>
     </g>
    </g>
   </g>
   <g id="line2d_9">
    <path d="M 185.467 86.723207 
L 189.787528 85.717372 
L 194.108291 86.646828 
L 198.428818 85.115613 
L 202.749346 85.293606 
L 207.070109 83.994473 
L 211.390636 86.860012 
L 215.711164 87.786073 
L 220.031927 90.180547 
L 224.352455 89.320455 
L 228.672982 84.816205 
L 232.993745 77.497901 
L 237.314273 67.500538 
L 241.6348 52.706758 
L 245.955563 42.920995 
L 250.276091 38.855559 
L 254.596618 38.030659 
L 258.917382 35.694799 
L 263.237909 33.859084 
L 267.558437 35.822212 
L 271.8792 44.074271 
L 276.199727 44.314612 
L 280.520255 43.724282 
L 284.841018 58.483098 
L 289.161545 66.306978 
L 293.482073 67.225232 
L 297.802836 72.824484 
L 302.123364 75.4335 
L 306.443891 77.296259 
L 310.764654 79.048691 
L 315.085182 82.820602 
L 319.405709 81.788628 
L 323.726472 83.769973 
L 328.047 84.62667 
" clip-path="url(#p1af3c15081)" style="fill: none; stroke: #808080; stroke-width: 2; stroke-linecap: square"/>
   </g>
   <g id="line2d_10">
    <path d="M 185.467 84.315686 
L 189.787528 80.66933 
L 194.108291 76.578657 
L 198.428818 81.949343 
L 202.749346 77.262819 
L 207.070109 78.903228 
L 211.390636 78.454772 
L 215.711164 75.721008 
L 220.031927 75.087524 
L 224.352455 75.356974 
L 228.672982 77.046556 
L 232.993745 76.847229 
L 237.314273 71.913332 
L 241.6348 80.234798 
L 245.955563 66.614023 
L 250.276091 42.89552 
L 254.596618 16.643333 
L 258.917382 28.215385 
L 263.237909 44.834983 
L 267.558437 56.708849 
L 271.8792 67.889645 
L 276.199727 72.69835 
L 280.520255 81.527982 
L 284.841018 79.508487 
L 289.161545 75.817222 
L 293.482073 78.513479 
L 297.802836 77.020966 
L 302.123364 77.205241 
L 306.443891 80.175965 
L 310.764654 77.515711 
L 315.085182 77.084565 
L 319.405709 80.647126 
L 323.726472 78.938226 
L 328.047 80.866023 
" clip-path="url(#p1af3c15081)" style="fill: none; stroke: #35db09; stroke-width: 2; stroke-linecap: square"/>
   </g>
   <g id="patch_6">
    <path d="M 178.338 120.52 
L 178.338 7.2 
" style="fill: none; stroke: #000000; stroke-width: 0.8; stroke-linejoin: miter; stroke-linecap: square"/>
   </g>
   <g id="patch_7">
    <path d="M 178.338 120.52 
L 335.176 120.52 
" style="fill: none; stroke: #000000; stroke-width: 0.8; stroke-linejoin: miter; stroke-linecap: square"/>
   </g>
  </g>
  <g id="axes_3">
   <g id="patch_8">
    <path d="M 349.476 120.52 
L 506.314 120.52 
L 506.314 7.2 
L 349.476 7.2 
z
" style="fill: #ffffff"/>
   </g>
   <g id="PolyCollection_5"/>
   <g id="PolyCollection_6"/>
   <g id="matplotlib.axis_5"/>
   <g id="matplotlib.axis_6">
    <g id="ytick_7">
     <g id="line2d_11">
      <g>
       <use xlink:href="#m7b02a07f14" x="349.476" y="111.076667" style="stroke: #000000; stroke-width: 0.8"/>
      </g>
     </g>
    </g>
    <g id="ytick_8">
     <g id="line2d_12">
      <g>
       <use xlink:href="#m7b02a07f14" x="349.476" y="63.86" style="stroke: #000000; stroke-width: 0.8"/>
      </g>
     </g>
    </g>
    <g id="ytick_9">
     <g id="line2d_13">
      <g>
       <use xlink:href="#m7b02a07f14" x="349.476" y="16.643333" style="stroke: #000000; stroke-width: 0.8"/>
      </g>
     </g>
    </g>
   </g>
   <g id="line2d_14">
    <path d="M 356.605 97.545245 
L 360.925528 94.926157 
L 365.246291 93.213669 
L 369.566818 92.355387 
L 373.887346 93.930166 
L 378.208109 91.115434 
L 382.528636 89.986373 
L 386.849164 88.708966 
L 391.169927 87.834729 
L 395.490455 84.786671 
L 399.810982 80.306297 
L 404.131745 72.63642 
L 408.452273 63.450039 
L 412.7728 52.44503 
L 417.093563 48.846586 
L 421.414091 37.795183 
L 425.734618 32.595821 
L 430.055382 31.263647 
L 434.375909 35.482973 
L 438.696437 39.464673 
L 443.0172 48.377898 
L 447.337727 54.047532 
L 451.658255 56.296036 
L 455.979018 61.806009 
L 460.299545 65.4298 
L 464.620073 69.355376 
L 468.940836 72.788387 
L 473.261364 75.086001 
L 477.581891 75.255847 
L 481.902654 77.421182 
L 486.223182 78.790924 
L 490.543709 81.989931 
L 494.864472 82.916671 
L 499.185 83.834585 
" clip-path="url(#p051e76621a)" style="fill: none; stroke: #808080; stroke-width: 2; stroke-linecap: square"/>
   </g>
   <g id="line2d_15">
    <path d="M 356.605 71.457851 
L 360.925528 78.808143 
L 365.246291 75.207698 
L 369.566818 82.214528 
L 373.887346 78.781925 
L 378.208109 79.559291 
L 382.528636 73.348141 
L 386.849164 76.616917 
L 391.169927 79.972247 
L 395.490455 79.67545 
L 399.810982 79.120745 
L 404.131745 75.639219 
L 408.452273 79.026663 
L 412.7728 71.04891 
L 417.093563 67.187169 
L 421.414091 56.879952 
L 425.734618 49.891687 
L 430.055382 52.052807 
L 434.375909 63.855296 
L 438.696437 71.497868 
L 443.0172 78.797731 
L 447.337727 80.123029 
L 451.658255 77.695093 
L 455.979018 83.323563 
L 460.299545 79.337634 
L 464.620073 76.102854 
L 468.940836 75.955459 
L 473.261364 77.79645 
L 477.581891 81.110134 
L 481.902654 81.071749 
L 486.223182 75.097559 
L 490.543709 78.308757 
L 494.864472 78.041314 
L 499.185 79.088882 
" clip-path="url(#p051e76621a)" style="fill: none; stroke: #35db09; stroke-width: 2; stroke-linecap: square"/>
   </g>
   <g id="patch_9">
    <path d="M 349.476 120.52 
L 349.476 7.2 
" style="fill: none; stroke: #000000; stroke-width: 0.8; stroke-linejoin: miter; stroke-linecap: square"/>
   </g>
   <g id="patch_10">
    <path d="M 349.476 120.52 
L 506.314 120.52 
" style="fill: none; stroke: #000000; stroke-width: 0.8; stroke-linejoin: miter; stroke-linecap: square"/>
   </g>
  </g>
  <g id="axes_4">
   <g id="patch_11">
    <path d="M 520.614 120.52 
L 677.452 120.52 
L 677.452 7.2 
L 520.614 7.2 
z
" style="fill: #ffffff"/>
   </g>
   <g id="PolyCollection_7"/>
   <g id="PolyCollection_8"/>
   <g id="matplotlib.axis_7"/>
   <g id="matplotlib.axis_8">
    <g id="ytick_10">
     <g id="line2d_16">
      <g>
       <use xlink:href="#m7b02a07f14" x="520.614" y="111.076667" style="stroke: #000000; stroke-width: 0.8"/>
      </g>
     </g>
    </g>
    <g id="ytick_11">
     <g id="line2d_17">
      <g>
       <use xlink:href="#m7b02a07f14" x="520.614" y="63.86" style="stroke: #000000; stroke-width: 0.8"/>
      </g>
     </g>
    </g>
    <g id="ytick_12">
     <g id="line2d_18">
      <g>
       <use xlink:href="#m7b02a07f14" x="520.614" y="16.643333" style="stroke: #000000; stroke-width: 0.8"/>
      </g>
     </g>
    </g>
   </g>
   <g id="line2d_19">
    <path d="M 527.743 86.877211 
L 532.063528 87.445589 
L 536.384291 86.042014 
L 540.704818 83.584625 
L 545.025346 84.650093 
L 549.346109 81.767015 
L 553.666636 80.493342 
L 557.987164 80.440725 
L 562.307927 78.889822 
L 566.628455 70.575979 
L 570.948982 64.615876 
L 575.269745 58.000604 
L 579.590273 48.42961 
L 583.9108 39.689173 
L 588.231563 29.103969 
L 592.552091 25.721877 
L 596.872618 21.273412 
L 601.193382 16.782627 
L 605.513909 16.643333 
L 609.834437 24.727584 
L 614.1552 30.123609 
L 618.475727 45.191564 
L 622.796255 55.108927 
L 627.117018 62.022928 
L 631.437545 61.196896 
L 635.758073 66.377813 
L 640.078836 74.099628 
L 644.399364 73.655042 
L 648.719891 76.43877 
L 653.040654 77.79086 
L 657.361182 79.104703 
L 661.681709 81.113432 
L 666.002472 83.060717 
L 670.323 84.287205 
" clip-path="url(#p42af1ddf0a)" style="fill: none; stroke: #808080; stroke-width: 2; stroke-linecap: square"/>
   </g>
   <g id="line2d_20">
    <path d="M 527.743 78.775277 
L 532.063528 74.1659 
L 536.384291 76.342323 
L 540.704818 77.390394 
L 545.025346 73.003928 
L 549.346109 74.370621 
L 553.666636 75.34719 
L 557.987164 80.836921 
L 562.307927 79.470854 
L 566.628455 82.070018 
L 570.948982 80.393984 
L 575.269745 77.613806 
L 579.590273 78.05298 
L 583.9108 77.617319 
L 588.231563 81.241598 
L 592.552091 76.844343 
L 596.872618 71.300923 
L 601.193382 71.703593 
L 605.513909 67.078034 
L 609.834437 73.738267 
L 614.1552 70.005731 
L 618.475727 79.671185 
L 622.796255 81.214377 
L 627.117018 70.069205 
L 631.437545 77.167483 
L 635.758073 75.095176 
L 640.078836 73.693986 
L 644.399364 71.439035 
L 648.719891 76.265302 
L 653.040654 80.005615 
L 657.361182 79.968358 
L 661.681709 78.73526 
L 666.002472 76.108123 
L 670.323 81.80684 
" clip-path="url(#p42af1ddf0a)" style="fill: none; stroke: #35db09; stroke-width: 2; stroke-linecap: square"/>
   </g>
   <g id="patch_12">
    <path d="M 520.614 120.52 
L 520.614 7.2 
" style="fill: none; stroke: #000000; stroke-width: 0.8; stroke-linejoin: miter; stroke-linecap: square"/>
   </g>
   <g id="patch_13">
    <path d="M 520.614 120.52 
L 677.452 120.52 
" style="fill: none; stroke: #000000; stroke-width: 0.8; stroke-linejoin: miter; stroke-linecap: square"/>
   </g>
  </g>
  <g id="axes_5">
   <g id="patch_14">
    <path d="M 691.752 120.52 
L 848.59 120.52 
L 848.59 7.2 
L 691.752 7.2 
z
" style="fill: #ffffff"/>
   </g>
   <g id="PolyCollection_9"/>
   <g id="PolyCollection_10"/>
   <g id="matplotlib.axis_9"/>
   <g id="matplotlib.axis_10">
    <g id="ytick_13">
     <g id="line2d_21">
      <g>
       <use xlink:href="#m7b02a07f14" x="691.752" y="111.076667" style="stroke: #000000; stroke-width: 0.8"/>
      </g>
     </g>
    </g>
    <g id="ytick_14">
     <g id="line2d_22">
      <g>
       <use xlink:href="#m7b02a07f14" x="691.752" y="63.86" style="stroke: #000000; stroke-width: 0.8"/>
      </g>
     </g>
    </g>
    <g id="ytick_15">
     <g id="line2d_23">
      <g>
       <use xlink:href="#m7b02a07f14" x="691.752" y="16.643333" style="stroke: #000000; stroke-width: 0.8"/>
      </g>
     </g>
    </g>
   </g>
   <g id="line2d_24">
    <path d="M 698.881 88.849504 
L 703.201528 88.366219 
L 707.522291 88.693463 
L 711.842818 87.035063 
L 716.163346 86.055705 
L 720.484109 85.077819 
L 724.804636 83.148752 
L 729.125164 83.27243 
L 733.445927 82.040285 
L 737.766455 80.299055 
L 742.086982 77.434647 
L 746.407745 73.041402 
L 750.728273 67.008087 
L 755.0488 59.349639 
L 759.369563 53.298559 
L 763.690091 51.240834 
L 768.010618 48.374842 
L 772.331382 47.172457 
L 776.651909 50.435057 
L 780.972437 49.929933 
L 785.2932 50.429852 
L 789.613727 58.627936 
L 793.934255 64.351432 
L 798.255018 68.997014 
L 802.575545 73.818551 
L 806.896073 77.267291 
L 811.216836 79.833308 
L 815.537364 81.88662 
L 819.857891 83.636224 
L 824.178654 82.500487 
L 828.499182 85.312503 
L 832.819709 86.463856 
L 837.140472 86.212991 
L 841.461 86.215594 
" clip-path="url(#p2e8e695ab2)" style="fill: none; stroke: #808080; stroke-width: 2; stroke-linecap: square"/>
   </g>
   <g id="line2d_25">
    <path d="M 698.881 77.799612 
L 703.201528 73.755854 
L 707.522291 78.324976 
L 711.842818 82.890449 
L 716.163346 80.248847 
L 720.484109 81.873174 
L 724.804636 82.965325 
L 729.125164 79.757415 
L 733.445927 79.291572 
L 737.766455 83.100966 
L 742.086982 80.79067 
L 746.407745 79.321176 
L 750.728273 79.642522 
L 755.0488 83.445819 
L 759.369563 81.450233 
L 763.690091 76.49796 
L 768.010618 79.354971 
L 772.331382 77.524027 
L 776.651909 81.833873 
L 780.972437 77.614873 
L 785.2932 79.290895 
L 789.613727 79.344898 
L 793.934255 78.27002 
L 798.255018 78.757752 
L 802.575545 79.273759 
L 806.896073 77.906739 
L 811.216836 83.017547 
L 815.537364 83.617876 
L 819.857891 82.644381 
L 824.178654 77.893355 
L 828.499182 74.203808 
L 832.819709 75.456061 
L 837.140472 78.587565 
L 841.461 77.886731 
" clip-path="url(#p2e8e695ab2)" style="fill: none; stroke: #35db09; stroke-width: 2; stroke-linecap: square"/>
   </g>
   <g id="patch_15">
    <path d="M 691.752 120.52 
L 691.752 7.2 
" style="fill: none; stroke: #000000; stroke-width: 0.8; stroke-linejoin: miter; stroke-linecap: square"/>
   </g>
   <g id="patch_16">
    <path d="M 691.752 120.52 
L 848.59 120.52 
" style="fill: none; stroke: #000000; stroke-width: 0.8; stroke-linejoin: miter; stroke-linecap: square"/>
   </g>
  </g>
 </g>
 <defs>
  <clipPath id="p841baf16e4">
   <rect x="7.2" y="7.2" width="156.838" height="113.32"/>
  </clipPath>
  <clipPath id="p1af3c15081">
   <rect x="178.338" y="7.2" width="156.838" height="113.32"/>
  </clipPath>
  <clipPath id="p051e76621a">
   <rect x="349.476" y="7.2" width="156.838" height="113.32"/>
  </clipPath>
  <clipPath id="p42af1ddf0a">
   <rect x="520.614" y="7.2" width="156.838" height="113.32"/>
  </clipPath>
  <clipPath id="p2e8e695ab2">
   <rect x="691.752" y="7.2" width="156.838" height="113.32"/>
  </clipPath>
 </defs>
</svg>
