<?xml version="1.0" encoding="utf-8" standalone="no"?>
<!DOCTYPE svg PUBLIC "-//W3C//DTD SVG 1.1//EN"
  "http://www.w3.org/Graphics/SVG/1.1/DTD/svg11.dtd">
<svg xmlns:xlink="http://www.w3.org/1999/xlink" width="855.79pt" height="127.72pt" viewBox="0 0 855.79 127.72" xmlns="http://www.w3.org/2000/svg" version="1.1">
 <metadata>
  <rdf:RDF xmlns:dc="http://purl.org/dc/elements/1.1/" xmlns:cc="http://creativecommons.org/ns#" xmlns:rdf="http://www.w3.org/1999/02/22-rdf-syntax-ns#">
   <cc:Work>
    <dc:type rdf:resource="http://purl.org/dc/dcmitype/StillImage"/>
    <dc:date>2024-12-18T14:28:09.759655</dc:date>
    <dc:format>image/svg+xml</dc:format>
    <dc:creator>
     <cc:Agent>
      <dc:title>Matplotlib v3.7.2, https://matplotlib.org/</dc:title>
     </cc:Agent>
    </dc:creator>
   </cc:Work>
  </rdf:RDF>
 </metadata>
 <defs>
  <style type="text/css">*{stroke-linejoin: round; stroke-linecap: butt}</style>
 </defs>
 <g id="figure_1">
  <g id="patch_1">
   <path d="M 0 127.72 
L 855.79 127.72 
L 855.79 0 
L 0 0 
z
" style="fill: #ffffff"/>
  </g>
  <g id="axes_1">
   <g id="patch_2">
    <path d="M 7.2 120.52 
L 164.038 120.52 
L 164.038 7.2 
L 7.2 7.2 
z
" style="fill: #ffffff"/>
   </g>
   <g id="PolyCollection_1"/>
   <g id="PolyCollection_2"/>
   <g id="matplotlib.axis_1"/>
   <g id="matplotlib.axis_2">
    <g id="ytick_1">
     <g id="line2d_1">
      <defs>
       <path id="m1bdb0584ac" d="M 0 0 
L 3.5 0 
" style="stroke: #000000; stroke-width: 0.8"/>
      </defs>
      <g>
       <use xlink:href="#m1bdb0584ac" x="7.2" y="111.076667" style="stroke: #000000; stroke-width: 0.8"/>
      </g>
     </g>
     <g id="text_1">
      <!-- 0.0 -->
      <g transform="translate(13.345313 116.775495) scale(0.15 -0.15)">
       <defs>
        <path id="DejaVuSans-30" d="M 2034 4250 
Q 1547 4250 1301 3770 
Q 1056 3291 1056 2328 
Q 1056 1369 1301 889 
Q 1547 409 2034 409 
Q 2525 409 2770 889 
Q 3016 1369 3016 2328 
Q 3016 3291 2770 3770 
Q 2525 4250 2034 4250 
z
M 2034 4750 
Q 2819 4750 3233 4129 
Q 3647 3509 3647 2328 
Q 3647 1150 3233 529 
Q 2819 -91 2034 -91 
Q 1250 -91 836 529 
Q 422 1150 422 2328 
Q 422 3509 836 4129 
Q 1250 4750 2034 4750 
z
" transform="scale(0.015625)"/>
        <path id="DejaVuSans-2e" d="M 684 794 
L 1344 794 
L 1344 0 
L 684 0 
L 684 794 
z
" transform="scale(0.015625)"/>
       </defs>
       <use xlink:href="#DejaVuSans-30"/>
       <use xlink:href="#DejaVuSans-2e" x="63.623047"/>
       <use xlink:href="#DejaVuSans-30" x="95.410156"/>
      </g>
     </g>
    </g>
    <g id="ytick_2">
     <g id="line2d_2">
      <g>
       <use xlink:href="#m1bdb0584ac" x="7.2" y="63.86" style="stroke: #000000; stroke-width: 0.8"/>
      </g>
     </g>
     <g id="text_2">
      <!-- 0.5 -->
      <g transform="translate(13.345313 69.558828) scale(0.15 -0.15)">
       <defs>
        <path id="DejaVuSans-35" d="M 691 4666 
L 3169 4666 
L 3169 4134 
L 1269 4134 
L 1269 2991 
Q 1406 3038 1543 3061 
Q 1681 3084 1819 3084 
Q 2600 3084 3056 2656 
Q 3513 2228 3513 1497 
Q 3513 744 3044 326 
Q 2575 -91 1722 -91 
Q 1428 -91 1123 -41 
Q 819 9 494 109 
L 494 744 
Q 775 591 1075 516 
Q 1375 441 1709 441 
Q 2250 441 2565 725 
Q 2881 1009 2881 1497 
Q 2881 1984 2565 2268 
Q 2250 2553 1709 2553 
Q 1456 2553 1204 2497 
Q 953 2441 691 2322 
L 691 4666 
z
" transform="scale(0.015625)"/>
       </defs>
       <use xlink:href="#DejaVuSans-30"/>
       <use xlink:href="#DejaVuSans-2e" x="63.623047"/>
       <use xlink:href="#DejaVuSans-35" x="95.410156"/>
      </g>
     </g>
    </g>
    <g id="ytick_3">
     <g id="line2d_3">
      <g>
       <use xlink:href="#m1bdb0584ac" x="7.2" y="16.643333" style="stroke: #000000; stroke-width: 0.8"/>
      </g>
     </g>
     <g id="text_3">
      <!-- 1.0 -->
      <g transform="translate(13.345313 22.342161) scale(0.15 -0.15)">
       <defs>
        <path id="DejaVuSans-31" d="M 794 531 
L 1825 531 
L 1825 4091 
L 703 3866 
L 703 4441 
L 1819 4666 
L 2450 4666 
L 2450 531 
L 3481 531 
L 3481 0 
L 794 0 
L 794 531 
z
" transform="scale(0.015625)"/>
       </defs>
       <use xlink:href="#DejaVuSans-31"/>
       <use xlink:href="#DejaVuSans-2e" x="63.623047"/>
       <use xlink:href="#DejaVuSans-30" x="95.410156"/>
      </g>
     </g>
    </g>
   </g>
   <g id="line2d_4">
    <path d="M 14.329 61.882087 
L 18.649699 64.46392 
L 22.970162 64.443981 
L 27.290861 64.028011 
L 31.611324 61.123058 
L 35.932023 61.124818 
L 40.252722 62.792218 
L 44.573185 58.890149 
L 48.893884 57.324199 
L 53.214347 55.598742 
L 57.535046 59.253732 
L 61.855745 61.206526 
L 66.176208 53.982361 
L 70.496907 60.253195 
L 74.817371 52.330402 
L 79.138069 44.098173 
L 83.458768 40.721148 
L 87.779232 38.365285 
L 92.099931 29.720408 
L 96.420394 16.643333 
L 100.741093 21.572819 
L 105.061792 41.004587 
L 109.382255 45.616622 
L 113.702954 56.242832 
L 118.023417 51.41382 
L 122.344116 56.156041 
L 126.664815 63.224804 
L 130.985278 69.692091 
L 135.305977 73.008127 
L 139.62644 70.566841 
L 143.947139 67.671076 
L 148.267838 65.084357 
L 152.588301 68.249877 
L 156.909 68.723708 
" clip-path="url(#p78ca7f74f7)" style="fill: none; stroke: #808080; stroke-width: 2; stroke-linecap: square"/>
   </g>
   <g id="line2d_5">
    <path d="M 14.329 87.554655 
L 18.649699 86.780451 
L 22.970162 86.753954 
L 27.290861 85.213549 
L 31.611324 82.968219 
L 35.932023 81.85756 
L 40.252722 82.999684 
L 44.573185 80.70964 
L 48.893884 78.92828 
L 53.214347 76.068554 
L 57.535046 73.147002 
L 61.855745 71.886746 
L 66.176208 56.098774 
L 70.496907 49.466561 
L 74.817371 40.078678 
L 79.138069 23.391745 
L 83.458768 19.795904 
L 87.779232 23.899877 
L 92.099931 35.470161 
L 96.420394 45.534266 
L 100.741093 60.345443 
L 105.061792 75.758596 
L 109.382255 81.74136 
L 113.702954 90.167629 
L 118.023417 94.498205 
L 122.344116 94.921327 
L 126.664815 95.831327 
L 130.985278 94.653046 
L 135.305977 93.717377 
L 139.62644 94.12587 
L 143.947139 95.030074 
L 148.267838 95.046359 
L 152.588301 94.065424 
L 156.909 93.68812 
" clip-path="url(#p78ca7f74f7)" style="fill: none; stroke: #35db09; stroke-width: 2; stroke-linecap: square"/>
   </g>
   <g id="patch_3">
    <path d="M 7.2 120.52 
L 7.2 7.2 
" style="fill: none; stroke: #000000; stroke-width: 0.8; stroke-linejoin: miter; stroke-linecap: square"/>
   </g>
   <g id="patch_4">
    <path d="M 7.2 120.52 
L 164.038 120.52 
" style="fill: none; stroke: #000000; stroke-width: 0.8; stroke-linejoin: miter; stroke-linecap: square"/>
   </g>
  </g>
  <g id="axes_2">
   <g id="patch_5">
    <path d="M 178.338 120.52 
L 335.176 120.52 
L 335.176 7.2 
L 178.338 7.2 
z
" style="fill: #ffffff"/>
   </g>
   <g id="PolyCollection_3"/>
   <g id="PolyCollection_4"/>
   <g id="matplotlib.axis_3"/>
   <g id="matplotlib.axis_4">
    <g id="ytick_4">
     <g id="line2d_6">
      <g>
       <use xlink:href="#m1bdb0584ac" x="178.338" y="111.076667" style="stroke: #000000; stroke-width: 0.8"/>
      </g>
     </g>
    </g>
    <g id="ytick_5">
     <g id="line2d_7">
      <g>
       <use xlink:href="#m1bdb0584ac" x="178.338" y="63.86" style="stroke: #000000; stroke-width: 0.8"/>
      </g>
     </g>
    </g>
    <g id="ytick_6">
     <g id="line2d_8">
      <g>
       <use xlink:href="#m1bdb0584ac" x="178.338" y="16.643333" style="stroke: #000000; stroke-width: 0.8"/>
      </g>
     </g>
    </g>
   </g>
   <g id="line2d_9">
    <path d="M 185.467 59.81885 
L 189.787699 58.613161 
L 194.108162 60.51474 
L 198.428861 57.603728 
L 202.749324 56.550119 
L 207.070023 60.062607 
L 211.390722 62.525591 
L 215.711185 55.621222 
L 220.031884 40.272925 
L 224.352347 45.711036 
L 228.673046 42.286707 
L 232.993745 46.738843 
L 237.314208 28.196486 
L 241.634907 25.331997 
L 245.955371 21.829673 
L 250.276069 28.503381 
L 254.596768 38.988264 
L 258.917232 46.559593 
L 263.237931 54.361973 
L 267.558394 63.774089 
L 271.879093 64.187714 
L 276.199792 62.816457 
L 280.520255 64.874612 
L 284.840954 57.384797 
L 289.161417 61.898312 
L 293.482116 60.894939 
L 297.802815 56.945955 
L 302.123278 58.471637 
L 306.443977 60.322589 
L 310.76444 66.358658 
L 315.085139 63.845046 
L 319.405838 60.789578 
L 323.726301 54.315254 
L 328.047 55.692179 
" clip-path="url(#p2d320e8d64)" style="fill: none; stroke: #808080; stroke-width: 2; stroke-linecap: square"/>
   </g>
   <g id="line2d_10">
    <path d="M 185.467 78.492186 
L 189.787699 78.734246 
L 194.108162 76.990423 
L 198.428861 74.540018 
L 202.749324 74.198595 
L 207.070023 70.818869 
L 211.390722 65.916955 
L 215.711185 59.368373 
L 220.031884 48.637983 
L 224.352347 33.988271 
L 228.673046 24.437818 
L 232.993745 17.686922 
L 237.314208 16.643333 
L 241.634907 37.079844 
L 245.955371 41.957469 
L 250.276069 58.948012 
L 254.596768 73.72248 
L 258.917232 84.514143 
L 263.237931 90.918925 
L 267.558394 93.50899 
L 271.879093 95.188227 
L 276.199792 93.712133 
L 280.520255 90.866759 
L 284.840954 93.667143 
L 289.161417 86.57096 
L 293.482116 89.791153 
L 297.802815 91.682089 
L 302.123278 88.463 
L 306.443977 86.726353 
L 310.76444 87.051767 
L 315.085139 82.710979 
L 319.405838 81.816159 
L 323.726301 83.476351 
L 328.047 84.579834 
" clip-path="url(#p2d320e8d64)" style="fill: none; stroke: #35db09; stroke-width: 2; stroke-linecap: square"/>
   </g>
   <g id="patch_6">
    <path d="M 178.338 120.52 
L 178.338 7.2 
" style="fill: none; stroke: #000000; stroke-width: 0.8; stroke-linejoin: miter; stroke-linecap: square"/>
   </g>
   <g id="patch_7">
    <path d="M 178.338 120.52 
L 335.176 120.52 
" style="fill: none; stroke: #000000; stroke-width: 0.8; stroke-linejoin: miter; stroke-linecap: square"/>
   </g>
  </g>
  <g id="axes_3">
   <g id="patch_8">
    <path d="M 349.476 120.52 
L 506.314 120.52 
L 506.314 7.2 
L 349.476 7.2 
z
" style="fill: #ffffff"/>
   </g>
   <g id="PolyCollection_5"/>
   <g id="PolyCollection_6"/>
   <g id="matplotlib.axis_5"/>
   <g id="matplotlib.axis_6">
    <g id="ytick_7">
     <g id="line2d_11">
      <g>
       <use xlink:href="#m1bdb0584ac" x="349.476" y="111.076667" style="stroke: #000000; stroke-width: 0.8"/>
      </g>
     </g>
    </g>
    <g id="ytick_8">
     <g id="line2d_12">
      <g>
       <use xlink:href="#m1bdb0584ac" x="349.476" y="63.86" style="stroke: #000000; stroke-width: 0.8"/>
      </g>
     </g>
    </g>
    <g id="ytick_9">
     <g id="line2d_13">
      <g>
       <use xlink:href="#m1bdb0584ac" x="349.476" y="16.643333" style="stroke: #000000; stroke-width: 0.8"/>
      </g>
     </g>
    </g>
   </g>
   <g id="line2d_14">
    <path d="M 356.605 65.465924 
L 360.925699 57.68876 
L 365.246162 59.551636 
L 369.566861 60.102484 
L 373.887324 54.78283 
L 378.208023 50.848507 
L 382.528722 52.396473 
L 386.849185 54.697994 
L 391.169884 62.886437 
L 395.490347 59.558477 
L 399.811046 52.663687 
L 404.131745 49.031568 
L 408.452208 56.230517 
L 412.772907 32.457643 
L 417.093371 28.649206 
L 421.414069 35.805346 
L 425.734768 29.247163 
L 430.055232 21.306191 
L 434.375931 26.13403 
L 438.696394 29.654924 
L 443.017093 45.034106 
L 447.337792 50.258759 
L 451.658255 53.085717 
L 455.978954 65.113874 
L 460.299417 60.883211 
L 464.620116 58.631731 
L 468.940815 57.088261 
L 473.261278 57.774378 
L 477.581977 67.26312 
L 481.90244 63.190205 
L 486.223139 60.263946 
L 490.543838 59.399361 
L 494.864301 63.722483 
L 499.185 67.420673 
" clip-path="url(#pae8a5106eb)" style="fill: none; stroke: #808080; stroke-width: 2; stroke-linecap: square"/>
   </g>
   <g id="line2d_15">
    <path d="M 356.605 85.070577 
L 360.925699 82.647221 
L 365.246162 82.066498 
L 369.566861 81.858388 
L 373.887324 77.899043 
L 378.208023 73.141482 
L 382.528722 71.200589 
L 386.849185 65.735893 
L 391.169884 68.246468 
L 395.490347 60.787609 
L 399.811046 56.739666 
L 404.131745 45.240041 
L 408.452208 39.248168 
L 412.772907 37.633517 
L 417.093371 34.757507 
L 421.414069 32.137357 
L 425.734768 37.966936 
L 430.055232 43.82522 
L 434.375931 49.402803 
L 438.696394 55.755419 
L 443.017093 69.119207 
L 447.337792 73.621737 
L 451.658255 80.037559 
L 455.978954 83.490151 
L 460.299417 88.510197 
L 464.620116 89.319179 
L 468.940815 94.674023 
L 473.261278 92.788608 
L 477.581977 93.735593 
L 481.90244 95.900606 
L 486.223139 97.782709 
L 490.543838 98.260204 
L 494.864301 97.359587 
L 499.185 99.852222 
" clip-path="url(#pae8a5106eb)" style="fill: none; stroke: #35db09; stroke-width: 2; stroke-linecap: square"/>
   </g>
   <g id="patch_9">
    <path d="M 349.476 120.52 
L 349.476 7.2 
" style="fill: none; stroke: #000000; stroke-width: 0.8; stroke-linejoin: miter; stroke-linecap: square"/>
   </g>
   <g id="patch_10">
    <path d="M 349.476 120.52 
L 506.314 120.52 
" style="fill: none; stroke: #000000; stroke-width: 0.8; stroke-linejoin: miter; stroke-linecap: square"/>
   </g>
  </g>
  <g id="axes_4">
   <g id="patch_11">
    <path d="M 520.614 120.52 
L 677.452 120.52 
L 677.452 7.2 
L 520.614 7.2 
z
" style="fill: #ffffff"/>
   </g>
   <g id="PolyCollection_7"/>
   <g id="PolyCollection_8"/>
   <g id="matplotlib.axis_7"/>
   <g id="matplotlib.axis_8">
    <g id="ytick_10">
     <g id="line2d_16">
      <g>
       <use xlink:href="#m1bdb0584ac" x="520.614" y="111.076667" style="stroke: #000000; stroke-width: 0.8"/>
      </g>
     </g>
    </g>
    <g id="ytick_11">
     <g id="line2d_17">
      <g>
       <use xlink:href="#m1bdb0584ac" x="520.614" y="63.86" style="stroke: #000000; stroke-width: 0.8"/>
      </g>
     </g>
    </g>
    <g id="ytick_12">
     <g id="line2d_18">
      <g>
       <use xlink:href="#m1bdb0584ac" x="520.614" y="16.643333" style="stroke: #000000; stroke-width: 0.8"/>
      </g>
     </g>
    </g>
   </g>
   <g id="line2d_19">
    <path d="M 527.743 62.207944 
L 532.063699 61.269274 
L 536.384162 63.048486 
L 540.704861 64.065737 
L 545.025324 62.460302 
L 549.346023 63.857166 
L 553.666722 57.223334 
L 557.987185 63.201543 
L 562.307884 55.427311 
L 566.628347 62.180968 
L 570.949046 60.635348 
L 575.269745 54.075211 
L 579.590208 55.772911 
L 583.910907 55.420274 
L 588.231371 34.841459 
L 592.552069 27.022464 
L 596.872768 28.977213 
L 601.193232 25.067715 
L 605.513931 21.158217 
L 609.834394 38.750957 
L 614.155093 40.705706 
L 618.475792 42.660455 
L 622.796255 47.656011 
L 627.116954 56.002985 
L 631.437417 49.693251 
L 635.758116 54.760155 
L 640.078815 61.318142 
L 644.399278 65.110355 
L 648.719977 62.067007 
L 653.04044 64.261017 
L 657.361139 62.412606 
L 661.681838 64.453559 
L 666.002301 64.083721 
L 670.323 62.425117 
" clip-path="url(#p713809085b)" style="fill: none; stroke: #808080; stroke-width: 2; stroke-linecap: square"/>
   </g>
   <g id="line2d_20">
    <path d="M 527.743 87.983849 
L 532.063699 85.692701 
L 536.384162 82.933718 
L 540.704861 77.303969 
L 545.025324 76.38486 
L 549.346023 78.640127 
L 553.666722 75.61314 
L 557.987185 73.52403 
L 562.307884 72.073052 
L 566.628347 64.844109 
L 570.949046 62.476782 
L 575.269745 28.274063 
L 579.590208 41.984794 
L 583.910907 27.955273 
L 588.231371 18.932549 
L 592.552069 17.031402 
L 596.872768 20.161892 
L 601.193232 22.717456 
L 605.513931 21.239154 
L 609.834394 28.059604 
L 614.155093 42.635623 
L 618.475792 53.709367 
L 622.796255 62.192494 
L 627.116954 68.079207 
L 631.437417 70.860822 
L 635.758116 73.605176 
L 640.078815 73.181227 
L 644.399278 79.37293 
L 648.719977 76.257896 
L 653.04044 78.50433 
L 657.361139 84.8034 
L 661.681838 83.773612 
L 666.002301 82.907497 
L 670.323 82.157029 
" clip-path="url(#p713809085b)" style="fill: none; stroke: #35db09; stroke-width: 2; stroke-linecap: square"/>
   </g>
   <g id="patch_12">
    <path d="M 520.614 120.52 
L 520.614 7.2 
" style="fill: none; stroke: #000000; stroke-width: 0.8; stroke-linejoin: miter; stroke-linecap: square"/>
   </g>
   <g id="patch_13">
    <path d="M 520.614 120.52 
L 677.452 120.52 
" style="fill: none; stroke: #000000; stroke-width: 0.8; stroke-linejoin: miter; stroke-linecap: square"/>
   </g>
  </g>
  <g id="axes_5">
   <g id="patch_14">
    <path d="M 691.752 120.52 
L 848.59 120.52 
L 848.59 7.2 
L 691.752 7.2 
z
" style="fill: #ffffff"/>
   </g>
   <g id="PolyCollection_9"/>
   <g id="PolyCollection_10"/>
   <g id="matplotlib.axis_9"/>
   <g id="matplotlib.axis_10">
    <g id="ytick_13">
     <g id="line2d_21">
      <g>
       <use xlink:href="#m1bdb0584ac" x="691.752" y="111.076667" style="stroke: #000000; stroke-width: 0.8"/>
      </g>
     </g>
    </g>
    <g id="ytick_14">
     <g id="line2d_22">
      <g>
       <use xlink:href="#m1bdb0584ac" x="691.752" y="63.86" style="stroke: #000000; stroke-width: 0.8"/>
      </g>
     </g>
    </g>
    <g id="ytick_15">
     <g id="line2d_23">
      <g>
       <use xlink:href="#m1bdb0584ac" x="691.752" y="16.643333" style="stroke: #000000; stroke-width: 0.8"/>
      </g>
     </g>
    </g>
   </g>
   <g id="line2d_24">
    <path d="M 698.881 63.674006 
L 703.201463 62.365888 
L 707.521926 65.613898 
L 711.842625 62.578173 
L 716.163089 63.802433 
L 720.483552 63.703718 
L 724.804015 62.341258 
L 729.124478 62.252317 
L 733.445177 55.998098 
L 737.76564 53.722574 
L 742.086104 61.457711 
L 746.406567 60.144511 
L 750.72703 55.381179 
L 755.047729 58.248991 
L 759.368192 54.388948 
L 763.688655 44.156229 
L 768.009119 31.840138 
L 772.329582 31.598335 
L 776.650281 43.504515 
L 780.970744 52.241657 
L 785.291207 58.076387 
L 789.611671 60.001423 
L 793.932134 58.515619 
L 798.252833 63.599921 
L 802.573296 62.44486 
L 806.893759 63.165575 
L 811.214222 63.723461 
L 815.534686 64.296007 
L 819.855385 63.906034 
L 824.175848 60.894939 
L 828.496311 62.474572 
L 832.816774 60.001423 
L 837.137237 57.39027 
L 841.457936 63.185318 
" clip-path="url(#pe4c692da1b)" style="fill: none; stroke: #808080; stroke-width: 2; stroke-linecap: square"/>
   </g>
   <g id="line2d_25">
    <path d="M 698.881 84.51856 
L 703.201463 85.09321 
L 707.521926 84.73357 
L 711.842625 84.701001 
L 716.163089 83.099323 
L 720.483552 84.176033 
L 724.804015 85.579261 
L 729.124478 83.26962 
L 733.445177 80.857028 
L 737.76564 84.097646 
L 742.086104 79.094989 
L 746.406567 72.772734 
L 750.72703 66.136106 
L 755.047729 57.148435 
L 759.368192 51.266414 
L 763.688655 48.899364 
L 768.009119 37.217848 
L 772.329582 35.37825 
L 776.650281 43.00161 
L 780.970744 49.446413 
L 785.291207 57.684444 
L 789.611671 62.712494 
L 793.932134 69.956618 
L 798.252833 72.812755 
L 802.573296 79.034543 
L 806.893759 77.862334 
L 811.214222 81.088324 
L 815.534686 84.168581 
L 819.855385 83.929281 
L 824.175848 84.303825 
L 828.496311 85.771639 
L 832.816774 87.483445 
L 837.137237 86.390174 
L 841.457936 87.569836 
" clip-path="url(#pe4c692da1b)" style="fill: none; stroke: #35db09; stroke-width: 2; stroke-linecap: square"/>
   </g>
   <g id="patch_15">
    <path d="M 691.752 120.52 
L 691.752 7.2 
" style="fill: none; stroke: #000000; stroke-width: 0.8; stroke-linejoin: miter; stroke-linecap: square"/>
   </g>
   <g id="patch_16">
    <path d="M 691.752 120.52 
L 848.59 120.52 
" style="fill: none; stroke: #000000; stroke-width: 0.8; stroke-linejoin: miter; stroke-linecap: square"/>
   </g>
  </g>
 </g>
 <defs>
  <clipPath id="p78ca7f74f7">
   <rect x="7.2" y="7.2" width="156.838" height="113.32"/>
  </clipPath>
  <clipPath id="p2d320e8d64">
   <rect x="178.338" y="7.2" width="156.838" height="113.32"/>
  </clipPath>
  <clipPath id="pae8a5106eb">
   <rect x="349.476" y="7.2" width="156.838" height="113.32"/>
  </clipPath>
  <clipPath id="p713809085b">
   <rect x="520.614" y="7.2" width="156.838" height="113.32"/>
  </clipPath>
  <clipPath id="pe4c692da1b">
   <rect x="691.752" y="7.2" width="156.838" height="113.32"/>
  </clipPath>
 </defs>
</svg>
