<?xml version="1.0" encoding="utf-8" standalone="no"?>
<!DOCTYPE svg PUBLIC "-//W3C//DTD SVG 1.1//EN"
  "http://www.w3.org/Graphics/SVG/1.1/DTD/svg11.dtd">
<svg xmlns:xlink="http://www.w3.org/1999/xlink" width="440.05125pt" height="331.864344pt" viewBox="0 0 440.05125 331.864344" xmlns="http://www.w3.org/2000/svg" version="1.1">
 <metadata>
  <rdf:RDF xmlns:dc="http://purl.org/dc/elements/1.1/" xmlns:cc="http://creativecommons.org/ns#" xmlns:rdf="http://www.w3.org/1999/02/22-rdf-syntax-ns#">
   <cc:Work>
    <dc:type rdf:resource="http://purl.org/dc/dcmitype/StillImage"/>
    <dc:date>2024-12-11T13:38:33.058818</dc:date>
    <dc:format>image/svg+xml</dc:format>
    <dc:creator>
     <cc:Agent>
      <dc:title>Matplotlib v3.7.2, https://matplotlib.org/</dc:title>
     </cc:Agent>
    </dc:creator>
   </cc:Work>
  </rdf:RDF>
 </metadata>
 <defs>
  <style type="text/css">*{stroke-linejoin: round; stroke-linecap: butt}</style>
 </defs>
 <g id="figure_1">
  <g id="patch_1">
   <path d="M 0 331.864344 
L 440.05125 331.864344 
L 440.05125 0 
L 0 0 
z
" style="fill: #ffffff"/>
  </g>
  <g id="axes_1">
   <g id="patch_2">
    <path d="M 75.73125 298.308094 
L 432.85125 298.308094 
L 432.85125 32.196094 
L 75.73125 32.196094 
z
" style="fill: #ffffff"/>
   </g>
   <g id="matplotlib.axis_1">
    <g id="xtick_1">
     <g id="line2d_1">
      <defs>
       <path id="m3e8d8ceb96" d="M 0 0 
L 0 3.5 
" style="stroke: #000000; stroke-width: 0.8"/>
      </defs>
      <g>
       <use xlink:href="#m3e8d8ceb96" x="165.01125" y="298.308094" style="stroke: #000000; stroke-width: 0.8"/>
      </g>
     </g>
     <g id="text_1">
      <!-- AC -->
      <g transform="translate(151.362813 320.504969) scale(0.2 -0.2)">
       <defs>
        <path id="DejaVuSans-41" d="M 2188 4044 
L 1331 1722 
L 3047 1722 
L 2188 4044 
z
M 1831 4666 
L 2547 4666 
L 4325 0 
L 3669 0 
L 3244 1197 
L 1141 1197 
L 716 0 
L 50 0 
L 1831 4666 
z
" transform="scale(0.015625)"/>
        <path id="DejaVuSans-43" d="M 4122 4306 
L 4122 3641 
Q 3803 3938 3442 4084 
Q 3081 4231 2675 4231 
Q 1875 4231 1450 3742 
Q 1025 3253 1025 2328 
Q 1025 1406 1450 917 
Q 1875 428 2675 428 
Q 3081 428 3442 575 
Q 3803 722 4122 1019 
L 4122 359 
Q 3791 134 3420 21 
Q 3050 -91 2638 -91 
Q 1578 -91 968 557 
Q 359 1206 359 2328 
Q 359 3453 968 4101 
Q 1578 4750 2638 4750 
Q 3056 4750 3426 4639 
Q 3797 4528 4122 4306 
z
" transform="scale(0.015625)"/>
       </defs>
       <use xlink:href="#DejaVuSans-41"/>
       <use xlink:href="#DejaVuSans-43" x="66.658203"/>
      </g>
     </g>
    </g>
    <g id="xtick_2">
     <g id="line2d_2">
      <g>
       <use xlink:href="#m3e8d8ceb96" x="343.57125" y="298.308094" style="stroke: #000000; stroke-width: 0.8"/>
      </g>
     </g>
     <g id="text_2">
      <!-- BC -->
      <g transform="translate(329.9025 320.504969) scale(0.2 -0.2)">
       <defs>
        <path id="DejaVuSans-42" d="M 1259 2228 
L 1259 519 
L 2272 519 
Q 2781 519 3026 730 
Q 3272 941 3272 1375 
Q 3272 1813 3026 2020 
Q 2781 2228 2272 2228 
L 1259 2228 
z
M 1259 4147 
L 1259 2741 
L 2194 2741 
Q 2656 2741 2882 2914 
Q 3109 3088 3109 3444 
Q 3109 3797 2882 3972 
Q 2656 4147 2194 4147 
L 1259 4147 
z
M 628 4666 
L 2241 4666 
Q 2963 4666 3353 4366 
Q 3744 4066 3744 3513 
Q 3744 3084 3544 2831 
Q 3344 2578 2956 2516 
Q 3422 2416 3680 2098 
Q 3938 1781 3938 1306 
Q 3938 681 3513 340 
Q 3088 0 2303 0 
L 628 0 
L 628 4666 
z
" transform="scale(0.015625)"/>
       </defs>
       <use xlink:href="#DejaVuSans-42"/>
       <use xlink:href="#DejaVuSans-43" x="66.853516"/>
      </g>
     </g>
    </g>
   </g>
   <g id="matplotlib.axis_2">
    <g id="ytick_1">
     <g id="line2d_3">
      <defs>
       <path id="mf969a9ae7d" d="M 0 0 
L -3.5 0 
" style="stroke: #000000; stroke-width: 0.8"/>
      </defs>
      <g>
       <use xlink:href="#mf969a9ae7d" x="75.73125" y="298.308094" style="stroke: #000000; stroke-width: 0.8"/>
      </g>
     </g>
     <g id="text_3">
      <!-- 0 -->
      <g transform="translate(56.00625 305.906531) scale(0.2 -0.2)">
       <defs>
        <path id="DejaVuSans-30" d="M 2034 4250 
Q 1547 4250 1301 3770 
Q 1056 3291 1056 2328 
Q 1056 1369 1301 889 
Q 1547 409 2034 409 
Q 2525 409 2770 889 
Q 3016 1369 3016 2328 
Q 3016 3291 2770 3770 
Q 2525 4250 2034 4250 
z
M 2034 4750 
Q 2819 4750 3233 4129 
Q 3647 3509 3647 2328 
Q 3647 1150 3233 529 
Q 2819 -91 2034 -91 
Q 1250 -91 836 529 
Q 422 1150 422 2328 
Q 422 3509 836 4129 
Q 1250 4750 2034 4750 
z
" transform="scale(0.015625)"/>
       </defs>
       <use xlink:href="#DejaVuSans-30"/>
      </g>
     </g>
    </g>
    <g id="ytick_2">
     <g id="line2d_4">
      <g>
       <use xlink:href="#mf969a9ae7d" x="75.73125" y="260.292094" style="stroke: #000000; stroke-width: 0.8"/>
      </g>
     </g>
     <g id="text_4">
      <!-- 30 -->
      <g transform="translate(43.28125 267.890531) scale(0.2 -0.2)">
       <defs>
        <path id="DejaVuSans-33" d="M 2597 2516 
Q 3050 2419 3304 2112 
Q 3559 1806 3559 1356 
Q 3559 666 3084 287 
Q 2609 -91 1734 -91 
Q 1441 -91 1130 -33 
Q 819 25 488 141 
L 488 750 
Q 750 597 1062 519 
Q 1375 441 1716 441 
Q 2309 441 2620 675 
Q 2931 909 2931 1356 
Q 2931 1769 2642 2001 
Q 2353 2234 1838 2234 
L 1294 2234 
L 1294 2753 
L 1863 2753 
Q 2328 2753 2575 2939 
Q 2822 3125 2822 3475 
Q 2822 3834 2567 4026 
Q 2313 4219 1838 4219 
Q 1578 4219 1281 4162 
Q 984 4106 628 3988 
L 628 4550 
Q 988 4650 1302 4700 
Q 1616 4750 1894 4750 
Q 2613 4750 3031 4423 
Q 3450 4097 3450 3541 
Q 3450 3153 3228 2886 
Q 3006 2619 2597 2516 
z
" transform="scale(0.015625)"/>
       </defs>
       <use xlink:href="#DejaVuSans-33"/>
       <use xlink:href="#DejaVuSans-30" x="63.623047"/>
      </g>
     </g>
    </g>
    <g id="ytick_3">
     <g id="line2d_5">
      <g>
       <use xlink:href="#mf969a9ae7d" x="75.73125" y="222.276094" style="stroke: #000000; stroke-width: 0.8"/>
      </g>
     </g>
     <g id="text_5">
      <!-- 60 -->
      <g transform="translate(43.28125 229.874531) scale(0.2 -0.2)">
       <defs>
        <path id="DejaVuSans-36" d="M 2113 2584 
Q 1688 2584 1439 2293 
Q 1191 2003 1191 1497 
Q 1191 994 1439 701 
Q 1688 409 2113 409 
Q 2538 409 2786 701 
Q 3034 994 3034 1497 
Q 3034 2003 2786 2293 
Q 2538 2584 2113 2584 
z
M 3366 4563 
L 3366 3988 
Q 3128 4100 2886 4159 
Q 2644 4219 2406 4219 
Q 1781 4219 1451 3797 
Q 1122 3375 1075 2522 
Q 1259 2794 1537 2939 
Q 1816 3084 2150 3084 
Q 2853 3084 3261 2657 
Q 3669 2231 3669 1497 
Q 3669 778 3244 343 
Q 2819 -91 2113 -91 
Q 1303 -91 875 529 
Q 447 1150 447 2328 
Q 447 3434 972 4092 
Q 1497 4750 2381 4750 
Q 2619 4750 2861 4703 
Q 3103 4656 3366 4563 
z
" transform="scale(0.015625)"/>
       </defs>
       <use xlink:href="#DejaVuSans-36"/>
       <use xlink:href="#DejaVuSans-30" x="63.623047"/>
      </g>
     </g>
    </g>
    <g id="ytick_4">
     <g id="line2d_6">
      <g>
       <use xlink:href="#mf969a9ae7d" x="75.73125" y="184.260094" style="stroke: #000000; stroke-width: 0.8"/>
      </g>
     </g>
     <g id="text_6">
      <!-- 90 -->
      <g transform="translate(43.28125 191.858531) scale(0.2 -0.2)">
       <defs>
        <path id="DejaVuSans-39" d="M 703 97 
L 703 672 
Q 941 559 1184 500 
Q 1428 441 1663 441 
Q 2288 441 2617 861 
Q 2947 1281 2994 2138 
Q 2813 1869 2534 1725 
Q 2256 1581 1919 1581 
Q 1219 1581 811 2004 
Q 403 2428 403 3163 
Q 403 3881 828 4315 
Q 1253 4750 1959 4750 
Q 2769 4750 3195 4129 
Q 3622 3509 3622 2328 
Q 3622 1225 3098 567 
Q 2575 -91 1691 -91 
Q 1453 -91 1209 -44 
Q 966 3 703 97 
z
M 1959 2075 
Q 2384 2075 2632 2365 
Q 2881 2656 2881 3163 
Q 2881 3666 2632 3958 
Q 2384 4250 1959 4250 
Q 1534 4250 1286 3958 
Q 1038 3666 1038 3163 
Q 1038 2656 1286 2365 
Q 1534 2075 1959 2075 
z
" transform="scale(0.015625)"/>
       </defs>
       <use xlink:href="#DejaVuSans-39"/>
       <use xlink:href="#DejaVuSans-30" x="63.623047"/>
      </g>
     </g>
    </g>
    <g id="ytick_5">
     <g id="line2d_7">
      <g>
       <use xlink:href="#mf969a9ae7d" x="75.73125" y="146.244094" style="stroke: #000000; stroke-width: 0.8"/>
      </g>
     </g>
     <g id="text_7">
      <!-- 120 -->
      <g transform="translate(30.55625 153.842531) scale(0.2 -0.2)">
       <defs>
        <path id="DejaVuSans-31" d="M 794 531 
L 1825 531 
L 1825 4091 
L 703 3866 
L 703 4441 
L 1819 4666 
L 2450 4666 
L 2450 531 
L 3481 531 
L 3481 0 
L 794 0 
L 794 531 
z
" transform="scale(0.015625)"/>
        <path id="DejaVuSans-32" d="M 1228 531 
L 3431 531 
L 3431 0 
L 469 0 
L 469 531 
Q 828 903 1448 1529 
Q 2069 2156 2228 2338 
Q 2531 2678 2651 2914 
Q 2772 3150 2772 3378 
Q 2772 3750 2511 3984 
Q 2250 4219 1831 4219 
Q 1534 4219 1204 4116 
Q 875 4013 500 3803 
L 500 4441 
Q 881 4594 1212 4672 
Q 1544 4750 1819 4750 
Q 2544 4750 2975 4387 
Q 3406 4025 3406 3419 
Q 3406 3131 3298 2873 
Q 3191 2616 2906 2266 
Q 2828 2175 2409 1742 
Q 1991 1309 1228 531 
z
" transform="scale(0.015625)"/>
       </defs>
       <use xlink:href="#DejaVuSans-31"/>
       <use xlink:href="#DejaVuSans-32" x="63.623047"/>
       <use xlink:href="#DejaVuSans-30" x="127.246094"/>
      </g>
     </g>
    </g>
    <g id="ytick_6">
     <g id="line2d_8">
      <g>
       <use xlink:href="#mf969a9ae7d" x="75.73125" y="108.228094" style="stroke: #000000; stroke-width: 0.8"/>
      </g>
     </g>
     <g id="text_8">
      <!-- 150 -->
      <g transform="translate(30.55625 115.826531) scale(0.2 -0.2)">
       <defs>
        <path id="DejaVuSans-35" d="M 691 4666 
L 3169 4666 
L 3169 4134 
L 1269 4134 
L 1269 2991 
Q 1406 3038 1543 3061 
Q 1681 3084 1819 3084 
Q 2600 3084 3056 2656 
Q 3513 2228 3513 1497 
Q 3513 744 3044 326 
Q 2575 -91 1722 -91 
Q 1428 -91 1123 -41 
Q 819 9 494 109 
L 494 744 
Q 775 591 1075 516 
Q 1375 441 1709 441 
Q 2250 441 2565 725 
Q 2881 1009 2881 1497 
Q 2881 1984 2565 2268 
Q 2250 2553 1709 2553 
Q 1456 2553 1204 2497 
Q 953 2441 691 2322 
L 691 4666 
z
" transform="scale(0.015625)"/>
       </defs>
       <use xlink:href="#DejaVuSans-31"/>
       <use xlink:href="#DejaVuSans-35" x="63.623047"/>
       <use xlink:href="#DejaVuSans-30" x="127.246094"/>
      </g>
     </g>
    </g>
    <g id="ytick_7">
     <g id="line2d_9">
      <g>
       <use xlink:href="#mf969a9ae7d" x="75.73125" y="70.212094" style="stroke: #000000; stroke-width: 0.8"/>
      </g>
     </g>
     <g id="text_9">
      <!-- 180 -->
      <g transform="translate(30.55625 77.810531) scale(0.2 -0.2)">
       <defs>
        <path id="DejaVuSans-38" d="M 2034 2216 
Q 1584 2216 1326 1975 
Q 1069 1734 1069 1313 
Q 1069 891 1326 650 
Q 1584 409 2034 409 
Q 2484 409 2743 651 
Q 3003 894 3003 1313 
Q 3003 1734 2745 1975 
Q 2488 2216 2034 2216 
z
M 1403 2484 
Q 997 2584 770 2862 
Q 544 3141 544 3541 
Q 544 4100 942 4425 
Q 1341 4750 2034 4750 
Q 2731 4750 3128 4425 
Q 3525 4100 3525 3541 
Q 3525 3141 3298 2862 
Q 3072 2584 2669 2484 
Q 3125 2378 3379 2068 
Q 3634 1759 3634 1313 
Q 3634 634 3220 271 
Q 2806 -91 2034 -91 
Q 1263 -91 848 271 
Q 434 634 434 1313 
Q 434 1759 690 2068 
Q 947 2378 1403 2484 
z
M 1172 3481 
Q 1172 3119 1398 2916 
Q 1625 2713 2034 2713 
Q 2441 2713 2670 2916 
Q 2900 3119 2900 3481 
Q 2900 3844 2670 4047 
Q 2441 4250 2034 4250 
Q 1625 4250 1398 4047 
Q 1172 3844 1172 3481 
z
" transform="scale(0.015625)"/>
       </defs>
       <use xlink:href="#DejaVuSans-31"/>
       <use xlink:href="#DejaVuSans-38" x="63.623047"/>
       <use xlink:href="#DejaVuSans-30" x="127.246094"/>
      </g>
     </g>
    </g>
    <g id="text_10">
     <!-- Angle -->
     <g transform="translate(22.396875 193.709906) rotate(-90) scale(0.2 -0.2)">
      <defs>
       <path id="DejaVuSans-6e" d="M 3513 2113 
L 3513 0 
L 2938 0 
L 2938 2094 
Q 2938 2591 2744 2837 
Q 2550 3084 2163 3084 
Q 1697 3084 1428 2787 
Q 1159 2491 1159 1978 
L 1159 0 
L 581 0 
L 581 3500 
L 1159 3500 
L 1159 2956 
Q 1366 3272 1645 3428 
Q 1925 3584 2291 3584 
Q 2894 3584 3203 3211 
Q 3513 2838 3513 2113 
z
" transform="scale(0.015625)"/>
       <path id="DejaVuSans-67" d="M 2906 1791 
Q 2906 2416 2648 2759 
Q 2391 3103 1925 3103 
Q 1463 3103 1205 2759 
Q 947 2416 947 1791 
Q 947 1169 1205 825 
Q 1463 481 1925 481 
Q 2391 481 2648 825 
Q 2906 1169 2906 1791 
z
M 3481 434 
Q 3481 -459 3084 -895 
Q 2688 -1331 1869 -1331 
Q 1566 -1331 1297 -1286 
Q 1028 -1241 775 -1147 
L 775 -588 
Q 1028 -725 1275 -790 
Q 1522 -856 1778 -856 
Q 2344 -856 2625 -561 
Q 2906 -266 2906 331 
L 2906 616 
Q 2728 306 2450 153 
Q 2172 0 1784 0 
Q 1141 0 747 490 
Q 353 981 353 1791 
Q 353 2603 747 3093 
Q 1141 3584 1784 3584 
Q 2172 3584 2450 3431 
Q 2728 3278 2906 2969 
L 2906 3500 
L 3481 3500 
L 3481 434 
z
" transform="scale(0.015625)"/>
       <path id="DejaVuSans-6c" d="M 603 4863 
L 1178 4863 
L 1178 0 
L 603 0 
L 603 4863 
z
" transform="scale(0.015625)"/>
       <path id="DejaVuSans-65" d="M 3597 1894 
L 3597 1613 
L 953 1613 
Q 991 1019 1311 708 
Q 1631 397 2203 397 
Q 2534 397 2845 478 
Q 3156 559 3463 722 
L 3463 178 
Q 3153 47 2828 -22 
Q 2503 -91 2169 -91 
Q 1331 -91 842 396 
Q 353 884 353 1716 
Q 353 2575 817 3079 
Q 1281 3584 2069 3584 
Q 2775 3584 3186 3129 
Q 3597 2675 3597 1894 
z
M 3022 2063 
Q 3016 2534 2758 2815 
Q 2500 3097 2075 3097 
Q 1594 3097 1305 2825 
Q 1016 2553 972 2059 
L 3022 2063 
z
" transform="scale(0.015625)"/>
      </defs>
      <use xlink:href="#DejaVuSans-41"/>
      <use xlink:href="#DejaVuSans-6e" x="68.408203"/>
      <use xlink:href="#DejaVuSans-67" x="131.787109"/>
      <use xlink:href="#DejaVuSans-6c" x="195.263672"/>
      <use xlink:href="#DejaVuSans-65" x="223.046875"/>
     </g>
    </g>
   </g>
   <g id="patch_3">
    <path d="M 93.58725 274.738174 
L 165.01125 274.738174 
L 165.01125 248.253694 
L 93.58725 248.253694 
L 93.58725 274.738174 
z
" clip-path="url(#p274f78e786)" style="fill: #ffffff; stroke: #999999; stroke-linejoin: miter"/>
   </g>
   <g id="line2d_10">
    <path d="M 129.29925 274.738174 
L 129.29925 293.492734 
" clip-path="url(#p274f78e786)" style="fill: none; stroke: #999999"/>
   </g>
   <g id="line2d_11">
    <path d="M 129.29925 248.253694 
L 129.29925 214.039294 
" clip-path="url(#p274f78e786)" style="fill: none; stroke: #999999"/>
   </g>
   <g id="line2d_12">
    <path d="M 111.44325 293.492734 
L 147.15525 293.492734 
" clip-path="url(#p274f78e786)" style="fill: none; stroke: #999999; stroke-linecap: square"/>
   </g>
   <g id="line2d_13">
    <path d="M 111.44325 214.039294 
L 147.15525 214.039294 
" clip-path="url(#p274f78e786)" style="fill: none; stroke: #999999; stroke-linecap: square"/>
   </g>
   <g id="line2d_14">
    <defs>
     <path id="md6da5b4cc1" d="M 0 3 
C 0.795609 3 1.55874 2.683901 2.12132 2.12132 
C 2.683901 1.55874 3 0.795609 3 0 
C 3 -0.795609 2.683901 -1.55874 2.12132 -2.12132 
C 1.55874 -2.683901 0.795609 -3 0 -3 
C -0.795609 -3 -1.55874 -2.683901 -2.12132 -2.12132 
C -2.683901 -1.55874 -3 -0.795609 -3 0 
C -3 0.795609 -2.683901 1.55874 -2.12132 2.12132 
C -1.55874 2.683901 -0.795609 3 0 3 
z
" style="stroke: #999999"/>
    </defs>
    <g clip-path="url(#p274f78e786)">
     <use xlink:href="#md6da5b4cc1" x="129.29925" y="202.507774" style="fill-opacity: 0; stroke: #999999"/>
    </g>
   </g>
   <g id="patch_4">
    <path d="M 272.14725 212.898814 
L 343.57125 212.898814 
L 343.57125 148.778494 
L 272.14725 148.778494 
L 272.14725 212.898814 
z
" clip-path="url(#p274f78e786)" style="fill: #ffffff; stroke: #999999; stroke-linejoin: miter"/>
   </g>
   <g id="line2d_15">
    <path d="M 307.85925 212.898814 
L 307.85925 237.102334 
" clip-path="url(#p274f78e786)" style="fill: none; stroke: #999999"/>
   </g>
   <g id="line2d_16">
    <path d="M 307.85925 148.778494 
L 307.85925 109.495294 
" clip-path="url(#p274f78e786)" style="fill: none; stroke: #999999"/>
   </g>
   <g id="line2d_17">
    <path d="M 290.00325 237.102334 
L 325.71525 237.102334 
" clip-path="url(#p274f78e786)" style="fill: none; stroke: #999999; stroke-linecap: square"/>
   </g>
   <g id="line2d_18">
    <path d="M 290.00325 109.495294 
L 325.71525 109.495294 
" clip-path="url(#p274f78e786)" style="fill: none; stroke: #999999; stroke-linecap: square"/>
   </g>
   <g id="line2d_19"/>
   <g id="patch_5">
    <path d="M 165.01125 264.600574 
L 236.43525 264.600574 
L 236.43525 184.640254 
L 165.01125 184.640254 
L 165.01125 264.600574 
z
" clip-path="url(#p274f78e786)" style="fill: #ffffff; stroke: #999999; stroke-linejoin: miter"/>
   </g>
   <g id="line2d_20">
    <path d="M 200.72325 264.600574 
L 200.72325 288.119806 
" clip-path="url(#p274f78e786)" style="fill: none; stroke: #999999"/>
   </g>
   <g id="line2d_21">
    <path d="M 200.72325 184.640254 
L 200.72325 123.434494 
" clip-path="url(#p274f78e786)" style="fill: none; stroke: #999999"/>
   </g>
   <g id="line2d_22">
    <path d="M 182.86725 288.119806 
L 218.57925 288.119806 
" clip-path="url(#p274f78e786)" style="fill: none; stroke: #999999; stroke-linecap: square"/>
   </g>
   <g id="line2d_23">
    <path d="M 182.86725 123.434494 
L 218.57925 123.434494 
" clip-path="url(#p274f78e786)" style="fill: none; stroke: #999999; stroke-linecap: square"/>
   </g>
   <g id="line2d_24"/>
   <g id="patch_6">
    <path d="M 343.57125 213.215614 
L 414.99525 213.215614 
L 414.99525 149.095294 
L 343.57125 149.095294 
L 343.57125 213.215614 
z
" clip-path="url(#p274f78e786)" style="fill: #ffffff; stroke: #999999; stroke-linejoin: miter"/>
   </g>
   <g id="line2d_25">
    <path d="M 379.28325 213.215614 
L 379.28325 262.066174 
" clip-path="url(#p274f78e786)" style="fill: none; stroke: #999999"/>
   </g>
   <g id="line2d_26">
    <path d="M 379.28325 149.095294 
L 379.28325 100.624894 
" clip-path="url(#p274f78e786)" style="fill: none; stroke: #999999"/>
   </g>
   <g id="line2d_27">
    <path d="M 361.42725 262.066174 
L 397.13925 262.066174 
" clip-path="url(#p274f78e786)" style="fill: none; stroke: #999999; stroke-linecap: square"/>
   </g>
   <g id="line2d_28">
    <path d="M 361.42725 100.624894 
L 397.13925 100.624894 
" clip-path="url(#p274f78e786)" style="fill: none; stroke: #999999; stroke-linecap: square"/>
   </g>
   <g id="line2d_29"/>
   <g id="line2d_30">
    <path d="M 93.58725 257.377534 
L 165.01125 257.377534 
" clip-path="url(#p274f78e786)" style="fill: none; stroke: #999999"/>
   </g>
   <g id="line2d_31">
    <path d="M 272.14725 156.381694 
L 343.57125 156.381694 
" clip-path="url(#p274f78e786)" style="fill: none; stroke: #999999"/>
   </g>
   <g id="line2d_32">
    <path d="M 165.01125 220.502014 
L 236.43525 220.502014 
" clip-path="url(#p274f78e786)" style="fill: none; stroke: #999999"/>
   </g>
   <g id="line2d_33">
    <path d="M 343.57125 191.926654 
L 414.99525 191.926654 
" clip-path="url(#p274f78e786)" style="fill: none; stroke: #999999"/>
   </g>
   <g id="patch_7">
    <path d="M 75.73125 298.308094 
L 75.73125 32.196094 
" style="fill: none; stroke: #000000; stroke-width: 0.8; stroke-linejoin: miter; stroke-linecap: square"/>
   </g>
   <g id="patch_8">
    <path d="M 432.85125 298.308094 
L 432.85125 32.196094 
" style="fill: none; stroke: #000000; stroke-width: 0.8; stroke-linejoin: miter; stroke-linecap: square"/>
   </g>
   <g id="patch_9">
    <path d="M 75.73125 298.308094 
L 432.85125 298.308094 
" style="fill: none; stroke: #000000; stroke-width: 0.8; stroke-linejoin: miter; stroke-linecap: square"/>
   </g>
   <g id="patch_10">
    <path d="M 75.73125 32.196094 
L 432.85125 32.196094 
" style="fill: none; stroke: #000000; stroke-width: 0.8; stroke-linejoin: miter; stroke-linecap: square"/>
   </g>
   <g id="PathCollection_1">
    <defs>
     <path id="C0_0_0f2b8f1960" d="M 0 5 
C 1.326016 5 2.597899 4.473168 3.535534 3.535534 
C 4.473168 2.597899 5 1.326016 5 -0 
C 5 -1.326016 4.473168 -2.597899 3.535534 -3.535534 
C 2.597899 -4.473168 1.326016 -5 0 -5 
C -1.326016 -5 -2.597899 -4.473168 -3.535534 -3.535534 
C -4.473168 -2.597899 -5 -1.326016 -5 0 
C -5 1.326016 -4.473168 2.597899 -3.535534 3.535534 
C -2.597899 4.473168 -1.326016 5 0 5 
z
"/>
    </defs>
    <g clip-path="url(#p274f78e786)">
     <use xlink:href="#C0_0_0f2b8f1960" x="131.421543" y="248.253694" style="fill: #808080; stroke: #000000"/>
    </g>
    <g clip-path="url(#p274f78e786)">
     <use xlink:href="#C0_0_0f2b8f1960" x="134.743823" y="252.688894" style="fill: #808080; stroke: #000000"/>
    </g>
    <g clip-path="url(#p274f78e786)">
     <use xlink:href="#C0_0_0f2b8f1960" x="132.754442" y="251.548414" style="fill: #808080; stroke: #000000"/>
    </g>
    <g clip-path="url(#p274f78e786)">
     <use xlink:href="#C0_0_0f2b8f1960" x="130.208923" y="262.066174" style="fill: #808080; stroke: #000000"/>
    </g>
    <g clip-path="url(#p274f78e786)">
     <use xlink:href="#C0_0_0f2b8f1960" x="133.390739" y="214.039294" style="fill: #808080; stroke: #000000"/>
    </g>
    <g clip-path="url(#p274f78e786)">
     <use xlink:href="#C0_0_0f2b8f1960" x="136.649205" y="241.790974" style="fill: #808080; stroke: #000000"/>
    </g>
    <g clip-path="url(#p274f78e786)">
     <use xlink:href="#C0_0_0f2b8f1960" x="128.228033" y="281.327614" style="fill: #808080; stroke: #000000"/>
    </g>
    <g clip-path="url(#p274f78e786)">
     <use xlink:href="#C0_0_0f2b8f1960" x="130.868332" y="263.840254" style="fill: #808080; stroke: #000000"/>
    </g>
    <g clip-path="url(#p274f78e786)">
     <use xlink:href="#C0_0_0f2b8f1960" x="130.212705" y="267.261694" style="fill: #808080; stroke: #000000"/>
    </g>
    <g clip-path="url(#p274f78e786)">
     <use xlink:href="#C0_0_0f2b8f1960" x="131.246345" y="271.823614" style="fill: #808080; stroke: #000000"/>
    </g>
    <g clip-path="url(#p274f78e786)">
     <use xlink:href="#C0_0_0f2b8f1960" x="131.516254" y="233.807614" style="fill: #808080; stroke: #000000"/>
    </g>
    <g clip-path="url(#p274f78e786)">
     <use xlink:href="#C0_0_0f2b8f1960" x="135.723205" y="281.961214" style="fill: #808080; stroke: #000000"/>
    </g>
    <g clip-path="url(#p274f78e786)">
     <use xlink:href="#C0_0_0f2b8f1960" x="131.8524" y="257.377534" style="fill: #808080; stroke: #000000"/>
    </g>
    <g clip-path="url(#p274f78e786)">
     <use xlink:href="#C0_0_0f2b8f1960" x="136.569636" y="222.909694" style="fill: #808080; stroke: #000000"/>
    </g>
    <g clip-path="url(#p274f78e786)">
     <use xlink:href="#C0_0_0f2b8f1960" x="121.994774" y="255.223294" style="fill: #808080; stroke: #000000"/>
    </g>
    <g clip-path="url(#p274f78e786)">
     <use xlink:href="#C0_0_0f2b8f1960" x="132.243238" y="248.507134" style="fill: #808080; stroke: #000000"/>
    </g>
    <g clip-path="url(#p274f78e786)">
     <use xlink:href="#C0_0_0f2b8f1960" x="133.97114" y="293.492734" style="fill: #808080; stroke: #000000"/>
    </g>
    <g clip-path="url(#p274f78e786)">
     <use xlink:href="#C0_0_0f2b8f1960" x="133.400031" y="278.666494" style="fill: #808080; stroke: #000000"/>
    </g>
    <g clip-path="url(#p274f78e786)">
     <use xlink:href="#C0_0_0f2b8f1960" x="120.602816" y="202.507774" style="fill: #808080; stroke: #000000"/>
    </g>
    <g clip-path="url(#p274f78e786)">
     <use xlink:href="#C0_0_0f2b8f1960" x="137.413628" y="282.848254" style="fill: #808080; stroke: #000000"/>
    </g>
    <g clip-path="url(#p274f78e786)">
     <use xlink:href="#C0_0_0f2b8f1960" x="133.981146" y="274.738174" style="fill: #808080; stroke: #000000"/>
    </g>
   </g>
   <g id="PathCollection_2">
    <defs>
     <path id="C1_0_c5de545d84" d="M 0 5 
C 1.326016 5 2.597899 4.473168 3.535534 3.535534 
C 4.473168 2.597899 5 1.326016 5 -0 
C 5 -1.326016 4.473168 -2.597899 3.535534 -3.535534 
C 2.597899 -4.473168 1.326016 -5 0 -5 
C -1.326016 -5 -2.597899 -4.473168 -3.535534 -3.535534 
C -4.473168 -2.597899 -5 -1.326016 -5 0 
C -5 1.326016 -4.473168 2.597899 -3.535534 3.535534 
C -2.597899 4.473168 -1.326016 5 0 5 
z
"/>
    </defs>
    <g clip-path="url(#p274f78e786)">
     <use xlink:href="#C1_0_c5de545d84" x="193.923166" y="280.187134" style="fill: #3386ff; stroke: #000000"/>
    </g>
    <g clip-path="url(#p274f78e786)">
     <use xlink:href="#C1_0_c5de545d84" x="200.002782" y="285.002494" style="fill: #3386ff; stroke: #000000"/>
    </g>
    <g clip-path="url(#p274f78e786)">
     <use xlink:href="#C1_0_c5de545d84" x="208.957818" y="134.839294" style="fill: #3386ff; stroke: #000000"/>
    </g>
    <g clip-path="url(#p274f78e786)">
     <use xlink:href="#C1_0_c5de545d84" x="208.028066" y="287.397502" style="fill: #3386ff; stroke: #000000"/>
    </g>
    <g clip-path="url(#p274f78e786)">
     <use xlink:href="#C1_0_c5de545d84" x="207.279191" y="261.432574" style="fill: #3386ff; stroke: #000000"/>
    </g>
    <g clip-path="url(#p274f78e786)">
     <use xlink:href="#C1_0_c5de545d84" x="207.817187" y="172.855294" style="fill: #3386ff; stroke: #000000"/>
    </g>
    <g clip-path="url(#p274f78e786)">
     <use xlink:href="#C1_0_c5de545d84" x="201.079029" y="288.119806" style="fill: #3386ff; stroke: #000000"/>
    </g>
    <g clip-path="url(#p274f78e786)">
     <use xlink:href="#C1_0_c5de545d84" x="206.614467" y="196.678654" style="fill: #3386ff; stroke: #000000"/>
    </g>
    <g clip-path="url(#p274f78e786)">
     <use xlink:href="#C1_0_c5de545d84" x="209.647356" y="224.176894" style="fill: #3386ff; stroke: #000000"/>
    </g>
    <g clip-path="url(#p274f78e786)">
     <use xlink:href="#C1_0_c5de545d84" x="203.945059" y="255.096574" style="fill: #3386ff; stroke: #000000"/>
    </g>
    <g clip-path="url(#p274f78e786)">
     <use xlink:href="#C1_0_c5de545d84" x="197.879099" y="284.749054" style="fill: #3386ff; stroke: #000000"/>
    </g>
    <g clip-path="url(#p274f78e786)">
     <use xlink:href="#C1_0_c5de545d84" x="205.350038" y="238.496254" style="fill: #3386ff; stroke: #000000"/>
    </g>
    <g clip-path="url(#p274f78e786)">
     <use xlink:href="#C1_0_c5de545d84" x="202.107438" y="162.717694" style="fill: #3386ff; stroke: #000000"/>
    </g>
    <g clip-path="url(#p274f78e786)">
     <use xlink:href="#C1_0_c5de545d84" x="203.802613" y="264.600574" style="fill: #3386ff; stroke: #000000"/>
    </g>
    <g clip-path="url(#p274f78e786)">
     <use xlink:href="#C1_0_c5de545d84" x="196.318197" y="185.780734" style="fill: #3386ff; stroke: #000000"/>
    </g>
    <g clip-path="url(#p274f78e786)">
     <use xlink:href="#C1_0_c5de545d84" x="205.454813" y="254.209534" style="fill: #3386ff; stroke: #000000"/>
    </g>
    <g clip-path="url(#p274f78e786)">
     <use xlink:href="#C1_0_c5de545d84" x="205.699146" y="184.640254" style="fill: #3386ff; stroke: #000000"/>
    </g>
    <g clip-path="url(#p274f78e786)">
     <use xlink:href="#C1_0_c5de545d84" x="197.109344" y="240.397054" style="fill: #3386ff; stroke: #000000"/>
    </g>
    <g clip-path="url(#p274f78e786)">
     <use xlink:href="#C1_0_c5de545d84" x="206.4363" y="187.808254" style="fill: #3386ff; stroke: #000000"/>
    </g>
    <g clip-path="url(#p274f78e786)">
     <use xlink:href="#C1_0_c5de545d84" x="198.585155" y="123.434494" style="fill: #3386ff; stroke: #000000"/>
    </g>
    <g clip-path="url(#p274f78e786)">
     <use xlink:href="#C1_0_c5de545d84" x="193.452485" y="139.908094" style="fill: #3386ff; stroke: #000000"/>
    </g>
    <g clip-path="url(#p274f78e786)">
     <use xlink:href="#C1_0_c5de545d84" x="202.807697" y="274.738174" style="fill: #3386ff; stroke: #000000"/>
    </g>
    <g clip-path="url(#p274f78e786)">
     <use xlink:href="#C1_0_c5de545d84" x="195.044375" y="201.747454" style="fill: #3386ff; stroke: #000000"/>
    </g>
    <g clip-path="url(#p274f78e786)">
     <use xlink:href="#C1_0_c5de545d84" x="193.518913" y="220.502014" style="fill: #3386ff; stroke: #000000"/>
    </g>
    <g clip-path="url(#p274f78e786)">
     <use xlink:href="#C1_0_c5de545d84" x="202.820235" y="197.692414" style="fill: #3386ff; stroke: #000000"/>
    </g>
    <g clip-path="url(#p274f78e786)">
     <use xlink:href="#C1_0_c5de545d84" x="205.141766" y="147.511294" style="fill: #3386ff; stroke: #000000"/>
    </g>
    <g clip-path="url(#p274f78e786)">
     <use xlink:href="#C1_0_c5de545d84" x="195.380778" y="275.245054" style="fill: #3386ff; stroke: #000000"/>
    </g>
    <g clip-path="url(#p274f78e786)">
     <use xlink:href="#C1_0_c5de545d84" x="202.187153" y="214.419454" style="fill: #3386ff; stroke: #000000"/>
    </g>
    <g clip-path="url(#p274f78e786)">
     <use xlink:href="#C1_0_c5de545d84" x="192.757716" y="182.232574" style="fill: #3386ff; stroke: #000000"/>
    </g>
   </g>
   <g id="PathCollection_3">
    <defs>
     <path id="C2_0_f0e5f0e916" d="M 0 5 
C 1.326016 5 2.597899 4.473168 3.535534 3.535534 
C 4.473168 2.597899 5 1.326016 5 -0 
C 5 -1.326016 4.473168 -2.597899 3.535534 -3.535534 
C 2.597899 -4.473168 1.326016 -5 0 -5 
C -1.326016 -5 -2.597899 -4.473168 -3.535534 -3.535534 
C -4.473168 -2.597899 -5 -1.326016 -5 0 
C -5 1.326016 -4.473168 2.597899 -3.535534 3.535534 
C -2.597899 4.473168 -1.326016 5 0 5 
z
"/>
    </defs>
    <g clip-path="url(#p274f78e786)">
     <use xlink:href="#C2_0_f0e5f0e916" x="313.280887" y="237.102334" style="fill: #808080; stroke: #000000"/>
    </g>
    <g clip-path="url(#p274f78e786)">
     <use xlink:href="#C2_0_f0e5f0e916" x="308.797952" y="218.981374" style="fill: #808080; stroke: #000000"/>
    </g>
    <g clip-path="url(#p274f78e786)">
     <use xlink:href="#C2_0_f0e5f0e916" x="313.256035" y="110.762494" style="fill: #808080; stroke: #000000"/>
    </g>
    <g clip-path="url(#p274f78e786)">
     <use xlink:href="#C2_0_f0e5f0e916" x="314.592094" y="150.045694" style="fill: #808080; stroke: #000000"/>
    </g>
    <g clip-path="url(#p274f78e786)">
     <use xlink:href="#C2_0_f0e5f0e916" x="305.261182" y="212.898814" style="fill: #808080; stroke: #000000"/>
    </g>
    <g clip-path="url(#p274f78e786)">
     <use xlink:href="#C2_0_f0e5f0e916" x="304.584248" y="110.762494" style="fill: #808080; stroke: #000000"/>
    </g>
    <g clip-path="url(#p274f78e786)">
     <use xlink:href="#C2_0_f0e5f0e916" x="305.129573" y="156.381694" style="fill: #808080; stroke: #000000"/>
    </g>
    <g clip-path="url(#p274f78e786)">
     <use xlink:href="#C2_0_f0e5f0e916" x="303.685967" y="205.168894" style="fill: #808080; stroke: #000000"/>
    </g>
    <g clip-path="url(#p274f78e786)">
     <use xlink:href="#C2_0_f0e5f0e916" x="299.443196" y="148.778494" style="fill: #808080; stroke: #000000"/>
    </g>
    <g clip-path="url(#p274f78e786)">
     <use xlink:href="#C2_0_f0e5f0e916" x="299.004469" y="178.430974" style="fill: #808080; stroke: #000000"/>
    </g>
    <g clip-path="url(#p274f78e786)">
     <use xlink:href="#C2_0_f0e5f0e916" x="303.633739" y="109.495294" style="fill: #808080; stroke: #000000"/>
    </g>
    <g clip-path="url(#p274f78e786)">
     <use xlink:href="#C2_0_f0e5f0e916" x="308.016541" y="223.289854" style="fill: #808080; stroke: #000000"/>
    </g>
    <g clip-path="url(#p274f78e786)">
     <use xlink:href="#C2_0_f0e5f0e916" x="299.066197" y="152.580094" style="fill: #808080; stroke: #000000"/>
    </g>
   </g>
   <g id="PathCollection_4">
    <defs>
     <path id="C3_0_07f54216f2" d="M 0 5 
C 1.326016 5 2.597899 4.473168 3.535534 3.535534 
C 4.473168 2.597899 5 1.326016 5 -0 
C 5 -1.326016 4.473168 -2.597899 3.535534 -3.535534 
C 2.597899 -4.473168 1.326016 -5 0 -5 
C -1.326016 -5 -2.597899 -4.473168 -3.535534 -3.535534 
C -4.473168 -2.597899 -5 -1.326016 -5 0 
C -5 1.326016 -4.473168 2.597899 -3.535534 3.535534 
C -2.597899 4.473168 -1.326016 5 0 5 
z
"/>
    </defs>
    <g clip-path="url(#p274f78e786)">
     <use xlink:href="#C3_0_07f54216f2" x="386.389528" y="142.442494" style="fill: #3386ff; stroke: #000000"/>
    </g>
    <g clip-path="url(#p274f78e786)">
     <use xlink:href="#C3_0_07f54216f2" x="384.279235" y="194.270974" style="fill: #3386ff; stroke: #000000"/>
    </g>
    <g clip-path="url(#p274f78e786)">
     <use xlink:href="#C3_0_07f54216f2" x="379.701115" y="234.567934" style="fill: #3386ff; stroke: #000000"/>
    </g>
    <g clip-path="url(#p274f78e786)">
     <use xlink:href="#C3_0_07f54216f2" x="381.581614" y="210.237694" style="fill: #3386ff; stroke: #000000"/>
    </g>
    <g clip-path="url(#p274f78e786)">
     <use xlink:href="#C3_0_07f54216f2" x="381.171551" y="206.942974" style="fill: #3386ff; stroke: #000000"/>
    </g>
    <g clip-path="url(#p274f78e786)">
     <use xlink:href="#C3_0_07f54216f2" x="372.30243" y="213.405694" style="fill: #3386ff; stroke: #000000"/>
    </g>
    <g clip-path="url(#p274f78e786)">
     <use xlink:href="#C3_0_07f54216f2" x="374.265572" y="189.582334" style="fill: #3386ff; stroke: #000000"/>
    </g>
    <g clip-path="url(#p274f78e786)">
     <use xlink:href="#C3_0_07f54216f2" x="379.444525" y="160.183294" style="fill: #3386ff; stroke: #000000"/>
    </g>
    <g clip-path="url(#p274f78e786)">
     <use xlink:href="#C3_0_07f54216f2" x="379.056257" y="212.645374" style="fill: #3386ff; stroke: #000000"/>
    </g>
    <g clip-path="url(#p274f78e786)">
     <use xlink:href="#C3_0_07f54216f2" x="382.338224" y="150.045694" style="fill: #3386ff; stroke: #000000"/>
    </g>
    <g clip-path="url(#p274f78e786)">
     <use xlink:href="#C3_0_07f54216f2" x="373.825089" y="160.183294" style="fill: #3386ff; stroke: #000000"/>
    </g>
    <g clip-path="url(#p274f78e786)">
     <use xlink:href="#C3_0_07f54216f2" x="370.43815" y="262.066174" style="fill: #3386ff; stroke: #000000"/>
    </g>
    <g clip-path="url(#p274f78e786)">
     <use xlink:href="#C3_0_07f54216f2" x="387.161515" y="261.812734" style="fill: #3386ff; stroke: #000000"/>
    </g>
    <g clip-path="url(#p274f78e786)">
     <use xlink:href="#C3_0_07f54216f2" x="379.241202" y="148.778494" style="fill: #3386ff; stroke: #000000"/>
    </g>
    <g clip-path="url(#p274f78e786)">
     <use xlink:href="#C3_0_07f54216f2" x="373.514089" y="103.159294" style="fill: #3386ff; stroke: #000000"/>
    </g>
    <g clip-path="url(#p274f78e786)">
     <use xlink:href="#C3_0_07f54216f2" x="380.374911" y="100.624894" style="fill: #3386ff; stroke: #000000"/>
    </g>
    <g clip-path="url(#p274f78e786)">
     <use xlink:href="#C3_0_07f54216f2" x="385.090319" y="134.839294" style="fill: #3386ff; stroke: #000000"/>
    </g>
    <g clip-path="url(#p274f78e786)">
     <use xlink:href="#C3_0_07f54216f2" x="382.465471" y="215.813374" style="fill: #3386ff; stroke: #000000"/>
    </g>
   </g>
   <g id="line2d_34"/>
   <g id="line2d_35"/>
   <g id="text_11">
    <!-- p-val = 0.001 -->
    <g transform="translate(131.069844 110.762494) scale(0.1 -0.1)">
     <defs>
      <path id="DejaVuSans-70" d="M 1159 525 
L 1159 -1331 
L 581 -1331 
L 581 3500 
L 1159 3500 
L 1159 2969 
Q 1341 3281 1617 3432 
Q 1894 3584 2278 3584 
Q 2916 3584 3314 3078 
Q 3713 2572 3713 1747 
Q 3713 922 3314 415 
Q 2916 -91 2278 -91 
Q 1894 -91 1617 61 
Q 1341 213 1159 525 
z
M 3116 1747 
Q 3116 2381 2855 2742 
Q 2594 3103 2138 3103 
Q 1681 3103 1420 2742 
Q 1159 2381 1159 1747 
Q 1159 1113 1420 752 
Q 1681 391 2138 391 
Q 2594 391 2855 752 
Q 3116 1113 3116 1747 
z
" transform="scale(0.015625)"/>
      <path id="DejaVuSans-2d" d="M 313 2009 
L 1997 2009 
L 1997 1497 
L 313 1497 
L 313 2009 
z
" transform="scale(0.015625)"/>
      <path id="DejaVuSans-76" d="M 191 3500 
L 800 3500 
L 1894 563 
L 2988 3500 
L 3597 3500 
L 2284 0 
L 1503 0 
L 191 3500 
z
" transform="scale(0.015625)"/>
      <path id="DejaVuSans-61" d="M 2194 1759 
Q 1497 1759 1228 1600 
Q 959 1441 959 1056 
Q 959 750 1161 570 
Q 1363 391 1709 391 
Q 2188 391 2477 730 
Q 2766 1069 2766 1631 
L 2766 1759 
L 2194 1759 
z
M 3341 1997 
L 3341 0 
L 2766 0 
L 2766 531 
Q 2569 213 2275 61 
Q 1981 -91 1556 -91 
Q 1019 -91 701 211 
Q 384 513 384 1019 
Q 384 1609 779 1909 
Q 1175 2209 1959 2209 
L 2766 2209 
L 2766 2266 
Q 2766 2663 2505 2880 
Q 2244 3097 1772 3097 
Q 1472 3097 1187 3025 
Q 903 2953 641 2809 
L 641 3341 
Q 956 3463 1253 3523 
Q 1550 3584 1831 3584 
Q 2591 3584 2966 3190 
Q 3341 2797 3341 1997 
z
" transform="scale(0.015625)"/>
      <path id="DejaVuSans-20" transform="scale(0.015625)"/>
      <path id="DejaVuSans-3d" d="M 678 2906 
L 4684 2906 
L 4684 2381 
L 678 2381 
L 678 2906 
z
M 678 1631 
L 4684 1631 
L 4684 1100 
L 678 1100 
L 678 1631 
z
" transform="scale(0.015625)"/>
      <path id="DejaVuSans-2e" d="M 684 794 
L 1344 794 
L 1344 0 
L 684 0 
L 684 794 
z
" transform="scale(0.015625)"/>
     </defs>
     <use xlink:href="#DejaVuSans-70"/>
     <use xlink:href="#DejaVuSans-2d" x="63.476562"/>
     <use xlink:href="#DejaVuSans-76" x="96.935547"/>
     <use xlink:href="#DejaVuSans-61" x="156.115234"/>
     <use xlink:href="#DejaVuSans-6c" x="217.394531"/>
     <use xlink:href="#DejaVuSans-20" x="245.177734"/>
     <use xlink:href="#DejaVuSans-3d" x="276.964844"/>
     <use xlink:href="#DejaVuSans-20" x="360.753906"/>
     <use xlink:href="#DejaVuSans-30" x="392.541016"/>
     <use xlink:href="#DejaVuSans-2e" x="456.164062"/>
     <use xlink:href="#DejaVuSans-30" x="487.951172"/>
     <use xlink:href="#DejaVuSans-30" x="551.574219"/>
     <use xlink:href="#DejaVuSans-31" x="615.197266"/>
    </g>
   </g>
   <g id="text_12">
    <!-- p-val = 0.449 -->
    <g transform="translate(309.629844 87.952894) scale(0.1 -0.1)">
     <defs>
      <path id="DejaVuSans-34" d="M 2419 4116 
L 825 1625 
L 2419 1625 
L 2419 4116 
z
M 2253 4666 
L 3047 4666 
L 3047 1625 
L 3713 1625 
L 3713 1100 
L 3047 1100 
L 3047 0 
L 2419 0 
L 2419 1100 
L 313 1100 
L 313 1709 
L 2253 4666 
z
" transform="scale(0.015625)"/>
     </defs>
     <use xlink:href="#DejaVuSans-70"/>
     <use xlink:href="#DejaVuSans-2d" x="63.476562"/>
     <use xlink:href="#DejaVuSans-76" x="96.935547"/>
     <use xlink:href="#DejaVuSans-61" x="156.115234"/>
     <use xlink:href="#DejaVuSans-6c" x="217.394531"/>
     <use xlink:href="#DejaVuSans-20" x="245.177734"/>
     <use xlink:href="#DejaVuSans-3d" x="276.964844"/>
     <use xlink:href="#DejaVuSans-20" x="360.753906"/>
     <use xlink:href="#DejaVuSans-30" x="392.541016"/>
     <use xlink:href="#DejaVuSans-2e" x="456.164062"/>
     <use xlink:href="#DejaVuSans-34" x="487.951172"/>
     <use xlink:href="#DejaVuSans-34" x="551.574219"/>
     <use xlink:href="#DejaVuSans-39" x="615.197266"/>
    </g>
   </g>
   <g id="text_13">
    <!-- Movement Angle -->
    <g transform="translate(135.625234 26.196094) scale(0.25 -0.25)">
     <defs>
      <path id="DejaVuSans-Bold-4d" d="M 588 4666 
L 2119 4666 
L 3181 2169 
L 4250 4666 
L 5778 4666 
L 5778 0 
L 4641 0 
L 4641 3413 
L 3566 897 
L 2803 897 
L 1728 3413 
L 1728 0 
L 588 0 
L 588 4666 
z
" transform="scale(0.015625)"/>
      <path id="DejaVuSans-Bold-6f" d="M 2203 2784 
Q 1831 2784 1636 2517 
Q 1441 2250 1441 1747 
Q 1441 1244 1636 976 
Q 1831 709 2203 709 
Q 2569 709 2762 976 
Q 2956 1244 2956 1747 
Q 2956 2250 2762 2517 
Q 2569 2784 2203 2784 
z
M 2203 3584 
Q 3106 3584 3614 3096 
Q 4122 2609 4122 1747 
Q 4122 884 3614 396 
Q 3106 -91 2203 -91 
Q 1297 -91 786 396 
Q 275 884 275 1747 
Q 275 2609 786 3096 
Q 1297 3584 2203 3584 
z
" transform="scale(0.015625)"/>
      <path id="DejaVuSans-Bold-76" d="M 97 3500 
L 1216 3500 
L 2088 1081 
L 2956 3500 
L 4078 3500 
L 2700 0 
L 1472 0 
L 97 3500 
z
" transform="scale(0.015625)"/>
      <path id="DejaVuSans-Bold-65" d="M 4031 1759 
L 4031 1441 
L 1416 1441 
Q 1456 1047 1700 850 
Q 1944 653 2381 653 
Q 2734 653 3104 758 
Q 3475 863 3866 1075 
L 3866 213 
Q 3469 63 3072 -14 
Q 2675 -91 2278 -91 
Q 1328 -91 801 392 
Q 275 875 275 1747 
Q 275 2603 792 3093 
Q 1309 3584 2216 3584 
Q 3041 3584 3536 3087 
Q 4031 2591 4031 1759 
z
M 2881 2131 
Q 2881 2450 2695 2645 
Q 2509 2841 2209 2841 
Q 1884 2841 1681 2658 
Q 1478 2475 1428 2131 
L 2881 2131 
z
" transform="scale(0.015625)"/>
      <path id="DejaVuSans-Bold-6d" d="M 3781 2919 
Q 3994 3244 4286 3414 
Q 4578 3584 4928 3584 
Q 5531 3584 5847 3212 
Q 6163 2841 6163 2131 
L 6163 0 
L 5038 0 
L 5038 1825 
Q 5041 1866 5042 1909 
Q 5044 1953 5044 2034 
Q 5044 2406 4934 2573 
Q 4825 2741 4581 2741 
Q 4263 2741 4089 2478 
Q 3916 2216 3909 1719 
L 3909 0 
L 2784 0 
L 2784 1825 
Q 2784 2406 2684 2573 
Q 2584 2741 2328 2741 
Q 2006 2741 1831 2477 
Q 1656 2213 1656 1722 
L 1656 0 
L 531 0 
L 531 3500 
L 1656 3500 
L 1656 2988 
Q 1863 3284 2130 3434 
Q 2397 3584 2719 3584 
Q 3081 3584 3359 3409 
Q 3638 3234 3781 2919 
z
" transform="scale(0.015625)"/>
      <path id="DejaVuSans-Bold-6e" d="M 4056 2131 
L 4056 0 
L 2931 0 
L 2931 347 
L 2931 1631 
Q 2931 2084 2911 2256 
Q 2891 2428 2841 2509 
Q 2775 2619 2662 2680 
Q 2550 2741 2406 2741 
Q 2056 2741 1856 2470 
Q 1656 2200 1656 1722 
L 1656 0 
L 538 0 
L 538 3500 
L 1656 3500 
L 1656 2988 
Q 1909 3294 2193 3439 
Q 2478 3584 2822 3584 
Q 3428 3584 3742 3212 
Q 4056 2841 4056 2131 
z
" transform="scale(0.015625)"/>
      <path id="DejaVuSans-Bold-74" d="M 1759 4494 
L 1759 3500 
L 2913 3500 
L 2913 2700 
L 1759 2700 
L 1759 1216 
Q 1759 972 1856 886 
Q 1953 800 2241 800 
L 2816 800 
L 2816 0 
L 1856 0 
Q 1194 0 917 276 
Q 641 553 641 1216 
L 641 2700 
L 84 2700 
L 84 3500 
L 641 3500 
L 641 4494 
L 1759 4494 
z
" transform="scale(0.015625)"/>
      <path id="DejaVuSans-Bold-20" transform="scale(0.015625)"/>
      <path id="DejaVuSans-Bold-41" d="M 3419 850 
L 1538 850 
L 1241 0 
L 31 0 
L 1759 4666 
L 3194 4666 
L 4922 0 
L 3713 0 
L 3419 850 
z
M 1838 1716 
L 3116 1716 
L 2478 3572 
L 1838 1716 
z
" transform="scale(0.015625)"/>
      <path id="DejaVuSans-Bold-67" d="M 2919 594 
Q 2688 288 2409 144 
Q 2131 0 1766 0 
Q 1125 0 706 504 
Q 288 1009 288 1791 
Q 288 2575 706 3076 
Q 1125 3578 1766 3578 
Q 2131 3578 2409 3434 
Q 2688 3291 2919 2981 
L 2919 3500 
L 4044 3500 
L 4044 353 
Q 4044 -491 3511 -936 
Q 2978 -1381 1966 -1381 
Q 1638 -1381 1331 -1331 
Q 1025 -1281 716 -1178 
L 716 -306 
Q 1009 -475 1290 -558 
Q 1572 -641 1856 -641 
Q 2406 -641 2662 -400 
Q 2919 -159 2919 353 
L 2919 594 
z
M 2181 2772 
Q 1834 2772 1640 2515 
Q 1447 2259 1447 1791 
Q 1447 1309 1634 1061 
Q 1822 813 2181 813 
Q 2531 813 2725 1069 
Q 2919 1325 2919 1791 
Q 2919 2259 2725 2515 
Q 2531 2772 2181 2772 
z
" transform="scale(0.015625)"/>
      <path id="DejaVuSans-Bold-6c" d="M 538 4863 
L 1656 4863 
L 1656 0 
L 538 0 
L 538 4863 
z
" transform="scale(0.015625)"/>
     </defs>
     <use xlink:href="#DejaVuSans-Bold-4d"/>
     <use xlink:href="#DejaVuSans-Bold-6f" x="99.511719"/>
     <use xlink:href="#DejaVuSans-Bold-76" x="168.212891"/>
     <use xlink:href="#DejaVuSans-Bold-65" x="233.398438"/>
     <use xlink:href="#DejaVuSans-Bold-6d" x="301.220703"/>
     <use xlink:href="#DejaVuSans-Bold-65" x="405.419922"/>
     <use xlink:href="#DejaVuSans-Bold-6e" x="473.242188"/>
     <use xlink:href="#DejaVuSans-Bold-74" x="544.433594"/>
     <use xlink:href="#DejaVuSans-Bold-20" x="592.236328"/>
     <use xlink:href="#DejaVuSans-Bold-41" x="627.050781"/>
     <use xlink:href="#DejaVuSans-Bold-6e" x="704.443359"/>
     <use xlink:href="#DejaVuSans-Bold-67" x="775.634766"/>
     <use xlink:href="#DejaVuSans-Bold-6c" x="847.216797"/>
     <use xlink:href="#DejaVuSans-Bold-65" x="881.494141"/>
    </g>
   </g>
   <g id="legend_1">
    <g id="patch_11">
     <path d="M 82.73125 69.552344 
L 147.032813 69.552344 
Q 149.032813 69.552344 149.032813 67.552344 
L 149.032813 39.196094 
Q 149.032813 37.196094 147.032813 37.196094 
L 82.73125 37.196094 
Q 80.73125 37.196094 80.73125 39.196094 
L 80.73125 67.552344 
Q 80.73125 69.552344 82.73125 69.552344 
z
" style="fill: #ffffff; opacity: 0.8; stroke: #cccccc; stroke-linejoin: miter"/>
    </g>
    <g id="line2d_36">
     <defs>
      <path id="m95f45b7e66" d="M 0 5 
C 1.326016 5 2.597899 4.473168 3.535534 3.535534 
C 4.473168 2.597899 5 1.326016 5 0 
C 5 -1.326016 4.473168 -2.597899 3.535534 -3.535534 
C 2.597899 -4.473168 1.326016 -5 0 -5 
C -1.326016 -5 -2.597899 -4.473168 -3.535534 -3.535534 
C -4.473168 -2.597899 -5 -1.326016 -5 0 
C -5 1.326016 -4.473168 2.597899 -3.535534 3.535534 
C -2.597899 4.473168 -1.326016 5 0 5 
z
" style="stroke: #000000"/>
     </defs>
     <g>
      <use xlink:href="#m95f45b7e66" x="94.73125" y="45.294531" style="fill: #808080; stroke: #000000"/>
     </g>
    </g>
    <g id="text_14">
     <!-- WT -->
     <g transform="translate(112.73125 48.794531) scale(0.1 -0.1)">
      <defs>
       <path id="DejaVuSans-57" d="M 213 4666 
L 850 4666 
L 1831 722 
L 2809 4666 
L 3519 4666 
L 4500 722 
L 5478 4666 
L 6119 4666 
L 4947 0 
L 4153 0 
L 3169 4050 
L 2175 0 
L 1381 0 
L 213 4666 
z
" transform="scale(0.015625)"/>
       <path id="DejaVuSans-54" d="M -19 4666 
L 3928 4666 
L 3928 4134 
L 2272 4134 
L 2272 0 
L 1638 0 
L 1638 4134 
L -19 4134 
L -19 4666 
z
" transform="scale(0.015625)"/>
      </defs>
      <use xlink:href="#DejaVuSans-57"/>
      <use xlink:href="#DejaVuSans-54" x="98.876953"/>
     </g>
    </g>
    <g id="line2d_37">
     <defs>
      <path id="md1a09618da" d="M 0 5 
C 1.326016 5 2.597899 4.473168 3.535534 3.535534 
C 4.473168 2.597899 5 1.326016 5 0 
C 5 -1.326016 4.473168 -2.597899 3.535534 -3.535534 
C 2.597899 -4.473168 1.326016 -5 0 -5 
C -1.326016 -5 -2.597899 -4.473168 -3.535534 -3.535534 
C -4.473168 -2.597899 -5 -1.326016 -5 0 
C -5 1.326016 -4.473168 2.597899 -3.535534 3.535534 
C -2.597899 4.473168 -1.326016 5 0 5 
z
" style="stroke: #000000"/>
     </defs>
     <g>
      <use xlink:href="#md1a09618da" x="94.73125" y="59.972656" style="fill: #3386ff; stroke: #000000"/>
     </g>
    </g>
    <g id="text_15">
     <!-- PP4KO -->
     <g transform="translate(112.73125 63.472656) scale(0.1 -0.1)">
      <defs>
       <path id="DejaVuSans-50" d="M 1259 4147 
L 1259 2394 
L 2053 2394 
Q 2494 2394 2734 2622 
Q 2975 2850 2975 3272 
Q 2975 3691 2734 3919 
Q 2494 4147 2053 4147 
L 1259 4147 
z
M 628 4666 
L 2053 4666 
Q 2838 4666 3239 4311 
Q 3641 3956 3641 3272 
Q 3641 2581 3239 2228 
Q 2838 1875 2053 1875 
L 1259 1875 
L 1259 0 
L 628 0 
L 628 4666 
z
" transform="scale(0.015625)"/>
       <path id="DejaVuSans-4b" d="M 628 4666 
L 1259 4666 
L 1259 2694 
L 3353 4666 
L 4166 4666 
L 1850 2491 
L 4331 0 
L 3500 0 
L 1259 2247 
L 1259 0 
L 628 0 
L 628 4666 
z
" transform="scale(0.015625)"/>
       <path id="DejaVuSans-4f" d="M 2522 4238 
Q 1834 4238 1429 3725 
Q 1025 3213 1025 2328 
Q 1025 1447 1429 934 
Q 1834 422 2522 422 
Q 3209 422 3611 934 
Q 4013 1447 4013 2328 
Q 4013 3213 3611 3725 
Q 3209 4238 2522 4238 
z
M 2522 4750 
Q 3503 4750 4090 4092 
Q 4678 3434 4678 2328 
Q 4678 1225 4090 567 
Q 3503 -91 2522 -91 
Q 1538 -91 948 565 
Q 359 1222 359 2328 
Q 359 3434 948 4092 
Q 1538 4750 2522 4750 
z
" transform="scale(0.015625)"/>
      </defs>
      <use xlink:href="#DejaVuSans-50"/>
      <use xlink:href="#DejaVuSans-50" x="60.302734"/>
      <use xlink:href="#DejaVuSans-34" x="120.605469"/>
      <use xlink:href="#DejaVuSans-4b" x="184.228516"/>
      <use xlink:href="#DejaVuSans-4f" x="244.304688"/>
     </g>
    </g>
   </g>
  </g>
 </g>
 <defs>
  <clipPath id="p274f78e786">
   <rect x="75.73125" y="32.196094" width="357.12" height="266.112"/>
  </clipPath>
 </defs>
</svg>
