<?xml version="1.0" encoding="utf-8" standalone="no"?>
<!DOCTYPE svg PUBLIC "-//W3C//DTD SVG 1.1//EN"
  "http://www.w3.org/Graphics/SVG/1.1/DTD/svg11.dtd">
<svg xmlns:xlink="http://www.w3.org/1999/xlink" width="934.49375pt" height="482.412557pt" viewBox="0 0 934.49375 482.412557" xmlns="http://www.w3.org/2000/svg" version="1.1">
 <metadata>
  <rdf:RDF xmlns:dc="http://purl.org/dc/elements/1.1/" xmlns:cc="http://creativecommons.org/ns#" xmlns:rdf="http://www.w3.org/1999/02/22-rdf-syntax-ns#">
   <cc:Work>
    <dc:type rdf:resource="http://purl.org/dc/dcmitype/StillImage"/>
    <dc:date>2024-12-18T14:01:01.521501</dc:date>
    <dc:format>image/svg+xml</dc:format>
    <dc:creator>
     <cc:Agent>
      <dc:title>Matplotlib v3.7.2, https://matplotlib.org/</dc:title>
     </cc:Agent>
    </dc:creator>
   </cc:Work>
  </rdf:RDF>
 </metadata>
 <defs>
  <style type="text/css">*{stroke-linejoin: round; stroke-linecap: butt}</style>
 </defs>
 <g id="figure_1">
  <g id="patch_1">
   <path d="M 0 482.412557 
L 934.49375 482.412557 
L 934.49375 0 
L 0 0 
z
" style="fill: #ffffff"/>
  </g>
  <g id="axes_1">
   <g id="patch_2">
    <path d="M 413.018182 251.044872 
C 413.018182 224.399094 407.769545 198.012413 397.572647 173.394925 
C 387.375749 148.777436 372.428895 126.407888 353.587485 107.566478 
C 334.746075 88.725068 312.376527 73.778214 287.759038 63.581316 
C 263.14155 53.384418 236.754869 48.135781 210.109091 48.135781 
C 183.463313 48.135781 157.076632 53.384418 132.459144 63.581316 
C 107.841655 73.778214 85.472107 88.725068 66.630697 107.566478 
C 47.789287 126.407888 32.842433 148.777436 22.645535 173.394925 
C 12.448637 198.012413 7.2 224.399094 7.2 251.044872 
C 7.2 277.69065 12.448637 304.077331 22.645535 328.69482 
C 32.842433 353.312308 47.789287 375.681856 66.630697 394.523266 
C 85.472107 413.364676 107.841655 428.311531 132.459144 438.508428 
C 157.076632 448.705326 183.463313 453.953963 210.109091 453.953963 
C 236.754869 453.953963 263.14155 448.705326 287.759038 438.508428 
C 312.376527 428.311531 334.746075 413.364676 353.587485 394.523266 
C 372.428895 375.681856 387.375749 353.312308 397.572647 328.69482 
C 407.769545 304.077331 413.018182 277.69065 413.018182 251.044872 
M 210.109091 251.044872 
C 210.109091 251.044872 210.109091 251.044872 210.109091 251.044872 
C 210.109091 251.044872 210.109091 251.044872 210.109091 251.044872 
C 210.109091 251.044872 210.109091 251.044872 210.109091 251.044872 
C 210.109091 251.044872 210.109091 251.044872 210.109091 251.044872 
C 210.109091 251.044872 210.109091 251.044872 210.109091 251.044872 
C 210.109091 251.044872 210.109091 251.044872 210.109091 251.044872 
C 210.109091 251.044872 210.109091 251.044872 210.109091 251.044872 
C 210.109091 251.044872 210.109091 251.044872 210.109091 251.044872 
C 210.109091 251.044872 210.109091 251.044872 210.109091 251.044872 
C 210.109091 251.044872 210.109091 251.044872 210.109091 251.044872 
C 210.109091 251.044872 210.109091 251.044872 210.109091 251.044872 
C 210.109091 251.044872 210.109091 251.044872 210.109091 251.044872 
C 210.109091 251.044872 210.109091 251.044872 210.109091 251.044872 
C 210.109091 251.044872 210.109091 251.044872 210.109091 251.044872 
C 210.109091 251.044872 210.109091 251.044872 210.109091 251.044872 
C 210.109091 251.044872 210.109091 251.044872 210.109091 251.044872 
z
" style="fill: #ffffff"/>
   </g>
   <g id="PathCollection_1">
    <defs>
     <path id="m8e6accc041" d="M 0 7.071068 
C 1.875269 7.071068 3.673985 6.326016 5 5 
C 6.326016 3.673985 7.071068 1.875269 7.071068 0 
C 7.071068 -1.875269 6.326016 -3.673985 5 -5 
C 3.673985 -6.326016 1.875269 -7.071068 0 -7.071068 
C -1.875269 -7.071068 -3.673985 -6.326016 -5 -5 
C -6.326016 -3.673985 -7.071068 -1.875269 -7.071068 0 
C -7.071068 1.875269 -6.326016 3.673985 -5 5 
C -3.673985 6.326016 -1.875269 7.071068 0 7.071068 
z
" style="stroke: #000000; stroke-opacity: 0.75"/>
    </defs>
    <g clip-path="url(#p6827aeb424)">
     <use xlink:href="#m8e6accc041" x="276.927446" y="169.987725" style="fill: #008000; fill-opacity: 0.75; stroke: #000000; stroke-opacity: 0.75"/>
    </g>
   </g>
   <g id="PathCollection_2">
    <g clip-path="url(#p6827aeb424)">
     <use xlink:href="#m8e6accc041" x="269.927341" y="168.712114" style="fill: #008000; fill-opacity: 0.75; stroke: #000000; stroke-opacity: 0.75"/>
    </g>
   </g>
   <g id="PathCollection_3">
    <g clip-path="url(#p6827aeb424)">
     <use xlink:href="#m8e6accc041" x="310.217279" y="117.713284" style="fill: #008000; fill-opacity: 0.75; stroke: #000000; stroke-opacity: 0.75"/>
    </g>
   </g>
   <g id="PathCollection_4">
    <g clip-path="url(#p6827aeb424)">
     <use xlink:href="#m8e6accc041" x="259.04724" y="161.285957" style="fill: #008000; fill-opacity: 0.75; stroke: #000000; stroke-opacity: 0.75"/>
    </g>
   </g>
   <g id="PathCollection_5">
    <g clip-path="url(#p6827aeb424)">
     <use xlink:href="#m8e6accc041" x="304.188226" y="210.1381" style="fill: #008000; fill-opacity: 0.75; stroke: #000000; stroke-opacity: 0.75"/>
    </g>
   </g>
   <g id="PathCollection_6">
    <g clip-path="url(#p6827aeb424)">
     <use xlink:href="#m8e6accc041" x="284.450765" y="175.657878" style="fill: #008000; fill-opacity: 0.75; stroke: #000000; stroke-opacity: 0.75"/>
    </g>
   </g>
   <g id="PathCollection_7">
    <g clip-path="url(#p6827aeb424)">
     <use xlink:href="#m8e6accc041" x="240.971539" y="121.497873" style="fill: #008000; fill-opacity: 0.75; stroke: #000000; stroke-opacity: 0.75"/>
    </g>
   </g>
   <g id="PathCollection_8">
    <g clip-path="url(#p6827aeb424)">
     <use xlink:href="#m8e6accc041" x="281.213679" y="112.690308" style="fill: #008000; fill-opacity: 0.75; stroke: #000000; stroke-opacity: 0.75"/>
    </g>
   </g>
   <g id="PathCollection_9">
    <g clip-path="url(#p6827aeb424)">
     <use xlink:href="#m8e6accc041" x="268.043394" y="123.919646" style="fill: #008000; fill-opacity: 0.75; stroke: #000000; stroke-opacity: 0.75"/>
    </g>
   </g>
   <g id="PathCollection_10">
    <g clip-path="url(#p6827aeb424)">
     <use xlink:href="#m8e6accc041" x="262.994194" y="112.552478" style="fill: #008000; fill-opacity: 0.75; stroke: #000000; stroke-opacity: 0.75"/>
    </g>
   </g>
   <g id="PathCollection_11">
    <g clip-path="url(#p6827aeb424)">
     <use xlink:href="#m8e6accc041" x="291.291987" y="185.069322" style="fill: #008000; fill-opacity: 0.75; stroke: #000000; stroke-opacity: 0.75"/>
    </g>
   </g>
   <g id="PathCollection_12">
    <g clip-path="url(#p6827aeb424)">
     <use xlink:href="#m8e6accc041" x="243.190442" y="106.604108" style="fill: #008000; fill-opacity: 0.75; stroke: #000000; stroke-opacity: 0.75"/>
    </g>
   </g>
   <g id="PathCollection_13">
    <g clip-path="url(#p6827aeb424)">
     <use xlink:href="#m8e6accc041" x="286.45611" y="130.27583" style="fill: #008000; fill-opacity: 0.75; stroke: #000000; stroke-opacity: 0.75"/>
    </g>
   </g>
   <g id="PathCollection_14">
    <defs>
     <path id="m497f20febc" d="M 0 7.071068 
C 1.875269 7.071068 3.673985 6.326016 5 5 
C 6.326016 3.673985 7.071068 1.875269 7.071068 0 
C 7.071068 -1.875269 6.326016 -3.673985 5 -5 
C 3.673985 -6.326016 1.875269 -7.071068 0 -7.071068 
C -1.875269 -7.071068 -3.673985 -6.326016 -5 -5 
C -6.326016 -3.673985 -7.071068 -1.875269 -7.071068 0 
C -7.071068 1.875269 -6.326016 3.673985 -5 5 
C -3.673985 6.326016 -1.875269 7.071068 0 7.071068 
z
" style="stroke: #000000; stroke-opacity: 0.75"/>
    </defs>
    <g clip-path="url(#p6827aeb424)">
     <use xlink:href="#m497f20febc" x="315.669364" y="156.9941" style="fill: #ff00ff; fill-opacity: 0.75; stroke: #000000; stroke-opacity: 0.75"/>
    </g>
   </g>
   <g id="PathCollection_15">
    <g clip-path="url(#p6827aeb424)">
     <use xlink:href="#m497f20febc" x="306.506133" y="201.077392" style="fill: #ff00ff; fill-opacity: 0.75; stroke: #000000; stroke-opacity: 0.75"/>
    </g>
   </g>
   <g id="PathCollection_16">
    <g clip-path="url(#p6827aeb424)">
     <use xlink:href="#m497f20febc" x="268.752884" y="344.894559" style="fill: #ff00ff; fill-opacity: 0.75; stroke: #000000; stroke-opacity: 0.75"/>
    </g>
   </g>
   <g id="PathCollection_17">
    <g clip-path="url(#p6827aeb424)">
     <use xlink:href="#m497f20febc" x="329.440779" y="311.847404" style="fill: #ff00ff; fill-opacity: 0.75; stroke: #000000; stroke-opacity: 0.75"/>
    </g>
   </g>
   <g id="PathCollection_18">
    <g clip-path="url(#p6827aeb424)">
     <use xlink:href="#m497f20febc" x="325.118042" y="203.171266" style="fill: #ff00ff; fill-opacity: 0.75; stroke: #000000; stroke-opacity: 0.75"/>
    </g>
   </g>
   <g id="PathCollection_19">
    <g clip-path="url(#p6827aeb424)">
     <use xlink:href="#m497f20febc" x="268.897406" y="345.125843" style="fill: #ff00ff; fill-opacity: 0.75; stroke: #000000; stroke-opacity: 0.75"/>
    </g>
   </g>
   <g id="PathCollection_20">
    <g clip-path="url(#p6827aeb424)">
     <use xlink:href="#m497f20febc" x="357.455161" y="310.576549" style="fill: #ff00ff; fill-opacity: 0.75; stroke: #000000; stroke-opacity: 0.75"/>
    </g>
   </g>
   <g id="PathCollection_21">
    <g clip-path="url(#p6827aeb424)">
     <use xlink:href="#m497f20febc" x="325.2999" y="216.9238" style="fill: #ff00ff; fill-opacity: 0.75; stroke: #000000; stroke-opacity: 0.75"/>
    </g>
   </g>
   <g id="PathCollection_22">
    <g clip-path="url(#p6827aeb424)">
     <use xlink:href="#m497f20febc" x="319.115941" y="309.004843" style="fill: #ff00ff; fill-opacity: 0.75; stroke: #000000; stroke-opacity: 0.75"/>
    </g>
   </g>
   <g id="PathCollection_23">
    <g clip-path="url(#p6827aeb424)">
     <use xlink:href="#m497f20febc" x="326.758802" y="260.430285" style="fill: #ff00ff; fill-opacity: 0.75; stroke: #000000; stroke-opacity: 0.75"/>
    </g>
   </g>
   <g id="PathCollection_24">
    <g clip-path="url(#p6827aeb424)">
     <use xlink:href="#m497f20febc" x="264.764003" y="342.005921" style="fill: #ff00ff; fill-opacity: 0.75; stroke: #000000; stroke-opacity: 0.75"/>
    </g>
   </g>
   <g id="PathCollection_25">
    <g clip-path="url(#p6827aeb424)">
     <use xlink:href="#m497f20febc" x="324.196655" y="183.035035" style="fill: #ff00ff; fill-opacity: 0.75; stroke: #000000; stroke-opacity: 0.75"/>
    </g>
   </g>
   <g id="PathCollection_26">
    <g clip-path="url(#p6827aeb424)">
     <use xlink:href="#m497f20febc" x="330.455668" y="307.163403" style="fill: #ff00ff; fill-opacity: 0.75; stroke: #000000; stroke-opacity: 0.75"/>
    </g>
   </g>
   <g id="PathCollection_27">
    <g clip-path="url(#p6827aeb424)">
     <use xlink:href="#m8e6accc041" x="331.383896" y="179.608552" style="fill: #008000; fill-opacity: 0.75; stroke: #000000; stroke-opacity: 0.75"/>
    </g>
   </g>
   <g id="PathCollection_28">
    <g clip-path="url(#p6827aeb424)">
     <use xlink:href="#m8e6accc041" x="278.260131" y="150.0068" style="fill: #008000; fill-opacity: 0.75; stroke: #000000; stroke-opacity: 0.75"/>
    </g>
   </g>
   <g id="PathCollection_29">
    <g clip-path="url(#p6827aeb424)">
     <use xlink:href="#m8e6accc041" x="282.257279" y="162.897011" style="fill: #008000; fill-opacity: 0.75; stroke: #000000; stroke-opacity: 0.75"/>
    </g>
   </g>
   <g id="PathCollection_30">
    <g clip-path="url(#p6827aeb424)">
     <use xlink:href="#m8e6accc041" x="221.305032" y="82.481885" style="fill: #008000; fill-opacity: 0.75; stroke: #000000; stroke-opacity: 0.75"/>
    </g>
   </g>
   <g id="PathCollection_31">
    <g clip-path="url(#p6827aeb424)">
     <use xlink:href="#m8e6accc041" x="247.338303" y="116.800669" style="fill: #008000; fill-opacity: 0.75; stroke: #000000; stroke-opacity: 0.75"/>
    </g>
   </g>
   <g id="PathCollection_32">
    <g clip-path="url(#p6827aeb424)">
     <use xlink:href="#m8e6accc041" x="319.604429" y="222.931248" style="fill: #008000; fill-opacity: 0.75; stroke: #000000; stroke-opacity: 0.75"/>
    </g>
   </g>
   <g id="PathCollection_33">
    <g clip-path="url(#p6827aeb424)">
     <use xlink:href="#m8e6accc041" x="245.296275" y="88.2977" style="fill: #008000; fill-opacity: 0.75; stroke: #000000; stroke-opacity: 0.75"/>
    </g>
   </g>
   <g id="PathCollection_34">
    <g clip-path="url(#p6827aeb424)">
     <use xlink:href="#m8e6accc041" x="245.081924" y="147.125202" style="fill: #008000; fill-opacity: 0.75; stroke: #000000; stroke-opacity: 0.75"/>
    </g>
   </g>
   <g id="PolyCollection_1">
    <defs>
     <path id="md69a74af3a" d="M 210.109091 -28.458594 
L 210.109091 -231.367685 
L 210.109091 -231.367685 
L 210.109091 -231.367685 
L 210.109091 -231.367685 
L 210.109091 -231.367685 
L 210.109091 -231.367685 
L 210.109091 -231.367685 
L 210.109091 -231.367685 
L 210.109091 -231.367685 
L 210.109091 -231.367685 
L 210.109091 -231.367685 
L 210.109091 -231.367685 
L 210.109091 -231.367685 
L 210.109091 -231.367685 
L 210.109091 -231.367685 
L 210.109091 -231.367685 
L 210.109091 -231.367685 
L 210.109091 -231.367685 
L 210.109091 -231.367685 
L 210.109091 -231.367685 
L 210.109091 -231.367685 
L 210.109091 -231.367685 
L 210.109091 -231.367685 
L 210.109091 -231.367685 
L 210.109091 -231.367685 
L 210.109091 -231.367685 
L 210.109091 -231.367685 
L 210.109091 -231.367685 
L 210.109091 -231.367685 
L 210.109091 -231.367685 
L 210.109091 -231.367685 
L 210.109091 -231.367685 
L 210.109091 -231.367685 
L 210.109091 -231.367685 
L 210.109091 -231.367685 
L 210.109091 -231.367685 
L 210.109091 -231.367685 
L 210.109091 -231.367685 
L 210.109091 -231.367685 
L 210.109091 -231.367685 
L 210.109091 -231.367685 
L 210.109091 -231.367685 
L 210.109091 -231.367685 
L 210.109091 -231.367685 
L 210.109091 -231.367685 
L 210.109091 -231.367685 
L 210.109091 -231.367685 
L 210.109091 -231.367685 
L 210.109091 -231.367685 
L 210.109091 -231.367685 
L 210.109091 -231.367685 
L 210.109091 -231.367685 
L 210.109091 -231.367685 
L 210.109091 -231.367685 
L 210.109091 -231.367685 
L 210.109091 -231.367685 
L 210.109091 -231.367685 
L 210.109091 -231.367685 
L 210.109091 -231.367685 
L 210.109091 -231.367685 
L 210.109091 -231.367685 
L 210.109091 -231.367685 
L 210.109091 -231.367685 
L 210.109091 -231.367685 
L 210.109091 -231.367685 
L 210.109091 -231.367685 
L 210.109091 -231.367685 
L 210.109091 -231.367685 
L 210.109091 -231.367685 
L 210.109091 -231.367685 
L 210.109091 -231.367685 
L 210.109091 -231.367685 
L 210.109091 -231.367685 
L 210.109091 -231.367685 
L 210.109091 -231.367685 
L 210.109091 -231.367685 
L 210.109091 -231.367685 
L 210.109091 -231.367685 
L 210.109091 -231.367685 
L 210.109091 -231.367685 
L 210.109091 -231.367685 
L 210.109091 -231.367685 
L 210.109091 -231.367685 
L 210.109091 -231.367685 
L 210.109091 -231.367685 
L 210.109091 -231.367685 
L 210.109091 -231.367685 
L 210.109091 -231.367685 
L 210.109091 -231.367685 
L 210.109091 -231.367685 
L 210.109091 -231.367685 
L 210.109091 -231.367685 
L 210.109091 -231.367685 
L 210.109091 -231.367685 
L 210.109091 -231.367685 
L 210.109091 -231.367685 
L 210.109091 -231.367685 
L 210.109091 -231.367685 
L 210.109091 -231.367685 
L 210.109091 -231.367685 
L 210.109091 -434.276776 
L 210.109091 -434.276776 
L 203.671205 -434.174619 
L 197.239801 -433.868254 
L 190.821356 -433.357987 
L 184.422331 -432.644334 
L 178.049171 -431.728012 
L 171.708293 -430.609944 
L 165.406081 -429.291256 
L 159.148881 -427.773276 
L 152.942994 -426.057532 
L 146.794668 -424.145751 
L 140.710095 -422.03986 
L 134.6954 -419.741978 
L 128.75664 -417.254419 
L 122.899796 -414.579688 
L 117.130764 -411.720478 
L 111.455353 -408.679667 
L 105.879278 -405.460319 
L 100.408154 -402.065674 
L 95.047489 -398.499151 
L 89.802682 -394.764341 
L 84.679013 -390.865004 
L 79.681641 -386.805066 
L 74.815599 -382.588617 
L 70.085786 -378.2199 
L 65.496964 -373.703316 
L 61.053755 -369.043413 
L 56.760632 -364.244881 
L 52.621917 -359.312553 
L 48.641779 -354.251396 
L 44.824225 -349.066505 
L 41.173099 -343.763101 
L 37.692076 -338.346525 
L 34.384664 -332.82223 
L 31.25419 -327.195779 
L 28.303809 -321.472837 
L 25.53649 -315.659167 
L 22.95502 -309.760623 
L 20.561998 -303.783143 
L 18.359834 -297.732748 
L 16.350745 -291.615528 
L 14.536755 -285.437644 
L 12.919689 -279.205316 
L 11.501176 -272.924819 
L 10.282645 -266.602479 
L 9.265322 -260.244659 
L 8.450232 -253.857763 
L 7.838195 -247.448221 
L 7.429827 -241.022488 
L 7.225541 -234.587033 
L 7.225541 -228.148336 
L 7.429827 -221.712881 
L 7.838195 -215.287148 
L 8.450232 -208.877606 
L 9.265322 -202.49071 
L 10.282645 -196.132891 
L 11.501176 -189.81055 
L 12.919689 -183.530053 
L 14.536755 -177.297725 
L 16.350745 -171.119841 
L 18.359834 -165.002622 
L 20.561998 -158.952226 
L 22.95502 -152.974746 
L 25.53649 -147.076202 
L 28.303809 -141.262532 
L 31.25419 -135.53959 
L 34.384664 -129.913139 
L 37.692076 -124.388844 
L 41.173099 -118.972268 
L 44.824225 -113.668864 
L 48.641779 -108.483974 
L 52.621917 -103.422816 
L 56.760632 -98.490488 
L 61.053755 -93.691957 
L 65.496964 -89.032053 
L 70.085786 -84.515469 
L 74.815599 -80.146753 
L 79.681641 -75.930303 
L 84.679013 -71.870366 
L 89.802682 -67.971029 
L 95.047489 -64.236218 
L 100.408154 -60.669695 
L 105.879278 -57.27505 
L 111.455353 -54.055702 
L 117.130764 -51.014892 
L 122.899796 -48.155682 
L 128.75664 -45.48095 
L 134.6954 -42.993391 
L 140.710095 -40.695509 
L 146.794668 -38.589618 
L 152.942994 -36.677838 
L 159.148881 -34.962094 
L 165.406081 -33.444113 
L 171.708293 -32.125425 
L 178.049171 -31.007357 
L 184.422331 -30.091035 
L 190.821356 -29.377382 
L 197.239801 -28.867115 
L 203.671205 -28.56075 
L 210.109091 -28.458594 
z
" style="stroke: #ffffff"/>
    </defs>
    <g clip-path="url(#p6827aeb424)">
     <use xlink:href="#md69a74af3a" x="0" y="482.412557" style="fill: #ffffff; stroke: #ffffff"/>
    </g>
   </g>
   <g id="matplotlib.axis_1">
    <g id="xtick_1">
     <g id="line2d_1">
      <path d="M 210.109091 251.044872 
L 210.109091 48.135781 
" clip-path="url(#p6827aeb424)" style="fill: none; stroke: #b0b0b0; stroke-width: 0.8; stroke-linecap: square"/>
     </g>
     <g id="text_1">
      <!-- 0° -->
      <g transform="translate(201.587216 38.274844) scale(0.15 -0.15)">
       <defs>
        <path id="DejaVuSans-30" d="M 2034 4250 
Q 1547 4250 1301 3770 
Q 1056 3291 1056 2328 
Q 1056 1369 1301 889 
Q 1547 409 2034 409 
Q 2525 409 2770 889 
Q 3016 1369 3016 2328 
Q 3016 3291 2770 3770 
Q 2525 4250 2034 4250 
z
M 2034 4750 
Q 2819 4750 3233 4129 
Q 3647 3509 3647 2328 
Q 3647 1150 3233 529 
Q 2819 -91 2034 -91 
Q 1250 -91 836 529 
Q 422 1150 422 2328 
Q 422 3509 836 4129 
Q 1250 4750 2034 4750 
z
" transform="scale(0.015625)"/>
        <path id="DejaVuSans-b0" d="M 1600 4347 
Q 1350 4347 1178 4173 
Q 1006 4000 1006 3750 
Q 1006 3503 1178 3333 
Q 1350 3163 1600 3163 
Q 1850 3163 2022 3333 
Q 2194 3503 2194 3750 
Q 2194 3997 2020 4172 
Q 1847 4347 1600 4347 
z
M 1600 4750 
Q 1800 4750 1984 4673 
Q 2169 4597 2303 4453 
Q 2447 4313 2519 4134 
Q 2591 3956 2591 3750 
Q 2591 3338 2302 3052 
Q 2013 2766 1594 2766 
Q 1172 2766 890 3047 
Q 609 3328 609 3750 
Q 609 4169 896 4459 
Q 1184 4750 1600 4750 
z
" transform="scale(0.015625)"/>
       </defs>
       <use xlink:href="#DejaVuSans-30"/>
       <use xlink:href="#DejaVuSans-b0" x="63.623047"/>
      </g>
     </g>
    </g>
    <g id="xtick_2">
     <g id="line2d_2">
      <path d="M 210.109091 251.044872 
L 311.563636 75.320445 
" clip-path="url(#p6827aeb424)" style="fill: none; stroke: #b0b0b0; stroke-width: 0.8; stroke-linecap: square"/>
     </g>
     <g id="text_2">
      <!-- 30° -->
      <g transform="translate(305.269886 67.335152) scale(0.15 -0.15)">
       <defs>
        <path id="DejaVuSans-33" d="M 2597 2516 
Q 3050 2419 3304 2112 
Q 3559 1806 3559 1356 
Q 3559 666 3084 287 
Q 2609 -91 1734 -91 
Q 1441 -91 1130 -33 
Q 819 25 488 141 
L 488 750 
Q 750 597 1062 519 
Q 1375 441 1716 441 
Q 2309 441 2620 675 
Q 2931 909 2931 1356 
Q 2931 1769 2642 2001 
Q 2353 2234 1838 2234 
L 1294 2234 
L 1294 2753 
L 1863 2753 
Q 2328 2753 2575 2939 
Q 2822 3125 2822 3475 
Q 2822 3834 2567 4026 
Q 2313 4219 1838 4219 
Q 1578 4219 1281 4162 
Q 984 4106 628 3988 
L 628 4550 
Q 988 4650 1302 4700 
Q 1616 4750 1894 4750 
Q 2613 4750 3031 4423 
Q 3450 4097 3450 3541 
Q 3450 3153 3228 2886 
Q 3006 2619 2597 2516 
z
" transform="scale(0.015625)"/>
       </defs>
       <use xlink:href="#DejaVuSans-33"/>
       <use xlink:href="#DejaVuSans-30" x="63.623047"/>
       <use xlink:href="#DejaVuSans-b0" x="127.246094"/>
      </g>
     </g>
    </g>
    <g id="xtick_3">
     <g id="line2d_3">
      <path d="M 210.109091 251.044872 
L 385.833518 149.590327 
" clip-path="url(#p6827aeb424)" style="fill: none; stroke: #b0b0b0; stroke-width: 0.8; stroke-linecap: square"/>
     </g>
     <g id="text_3">
      <!-- 60° -->
      <g transform="translate(384.664124 146.729389) scale(0.15 -0.15)">
       <defs>
        <path id="DejaVuSans-36" d="M 2113 2584 
Q 1688 2584 1439 2293 
Q 1191 2003 1191 1497 
Q 1191 994 1439 701 
Q 1688 409 2113 409 
Q 2538 409 2786 701 
Q 3034 994 3034 1497 
Q 3034 2003 2786 2293 
Q 2538 2584 2113 2584 
z
M 3366 4563 
L 3366 3988 
Q 3128 4100 2886 4159 
Q 2644 4219 2406 4219 
Q 1781 4219 1451 3797 
Q 1122 3375 1075 2522 
Q 1259 2794 1537 2939 
Q 1816 3084 2150 3084 
Q 2853 3084 3261 2657 
Q 3669 2231 3669 1497 
Q 3669 778 3244 343 
Q 2819 -91 2113 -91 
Q 1303 -91 875 529 
Q 447 1150 447 2328 
Q 447 3434 972 4092 
Q 1497 4750 2381 4750 
Q 2619 4750 2861 4703 
Q 3103 4656 3366 4563 
z
" transform="scale(0.015625)"/>
       </defs>
       <use xlink:href="#DejaVuSans-36"/>
       <use xlink:href="#DejaVuSans-30" x="63.623047"/>
       <use xlink:href="#DejaVuSans-b0" x="127.246094"/>
      </g>
     </g>
    </g>
    <g id="xtick_4">
     <g id="line2d_4">
      <path d="M 210.109091 251.044872 
L 413.018182 251.044872 
" clip-path="url(#p6827aeb424)" style="fill: none; stroke: #b0b0b0; stroke-width: 0.8; stroke-linecap: square"/>
     </g>
     <g id="text_4">
      <!-- 90° -->
      <g transform="translate(413.724432 255.183935) scale(0.15 -0.15)">
       <defs>
        <path id="DejaVuSans-39" d="M 703 97 
L 703 672 
Q 941 559 1184 500 
Q 1428 441 1663 441 
Q 2288 441 2617 861 
Q 2947 1281 2994 2138 
Q 2813 1869 2534 1725 
Q 2256 1581 1919 1581 
Q 1219 1581 811 2004 
Q 403 2428 403 3163 
Q 403 3881 828 4315 
Q 1253 4750 1959 4750 
Q 2769 4750 3195 4129 
Q 3622 3509 3622 2328 
Q 3622 1225 3098 567 
Q 2575 -91 1691 -91 
Q 1453 -91 1209 -44 
Q 966 3 703 97 
z
M 1959 2075 
Q 2384 2075 2632 2365 
Q 2881 2656 2881 3163 
Q 2881 3666 2632 3958 
Q 2384 4250 1959 4250 
Q 1534 4250 1286 3958 
Q 1038 3666 1038 3163 
Q 1038 2656 1286 2365 
Q 1534 2075 1959 2075 
z
" transform="scale(0.015625)"/>
       </defs>
       <use xlink:href="#DejaVuSans-39"/>
       <use xlink:href="#DejaVuSans-30" x="63.623047"/>
       <use xlink:href="#DejaVuSans-b0" x="127.246094"/>
      </g>
     </g>
    </g>
    <g id="xtick_5">
     <g id="line2d_5">
      <path d="M 210.109091 251.044872 
L 385.833518 352.499418 
" clip-path="url(#p6827aeb424)" style="fill: none; stroke: #b0b0b0; stroke-width: 0.8; stroke-linecap: square"/>
     </g>
     <g id="text_5">
      <!-- 120° -->
      <g transform="translate(379.892249 363.63848) scale(0.15 -0.15)">
       <defs>
        <path id="DejaVuSans-31" d="M 794 531 
L 1825 531 
L 1825 4091 
L 703 3866 
L 703 4441 
L 1819 4666 
L 2450 4666 
L 2450 531 
L 3481 531 
L 3481 0 
L 794 0 
L 794 531 
z
" transform="scale(0.015625)"/>
        <path id="DejaVuSans-32" d="M 1228 531 
L 3431 531 
L 3431 0 
L 469 0 
L 469 531 
Q 828 903 1448 1529 
Q 2069 2156 2228 2338 
Q 2531 2678 2651 2914 
Q 2772 3150 2772 3378 
Q 2772 3750 2511 3984 
Q 2250 4219 1831 4219 
Q 1534 4219 1204 4116 
Q 875 4013 500 3803 
L 500 4441 
Q 881 4594 1212 4672 
Q 1544 4750 1819 4750 
Q 2544 4750 2975 4387 
Q 3406 4025 3406 3419 
Q 3406 3131 3298 2873 
Q 3191 2616 2906 2266 
Q 2828 2175 2409 1742 
Q 1991 1309 1228 531 
z
" transform="scale(0.015625)"/>
       </defs>
       <use xlink:href="#DejaVuSans-31"/>
       <use xlink:href="#DejaVuSans-32" x="63.623047"/>
       <use xlink:href="#DejaVuSans-30" x="127.246094"/>
       <use xlink:href="#DejaVuSans-b0" x="190.869141"/>
      </g>
     </g>
    </g>
    <g id="xtick_6">
     <g id="line2d_6">
      <path d="M 210.109091 251.044872 
L 311.563636 426.7693 
" clip-path="url(#p6827aeb424)" style="fill: none; stroke: #b0b0b0; stroke-width: 0.8; stroke-linecap: square"/>
     </g>
     <g id="text_6">
      <!-- 150° -->
      <g transform="translate(300.498011 443.032718) scale(0.15 -0.15)">
       <defs>
        <path id="DejaVuSans-35" d="M 691 4666 
L 3169 4666 
L 3169 4134 
L 1269 4134 
L 1269 2991 
Q 1406 3038 1543 3061 
Q 1681 3084 1819 3084 
Q 2600 3084 3056 2656 
Q 3513 2228 3513 1497 
Q 3513 744 3044 326 
Q 2575 -91 1722 -91 
Q 1428 -91 1123 -41 
Q 819 9 494 109 
L 494 744 
Q 775 591 1075 516 
Q 1375 441 1709 441 
Q 2250 441 2565 725 
Q 2881 1009 2881 1497 
Q 2881 1984 2565 2268 
Q 2250 2553 1709 2553 
Q 1456 2553 1204 2497 
Q 953 2441 691 2322 
L 691 4666 
z
" transform="scale(0.015625)"/>
       </defs>
       <use xlink:href="#DejaVuSans-31"/>
       <use xlink:href="#DejaVuSans-35" x="63.623047"/>
       <use xlink:href="#DejaVuSans-30" x="127.246094"/>
       <use xlink:href="#DejaVuSans-b0" x="190.869141"/>
      </g>
     </g>
    </g>
    <g id="xtick_7">
     <g id="line2d_7">
      <path d="M 210.109091 251.044872 
L 210.109091 453.953963 
" clip-path="url(#p6827aeb424)" style="fill: none; stroke: #b0b0b0; stroke-width: 0.8; stroke-linecap: square"/>
     </g>
     <g id="text_7">
      <!-- 180° -->
      <g transform="translate(192.043466 472.093026) scale(0.15 -0.15)">
       <defs>
        <path id="DejaVuSans-38" d="M 2034 2216 
Q 1584 2216 1326 1975 
Q 1069 1734 1069 1313 
Q 1069 891 1326 650 
Q 1584 409 2034 409 
Q 2484 409 2743 651 
Q 3003 894 3003 1313 
Q 3003 1734 2745 1975 
Q 2488 2216 2034 2216 
z
M 1403 2484 
Q 997 2584 770 2862 
Q 544 3141 544 3541 
Q 544 4100 942 4425 
Q 1341 4750 2034 4750 
Q 2731 4750 3128 4425 
Q 3525 4100 3525 3541 
Q 3525 3141 3298 2862 
Q 3072 2584 2669 2484 
Q 3125 2378 3379 2068 
Q 3634 1759 3634 1313 
Q 3634 634 3220 271 
Q 2806 -91 2034 -91 
Q 1263 -91 848 271 
Q 434 634 434 1313 
Q 434 1759 690 2068 
Q 947 2378 1403 2484 
z
M 1172 3481 
Q 1172 3119 1398 2916 
Q 1625 2713 2034 2713 
Q 2441 2713 2670 2916 
Q 2900 3119 2900 3481 
Q 2900 3844 2670 4047 
Q 2441 4250 2034 4250 
Q 1625 4250 1398 4047 
Q 1172 3844 1172 3481 
z
" transform="scale(0.015625)"/>
       </defs>
       <use xlink:href="#DejaVuSans-31"/>
       <use xlink:href="#DejaVuSans-38" x="63.623047"/>
       <use xlink:href="#DejaVuSans-30" x="127.246094"/>
       <use xlink:href="#DejaVuSans-b0" x="190.869141"/>
      </g>
     </g>
    </g>
   </g>
   <g id="matplotlib.axis_2">
    <g id="ytick_1">
     <g id="line2d_8">
      <path d="M 210.109091 223.990327 
C 213.661861 223.990327 217.180085 224.690145 220.462417 226.049731 
C 223.744749 227.409318 226.727355 229.402232 229.239543 231.91442 
C 231.751731 234.426608 233.744645 237.409214 235.104232 240.691546 
C 236.463818 243.973878 237.163636 247.492102 237.163636 251.044872 
C 237.163636 254.597643 236.463818 258.115867 235.104232 261.398198 
C 233.744645 264.68053 231.751731 267.663137 229.239543 270.175325 
C 226.727355 272.687513 223.744749 274.680427 220.462417 276.040013 
C 217.180085 277.399599 213.661861 278.099418 210.109091 278.099418 
C 206.556321 278.099418 203.038096 277.399599 199.755765 276.040013 
C 196.473433 274.680427 193.490826 272.687513 190.978638 270.175325 
C 188.46645 267.663137 186.473536 264.68053 185.11395 261.398198 
C 183.754364 258.115867 183.054545 254.597643 183.054545 251.044872 
C 183.054545 247.492102 183.754364 243.973878 185.11395 240.691546 
C 186.473536 237.409214 188.46645 234.426608 190.978638 231.91442 
C 193.490826 229.402232 196.473433 227.409318 199.755765 226.049731 
C 203.038096 224.690145 206.556321 223.990327 210.109091 223.990327 
" clip-path="url(#p6827aeb424)" style="fill: none; stroke: #b0b0b0; stroke-width: 0.8; stroke-linecap: square"/>
     </g>
    </g>
    <g id="ytick_2">
     <g id="line2d_9">
      <path d="M 210.109091 196.935781 
C 217.214632 196.935781 224.25108 198.335418 230.815744 201.054591 
C 237.380407 203.773763 243.34562 207.759591 248.369996 212.783967 
C 253.394372 217.808343 257.3802 223.773556 260.099373 230.33822 
C 262.818545 236.902883 264.218182 243.939331 264.218182 251.044872 
C 264.218182 258.150413 262.818545 265.186861 260.099373 271.751525 
C 257.3802 278.316188 253.394372 284.281401 248.369996 289.305777 
C 243.34562 294.330153 237.380407 298.315981 230.815744 301.035154 
C 224.25108 303.754326 217.214632 305.153963 210.109091 305.153963 
C 203.00355 305.153963 195.967102 303.754326 189.402438 301.035154 
C 182.837775 298.315981 176.872562 294.330153 171.848186 289.305777 
C 166.82381 284.281401 162.837982 278.316188 160.118809 271.751525 
C 157.399637 265.186861 156 258.150413 156 251.044872 
C 156 243.939331 157.399637 236.902883 160.118809 230.33822 
C 162.837982 223.773556 166.82381 217.808343 171.848186 212.783967 
C 176.872562 207.759591 182.837775 203.773763 189.402438 201.054591 
C 195.967102 198.335418 203.00355 196.935781 210.109091 196.935781 
" clip-path="url(#p6827aeb424)" style="fill: none; stroke: #b0b0b0; stroke-width: 0.8; stroke-linecap: square"/>
     </g>
    </g>
    <g id="ytick_3">
     <g id="line2d_10">
      <path d="M 210.109091 169.881236 
C 220.767402 169.881236 231.322074 171.980691 241.16907 176.05945 
C 251.016065 180.138209 259.963885 186.11695 267.500449 193.653515 
C 275.037013 201.190079 281.015754 210.137898 285.094513 219.984893 
C 289.173272 229.831889 291.272727 240.386561 291.272727 251.044872 
C 291.272727 261.703183 289.173272 272.257856 285.094513 282.104851 
C 281.015754 291.951847 275.037013 300.899666 267.500449 308.43623 
C 259.963885 315.972794 251.016065 321.951536 241.16907 326.030295 
C 231.322074 330.109054 220.767402 332.208509 210.109091 332.208509 
C 199.45078 332.208509 188.896107 330.109054 179.049112 326.030295 
C 169.202117 321.951536 160.254297 315.972794 152.717733 308.43623 
C 145.181169 300.899666 139.202428 291.951847 135.123668 282.104851 
C 131.044909 272.257856 128.945455 261.703183 128.945455 251.044872 
C 128.945455 240.386561 131.044909 229.831889 135.123668 219.984893 
C 139.202428 210.137898 145.181169 201.190079 152.717733 193.653515 
C 160.254297 186.11695 169.202117 180.138209 179.049112 176.05945 
C 188.896107 171.980691 199.45078 169.881236 210.109091 169.881236 
" clip-path="url(#p6827aeb424)" style="fill: none; stroke: #b0b0b0; stroke-width: 0.8; stroke-linecap: square"/>
     </g>
    </g>
    <g id="ytick_4">
     <g id="line2d_11">
      <path d="M 210.109091 142.82669 
C 224.320172 142.82669 238.393069 145.625964 251.522396 151.064309 
C 264.651723 156.502654 276.582149 164.47431 286.630901 174.523062 
C 296.679653 184.571814 304.651309 196.50224 310.089654 209.631567 
C 315.528 222.760894 318.327273 236.833791 318.327273 251.044872 
C 318.327273 265.255954 315.528 279.32885 310.089654 292.458177 
C 304.651309 305.587505 296.679653 317.51793 286.630901 327.566682 
C 276.582149 337.615434 264.651723 345.58709 251.522396 351.025435 
C 238.393069 356.463781 224.320172 359.263054 210.109091 359.263054 
C 195.898009 359.263054 181.825113 356.463781 168.695786 351.025435 
C 155.566458 345.58709 143.636033 337.615434 133.587281 327.566682 
C 123.538529 317.51793 115.566873 305.587505 110.128528 292.458177 
C 104.690182 279.32885 101.890909 265.255954 101.890909 251.044872 
C 101.890909 236.833791 104.690182 222.760894 110.128528 209.631567 
C 115.566873 196.50224 123.538529 184.571814 133.587281 174.523062 
C 143.636033 164.47431 155.566458 156.502654 168.695786 151.064309 
C 181.825113 145.625964 195.898009 142.82669 210.109091 142.82669 
" clip-path="url(#p6827aeb424)" style="fill: none; stroke: #b0b0b0; stroke-width: 0.8; stroke-linecap: square"/>
     </g>
    </g>
    <g id="ytick_5">
     <g id="line2d_12">
      <path d="M 210.109091 115.772145 
C 227.872943 115.772145 245.464063 119.271236 261.875722 126.069168 
C 278.287382 132.8671 293.200414 142.831669 305.761354 155.392609 
C 318.322294 167.953549 328.286863 182.866581 335.084795 199.278241 
C 341.882727 215.6899 345.381818 233.28102 345.381818 251.044872 
C 345.381818 268.808724 341.882727 286.399845 335.084795 302.811504 
C 328.286863 319.223163 318.322294 334.136195 305.761354 346.697135 
C 293.200414 359.258075 278.287382 369.222644 261.875722 376.020576 
C 245.464063 382.818508 227.872943 386.317599 210.109091 386.317599 
C 192.345239 386.317599 174.754118 382.818508 158.342459 376.020576 
C 141.9308 369.222644 127.017768 359.258075 114.456828 346.697135 
C 101.895888 334.136195 91.931319 319.223163 85.133387 302.811504 
C 78.335455 286.399845 74.836364 268.808724 74.836364 251.044872 
C 74.836364 233.28102 78.335455 215.6899 85.133387 199.278241 
C 91.931319 182.866581 101.895888 167.953549 114.456828 155.392609 
C 127.017768 142.831669 141.9308 132.8671 158.342459 126.069168 
C 174.754118 119.271236 192.345239 115.772145 210.109091 115.772145 
" clip-path="url(#p6827aeb424)" style="fill: none; stroke: #b0b0b0; stroke-width: 0.8; stroke-linecap: square"/>
     </g>
    </g>
    <g id="ytick_6">
     <g id="line2d_13">
      <path d="M 210.109091 88.717599 
C 231.425713 88.717599 252.535058 92.916509 272.229049 101.074027 
C 291.92304 109.231545 309.818678 121.189029 324.891806 136.262157 
C 339.964934 151.335285 351.922418 169.230923 360.079936 188.924914 
C 368.237454 208.618905 372.436364 229.72825 372.436364 251.044872 
C 372.436364 272.361494 368.237454 293.470839 360.079936 313.16483 
C 351.922418 332.858821 339.964934 350.754459 324.891806 365.827587 
C 309.818678 380.900716 291.92304 392.858199 272.229049 401.015717 
C 252.535058 409.173235 231.425713 413.372145 210.109091 413.372145 
C 188.792469 413.372145 167.683124 409.173235 147.989133 401.015717 
C 128.295142 392.858199 110.399504 380.900716 95.326376 365.827587 
C 80.253248 350.754459 68.295764 332.858821 60.138246 313.16483 
C 51.980728 293.470839 47.781818 272.361494 47.781818 251.044872 
C 47.781818 229.72825 51.980728 208.618905 60.138246 188.924914 
C 68.295764 169.230923 80.253248 151.335285 95.326376 136.262157 
C 110.399504 121.189029 128.295142 109.231545 147.989133 101.074027 
C 167.683124 92.916509 188.792469 88.717599 210.109091 88.717599 
" clip-path="url(#p6827aeb424)" style="fill: none; stroke: #b0b0b0; stroke-width: 0.8; stroke-linecap: square"/>
     </g>
    </g>
    <g id="ytick_7">
     <g id="line2d_14">
      <path d="M 210.109091 61.663054 
C 234.978483 61.663054 259.606052 66.561782 282.582375 76.078887 
C 305.558698 85.595991 326.436943 99.546388 344.022259 117.131704 
C 361.607575 134.71702 375.557972 155.595265 385.075077 178.571588 
C 394.592181 201.547911 399.490909 226.17548 399.490909 251.044872 
C 399.490909 275.914265 394.592181 300.541834 385.075077 323.518156 
C 375.557972 346.494479 361.607575 367.372724 344.022259 384.95804 
C 326.436943 402.543356 305.558698 416.493753 282.582375 426.010858 
C 259.606052 435.527962 234.978483 440.42669 210.109091 440.42669 
C 185.239698 440.42669 160.612129 435.527962 137.635807 426.010858 
C 114.659484 416.493753 93.781239 402.543356 76.195923 384.95804 
C 58.610607 367.372724 44.66021 346.494479 35.143105 323.518156 
C 25.626001 300.541834 20.727273 275.914265 20.727273 251.044872 
C 20.727273 226.17548 25.626001 201.547911 35.143105 178.571588 
C 44.66021 155.595265 58.610607 134.71702 76.195923 117.131704 
C 93.781239 99.546388 114.659484 85.595991 137.635807 76.078887 
C 160.612129 66.561782 185.239698 61.663054 210.109091 61.663054 
" clip-path="url(#p6827aeb424)" style="fill: none; stroke: #b0b0b0; stroke-width: 0.8; stroke-linecap: square"/>
     </g>
    </g>
   </g>
   <g id="patch_3">
    <path d="M 210.109091 48.135781 
C 183.463313 48.135781 157.076632 53.384418 132.459144 63.581316 
C 107.841655 73.778214 85.472107 88.725068 66.630697 107.566478 
C 47.789287 126.407888 32.842433 148.777436 22.645535 173.394925 
C 12.448637 198.012413 7.2 224.399094 7.2 251.044872 
C 7.2 277.69065 12.448637 304.077331 22.645535 328.69482 
C 32.842433 353.312308 47.789287 375.681856 66.630697 394.523266 
C 85.472107 413.364676 107.841655 428.311531 132.459144 438.508428 
C 157.076632 448.705326 183.463313 453.953963 210.109091 453.953963 
C 236.754869 453.953963 263.14155 448.705326 287.759038 438.508428 
C 312.376527 428.311531 334.746075 413.364676 353.587485 394.523266 
C 372.428895 375.681856 387.375749 353.312308 397.572647 328.69482 
C 407.769545 304.077331 413.018182 277.69065 413.018182 251.044872 
C 413.018182 224.399094 407.769545 198.012413 397.572647 173.394925 
C 387.375749 148.777436 372.428895 126.407888 353.587485 107.566478 
C 334.746075 88.725068 312.376527 73.778214 287.759038 63.581316 
C 263.14155 53.384418 236.754869 48.135781 210.109091 48.135781 
" style="fill: none; stroke: #000000; stroke-width: 0.8; stroke-linejoin: miter; stroke-linecap: square"/>
   </g>
   <g id="text_8">
    <!-- WT AC and BC -->
    <g transform="translate(138.685653 20.877187) scale(0.18 -0.18)">
     <defs>
      <path id="DejaVuSans-Bold-57" d="M 191 4666 
L 1344 4666 
L 2150 1275 
L 2950 4666 
L 4109 4666 
L 4909 1275 
L 5716 4666 
L 6859 4666 
L 5759 0 
L 4372 0 
L 3525 3547 
L 2688 0 
L 1300 0 
L 191 4666 
z
" transform="scale(0.015625)"/>
      <path id="DejaVuSans-Bold-54" d="M 31 4666 
L 4331 4666 
L 4331 3756 
L 2784 3756 
L 2784 0 
L 1581 0 
L 1581 3756 
L 31 3756 
L 31 4666 
z
" transform="scale(0.015625)"/>
      <path id="DejaVuSans-Bold-20" transform="scale(0.015625)"/>
      <path id="DejaVuSans-Bold-41" d="M 3419 850 
L 1538 850 
L 1241 0 
L 31 0 
L 1759 4666 
L 3194 4666 
L 4922 0 
L 3713 0 
L 3419 850 
z
M 1838 1716 
L 3116 1716 
L 2478 3572 
L 1838 1716 
z
" transform="scale(0.015625)"/>
      <path id="DejaVuSans-Bold-43" d="M 4288 256 
Q 3956 84 3597 -3 
Q 3238 -91 2847 -91 
Q 1681 -91 1000 561 
Q 319 1213 319 2328 
Q 319 3447 1000 4098 
Q 1681 4750 2847 4750 
Q 3238 4750 3597 4662 
Q 3956 4575 4288 4403 
L 4288 3438 
Q 3953 3666 3628 3772 
Q 3303 3878 2944 3878 
Q 2300 3878 1931 3465 
Q 1563 3053 1563 2328 
Q 1563 1606 1931 1193 
Q 2300 781 2944 781 
Q 3303 781 3628 887 
Q 3953 994 4288 1222 
L 4288 256 
z
" transform="scale(0.015625)"/>
      <path id="DejaVuSans-Bold-61" d="M 2106 1575 
Q 1756 1575 1579 1456 
Q 1403 1338 1403 1106 
Q 1403 894 1545 773 
Q 1688 653 1941 653 
Q 2256 653 2472 879 
Q 2688 1106 2688 1447 
L 2688 1575 
L 2106 1575 
z
M 3816 1997 
L 3816 0 
L 2688 0 
L 2688 519 
Q 2463 200 2181 54 
Q 1900 -91 1497 -91 
Q 953 -91 614 226 
Q 275 544 275 1050 
Q 275 1666 698 1953 
Q 1122 2241 2028 2241 
L 2688 2241 
L 2688 2328 
Q 2688 2594 2478 2717 
Q 2269 2841 1825 2841 
Q 1466 2841 1156 2769 
Q 847 2697 581 2553 
L 581 3406 
Q 941 3494 1303 3539 
Q 1666 3584 2028 3584 
Q 2975 3584 3395 3211 
Q 3816 2838 3816 1997 
z
" transform="scale(0.015625)"/>
      <path id="DejaVuSans-Bold-6e" d="M 4056 2131 
L 4056 0 
L 2931 0 
L 2931 347 
L 2931 1631 
Q 2931 2084 2911 2256 
Q 2891 2428 2841 2509 
Q 2775 2619 2662 2680 
Q 2550 2741 2406 2741 
Q 2056 2741 1856 2470 
Q 1656 2200 1656 1722 
L 1656 0 
L 538 0 
L 538 3500 
L 1656 3500 
L 1656 2988 
Q 1909 3294 2193 3439 
Q 2478 3584 2822 3584 
Q 3428 3584 3742 3212 
Q 4056 2841 4056 2131 
z
" transform="scale(0.015625)"/>
      <path id="DejaVuSans-Bold-64" d="M 2919 2988 
L 2919 4863 
L 4044 4863 
L 4044 0 
L 2919 0 
L 2919 506 
Q 2688 197 2409 53 
Q 2131 -91 1766 -91 
Q 1119 -91 703 423 
Q 288 938 288 1747 
Q 288 2556 703 3070 
Q 1119 3584 1766 3584 
Q 2128 3584 2408 3439 
Q 2688 3294 2919 2988 
z
M 2181 722 
Q 2541 722 2730 984 
Q 2919 1247 2919 1747 
Q 2919 2247 2730 2509 
Q 2541 2772 2181 2772 
Q 1825 2772 1636 2509 
Q 1447 2247 1447 1747 
Q 1447 1247 1636 984 
Q 1825 722 2181 722 
z
" transform="scale(0.015625)"/>
      <path id="DejaVuSans-Bold-42" d="M 2456 2859 
Q 2741 2859 2887 2984 
Q 3034 3109 3034 3353 
Q 3034 3594 2887 3720 
Q 2741 3847 2456 3847 
L 1791 3847 
L 1791 2859 
L 2456 2859 
z
M 2497 819 
Q 2859 819 3042 972 
Q 3225 1125 3225 1434 
Q 3225 1738 3044 1889 
Q 2863 2041 2497 2041 
L 1791 2041 
L 1791 819 
L 2497 819 
z
M 3616 2497 
Q 4003 2384 4215 2081 
Q 4428 1778 4428 1338 
Q 4428 663 3972 331 
Q 3516 0 2584 0 
L 588 0 
L 588 4666 
L 2394 4666 
Q 3366 4666 3802 4372 
Q 4238 4078 4238 3431 
Q 4238 3091 4078 2852 
Q 3919 2613 3616 2497 
z
" transform="scale(0.015625)"/>
     </defs>
     <use xlink:href="#DejaVuSans-Bold-57"/>
     <use xlink:href="#DejaVuSans-Bold-54" x="110.302734"/>
     <use xlink:href="#DejaVuSans-Bold-20" x="178.515625"/>
     <use xlink:href="#DejaVuSans-Bold-41" x="213.330078"/>
     <use xlink:href="#DejaVuSans-Bold-43" x="290.722656"/>
     <use xlink:href="#DejaVuSans-Bold-20" x="364.111328"/>
     <use xlink:href="#DejaVuSans-Bold-61" x="398.925781"/>
     <use xlink:href="#DejaVuSans-Bold-6e" x="466.40625"/>
     <use xlink:href="#DejaVuSans-Bold-64" x="537.597656"/>
     <use xlink:href="#DejaVuSans-Bold-20" x="609.179688"/>
     <use xlink:href="#DejaVuSans-Bold-42" x="643.994141"/>
     <use xlink:href="#DejaVuSans-Bold-43" x="720.214844"/>
    </g>
   </g>
  </g>
  <g id="axes_2">
   <g id="patch_4">
    <path d="M 900 251.044872 
C 900 224.399094 894.751363 198.012413 884.554465 173.394925 
C 874.357567 148.777436 859.410713 126.407888 840.569303 107.566478 
C 821.727893 88.725068 799.358345 73.778214 774.740856 63.581316 
C 750.123368 53.384418 723.736687 48.135781 697.090909 48.135781 
C 670.445131 48.135781 644.05845 53.384418 619.440962 63.581316 
C 594.823473 73.778214 572.453925 88.725068 553.612515 107.566478 
C 534.771105 126.407888 519.824251 148.777436 509.627353 173.394925 
C 499.430455 198.012413 494.181818 224.399094 494.181818 251.044872 
C 494.181818 277.69065 499.430455 304.077331 509.627353 328.69482 
C 519.824251 353.312308 534.771105 375.681856 553.612515 394.523266 
C 572.453925 413.364676 594.823473 428.311531 619.440962 438.508428 
C 644.05845 448.705326 670.445131 453.953963 697.090909 453.953963 
C 723.736687 453.953963 750.123368 448.705326 774.740856 438.508428 
C 799.358345 428.311531 821.727893 413.364676 840.569303 394.523266 
C 859.410713 375.681856 874.357567 353.312308 884.554465 328.69482 
C 894.751363 304.077331 900 277.69065 900 251.044872 
M 697.090909 251.044872 
C 697.090909 251.044872 697.090909 251.044872 697.090909 251.044872 
C 697.090909 251.044872 697.090909 251.044872 697.090909 251.044872 
C 697.090909 251.044872 697.090909 251.044872 697.090909 251.044872 
C 697.090909 251.044872 697.090909 251.044872 697.090909 251.044872 
C 697.090909 251.044872 697.090909 251.044872 697.090909 251.044872 
C 697.090909 251.044872 697.090909 251.044872 697.090909 251.044872 
C 697.090909 251.044872 697.090909 251.044872 697.090909 251.044872 
C 697.090909 251.044872 697.090909 251.044872 697.090909 251.044872 
C 697.090909 251.044872 697.090909 251.044872 697.090909 251.044872 
C 697.090909 251.044872 697.090909 251.044872 697.090909 251.044872 
C 697.090909 251.044872 697.090909 251.044872 697.090909 251.044872 
C 697.090909 251.044872 697.090909 251.044872 697.090909 251.044872 
C 697.090909 251.044872 697.090909 251.044872 697.090909 251.044872 
C 697.090909 251.044872 697.090909 251.044872 697.090909 251.044872 
C 697.090909 251.044872 697.090909 251.044872 697.090909 251.044872 
C 697.090909 251.044872 697.090909 251.044872 697.090909 251.044872 
z
" style="fill: #ffffff"/>
   </g>
   <g id="PathCollection_35">
    <g clip-path="url(#pad0131e1aa)">
     <use xlink:href="#m8e6accc041" x="725.498285" y="139.598298" style="fill: #008000; fill-opacity: 0.75; stroke: #000000; stroke-opacity: 0.75"/>
    </g>
   </g>
   <g id="PathCollection_36">
    <g clip-path="url(#pad0131e1aa)">
     <use xlink:href="#m8e6accc041" x="720.47653" y="124.867353" style="fill: #008000; fill-opacity: 0.75; stroke: #000000; stroke-opacity: 0.75"/>
    </g>
   </g>
   <g id="PathCollection_37">
    <g clip-path="url(#pad0131e1aa)">
     <use xlink:href="#m8e6accc041" x="800.18591" y="334.529558" style="fill: #008000; fill-opacity: 0.75; stroke: #000000; stroke-opacity: 0.75"/>
    </g>
   </g>
   <g id="PathCollection_38">
    <g clip-path="url(#pad0131e1aa)">
     <use xlink:href="#m8e6accc041" x="717.524505" y="116.093322" style="fill: #008000; fill-opacity: 0.75; stroke: #000000; stroke-opacity: 0.75"/>
    </g>
   </g>
   <g id="PathCollection_39">
    <g clip-path="url(#pad0131e1aa)">
     <use xlink:href="#m8e6accc041" x="749.98522" y="156.012551" style="fill: #008000; fill-opacity: 0.75; stroke: #000000; stroke-opacity: 0.75"/>
    </g>
   </g>
   <g id="PathCollection_40">
    <g clip-path="url(#pad0131e1aa)">
     <use xlink:href="#m8e6accc041" x="855.440392" y="276.124966" style="fill: #008000; fill-opacity: 0.75; stroke: #000000; stroke-opacity: 0.75"/>
    </g>
   </g>
   <g id="PathCollection_41">
    <g clip-path="url(#pad0131e1aa)">
     <use xlink:href="#m8e6accc041" x="717.439174" y="106.989243" style="fill: #008000; fill-opacity: 0.75; stroke: #000000; stroke-opacity: 0.75"/>
    </g>
   </g>
   <g id="PathCollection_42">
    <g clip-path="url(#pad0131e1aa)">
     <use xlink:href="#m8e6accc041" x="824.459272" y="229.044536" style="fill: #008000; fill-opacity: 0.75; stroke: #000000; stroke-opacity: 0.75"/>
    </g>
   </g>
   <g id="PathCollection_43">
    <g clip-path="url(#pad0131e1aa)">
     <use xlink:href="#m8e6accc041" x="833.073473" y="167.71465" style="fill: #008000; fill-opacity: 0.75; stroke: #000000; stroke-opacity: 0.75"/>
    </g>
   </g>
   <g id="PathCollection_44">
    <g clip-path="url(#pad0131e1aa)">
     <use xlink:href="#m8e6accc041" x="761.13863" y="156.446783" style="fill: #008000; fill-opacity: 0.75; stroke: #000000; stroke-opacity: 0.75"/>
    </g>
   </g>
   <g id="PathCollection_45">
    <g clip-path="url(#pad0131e1aa)">
     <use xlink:href="#m8e6accc041" x="721.15552" y="123.686516" style="fill: #008000; fill-opacity: 0.75; stroke: #000000; stroke-opacity: 0.75"/>
    </g>
   </g>
   <g id="PathCollection_46">
    <g clip-path="url(#pad0131e1aa)">
     <use xlink:href="#m8e6accc041" x="783.276258" y="171.236364" style="fill: #008000; fill-opacity: 0.75; stroke: #000000; stroke-opacity: 0.75"/>
    </g>
   </g>
   <g id="PathCollection_47">
    <g clip-path="url(#pad0131e1aa)">
     <use xlink:href="#m8e6accc041" x="822.425513" y="289.363506" style="fill: #008000; fill-opacity: 0.75; stroke: #000000; stroke-opacity: 0.75"/>
    </g>
   </g>
   <g id="PathCollection_48">
    <g clip-path="url(#pad0131e1aa)">
     <use xlink:href="#m8e6accc041" x="747.489855" y="150.400504" style="fill: #008000; fill-opacity: 0.75; stroke: #000000; stroke-opacity: 0.75"/>
    </g>
   </g>
   <g id="PathCollection_49">
    <g clip-path="url(#pad0131e1aa)">
     <use xlink:href="#m8e6accc041" x="863.976643" y="247.549114" style="fill: #008000; fill-opacity: 0.75; stroke: #000000; stroke-opacity: 0.75"/>
    </g>
   </g>
   <g id="PathCollection_50">
    <g clip-path="url(#pad0131e1aa)">
     <use xlink:href="#m8e6accc041" x="783.078191" y="127.325387" style="fill: #008000; fill-opacity: 0.75; stroke: #000000; stroke-opacity: 0.75"/>
    </g>
   </g>
   <g id="PathCollection_51">
    <g clip-path="url(#pad0131e1aa)">
     <use xlink:href="#m8e6accc041" x="843.19113" y="250.279886" style="fill: #008000; fill-opacity: 0.75; stroke: #000000; stroke-opacity: 0.75"/>
    </g>
   </g>
   <g id="PathCollection_52">
    <g clip-path="url(#pad0131e1aa)">
     <use xlink:href="#m8e6accc041" x="773.038899" y="176.930334" style="fill: #008000; fill-opacity: 0.75; stroke: #000000; stroke-opacity: 0.75"/>
    </g>
   </g>
   <g id="PathCollection_53">
    <g clip-path="url(#pad0131e1aa)">
     <use xlink:href="#m497f20febc" x="832.840299" y="339.201557" style="fill: #ff00ff; fill-opacity: 0.75; stroke: #000000; stroke-opacity: 0.75"/>
    </g>
   </g>
   <g id="PathCollection_54">
    <g clip-path="url(#pad0131e1aa)">
     <use xlink:href="#m497f20febc" x="852.623745" y="229.462908" style="fill: #ff00ff; fill-opacity: 0.75; stroke: #000000; stroke-opacity: 0.75"/>
    </g>
   </g>
   <g id="PathCollection_55">
    <g clip-path="url(#pad0131e1aa)">
     <use xlink:href="#m497f20febc" x="797.107786" y="168.009261" style="fill: #ff00ff; fill-opacity: 0.75; stroke: #000000; stroke-opacity: 0.75"/>
    </g>
   </g>
   <g id="PathCollection_56">
    <g clip-path="url(#pad0131e1aa)">
     <use xlink:href="#m497f20febc" x="833.834547" y="199.918521" style="fill: #ff00ff; fill-opacity: 0.75; stroke: #000000; stroke-opacity: 0.75"/>
    </g>
   </g>
   <g id="PathCollection_57">
    <g clip-path="url(#pad0131e1aa)">
     <use xlink:href="#m497f20febc" x="824.498851" y="209.893228" style="fill: #ff00ff; fill-opacity: 0.75; stroke: #000000; stroke-opacity: 0.75"/>
    </g>
   </g>
   <g id="PathCollection_58">
    <g clip-path="url(#pad0131e1aa)">
     <use xlink:href="#m497f20febc" x="846.976456" y="187.422232" style="fill: #ff00ff; fill-opacity: 0.75; stroke: #000000; stroke-opacity: 0.75"/>
    </g>
   </g>
   <g id="PathCollection_59">
    <g clip-path="url(#pad0131e1aa)">
     <use xlink:href="#m497f20febc" x="864.371336" y="238.760565" style="fill: #ff00ff; fill-opacity: 0.75; stroke: #000000; stroke-opacity: 0.75"/>
    </g>
   </g>
   <g id="PathCollection_60">
    <g clip-path="url(#pad0131e1aa)">
     <use xlink:href="#m497f20febc" x="850.167311" y="303.753304" style="fill: #ff00ff; fill-opacity: 0.75; stroke: #000000; stroke-opacity: 0.75"/>
    </g>
   </g>
   <g id="PathCollection_61">
    <g clip-path="url(#pad0131e1aa)">
     <use xlink:href="#m497f20febc" x="814.843813" y="202.510627" style="fill: #ff00ff; fill-opacity: 0.75; stroke: #000000; stroke-opacity: 0.75"/>
    </g>
   </g>
   <g id="PathCollection_62">
    <g clip-path="url(#pad0131e1aa)">
     <use xlink:href="#m497f20febc" x="794.10783" y="300.477463" style="fill: #ff00ff; fill-opacity: 0.75; stroke: #000000; stroke-opacity: 0.75"/>
    </g>
   </g>
   <g id="PathCollection_63">
    <g clip-path="url(#pad0131e1aa)">
     <use xlink:href="#m497f20febc" x="809.777216" y="289.845879" style="fill: #ff00ff; fill-opacity: 0.75; stroke: #000000; stroke-opacity: 0.75"/>
    </g>
   </g>
   <g id="PathCollection_64">
    <g clip-path="url(#pad0131e1aa)">
     <use xlink:href="#m497f20febc" x="763.081759" y="130.009092" style="fill: #ff00ff; fill-opacity: 0.75; stroke: #000000; stroke-opacity: 0.75"/>
    </g>
   </g>
   <g id="PathCollection_65">
    <g clip-path="url(#pad0131e1aa)">
     <use xlink:href="#m497f20febc" x="768.466301" y="121.213517" style="fill: #ff00ff; fill-opacity: 0.75; stroke: #000000; stroke-opacity: 0.75"/>
    </g>
   </g>
   <g id="PathCollection_66">
    <g clip-path="url(#pad0131e1aa)">
     <use xlink:href="#m497f20febc" x="839.627338" y="326.832836" style="fill: #ff00ff; fill-opacity: 0.75; stroke: #000000; stroke-opacity: 0.75"/>
    </g>
   </g>
   <g id="PathCollection_67">
    <g clip-path="url(#pad0131e1aa)">
     <use xlink:href="#m497f20febc" x="758.007417" y="375.942223" style="fill: #ff00ff; fill-opacity: 0.75; stroke: #000000; stroke-opacity: 0.75"/>
    </g>
   </g>
   <g id="PathCollection_68">
    <g clip-path="url(#pad0131e1aa)">
     <use xlink:href="#m497f20febc" x="739.693828" y="346.732594" style="fill: #ff00ff; fill-opacity: 0.75; stroke: #000000; stroke-opacity: 0.75"/>
    </g>
   </g>
   <g id="PathCollection_69">
    <g clip-path="url(#pad0131e1aa)">
     <use xlink:href="#m497f20febc" x="808.955034" y="341.630654" style="fill: #ff00ff; fill-opacity: 0.75; stroke: #000000; stroke-opacity: 0.75"/>
    </g>
   </g>
   <g id="PathCollection_70">
    <g clip-path="url(#pad0131e1aa)">
     <use xlink:href="#m497f20febc" x="816.407639" y="195.65989" style="fill: #ff00ff; fill-opacity: 0.75; stroke: #000000; stroke-opacity: 0.75"/>
    </g>
   </g>
   <g id="PathCollection_71">
    <g clip-path="url(#pad0131e1aa)">
     <use xlink:href="#m8e6accc041" x="806.79829" y="245.679286" style="fill: #008000; fill-opacity: 0.75; stroke: #000000; stroke-opacity: 0.75"/>
    </g>
   </g>
   <g id="PathCollection_72">
    <g clip-path="url(#pad0131e1aa)">
     <use xlink:href="#m8e6accc041" x="773.590636" y="336.006426" style="fill: #008000; fill-opacity: 0.75; stroke: #000000; stroke-opacity: 0.75"/>
    </g>
   </g>
   <g id="PathCollection_73">
    <g clip-path="url(#pad0131e1aa)">
     <use xlink:href="#m8e6accc041" x="813.06469" y="332.250588" style="fill: #008000; fill-opacity: 0.75; stroke: #000000; stroke-opacity: 0.75"/>
    </g>
   </g>
   <g id="PathCollection_74">
    <g clip-path="url(#pad0131e1aa)">
     <use xlink:href="#m8e6accc041" x="748.610534" y="97.957404" style="fill: #008000; fill-opacity: 0.75; stroke: #000000; stroke-opacity: 0.75"/>
    </g>
   </g>
   <g id="PathCollection_75">
    <g clip-path="url(#pad0131e1aa)">
     <use xlink:href="#m8e6accc041" x="822.555846" y="220.227728" style="fill: #008000; fill-opacity: 0.75; stroke: #000000; stroke-opacity: 0.75"/>
    </g>
   </g>
   <g id="PathCollection_76">
    <g clip-path="url(#pad0131e1aa)">
     <use xlink:href="#m8e6accc041" x="809.882398" y="189.548956" style="fill: #008000; fill-opacity: 0.75; stroke: #000000; stroke-opacity: 0.75"/>
    </g>
   </g>
   <g id="PathCollection_77">
    <g clip-path="url(#pad0131e1aa)">
     <use xlink:href="#m8e6accc041" x="826.021133" y="226.916237" style="fill: #008000; fill-opacity: 0.75; stroke: #000000; stroke-opacity: 0.75"/>
    </g>
   </g>
   <g id="PathCollection_78">
    <g clip-path="url(#pad0131e1aa)">
     <use xlink:href="#m8e6accc041" x="793.330588" y="304.391397" style="fill: #008000; fill-opacity: 0.75; stroke: #000000; stroke-opacity: 0.75"/>
    </g>
   </g>
   <g id="PathCollection_79">
    <g clip-path="url(#pad0131e1aa)">
     <use xlink:href="#m8e6accc041" x="740.046254" y="120.395449" style="fill: #008000; fill-opacity: 0.75; stroke: #000000; stroke-opacity: 0.75"/>
    </g>
   </g>
   <g id="PathCollection_80">
    <g clip-path="url(#pad0131e1aa)">
     <use xlink:href="#m8e6accc041" x="807.692865" y="202.263597" style="fill: #008000; fill-opacity: 0.75; stroke: #000000; stroke-opacity: 0.75"/>
    </g>
   </g>
   <g id="PathCollection_81">
    <g clip-path="url(#pad0131e1aa)">
     <use xlink:href="#m8e6accc041" x="830.124615" y="254.76084" style="fill: #008000; fill-opacity: 0.75; stroke: #000000; stroke-opacity: 0.75"/>
    </g>
   </g>
   <g id="PolyCollection_2">
    <defs>
     <path id="m793d0dba6f" d="M 697.090909 -28.458594 
L 697.090909 -231.367685 
L 697.090909 -231.367685 
L 697.090909 -231.367685 
L 697.090909 -231.367685 
L 697.090909 -231.367685 
L 697.090909 -231.367685 
L 697.090909 -231.367685 
L 697.090909 -231.367685 
L 697.090909 -231.367685 
L 697.090909 -231.367685 
L 697.090909 -231.367685 
L 697.090909 -231.367685 
L 697.090909 -231.367685 
L 697.090909 -231.367685 
L 697.090909 -231.367685 
L 697.090909 -231.367685 
L 697.090909 -231.367685 
L 697.090909 -231.367685 
L 697.090909 -231.367685 
L 697.090909 -231.367685 
L 697.090909 -231.367685 
L 697.090909 -231.367685 
L 697.090909 -231.367685 
L 697.090909 -231.367685 
L 697.090909 -231.367685 
L 697.090909 -231.367685 
L 697.090909 -231.367685 
L 697.090909 -231.367685 
L 697.090909 -231.367685 
L 697.090909 -231.367685 
L 697.090909 -231.367685 
L 697.090909 -231.367685 
L 697.090909 -231.367685 
L 697.090909 -231.367685 
L 697.090909 -231.367685 
L 697.090909 -231.367685 
L 697.090909 -231.367685 
L 697.090909 -231.367685 
L 697.090909 -231.367685 
L 697.090909 -231.367685 
L 697.090909 -231.367685 
L 697.090909 -231.367685 
L 697.090909 -231.367685 
L 697.090909 -231.367685 
L 697.090909 -231.367685 
L 697.090909 -231.367685 
L 697.090909 -231.367685 
L 697.090909 -231.367685 
L 697.090909 -231.367685 
L 697.090909 -231.367685 
L 697.090909 -231.367685 
L 697.090909 -231.367685 
L 697.090909 -231.367685 
L 697.090909 -231.367685 
L 697.090909 -231.367685 
L 697.090909 -231.367685 
L 697.090909 -231.367685 
L 697.090909 -231.367685 
L 697.090909 -231.367685 
L 697.090909 -231.367685 
L 697.090909 -231.367685 
L 697.090909 -231.367685 
L 697.090909 -231.367685 
L 697.090909 -231.367685 
L 697.090909 -231.367685 
L 697.090909 -231.367685 
L 697.090909 -231.367685 
L 697.090909 -231.367685 
L 697.090909 -231.367685 
L 697.090909 -231.367685 
L 697.090909 -231.367685 
L 697.090909 -231.367685 
L 697.090909 -231.367685 
L 697.090909 -231.367685 
L 697.090909 -231.367685 
L 697.090909 -231.367685 
L 697.090909 -231.367685 
L 697.090909 -231.367685 
L 697.090909 -231.367685 
L 697.090909 -231.367685 
L 697.090909 -231.367685 
L 697.090909 -231.367685 
L 697.090909 -231.367685 
L 697.090909 -231.367685 
L 697.090909 -231.367685 
L 697.090909 -231.367685 
L 697.090909 -231.367685 
L 697.090909 -231.367685 
L 697.090909 -231.367685 
L 697.090909 -231.367685 
L 697.090909 -231.367685 
L 697.090909 -231.367685 
L 697.090909 -231.367685 
L 697.090909 -231.367685 
L 697.090909 -231.367685 
L 697.090909 -231.367685 
L 697.090909 -231.367685 
L 697.090909 -231.367685 
L 697.090909 -231.367685 
L 697.090909 -231.367685 
L 697.090909 -434.276776 
L 697.090909 -434.276776 
L 690.653023 -434.174619 
L 684.221619 -433.868254 
L 677.803174 -433.357987 
L 671.404149 -432.644334 
L 665.030989 -431.728012 
L 658.690111 -430.609944 
L 652.387899 -429.291256 
L 646.130699 -427.773276 
L 639.924812 -426.057532 
L 633.776486 -424.145751 
L 627.691913 -422.03986 
L 621.677218 -419.741978 
L 615.738459 -417.254419 
L 609.881614 -414.579688 
L 604.112582 -411.720478 
L 598.437171 -408.679667 
L 592.861097 -405.460319 
L 587.389972 -402.065674 
L 582.029308 -398.499151 
L 576.7845 -394.764341 
L 571.660831 -390.865004 
L 566.66346 -386.805066 
L 561.797417 -382.588617 
L 557.067604 -378.2199 
L 552.478783 -373.703316 
L 548.035573 -369.043413 
L 543.74245 -364.244881 
L 539.603736 -359.312553 
L 535.623597 -354.251396 
L 531.806043 -349.066505 
L 528.154917 -343.763101 
L 524.673895 -338.346525 
L 521.366482 -332.82223 
L 518.236008 -327.195779 
L 515.285627 -321.472837 
L 512.518308 -315.659167 
L 509.936838 -309.760623 
L 507.543816 -303.783143 
L 505.341652 -297.732748 
L 503.332563 -291.615528 
L 501.518573 -285.437644 
L 499.901507 -279.205316 
L 498.482995 -272.924819 
L 497.264463 -266.602479 
L 496.24714 -260.244659 
L 495.43205 -253.857763 
L 494.820013 -247.448221 
L 494.411645 -241.022488 
L 494.207359 -234.587033 
L 494.207359 -228.148336 
L 494.411645 -221.712881 
L 494.820013 -215.287148 
L 495.43205 -208.877606 
L 496.24714 -202.49071 
L 497.264463 -196.132891 
L 498.482995 -189.81055 
L 499.901507 -183.530053 
L 501.518573 -177.297725 
L 503.332563 -171.119841 
L 505.341652 -165.002622 
L 507.543816 -158.952226 
L 509.936838 -152.974746 
L 512.518308 -147.076202 
L 515.285627 -141.262532 
L 518.236008 -135.53959 
L 521.366482 -129.913139 
L 524.673895 -124.388844 
L 528.154917 -118.972268 
L 531.806043 -113.668864 
L 535.623597 -108.483974 
L 539.603736 -103.422816 
L 543.74245 -98.490488 
L 548.035573 -93.691957 
L 552.478783 -89.032053 
L 557.067604 -84.515469 
L 561.797417 -80.146753 
L 566.66346 -75.930303 
L 571.660831 -71.870366 
L 576.7845 -67.971029 
L 582.029308 -64.236218 
L 587.389972 -60.669695 
L 592.861097 -57.27505 
L 598.437171 -54.055702 
L 604.112582 -51.014892 
L 609.881614 -48.155682 
L 615.738459 -45.48095 
L 621.677218 -42.993391 
L 627.691913 -40.695509 
L 633.776486 -38.589618 
L 639.924812 -36.677838 
L 646.130699 -34.962094 
L 652.387899 -33.444113 
L 658.690111 -32.125425 
L 665.030989 -31.007357 
L 671.404149 -30.091035 
L 677.803174 -29.377382 
L 684.221619 -28.867115 
L 690.653023 -28.56075 
L 697.090909 -28.458594 
z
" style="stroke: #ffffff"/>
    </defs>
    <g clip-path="url(#pad0131e1aa)">
     <use xlink:href="#m793d0dba6f" x="0" y="482.412557" style="fill: #ffffff; stroke: #ffffff"/>
    </g>
   </g>
   <g id="matplotlib.axis_3">
    <g id="xtick_8">
     <g id="line2d_15">
      <path d="M 697.090909 251.044872 
L 697.090909 48.135781 
" clip-path="url(#pad0131e1aa)" style="fill: none; stroke: #b0b0b0; stroke-width: 0.8; stroke-linecap: square"/>
     </g>
     <g id="text_9">
      <!-- 0° -->
      <g transform="translate(688.569034 38.274844) scale(0.15 -0.15)">
       <use xlink:href="#DejaVuSans-30"/>
       <use xlink:href="#DejaVuSans-b0" x="63.623047"/>
      </g>
     </g>
    </g>
    <g id="xtick_9">
     <g id="line2d_16">
      <path d="M 697.090909 251.044872 
L 798.545455 75.320445 
" clip-path="url(#pad0131e1aa)" style="fill: none; stroke: #b0b0b0; stroke-width: 0.8; stroke-linecap: square"/>
     </g>
     <g id="text_10">
      <!-- 30° -->
      <g transform="translate(792.251705 67.335152) scale(0.15 -0.15)">
       <use xlink:href="#DejaVuSans-33"/>
       <use xlink:href="#DejaVuSans-30" x="63.623047"/>
       <use xlink:href="#DejaVuSans-b0" x="127.246094"/>
      </g>
     </g>
    </g>
    <g id="xtick_10">
     <g id="line2d_17">
      <path d="M 697.090909 251.044872 
L 872.815336 149.590327 
" clip-path="url(#pad0131e1aa)" style="fill: none; stroke: #b0b0b0; stroke-width: 0.8; stroke-linecap: square"/>
     </g>
     <g id="text_11">
      <!-- 60° -->
      <g transform="translate(871.645942 146.729389) scale(0.15 -0.15)">
       <use xlink:href="#DejaVuSans-36"/>
       <use xlink:href="#DejaVuSans-30" x="63.623047"/>
       <use xlink:href="#DejaVuSans-b0" x="127.246094"/>
      </g>
     </g>
    </g>
    <g id="xtick_11">
     <g id="line2d_18">
      <path d="M 697.090909 251.044872 
L 900 251.044872 
" clip-path="url(#pad0131e1aa)" style="fill: none; stroke: #b0b0b0; stroke-width: 0.8; stroke-linecap: square"/>
     </g>
     <g id="text_12">
      <!-- 90° -->
      <g transform="translate(900.70625 255.183935) scale(0.15 -0.15)">
       <use xlink:href="#DejaVuSans-39"/>
       <use xlink:href="#DejaVuSans-30" x="63.623047"/>
       <use xlink:href="#DejaVuSans-b0" x="127.246094"/>
      </g>
     </g>
    </g>
    <g id="xtick_12">
     <g id="line2d_19">
      <path d="M 697.090909 251.044872 
L 872.815336 352.499418 
" clip-path="url(#pad0131e1aa)" style="fill: none; stroke: #b0b0b0; stroke-width: 0.8; stroke-linecap: square"/>
     </g>
     <g id="text_13">
      <!-- 120° -->
      <g transform="translate(866.874067 363.63848) scale(0.15 -0.15)">
       <use xlink:href="#DejaVuSans-31"/>
       <use xlink:href="#DejaVuSans-32" x="63.623047"/>
       <use xlink:href="#DejaVuSans-30" x="127.246094"/>
       <use xlink:href="#DejaVuSans-b0" x="190.869141"/>
      </g>
     </g>
    </g>
    <g id="xtick_13">
     <g id="line2d_20">
      <path d="M 697.090909 251.044872 
L 798.545455 426.7693 
" clip-path="url(#pad0131e1aa)" style="fill: none; stroke: #b0b0b0; stroke-width: 0.8; stroke-linecap: square"/>
     </g>
     <g id="text_14">
      <!-- 150° -->
      <g transform="translate(787.47983 443.032718) scale(0.15 -0.15)">
       <use xlink:href="#DejaVuSans-31"/>
       <use xlink:href="#DejaVuSans-35" x="63.623047"/>
       <use xlink:href="#DejaVuSans-30" x="127.246094"/>
       <use xlink:href="#DejaVuSans-b0" x="190.869141"/>
      </g>
     </g>
    </g>
    <g id="xtick_14">
     <g id="line2d_21">
      <path d="M 697.090909 251.044872 
L 697.090909 453.953963 
" clip-path="url(#pad0131e1aa)" style="fill: none; stroke: #b0b0b0; stroke-width: 0.8; stroke-linecap: square"/>
     </g>
     <g id="text_15">
      <!-- 180° -->
      <g transform="translate(679.025284 472.093026) scale(0.15 -0.15)">
       <use xlink:href="#DejaVuSans-31"/>
       <use xlink:href="#DejaVuSans-38" x="63.623047"/>
       <use xlink:href="#DejaVuSans-30" x="127.246094"/>
       <use xlink:href="#DejaVuSans-b0" x="190.869141"/>
      </g>
     </g>
    </g>
   </g>
   <g id="matplotlib.axis_4">
    <g id="ytick_8">
     <g id="line2d_22">
      <path d="M 697.090909 223.990327 
C 700.643679 223.990327 704.161904 224.690145 707.444235 226.049731 
C 710.726567 227.409318 713.709174 229.402232 716.221362 231.91442 
C 718.73355 234.426608 720.726464 237.409214 722.08605 240.691546 
C 723.445636 243.973878 724.145455 247.492102 724.145455 251.044872 
C 724.145455 254.597643 723.445636 258.115867 722.08605 261.398198 
C 720.726464 264.68053 718.73355 267.663137 716.221362 270.175325 
C 713.709174 272.687513 710.726567 274.680427 707.444235 276.040013 
C 704.161904 277.399599 700.643679 278.099418 697.090909 278.099418 
C 693.538139 278.099418 690.019915 277.399599 686.737583 276.040013 
C 683.455251 274.680427 680.472645 272.687513 677.960457 270.175325 
C 675.448269 267.663137 673.455355 264.68053 672.095768 261.398198 
C 670.736182 258.115867 670.036364 254.597643 670.036364 251.044872 
C 670.036364 247.492102 670.736182 243.973878 672.095768 240.691546 
C 673.455355 237.409214 675.448269 234.426608 677.960457 231.91442 
C 680.472645 229.402232 683.455251 227.409318 686.737583 226.049731 
C 690.019915 224.690145 693.538139 223.990327 697.090909 223.990327 
" clip-path="url(#pad0131e1aa)" style="fill: none; stroke: #b0b0b0; stroke-width: 0.8; stroke-linecap: square"/>
     </g>
    </g>
    <g id="ytick_9">
     <g id="line2d_23">
      <path d="M 697.090909 196.935781 
C 704.19645 196.935781 711.232898 198.335418 717.797562 201.054591 
C 724.362225 203.773763 730.327438 207.759591 735.351814 212.783967 
C 740.37619 217.808343 744.362018 223.773556 747.081191 230.33822 
C 749.800363 236.902883 751.2 243.939331 751.2 251.044872 
C 751.2 258.150413 749.800363 265.186861 747.081191 271.751525 
C 744.362018 278.316188 740.37619 284.281401 735.351814 289.305777 
C 730.327438 294.330153 724.362225 298.315981 717.797562 301.035154 
C 711.232898 303.754326 704.19645 305.153963 697.090909 305.153963 
C 689.985368 305.153963 682.94892 303.754326 676.384256 301.035154 
C 669.819593 298.315981 663.85438 294.330153 658.830004 289.305777 
C 653.805628 284.281401 649.8198 278.316188 647.100627 271.751525 
C 644.381455 265.186861 642.981818 258.150413 642.981818 251.044872 
C 642.981818 243.939331 644.381455 236.902883 647.100627 230.33822 
C 649.8198 223.773556 653.805628 217.808343 658.830004 212.783967 
C 663.85438 207.759591 669.819593 203.773763 676.384256 201.054591 
C 682.94892 198.335418 689.985368 196.935781 697.090909 196.935781 
" clip-path="url(#pad0131e1aa)" style="fill: none; stroke: #b0b0b0; stroke-width: 0.8; stroke-linecap: square"/>
     </g>
    </g>
    <g id="ytick_10">
     <g id="line2d_24">
      <path d="M 697.090909 169.881236 
C 707.74922 169.881236 718.303893 171.980691 728.150888 176.05945 
C 737.997883 180.138209 746.945703 186.11695 754.482267 193.653515 
C 762.018831 201.190079 767.997572 210.137898 772.076332 219.984893 
C 776.155091 229.831889 778.254545 240.386561 778.254545 251.044872 
C 778.254545 261.703183 776.155091 272.257856 772.076332 282.104851 
C 767.997572 291.951847 762.018831 300.899666 754.482267 308.43623 
C 746.945703 315.972794 737.997883 321.951536 728.150888 326.030295 
C 718.303893 330.109054 707.74922 332.208509 697.090909 332.208509 
C 686.432598 332.208509 675.877926 330.109054 666.03093 326.030295 
C 656.183935 321.951536 647.236115 315.972794 639.699551 308.43623 
C 632.162987 300.899666 626.184246 291.951847 622.105487 282.104851 
C 618.026728 272.257856 615.927273 261.703183 615.927273 251.044872 
C 615.927273 240.386561 618.026728 229.831889 622.105487 219.984893 
C 626.184246 210.137898 632.162987 201.190079 639.699551 193.653515 
C 647.236115 186.11695 656.183935 180.138209 666.03093 176.05945 
C 675.877926 171.980691 686.432598 169.881236 697.090909 169.881236 
" clip-path="url(#pad0131e1aa)" style="fill: none; stroke: #b0b0b0; stroke-width: 0.8; stroke-linecap: square"/>
     </g>
    </g>
    <g id="ytick_11">
     <g id="line2d_25">
      <path d="M 697.090909 142.82669 
C 711.301991 142.82669 725.374887 145.625964 738.504214 151.064309 
C 751.633542 156.502654 763.563967 164.47431 773.612719 174.523062 
C 783.661471 184.571814 791.633127 196.50224 797.071472 209.631567 
C 802.509818 222.760894 805.309091 236.833791 805.309091 251.044872 
C 805.309091 265.255954 802.509818 279.32885 797.071472 292.458177 
C 791.633127 305.587505 783.661471 317.51793 773.612719 327.566682 
C 763.563967 337.615434 751.633542 345.58709 738.504214 351.025435 
C 725.374887 356.463781 711.301991 359.263054 697.090909 359.263054 
C 682.879828 359.263054 668.806931 356.463781 655.677604 351.025435 
C 642.548277 345.58709 630.617851 337.615434 620.569099 327.566682 
C 610.520347 317.51793 602.548691 305.587505 597.110346 292.458177 
C 591.672 279.32885 588.872727 265.255954 588.872727 251.044872 
C 588.872727 236.833791 591.672 222.760894 597.110346 209.631567 
C 602.548691 196.50224 610.520347 184.571814 620.569099 174.523062 
C 630.617851 164.47431 642.548277 156.502654 655.677604 151.064309 
C 668.806931 145.625964 682.879828 142.82669 697.090909 142.82669 
" clip-path="url(#pad0131e1aa)" style="fill: none; stroke: #b0b0b0; stroke-width: 0.8; stroke-linecap: square"/>
     </g>
    </g>
    <g id="ytick_12">
     <g id="line2d_26">
      <path d="M 697.090909 115.772145 
C 714.854761 115.772145 732.445882 119.271236 748.857541 126.069168 
C 765.2692 132.8671 780.182232 142.831669 792.743172 155.392609 
C 805.304112 167.953549 815.268681 182.866581 822.066613 199.278241 
C 828.864545 215.6899 832.363636 233.28102 832.363636 251.044872 
C 832.363636 268.808724 828.864545 286.399845 822.066613 302.811504 
C 815.268681 319.223163 805.304112 334.136195 792.743172 346.697135 
C 780.182232 359.258075 765.2692 369.222644 748.857541 376.020576 
C 732.445882 382.818508 714.854761 386.317599 697.090909 386.317599 
C 679.327057 386.317599 661.735937 382.818508 645.324278 376.020576 
C 628.912618 369.222644 613.999586 359.258075 601.438646 346.697135 
C 588.877706 334.136195 578.913137 319.223163 572.115205 302.811504 
C 565.317273 286.399845 561.818182 268.808724 561.818182 251.044872 
C 561.818182 233.28102 565.317273 215.6899 572.115205 199.278241 
C 578.913137 182.866581 588.877706 167.953549 601.438646 155.392609 
C 613.999586 142.831669 628.912618 132.8671 645.324278 126.069168 
C 661.735937 119.271236 679.327057 115.772145 697.090909 115.772145 
" clip-path="url(#pad0131e1aa)" style="fill: none; stroke: #b0b0b0; stroke-width: 0.8; stroke-linecap: square"/>
     </g>
    </g>
    <g id="ytick_13">
     <g id="line2d_27">
      <path d="M 697.090909 88.717599 
C 718.407531 88.717599 739.516876 92.916509 759.210867 101.074027 
C 778.904858 109.231545 796.800496 121.189029 811.873624 136.262157 
C 826.946752 151.335285 838.904236 169.230923 847.061754 188.924914 
C 855.219272 208.618905 859.418182 229.72825 859.418182 251.044872 
C 859.418182 272.361494 855.219272 293.470839 847.061754 313.16483 
C 838.904236 332.858821 826.946752 350.754459 811.873624 365.827587 
C 796.800496 380.900716 778.904858 392.858199 759.210867 401.015717 
C 739.516876 409.173235 718.407531 413.372145 697.090909 413.372145 
C 675.774287 413.372145 654.664942 409.173235 634.970951 401.015717 
C 615.27696 392.858199 597.381322 380.900716 582.308194 365.827587 
C 567.235066 350.754459 555.277582 332.858821 547.120064 313.16483 
C 538.962546 293.470839 534.763636 272.361494 534.763636 251.044872 
C 534.763636 229.72825 538.962546 208.618905 547.120064 188.924914 
C 555.277582 169.230923 567.235066 151.335285 582.308194 136.262157 
C 597.381322 121.189029 615.27696 109.231545 634.970951 101.074027 
C 654.664942 92.916509 675.774287 88.717599 697.090909 88.717599 
" clip-path="url(#pad0131e1aa)" style="fill: none; stroke: #b0b0b0; stroke-width: 0.8; stroke-linecap: square"/>
     </g>
    </g>
    <g id="ytick_14">
     <g id="line2d_28">
      <path d="M 697.090909 61.663054 
C 721.960302 61.663054 746.587871 66.561782 769.564193 76.078887 
C 792.540516 85.595991 813.418761 99.546388 831.004077 117.131704 
C 848.589393 134.71702 862.53979 155.595265 872.056895 178.571588 
C 881.573999 201.547911 886.472727 226.17548 886.472727 251.044872 
C 886.472727 275.914265 881.573999 300.541834 872.056895 323.518156 
C 862.53979 346.494479 848.589393 367.372724 831.004077 384.95804 
C 813.418761 402.543356 792.540516 416.493753 769.564193 426.010858 
C 746.587871 435.527962 721.960302 440.42669 697.090909 440.42669 
C 672.221517 440.42669 647.593948 435.527962 624.617625 426.010858 
C 601.641302 416.493753 580.763057 402.543356 563.177741 384.95804 
C 545.592425 367.372724 531.642028 346.494479 522.124923 323.518156 
C 512.607819 300.541834 507.709091 275.914265 507.709091 251.044872 
C 507.709091 226.17548 512.607819 201.547911 522.124923 178.571588 
C 531.642028 155.595265 545.592425 134.71702 563.177741 117.131704 
C 580.763057 99.546388 601.641302 85.595991 624.617625 76.078887 
C 647.593948 66.561782 672.221517 61.663054 697.090909 61.663054 
" clip-path="url(#pad0131e1aa)" style="fill: none; stroke: #b0b0b0; stroke-width: 0.8; stroke-linecap: square"/>
     </g>
    </g>
   </g>
   <g id="patch_5">
    <path d="M 697.090909 48.135781 
C 670.445131 48.135781 644.05845 53.384418 619.440962 63.581316 
C 594.823473 73.778214 572.453925 88.725068 553.612515 107.566478 
C 534.771105 126.407888 519.824251 148.777436 509.627353 173.394925 
C 499.430455 198.012413 494.181818 224.399094 494.181818 251.044872 
C 494.181818 277.69065 499.430455 304.077331 509.627353 328.69482 
C 519.824251 353.312308 534.771105 375.681856 553.612515 394.523266 
C 572.453925 413.364676 594.823473 428.311531 619.440962 438.508428 
C 644.05845 448.705326 670.445131 453.953963 697.090909 453.953963 
C 723.736687 453.953963 750.123368 448.705326 774.740856 438.508428 
C 799.358345 428.311531 821.727893 413.364676 840.569303 394.523266 
C 859.410713 375.681856 874.357567 353.312308 884.554465 328.69482 
C 894.751363 304.077331 900 277.69065 900 251.044872 
C 900 224.399094 894.751363 198.012413 884.554465 173.394925 
C 874.357567 148.777436 859.410713 126.407888 840.569303 107.566478 
C 821.727893 88.725068 799.358345 73.778214 774.740856 63.581316 
C 750.123368 53.384418 723.736687 48.135781 697.090909 48.135781 
" style="fill: none; stroke: #000000; stroke-width: 0.8; stroke-linejoin: miter; stroke-linecap: square"/>
   </g>
   <g id="text_16">
    <!-- PP4KO AC and BC -->
    <g transform="translate(608.058409 20.877187) scale(0.18 -0.18)">
     <defs>
      <path id="DejaVuSans-Bold-50" d="M 588 4666 
L 2584 4666 
Q 3475 4666 3951 4270 
Q 4428 3875 4428 3144 
Q 4428 2409 3951 2014 
Q 3475 1619 2584 1619 
L 1791 1619 
L 1791 0 
L 588 0 
L 588 4666 
z
M 1791 3794 
L 1791 2491 
L 2456 2491 
Q 2806 2491 2997 2661 
Q 3188 2831 3188 3144 
Q 3188 3456 2997 3625 
Q 2806 3794 2456 3794 
L 1791 3794 
z
" transform="scale(0.015625)"/>
      <path id="DejaVuSans-Bold-34" d="M 2356 3675 
L 1038 1722 
L 2356 1722 
L 2356 3675 
z
M 2156 4666 
L 3494 4666 
L 3494 1722 
L 4159 1722 
L 4159 850 
L 3494 850 
L 3494 0 
L 2356 0 
L 2356 850 
L 288 850 
L 288 1881 
L 2156 4666 
z
" transform="scale(0.015625)"/>
      <path id="DejaVuSans-Bold-4b" d="M 588 4666 
L 1791 4666 
L 1791 2963 
L 3525 4666 
L 4922 4666 
L 2675 2456 
L 5153 0 
L 3647 0 
L 1791 1838 
L 1791 0 
L 588 0 
L 588 4666 
z
" transform="scale(0.015625)"/>
      <path id="DejaVuSans-Bold-4f" d="M 2719 3878 
Q 2169 3878 1866 3472 
Q 1563 3066 1563 2328 
Q 1563 1594 1866 1187 
Q 2169 781 2719 781 
Q 3272 781 3575 1187 
Q 3878 1594 3878 2328 
Q 3878 3066 3575 3472 
Q 3272 3878 2719 3878 
z
M 2719 4750 
Q 3844 4750 4481 4106 
Q 5119 3463 5119 2328 
Q 5119 1197 4481 553 
Q 3844 -91 2719 -91 
Q 1597 -91 958 553 
Q 319 1197 319 2328 
Q 319 3463 958 4106 
Q 1597 4750 2719 4750 
z
" transform="scale(0.015625)"/>
     </defs>
     <use xlink:href="#DejaVuSans-Bold-50"/>
     <use xlink:href="#DejaVuSans-Bold-50" x="73.291016"/>
     <use xlink:href="#DejaVuSans-Bold-34" x="146.582031"/>
     <use xlink:href="#DejaVuSans-Bold-4b" x="216.162109"/>
     <use xlink:href="#DejaVuSans-Bold-4f" x="289.152344"/>
     <use xlink:href="#DejaVuSans-Bold-20" x="374.162109"/>
     <use xlink:href="#DejaVuSans-Bold-41" x="408.976562"/>
     <use xlink:href="#DejaVuSans-Bold-43" x="486.369141"/>
     <use xlink:href="#DejaVuSans-Bold-20" x="559.757812"/>
     <use xlink:href="#DejaVuSans-Bold-61" x="594.572266"/>
     <use xlink:href="#DejaVuSans-Bold-6e" x="662.052734"/>
     <use xlink:href="#DejaVuSans-Bold-64" x="733.244141"/>
     <use xlink:href="#DejaVuSans-Bold-20" x="804.826172"/>
     <use xlink:href="#DejaVuSans-Bold-42" x="839.640625"/>
     <use xlink:href="#DejaVuSans-Bold-43" x="915.861328"/>
    </g>
   </g>
  </g>
 </g>
 <defs>
  <clipPath id="p6827aeb424">
   <path d="M 413.018182 251.044872 
C 413.018182 224.399094 407.769545 198.012413 397.572647 173.394925 
C 387.375749 148.777436 372.428895 126.407888 353.587485 107.566478 
C 334.746075 88.725068 312.376527 73.778214 287.759038 63.581316 
C 263.14155 53.384418 236.754869 48.135781 210.109091 48.135781 
C 183.463313 48.135781 157.076632 53.384418 132.459144 63.581316 
C 107.841655 73.778214 85.472107 88.725068 66.630697 107.566478 
C 47.789287 126.407888 32.842433 148.777436 22.645535 173.394925 
C 12.448637 198.012413 7.2 224.399094 7.2 251.044872 
C 7.2 277.69065 12.448637 304.077331 22.645535 328.69482 
C 32.842433 353.312308 47.789287 375.681856 66.630697 394.523266 
C 85.472107 413.364676 107.841655 428.311531 132.459144 438.508428 
C 157.076632 448.705326 183.463313 453.953963 210.109091 453.953963 
C 236.754869 453.953963 263.14155 448.705326 287.759038 438.508428 
C 312.376527 428.311531 334.746075 413.364676 353.587485 394.523266 
C 372.428895 375.681856 387.375749 353.312308 397.572647 328.69482 
C 407.769545 304.077331 413.018182 277.69065 413.018182 251.044872 
M 210.109091 251.044872 
C 210.109091 251.044872 210.109091 251.044872 210.109091 251.044872 
C 210.109091 251.044872 210.109091 251.044872 210.109091 251.044872 
C 210.109091 251.044872 210.109091 251.044872 210.109091 251.044872 
C 210.109091 251.044872 210.109091 251.044872 210.109091 251.044872 
C 210.109091 251.044872 210.109091 251.044872 210.109091 251.044872 
C 210.109091 251.044872 210.109091 251.044872 210.109091 251.044872 
C 210.109091 251.044872 210.109091 251.044872 210.109091 251.044872 
C 210.109091 251.044872 210.109091 251.044872 210.109091 251.044872 
C 210.109091 251.044872 210.109091 251.044872 210.109091 251.044872 
C 210.109091 251.044872 210.109091 251.044872 210.109091 251.044872 
C 210.109091 251.044872 210.109091 251.044872 210.109091 251.044872 
C 210.109091 251.044872 210.109091 251.044872 210.109091 251.044872 
C 210.109091 251.044872 210.109091 251.044872 210.109091 251.044872 
C 210.109091 251.044872 210.109091 251.044872 210.109091 251.044872 
C 210.109091 251.044872 210.109091 251.044872 210.109091 251.044872 
C 210.109091 251.044872 210.109091 251.044872 210.109091 251.044872 
z
"/>
  </clipPath>
  <clipPath id="pad0131e1aa">
   <path d="M 900 251.044872 
C 900 224.399094 894.751363 198.012413 884.554465 173.394925 
C 874.357567 148.777436 859.410713 126.407888 840.569303 107.566478 
C 821.727893 88.725068 799.358345 73.778214 774.740856 63.581316 
C 750.123368 53.384418 723.736687 48.135781 697.090909 48.135781 
C 670.445131 48.135781 644.05845 53.384418 619.440962 63.581316 
C 594.823473 73.778214 572.453925 88.725068 553.612515 107.566478 
C 534.771105 126.407888 519.824251 148.777436 509.627353 173.394925 
C 499.430455 198.012413 494.181818 224.399094 494.181818 251.044872 
C 494.181818 277.69065 499.430455 304.077331 509.627353 328.69482 
C 519.824251 353.312308 534.771105 375.681856 553.612515 394.523266 
C 572.453925 413.364676 594.823473 428.311531 619.440962 438.508428 
C 644.05845 448.705326 670.445131 453.953963 697.090909 453.953963 
C 723.736687 453.953963 750.123368 448.705326 774.740856 438.508428 
C 799.358345 428.311531 821.727893 413.364676 840.569303 394.523266 
C 859.410713 375.681856 874.357567 353.312308 884.554465 328.69482 
C 894.751363 304.077331 900 277.69065 900 251.044872 
M 697.090909 251.044872 
C 697.090909 251.044872 697.090909 251.044872 697.090909 251.044872 
C 697.090909 251.044872 697.090909 251.044872 697.090909 251.044872 
C 697.090909 251.044872 697.090909 251.044872 697.090909 251.044872 
C 697.090909 251.044872 697.090909 251.044872 697.090909 251.044872 
C 697.090909 251.044872 697.090909 251.044872 697.090909 251.044872 
C 697.090909 251.044872 697.090909 251.044872 697.090909 251.044872 
C 697.090909 251.044872 697.090909 251.044872 697.090909 251.044872 
C 697.090909 251.044872 697.090909 251.044872 697.090909 251.044872 
C 697.090909 251.044872 697.090909 251.044872 697.090909 251.044872 
C 697.090909 251.044872 697.090909 251.044872 697.090909 251.044872 
C 697.090909 251.044872 697.090909 251.044872 697.090909 251.044872 
C 697.090909 251.044872 697.090909 251.044872 697.090909 251.044872 
C 697.090909 251.044872 697.090909 251.044872 697.090909 251.044872 
C 697.090909 251.044872 697.090909 251.044872 697.090909 251.044872 
C 697.090909 251.044872 697.090909 251.044872 697.090909 251.044872 
C 697.090909 251.044872 697.090909 251.044872 697.090909 251.044872 
z
"/>
  </clipPath>
 </defs>
</svg>
