<?xml version="1.0" encoding="utf-8" standalone="no"?>
<!DOCTYPE svg PUBLIC "-//W3C//DTD SVG 1.1//EN"
  "http://www.w3.org/Graphics/SVG/1.1/DTD/svg11.dtd">
<svg xmlns:xlink="http://www.w3.org/1999/xlink" width="578.126562pt" height="323.226062pt" viewBox="0 0 578.126562 323.226062" xmlns="http://www.w3.org/2000/svg" version="1.1">
 <metadata>
  <rdf:RDF xmlns:dc="http://purl.org/dc/elements/1.1/" xmlns:cc="http://creativecommons.org/ns#" xmlns:rdf="http://www.w3.org/1999/02/22-rdf-syntax-ns#">
   <cc:Work>
    <dc:type rdf:resource="http://purl.org/dc/dcmitype/StillImage"/>
    <dc:date>2024-12-11T14:49:50.534666</dc:date>
    <dc:format>image/svg+xml</dc:format>
    <dc:creator>
     <cc:Agent>
      <dc:title>Matplotlib v3.7.2, https://matplotlib.org/</dc:title>
     </cc:Agent>
    </dc:creator>
   </cc:Work>
  </rdf:RDF>
 </metadata>
 <defs>
  <style type="text/css">*{stroke-linejoin: round; stroke-linecap: butt}</style>
 </defs>
 <g id="figure_1">
  <g id="patch_1">
   <path d="M 0 323.226062 
L 578.126562 323.226062 
L 578.126562 0 
L 0 0 
z
" style="fill: #ffffff"/>
  </g>
  <g id="axes_1">
   <g id="patch_2">
    <path d="M 45.164375 294.508875 
L 402.284375 294.508875 
L 402.284375 28.396875 
L 45.164375 28.396875 
z
" style="fill: #ffffff"/>
   </g>
   <g id="matplotlib.axis_1">
    <g id="xtick_1">
     <g id="line2d_1">
      <defs>
       <path id="m5b8ea53ad7" d="M 0 0 
L 0 3.5 
" style="stroke: #000000; stroke-width: 0.8"/>
      </defs>
      <g>
       <use xlink:href="#m5b8ea53ad7" x="134.444375" y="294.508875" style="stroke: #000000; stroke-width: 0.8"/>
      </g>
     </g>
     <g id="text_1">
      <!-- interphase -->
      <g transform="translate(94.336953 312.906531) scale(0.15 -0.15)">
       <defs>
        <path id="DejaVuSans-69" d="M 603 3500 
L 1178 3500 
L 1178 0 
L 603 0 
L 603 3500 
z
M 603 4863 
L 1178 4863 
L 1178 4134 
L 603 4134 
L 603 4863 
z
" transform="scale(0.015625)"/>
        <path id="DejaVuSans-6e" d="M 3513 2113 
L 3513 0 
L 2938 0 
L 2938 2094 
Q 2938 2591 2744 2837 
Q 2550 3084 2163 3084 
Q 1697 3084 1428 2787 
Q 1159 2491 1159 1978 
L 1159 0 
L 581 0 
L 581 3500 
L 1159 3500 
L 1159 2956 
Q 1366 3272 1645 3428 
Q 1925 3584 2291 3584 
Q 2894 3584 3203 3211 
Q 3513 2838 3513 2113 
z
" transform="scale(0.015625)"/>
        <path id="DejaVuSans-74" d="M 1172 4494 
L 1172 3500 
L 2356 3500 
L 2356 3053 
L 1172 3053 
L 1172 1153 
Q 1172 725 1289 603 
Q 1406 481 1766 481 
L 2356 481 
L 2356 0 
L 1766 0 
Q 1100 0 847 248 
Q 594 497 594 1153 
L 594 3053 
L 172 3053 
L 172 3500 
L 594 3500 
L 594 4494 
L 1172 4494 
z
" transform="scale(0.015625)"/>
        <path id="DejaVuSans-65" d="M 3597 1894 
L 3597 1613 
L 953 1613 
Q 991 1019 1311 708 
Q 1631 397 2203 397 
Q 2534 397 2845 478 
Q 3156 559 3463 722 
L 3463 178 
Q 3153 47 2828 -22 
Q 2503 -91 2169 -91 
Q 1331 -91 842 396 
Q 353 884 353 1716 
Q 353 2575 817 3079 
Q 1281 3584 2069 3584 
Q 2775 3584 3186 3129 
Q 3597 2675 3597 1894 
z
M 3022 2063 
Q 3016 2534 2758 2815 
Q 2500 3097 2075 3097 
Q 1594 3097 1305 2825 
Q 1016 2553 972 2059 
L 3022 2063 
z
" transform="scale(0.015625)"/>
        <path id="DejaVuSans-72" d="M 2631 2963 
Q 2534 3019 2420 3045 
Q 2306 3072 2169 3072 
Q 1681 3072 1420 2755 
Q 1159 2438 1159 1844 
L 1159 0 
L 581 0 
L 581 3500 
L 1159 3500 
L 1159 2956 
Q 1341 3275 1631 3429 
Q 1922 3584 2338 3584 
Q 2397 3584 2469 3576 
Q 2541 3569 2628 3553 
L 2631 2963 
z
" transform="scale(0.015625)"/>
        <path id="DejaVuSans-70" d="M 1159 525 
L 1159 -1331 
L 581 -1331 
L 581 3500 
L 1159 3500 
L 1159 2969 
Q 1341 3281 1617 3432 
Q 1894 3584 2278 3584 
Q 2916 3584 3314 3078 
Q 3713 2572 3713 1747 
Q 3713 922 3314 415 
Q 2916 -91 2278 -91 
Q 1894 -91 1617 61 
Q 1341 213 1159 525 
z
M 3116 1747 
Q 3116 2381 2855 2742 
Q 2594 3103 2138 3103 
Q 1681 3103 1420 2742 
Q 1159 2381 1159 1747 
Q 1159 1113 1420 752 
Q 1681 391 2138 391 
Q 2594 391 2855 752 
Q 3116 1113 3116 1747 
z
" transform="scale(0.015625)"/>
        <path id="DejaVuSans-68" d="M 3513 2113 
L 3513 0 
L 2938 0 
L 2938 2094 
Q 2938 2591 2744 2837 
Q 2550 3084 2163 3084 
Q 1697 3084 1428 2787 
Q 1159 2491 1159 1978 
L 1159 0 
L 581 0 
L 581 4863 
L 1159 4863 
L 1159 2956 
Q 1366 3272 1645 3428 
Q 1925 3584 2291 3584 
Q 2894 3584 3203 3211 
Q 3513 2838 3513 2113 
z
" transform="scale(0.015625)"/>
        <path id="DejaVuSans-61" d="M 2194 1759 
Q 1497 1759 1228 1600 
Q 959 1441 959 1056 
Q 959 750 1161 570 
Q 1363 391 1709 391 
Q 2188 391 2477 730 
Q 2766 1069 2766 1631 
L 2766 1759 
L 2194 1759 
z
M 3341 1997 
L 3341 0 
L 2766 0 
L 2766 531 
Q 2569 213 2275 61 
Q 1981 -91 1556 -91 
Q 1019 -91 701 211 
Q 384 513 384 1019 
Q 384 1609 779 1909 
Q 1175 2209 1959 2209 
L 2766 2209 
L 2766 2266 
Q 2766 2663 2505 2880 
Q 2244 3097 1772 3097 
Q 1472 3097 1187 3025 
Q 903 2953 641 2809 
L 641 3341 
Q 956 3463 1253 3523 
Q 1550 3584 1831 3584 
Q 2591 3584 2966 3190 
Q 3341 2797 3341 1997 
z
" transform="scale(0.015625)"/>
        <path id="DejaVuSans-73" d="M 2834 3397 
L 2834 2853 
Q 2591 2978 2328 3040 
Q 2066 3103 1784 3103 
Q 1356 3103 1142 2972 
Q 928 2841 928 2578 
Q 928 2378 1081 2264 
Q 1234 2150 1697 2047 
L 1894 2003 
Q 2506 1872 2764 1633 
Q 3022 1394 3022 966 
Q 3022 478 2636 193 
Q 2250 -91 1575 -91 
Q 1294 -91 989 -36 
Q 684 19 347 128 
L 347 722 
Q 666 556 975 473 
Q 1284 391 1588 391 
Q 1994 391 2212 530 
Q 2431 669 2431 922 
Q 2431 1156 2273 1281 
Q 2116 1406 1581 1522 
L 1381 1569 
Q 847 1681 609 1914 
Q 372 2147 372 2553 
Q 372 3047 722 3315 
Q 1072 3584 1716 3584 
Q 2034 3584 2315 3537 
Q 2597 3491 2834 3397 
z
" transform="scale(0.015625)"/>
       </defs>
       <use xlink:href="#DejaVuSans-69"/>
       <use xlink:href="#DejaVuSans-6e" x="27.783203"/>
       <use xlink:href="#DejaVuSans-74" x="91.162109"/>
       <use xlink:href="#DejaVuSans-65" x="130.371094"/>
       <use xlink:href="#DejaVuSans-72" x="191.894531"/>
       <use xlink:href="#DejaVuSans-70" x="233.007812"/>
       <use xlink:href="#DejaVuSans-68" x="296.484375"/>
       <use xlink:href="#DejaVuSans-61" x="359.863281"/>
       <use xlink:href="#DejaVuSans-73" x="421.142578"/>
       <use xlink:href="#DejaVuSans-65" x="473.242188"/>
      </g>
     </g>
    </g>
    <g id="xtick_2">
     <g id="line2d_2">
      <g>
       <use xlink:href="#m5b8ea53ad7" x="313.004375" y="294.508875" style="stroke: #000000; stroke-width: 0.8"/>
      </g>
     </g>
     <g id="text_2">
      <!-- prometaphase -->
      <g transform="translate(258.650469 312.906531) scale(0.15 -0.15)">
       <defs>
        <path id="DejaVuSans-6f" d="M 1959 3097 
Q 1497 3097 1228 2736 
Q 959 2375 959 1747 
Q 959 1119 1226 758 
Q 1494 397 1959 397 
Q 2419 397 2687 759 
Q 2956 1122 2956 1747 
Q 2956 2369 2687 2733 
Q 2419 3097 1959 3097 
z
M 1959 3584 
Q 2709 3584 3137 3096 
Q 3566 2609 3566 1747 
Q 3566 888 3137 398 
Q 2709 -91 1959 -91 
Q 1206 -91 779 398 
Q 353 888 353 1747 
Q 353 2609 779 3096 
Q 1206 3584 1959 3584 
z
" transform="scale(0.015625)"/>
        <path id="DejaVuSans-6d" d="M 3328 2828 
Q 3544 3216 3844 3400 
Q 4144 3584 4550 3584 
Q 5097 3584 5394 3201 
Q 5691 2819 5691 2113 
L 5691 0 
L 5113 0 
L 5113 2094 
Q 5113 2597 4934 2840 
Q 4756 3084 4391 3084 
Q 3944 3084 3684 2787 
Q 3425 2491 3425 1978 
L 3425 0 
L 2847 0 
L 2847 2094 
Q 2847 2600 2669 2842 
Q 2491 3084 2119 3084 
Q 1678 3084 1418 2786 
Q 1159 2488 1159 1978 
L 1159 0 
L 581 0 
L 581 3500 
L 1159 3500 
L 1159 2956 
Q 1356 3278 1631 3431 
Q 1906 3584 2284 3584 
Q 2666 3584 2933 3390 
Q 3200 3197 3328 2828 
z
" transform="scale(0.015625)"/>
       </defs>
       <use xlink:href="#DejaVuSans-70"/>
       <use xlink:href="#DejaVuSans-72" x="63.476562"/>
       <use xlink:href="#DejaVuSans-6f" x="102.339844"/>
       <use xlink:href="#DejaVuSans-6d" x="163.521484"/>
       <use xlink:href="#DejaVuSans-65" x="260.933594"/>
       <use xlink:href="#DejaVuSans-74" x="322.457031"/>
       <use xlink:href="#DejaVuSans-61" x="361.666016"/>
       <use xlink:href="#DejaVuSans-70" x="422.945312"/>
       <use xlink:href="#DejaVuSans-68" x="486.421875"/>
       <use xlink:href="#DejaVuSans-61" x="549.800781"/>
       <use xlink:href="#DejaVuSans-73" x="611.080078"/>
       <use xlink:href="#DejaVuSans-65" x="663.179688"/>
      </g>
     </g>
    </g>
   </g>
   <g id="matplotlib.axis_2">
    <g id="ytick_1">
     <g id="line2d_3">
      <defs>
       <path id="mb119f3b81e" d="M 0 0 
L -3.5 0 
" style="stroke: #000000; stroke-width: 0.8"/>
      </defs>
      <g>
       <use xlink:href="#mb119f3b81e" x="45.164375" y="294.508875" style="stroke: #000000; stroke-width: 0.8"/>
      </g>
     </g>
     <g id="text_3">
      <!-- 0 -->
      <g transform="translate(28.620625 300.207703) scale(0.15 -0.15)">
       <defs>
        <path id="DejaVuSans-30" d="M 2034 4250 
Q 1547 4250 1301 3770 
Q 1056 3291 1056 2328 
Q 1056 1369 1301 889 
Q 1547 409 2034 409 
Q 2525 409 2770 889 
Q 3016 1369 3016 2328 
Q 3016 3291 2770 3770 
Q 2525 4250 2034 4250 
z
M 2034 4750 
Q 2819 4750 3233 4129 
Q 3647 3509 3647 2328 
Q 3647 1150 3233 529 
Q 2819 -91 2034 -91 
Q 1250 -91 836 529 
Q 422 1150 422 2328 
Q 422 3509 836 4129 
Q 1250 4750 2034 4750 
z
" transform="scale(0.015625)"/>
       </defs>
       <use xlink:href="#DejaVuSans-30"/>
      </g>
     </g>
    </g>
    <g id="ytick_2">
     <g id="line2d_4">
      <g>
       <use xlink:href="#mb119f3b81e" x="45.164375" y="241.286475" style="stroke: #000000; stroke-width: 0.8"/>
      </g>
     </g>
     <g id="text_4">
      <!-- 1 -->
      <g transform="translate(28.620625 246.985303) scale(0.15 -0.15)">
       <defs>
        <path id="DejaVuSans-31" d="M 794 531 
L 1825 531 
L 1825 4091 
L 703 3866 
L 703 4441 
L 1819 4666 
L 2450 4666 
L 2450 531 
L 3481 531 
L 3481 0 
L 794 0 
L 794 531 
z
" transform="scale(0.015625)"/>
       </defs>
       <use xlink:href="#DejaVuSans-31"/>
      </g>
     </g>
    </g>
    <g id="ytick_3">
     <g id="line2d_5">
      <g>
       <use xlink:href="#mb119f3b81e" x="45.164375" y="188.064075" style="stroke: #000000; stroke-width: 0.8"/>
      </g>
     </g>
     <g id="text_5">
      <!-- 2 -->
      <g transform="translate(28.620625 193.762903) scale(0.15 -0.15)">
       <defs>
        <path id="DejaVuSans-32" d="M 1228 531 
L 3431 531 
L 3431 0 
L 469 0 
L 469 531 
Q 828 903 1448 1529 
Q 2069 2156 2228 2338 
Q 2531 2678 2651 2914 
Q 2772 3150 2772 3378 
Q 2772 3750 2511 3984 
Q 2250 4219 1831 4219 
Q 1534 4219 1204 4116 
Q 875 4013 500 3803 
L 500 4441 
Q 881 4594 1212 4672 
Q 1544 4750 1819 4750 
Q 2544 4750 2975 4387 
Q 3406 4025 3406 3419 
Q 3406 3131 3298 2873 
Q 3191 2616 2906 2266 
Q 2828 2175 2409 1742 
Q 1991 1309 1228 531 
z
" transform="scale(0.015625)"/>
       </defs>
       <use xlink:href="#DejaVuSans-32"/>
      </g>
     </g>
    </g>
    <g id="ytick_4">
     <g id="line2d_6">
      <g>
       <use xlink:href="#mb119f3b81e" x="45.164375" y="134.841675" style="stroke: #000000; stroke-width: 0.8"/>
      </g>
     </g>
     <g id="text_6">
      <!-- 3 -->
      <g transform="translate(28.620625 140.540503) scale(0.15 -0.15)">
       <defs>
        <path id="DejaVuSans-33" d="M 2597 2516 
Q 3050 2419 3304 2112 
Q 3559 1806 3559 1356 
Q 3559 666 3084 287 
Q 2609 -91 1734 -91 
Q 1441 -91 1130 -33 
Q 819 25 488 141 
L 488 750 
Q 750 597 1062 519 
Q 1375 441 1716 441 
Q 2309 441 2620 675 
Q 2931 909 2931 1356 
Q 2931 1769 2642 2001 
Q 2353 2234 1838 2234 
L 1294 2234 
L 1294 2753 
L 1863 2753 
Q 2328 2753 2575 2939 
Q 2822 3125 2822 3475 
Q 2822 3834 2567 4026 
Q 2313 4219 1838 4219 
Q 1578 4219 1281 4162 
Q 984 4106 628 3988 
L 628 4550 
Q 988 4650 1302 4700 
Q 1616 4750 1894 4750 
Q 2613 4750 3031 4423 
Q 3450 4097 3450 3541 
Q 3450 3153 3228 2886 
Q 3006 2619 2597 2516 
z
" transform="scale(0.015625)"/>
       </defs>
       <use xlink:href="#DejaVuSans-33"/>
      </g>
     </g>
    </g>
    <g id="ytick_5">
     <g id="line2d_7">
      <g>
       <use xlink:href="#mb119f3b81e" x="45.164375" y="81.619275" style="stroke: #000000; stroke-width: 0.8"/>
      </g>
     </g>
     <g id="text_7">
      <!-- 4 -->
      <g transform="translate(28.620625 87.318103) scale(0.15 -0.15)">
       <defs>
        <path id="DejaVuSans-34" d="M 2419 4116 
L 825 1625 
L 2419 1625 
L 2419 4116 
z
M 2253 4666 
L 3047 4666 
L 3047 1625 
L 3713 1625 
L 3713 1100 
L 3047 1100 
L 3047 0 
L 2419 0 
L 2419 1100 
L 313 1100 
L 313 1709 
L 2253 4666 
z
" transform="scale(0.015625)"/>
       </defs>
       <use xlink:href="#DejaVuSans-34"/>
      </g>
     </g>
    </g>
    <g id="ytick_6">
     <g id="line2d_8">
      <g>
       <use xlink:href="#mb119f3b81e" x="45.164375" y="28.396875" style="stroke: #000000; stroke-width: 0.8"/>
      </g>
     </g>
     <g id="text_8">
      <!-- 5 -->
      <g transform="translate(28.620625 34.095703) scale(0.15 -0.15)">
       <defs>
        <path id="DejaVuSans-35" d="M 691 4666 
L 3169 4666 
L 3169 4134 
L 1269 4134 
L 1269 2991 
Q 1406 3038 1543 3061 
Q 1681 3084 1819 3084 
Q 2600 3084 3056 2656 
Q 3513 2228 3513 1497 
Q 3513 744 3044 326 
Q 2575 -91 1722 -91 
Q 1428 -91 1123 -41 
Q 819 9 494 109 
L 494 744 
Q 775 591 1075 516 
Q 1375 441 1709 441 
Q 2250 441 2565 725 
Q 2881 1009 2881 1497 
Q 2881 1984 2565 2268 
Q 2250 2553 1709 2553 
Q 1456 2553 1204 2497 
Q 953 2441 691 2322 
L 691 4666 
z
" transform="scale(0.015625)"/>
       </defs>
       <use xlink:href="#DejaVuSans-35"/>
      </g>
     </g>
    </g>
    <g id="text_9">
     <!-- AC/BC Ratio -->
     <g transform="translate(20.877187 215.032406) rotate(-90) scale(0.18 -0.18)">
      <defs>
       <path id="DejaVuSans-41" d="M 2188 4044 
L 1331 1722 
L 3047 1722 
L 2188 4044 
z
M 1831 4666 
L 2547 4666 
L 4325 0 
L 3669 0 
L 3244 1197 
L 1141 1197 
L 716 0 
L 50 0 
L 1831 4666 
z
" transform="scale(0.015625)"/>
       <path id="DejaVuSans-43" d="M 4122 4306 
L 4122 3641 
Q 3803 3938 3442 4084 
Q 3081 4231 2675 4231 
Q 1875 4231 1450 3742 
Q 1025 3253 1025 2328 
Q 1025 1406 1450 917 
Q 1875 428 2675 428 
Q 3081 428 3442 575 
Q 3803 722 4122 1019 
L 4122 359 
Q 3791 134 3420 21 
Q 3050 -91 2638 -91 
Q 1578 -91 968 557 
Q 359 1206 359 2328 
Q 359 3453 968 4101 
Q 1578 4750 2638 4750 
Q 3056 4750 3426 4639 
Q 3797 4528 4122 4306 
z
" transform="scale(0.015625)"/>
       <path id="DejaVuSans-2f" d="M 1625 4666 
L 2156 4666 
L 531 -594 
L 0 -594 
L 1625 4666 
z
" transform="scale(0.015625)"/>
       <path id="DejaVuSans-42" d="M 1259 2228 
L 1259 519 
L 2272 519 
Q 2781 519 3026 730 
Q 3272 941 3272 1375 
Q 3272 1813 3026 2020 
Q 2781 2228 2272 2228 
L 1259 2228 
z
M 1259 4147 
L 1259 2741 
L 2194 2741 
Q 2656 2741 2882 2914 
Q 3109 3088 3109 3444 
Q 3109 3797 2882 3972 
Q 2656 4147 2194 4147 
L 1259 4147 
z
M 628 4666 
L 2241 4666 
Q 2963 4666 3353 4366 
Q 3744 4066 3744 3513 
Q 3744 3084 3544 2831 
Q 3344 2578 2956 2516 
Q 3422 2416 3680 2098 
Q 3938 1781 3938 1306 
Q 3938 681 3513 340 
Q 3088 0 2303 0 
L 628 0 
L 628 4666 
z
" transform="scale(0.015625)"/>
       <path id="DejaVuSans-20" transform="scale(0.015625)"/>
       <path id="DejaVuSans-52" d="M 2841 2188 
Q 3044 2119 3236 1894 
Q 3428 1669 3622 1275 
L 4263 0 
L 3584 0 
L 2988 1197 
Q 2756 1666 2539 1819 
Q 2322 1972 1947 1972 
L 1259 1972 
L 1259 0 
L 628 0 
L 628 4666 
L 2053 4666 
Q 2853 4666 3247 4331 
Q 3641 3997 3641 3322 
Q 3641 2881 3436 2590 
Q 3231 2300 2841 2188 
z
M 1259 4147 
L 1259 2491 
L 2053 2491 
Q 2509 2491 2742 2702 
Q 2975 2913 2975 3322 
Q 2975 3731 2742 3939 
Q 2509 4147 2053 4147 
L 1259 4147 
z
" transform="scale(0.015625)"/>
      </defs>
      <use xlink:href="#DejaVuSans-41"/>
      <use xlink:href="#DejaVuSans-43" x="66.658203"/>
      <use xlink:href="#DejaVuSans-2f" x="136.482422"/>
      <use xlink:href="#DejaVuSans-42" x="170.173828"/>
      <use xlink:href="#DejaVuSans-43" x="237.027344"/>
      <use xlink:href="#DejaVuSans-20" x="306.851562"/>
      <use xlink:href="#DejaVuSans-52" x="338.638672"/>
      <use xlink:href="#DejaVuSans-61" x="405.871094"/>
      <use xlink:href="#DejaVuSans-74" x="467.150391"/>
      <use xlink:href="#DejaVuSans-69" x="506.359375"/>
      <use xlink:href="#DejaVuSans-6f" x="534.142578"/>
     </g>
    </g>
   </g>
   <g id="patch_3">
    <path d="M 63.020375 174.31027 
L 98.732375 174.31027 
L 98.732375 139.891259 
L 63.020375 139.891259 
L 63.020375 174.31027 
z
" clip-path="url(#p143176338d)" style="fill: #ffffff; stroke: #999999; stroke-linejoin: miter"/>
   </g>
   <g id="line2d_9">
    <path d="M 80.876375 174.31027 
L 80.876375 186.811783 
" clip-path="url(#p143176338d)" style="fill: none; stroke: #999999"/>
   </g>
   <g id="line2d_10">
    <path d="M 80.876375 139.891259 
L 80.876375 110.649675 
" clip-path="url(#p143176338d)" style="fill: none; stroke: #999999"/>
   </g>
   <g id="line2d_11">
    <path d="M 71.948375 186.811783 
L 89.804375 186.811783 
" clip-path="url(#p143176338d)" style="fill: none; stroke: #999999; stroke-linecap: square"/>
   </g>
   <g id="line2d_12">
    <path d="M 71.948375 110.649675 
L 89.804375 110.649675 
" clip-path="url(#p143176338d)" style="fill: none; stroke: #999999; stroke-linecap: square"/>
   </g>
   <g id="line2d_13"/>
   <g id="patch_4">
    <path d="M 241.580375 237.031166 
L 277.292375 237.031166 
L 277.292375 227.118475 
L 241.580375 227.118475 
L 241.580375 237.031166 
z
" clip-path="url(#p143176338d)" style="fill: #ffffff; stroke: #999999; stroke-linejoin: miter"/>
   </g>
   <g id="line2d_14">
    <path d="M 259.436375 237.031166 
L 259.436375 245.460781 
" clip-path="url(#p143176338d)" style="fill: none; stroke: #999999"/>
   </g>
   <g id="line2d_15">
    <path d="M 259.436375 227.118475 
L 259.436375 215.266635 
" clip-path="url(#p143176338d)" style="fill: none; stroke: #999999"/>
   </g>
   <g id="line2d_16">
    <path d="M 250.508375 245.460781 
L 268.364375 245.460781 
" clip-path="url(#p143176338d)" style="fill: none; stroke: #999999; stroke-linecap: square"/>
   </g>
   <g id="line2d_17">
    <path d="M 250.508375 215.266635 
L 268.364375 215.266635 
" clip-path="url(#p143176338d)" style="fill: none; stroke: #999999; stroke-linecap: square"/>
   </g>
   <g id="line2d_18"/>
   <g id="patch_5">
    <path d="M 98.732375 239.944734 
L 134.444375 239.944734 
L 134.444375 231.16982 
L 98.732375 231.16982 
L 98.732375 239.944734 
z
" clip-path="url(#p143176338d)" style="fill: #ffffff; stroke: #999999; stroke-linejoin: miter"/>
   </g>
   <g id="line2d_19">
    <path d="M 116.588375 239.944734 
L 116.588375 249.907005 
" clip-path="url(#p143176338d)" style="fill: none; stroke: #999999"/>
   </g>
   <g id="line2d_20">
    <path d="M 116.588375 231.16982 
L 116.588375 221.241675 
" clip-path="url(#p143176338d)" style="fill: none; stroke: #999999"/>
   </g>
   <g id="line2d_21">
    <path d="M 107.660375 249.907005 
L 125.516375 249.907005 
" clip-path="url(#p143176338d)" style="fill: none; stroke: #999999; stroke-linecap: square"/>
   </g>
   <g id="line2d_22">
    <path d="M 107.660375 221.241675 
L 125.516375 221.241675 
" clip-path="url(#p143176338d)" style="fill: none; stroke: #999999; stroke-linecap: square"/>
   </g>
   <g id="line2d_23"/>
   <g id="patch_6">
    <path d="M 277.292375 237.442128 
L 313.004375 237.442128 
L 313.004375 228.878429 
L 277.292375 228.878429 
L 277.292375 237.442128 
z
" clip-path="url(#p143176338d)" style="fill: #ffffff; stroke: #999999; stroke-linejoin: miter"/>
   </g>
   <g id="line2d_24">
    <path d="M 295.148375 237.442128 
L 295.148375 242.962771 
" clip-path="url(#p143176338d)" style="fill: none; stroke: #999999"/>
   </g>
   <g id="line2d_25">
    <path d="M 295.148375 228.878429 
L 295.148375 221.814865 
" clip-path="url(#p143176338d)" style="fill: none; stroke: #999999"/>
   </g>
   <g id="line2d_26">
    <path d="M 286.220375 242.962771 
L 304.076375 242.962771 
" clip-path="url(#p143176338d)" style="fill: none; stroke: #999999; stroke-linecap: square"/>
   </g>
   <g id="line2d_27">
    <path d="M 286.220375 221.814865 
L 304.076375 221.814865 
" clip-path="url(#p143176338d)" style="fill: none; stroke: #999999; stroke-linecap: square"/>
   </g>
   <g id="line2d_28"/>
   <g id="patch_7">
    <path d="M 134.444375 244.213072 
L 170.156375 244.213072 
L 170.156375 233.84336 
L 134.444375 233.84336 
L 134.444375 244.213072 
z
" clip-path="url(#p143176338d)" style="fill: #ffffff; stroke: #999999; stroke-linejoin: miter"/>
   </g>
   <g id="line2d_29">
    <path d="M 152.300375 244.213072 
L 152.300375 256.139238 
" clip-path="url(#p143176338d)" style="fill: none; stroke: #999999"/>
   </g>
   <g id="line2d_30">
    <path d="M 152.300375 233.84336 
L 152.300375 223.020799 
" clip-path="url(#p143176338d)" style="fill: none; stroke: #999999"/>
   </g>
   <g id="line2d_31">
    <path d="M 143.372375 256.139238 
L 161.228375 256.139238 
" clip-path="url(#p143176338d)" style="fill: none; stroke: #999999; stroke-linecap: square"/>
   </g>
   <g id="line2d_32">
    <path d="M 143.372375 223.020799 
L 161.228375 223.020799 
" clip-path="url(#p143176338d)" style="fill: none; stroke: #999999; stroke-linecap: square"/>
   </g>
   <g id="line2d_33">
    <defs>
     <path id="mb9aff62087" d="M 0 3 
C 0.795609 3 1.55874 2.683901 2.12132 2.12132 
C 2.683901 1.55874 3 0.795609 3 0 
C 3 -0.795609 2.683901 -1.55874 2.12132 -2.12132 
C 1.55874 -2.683901 0.795609 -3 0 -3 
C -0.795609 -3 -1.55874 -2.683901 -2.12132 -2.12132 
C -2.683901 -1.55874 -3 -0.795609 -3 0 
C -3 0.795609 -2.683901 1.55874 -2.12132 2.12132 
C -1.55874 2.683901 -0.795609 3 0 3 
z
" style="stroke: #999999"/>
    </defs>
    <g clip-path="url(#p143176338d)">
     <use xlink:href="#mb9aff62087" x="152.300375" y="190.22174" style="fill-opacity: 0; stroke: #999999"/>
    </g>
   </g>
   <g id="patch_8">
    <path d="M 313.004375 244.89841 
L 348.716375 244.89841 
L 348.716375 230.945143 
L 313.004375 230.945143 
L 313.004375 244.89841 
z
" clip-path="url(#p143176338d)" style="fill: #ffffff; stroke: #999999; stroke-linejoin: miter"/>
   </g>
   <g id="line2d_34">
    <path d="M 330.860375 244.89841 
L 330.860375 257.397039 
" clip-path="url(#p143176338d)" style="fill: none; stroke: #999999"/>
   </g>
   <g id="line2d_35">
    <path d="M 330.860375 230.945143 
L 330.860375 219.923851 
" clip-path="url(#p143176338d)" style="fill: none; stroke: #999999"/>
   </g>
   <g id="line2d_36">
    <path d="M 321.932375 257.397039 
L 339.788375 257.397039 
" clip-path="url(#p143176338d)" style="fill: none; stroke: #999999; stroke-linecap: square"/>
   </g>
   <g id="line2d_37">
    <path d="M 321.932375 219.923851 
L 339.788375 219.923851 
" clip-path="url(#p143176338d)" style="fill: none; stroke: #999999; stroke-linecap: square"/>
   </g>
   <g id="line2d_38">
    <g clip-path="url(#p143176338d)">
     <use xlink:href="#mb9aff62087" x="330.860375" y="205.804875" style="fill-opacity: 0; stroke: #999999"/>
    </g>
   </g>
   <g id="patch_9">
    <path d="M 170.156375 240.608483 
L 205.868375 240.608483 
L 205.868375 227.697777 
L 170.156375 227.697777 
L 170.156375 240.608483 
z
" clip-path="url(#p143176338d)" style="fill: #ffffff; stroke: #999999; stroke-linejoin: miter"/>
   </g>
   <g id="line2d_39">
    <path d="M 188.012375 240.608483 
L 188.012375 251.355578 
" clip-path="url(#p143176338d)" style="fill: none; stroke: #999999"/>
   </g>
   <g id="line2d_40">
    <path d="M 188.012375 227.697777 
L 188.012375 221.482791 
" clip-path="url(#p143176338d)" style="fill: none; stroke: #999999"/>
   </g>
   <g id="line2d_41">
    <path d="M 179.084375 251.355578 
L 196.940375 251.355578 
" clip-path="url(#p143176338d)" style="fill: none; stroke: #999999; stroke-linecap: square"/>
   </g>
   <g id="line2d_42">
    <path d="M 179.084375 221.482791 
L 196.940375 221.482791 
" clip-path="url(#p143176338d)" style="fill: none; stroke: #999999; stroke-linecap: square"/>
   </g>
   <g id="line2d_43">
    <g clip-path="url(#p143176338d)">
     <use xlink:href="#mb9aff62087" x="188.012375" y="189.394635" style="fill-opacity: 0; stroke: #999999"/>
    </g>
   </g>
   <g id="patch_10">
    <path d="M 348.716375 241.36744 
L 384.428375 241.36744 
L 384.428375 228.406212 
L 348.716375 228.406212 
L 348.716375 241.36744 
z
" clip-path="url(#p143176338d)" style="fill: #ffffff; stroke: #999999; stroke-linejoin: miter"/>
   </g>
   <g id="line2d_44">
    <path d="M 366.572375 241.36744 
L 366.572375 242.272075 
" clip-path="url(#p143176338d)" style="fill: none; stroke: #999999"/>
   </g>
   <g id="line2d_45">
    <path d="M 366.572375 228.406212 
L 366.572375 222.658635 
" clip-path="url(#p143176338d)" style="fill: none; stroke: #999999"/>
   </g>
   <g id="line2d_46">
    <path d="M 357.644375 242.272075 
L 375.500375 242.272075 
" clip-path="url(#p143176338d)" style="fill: none; stroke: #999999; stroke-linecap: square"/>
   </g>
   <g id="line2d_47">
    <path d="M 357.644375 222.658635 
L 375.500375 222.658635 
" clip-path="url(#p143176338d)" style="fill: none; stroke: #999999; stroke-linecap: square"/>
   </g>
   <g id="line2d_48"/>
   <g id="line2d_49">
    <path d="M 63.020375 159.454598 
L 98.732375 159.454598 
" clip-path="url(#p143176338d)" style="fill: none; stroke: #999999"/>
   </g>
   <g id="line2d_50">
    <path d="M 241.580375 228.882602 
L 277.292375 228.882602 
" clip-path="url(#p143176338d)" style="fill: none; stroke: #999999"/>
   </g>
   <g id="line2d_51">
    <path d="M 98.732375 236.177125 
L 134.444375 236.177125 
" clip-path="url(#p143176338d)" style="fill: none; stroke: #999999"/>
   </g>
   <g id="line2d_52">
    <path d="M 277.292375 231.133495 
L 313.004375 231.133495 
" clip-path="url(#p143176338d)" style="fill: none; stroke: #999999"/>
   </g>
   <g id="line2d_53">
    <path d="M 134.444375 239.241049 
L 170.156375 239.241049 
" clip-path="url(#p143176338d)" style="fill: none; stroke: #999999"/>
   </g>
   <g id="line2d_54">
    <path d="M 313.004375 237.71668 
L 348.716375 237.71668 
" clip-path="url(#p143176338d)" style="fill: none; stroke: #999999"/>
   </g>
   <g id="line2d_55">
    <path d="M 170.156375 232.528359 
L 205.868375 232.528359 
" clip-path="url(#p143176338d)" style="fill: none; stroke: #999999"/>
   </g>
   <g id="line2d_56">
    <path d="M 348.716375 232.076186 
L 384.428375 232.076186 
" clip-path="url(#p143176338d)" style="fill: none; stroke: #999999"/>
   </g>
   <g id="patch_11">
    <path d="M 45.164375 294.508875 
L 45.164375 28.396875 
" style="fill: none; stroke: #000000; stroke-width: 0.8; stroke-linejoin: miter; stroke-linecap: square"/>
   </g>
   <g id="patch_12">
    <path d="M 402.284375 294.508875 
L 402.284375 28.396875 
" style="fill: none; stroke: #000000; stroke-width: 0.8; stroke-linejoin: miter; stroke-linecap: square"/>
   </g>
   <g id="patch_13">
    <path d="M 45.164375 294.508875 
L 402.284375 294.508875 
" style="fill: none; stroke: #000000; stroke-width: 0.8; stroke-linejoin: miter; stroke-linecap: square"/>
   </g>
   <g id="patch_14">
    <path d="M 45.164375 28.396875 
L 402.284375 28.396875 
" style="fill: none; stroke: #000000; stroke-width: 0.8; stroke-linejoin: miter; stroke-linecap: square"/>
   </g>
   <g id="PathCollection_1">
    <defs>
     <path id="C0_0_4881f86163" d="M 0 5 
C 1.326016 5 2.597899 4.473168 3.535534 3.535534 
C 4.473168 2.597899 5 1.326016 5 -0 
C 5 -1.326016 4.473168 -2.597899 3.535534 -3.535534 
C 2.597899 -4.473168 1.326016 -5 0 -5 
C -1.326016 -5 -2.597899 -4.473168 -3.535534 -3.535534 
C -4.473168 -2.597899 -5 -1.326016 -5 0 
C -5 1.326016 -4.473168 2.597899 -3.535534 3.535534 
C -2.597899 4.473168 -1.326016 5 0 5 
z
"/>
    </defs>
    <g clip-path="url(#p143176338d)">
     <use xlink:href="#C0_0_4881f86163" x="77.35943" y="175.829041" style="fill: #808080; stroke: #000000"/>
    </g>
    <g clip-path="url(#p143176338d)">
     <use xlink:href="#C0_0_4881f86163" x="79.78132" y="186.811783" style="fill: #808080; stroke: #000000"/>
    </g>
    <g clip-path="url(#p143176338d)">
     <use xlink:href="#C0_0_4881f86163" x="82.291481" y="137.502795" style="fill: #808080; stroke: #000000"/>
    </g>
    <g clip-path="url(#p143176338d)">
     <use xlink:href="#C0_0_4881f86163" x="79.301987" y="151.315275" style="fill: #808080; stroke: #000000"/>
    </g>
    <g clip-path="url(#p143176338d)">
     <use xlink:href="#C0_0_4881f86163" x="77.956629" y="167.593921" style="fill: #808080; stroke: #000000"/>
    </g>
    <g clip-path="url(#p143176338d)">
     <use xlink:href="#C0_0_4881f86163" x="82.357855" y="147.056652" style="fill: #808080; stroke: #000000"/>
    </g>
    <g clip-path="url(#p143176338d)">
     <use xlink:href="#C0_0_4881f86163" x="84.657638" y="172.61241" style="fill: #808080; stroke: #000000"/>
    </g>
    <g clip-path="url(#p143176338d)">
     <use xlink:href="#C0_0_4881f86163" x="80.978224" y="174.876224" style="fill: #808080; stroke: #000000"/>
    </g>
    <g clip-path="url(#p143176338d)">
     <use xlink:href="#C0_0_4881f86163" x="80.762278" y="110.649675" style="fill: #808080; stroke: #000000"/>
    </g>
    <g clip-path="url(#p143176338d)">
     <use xlink:href="#C0_0_4881f86163" x="82.533492" y="118.465552" style="fill: #808080; stroke: #000000"/>
    </g>
   </g>
   <g id="PathCollection_2">
    <defs>
     <path id="C1_0_7d88fafb62" d="M 0 5 
C 1.326016 5 2.597899 4.473168 3.535534 3.535534 
C 4.473168 2.597899 5 1.326016 5 -0 
C 5 -1.326016 4.473168 -2.597899 3.535534 -3.535534 
C 2.597899 -4.473168 1.326016 -5 0 -5 
C -1.326016 -5 -2.597899 -4.473168 -3.535534 -3.535534 
C -4.473168 -2.597899 -5 -1.326016 -5 0 
C -5 1.326016 -4.473168 2.597899 -3.535534 3.535534 
C -2.597899 4.473168 -1.326016 5 0 5 
z
"/>
    </defs>
    <g clip-path="url(#p143176338d)">
     <use xlink:href="#C1_0_7d88fafb62" x="113.892716" y="237.624383" style="fill: #648fff; stroke: #000000"/>
    </g>
    <g clip-path="url(#p143176338d)">
     <use xlink:href="#C1_0_7d88fafb62" x="116.658793" y="230.918475" style="fill: #648fff; stroke: #000000"/>
    </g>
    <g clip-path="url(#p143176338d)">
     <use xlink:href="#C1_0_7d88fafb62" x="119.014979" y="233.040751" style="fill: #648fff; stroke: #000000"/>
    </g>
    <g clip-path="url(#p143176338d)">
     <use xlink:href="#C1_0_7d88fafb62" x="113.90853" y="231.16982" style="fill: #648fff; stroke: #000000"/>
    </g>
    <g clip-path="url(#p143176338d)">
     <use xlink:href="#C1_0_7d88fafb62" x="112.879089" y="249.907005" style="fill: #648fff; stroke: #000000"/>
    </g>
    <g clip-path="url(#p143176338d)">
     <use xlink:href="#C1_0_7d88fafb62" x="115.769064" y="226.709639" style="fill: #648fff; stroke: #000000"/>
    </g>
    <g clip-path="url(#p143176338d)">
     <use xlink:href="#C1_0_7d88fafb62" x="118.828739" y="221.241675" style="fill: #648fff; stroke: #000000"/>
    </g>
    <g clip-path="url(#p143176338d)">
     <use xlink:href="#C1_0_7d88fafb62" x="117.576491" y="249.532199" style="fill: #648fff; stroke: #000000"/>
    </g>
    <g clip-path="url(#p143176338d)">
     <use xlink:href="#C1_0_7d88fafb62" x="115.300198" y="242.789933" style="fill: #648fff; stroke: #000000"/>
    </g>
    <g clip-path="url(#p143176338d)">
     <use xlink:href="#C1_0_7d88fafb62" x="120.047165" y="236.177125" style="fill: #648fff; stroke: #000000"/>
    </g>
    <g clip-path="url(#p143176338d)">
     <use xlink:href="#C1_0_7d88fafb62" x="112.954484" y="234.232904" style="fill: #648fff; stroke: #000000"/>
    </g>
    <g clip-path="url(#p143176338d)">
     <use xlink:href="#C1_0_7d88fafb62" x="115.9385" y="238.557121" style="fill: #648fff; stroke: #000000"/>
    </g>
    <g clip-path="url(#p143176338d)">
     <use xlink:href="#C1_0_7d88fafb62" x="114.839231" y="239.944734" style="fill: #648fff; stroke: #000000"/>
    </g>
   </g>
   <g id="PathCollection_3">
    <defs>
     <path id="C2_0_5e1d5df1ab" d="M 0 5 
C 1.326016 5 2.597899 4.473168 3.535534 3.535534 
C 4.473168 2.597899 5 1.326016 5 -0 
C 5 -1.326016 4.473168 -2.597899 3.535534 -3.535534 
C 2.597899 -4.473168 1.326016 -5 0 -5 
C -1.326016 -5 -2.597899 -4.473168 -3.535534 -3.535534 
C -4.473168 -2.597899 -5 -1.326016 -5 0 
C -5 1.326016 -4.473168 2.597899 -3.535534 3.535534 
C -2.597899 4.473168 -1.326016 5 0 5 
z
"/>
    </defs>
    <g clip-path="url(#p143176338d)">
     <use xlink:href="#C2_0_5e1d5df1ab" x="153.376084" y="229.918584" style="fill: #785ef0; stroke: #000000"/>
    </g>
    <g clip-path="url(#p143176338d)">
     <use xlink:href="#C2_0_5e1d5df1ab" x="154.990741" y="241.036605" style="fill: #785ef0; stroke: #000000"/>
    </g>
    <g clip-path="url(#p143176338d)">
     <use xlink:href="#C2_0_5e1d5df1ab" x="148.695051" y="237.244267" style="fill: #785ef0; stroke: #000000"/>
    </g>
    <g clip-path="url(#p143176338d)">
     <use xlink:href="#C2_0_5e1d5df1ab" x="151.627963" y="231.472415" style="fill: #785ef0; stroke: #000000"/>
    </g>
    <g clip-path="url(#p143176338d)">
     <use xlink:href="#C2_0_5e1d5df1ab" x="155.988216" y="235.344168" style="fill: #785ef0; stroke: #000000"/>
    </g>
    <g clip-path="url(#p143176338d)">
     <use xlink:href="#C2_0_5e1d5df1ab" x="153.695596" y="237.484875" style="fill: #785ef0; stroke: #000000"/>
    </g>
    <g clip-path="url(#p143176338d)">
     <use xlink:href="#C2_0_5e1d5df1ab" x="155.803527" y="241.286475" style="fill: #785ef0; stroke: #000000"/>
    </g>
    <g clip-path="url(#p143176338d)">
     <use xlink:href="#C2_0_5e1d5df1ab" x="151.326601" y="228.179466" style="fill: #785ef0; stroke: #000000"/>
    </g>
    <g clip-path="url(#p143176338d)">
     <use xlink:href="#C2_0_5e1d5df1ab" x="153.675849" y="234.633675" style="fill: #785ef0; stroke: #000000"/>
    </g>
    <g clip-path="url(#p143176338d)">
     <use xlink:href="#C2_0_5e1d5df1ab" x="155.0716" y="190.22174" style="fill: #785ef0; stroke: #000000"/>
    </g>
    <g clip-path="url(#p143176338d)">
     <use xlink:href="#C2_0_5e1d5df1ab" x="154.206824" y="237.036778" style="fill: #785ef0; stroke: #000000"/>
    </g>
    <g clip-path="url(#p143176338d)">
     <use xlink:href="#C2_0_5e1d5df1ab" x="152.944454" y="244.375902" style="fill: #785ef0; stroke: #000000"/>
    </g>
    <g clip-path="url(#p143176338d)">
     <use xlink:href="#C2_0_5e1d5df1ab" x="154.260313" y="223.020799" style="fill: #785ef0; stroke: #000000"/>
    </g>
    <g clip-path="url(#p143176338d)">
     <use xlink:href="#C2_0_5e1d5df1ab" x="150.126962" y="247.836924" style="fill: #785ef0; stroke: #000000"/>
    </g>
    <g clip-path="url(#p143176338d)">
     <use xlink:href="#C2_0_5e1d5df1ab" x="151.23263" y="248.819492" style="fill: #785ef0; stroke: #000000"/>
    </g>
    <g clip-path="url(#p143176338d)">
     <use xlink:href="#C2_0_5e1d5df1ab" x="154.400911" y="244.158795" style="fill: #785ef0; stroke: #000000"/>
    </g>
    <g clip-path="url(#p143176338d)">
     <use xlink:href="#C2_0_5e1d5df1ab" x="148.954681" y="256.139238" style="fill: #785ef0; stroke: #000000"/>
    </g>
    <g clip-path="url(#p143176338d)">
     <use xlink:href="#C2_0_5e1d5df1ab" x="150.5593" y="242.987648" style="fill: #785ef0; stroke: #000000"/>
    </g>
    <g clip-path="url(#p143176338d)">
     <use xlink:href="#C2_0_5e1d5df1ab" x="156.438967" y="240.997223" style="fill: #785ef0; stroke: #000000"/>
    </g>
    <g clip-path="url(#p143176338d)">
     <use xlink:href="#C2_0_5e1d5df1ab" x="148.95762" y="248.667684" style="fill: #785ef0; stroke: #000000"/>
    </g>
   </g>
   <g id="PathCollection_4">
    <defs>
     <path id="C3_0_99244451de" d="M 0 5 
C 1.326016 5 2.597899 4.473168 3.535534 3.535534 
C 4.473168 2.597899 5 1.326016 5 -0 
C 5 -1.326016 4.473168 -2.597899 3.535534 -3.535534 
C 2.597899 -4.473168 1.326016 -5 0 -5 
C -1.326016 -5 -2.597899 -4.473168 -3.535534 -3.535534 
C -4.473168 -2.597899 -5 -1.326016 -5 0 
C -5 1.326016 -4.473168 2.597899 -3.535534 3.535534 
C -2.597899 4.473168 -1.326016 5 0 5 
z
"/>
    </defs>
    <g clip-path="url(#p143176338d)">
     <use xlink:href="#C3_0_99244451de" x="186.601266" y="240.608483" style="fill: #ffb000; stroke: #000000"/>
    </g>
    <g clip-path="url(#p143176338d)">
     <use xlink:href="#C3_0_99244451de" x="186.941718" y="242.309983" style="fill: #ffb000; stroke: #000000"/>
    </g>
    <g clip-path="url(#p143176338d)">
     <use xlink:href="#C3_0_99244451de" x="189.266139" y="229.528038" style="fill: #ffb000; stroke: #000000"/>
    </g>
    <g clip-path="url(#p143176338d)">
     <use xlink:href="#C3_0_99244451de" x="189.159658" y="238.329675" style="fill: #ffb000; stroke: #000000"/>
    </g>
    <g clip-path="url(#p143176338d)">
     <use xlink:href="#C3_0_99244451de" x="189.288297" y="240.515136" style="fill: #ffb000; stroke: #000000"/>
    </g>
    <g clip-path="url(#p143176338d)">
     <use xlink:href="#C3_0_99244451de" x="186.864908" y="226.206795" style="fill: #ffb000; stroke: #000000"/>
    </g>
    <g clip-path="url(#p143176338d)">
     <use xlink:href="#C3_0_99244451de" x="186.846669" y="228.263973" style="fill: #ffb000; stroke: #000000"/>
    </g>
    <g clip-path="url(#p143176338d)">
     <use xlink:href="#C3_0_99244451de" x="186.739551" y="221.482791" style="fill: #ffb000; stroke: #000000"/>
    </g>
    <g clip-path="url(#p143176338d)">
     <use xlink:href="#C3_0_99244451de" x="187.176579" y="242.764875" style="fill: #ffb000; stroke: #000000"/>
    </g>
    <g clip-path="url(#p143176338d)">
     <use xlink:href="#C3_0_99244451de" x="188.807206" y="227.697777" style="fill: #ffb000; stroke: #000000"/>
    </g>
    <g clip-path="url(#p143176338d)">
     <use xlink:href="#C3_0_99244451de" x="188.312462" y="251.355578" style="fill: #ffb000; stroke: #000000"/>
    </g>
    <g clip-path="url(#p143176338d)">
     <use xlink:href="#C3_0_99244451de" x="183.811293" y="189.394635" style="fill: #ffb000; stroke: #000000"/>
    </g>
    <g clip-path="url(#p143176338d)">
     <use xlink:href="#C3_0_99244451de" x="186.741332" y="232.528359" style="fill: #ffb000; stroke: #000000"/>
    </g>
   </g>
   <g id="PathCollection_5">
    <defs>
     <path id="C4_0_7edb0bdee4" d="M 0 5 
C 1.326016 5 2.597899 4.473168 3.535534 3.535534 
C 4.473168 2.597899 5 1.326016 5 -0 
C 5 -1.326016 4.473168 -2.597899 3.535534 -3.535534 
C 2.597899 -4.473168 1.326016 -5 0 -5 
C -1.326016 -5 -2.597899 -4.473168 -3.535534 -3.535534 
C -4.473168 -2.597899 -5 -1.326016 -5 0 
C -5 1.326016 -4.473168 2.597899 -3.535534 3.535534 
C -2.597899 4.473168 -1.326016 5 0 5 
z
"/>
    </defs>
    <g clip-path="url(#p143176338d)">
     <use xlink:href="#C4_0_7edb0bdee4" x="263.098738" y="241.286475" style="fill: #808080; stroke: #000000"/>
    </g>
    <g clip-path="url(#p143176338d)">
     <use xlink:href="#C4_0_7edb0bdee4" x="255.135051" y="229.24345" style="fill: #808080; stroke: #000000"/>
    </g>
    <g clip-path="url(#p143176338d)">
     <use xlink:href="#C4_0_7edb0bdee4" x="263.872217" y="228.521753" style="fill: #808080; stroke: #000000"/>
    </g>
    <g clip-path="url(#p143176338d)">
     <use xlink:href="#C4_0_7edb0bdee4" x="259.644481" y="229.881675" style="fill: #808080; stroke: #000000"/>
    </g>
    <g clip-path="url(#p143176338d)">
     <use xlink:href="#C4_0_7edb0bdee4" x="259.849327" y="226.831008" style="fill: #808080; stroke: #000000"/>
    </g>
    <g clip-path="url(#p143176338d)">
     <use xlink:href="#C4_0_7edb0bdee4" x="260.183733" y="245.460781" style="fill: #808080; stroke: #000000"/>
    </g>
    <g clip-path="url(#p143176338d)">
     <use xlink:href="#C4_0_7edb0bdee4" x="257.345672" y="239.41433" style="fill: #808080; stroke: #000000"/>
    </g>
    <g clip-path="url(#p143176338d)">
     <use xlink:href="#C4_0_7edb0bdee4" x="261.644521" y="222.833453" style="fill: #808080; stroke: #000000"/>
    </g>
    <g clip-path="url(#p143176338d)">
     <use xlink:href="#C4_0_7edb0bdee4" x="257.604907" y="215.266635" style="fill: #808080; stroke: #000000"/>
    </g>
    <g clip-path="url(#p143176338d)">
     <use xlink:href="#C4_0_7edb0bdee4" x="258.069675" y="227.980875" style="fill: #808080; stroke: #000000"/>
    </g>
   </g>
   <g id="PathCollection_6">
    <defs>
     <path id="C5_0_608d4a0c1b" d="M 0 5 
C 1.326016 5 2.597899 4.473168 3.535534 3.535534 
C 4.473168 2.597899 5 1.326016 5 -0 
C 5 -1.326016 4.473168 -2.597899 3.535534 -3.535534 
C 2.597899 -4.473168 1.326016 -5 0 -5 
C -1.326016 -5 -2.597899 -4.473168 -3.535534 -3.535534 
C -4.473168 -2.597899 -5 -1.326016 -5 0 
C -5 1.326016 -4.473168 2.597899 -3.535534 3.535534 
C -2.597899 4.473168 -1.326016 5 0 5 
z
"/>
    </defs>
    <g clip-path="url(#p143176338d)">
     <use xlink:href="#C5_0_608d4a0c1b" x="297.892685" y="230.417112" style="fill: #648fff; stroke: #000000"/>
    </g>
    <g clip-path="url(#p143176338d)">
     <use xlink:href="#C5_0_608d4a0c1b" x="291.221457" y="238.420653" style="fill: #648fff; stroke: #000000"/>
    </g>
    <g clip-path="url(#p143176338d)">
     <use xlink:href="#C5_0_608d4a0c1b" x="290.942392" y="228.535275" style="fill: #648fff; stroke: #000000"/>
    </g>
    <g clip-path="url(#p143176338d)">
     <use xlink:href="#C5_0_608d4a0c1b" x="295.270922" y="228.120934" style="fill: #648fff; stroke: #000000"/>
    </g>
    <g clip-path="url(#p143176338d)">
     <use xlink:href="#C5_0_608d4a0c1b" x="291.78828" y="234.506551" style="fill: #648fff; stroke: #000000"/>
    </g>
    <g clip-path="url(#p143176338d)">
     <use xlink:href="#C5_0_608d4a0c1b" x="296.224129" y="239.72111" style="fill: #648fff; stroke: #000000"/>
    </g>
    <g clip-path="url(#p143176338d)">
     <use xlink:href="#C5_0_608d4a0c1b" x="294.814873" y="231.849879" style="fill: #648fff; stroke: #000000"/>
    </g>
    <g clip-path="url(#p143176338d)">
     <use xlink:href="#C5_0_608d4a0c1b" x="294.282252" y="221.814865" style="fill: #648fff; stroke: #000000"/>
    </g>
    <g clip-path="url(#p143176338d)">
     <use xlink:href="#C5_0_608d4a0c1b" x="294.692579" y="229.907893" style="fill: #648fff; stroke: #000000"/>
    </g>
    <g clip-path="url(#p143176338d)">
     <use xlink:href="#C5_0_608d4a0c1b" x="293.806195" y="242.962771" style="fill: #648fff; stroke: #000000"/>
    </g>
   </g>
   <g id="PathCollection_7">
    <defs>
     <path id="C6_0_fe14574073" d="M 0 5 
C 1.326016 5 2.597899 4.473168 3.535534 3.535534 
C 4.473168 2.597899 5 1.326016 5 -0 
C 5 -1.326016 4.473168 -2.597899 3.535534 -3.535534 
C 2.597899 -4.473168 1.326016 -5 0 -5 
C -1.326016 -5 -2.597899 -4.473168 -3.535534 -3.535534 
C -4.473168 -2.597899 -5 -1.326016 -5 0 
C -5 1.326016 -4.473168 2.597899 -3.535534 3.535534 
C -2.597899 4.473168 -1.326016 5 0 5 
z
"/>
    </defs>
    <g clip-path="url(#p143176338d)">
     <use xlink:href="#C6_0_fe14574073" x="329.462555" y="234.045332" style="fill: #785ef0; stroke: #000000"/>
    </g>
    <g clip-path="url(#p143176338d)">
     <use xlink:href="#C6_0_fe14574073" x="328.092497" y="230.994851" style="fill: #785ef0; stroke: #000000"/>
    </g>
    <g clip-path="url(#p143176338d)">
     <use xlink:href="#C6_0_fe14574073" x="331.138072" y="205.804875" style="fill: #785ef0; stroke: #000000"/>
    </g>
    <g clip-path="url(#p143176338d)">
     <use xlink:href="#C6_0_fe14574073" x="329.717467" y="239.482326" style="fill: #785ef0; stroke: #000000"/>
    </g>
    <g clip-path="url(#p143176338d)">
     <use xlink:href="#C6_0_fe14574073" x="327.217821" y="239.972342" style="fill: #785ef0; stroke: #000000"/>
    </g>
    <g clip-path="url(#p143176338d)">
     <use xlink:href="#C6_0_fe14574073" x="332.104541" y="247.51739" style="fill: #785ef0; stroke: #000000"/>
    </g>
    <g clip-path="url(#p143176338d)">
     <use xlink:href="#C6_0_fe14574073" x="328.49453" y="257.397039" style="fill: #785ef0; stroke: #000000"/>
    </g>
    <g clip-path="url(#p143176338d)">
     <use xlink:href="#C6_0_fe14574073" x="328.861408" y="231.782475" style="fill: #785ef0; stroke: #000000"/>
    </g>
    <g clip-path="url(#p143176338d)">
     <use xlink:href="#C6_0_fe14574073" x="330.287468" y="240.926864" style="fill: #785ef0; stroke: #000000"/>
    </g>
    <g clip-path="url(#p143176338d)">
     <use xlink:href="#C6_0_fe14574073" x="332.165483" y="237.71668" style="fill: #785ef0; stroke: #000000"/>
    </g>
    <g clip-path="url(#p143176338d)">
     <use xlink:href="#C6_0_fe14574073" x="332.681132" y="233.497831" style="fill: #785ef0; stroke: #000000"/>
    </g>
    <g clip-path="url(#p143176338d)">
     <use xlink:href="#C6_0_fe14574073" x="335.066216" y="233.785331" style="fill: #785ef0; stroke: #000000"/>
    </g>
    <g clip-path="url(#p143176338d)">
     <use xlink:href="#C6_0_fe14574073" x="329.081444" y="222.731877" style="fill: #785ef0; stroke: #000000"/>
    </g>
    <g clip-path="url(#p143176338d)">
     <use xlink:href="#C6_0_fe14574073" x="334.054481" y="241.758863" style="fill: #785ef0; stroke: #000000"/>
    </g>
    <g clip-path="url(#p143176338d)">
     <use xlink:href="#C6_0_fe14574073" x="330.793841" y="230.895435" style="fill: #785ef0; stroke: #000000"/>
    </g>
    <g clip-path="url(#p143176338d)">
     <use xlink:href="#C6_0_fe14574073" x="329.561318" y="247.537995" style="fill: #785ef0; stroke: #000000"/>
    </g>
    <g clip-path="url(#p143176338d)">
     <use xlink:href="#C6_0_fe14574073" x="329.064309" y="242.27943" style="fill: #785ef0; stroke: #000000"/>
    </g>
    <g clip-path="url(#p143176338d)">
     <use xlink:href="#C6_0_fe14574073" x="331.388447" y="219.923851" style="fill: #785ef0; stroke: #000000"/>
    </g>
    <g clip-path="url(#p143176338d)">
     <use xlink:href="#C6_0_fe14574073" x="326.875913" y="248.222373" style="fill: #785ef0; stroke: #000000"/>
    </g>
    <g clip-path="url(#p143176338d)">
     <use xlink:href="#C6_0_fe14574073" x="329.157575" y="248.762531" style="fill: #785ef0; stroke: #000000"/>
    </g>
    <g clip-path="url(#p143176338d)">
     <use xlink:href="#C6_0_fe14574073" x="334.495627" y="226.586955" style="fill: #785ef0; stroke: #000000"/>
    </g>
    <g clip-path="url(#p143176338d)">
     <use xlink:href="#C6_0_fe14574073" x="334.975794" y="228.54949" style="fill: #785ef0; stroke: #000000"/>
    </g>
    <g clip-path="url(#p143176338d)">
     <use xlink:href="#C6_0_fe14574073" x="330.184679" y="249.859211" style="fill: #785ef0; stroke: #000000"/>
    </g>
   </g>
   <g id="PathCollection_8">
    <defs>
     <path id="C7_0_e8f42cc4e0" d="M 0 5 
C 1.326016 5 2.597899 4.473168 3.535534 3.535534 
C 4.473168 2.597899 5 1.326016 5 -0 
C 5 -1.326016 4.473168 -2.597899 3.535534 -3.535534 
C 2.597899 -4.473168 1.326016 -5 0 -5 
C -1.326016 -5 -2.597899 -4.473168 -3.535534 -3.535534 
C -4.473168 -2.597899 -5 -1.326016 -5 0 
C -5 1.326016 -4.473168 2.597899 -3.535534 3.535534 
C -2.597899 4.473168 -1.326016 5 0 5 
z
"/>
    </defs>
    <g clip-path="url(#p143176338d)">
     <use xlink:href="#C7_0_e8f42cc4e0" x="369.228586" y="231.881714" style="fill: #ffb000; stroke: #000000"/>
    </g>
    <g clip-path="url(#p143176338d)">
     <use xlink:href="#C7_0_e8f42cc4e0" x="365.872173" y="242.254155" style="fill: #ffb000; stroke: #000000"/>
    </g>
    <g clip-path="url(#p143176338d)">
     <use xlink:href="#C7_0_e8f42cc4e0" x="366.207349" y="229.895703" style="fill: #ffb000; stroke: #000000"/>
    </g>
    <g clip-path="url(#p143176338d)">
     <use xlink:href="#C7_0_e8f42cc4e0" x="370.830178" y="223.937737" style="fill: #ffb000; stroke: #000000"/>
    </g>
    <g clip-path="url(#p143176338d)">
     <use xlink:href="#C7_0_e8f42cc4e0" x="366.675846" y="232.270659" style="fill: #ffb000; stroke: #000000"/>
    </g>
    <g clip-path="url(#p143176338d)">
     <use xlink:href="#C7_0_e8f42cc4e0" x="362.183013" y="242.272075" style="fill: #ffb000; stroke: #000000"/>
    </g>
    <g clip-path="url(#p143176338d)">
     <use xlink:href="#C7_0_e8f42cc4e0" x="370.717985" y="222.658635" style="fill: #ffb000; stroke: #000000"/>
    </g>
    <g clip-path="url(#p143176338d)">
     <use xlink:href="#C7_0_e8f42cc4e0" x="370.353096" y="241.071869" style="fill: #ffb000; stroke: #000000"/>
    </g>
   </g>
   <g id="line2d_57"/>
   <g id="line2d_58"/>
   <g id="line2d_59"/>
   <g id="line2d_60"/>
   <g id="text_10">
    <!-- 3e-09 -->
    <g transform="translate(102.164156 168.019275) scale(0.1 -0.1)">
     <defs>
      <path id="DejaVuSans-2d" d="M 313 2009 
L 1997 2009 
L 1997 1497 
L 313 1497 
L 313 2009 
z
" transform="scale(0.015625)"/>
      <path id="DejaVuSans-39" d="M 703 97 
L 703 672 
Q 941 559 1184 500 
Q 1428 441 1663 441 
Q 2288 441 2617 861 
Q 2947 1281 2994 2138 
Q 2813 1869 2534 1725 
Q 2256 1581 1919 1581 
Q 1219 1581 811 2004 
Q 403 2428 403 3163 
Q 403 3881 828 4315 
Q 1253 4750 1959 4750 
Q 2769 4750 3195 4129 
Q 3622 3509 3622 2328 
Q 3622 1225 3098 567 
Q 2575 -91 1691 -91 
Q 1453 -91 1209 -44 
Q 966 3 703 97 
z
M 1959 2075 
Q 2384 2075 2632 2365 
Q 2881 2656 2881 3163 
Q 2881 3666 2632 3958 
Q 2384 4250 1959 4250 
Q 1534 4250 1286 3958 
Q 1038 3666 1038 3163 
Q 1038 2656 1286 2365 
Q 1534 2075 1959 2075 
z
" transform="scale(0.015625)"/>
     </defs>
     <use xlink:href="#DejaVuSans-33"/>
     <use xlink:href="#DejaVuSans-65" x="63.623047"/>
     <use xlink:href="#DejaVuSans-2d" x="125.146484"/>
     <use xlink:href="#DejaVuSans-30" x="161.230469"/>
     <use xlink:href="#DejaVuSans-39" x="224.853516"/>
    </g>
   </g>
   <g id="text_11">
    <!-- 3e-10 -->
    <g transform="translate(137.876156 136.99934) scale(0.1 -0.1)">
     <use xlink:href="#DejaVuSans-33"/>
     <use xlink:href="#DejaVuSans-65" x="63.623047"/>
     <use xlink:href="#DejaVuSans-2d" x="125.146484"/>
     <use xlink:href="#DejaVuSans-31" x="161.230469"/>
     <use xlink:href="#DejaVuSans-30" x="224.853516"/>
    </g>
   </g>
   <g id="text_12">
    <!-- 3.6e-08 -->
    <g transform="translate(172.389044 136.172235) scale(0.1 -0.1)">
     <defs>
      <path id="DejaVuSans-2e" d="M 684 794 
L 1344 794 
L 1344 0 
L 684 0 
L 684 794 
z
" transform="scale(0.015625)"/>
      <path id="DejaVuSans-36" d="M 2113 2584 
Q 1688 2584 1439 2293 
Q 1191 2003 1191 1497 
Q 1191 994 1439 701 
Q 1688 409 2113 409 
Q 2538 409 2786 701 
Q 3034 994 3034 1497 
Q 3034 2003 2786 2293 
Q 2538 2584 2113 2584 
z
M 3366 4563 
L 3366 3988 
Q 3128 4100 2886 4159 
Q 2644 4219 2406 4219 
Q 1781 4219 1451 3797 
Q 1122 3375 1075 2522 
Q 1259 2794 1537 2939 
Q 1816 3084 2150 3084 
Q 2853 3084 3261 2657 
Q 3669 2231 3669 1497 
Q 3669 778 3244 343 
Q 2819 -91 2113 -91 
Q 1303 -91 875 529 
Q 447 1150 447 2328 
Q 447 3434 972 4092 
Q 1497 4750 2381 4750 
Q 2619 4750 2861 4703 
Q 3103 4656 3366 4563 
z
" transform="scale(0.015625)"/>
      <path id="DejaVuSans-38" d="M 2034 2216 
Q 1584 2216 1326 1975 
Q 1069 1734 1069 1313 
Q 1069 891 1326 650 
Q 1584 409 2034 409 
Q 2484 409 2743 651 
Q 3003 894 3003 1313 
Q 3003 1734 2745 1975 
Q 2488 2216 2034 2216 
z
M 1403 2484 
Q 997 2584 770 2862 
Q 544 3141 544 3541 
Q 544 4100 942 4425 
Q 1341 4750 2034 4750 
Q 2731 4750 3128 4425 
Q 3525 4100 3525 3541 
Q 3525 3141 3298 2862 
Q 3072 2584 2669 2484 
Q 3125 2378 3379 2068 
Q 3634 1759 3634 1313 
Q 3634 634 3220 271 
Q 2806 -91 2034 -91 
Q 1263 -91 848 271 
Q 434 634 434 1313 
Q 434 1759 690 2068 
Q 947 2378 1403 2484 
z
M 1172 3481 
Q 1172 3119 1398 2916 
Q 1625 2713 2034 2713 
Q 2441 2713 2670 2916 
Q 2900 3119 2900 3481 
Q 2900 3844 2670 4047 
Q 2441 4250 2034 4250 
Q 1625 4250 1398 4047 
Q 1172 3844 1172 3481 
z
" transform="scale(0.015625)"/>
     </defs>
     <use xlink:href="#DejaVuSans-33"/>
     <use xlink:href="#DejaVuSans-2e" x="63.623047"/>
     <use xlink:href="#DejaVuSans-36" x="95.410156"/>
     <use xlink:href="#DejaVuSans-65" x="159.033203"/>
     <use xlink:href="#DejaVuSans-2d" x="220.556641"/>
     <use xlink:href="#DejaVuSans-30" x="256.640625"/>
     <use xlink:href="#DejaVuSans-38" x="320.263672"/>
    </g>
   </g>
   <g id="text_13">
    <!-- 0.583 -->
    <g transform="translate(280.834313 168.592465) scale(0.1 -0.1)">
     <use xlink:href="#DejaVuSans-30"/>
     <use xlink:href="#DejaVuSans-2e" x="63.623047"/>
     <use xlink:href="#DejaVuSans-35" x="95.410156"/>
     <use xlink:href="#DejaVuSans-38" x="159.033203"/>
     <use xlink:href="#DejaVuSans-33" x="222.65625"/>
    </g>
   </g>
   <g id="text_14">
    <!-- 0.1274 -->
    <g transform="translate(313.365063 152.582475) scale(0.1 -0.1)">
     <defs>
      <path id="DejaVuSans-37" d="M 525 4666 
L 3525 4666 
L 3525 4397 
L 1831 0 
L 1172 0 
L 2766 4134 
L 525 4134 
L 525 4666 
z
" transform="scale(0.015625)"/>
     </defs>
     <use xlink:href="#DejaVuSans-30"/>
     <use xlink:href="#DejaVuSans-2e" x="63.623047"/>
     <use xlink:href="#DejaVuSans-31" x="95.410156"/>
     <use xlink:href="#DejaVuSans-32" x="159.033203"/>
     <use xlink:href="#DejaVuSans-37" x="222.65625"/>
     <use xlink:href="#DejaVuSans-34" x="286.279297"/>
    </g>
   </g>
   <g id="text_15">
    <!-- 0.523 -->
    <g transform="translate(355.829513 169.436235) scale(0.1 -0.1)">
     <use xlink:href="#DejaVuSans-30"/>
     <use xlink:href="#DejaVuSans-2e" x="63.623047"/>
     <use xlink:href="#DejaVuSans-35" x="95.410156"/>
     <use xlink:href="#DejaVuSans-32" x="159.033203"/>
     <use xlink:href="#DejaVuSans-33" x="222.65625"/>
    </g>
   </g>
   <g id="text_16">
    <!-- AC/BC ChJup Ratio -->
    <g transform="translate(121.088437 22.396875) scale(0.2 -0.2)">
     <defs>
      <path id="DejaVuSans-Bold-41" d="M 3419 850 
L 1538 850 
L 1241 0 
L 31 0 
L 1759 4666 
L 3194 4666 
L 4922 0 
L 3713 0 
L 3419 850 
z
M 1838 1716 
L 3116 1716 
L 2478 3572 
L 1838 1716 
z
" transform="scale(0.015625)"/>
      <path id="DejaVuSans-Bold-43" d="M 4288 256 
Q 3956 84 3597 -3 
Q 3238 -91 2847 -91 
Q 1681 -91 1000 561 
Q 319 1213 319 2328 
Q 319 3447 1000 4098 
Q 1681 4750 2847 4750 
Q 3238 4750 3597 4662 
Q 3956 4575 4288 4403 
L 4288 3438 
Q 3953 3666 3628 3772 
Q 3303 3878 2944 3878 
Q 2300 3878 1931 3465 
Q 1563 3053 1563 2328 
Q 1563 1606 1931 1193 
Q 2300 781 2944 781 
Q 3303 781 3628 887 
Q 3953 994 4288 1222 
L 4288 256 
z
" transform="scale(0.015625)"/>
      <path id="DejaVuSans-Bold-2f" d="M 1644 4666 
L 2338 4666 
L 691 -594 
L 0 -594 
L 1644 4666 
z
" transform="scale(0.015625)"/>
      <path id="DejaVuSans-Bold-42" d="M 2456 2859 
Q 2741 2859 2887 2984 
Q 3034 3109 3034 3353 
Q 3034 3594 2887 3720 
Q 2741 3847 2456 3847 
L 1791 3847 
L 1791 2859 
L 2456 2859 
z
M 2497 819 
Q 2859 819 3042 972 
Q 3225 1125 3225 1434 
Q 3225 1738 3044 1889 
Q 2863 2041 2497 2041 
L 1791 2041 
L 1791 819 
L 2497 819 
z
M 3616 2497 
Q 4003 2384 4215 2081 
Q 4428 1778 4428 1338 
Q 4428 663 3972 331 
Q 3516 0 2584 0 
L 588 0 
L 588 4666 
L 2394 4666 
Q 3366 4666 3802 4372 
Q 4238 4078 4238 3431 
Q 4238 3091 4078 2852 
Q 3919 2613 3616 2497 
z
" transform="scale(0.015625)"/>
      <path id="DejaVuSans-Bold-20" transform="scale(0.015625)"/>
      <path id="DejaVuSans-Bold-68" d="M 4056 2131 
L 4056 0 
L 2931 0 
L 2931 347 
L 2931 1625 
Q 2931 2084 2911 2256 
Q 2891 2428 2841 2509 
Q 2775 2619 2662 2680 
Q 2550 2741 2406 2741 
Q 2056 2741 1856 2470 
Q 1656 2200 1656 1722 
L 1656 0 
L 538 0 
L 538 4863 
L 1656 4863 
L 1656 2988 
Q 1909 3294 2193 3439 
Q 2478 3584 2822 3584 
Q 3428 3584 3742 3212 
Q 4056 2841 4056 2131 
z
" transform="scale(0.015625)"/>
      <path id="DejaVuSans-Bold-4a" d="M 588 4666 
L 1791 4666 
L 1791 453 
Q 1791 -419 1317 -850 
Q 844 -1281 -116 -1281 
L -359 -1281 
L -359 -372 
L -172 -372 
Q 203 -372 395 -162 
Q 588 47 588 453 
L 588 4666 
z
" transform="scale(0.015625)"/>
      <path id="DejaVuSans-Bold-75" d="M 500 1363 
L 500 3500 
L 1625 3500 
L 1625 3150 
Q 1625 2866 1622 2436 
Q 1619 2006 1619 1863 
Q 1619 1441 1641 1255 
Q 1663 1069 1716 984 
Q 1784 875 1895 815 
Q 2006 756 2150 756 
Q 2500 756 2700 1025 
Q 2900 1294 2900 1772 
L 2900 3500 
L 4019 3500 
L 4019 0 
L 2900 0 
L 2900 506 
Q 2647 200 2364 54 
Q 2081 -91 1741 -91 
Q 1134 -91 817 281 
Q 500 653 500 1363 
z
" transform="scale(0.015625)"/>
      <path id="DejaVuSans-Bold-70" d="M 1656 506 
L 1656 -1331 
L 538 -1331 
L 538 3500 
L 1656 3500 
L 1656 2988 
Q 1888 3294 2169 3439 
Q 2450 3584 2816 3584 
Q 3463 3584 3878 3070 
Q 4294 2556 4294 1747 
Q 4294 938 3878 423 
Q 3463 -91 2816 -91 
Q 2450 -91 2169 54 
Q 1888 200 1656 506 
z
M 2400 2772 
Q 2041 2772 1848 2508 
Q 1656 2244 1656 1747 
Q 1656 1250 1848 986 
Q 2041 722 2400 722 
Q 2759 722 2948 984 
Q 3138 1247 3138 1747 
Q 3138 2247 2948 2509 
Q 2759 2772 2400 2772 
z
" transform="scale(0.015625)"/>
      <path id="DejaVuSans-Bold-52" d="M 2297 2597 
Q 2675 2597 2839 2737 
Q 3003 2878 3003 3200 
Q 3003 3519 2839 3656 
Q 2675 3794 2297 3794 
L 1791 3794 
L 1791 2597 
L 2297 2597 
z
M 1791 1766 
L 1791 0 
L 588 0 
L 588 4666 
L 2425 4666 
Q 3347 4666 3776 4356 
Q 4206 4047 4206 3378 
Q 4206 2916 3982 2619 
Q 3759 2322 3309 2181 
Q 3556 2125 3751 1926 
Q 3947 1728 4147 1325 
L 4800 0 
L 3519 0 
L 2950 1159 
Q 2778 1509 2601 1637 
Q 2425 1766 2131 1766 
L 1791 1766 
z
" transform="scale(0.015625)"/>
      <path id="DejaVuSans-Bold-61" d="M 2106 1575 
Q 1756 1575 1579 1456 
Q 1403 1338 1403 1106 
Q 1403 894 1545 773 
Q 1688 653 1941 653 
Q 2256 653 2472 879 
Q 2688 1106 2688 1447 
L 2688 1575 
L 2106 1575 
z
M 3816 1997 
L 3816 0 
L 2688 0 
L 2688 519 
Q 2463 200 2181 54 
Q 1900 -91 1497 -91 
Q 953 -91 614 226 
Q 275 544 275 1050 
Q 275 1666 698 1953 
Q 1122 2241 2028 2241 
L 2688 2241 
L 2688 2328 
Q 2688 2594 2478 2717 
Q 2269 2841 1825 2841 
Q 1466 2841 1156 2769 
Q 847 2697 581 2553 
L 581 3406 
Q 941 3494 1303 3539 
Q 1666 3584 2028 3584 
Q 2975 3584 3395 3211 
Q 3816 2838 3816 1997 
z
" transform="scale(0.015625)"/>
      <path id="DejaVuSans-Bold-74" d="M 1759 4494 
L 1759 3500 
L 2913 3500 
L 2913 2700 
L 1759 2700 
L 1759 1216 
Q 1759 972 1856 886 
Q 1953 800 2241 800 
L 2816 800 
L 2816 0 
L 1856 0 
Q 1194 0 917 276 
Q 641 553 641 1216 
L 641 2700 
L 84 2700 
L 84 3500 
L 641 3500 
L 641 4494 
L 1759 4494 
z
" transform="scale(0.015625)"/>
      <path id="DejaVuSans-Bold-69" d="M 538 3500 
L 1656 3500 
L 1656 0 
L 538 0 
L 538 3500 
z
M 538 4863 
L 1656 4863 
L 1656 3950 
L 538 3950 
L 538 4863 
z
" transform="scale(0.015625)"/>
      <path id="DejaVuSans-Bold-6f" d="M 2203 2784 
Q 1831 2784 1636 2517 
Q 1441 2250 1441 1747 
Q 1441 1244 1636 976 
Q 1831 709 2203 709 
Q 2569 709 2762 976 
Q 2956 1244 2956 1747 
Q 2956 2250 2762 2517 
Q 2569 2784 2203 2784 
z
M 2203 3584 
Q 3106 3584 3614 3096 
Q 4122 2609 4122 1747 
Q 4122 884 3614 396 
Q 3106 -91 2203 -91 
Q 1297 -91 786 396 
Q 275 884 275 1747 
Q 275 2609 786 3096 
Q 1297 3584 2203 3584 
z
" transform="scale(0.015625)"/>
     </defs>
     <use xlink:href="#DejaVuSans-Bold-41"/>
     <use xlink:href="#DejaVuSans-Bold-43" x="77.392578"/>
     <use xlink:href="#DejaVuSans-Bold-2f" x="150.78125"/>
     <use xlink:href="#DejaVuSans-Bold-42" x="187.304688"/>
     <use xlink:href="#DejaVuSans-Bold-43" x="263.525391"/>
     <use xlink:href="#DejaVuSans-Bold-20" x="336.914062"/>
     <use xlink:href="#DejaVuSans-Bold-43" x="371.728516"/>
     <use xlink:href="#DejaVuSans-Bold-68" x="445.117188"/>
     <use xlink:href="#DejaVuSans-Bold-4a" x="516.308594"/>
     <use xlink:href="#DejaVuSans-Bold-75" x="553.515625"/>
     <use xlink:href="#DejaVuSans-Bold-70" x="624.707031"/>
     <use xlink:href="#DejaVuSans-Bold-20" x="696.289062"/>
     <use xlink:href="#DejaVuSans-Bold-52" x="731.103516"/>
     <use xlink:href="#DejaVuSans-Bold-61" x="808.105469"/>
     <use xlink:href="#DejaVuSans-Bold-74" x="875.585938"/>
     <use xlink:href="#DejaVuSans-Bold-69" x="923.388672"/>
     <use xlink:href="#DejaVuSans-Bold-6f" x="957.666016"/>
    </g>
   </g>
   <g id="legend_1">
    <g id="patch_15">
     <path d="M 409.284375 95.109375 
L 568.926563 95.109375 
Q 570.926563 95.109375 570.926563 93.109375 
L 570.926563 35.396875 
Q 570.926563 33.396875 568.926563 33.396875 
L 409.284375 33.396875 
Q 407.284375 33.396875 407.284375 35.396875 
L 407.284375 93.109375 
Q 407.284375 95.109375 409.284375 95.109375 
z
" style="fill: #ffffff; opacity: 0.8; stroke: #cccccc; stroke-linejoin: miter"/>
    </g>
    <g id="line2d_61">
     <defs>
      <path id="m3325595f2a" d="M 0 5 
C 1.326016 5 2.597899 4.473168 3.535534 3.535534 
C 4.473168 2.597899 5 1.326016 5 0 
C 5 -1.326016 4.473168 -2.597899 3.535534 -3.535534 
C 2.597899 -4.473168 1.326016 -5 0 -5 
C -1.326016 -5 -2.597899 -4.473168 -3.535534 -3.535534 
C -4.473168 -2.597899 -5 -1.326016 -5 0 
C -5 1.326016 -4.473168 2.597899 -3.535534 3.535534 
C -2.597899 4.473168 -1.326016 5 0 5 
z
" style="stroke: #000000"/>
     </defs>
     <g>
      <use xlink:href="#m3325595f2a" x="421.284375" y="41.495312" style="fill: #808080; stroke: #000000"/>
     </g>
    </g>
    <g id="text_17">
     <!-- WT -->
     <g transform="translate(439.284375 44.995312) scale(0.1 -0.1)">
      <defs>
       <path id="DejaVuSans-57" d="M 213 4666 
L 850 4666 
L 1831 722 
L 2809 4666 
L 3519 4666 
L 4500 722 
L 5478 4666 
L 6119 4666 
L 4947 0 
L 4153 0 
L 3169 4050 
L 2175 0 
L 1381 0 
L 213 4666 
z
" transform="scale(0.015625)"/>
       <path id="DejaVuSans-54" d="M -19 4666 
L 3928 4666 
L 3928 4134 
L 2272 4134 
L 2272 0 
L 1638 0 
L 1638 4134 
L -19 4134 
L -19 4666 
z
" transform="scale(0.015625)"/>
      </defs>
      <use xlink:href="#DejaVuSans-57"/>
      <use xlink:href="#DejaVuSans-54" x="98.876953"/>
     </g>
    </g>
    <g id="line2d_62">
     <defs>
      <path id="m99f12c3549" d="M 0 5 
C 1.326016 5 2.597899 4.473168 3.535534 3.535534 
C 4.473168 2.597899 5 1.326016 5 0 
C 5 -1.326016 4.473168 -2.597899 3.535534 -3.535534 
C 2.597899 -4.473168 1.326016 -5 0 -5 
C -1.326016 -5 -2.597899 -4.473168 -3.535534 -3.535534 
C -4.473168 -2.597899 -5 -1.326016 -5 0 
C -5 1.326016 -4.473168 2.597899 -3.535534 3.535534 
C -2.597899 4.473168 -1.326016 5 0 5 
z
" style="stroke: #000000"/>
     </defs>
     <g>
      <use xlink:href="#m99f12c3549" x="421.284375" y="56.173437" style="fill: #648fff; stroke: #000000"/>
     </g>
    </g>
    <g id="text_18">
     <!-- yTubulin37C[S131A] -->
     <g transform="translate(439.284375 59.673437) scale(0.1 -0.1)">
      <defs>
       <path id="DejaVuSans-79" d="M 2059 -325 
Q 1816 -950 1584 -1140 
Q 1353 -1331 966 -1331 
L 506 -1331 
L 506 -850 
L 844 -850 
Q 1081 -850 1212 -737 
Q 1344 -625 1503 -206 
L 1606 56 
L 191 3500 
L 800 3500 
L 1894 763 
L 2988 3500 
L 3597 3500 
L 2059 -325 
z
" transform="scale(0.015625)"/>
       <path id="DejaVuSans-75" d="M 544 1381 
L 544 3500 
L 1119 3500 
L 1119 1403 
Q 1119 906 1312 657 
Q 1506 409 1894 409 
Q 2359 409 2629 706 
Q 2900 1003 2900 1516 
L 2900 3500 
L 3475 3500 
L 3475 0 
L 2900 0 
L 2900 538 
Q 2691 219 2414 64 
Q 2138 -91 1772 -91 
Q 1169 -91 856 284 
Q 544 659 544 1381 
z
M 1991 3584 
L 1991 3584 
z
" transform="scale(0.015625)"/>
       <path id="DejaVuSans-62" d="M 3116 1747 
Q 3116 2381 2855 2742 
Q 2594 3103 2138 3103 
Q 1681 3103 1420 2742 
Q 1159 2381 1159 1747 
Q 1159 1113 1420 752 
Q 1681 391 2138 391 
Q 2594 391 2855 752 
Q 3116 1113 3116 1747 
z
M 1159 2969 
Q 1341 3281 1617 3432 
Q 1894 3584 2278 3584 
Q 2916 3584 3314 3078 
Q 3713 2572 3713 1747 
Q 3713 922 3314 415 
Q 2916 -91 2278 -91 
Q 1894 -91 1617 61 
Q 1341 213 1159 525 
L 1159 0 
L 581 0 
L 581 4863 
L 1159 4863 
L 1159 2969 
z
" transform="scale(0.015625)"/>
       <path id="DejaVuSans-6c" d="M 603 4863 
L 1178 4863 
L 1178 0 
L 603 0 
L 603 4863 
z
" transform="scale(0.015625)"/>
       <path id="DejaVuSans-5b" d="M 550 4863 
L 1875 4863 
L 1875 4416 
L 1125 4416 
L 1125 -397 
L 1875 -397 
L 1875 -844 
L 550 -844 
L 550 4863 
z
" transform="scale(0.015625)"/>
       <path id="DejaVuSans-53" d="M 3425 4513 
L 3425 3897 
Q 3066 4069 2747 4153 
Q 2428 4238 2131 4238 
Q 1616 4238 1336 4038 
Q 1056 3838 1056 3469 
Q 1056 3159 1242 3001 
Q 1428 2844 1947 2747 
L 2328 2669 
Q 3034 2534 3370 2195 
Q 3706 1856 3706 1288 
Q 3706 609 3251 259 
Q 2797 -91 1919 -91 
Q 1588 -91 1214 -16 
Q 841 59 441 206 
L 441 856 
Q 825 641 1194 531 
Q 1563 422 1919 422 
Q 2459 422 2753 634 
Q 3047 847 3047 1241 
Q 3047 1584 2836 1778 
Q 2625 1972 2144 2069 
L 1759 2144 
Q 1053 2284 737 2584 
Q 422 2884 422 3419 
Q 422 4038 858 4394 
Q 1294 4750 2059 4750 
Q 2388 4750 2728 4690 
Q 3069 4631 3425 4513 
z
" transform="scale(0.015625)"/>
       <path id="DejaVuSans-5d" d="M 1947 4863 
L 1947 -844 
L 622 -844 
L 622 -397 
L 1369 -397 
L 1369 4416 
L 622 4416 
L 622 4863 
L 1947 4863 
z
" transform="scale(0.015625)"/>
      </defs>
      <use xlink:href="#DejaVuSans-79"/>
      <use xlink:href="#DejaVuSans-54" x="59.179688"/>
      <use xlink:href="#DejaVuSans-75" x="105.138672"/>
      <use xlink:href="#DejaVuSans-62" x="168.517578"/>
      <use xlink:href="#DejaVuSans-75" x="231.994141"/>
      <use xlink:href="#DejaVuSans-6c" x="295.373047"/>
      <use xlink:href="#DejaVuSans-69" x="323.15625"/>
      <use xlink:href="#DejaVuSans-6e" x="350.939453"/>
      <use xlink:href="#DejaVuSans-33" x="414.318359"/>
      <use xlink:href="#DejaVuSans-37" x="477.941406"/>
      <use xlink:href="#DejaVuSans-43" x="541.564453"/>
      <use xlink:href="#DejaVuSans-5b" x="611.388672"/>
      <use xlink:href="#DejaVuSans-53" x="650.402344"/>
      <use xlink:href="#DejaVuSans-31" x="713.878906"/>
      <use xlink:href="#DejaVuSans-33" x="777.501953"/>
      <use xlink:href="#DejaVuSans-31" x="841.125"/>
      <use xlink:href="#DejaVuSans-41" x="904.748047"/>
      <use xlink:href="#DejaVuSans-5d" x="973.15625"/>
     </g>
    </g>
    <g id="line2d_63">
     <defs>
      <path id="m5f54b2f358" d="M 0 5 
C 1.326016 5 2.597899 4.473168 3.535534 3.535534 
C 4.473168 2.597899 5 1.326016 5 0 
C 5 -1.326016 4.473168 -2.597899 3.535534 -3.535534 
C 2.597899 -4.473168 1.326016 -5 0 -5 
C -1.326016 -5 -2.597899 -4.473168 -3.535534 -3.535534 
C -4.473168 -2.597899 -5 -1.326016 -5 0 
C -5 1.326016 -4.473168 2.597899 -3.535534 3.535534 
C -2.597899 4.473168 -1.326016 5 0 5 
z
" style="stroke: #000000"/>
     </defs>
     <g>
      <use xlink:href="#m5f54b2f358" x="421.284375" y="70.851562" style="fill: #785ef0; stroke: #000000"/>
     </g>
    </g>
    <g id="text_19">
     <!-- yTubulin37C[3], 2X MTOC -->
     <g transform="translate(439.284375 74.351562) scale(0.1 -0.1)">
      <defs>
       <path id="DejaVuSans-2c" d="M 750 794 
L 1409 794 
L 1409 256 
L 897 -744 
L 494 -744 
L 750 256 
L 750 794 
z
" transform="scale(0.015625)"/>
       <path id="DejaVuSans-58" d="M 403 4666 
L 1081 4666 
L 2241 2931 
L 3406 4666 
L 4084 4666 
L 2584 2425 
L 4184 0 
L 3506 0 
L 2194 1984 
L 872 0 
L 191 0 
L 1856 2491 
L 403 4666 
z
" transform="scale(0.015625)"/>
       <path id="DejaVuSans-4d" d="M 628 4666 
L 1569 4666 
L 2759 1491 
L 3956 4666 
L 4897 4666 
L 4897 0 
L 4281 0 
L 4281 4097 
L 3078 897 
L 2444 897 
L 1241 4097 
L 1241 0 
L 628 0 
L 628 4666 
z
" transform="scale(0.015625)"/>
       <path id="DejaVuSans-4f" d="M 2522 4238 
Q 1834 4238 1429 3725 
Q 1025 3213 1025 2328 
Q 1025 1447 1429 934 
Q 1834 422 2522 422 
Q 3209 422 3611 934 
Q 4013 1447 4013 2328 
Q 4013 3213 3611 3725 
Q 3209 4238 2522 4238 
z
M 2522 4750 
Q 3503 4750 4090 4092 
Q 4678 3434 4678 2328 
Q 4678 1225 4090 567 
Q 3503 -91 2522 -91 
Q 1538 -91 948 565 
Q 359 1222 359 2328 
Q 359 3434 948 4092 
Q 1538 4750 2522 4750 
z
" transform="scale(0.015625)"/>
      </defs>
      <use xlink:href="#DejaVuSans-79"/>
      <use xlink:href="#DejaVuSans-54" x="59.179688"/>
      <use xlink:href="#DejaVuSans-75" x="105.138672"/>
      <use xlink:href="#DejaVuSans-62" x="168.517578"/>
      <use xlink:href="#DejaVuSans-75" x="231.994141"/>
      <use xlink:href="#DejaVuSans-6c" x="295.373047"/>
      <use xlink:href="#DejaVuSans-69" x="323.15625"/>
      <use xlink:href="#DejaVuSans-6e" x="350.939453"/>
      <use xlink:href="#DejaVuSans-33" x="414.318359"/>
      <use xlink:href="#DejaVuSans-37" x="477.941406"/>
      <use xlink:href="#DejaVuSans-43" x="541.564453"/>
      <use xlink:href="#DejaVuSans-5b" x="611.388672"/>
      <use xlink:href="#DejaVuSans-33" x="650.402344"/>
      <use xlink:href="#DejaVuSans-5d" x="714.025391"/>
      <use xlink:href="#DejaVuSans-2c" x="753.039062"/>
      <use xlink:href="#DejaVuSans-20" x="784.826172"/>
      <use xlink:href="#DejaVuSans-32" x="816.613281"/>
      <use xlink:href="#DejaVuSans-58" x="880.236328"/>
      <use xlink:href="#DejaVuSans-20" x="948.742188"/>
      <use xlink:href="#DejaVuSans-4d" x="980.529297"/>
      <use xlink:href="#DejaVuSans-54" x="1066.808594"/>
      <use xlink:href="#DejaVuSans-4f" x="1127.892578"/>
      <use xlink:href="#DejaVuSans-43" x="1206.603516"/>
     </g>
    </g>
    <g id="line2d_64">
     <defs>
      <path id="m0994aa20ff" d="M 0 5 
C 1.326016 5 2.597899 4.473168 3.535534 3.535534 
C 4.473168 2.597899 5 1.326016 5 0 
C 5 -1.326016 4.473168 -2.597899 3.535534 -3.535534 
C 2.597899 -4.473168 1.326016 -5 0 -5 
C -1.326016 -5 -2.597899 -4.473168 -3.535534 -3.535534 
C -4.473168 -2.597899 -5 -1.326016 -5 0 
C -5 1.326016 -4.473168 2.597899 -3.535534 3.535534 
C -2.597899 4.473168 -1.326016 5 0 5 
z
" style="stroke: #000000"/>
     </defs>
     <g>
      <use xlink:href="#m0994aa20ff" x="421.284375" y="85.529687" style="fill: #ffb000; stroke: #000000"/>
     </g>
    </g>
    <g id="text_20">
     <!-- yTubulin37C[3], 0X MTOC -->
     <g transform="translate(439.284375 89.029687) scale(0.1 -0.1)">
      <use xlink:href="#DejaVuSans-79"/>
      <use xlink:href="#DejaVuSans-54" x="59.179688"/>
      <use xlink:href="#DejaVuSans-75" x="105.138672"/>
      <use xlink:href="#DejaVuSans-62" x="168.517578"/>
      <use xlink:href="#DejaVuSans-75" x="231.994141"/>
      <use xlink:href="#DejaVuSans-6c" x="295.373047"/>
      <use xlink:href="#DejaVuSans-69" x="323.15625"/>
      <use xlink:href="#DejaVuSans-6e" x="350.939453"/>
      <use xlink:href="#DejaVuSans-33" x="414.318359"/>
      <use xlink:href="#DejaVuSans-37" x="477.941406"/>
      <use xlink:href="#DejaVuSans-43" x="541.564453"/>
      <use xlink:href="#DejaVuSans-5b" x="611.388672"/>
      <use xlink:href="#DejaVuSans-33" x="650.402344"/>
      <use xlink:href="#DejaVuSans-5d" x="714.025391"/>
      <use xlink:href="#DejaVuSans-2c" x="753.039062"/>
      <use xlink:href="#DejaVuSans-20" x="784.826172"/>
      <use xlink:href="#DejaVuSans-30" x="816.613281"/>
      <use xlink:href="#DejaVuSans-58" x="880.236328"/>
      <use xlink:href="#DejaVuSans-20" x="948.742188"/>
      <use xlink:href="#DejaVuSans-4d" x="980.529297"/>
      <use xlink:href="#DejaVuSans-54" x="1066.808594"/>
      <use xlink:href="#DejaVuSans-4f" x="1127.892578"/>
      <use xlink:href="#DejaVuSans-43" x="1206.603516"/>
     </g>
    </g>
   </g>
  </g>
 </g>
 <defs>
  <clipPath id="p143176338d">
   <rect x="45.164375" y="28.396875" width="357.12" height="266.112"/>
  </clipPath>
 </defs>
</svg>
