<?xml version="1.0" encoding="utf-8" standalone="no"?>
<!DOCTYPE svg PUBLIC "-//W3C//DTD SVG 1.1//EN"
  "http://www.w3.org/Graphics/SVG/1.1/DTD/svg11.dtd">
<svg xmlns:xlink="http://www.w3.org/1999/xlink" width="587.670313pt" height="323.226062pt" viewBox="0 0 587.670313 323.226062" xmlns="http://www.w3.org/2000/svg" version="1.1">
 <metadata>
  <rdf:RDF xmlns:dc="http://purl.org/dc/elements/1.1/" xmlns:cc="http://creativecommons.org/ns#" xmlns:rdf="http://www.w3.org/1999/02/22-rdf-syntax-ns#">
   <cc:Work>
    <dc:type rdf:resource="http://purl.org/dc/dcmitype/StillImage"/>
    <dc:date>2024-12-11T14:49:42.598420</dc:date>
    <dc:format>image/svg+xml</dc:format>
    <dc:creator>
     <cc:Agent>
      <dc:title>Matplotlib v3.7.2, https://matplotlib.org/</dc:title>
     </cc:Agent>
    </dc:creator>
   </cc:Work>
  </rdf:RDF>
 </metadata>
 <defs>
  <style type="text/css">*{stroke-linejoin: round; stroke-linecap: butt}</style>
 </defs>
 <g id="figure_1">
  <g id="patch_1">
   <path d="M 0 323.226062 
L 587.670313 323.226062 
L 587.670313 0 
L 0 0 
z
" style="fill: #ffffff"/>
  </g>
  <g id="axes_1">
   <g id="patch_2">
    <path d="M 54.708125 294.508875 
L 411.828125 294.508875 
L 411.828125 28.396875 
L 54.708125 28.396875 
z
" style="fill: #ffffff"/>
   </g>
   <g id="matplotlib.axis_1">
    <g id="xtick_1">
     <g id="line2d_1">
      <defs>
       <path id="m121780cb1a" d="M 0 0 
L 0 3.5 
" style="stroke: #000000; stroke-width: 0.8"/>
      </defs>
      <g>
       <use xlink:href="#m121780cb1a" x="143.988125" y="294.508875" style="stroke: #000000; stroke-width: 0.8"/>
      </g>
     </g>
     <g id="text_1">
      <!-- interphase -->
      <g transform="translate(103.880703 312.906531) scale(0.15 -0.15)">
       <defs>
        <path id="DejaVuSans-69" d="M 603 3500 
L 1178 3500 
L 1178 0 
L 603 0 
L 603 3500 
z
M 603 4863 
L 1178 4863 
L 1178 4134 
L 603 4134 
L 603 4863 
z
" transform="scale(0.015625)"/>
        <path id="DejaVuSans-6e" d="M 3513 2113 
L 3513 0 
L 2938 0 
L 2938 2094 
Q 2938 2591 2744 2837 
Q 2550 3084 2163 3084 
Q 1697 3084 1428 2787 
Q 1159 2491 1159 1978 
L 1159 0 
L 581 0 
L 581 3500 
L 1159 3500 
L 1159 2956 
Q 1366 3272 1645 3428 
Q 1925 3584 2291 3584 
Q 2894 3584 3203 3211 
Q 3513 2838 3513 2113 
z
" transform="scale(0.015625)"/>
        <path id="DejaVuSans-74" d="M 1172 4494 
L 1172 3500 
L 2356 3500 
L 2356 3053 
L 1172 3053 
L 1172 1153 
Q 1172 725 1289 603 
Q 1406 481 1766 481 
L 2356 481 
L 2356 0 
L 1766 0 
Q 1100 0 847 248 
Q 594 497 594 1153 
L 594 3053 
L 172 3053 
L 172 3500 
L 594 3500 
L 594 4494 
L 1172 4494 
z
" transform="scale(0.015625)"/>
        <path id="DejaVuSans-65" d="M 3597 1894 
L 3597 1613 
L 953 1613 
Q 991 1019 1311 708 
Q 1631 397 2203 397 
Q 2534 397 2845 478 
Q 3156 559 3463 722 
L 3463 178 
Q 3153 47 2828 -22 
Q 2503 -91 2169 -91 
Q 1331 -91 842 396 
Q 353 884 353 1716 
Q 353 2575 817 3079 
Q 1281 3584 2069 3584 
Q 2775 3584 3186 3129 
Q 3597 2675 3597 1894 
z
M 3022 2063 
Q 3016 2534 2758 2815 
Q 2500 3097 2075 3097 
Q 1594 3097 1305 2825 
Q 1016 2553 972 2059 
L 3022 2063 
z
" transform="scale(0.015625)"/>
        <path id="DejaVuSans-72" d="M 2631 2963 
Q 2534 3019 2420 3045 
Q 2306 3072 2169 3072 
Q 1681 3072 1420 2755 
Q 1159 2438 1159 1844 
L 1159 0 
L 581 0 
L 581 3500 
L 1159 3500 
L 1159 2956 
Q 1341 3275 1631 3429 
Q 1922 3584 2338 3584 
Q 2397 3584 2469 3576 
Q 2541 3569 2628 3553 
L 2631 2963 
z
" transform="scale(0.015625)"/>
        <path id="DejaVuSans-70" d="M 1159 525 
L 1159 -1331 
L 581 -1331 
L 581 3500 
L 1159 3500 
L 1159 2969 
Q 1341 3281 1617 3432 
Q 1894 3584 2278 3584 
Q 2916 3584 3314 3078 
Q 3713 2572 3713 1747 
Q 3713 922 3314 415 
Q 2916 -91 2278 -91 
Q 1894 -91 1617 61 
Q 1341 213 1159 525 
z
M 3116 1747 
Q 3116 2381 2855 2742 
Q 2594 3103 2138 3103 
Q 1681 3103 1420 2742 
Q 1159 2381 1159 1747 
Q 1159 1113 1420 752 
Q 1681 391 2138 391 
Q 2594 391 2855 752 
Q 3116 1113 3116 1747 
z
" transform="scale(0.015625)"/>
        <path id="DejaVuSans-68" d="M 3513 2113 
L 3513 0 
L 2938 0 
L 2938 2094 
Q 2938 2591 2744 2837 
Q 2550 3084 2163 3084 
Q 1697 3084 1428 2787 
Q 1159 2491 1159 1978 
L 1159 0 
L 581 0 
L 581 4863 
L 1159 4863 
L 1159 2956 
Q 1366 3272 1645 3428 
Q 1925 3584 2291 3584 
Q 2894 3584 3203 3211 
Q 3513 2838 3513 2113 
z
" transform="scale(0.015625)"/>
        <path id="DejaVuSans-61" d="M 2194 1759 
Q 1497 1759 1228 1600 
Q 959 1441 959 1056 
Q 959 750 1161 570 
Q 1363 391 1709 391 
Q 2188 391 2477 730 
Q 2766 1069 2766 1631 
L 2766 1759 
L 2194 1759 
z
M 3341 1997 
L 3341 0 
L 2766 0 
L 2766 531 
Q 2569 213 2275 61 
Q 1981 -91 1556 -91 
Q 1019 -91 701 211 
Q 384 513 384 1019 
Q 384 1609 779 1909 
Q 1175 2209 1959 2209 
L 2766 2209 
L 2766 2266 
Q 2766 2663 2505 2880 
Q 2244 3097 1772 3097 
Q 1472 3097 1187 3025 
Q 903 2953 641 2809 
L 641 3341 
Q 956 3463 1253 3523 
Q 1550 3584 1831 3584 
Q 2591 3584 2966 3190 
Q 3341 2797 3341 1997 
z
" transform="scale(0.015625)"/>
        <path id="DejaVuSans-73" d="M 2834 3397 
L 2834 2853 
Q 2591 2978 2328 3040 
Q 2066 3103 1784 3103 
Q 1356 3103 1142 2972 
Q 928 2841 928 2578 
Q 928 2378 1081 2264 
Q 1234 2150 1697 2047 
L 1894 2003 
Q 2506 1872 2764 1633 
Q 3022 1394 3022 966 
Q 3022 478 2636 193 
Q 2250 -91 1575 -91 
Q 1294 -91 989 -36 
Q 684 19 347 128 
L 347 722 
Q 666 556 975 473 
Q 1284 391 1588 391 
Q 1994 391 2212 530 
Q 2431 669 2431 922 
Q 2431 1156 2273 1281 
Q 2116 1406 1581 1522 
L 1381 1569 
Q 847 1681 609 1914 
Q 372 2147 372 2553 
Q 372 3047 722 3315 
Q 1072 3584 1716 3584 
Q 2034 3584 2315 3537 
Q 2597 3491 2834 3397 
z
" transform="scale(0.015625)"/>
       </defs>
       <use xlink:href="#DejaVuSans-69"/>
       <use xlink:href="#DejaVuSans-6e" x="27.783203"/>
       <use xlink:href="#DejaVuSans-74" x="91.162109"/>
       <use xlink:href="#DejaVuSans-65" x="130.371094"/>
       <use xlink:href="#DejaVuSans-72" x="191.894531"/>
       <use xlink:href="#DejaVuSans-70" x="233.007812"/>
       <use xlink:href="#DejaVuSans-68" x="296.484375"/>
       <use xlink:href="#DejaVuSans-61" x="359.863281"/>
       <use xlink:href="#DejaVuSans-73" x="421.142578"/>
       <use xlink:href="#DejaVuSans-65" x="473.242188"/>
      </g>
     </g>
    </g>
    <g id="xtick_2">
     <g id="line2d_2">
      <g>
       <use xlink:href="#m121780cb1a" x="322.548125" y="294.508875" style="stroke: #000000; stroke-width: 0.8"/>
      </g>
     </g>
     <g id="text_2">
      <!-- prometaphase -->
      <g transform="translate(268.194219 312.906531) scale(0.15 -0.15)">
       <defs>
        <path id="DejaVuSans-6f" d="M 1959 3097 
Q 1497 3097 1228 2736 
Q 959 2375 959 1747 
Q 959 1119 1226 758 
Q 1494 397 1959 397 
Q 2419 397 2687 759 
Q 2956 1122 2956 1747 
Q 2956 2369 2687 2733 
Q 2419 3097 1959 3097 
z
M 1959 3584 
Q 2709 3584 3137 3096 
Q 3566 2609 3566 1747 
Q 3566 888 3137 398 
Q 2709 -91 1959 -91 
Q 1206 -91 779 398 
Q 353 888 353 1747 
Q 353 2609 779 3096 
Q 1206 3584 1959 3584 
z
" transform="scale(0.015625)"/>
        <path id="DejaVuSans-6d" d="M 3328 2828 
Q 3544 3216 3844 3400 
Q 4144 3584 4550 3584 
Q 5097 3584 5394 3201 
Q 5691 2819 5691 2113 
L 5691 0 
L 5113 0 
L 5113 2094 
Q 5113 2597 4934 2840 
Q 4756 3084 4391 3084 
Q 3944 3084 3684 2787 
Q 3425 2491 3425 1978 
L 3425 0 
L 2847 0 
L 2847 2094 
Q 2847 2600 2669 2842 
Q 2491 3084 2119 3084 
Q 1678 3084 1418 2786 
Q 1159 2488 1159 1978 
L 1159 0 
L 581 0 
L 581 3500 
L 1159 3500 
L 1159 2956 
Q 1356 3278 1631 3431 
Q 1906 3584 2284 3584 
Q 2666 3584 2933 3390 
Q 3200 3197 3328 2828 
z
" transform="scale(0.015625)"/>
       </defs>
       <use xlink:href="#DejaVuSans-70"/>
       <use xlink:href="#DejaVuSans-72" x="63.476562"/>
       <use xlink:href="#DejaVuSans-6f" x="102.339844"/>
       <use xlink:href="#DejaVuSans-6d" x="163.521484"/>
       <use xlink:href="#DejaVuSans-65" x="260.933594"/>
       <use xlink:href="#DejaVuSans-74" x="322.457031"/>
       <use xlink:href="#DejaVuSans-61" x="361.666016"/>
       <use xlink:href="#DejaVuSans-70" x="422.945312"/>
       <use xlink:href="#DejaVuSans-68" x="486.421875"/>
       <use xlink:href="#DejaVuSans-61" x="549.800781"/>
       <use xlink:href="#DejaVuSans-73" x="611.080078"/>
       <use xlink:href="#DejaVuSans-65" x="663.179688"/>
      </g>
     </g>
    </g>
   </g>
   <g id="matplotlib.axis_2">
    <g id="ytick_1">
     <g id="line2d_3">
      <defs>
       <path id="m89255342d6" d="M 0 0 
L -3.5 0 
" style="stroke: #000000; stroke-width: 0.8"/>
      </defs>
      <g>
       <use xlink:href="#m89255342d6" x="54.708125" y="294.508875" style="stroke: #000000; stroke-width: 0.8"/>
      </g>
     </g>
     <g id="text_3">
      <!-- 0 -->
      <g transform="translate(38.164375 300.207703) scale(0.15 -0.15)">
       <defs>
        <path id="DejaVuSans-30" d="M 2034 4250 
Q 1547 4250 1301 3770 
Q 1056 3291 1056 2328 
Q 1056 1369 1301 889 
Q 1547 409 2034 409 
Q 2525 409 2770 889 
Q 3016 1369 3016 2328 
Q 3016 3291 2770 3770 
Q 2525 4250 2034 4250 
z
M 2034 4750 
Q 2819 4750 3233 4129 
Q 3647 3509 3647 2328 
Q 3647 1150 3233 529 
Q 2819 -91 2034 -91 
Q 1250 -91 836 529 
Q 422 1150 422 2328 
Q 422 3509 836 4129 
Q 1250 4750 2034 4750 
z
" transform="scale(0.015625)"/>
       </defs>
       <use xlink:href="#DejaVuSans-30"/>
      </g>
     </g>
    </g>
    <g id="ytick_2">
     <g id="line2d_4">
      <g>
       <use xlink:href="#m89255342d6" x="54.708125" y="241.286475" style="stroke: #000000; stroke-width: 0.8"/>
      </g>
     </g>
     <g id="text_4">
      <!-- 2 -->
      <g transform="translate(38.164375 246.985303) scale(0.15 -0.15)">
       <defs>
        <path id="DejaVuSans-32" d="M 1228 531 
L 3431 531 
L 3431 0 
L 469 0 
L 469 531 
Q 828 903 1448 1529 
Q 2069 2156 2228 2338 
Q 2531 2678 2651 2914 
Q 2772 3150 2772 3378 
Q 2772 3750 2511 3984 
Q 2250 4219 1831 4219 
Q 1534 4219 1204 4116 
Q 875 4013 500 3803 
L 500 4441 
Q 881 4594 1212 4672 
Q 1544 4750 1819 4750 
Q 2544 4750 2975 4387 
Q 3406 4025 3406 3419 
Q 3406 3131 3298 2873 
Q 3191 2616 2906 2266 
Q 2828 2175 2409 1742 
Q 1991 1309 1228 531 
z
" transform="scale(0.015625)"/>
       </defs>
       <use xlink:href="#DejaVuSans-32"/>
      </g>
     </g>
    </g>
    <g id="ytick_3">
     <g id="line2d_5">
      <g>
       <use xlink:href="#m89255342d6" x="54.708125" y="188.064075" style="stroke: #000000; stroke-width: 0.8"/>
      </g>
     </g>
     <g id="text_5">
      <!-- 4 -->
      <g transform="translate(38.164375 193.762903) scale(0.15 -0.15)">
       <defs>
        <path id="DejaVuSans-34" d="M 2419 4116 
L 825 1625 
L 2419 1625 
L 2419 4116 
z
M 2253 4666 
L 3047 4666 
L 3047 1625 
L 3713 1625 
L 3713 1100 
L 3047 1100 
L 3047 0 
L 2419 0 
L 2419 1100 
L 313 1100 
L 313 1709 
L 2253 4666 
z
" transform="scale(0.015625)"/>
       </defs>
       <use xlink:href="#DejaVuSans-34"/>
      </g>
     </g>
    </g>
    <g id="ytick_4">
     <g id="line2d_6">
      <g>
       <use xlink:href="#m89255342d6" x="54.708125" y="134.841675" style="stroke: #000000; stroke-width: 0.8"/>
      </g>
     </g>
     <g id="text_6">
      <!-- 6 -->
      <g transform="translate(38.164375 140.540503) scale(0.15 -0.15)">
       <defs>
        <path id="DejaVuSans-36" d="M 2113 2584 
Q 1688 2584 1439 2293 
Q 1191 2003 1191 1497 
Q 1191 994 1439 701 
Q 1688 409 2113 409 
Q 2538 409 2786 701 
Q 3034 994 3034 1497 
Q 3034 2003 2786 2293 
Q 2538 2584 2113 2584 
z
M 3366 4563 
L 3366 3988 
Q 3128 4100 2886 4159 
Q 2644 4219 2406 4219 
Q 1781 4219 1451 3797 
Q 1122 3375 1075 2522 
Q 1259 2794 1537 2939 
Q 1816 3084 2150 3084 
Q 2853 3084 3261 2657 
Q 3669 2231 3669 1497 
Q 3669 778 3244 343 
Q 2819 -91 2113 -91 
Q 1303 -91 875 529 
Q 447 1150 447 2328 
Q 447 3434 972 4092 
Q 1497 4750 2381 4750 
Q 2619 4750 2861 4703 
Q 3103 4656 3366 4563 
z
" transform="scale(0.015625)"/>
       </defs>
       <use xlink:href="#DejaVuSans-36"/>
      </g>
     </g>
    </g>
    <g id="ytick_5">
     <g id="line2d_7">
      <g>
       <use xlink:href="#m89255342d6" x="54.708125" y="81.619275" style="stroke: #000000; stroke-width: 0.8"/>
      </g>
     </g>
     <g id="text_7">
      <!-- 8 -->
      <g transform="translate(38.164375 87.318103) scale(0.15 -0.15)">
       <defs>
        <path id="DejaVuSans-38" d="M 2034 2216 
Q 1584 2216 1326 1975 
Q 1069 1734 1069 1313 
Q 1069 891 1326 650 
Q 1584 409 2034 409 
Q 2484 409 2743 651 
Q 3003 894 3003 1313 
Q 3003 1734 2745 1975 
Q 2488 2216 2034 2216 
z
M 1403 2484 
Q 997 2584 770 2862 
Q 544 3141 544 3541 
Q 544 4100 942 4425 
Q 1341 4750 2034 4750 
Q 2731 4750 3128 4425 
Q 3525 4100 3525 3541 
Q 3525 3141 3298 2862 
Q 3072 2584 2669 2484 
Q 3125 2378 3379 2068 
Q 3634 1759 3634 1313 
Q 3634 634 3220 271 
Q 2806 -91 2034 -91 
Q 1263 -91 848 271 
Q 434 634 434 1313 
Q 434 1759 690 2068 
Q 947 2378 1403 2484 
z
M 1172 3481 
Q 1172 3119 1398 2916 
Q 1625 2713 2034 2713 
Q 2441 2713 2670 2916 
Q 2900 3119 2900 3481 
Q 2900 3844 2670 4047 
Q 2441 4250 2034 4250 
Q 1625 4250 1398 4047 
Q 1172 3844 1172 3481 
z
" transform="scale(0.015625)"/>
       </defs>
       <use xlink:href="#DejaVuSans-38"/>
      </g>
     </g>
    </g>
    <g id="ytick_6">
     <g id="line2d_8">
      <g>
       <use xlink:href="#m89255342d6" x="54.708125" y="28.396875" style="stroke: #000000; stroke-width: 0.8"/>
      </g>
     </g>
     <g id="text_8">
      <!-- 10 -->
      <g transform="translate(28.620625 34.095703) scale(0.15 -0.15)">
       <defs>
        <path id="DejaVuSans-31" d="M 794 531 
L 1825 531 
L 1825 4091 
L 703 3866 
L 703 4441 
L 1819 4666 
L 2450 4666 
L 2450 531 
L 3481 531 
L 3481 0 
L 794 0 
L 794 531 
z
" transform="scale(0.015625)"/>
       </defs>
       <use xlink:href="#DejaVuSans-31"/>
       <use xlink:href="#DejaVuSans-30" x="63.623047"/>
      </g>
     </g>
    </g>
    <g id="text_9">
     <!-- AC/Cytoplasm Ratio -->
     <g transform="translate(20.877187 250.561312) rotate(-90) scale(0.18 -0.18)">
      <defs>
       <path id="DejaVuSans-41" d="M 2188 4044 
L 1331 1722 
L 3047 1722 
L 2188 4044 
z
M 1831 4666 
L 2547 4666 
L 4325 0 
L 3669 0 
L 3244 1197 
L 1141 1197 
L 716 0 
L 50 0 
L 1831 4666 
z
" transform="scale(0.015625)"/>
       <path id="DejaVuSans-43" d="M 4122 4306 
L 4122 3641 
Q 3803 3938 3442 4084 
Q 3081 4231 2675 4231 
Q 1875 4231 1450 3742 
Q 1025 3253 1025 2328 
Q 1025 1406 1450 917 
Q 1875 428 2675 428 
Q 3081 428 3442 575 
Q 3803 722 4122 1019 
L 4122 359 
Q 3791 134 3420 21 
Q 3050 -91 2638 -91 
Q 1578 -91 968 557 
Q 359 1206 359 2328 
Q 359 3453 968 4101 
Q 1578 4750 2638 4750 
Q 3056 4750 3426 4639 
Q 3797 4528 4122 4306 
z
" transform="scale(0.015625)"/>
       <path id="DejaVuSans-2f" d="M 1625 4666 
L 2156 4666 
L 531 -594 
L 0 -594 
L 1625 4666 
z
" transform="scale(0.015625)"/>
       <path id="DejaVuSans-79" d="M 2059 -325 
Q 1816 -950 1584 -1140 
Q 1353 -1331 966 -1331 
L 506 -1331 
L 506 -850 
L 844 -850 
Q 1081 -850 1212 -737 
Q 1344 -625 1503 -206 
L 1606 56 
L 191 3500 
L 800 3500 
L 1894 763 
L 2988 3500 
L 3597 3500 
L 2059 -325 
z
" transform="scale(0.015625)"/>
       <path id="DejaVuSans-6c" d="M 603 4863 
L 1178 4863 
L 1178 0 
L 603 0 
L 603 4863 
z
" transform="scale(0.015625)"/>
       <path id="DejaVuSans-20" transform="scale(0.015625)"/>
       <path id="DejaVuSans-52" d="M 2841 2188 
Q 3044 2119 3236 1894 
Q 3428 1669 3622 1275 
L 4263 0 
L 3584 0 
L 2988 1197 
Q 2756 1666 2539 1819 
Q 2322 1972 1947 1972 
L 1259 1972 
L 1259 0 
L 628 0 
L 628 4666 
L 2053 4666 
Q 2853 4666 3247 4331 
Q 3641 3997 3641 3322 
Q 3641 2881 3436 2590 
Q 3231 2300 2841 2188 
z
M 1259 4147 
L 1259 2491 
L 2053 2491 
Q 2509 2491 2742 2702 
Q 2975 2913 2975 3322 
Q 2975 3731 2742 3939 
Q 2509 4147 2053 4147 
L 1259 4147 
z
" transform="scale(0.015625)"/>
      </defs>
      <use xlink:href="#DejaVuSans-41"/>
      <use xlink:href="#DejaVuSans-43" x="66.658203"/>
      <use xlink:href="#DejaVuSans-2f" x="136.482422"/>
      <use xlink:href="#DejaVuSans-43" x="170.173828"/>
      <use xlink:href="#DejaVuSans-79" x="239.998047"/>
      <use xlink:href="#DejaVuSans-74" x="299.177734"/>
      <use xlink:href="#DejaVuSans-6f" x="338.386719"/>
      <use xlink:href="#DejaVuSans-70" x="399.568359"/>
      <use xlink:href="#DejaVuSans-6c" x="463.044922"/>
      <use xlink:href="#DejaVuSans-61" x="490.828125"/>
      <use xlink:href="#DejaVuSans-73" x="552.107422"/>
      <use xlink:href="#DejaVuSans-6d" x="604.207031"/>
      <use xlink:href="#DejaVuSans-20" x="701.619141"/>
      <use xlink:href="#DejaVuSans-52" x="733.40625"/>
      <use xlink:href="#DejaVuSans-61" x="800.638672"/>
      <use xlink:href="#DejaVuSans-74" x="861.917969"/>
      <use xlink:href="#DejaVuSans-69" x="901.126953"/>
      <use xlink:href="#DejaVuSans-6f" x="928.910156"/>
     </g>
    </g>
   </g>
   <g id="patch_3">
    <path d="M 72.564125 221.575563 
L 108.276125 221.575563 
L 108.276125 196.266229 
L 72.564125 196.266229 
L 72.564125 221.575563 
z
" clip-path="url(#pc61140bf73)" style="fill: #ffffff; stroke: #999999; stroke-linejoin: miter"/>
   </g>
   <g id="line2d_9">
    <path d="M 90.420125 221.575563 
L 90.420125 229.121355 
" clip-path="url(#pc61140bf73)" style="fill: none; stroke: #999999"/>
   </g>
   <g id="line2d_10">
    <path d="M 90.420125 196.266229 
L 90.420125 167.593921 
" clip-path="url(#pc61140bf73)" style="fill: none; stroke: #999999"/>
   </g>
   <g id="line2d_11">
    <path d="M 81.492125 229.121355 
L 99.348125 229.121355 
" clip-path="url(#pc61140bf73)" style="fill: none; stroke: #999999; stroke-linecap: square"/>
   </g>
   <g id="line2d_12">
    <path d="M 81.492125 167.593921 
L 99.348125 167.593921 
" clip-path="url(#pc61140bf73)" style="fill: none; stroke: #999999; stroke-linecap: square"/>
   </g>
   <g id="line2d_13"/>
   <g id="patch_4">
    <path d="M 251.124125 188.916998 
L 286.836125 188.916998 
L 286.836125 179.95121 
L 251.124125 179.95121 
L 251.124125 188.916998 
z
" clip-path="url(#pc61140bf73)" style="fill: #ffffff; stroke: #999999; stroke-linejoin: miter"/>
   </g>
   <g id="line2d_14">
    <path d="M 268.980125 188.916998 
L 268.980125 198.365185 
" clip-path="url(#pc61140bf73)" style="fill: none; stroke: #999999"/>
   </g>
   <g id="line2d_15">
    <path d="M 268.980125 179.95121 
L 268.980125 167.689875 
" clip-path="url(#pc61140bf73)" style="fill: none; stroke: #999999"/>
   </g>
   <g id="line2d_16">
    <path d="M 260.052125 198.365185 
L 277.908125 198.365185 
" clip-path="url(#pc61140bf73)" style="fill: none; stroke: #999999; stroke-linecap: square"/>
   </g>
   <g id="line2d_17">
    <path d="M 260.052125 167.689875 
L 277.908125 167.689875 
" clip-path="url(#pc61140bf73)" style="fill: none; stroke: #999999; stroke-linecap: square"/>
   </g>
   <g id="line2d_18">
    <defs>
     <path id="m2a39d733e0" d="M 0 3 
C 0.795609 3 1.55874 2.683901 2.12132 2.12132 
C 2.683901 1.55874 3 0.795609 3 0 
C 3 -0.795609 2.683901 -1.55874 2.12132 -2.12132 
C 1.55874 -2.683901 0.795609 -3 0 -3 
C -0.795609 -3 -1.55874 -2.683901 -2.12132 -2.12132 
C -2.683901 -1.55874 -3 -0.795609 -3 0 
C -3 0.795609 -2.683901 1.55874 -2.12132 2.12132 
C -1.55874 2.683901 -0.795609 3 0 3 
z
" style="stroke: #999999"/>
    </defs>
    <g clip-path="url(#pc61140bf73)">
     <use xlink:href="#m2a39d733e0" x="268.980125" y="208.972875" style="fill-opacity: 0; stroke: #999999"/>
     <use xlink:href="#m2a39d733e0" x="268.980125" y="154.229835" style="fill-opacity: 0; stroke: #999999"/>
    </g>
   </g>
   <g id="patch_5">
    <path d="M 108.276125 233.497831 
L 143.988125 233.497831 
L 143.988125 223.931345 
L 108.276125 223.931345 
L 108.276125 233.497831 
z
" clip-path="url(#pc61140bf73)" style="fill: #ffffff; stroke: #999999; stroke-linejoin: miter"/>
   </g>
   <g id="line2d_19">
    <path d="M 126.132125 233.497831 
L 126.132125 243.761935 
" clip-path="url(#pc61140bf73)" style="fill: none; stroke: #999999"/>
   </g>
   <g id="line2d_20">
    <path d="M 126.132125 223.931345 
L 126.132125 217.374962 
" clip-path="url(#pc61140bf73)" style="fill: none; stroke: #999999"/>
   </g>
   <g id="line2d_21">
    <path d="M 117.204125 243.761935 
L 135.060125 243.761935 
" clip-path="url(#pc61140bf73)" style="fill: none; stroke: #999999; stroke-linecap: square"/>
   </g>
   <g id="line2d_22">
    <path d="M 117.204125 217.374962 
L 135.060125 217.374962 
" clip-path="url(#pc61140bf73)" style="fill: none; stroke: #999999; stroke-linecap: square"/>
   </g>
   <g id="line2d_23">
    <g clip-path="url(#pc61140bf73)">
     <use xlink:href="#m2a39d733e0" x="126.132125" y="202.966347" style="fill-opacity: 0; stroke: #999999"/>
    </g>
   </g>
   <g id="patch_6">
    <path d="M 286.836125 221.225259 
L 322.548125 221.225259 
L 322.548125 200.571339 
L 286.836125 200.571339 
L 286.836125 221.225259 
z
" clip-path="url(#pc61140bf73)" style="fill: #ffffff; stroke: #999999; stroke-linejoin: miter"/>
   </g>
   <g id="line2d_24">
    <path d="M 304.692125 221.225259 
L 304.692125 229.459275 
" clip-path="url(#pc61140bf73)" style="fill: none; stroke: #999999"/>
   </g>
   <g id="line2d_25">
    <path d="M 304.692125 200.571339 
L 304.692125 198.708555 
" clip-path="url(#pc61140bf73)" style="fill: none; stroke: #999999"/>
   </g>
   <g id="line2d_26">
    <path d="M 295.764125 229.459275 
L 313.620125 229.459275 
" clip-path="url(#pc61140bf73)" style="fill: none; stroke: #999999; stroke-linecap: square"/>
   </g>
   <g id="line2d_27">
    <path d="M 295.764125 198.708555 
L 313.620125 198.708555 
" clip-path="url(#pc61140bf73)" style="fill: none; stroke: #999999; stroke-linecap: square"/>
   </g>
   <g id="line2d_28">
    <g clip-path="url(#pc61140bf73)">
     <use xlink:href="#m2a39d733e0" x="304.692125" y="153.765195" style="fill-opacity: 0; stroke: #999999"/>
    </g>
   </g>
   <g id="patch_7">
    <path d="M 143.988125 227.264989 
L 179.700125 227.264989 
L 179.700125 209.107508 
L 143.988125 209.107508 
L 143.988125 227.264989 
z
" clip-path="url(#pc61140bf73)" style="fill: #ffffff; stroke: #999999; stroke-linejoin: miter"/>
   </g>
   <g id="line2d_29">
    <path d="M 161.844125 227.264989 
L 161.844125 238.769199 
" clip-path="url(#pc61140bf73)" style="fill: none; stroke: #999999"/>
   </g>
   <g id="line2d_30">
    <path d="M 161.844125 209.107508 
L 161.844125 183.407115 
" clip-path="url(#pc61140bf73)" style="fill: none; stroke: #999999"/>
   </g>
   <g id="line2d_31">
    <path d="M 152.916125 238.769199 
L 170.772125 238.769199 
" clip-path="url(#pc61140bf73)" style="fill: none; stroke: #999999; stroke-linecap: square"/>
   </g>
   <g id="line2d_32">
    <path d="M 152.916125 183.407115 
L 170.772125 183.407115 
" clip-path="url(#pc61140bf73)" style="fill: none; stroke: #999999; stroke-linecap: square"/>
   </g>
   <g id="line2d_33"/>
   <g id="patch_8">
    <path d="M 322.548125 223.693577 
L 358.260125 223.693577 
L 358.260125 203.167729 
L 322.548125 203.167729 
L 322.548125 223.693577 
z
" clip-path="url(#pc61140bf73)" style="fill: #ffffff; stroke: #999999; stroke-linejoin: miter"/>
   </g>
   <g id="line2d_34">
    <path d="M 340.404125 223.693577 
L 340.404125 238.625355 
" clip-path="url(#pc61140bf73)" style="fill: none; stroke: #999999"/>
   </g>
   <g id="line2d_35">
    <path d="M 340.404125 203.167729 
L 340.404125 180.264241 
" clip-path="url(#pc61140bf73)" style="fill: none; stroke: #999999"/>
   </g>
   <g id="line2d_36">
    <path d="M 331.476125 238.625355 
L 349.332125 238.625355 
" clip-path="url(#pc61140bf73)" style="fill: none; stroke: #999999; stroke-linecap: square"/>
   </g>
   <g id="line2d_37">
    <path d="M 331.476125 180.264241 
L 349.332125 180.264241 
" clip-path="url(#pc61140bf73)" style="fill: none; stroke: #999999; stroke-linecap: square"/>
   </g>
   <g id="line2d_38">
    <g clip-path="url(#pc61140bf73)">
     <use xlink:href="#m2a39d733e0" x="340.404125" y="166.204875" style="fill-opacity: 0; stroke: #999999"/>
    </g>
   </g>
   <g id="patch_9">
    <path d="M 179.700125 266.419275 
L 215.412125 266.419275 
L 215.412125 251.605104 
L 179.700125 251.605104 
L 179.700125 266.419275 
z
" clip-path="url(#pc61140bf73)" style="fill: #ffffff; stroke: #999999; stroke-linejoin: miter"/>
   </g>
   <g id="line2d_39">
    <path d="M 197.556125 266.419275 
L 197.556125 267.512005 
" clip-path="url(#pc61140bf73)" style="fill: none; stroke: #999999"/>
   </g>
   <g id="line2d_40">
    <path d="M 197.556125 251.605104 
L 197.556125 247.709868 
" clip-path="url(#pc61140bf73)" style="fill: none; stroke: #999999"/>
   </g>
   <g id="line2d_41">
    <path d="M 188.628125 267.512005 
L 206.484125 267.512005 
" clip-path="url(#pc61140bf73)" style="fill: none; stroke: #999999; stroke-linecap: square"/>
   </g>
   <g id="line2d_42">
    <path d="M 188.628125 247.709868 
L 206.484125 247.709868 
" clip-path="url(#pc61140bf73)" style="fill: none; stroke: #999999; stroke-linecap: square"/>
   </g>
   <g id="line2d_43"/>
   <g id="patch_10">
    <path d="M 358.260125 219.27339 
L 393.972125 219.27339 
L 393.972125 200.813195 
L 358.260125 200.813195 
L 358.260125 219.27339 
z
" clip-path="url(#pc61140bf73)" style="fill: #ffffff; stroke: #999999; stroke-linejoin: miter"/>
   </g>
   <g id="line2d_44">
    <path d="M 376.116125 219.27339 
L 376.116125 246.608715 
" clip-path="url(#pc61140bf73)" style="fill: none; stroke: #999999"/>
   </g>
   <g id="line2d_45">
    <path d="M 376.116125 200.813195 
L 376.116125 183.121995 
" clip-path="url(#pc61140bf73)" style="fill: none; stroke: #999999"/>
   </g>
   <g id="line2d_46">
    <path d="M 367.188125 246.608715 
L 385.044125 246.608715 
" clip-path="url(#pc61140bf73)" style="fill: none; stroke: #999999; stroke-linecap: square"/>
   </g>
   <g id="line2d_47">
    <path d="M 367.188125 183.121995 
L 385.044125 183.121995 
" clip-path="url(#pc61140bf73)" style="fill: none; stroke: #999999; stroke-linecap: square"/>
   </g>
   <g id="line2d_48"/>
   <g id="line2d_49">
    <path d="M 72.564125 209.486091 
L 108.276125 209.486091 
" clip-path="url(#pc61140bf73)" style="fill: none; stroke: #999999"/>
   </g>
   <g id="line2d_50">
    <path d="M 251.124125 185.569275 
L 286.836125 185.569275 
" clip-path="url(#pc61140bf73)" style="fill: none; stroke: #999999"/>
   </g>
   <g id="line2d_51">
    <path d="M 108.276125 227.131581 
L 143.988125 227.131581 
" clip-path="url(#pc61140bf73)" style="fill: none; stroke: #999999"/>
   </g>
   <g id="line2d_52">
    <path d="M 286.836125 206.536683 
L 322.548125 206.536683 
" clip-path="url(#pc61140bf73)" style="fill: none; stroke: #999999"/>
   </g>
   <g id="line2d_53">
    <path d="M 143.988125 220.075905 
L 179.700125 220.075905 
" clip-path="url(#pc61140bf73)" style="fill: none; stroke: #999999"/>
   </g>
   <g id="line2d_54">
    <path d="M 322.548125 211.193436 
L 358.260125 211.193436 
" clip-path="url(#pc61140bf73)" style="fill: none; stroke: #999999"/>
   </g>
   <g id="line2d_55">
    <path d="M 179.700125 261.828454 
L 215.412125 261.828454 
" clip-path="url(#pc61140bf73)" style="fill: none; stroke: #999999"/>
   </g>
   <g id="line2d_56">
    <path d="M 358.260125 207.191883 
L 393.972125 207.191883 
" clip-path="url(#pc61140bf73)" style="fill: none; stroke: #999999"/>
   </g>
   <g id="patch_11">
    <path d="M 54.708125 294.508875 
L 54.708125 28.396875 
" style="fill: none; stroke: #000000; stroke-width: 0.8; stroke-linejoin: miter; stroke-linecap: square"/>
   </g>
   <g id="patch_12">
    <path d="M 411.828125 294.508875 
L 411.828125 28.396875 
" style="fill: none; stroke: #000000; stroke-width: 0.8; stroke-linejoin: miter; stroke-linecap: square"/>
   </g>
   <g id="patch_13">
    <path d="M 54.708125 294.508875 
L 411.828125 294.508875 
" style="fill: none; stroke: #000000; stroke-width: 0.8; stroke-linejoin: miter; stroke-linecap: square"/>
   </g>
   <g id="patch_14">
    <path d="M 54.708125 28.396875 
L 411.828125 28.396875 
" style="fill: none; stroke: #000000; stroke-width: 0.8; stroke-linejoin: miter; stroke-linecap: square"/>
   </g>
   <g id="PathCollection_1">
    <defs>
     <path id="C0_0_146d77a872" d="M 0 5 
C 1.326016 5 2.597899 4.473168 3.535534 3.535534 
C 4.473168 2.597899 5 1.326016 5 -0 
C 5 -1.326016 4.473168 -2.597899 3.535534 -3.535534 
C 2.597899 -4.473168 1.326016 -5 0 -5 
C -1.326016 -5 -2.597899 -4.473168 -3.535534 -3.535534 
C -4.473168 -2.597899 -5 -1.326016 -5 0 
C -5 1.326016 -4.473168 2.597899 -3.535534 3.535534 
C -2.597899 4.473168 -1.326016 5 0 5 
z
"/>
    </defs>
    <g clip-path="url(#pc61140bf73)">
     <use xlink:href="#C0_0_146d77a872" x="91.683047" y="222.806475" style="fill: #808080; stroke: #000000"/>
    </g>
    <g clip-path="url(#pc61140bf73)">
     <use xlink:href="#C0_0_146d77a872" x="90.317021" y="229.121355" style="fill: #808080; stroke: #000000"/>
    </g>
    <g clip-path="url(#pc61140bf73)">
     <use xlink:href="#C0_0_146d77a872" x="87.36563" y="216.005835" style="fill: #808080; stroke: #000000"/>
    </g>
    <g clip-path="url(#pc61140bf73)">
     <use xlink:href="#C0_0_146d77a872" x="91.403896" y="197.506759" style="fill: #808080; stroke: #000000"/>
    </g>
    <g clip-path="url(#pc61140bf73)">
     <use xlink:href="#C0_0_146d77a872" x="89.284814" y="167.593921" style="fill: #808080; stroke: #000000"/>
    </g>
    <g clip-path="url(#pc61140bf73)">
     <use xlink:href="#C0_0_146d77a872" x="89.750783" y="220.782764" style="fill: #808080; stroke: #000000"/>
    </g>
    <g clip-path="url(#pc61140bf73)">
     <use xlink:href="#C0_0_146d77a872" x="91.653869" y="221.839829" style="fill: #808080; stroke: #000000"/>
    </g>
    <g clip-path="url(#pc61140bf73)">
     <use xlink:href="#C0_0_146d77a872" x="87.587312" y="179.945404" style="fill: #808080; stroke: #000000"/>
    </g>
    <g clip-path="url(#pc61140bf73)">
     <use xlink:href="#C0_0_146d77a872" x="93.59345" y="195.852719" style="fill: #808080; stroke: #000000"/>
    </g>
    <g clip-path="url(#pc61140bf73)">
     <use xlink:href="#C0_0_146d77a872" x="90.018047" y="202.966347" style="fill: #808080; stroke: #000000"/>
    </g>
   </g>
   <g id="PathCollection_2">
    <defs>
     <path id="C1_0_602d828c2f" d="M 0 5 
C 1.326016 5 2.597899 4.473168 3.535534 3.535534 
C 4.473168 2.597899 5 1.326016 5 -0 
C 5 -1.326016 4.473168 -2.597899 3.535534 -3.535534 
C 2.597899 -4.473168 1.326016 -5 0 -5 
C -1.326016 -5 -2.597899 -4.473168 -3.535534 -3.535534 
C -4.473168 -2.597899 -5 -1.326016 -5 0 
C -5 1.326016 -4.473168 2.597899 -3.535534 3.535534 
C -2.597899 4.473168 -1.326016 5 0 5 
z
"/>
    </defs>
    <g clip-path="url(#pc61140bf73)">
     <use xlink:href="#C1_0_602d828c2f" x="121.724894" y="232.504779" style="fill: #648fff; stroke: #000000"/>
    </g>
    <g clip-path="url(#pc61140bf73)">
     <use xlink:href="#C1_0_602d828c2f" x="127.756346" y="233.303115" style="fill: #648fff; stroke: #000000"/>
    </g>
    <g clip-path="url(#pc61140bf73)">
     <use xlink:href="#C1_0_602d828c2f" x="123.293292" y="243.761935" style="fill: #648fff; stroke: #000000"/>
    </g>
    <g clip-path="url(#pc61140bf73)">
     <use xlink:href="#C1_0_602d828c2f" x="125.572221" y="236.448075" style="fill: #648fff; stroke: #000000"/>
    </g>
    <g clip-path="url(#pc61140bf73)">
     <use xlink:href="#C1_0_602d828c2f" x="127.746467" y="227.131581" style="fill: #648fff; stroke: #000000"/>
    </g>
    <g clip-path="url(#pc61140bf73)">
     <use xlink:href="#C1_0_602d828c2f" x="122.267361" y="217.374962" style="fill: #648fff; stroke: #000000"/>
    </g>
    <g clip-path="url(#pc61140bf73)">
     <use xlink:href="#C1_0_602d828c2f" x="121.747666" y="225.709187" style="fill: #648fff; stroke: #000000"/>
    </g>
    <g clip-path="url(#pc61140bf73)">
     <use xlink:href="#C1_0_602d828c2f" x="129.675546" y="220.245061" style="fill: #648fff; stroke: #000000"/>
    </g>
    <g clip-path="url(#pc61140bf73)">
     <use xlink:href="#C1_0_602d828c2f" x="123.539915" y="202.966347" style="fill: #648fff; stroke: #000000"/>
    </g>
    <g clip-path="url(#pc61140bf73)">
     <use xlink:href="#C1_0_602d828c2f" x="128.029851" y="225.721433" style="fill: #648fff; stroke: #000000"/>
    </g>
    <g clip-path="url(#pc61140bf73)">
     <use xlink:href="#C1_0_602d828c2f" x="129.062842" y="233.497831" style="fill: #648fff; stroke: #000000"/>
    </g>
    <g clip-path="url(#pc61140bf73)">
     <use xlink:href="#C1_0_602d828c2f" x="128.272892" y="239.955915" style="fill: #648fff; stroke: #000000"/>
    </g>
    <g clip-path="url(#pc61140bf73)">
     <use xlink:href="#C1_0_602d828c2f" x="129.045546" y="223.931345" style="fill: #648fff; stroke: #000000"/>
    </g>
   </g>
   <g id="PathCollection_3">
    <defs>
     <path id="C2_0_76c006e1a6" d="M 0 5 
C 1.326016 5 2.597899 4.473168 3.535534 3.535534 
C 4.473168 2.597899 5 1.326016 5 -0 
C 5 -1.326016 4.473168 -2.597899 3.535534 -3.535534 
C 2.597899 -4.473168 1.326016 -5 0 -5 
C -1.326016 -5 -2.597899 -4.473168 -3.535534 -3.535534 
C -4.473168 -2.597899 -5 -1.326016 -5 0 
C -5 1.326016 -4.473168 2.597899 -3.535534 3.535534 
C -2.597899 4.473168 -1.326016 5 0 5 
z
"/>
    </defs>
    <g clip-path="url(#pc61140bf73)">
     <use xlink:href="#C2_0_76c006e1a6" x="161.406338" y="226.623161" style="fill: #785ef0; stroke: #000000"/>
    </g>
    <g clip-path="url(#pc61140bf73)">
     <use xlink:href="#C2_0_76c006e1a6" x="163.965288" y="210.761863" style="fill: #785ef0; stroke: #000000"/>
    </g>
    <g clip-path="url(#pc61140bf73)">
     <use xlink:href="#C2_0_76c006e1a6" x="158.891007" y="216.51053" style="fill: #785ef0; stroke: #000000"/>
    </g>
    <g clip-path="url(#pc61140bf73)">
     <use xlink:href="#C2_0_76c006e1a6" x="163.836222" y="226.138561" style="fill: #785ef0; stroke: #000000"/>
    </g>
    <g clip-path="url(#pc61140bf73)">
     <use xlink:href="#C2_0_76c006e1a6" x="162.522847" y="191.221336" style="fill: #785ef0; stroke: #000000"/>
    </g>
    <g clip-path="url(#pc61140bf73)">
     <use xlink:href="#C2_0_76c006e1a6" x="158.486645" y="236.565133" style="fill: #785ef0; stroke: #000000"/>
    </g>
    <g clip-path="url(#pc61140bf73)">
     <use xlink:href="#C2_0_76c006e1a6" x="163.712181" y="220.863926" style="fill: #785ef0; stroke: #000000"/>
    </g>
    <g clip-path="url(#pc61140bf73)">
     <use xlink:href="#C2_0_76c006e1a6" x="165.373821" y="183.407115" style="fill: #785ef0; stroke: #000000"/>
    </g>
    <g clip-path="url(#pc61140bf73)">
     <use xlink:href="#C2_0_76c006e1a6" x="162.408828" y="229.190475" style="fill: #785ef0; stroke: #000000"/>
    </g>
    <g clip-path="url(#pc61140bf73)">
     <use xlink:href="#C2_0_76c006e1a6" x="161.870497" y="206.812875" style="fill: #785ef0; stroke: #000000"/>
    </g>
    <g clip-path="url(#pc61140bf73)">
     <use xlink:href="#C2_0_76c006e1a6" x="164.274796" y="225.173271" style="fill: #785ef0; stroke: #000000"/>
    </g>
    <g clip-path="url(#pc61140bf73)">
     <use xlink:href="#C2_0_76c006e1a6" x="159.395283" y="208.921502" style="fill: #785ef0; stroke: #000000"/>
    </g>
    <g clip-path="url(#pc61140bf73)">
     <use xlink:href="#C2_0_76c006e1a6" x="159.856558" y="230.245658" style="fill: #785ef0; stroke: #000000"/>
    </g>
    <g clip-path="url(#pc61140bf73)">
     <use xlink:href="#C2_0_76c006e1a6" x="162.410662" y="233.015426" style="fill: #785ef0; stroke: #000000"/>
    </g>
    <g clip-path="url(#pc61140bf73)">
     <use xlink:href="#C2_0_76c006e1a6" x="160.137806" y="209.169509" style="fill: #785ef0; stroke: #000000"/>
    </g>
    <g clip-path="url(#pc61140bf73)">
     <use xlink:href="#C2_0_76c006e1a6" x="160.140676" y="197.79988" style="fill: #785ef0; stroke: #000000"/>
    </g>
    <g clip-path="url(#pc61140bf73)">
     <use xlink:href="#C2_0_76c006e1a6" x="159.923803" y="238.769199" style="fill: #785ef0; stroke: #000000"/>
    </g>
    <g clip-path="url(#pc61140bf73)">
     <use xlink:href="#C2_0_76c006e1a6" x="166.140826" y="219.287883" style="fill: #785ef0; stroke: #000000"/>
    </g>
    <g clip-path="url(#pc61140bf73)">
     <use xlink:href="#C2_0_76c006e1a6" x="157.485695" y="216.364875" style="fill: #785ef0; stroke: #000000"/>
    </g>
    <g clip-path="url(#pc61140bf73)">
     <use xlink:href="#C2_0_76c006e1a6" x="159.371532" y="224.728395" style="fill: #785ef0; stroke: #000000"/>
    </g>
   </g>
   <g id="PathCollection_4">
    <defs>
     <path id="C3_0_b85409fa7a" d="M 0 5 
C 1.326016 5 2.597899 4.473168 3.535534 3.535534 
C 4.473168 2.597899 5 1.326016 5 -0 
C 5 -1.326016 4.473168 -2.597899 3.535534 -3.535534 
C 2.597899 -4.473168 1.326016 -5 0 -5 
C -1.326016 -5 -2.597899 -4.473168 -3.535534 -3.535534 
C -4.473168 -2.597899 -5 -1.326016 -5 0 
C -5 1.326016 -4.473168 2.597899 -3.535534 3.535534 
C -2.597899 4.473168 -1.326016 5 0 5 
z
"/>
    </defs>
    <g clip-path="url(#pc61140bf73)">
     <use xlink:href="#C3_0_b85409fa7a" x="200.354442" y="248.012383" style="fill: #ffb000; stroke: #000000"/>
    </g>
    <g clip-path="url(#pc61140bf73)">
     <use xlink:href="#C3_0_b85409fa7a" x="193.652324" y="247.709868" style="fill: #ffb000; stroke: #000000"/>
    </g>
    <g clip-path="url(#pc61140bf73)">
     <use xlink:href="#C3_0_b85409fa7a" x="194.773216" y="254.013571" style="fill: #ffb000; stroke: #000000"/>
    </g>
    <g clip-path="url(#pc61140bf73)">
     <use xlink:href="#C3_0_b85409fa7a" x="199.7905" y="266.419275" style="fill: #ffb000; stroke: #000000"/>
    </g>
    <g clip-path="url(#pc61140bf73)">
     <use xlink:href="#C3_0_b85409fa7a" x="201.683429" y="267.512005" style="fill: #ffb000; stroke: #000000"/>
    </g>
    <g clip-path="url(#pc61140bf73)">
     <use xlink:href="#C3_0_b85409fa7a" x="199.139703" y="267.188043" style="fill: #ffb000; stroke: #000000"/>
    </g>
    <g clip-path="url(#pc61140bf73)">
     <use xlink:href="#C3_0_b85409fa7a" x="198.150725" y="264.571275" style="fill: #ffb000; stroke: #000000"/>
    </g>
    <g clip-path="url(#pc61140bf73)">
     <use xlink:href="#C3_0_b85409fa7a" x="193.924008" y="261.103326" style="fill: #ffb000; stroke: #000000"/>
    </g>
    <g clip-path="url(#pc61140bf73)">
     <use xlink:href="#C3_0_b85409fa7a" x="194.219529" y="261.828454" style="fill: #ffb000; stroke: #000000"/>
    </g>
    <g clip-path="url(#pc61140bf73)">
     <use xlink:href="#C3_0_b85409fa7a" x="200.740917" y="250.896075" style="fill: #ffb000; stroke: #000000"/>
    </g>
    <g clip-path="url(#pc61140bf73)">
     <use xlink:href="#C3_0_b85409fa7a" x="197.384068" y="266.980047" style="fill: #ffb000; stroke: #000000"/>
    </g>
    <g clip-path="url(#pc61140bf73)">
     <use xlink:href="#C3_0_b85409fa7a" x="199.330803" y="251.605104" style="fill: #ffb000; stroke: #000000"/>
    </g>
    <g clip-path="url(#pc61140bf73)">
     <use xlink:href="#C3_0_b85409fa7a" x="195.645723" y="262.713675" style="fill: #ffb000; stroke: #000000"/>
    </g>
   </g>
   <g id="PathCollection_5">
    <defs>
     <path id="C4_0_0b0b80dc64" d="M 0 5 
C 1.326016 5 2.597899 4.473168 3.535534 3.535534 
C 4.473168 2.597899 5 1.326016 5 -0 
C 5 -1.326016 4.473168 -2.597899 3.535534 -3.535534 
C 2.597899 -4.473168 1.326016 -5 0 -5 
C -1.326016 -5 -2.597899 -4.473168 -3.535534 -3.535534 
C -4.473168 -2.597899 -5 -1.326016 -5 0 
C -5 1.326016 -4.473168 2.597899 -3.535534 3.535534 
C -2.597899 4.473168 -1.326016 5 0 5 
z
"/>
    </defs>
    <g clip-path="url(#pc61140bf73)">
     <use xlink:href="#C4_0_0b0b80dc64" x="268.9894" y="188.405244" style="fill: #808080; stroke: #000000"/>
    </g>
    <g clip-path="url(#pc61140bf73)">
     <use xlink:href="#C4_0_0b0b80dc64" x="271.350671" y="198.365185" style="fill: #808080; stroke: #000000"/>
    </g>
    <g clip-path="url(#pc61140bf73)">
     <use xlink:href="#C4_0_0b0b80dc64" x="264.895601" y="167.689875" style="fill: #808080; stroke: #000000"/>
    </g>
    <g clip-path="url(#pc61140bf73)">
     <use xlink:href="#C4_0_0b0b80dc64" x="270.130658" y="188.064075" style="fill: #808080; stroke: #000000"/>
    </g>
    <g clip-path="url(#pc61140bf73)">
     <use xlink:href="#C4_0_0b0b80dc64" x="271.927683" y="182.633218" style="fill: #808080; stroke: #000000"/>
    </g>
    <g clip-path="url(#pc61140bf73)">
     <use xlink:href="#C4_0_0b0b80dc64" x="265.582606" y="179.057207" style="fill: #808080; stroke: #000000"/>
    </g>
    <g clip-path="url(#pc61140bf73)">
     <use xlink:href="#C4_0_0b0b80dc64" x="272.505554" y="189.087583" style="fill: #808080; stroke: #000000"/>
    </g>
    <g clip-path="url(#pc61140bf73)">
     <use xlink:href="#C4_0_0b0b80dc64" x="271.739906" y="154.229835" style="fill: #808080; stroke: #000000"/>
    </g>
    <g clip-path="url(#pc61140bf73)">
     <use xlink:href="#C4_0_0b0b80dc64" x="270.845786" y="183.074475" style="fill: #808080; stroke: #000000"/>
    </g>
    <g clip-path="url(#pc61140bf73)">
     <use xlink:href="#C4_0_0b0b80dc64" x="268.936838" y="208.972875" style="fill: #808080; stroke: #000000"/>
    </g>
   </g>
   <g id="PathCollection_6">
    <defs>
     <path id="C5_0_b975cf5847" d="M 0 5 
C 1.326016 5 2.597899 4.473168 3.535534 3.535534 
C 4.473168 2.597899 5 1.326016 5 -0 
C 5 -1.326016 4.473168 -2.597899 3.535534 -3.535534 
C 2.597899 -4.473168 1.326016 -5 0 -5 
C -1.326016 -5 -2.597899 -4.473168 -3.535534 -3.535534 
C -4.473168 -2.597899 -5 -1.326016 -5 0 
C -5 1.326016 -4.473168 2.597899 -3.535534 3.535534 
C -2.597899 4.473168 -1.326016 5 0 5 
z
"/>
    </defs>
    <g clip-path="url(#pc61140bf73)">
     <use xlink:href="#C5_0_b975cf5847" x="300.643044" y="198.708555" style="fill: #648fff; stroke: #000000"/>
    </g>
    <g clip-path="url(#pc61140bf73)">
     <use xlink:href="#C5_0_b975cf5847" x="302.898263" y="221.594187" style="fill: #648fff; stroke: #000000"/>
    </g>
    <g clip-path="url(#pc61140bf73)">
     <use xlink:href="#C5_0_b975cf5847" x="303.327903" y="153.765195" style="fill: #648fff; stroke: #000000"/>
    </g>
    <g clip-path="url(#pc61140bf73)">
     <use xlink:href="#C5_0_b975cf5847" x="307.449941" y="206.913675" style="fill: #648fff; stroke: #000000"/>
    </g>
    <g clip-path="url(#pc61140bf73)">
     <use xlink:href="#C5_0_b975cf5847" x="300.282814" y="200.305227" style="fill: #648fff; stroke: #000000"/>
    </g>
    <g clip-path="url(#pc61140bf73)">
     <use xlink:href="#C5_0_b975cf5847" x="306.676141" y="201.369675" style="fill: #648fff; stroke: #000000"/>
    </g>
    <g clip-path="url(#pc61140bf73)">
     <use xlink:href="#C5_0_b975cf5847" x="308.402066" y="206.159691" style="fill: #648fff; stroke: #000000"/>
    </g>
    <g clip-path="url(#pc61140bf73)">
     <use xlink:href="#C5_0_b975cf5847" x="301.983012" y="228.276555" style="fill: #648fff; stroke: #000000"/>
    </g>
    <g clip-path="url(#pc61140bf73)">
     <use xlink:href="#C5_0_b975cf5847" x="301.079809" y="229.459275" style="fill: #648fff; stroke: #000000"/>
    </g>
    <g clip-path="url(#pc61140bf73)">
     <use xlink:href="#C5_0_b975cf5847" x="308.119133" y="220.118475" style="fill: #648fff; stroke: #000000"/>
    </g>
   </g>
   <g id="PathCollection_7">
    <defs>
     <path id="C6_0_c0a0c1dd1e" d="M 0 5 
C 1.326016 5 2.597899 4.473168 3.535534 3.535534 
C 4.473168 2.597899 5 1.326016 5 -0 
C 5 -1.326016 4.473168 -2.597899 3.535534 -3.535534 
C 2.597899 -4.473168 1.326016 -5 0 -5 
C -1.326016 -5 -2.597899 -4.473168 -3.535534 -3.535534 
C -4.473168 -2.597899 -5 -1.326016 -5 0 
C -5 1.326016 -4.473168 2.597899 -3.535534 3.535534 
C -2.597899 4.473168 -1.326016 5 0 5 
z
"/>
    </defs>
    <g clip-path="url(#pc61140bf73)">
     <use xlink:href="#C6_0_c0a0c1dd1e" x="340.54783" y="207.37024" style="fill: #785ef0; stroke: #000000"/>
    </g>
    <g clip-path="url(#pc61140bf73)">
     <use xlink:href="#C6_0_c0a0c1dd1e" x="338.867328" y="220.816321" style="fill: #785ef0; stroke: #000000"/>
    </g>
    <g clip-path="url(#pc61140bf73)">
     <use xlink:href="#C6_0_c0a0c1dd1e" x="336.225257" y="216.24064" style="fill: #785ef0; stroke: #000000"/>
    </g>
    <g clip-path="url(#pc61140bf73)">
     <use xlink:href="#C6_0_c0a0c1dd1e" x="340.345601" y="232.074906" style="fill: #785ef0; stroke: #000000"/>
    </g>
    <g clip-path="url(#pc61140bf73)">
     <use xlink:href="#C6_0_c0a0c1dd1e" x="343.959411" y="180.264241" style="fill: #785ef0; stroke: #000000"/>
    </g>
    <g clip-path="url(#pc61140bf73)">
     <use xlink:href="#C6_0_c0a0c1dd1e" x="344.809273" y="224.702684" style="fill: #785ef0; stroke: #000000"/>
    </g>
    <g clip-path="url(#pc61140bf73)">
     <use xlink:href="#C6_0_c0a0c1dd1e" x="337.050473" y="234.283528" style="fill: #785ef0; stroke: #000000"/>
    </g>
    <g clip-path="url(#pc61140bf73)">
     <use xlink:href="#C6_0_c0a0c1dd1e" x="339.623736" y="218.146301" style="fill: #785ef0; stroke: #000000"/>
    </g>
    <g clip-path="url(#pc61140bf73)">
     <use xlink:href="#C6_0_c0a0c1dd1e" x="339.34973" y="210.145709" style="fill: #785ef0; stroke: #000000"/>
    </g>
    <g clip-path="url(#pc61140bf73)">
     <use xlink:href="#C6_0_c0a0c1dd1e" x="338.411776" y="206.641705" style="fill: #785ef0; stroke: #000000"/>
    </g>
    <g clip-path="url(#pc61140bf73)">
     <use xlink:href="#C6_0_c0a0c1dd1e" x="344.77631" y="216.338475" style="fill: #785ef0; stroke: #000000"/>
    </g>
    <g clip-path="url(#pc61140bf73)">
     <use xlink:href="#C6_0_c0a0c1dd1e" x="342.456335" y="200.260875" style="fill: #785ef0; stroke: #000000"/>
    </g>
    <g clip-path="url(#pc61140bf73)">
     <use xlink:href="#C6_0_c0a0c1dd1e" x="344.27524" y="238.625355" style="fill: #785ef0; stroke: #000000"/>
    </g>
    <g clip-path="url(#pc61140bf73)">
     <use xlink:href="#C6_0_c0a0c1dd1e" x="344.145868" y="211.193436" style="fill: #785ef0; stroke: #000000"/>
    </g>
    <g clip-path="url(#pc61140bf73)">
     <use xlink:href="#C6_0_c0a0c1dd1e" x="338.533268" y="204.246561" style="fill: #785ef0; stroke: #000000"/>
    </g>
    <g clip-path="url(#pc61140bf73)">
     <use xlink:href="#C6_0_c0a0c1dd1e" x="337.514237" y="222.684471" style="fill: #785ef0; stroke: #000000"/>
    </g>
    <g clip-path="url(#pc61140bf73)">
     <use xlink:href="#C6_0_c0a0c1dd1e" x="344.5493" y="207.024555" style="fill: #785ef0; stroke: #000000"/>
    </g>
    <g clip-path="url(#pc61140bf73)">
     <use xlink:href="#C6_0_c0a0c1dd1e" x="339.951171" y="166.204875" style="fill: #785ef0; stroke: #000000"/>
    </g>
    <g clip-path="url(#pc61140bf73)">
     <use xlink:href="#C6_0_c0a0c1dd1e" x="341.599587" y="187.078475" style="fill: #785ef0; stroke: #000000"/>
    </g>
    <g clip-path="url(#pc61140bf73)">
     <use xlink:href="#C6_0_c0a0c1dd1e" x="338.664046" y="202.088897" style="fill: #785ef0; stroke: #000000"/>
    </g>
    <g clip-path="url(#pc61140bf73)">
     <use xlink:href="#C6_0_c0a0c1dd1e" x="338.589873" y="199.418187" style="fill: #785ef0; stroke: #000000"/>
    </g>
    <g clip-path="url(#pc61140bf73)">
     <use xlink:href="#C6_0_c0a0c1dd1e" x="339.385102" y="236.044875" style="fill: #785ef0; stroke: #000000"/>
    </g>
    <g clip-path="url(#pc61140bf73)">
     <use xlink:href="#C6_0_c0a0c1dd1e" x="340.187542" y="237.157151" style="fill: #785ef0; stroke: #000000"/>
    </g>
   </g>
   <g id="PathCollection_8">
    <defs>
     <path id="C7_0_5b9279a680" d="M 0 5 
C 1.326016 5 2.597899 4.473168 3.535534 3.535534 
C 4.473168 2.597899 5 1.326016 5 -0 
C 5 -1.326016 4.473168 -2.597899 3.535534 -3.535534 
C 2.597899 -4.473168 1.326016 -5 0 -5 
C -1.326016 -5 -2.597899 -4.473168 -3.535534 -3.535534 
C -4.473168 -2.597899 -5 -1.326016 -5 0 
C -5 1.326016 -4.473168 2.597899 -3.535534 3.535534 
C -2.597899 4.473168 -1.326016 5 0 5 
z
"/>
    </defs>
    <g clip-path="url(#pc61140bf73)">
     <use xlink:href="#C7_0_5b9279a680" x="378.084123" y="183.121995" style="fill: #ffb000; stroke: #000000"/>
    </g>
    <g clip-path="url(#pc61140bf73)">
     <use xlink:href="#C7_0_5b9279a680" x="378.710354" y="246.608715" style="fill: #ffb000; stroke: #000000"/>
    </g>
    <g clip-path="url(#pc61140bf73)">
     <use xlink:href="#C7_0_5b9279a680" x="374.526166" y="192.705563" style="fill: #ffb000; stroke: #000000"/>
    </g>
    <g clip-path="url(#pc61140bf73)">
     <use xlink:href="#C7_0_5b9279a680" x="377.310806" y="217.560827" style="fill: #ffb000; stroke: #000000"/>
    </g>
    <g clip-path="url(#pc61140bf73)">
     <use xlink:href="#C7_0_5b9279a680" x="377.033147" y="208.224075" style="fill: #ffb000; stroke: #000000"/>
    </g>
    <g clip-path="url(#pc61140bf73)">
     <use xlink:href="#C7_0_5b9279a680" x="377.404031" y="203.51574" style="fill: #ffb000; stroke: #000000"/>
    </g>
    <g clip-path="url(#pc61140bf73)">
     <use xlink:href="#C7_0_5b9279a680" x="374.983942" y="224.41108" style="fill: #ffb000; stroke: #000000"/>
    </g>
    <g clip-path="url(#pc61140bf73)">
     <use xlink:href="#C7_0_5b9279a680" x="379.142177" y="206.159691" style="fill: #ffb000; stroke: #000000"/>
    </g>
   </g>
   <g id="line2d_57"/>
   <g id="line2d_58"/>
   <g id="line2d_59"/>
   <g id="line2d_60"/>
   <g id="text_10">
    <!-- 0.005 -->
    <g transform="translate(111.818063 176.355147) scale(0.1 -0.1)">
     <defs>
      <path id="DejaVuSans-2e" d="M 684 794 
L 1344 794 
L 1344 0 
L 684 0 
L 684 794 
z
" transform="scale(0.015625)"/>
      <path id="DejaVuSans-35" d="M 691 4666 
L 3169 4666 
L 3169 4134 
L 1269 4134 
L 1269 2991 
Q 1406 3038 1543 3061 
Q 1681 3084 1819 3084 
Q 2600 3084 3056 2656 
Q 3513 2228 3513 1497 
Q 3513 744 3044 326 
Q 2575 -91 1722 -91 
Q 1428 -91 1123 -41 
Q 819 9 494 109 
L 494 744 
Q 775 591 1075 516 
Q 1375 441 1709 441 
Q 2250 441 2565 725 
Q 2881 1009 2881 1497 
Q 2881 1984 2565 2268 
Q 2250 2553 1709 2553 
Q 1456 2553 1204 2497 
Q 953 2441 691 2322 
L 691 4666 
z
" transform="scale(0.015625)"/>
     </defs>
     <use xlink:href="#DejaVuSans-30"/>
     <use xlink:href="#DejaVuSans-2e" x="63.623047"/>
     <use xlink:href="#DejaVuSans-30" x="95.410156"/>
     <use xlink:href="#DejaVuSans-30" x="159.033203"/>
     <use xlink:href="#DejaVuSans-35" x="222.65625"/>
    </g>
   </g>
   <g id="text_11">
    <!-- 0.105 -->
    <g transform="translate(147.530063 156.795915) scale(0.1 -0.1)">
     <use xlink:href="#DejaVuSans-30"/>
     <use xlink:href="#DejaVuSans-2e" x="63.623047"/>
     <use xlink:href="#DejaVuSans-31" x="95.410156"/>
     <use xlink:href="#DejaVuSans-30" x="159.033203"/>
     <use xlink:href="#DejaVuSans-35" x="222.65625"/>
    </g>
   </g>
   <g id="text_12">
    <!-- 1e-07 -->
    <g transform="translate(186.703106 221.098668) scale(0.1 -0.1)">
     <defs>
      <path id="DejaVuSans-2d" d="M 313 2009 
L 1997 2009 
L 1997 1497 
L 313 1497 
L 313 2009 
z
" transform="scale(0.015625)"/>
      <path id="DejaVuSans-37" d="M 525 4666 
L 3525 4666 
L 3525 4397 
L 1831 0 
L 1172 0 
L 2766 4134 
L 525 4134 
L 525 4666 
z
" transform="scale(0.015625)"/>
     </defs>
     <use xlink:href="#DejaVuSans-31"/>
     <use xlink:href="#DejaVuSans-65" x="63.623047"/>
     <use xlink:href="#DejaVuSans-2d" x="125.146484"/>
     <use xlink:href="#DejaVuSans-30" x="161.230469"/>
     <use xlink:href="#DejaVuSans-37" x="224.853516"/>
    </g>
   </g>
   <g id="text_13">
    <!-- 0.015 -->
    <g transform="translate(290.378063 127.153995) scale(0.1 -0.1)">
     <use xlink:href="#DejaVuSans-30"/>
     <use xlink:href="#DejaVuSans-2e" x="63.623047"/>
     <use xlink:href="#DejaVuSans-30" x="95.410156"/>
     <use xlink:href="#DejaVuSans-31" x="159.033203"/>
     <use xlink:href="#DejaVuSans-35" x="222.65625"/>
    </g>
   </g>
   <g id="text_14">
    <!-- 0.0001 -->
    <g transform="translate(322.908813 139.593675) scale(0.1 -0.1)">
     <use xlink:href="#DejaVuSans-30"/>
     <use xlink:href="#DejaVuSans-2e" x="63.623047"/>
     <use xlink:href="#DejaVuSans-30" x="95.410156"/>
     <use xlink:href="#DejaVuSans-30" x="159.033203"/>
     <use xlink:href="#DejaVuSans-30" x="222.65625"/>
     <use xlink:href="#DejaVuSans-31" x="286.279297"/>
    </g>
   </g>
   <g id="text_15">
    <!-- 0.007 -->
    <g transform="translate(365.373263 156.510795) scale(0.1 -0.1)">
     <use xlink:href="#DejaVuSans-30"/>
     <use xlink:href="#DejaVuSans-2e" x="63.623047"/>
     <use xlink:href="#DejaVuSans-30" x="95.410156"/>
     <use xlink:href="#DejaVuSans-30" x="159.033203"/>
     <use xlink:href="#DejaVuSans-37" x="222.65625"/>
    </g>
   </g>
   <g id="text_16">
    <!-- AC/Cytoplasm ChJup Ratio -->
    <g transform="translate(86.379063 22.396875) scale(0.2 -0.2)">
     <defs>
      <path id="DejaVuSans-Bold-41" d="M 3419 850 
L 1538 850 
L 1241 0 
L 31 0 
L 1759 4666 
L 3194 4666 
L 4922 0 
L 3713 0 
L 3419 850 
z
M 1838 1716 
L 3116 1716 
L 2478 3572 
L 1838 1716 
z
" transform="scale(0.015625)"/>
      <path id="DejaVuSans-Bold-43" d="M 4288 256 
Q 3956 84 3597 -3 
Q 3238 -91 2847 -91 
Q 1681 -91 1000 561 
Q 319 1213 319 2328 
Q 319 3447 1000 4098 
Q 1681 4750 2847 4750 
Q 3238 4750 3597 4662 
Q 3956 4575 4288 4403 
L 4288 3438 
Q 3953 3666 3628 3772 
Q 3303 3878 2944 3878 
Q 2300 3878 1931 3465 
Q 1563 3053 1563 2328 
Q 1563 1606 1931 1193 
Q 2300 781 2944 781 
Q 3303 781 3628 887 
Q 3953 994 4288 1222 
L 4288 256 
z
" transform="scale(0.015625)"/>
      <path id="DejaVuSans-Bold-2f" d="M 1644 4666 
L 2338 4666 
L 691 -594 
L 0 -594 
L 1644 4666 
z
" transform="scale(0.015625)"/>
      <path id="DejaVuSans-Bold-79" d="M 78 3500 
L 1197 3500 
L 2138 1125 
L 2938 3500 
L 4056 3500 
L 2584 -331 
Q 2363 -916 2067 -1148 
Q 1772 -1381 1288 -1381 
L 641 -1381 
L 641 -647 
L 991 -647 
Q 1275 -647 1404 -556 
Q 1534 -466 1606 -231 
L 1638 -134 
L 78 3500 
z
" transform="scale(0.015625)"/>
      <path id="DejaVuSans-Bold-74" d="M 1759 4494 
L 1759 3500 
L 2913 3500 
L 2913 2700 
L 1759 2700 
L 1759 1216 
Q 1759 972 1856 886 
Q 1953 800 2241 800 
L 2816 800 
L 2816 0 
L 1856 0 
Q 1194 0 917 276 
Q 641 553 641 1216 
L 641 2700 
L 84 2700 
L 84 3500 
L 641 3500 
L 641 4494 
L 1759 4494 
z
" transform="scale(0.015625)"/>
      <path id="DejaVuSans-Bold-6f" d="M 2203 2784 
Q 1831 2784 1636 2517 
Q 1441 2250 1441 1747 
Q 1441 1244 1636 976 
Q 1831 709 2203 709 
Q 2569 709 2762 976 
Q 2956 1244 2956 1747 
Q 2956 2250 2762 2517 
Q 2569 2784 2203 2784 
z
M 2203 3584 
Q 3106 3584 3614 3096 
Q 4122 2609 4122 1747 
Q 4122 884 3614 396 
Q 3106 -91 2203 -91 
Q 1297 -91 786 396 
Q 275 884 275 1747 
Q 275 2609 786 3096 
Q 1297 3584 2203 3584 
z
" transform="scale(0.015625)"/>
      <path id="DejaVuSans-Bold-70" d="M 1656 506 
L 1656 -1331 
L 538 -1331 
L 538 3500 
L 1656 3500 
L 1656 2988 
Q 1888 3294 2169 3439 
Q 2450 3584 2816 3584 
Q 3463 3584 3878 3070 
Q 4294 2556 4294 1747 
Q 4294 938 3878 423 
Q 3463 -91 2816 -91 
Q 2450 -91 2169 54 
Q 1888 200 1656 506 
z
M 2400 2772 
Q 2041 2772 1848 2508 
Q 1656 2244 1656 1747 
Q 1656 1250 1848 986 
Q 2041 722 2400 722 
Q 2759 722 2948 984 
Q 3138 1247 3138 1747 
Q 3138 2247 2948 2509 
Q 2759 2772 2400 2772 
z
" transform="scale(0.015625)"/>
      <path id="DejaVuSans-Bold-6c" d="M 538 4863 
L 1656 4863 
L 1656 0 
L 538 0 
L 538 4863 
z
" transform="scale(0.015625)"/>
      <path id="DejaVuSans-Bold-61" d="M 2106 1575 
Q 1756 1575 1579 1456 
Q 1403 1338 1403 1106 
Q 1403 894 1545 773 
Q 1688 653 1941 653 
Q 2256 653 2472 879 
Q 2688 1106 2688 1447 
L 2688 1575 
L 2106 1575 
z
M 3816 1997 
L 3816 0 
L 2688 0 
L 2688 519 
Q 2463 200 2181 54 
Q 1900 -91 1497 -91 
Q 953 -91 614 226 
Q 275 544 275 1050 
Q 275 1666 698 1953 
Q 1122 2241 2028 2241 
L 2688 2241 
L 2688 2328 
Q 2688 2594 2478 2717 
Q 2269 2841 1825 2841 
Q 1466 2841 1156 2769 
Q 847 2697 581 2553 
L 581 3406 
Q 941 3494 1303 3539 
Q 1666 3584 2028 3584 
Q 2975 3584 3395 3211 
Q 3816 2838 3816 1997 
z
" transform="scale(0.015625)"/>
      <path id="DejaVuSans-Bold-73" d="M 3272 3391 
L 3272 2541 
Q 2913 2691 2578 2766 
Q 2244 2841 1947 2841 
Q 1628 2841 1473 2761 
Q 1319 2681 1319 2516 
Q 1319 2381 1436 2309 
Q 1553 2238 1856 2203 
L 2053 2175 
Q 2913 2066 3209 1816 
Q 3506 1566 3506 1031 
Q 3506 472 3093 190 
Q 2681 -91 1863 -91 
Q 1516 -91 1145 -36 
Q 775 19 384 128 
L 384 978 
Q 719 816 1070 734 
Q 1422 653 1784 653 
Q 2113 653 2278 743 
Q 2444 834 2444 1013 
Q 2444 1163 2330 1236 
Q 2216 1309 1875 1350 
L 1678 1375 
Q 931 1469 631 1722 
Q 331 1975 331 2491 
Q 331 3047 712 3315 
Q 1094 3584 1881 3584 
Q 2191 3584 2531 3537 
Q 2872 3491 3272 3391 
z
" transform="scale(0.015625)"/>
      <path id="DejaVuSans-Bold-6d" d="M 3781 2919 
Q 3994 3244 4286 3414 
Q 4578 3584 4928 3584 
Q 5531 3584 5847 3212 
Q 6163 2841 6163 2131 
L 6163 0 
L 5038 0 
L 5038 1825 
Q 5041 1866 5042 1909 
Q 5044 1953 5044 2034 
Q 5044 2406 4934 2573 
Q 4825 2741 4581 2741 
Q 4263 2741 4089 2478 
Q 3916 2216 3909 1719 
L 3909 0 
L 2784 0 
L 2784 1825 
Q 2784 2406 2684 2573 
Q 2584 2741 2328 2741 
Q 2006 2741 1831 2477 
Q 1656 2213 1656 1722 
L 1656 0 
L 531 0 
L 531 3500 
L 1656 3500 
L 1656 2988 
Q 1863 3284 2130 3434 
Q 2397 3584 2719 3584 
Q 3081 3584 3359 3409 
Q 3638 3234 3781 2919 
z
" transform="scale(0.015625)"/>
      <path id="DejaVuSans-Bold-20" transform="scale(0.015625)"/>
      <path id="DejaVuSans-Bold-68" d="M 4056 2131 
L 4056 0 
L 2931 0 
L 2931 347 
L 2931 1625 
Q 2931 2084 2911 2256 
Q 2891 2428 2841 2509 
Q 2775 2619 2662 2680 
Q 2550 2741 2406 2741 
Q 2056 2741 1856 2470 
Q 1656 2200 1656 1722 
L 1656 0 
L 538 0 
L 538 4863 
L 1656 4863 
L 1656 2988 
Q 1909 3294 2193 3439 
Q 2478 3584 2822 3584 
Q 3428 3584 3742 3212 
Q 4056 2841 4056 2131 
z
" transform="scale(0.015625)"/>
      <path id="DejaVuSans-Bold-4a" d="M 588 4666 
L 1791 4666 
L 1791 453 
Q 1791 -419 1317 -850 
Q 844 -1281 -116 -1281 
L -359 -1281 
L -359 -372 
L -172 -372 
Q 203 -372 395 -162 
Q 588 47 588 453 
L 588 4666 
z
" transform="scale(0.015625)"/>
      <path id="DejaVuSans-Bold-75" d="M 500 1363 
L 500 3500 
L 1625 3500 
L 1625 3150 
Q 1625 2866 1622 2436 
Q 1619 2006 1619 1863 
Q 1619 1441 1641 1255 
Q 1663 1069 1716 984 
Q 1784 875 1895 815 
Q 2006 756 2150 756 
Q 2500 756 2700 1025 
Q 2900 1294 2900 1772 
L 2900 3500 
L 4019 3500 
L 4019 0 
L 2900 0 
L 2900 506 
Q 2647 200 2364 54 
Q 2081 -91 1741 -91 
Q 1134 -91 817 281 
Q 500 653 500 1363 
z
" transform="scale(0.015625)"/>
      <path id="DejaVuSans-Bold-52" d="M 2297 2597 
Q 2675 2597 2839 2737 
Q 3003 2878 3003 3200 
Q 3003 3519 2839 3656 
Q 2675 3794 2297 3794 
L 1791 3794 
L 1791 2597 
L 2297 2597 
z
M 1791 1766 
L 1791 0 
L 588 0 
L 588 4666 
L 2425 4666 
Q 3347 4666 3776 4356 
Q 4206 4047 4206 3378 
Q 4206 2916 3982 2619 
Q 3759 2322 3309 2181 
Q 3556 2125 3751 1926 
Q 3947 1728 4147 1325 
L 4800 0 
L 3519 0 
L 2950 1159 
Q 2778 1509 2601 1637 
Q 2425 1766 2131 1766 
L 1791 1766 
z
" transform="scale(0.015625)"/>
      <path id="DejaVuSans-Bold-69" d="M 538 3500 
L 1656 3500 
L 1656 0 
L 538 0 
L 538 3500 
z
M 538 4863 
L 1656 4863 
L 1656 3950 
L 538 3950 
L 538 4863 
z
" transform="scale(0.015625)"/>
     </defs>
     <use xlink:href="#DejaVuSans-Bold-41"/>
     <use xlink:href="#DejaVuSans-Bold-43" x="77.392578"/>
     <use xlink:href="#DejaVuSans-Bold-2f" x="150.78125"/>
     <use xlink:href="#DejaVuSans-Bold-43" x="187.304688"/>
     <use xlink:href="#DejaVuSans-Bold-79" x="260.693359"/>
     <use xlink:href="#DejaVuSans-Bold-74" x="325.878906"/>
     <use xlink:href="#DejaVuSans-Bold-6f" x="373.681641"/>
     <use xlink:href="#DejaVuSans-Bold-70" x="442.382812"/>
     <use xlink:href="#DejaVuSans-Bold-6c" x="513.964844"/>
     <use xlink:href="#DejaVuSans-Bold-61" x="548.242188"/>
     <use xlink:href="#DejaVuSans-Bold-73" x="615.722656"/>
     <use xlink:href="#DejaVuSans-Bold-6d" x="675.244141"/>
     <use xlink:href="#DejaVuSans-Bold-20" x="779.443359"/>
     <use xlink:href="#DejaVuSans-Bold-43" x="814.257812"/>
     <use xlink:href="#DejaVuSans-Bold-68" x="887.646484"/>
     <use xlink:href="#DejaVuSans-Bold-4a" x="958.837891"/>
     <use xlink:href="#DejaVuSans-Bold-75" x="996.044922"/>
     <use xlink:href="#DejaVuSans-Bold-70" x="1067.236328"/>
     <use xlink:href="#DejaVuSans-Bold-20" x="1138.818359"/>
     <use xlink:href="#DejaVuSans-Bold-52" x="1173.632812"/>
     <use xlink:href="#DejaVuSans-Bold-61" x="1250.634766"/>
     <use xlink:href="#DejaVuSans-Bold-74" x="1318.115234"/>
     <use xlink:href="#DejaVuSans-Bold-69" x="1365.917969"/>
     <use xlink:href="#DejaVuSans-Bold-6f" x="1400.195312"/>
    </g>
   </g>
   <g id="legend_1">
    <g id="patch_15">
     <path d="M 418.828125 95.109375 
L 578.470313 95.109375 
Q 580.470313 95.109375 580.470313 93.109375 
L 580.470313 35.396875 
Q 580.470313 33.396875 578.470313 33.396875 
L 418.828125 33.396875 
Q 416.828125 33.396875 416.828125 35.396875 
L 416.828125 93.109375 
Q 416.828125 95.109375 418.828125 95.109375 
z
" style="fill: #ffffff; opacity: 0.8; stroke: #cccccc; stroke-linejoin: miter"/>
    </g>
    <g id="line2d_61">
     <defs>
      <path id="m94b391953b" d="M 0 5 
C 1.326016 5 2.597899 4.473168 3.535534 3.535534 
C 4.473168 2.597899 5 1.326016 5 0 
C 5 -1.326016 4.473168 -2.597899 3.535534 -3.535534 
C 2.597899 -4.473168 1.326016 -5 0 -5 
C -1.326016 -5 -2.597899 -4.473168 -3.535534 -3.535534 
C -4.473168 -2.597899 -5 -1.326016 -5 0 
C -5 1.326016 -4.473168 2.597899 -3.535534 3.535534 
C -2.597899 4.473168 -1.326016 5 0 5 
z
" style="stroke: #000000"/>
     </defs>
     <g>
      <use xlink:href="#m94b391953b" x="430.828125" y="41.495312" style="fill: #808080; stroke: #000000"/>
     </g>
    </g>
    <g id="text_17">
     <!-- WT -->
     <g transform="translate(448.828125 44.995312) scale(0.1 -0.1)">
      <defs>
       <path id="DejaVuSans-57" d="M 213 4666 
L 850 4666 
L 1831 722 
L 2809 4666 
L 3519 4666 
L 4500 722 
L 5478 4666 
L 6119 4666 
L 4947 0 
L 4153 0 
L 3169 4050 
L 2175 0 
L 1381 0 
L 213 4666 
z
" transform="scale(0.015625)"/>
       <path id="DejaVuSans-54" d="M -19 4666 
L 3928 4666 
L 3928 4134 
L 2272 4134 
L 2272 0 
L 1638 0 
L 1638 4134 
L -19 4134 
L -19 4666 
z
" transform="scale(0.015625)"/>
      </defs>
      <use xlink:href="#DejaVuSans-57"/>
      <use xlink:href="#DejaVuSans-54" x="98.876953"/>
     </g>
    </g>
    <g id="line2d_62">
     <defs>
      <path id="m617ea85013" d="M 0 5 
C 1.326016 5 2.597899 4.473168 3.535534 3.535534 
C 4.473168 2.597899 5 1.326016 5 0 
C 5 -1.326016 4.473168 -2.597899 3.535534 -3.535534 
C 2.597899 -4.473168 1.326016 -5 0 -5 
C -1.326016 -5 -2.597899 -4.473168 -3.535534 -3.535534 
C -4.473168 -2.597899 -5 -1.326016 -5 0 
C -5 1.326016 -4.473168 2.597899 -3.535534 3.535534 
C -2.597899 4.473168 -1.326016 5 0 5 
z
" style="stroke: #000000"/>
     </defs>
     <g>
      <use xlink:href="#m617ea85013" x="430.828125" y="56.173437" style="fill: #648fff; stroke: #000000"/>
     </g>
    </g>
    <g id="text_18">
     <!-- yTubulin37C[S131A] -->
     <g transform="translate(448.828125 59.673437) scale(0.1 -0.1)">
      <defs>
       <path id="DejaVuSans-75" d="M 544 1381 
L 544 3500 
L 1119 3500 
L 1119 1403 
Q 1119 906 1312 657 
Q 1506 409 1894 409 
Q 2359 409 2629 706 
Q 2900 1003 2900 1516 
L 2900 3500 
L 3475 3500 
L 3475 0 
L 2900 0 
L 2900 538 
Q 2691 219 2414 64 
Q 2138 -91 1772 -91 
Q 1169 -91 856 284 
Q 544 659 544 1381 
z
M 1991 3584 
L 1991 3584 
z
" transform="scale(0.015625)"/>
       <path id="DejaVuSans-62" d="M 3116 1747 
Q 3116 2381 2855 2742 
Q 2594 3103 2138 3103 
Q 1681 3103 1420 2742 
Q 1159 2381 1159 1747 
Q 1159 1113 1420 752 
Q 1681 391 2138 391 
Q 2594 391 2855 752 
Q 3116 1113 3116 1747 
z
M 1159 2969 
Q 1341 3281 1617 3432 
Q 1894 3584 2278 3584 
Q 2916 3584 3314 3078 
Q 3713 2572 3713 1747 
Q 3713 922 3314 415 
Q 2916 -91 2278 -91 
Q 1894 -91 1617 61 
Q 1341 213 1159 525 
L 1159 0 
L 581 0 
L 581 4863 
L 1159 4863 
L 1159 2969 
z
" transform="scale(0.015625)"/>
       <path id="DejaVuSans-33" d="M 2597 2516 
Q 3050 2419 3304 2112 
Q 3559 1806 3559 1356 
Q 3559 666 3084 287 
Q 2609 -91 1734 -91 
Q 1441 -91 1130 -33 
Q 819 25 488 141 
L 488 750 
Q 750 597 1062 519 
Q 1375 441 1716 441 
Q 2309 441 2620 675 
Q 2931 909 2931 1356 
Q 2931 1769 2642 2001 
Q 2353 2234 1838 2234 
L 1294 2234 
L 1294 2753 
L 1863 2753 
Q 2328 2753 2575 2939 
Q 2822 3125 2822 3475 
Q 2822 3834 2567 4026 
Q 2313 4219 1838 4219 
Q 1578 4219 1281 4162 
Q 984 4106 628 3988 
L 628 4550 
Q 988 4650 1302 4700 
Q 1616 4750 1894 4750 
Q 2613 4750 3031 4423 
Q 3450 4097 3450 3541 
Q 3450 3153 3228 2886 
Q 3006 2619 2597 2516 
z
" transform="scale(0.015625)"/>
       <path id="DejaVuSans-5b" d="M 550 4863 
L 1875 4863 
L 1875 4416 
L 1125 4416 
L 1125 -397 
L 1875 -397 
L 1875 -844 
L 550 -844 
L 550 4863 
z
" transform="scale(0.015625)"/>
       <path id="DejaVuSans-53" d="M 3425 4513 
L 3425 3897 
Q 3066 4069 2747 4153 
Q 2428 4238 2131 4238 
Q 1616 4238 1336 4038 
Q 1056 3838 1056 3469 
Q 1056 3159 1242 3001 
Q 1428 2844 1947 2747 
L 2328 2669 
Q 3034 2534 3370 2195 
Q 3706 1856 3706 1288 
Q 3706 609 3251 259 
Q 2797 -91 1919 -91 
Q 1588 -91 1214 -16 
Q 841 59 441 206 
L 441 856 
Q 825 641 1194 531 
Q 1563 422 1919 422 
Q 2459 422 2753 634 
Q 3047 847 3047 1241 
Q 3047 1584 2836 1778 
Q 2625 1972 2144 2069 
L 1759 2144 
Q 1053 2284 737 2584 
Q 422 2884 422 3419 
Q 422 4038 858 4394 
Q 1294 4750 2059 4750 
Q 2388 4750 2728 4690 
Q 3069 4631 3425 4513 
z
" transform="scale(0.015625)"/>
       <path id="DejaVuSans-5d" d="M 1947 4863 
L 1947 -844 
L 622 -844 
L 622 -397 
L 1369 -397 
L 1369 4416 
L 622 4416 
L 622 4863 
L 1947 4863 
z
" transform="scale(0.015625)"/>
      </defs>
      <use xlink:href="#DejaVuSans-79"/>
      <use xlink:href="#DejaVuSans-54" x="59.179688"/>
      <use xlink:href="#DejaVuSans-75" x="105.138672"/>
      <use xlink:href="#DejaVuSans-62" x="168.517578"/>
      <use xlink:href="#DejaVuSans-75" x="231.994141"/>
      <use xlink:href="#DejaVuSans-6c" x="295.373047"/>
      <use xlink:href="#DejaVuSans-69" x="323.15625"/>
      <use xlink:href="#DejaVuSans-6e" x="350.939453"/>
      <use xlink:href="#DejaVuSans-33" x="414.318359"/>
      <use xlink:href="#DejaVuSans-37" x="477.941406"/>
      <use xlink:href="#DejaVuSans-43" x="541.564453"/>
      <use xlink:href="#DejaVuSans-5b" x="611.388672"/>
      <use xlink:href="#DejaVuSans-53" x="650.402344"/>
      <use xlink:href="#DejaVuSans-31" x="713.878906"/>
      <use xlink:href="#DejaVuSans-33" x="777.501953"/>
      <use xlink:href="#DejaVuSans-31" x="841.125"/>
      <use xlink:href="#DejaVuSans-41" x="904.748047"/>
      <use xlink:href="#DejaVuSans-5d" x="973.15625"/>
     </g>
    </g>
    <g id="line2d_63">
     <defs>
      <path id="m7b6c8a4a73" d="M 0 5 
C 1.326016 5 2.597899 4.473168 3.535534 3.535534 
C 4.473168 2.597899 5 1.326016 5 0 
C 5 -1.326016 4.473168 -2.597899 3.535534 -3.535534 
C 2.597899 -4.473168 1.326016 -5 0 -5 
C -1.326016 -5 -2.597899 -4.473168 -3.535534 -3.535534 
C -4.473168 -2.597899 -5 -1.326016 -5 0 
C -5 1.326016 -4.473168 2.597899 -3.535534 3.535534 
C -2.597899 4.473168 -1.326016 5 0 5 
z
" style="stroke: #000000"/>
     </defs>
     <g>
      <use xlink:href="#m7b6c8a4a73" x="430.828125" y="70.851562" style="fill: #785ef0; stroke: #000000"/>
     </g>
    </g>
    <g id="text_19">
     <!-- yTubulin37C[3], 2X MTOC -->
     <g transform="translate(448.828125 74.351562) scale(0.1 -0.1)">
      <defs>
       <path id="DejaVuSans-2c" d="M 750 794 
L 1409 794 
L 1409 256 
L 897 -744 
L 494 -744 
L 750 256 
L 750 794 
z
" transform="scale(0.015625)"/>
       <path id="DejaVuSans-58" d="M 403 4666 
L 1081 4666 
L 2241 2931 
L 3406 4666 
L 4084 4666 
L 2584 2425 
L 4184 0 
L 3506 0 
L 2194 1984 
L 872 0 
L 191 0 
L 1856 2491 
L 403 4666 
z
" transform="scale(0.015625)"/>
       <path id="DejaVuSans-4d" d="M 628 4666 
L 1569 4666 
L 2759 1491 
L 3956 4666 
L 4897 4666 
L 4897 0 
L 4281 0 
L 4281 4097 
L 3078 897 
L 2444 897 
L 1241 4097 
L 1241 0 
L 628 0 
L 628 4666 
z
" transform="scale(0.015625)"/>
       <path id="DejaVuSans-4f" d="M 2522 4238 
Q 1834 4238 1429 3725 
Q 1025 3213 1025 2328 
Q 1025 1447 1429 934 
Q 1834 422 2522 422 
Q 3209 422 3611 934 
Q 4013 1447 4013 2328 
Q 4013 3213 3611 3725 
Q 3209 4238 2522 4238 
z
M 2522 4750 
Q 3503 4750 4090 4092 
Q 4678 3434 4678 2328 
Q 4678 1225 4090 567 
Q 3503 -91 2522 -91 
Q 1538 -91 948 565 
Q 359 1222 359 2328 
Q 359 3434 948 4092 
Q 1538 4750 2522 4750 
z
" transform="scale(0.015625)"/>
      </defs>
      <use xlink:href="#DejaVuSans-79"/>
      <use xlink:href="#DejaVuSans-54" x="59.179688"/>
      <use xlink:href="#DejaVuSans-75" x="105.138672"/>
      <use xlink:href="#DejaVuSans-62" x="168.517578"/>
      <use xlink:href="#DejaVuSans-75" x="231.994141"/>
      <use xlink:href="#DejaVuSans-6c" x="295.373047"/>
      <use xlink:href="#DejaVuSans-69" x="323.15625"/>
      <use xlink:href="#DejaVuSans-6e" x="350.939453"/>
      <use xlink:href="#DejaVuSans-33" x="414.318359"/>
      <use xlink:href="#DejaVuSans-37" x="477.941406"/>
      <use xlink:href="#DejaVuSans-43" x="541.564453"/>
      <use xlink:href="#DejaVuSans-5b" x="611.388672"/>
      <use xlink:href="#DejaVuSans-33" x="650.402344"/>
      <use xlink:href="#DejaVuSans-5d" x="714.025391"/>
      <use xlink:href="#DejaVuSans-2c" x="753.039062"/>
      <use xlink:href="#DejaVuSans-20" x="784.826172"/>
      <use xlink:href="#DejaVuSans-32" x="816.613281"/>
      <use xlink:href="#DejaVuSans-58" x="880.236328"/>
      <use xlink:href="#DejaVuSans-20" x="948.742188"/>
      <use xlink:href="#DejaVuSans-4d" x="980.529297"/>
      <use xlink:href="#DejaVuSans-54" x="1066.808594"/>
      <use xlink:href="#DejaVuSans-4f" x="1127.892578"/>
      <use xlink:href="#DejaVuSans-43" x="1206.603516"/>
     </g>
    </g>
    <g id="line2d_64">
     <defs>
      <path id="m99d3a26cf8" d="M 0 5 
C 1.326016 5 2.597899 4.473168 3.535534 3.535534 
C 4.473168 2.597899 5 1.326016 5 0 
C 5 -1.326016 4.473168 -2.597899 3.535534 -3.535534 
C 2.597899 -4.473168 1.326016 -5 0 -5 
C -1.326016 -5 -2.597899 -4.473168 -3.535534 -3.535534 
C -4.473168 -2.597899 -5 -1.326016 -5 0 
C -5 1.326016 -4.473168 2.597899 -3.535534 3.535534 
C -2.597899 4.473168 -1.326016 5 0 5 
z
" style="stroke: #000000"/>
     </defs>
     <g>
      <use xlink:href="#m99d3a26cf8" x="430.828125" y="85.529687" style="fill: #ffb000; stroke: #000000"/>
     </g>
    </g>
    <g id="text_20">
     <!-- yTubulin37C[3], 0X MTOC -->
     <g transform="translate(448.828125 89.029687) scale(0.1 -0.1)">
      <use xlink:href="#DejaVuSans-79"/>
      <use xlink:href="#DejaVuSans-54" x="59.179688"/>
      <use xlink:href="#DejaVuSans-75" x="105.138672"/>
      <use xlink:href="#DejaVuSans-62" x="168.517578"/>
      <use xlink:href="#DejaVuSans-75" x="231.994141"/>
      <use xlink:href="#DejaVuSans-6c" x="295.373047"/>
      <use xlink:href="#DejaVuSans-69" x="323.15625"/>
      <use xlink:href="#DejaVuSans-6e" x="350.939453"/>
      <use xlink:href="#DejaVuSans-33" x="414.318359"/>
      <use xlink:href="#DejaVuSans-37" x="477.941406"/>
      <use xlink:href="#DejaVuSans-43" x="541.564453"/>
      <use xlink:href="#DejaVuSans-5b" x="611.388672"/>
      <use xlink:href="#DejaVuSans-33" x="650.402344"/>
      <use xlink:href="#DejaVuSans-5d" x="714.025391"/>
      <use xlink:href="#DejaVuSans-2c" x="753.039062"/>
      <use xlink:href="#DejaVuSans-20" x="784.826172"/>
      <use xlink:href="#DejaVuSans-30" x="816.613281"/>
      <use xlink:href="#DejaVuSans-58" x="880.236328"/>
      <use xlink:href="#DejaVuSans-20" x="948.742188"/>
      <use xlink:href="#DejaVuSans-4d" x="980.529297"/>
      <use xlink:href="#DejaVuSans-54" x="1066.808594"/>
      <use xlink:href="#DejaVuSans-4f" x="1127.892578"/>
      <use xlink:href="#DejaVuSans-43" x="1206.603516"/>
     </g>
    </g>
   </g>
  </g>
 </g>
 <defs>
  <clipPath id="pc61140bf73">
   <rect x="54.708125" y="28.396875" width="357.12" height="266.112"/>
  </clipPath>
 </defs>
</svg>
