<?xml version="1.0" encoding="utf-8" standalone="no"?>
<!DOCTYPE svg PUBLIC "-//W3C//DTD SVG 1.1//EN"
  "http://www.w3.org/Graphics/SVG/1.1/DTD/svg11.dtd">
<svg xmlns:xlink="http://www.w3.org/1999/xlink" width="1035.79pt" height="127.61875pt" viewBox="0 0 1035.79 127.61875" xmlns="http://www.w3.org/2000/svg" version="1.1">
 <metadata>
  <rdf:RDF xmlns:dc="http://purl.org/dc/elements/1.1/" xmlns:cc="http://creativecommons.org/ns#" xmlns:rdf="http://www.w3.org/1999/02/22-rdf-syntax-ns#">
   <cc:Work>
    <dc:type rdf:resource="http://purl.org/dc/dcmitype/StillImage"/>
    <dc:date>2024-12-11T14:53:03.923353</dc:date>
    <dc:format>image/svg+xml</dc:format>
    <dc:creator>
     <cc:Agent>
      <dc:title>Matplotlib v3.7.2, https://matplotlib.org/</dc:title>
     </cc:Agent>
    </dc:creator>
   </cc:Work>
  </rdf:RDF>
 </metadata>
 <defs>
  <style type="text/css">*{stroke-linejoin: round; stroke-linecap: butt}</style>
 </defs>
 <g id="figure_1">
  <g id="patch_1">
   <path d="M 0 127.61875 
L 1035.79 127.61875 
L 1035.79 0 
L 0 0 
z
" style="fill: #ffffff"/>
  </g>
  <g id="axes_1">
   <g id="patch_2">
    <path d="M 7.2 120.41875 
L 165.515 120.41875 
L 165.515 7.2 
L 7.2 7.2 
z
" style="fill: #ffffff"/>
   </g>
   <g id="PolyCollection_1"/>
   <g id="PolyCollection_2"/>
   <g id="matplotlib.axis_1"/>
   <g id="matplotlib.axis_2">
    <g id="ytick_1">
     <g id="line2d_1">
      <defs>
       <path id="m894d188f93" d="M 0 0 
L 3.5 0 
" style="stroke: #000000; stroke-width: 0.8"/>
      </defs>
      <g>
       <use xlink:href="#m894d188f93" x="7.2" y="110.983854" style="stroke: #000000; stroke-width: 0.8"/>
      </g>
     </g>
     <g id="text_1">
      <!-- 0.0 -->
      <g transform="translate(13.345313 116.682682) scale(0.15 -0.15)">
       <defs>
        <path id="DejaVuSans-30" d="M 2034 4250 
Q 1547 4250 1301 3770 
Q 1056 3291 1056 2328 
Q 1056 1369 1301 889 
Q 1547 409 2034 409 
Q 2525 409 2770 889 
Q 3016 1369 3016 2328 
Q 3016 3291 2770 3770 
Q 2525 4250 2034 4250 
z
M 2034 4750 
Q 2819 4750 3233 4129 
Q 3647 3509 3647 2328 
Q 3647 1150 3233 529 
Q 2819 -91 2034 -91 
Q 1250 -91 836 529 
Q 422 1150 422 2328 
Q 422 3509 836 4129 
Q 1250 4750 2034 4750 
z
" transform="scale(0.015625)"/>
        <path id="DejaVuSans-2e" d="M 684 794 
L 1344 794 
L 1344 0 
L 684 0 
L 684 794 
z
" transform="scale(0.015625)"/>
       </defs>
       <use xlink:href="#DejaVuSans-30"/>
       <use xlink:href="#DejaVuSans-2e" x="63.623047"/>
       <use xlink:href="#DejaVuSans-30" x="95.410156"/>
      </g>
     </g>
    </g>
    <g id="ytick_2">
     <g id="line2d_2">
      <g>
       <use xlink:href="#m894d188f93" x="7.2" y="63.809375" style="stroke: #000000; stroke-width: 0.8"/>
      </g>
     </g>
     <g id="text_2">
      <!-- 0.5 -->
      <g transform="translate(13.345313 69.508203) scale(0.15 -0.15)">
       <defs>
        <path id="DejaVuSans-35" d="M 691 4666 
L 3169 4666 
L 3169 4134 
L 1269 4134 
L 1269 2991 
Q 1406 3038 1543 3061 
Q 1681 3084 1819 3084 
Q 2600 3084 3056 2656 
Q 3513 2228 3513 1497 
Q 3513 744 3044 326 
Q 2575 -91 1722 -91 
Q 1428 -91 1123 -41 
Q 819 9 494 109 
L 494 744 
Q 775 591 1075 516 
Q 1375 441 1709 441 
Q 2250 441 2565 725 
Q 2881 1009 2881 1497 
Q 2881 1984 2565 2268 
Q 2250 2553 1709 2553 
Q 1456 2553 1204 2497 
Q 953 2441 691 2322 
L 691 4666 
z
" transform="scale(0.015625)"/>
       </defs>
       <use xlink:href="#DejaVuSans-30"/>
       <use xlink:href="#DejaVuSans-2e" x="63.623047"/>
       <use xlink:href="#DejaVuSans-35" x="95.410156"/>
      </g>
     </g>
    </g>
    <g id="ytick_3">
     <g id="line2d_3">
      <g>
       <use xlink:href="#m894d188f93" x="7.2" y="16.634896" style="stroke: #000000; stroke-width: 0.8"/>
      </g>
     </g>
     <g id="text_3">
      <!-- 1.0 -->
      <g transform="translate(13.345313 22.333724) scale(0.15 -0.15)">
       <defs>
        <path id="DejaVuSans-31" d="M 794 531 
L 1825 531 
L 1825 4091 
L 703 3866 
L 703 4441 
L 1819 4666 
L 2450 4666 
L 2450 531 
L 3481 531 
L 3481 0 
L 794 0 
L 794 531 
z
" transform="scale(0.015625)"/>
       </defs>
       <use xlink:href="#DejaVuSans-31"/>
       <use xlink:href="#DejaVuSans-2e" x="63.623047"/>
       <use xlink:href="#DejaVuSans-30" x="95.410156"/>
      </g>
     </g>
    </g>
   </g>
   <g id="line2d_4">
    <path d="M 14.396136 67.818221 
L 17.743117 69.141967 
L 21.09028 69.988836 
L 24.437261 70.977306 
L 27.784242 68.477506 
L 31.131405 69.169679 
L 34.478386 68.682752 
L 37.825367 67.082198 
L 41.17253 64.689893 
L 44.519511 64.773027 
L 47.866491 65.952126 
L 51.213655 65.255081 
L 54.560635 63.385332 
L 57.907616 63.472729 
L 61.254779 60.871524 
L 64.60176 55.74098 
L 67.948741 51.723759 
L 71.295904 49.984649 
L 74.642885 43.925016 
L 77.989866 39.513443 
L 81.337029 38.185129 
L 84.68401 34.833283 
L 88.03099 38.317595 
L 91.378154 39.763453 
L 94.725134 40.281745 
L 98.072115 45.427515 
L 101.419278 47.628581 
L 104.766259 54.5497 
L 108.11324 59.66045 
L 111.460403 59.662277 
L 114.807384 59.828849 
L 118.154365 60.271316 
L 121.501528 66.390634 
L 124.848509 66.647953 
L 128.195489 66.226803 
L 131.542653 66.929634 
L 134.889633 65.17012 
L 138.236614 66.783464 
L 141.583777 69.536929 
L 144.930758 72.135698 
L 148.277739 71.093024 
L 151.624902 70.413641 
L 154.971883 72.643941 
L 158.318864 72.690533 
" clip-path="url(#p8be7bfef34)" style="fill: none; stroke: #ffb000; stroke-width: 2; stroke-linecap: square"/>
   </g>
   <g id="line2d_5">
    <path d="M 14.396136 75.420441 
L 17.743117 75.889623 
L 21.09028 75.33079 
L 24.437261 75.039212 
L 27.784242 74.212557 
L 31.131405 74.820034 
L 34.478386 74.252999 
L 37.825367 73.433132 
L 41.17253 72.344877 
L 44.519511 69.243012 
L 47.866491 68.463587 
L 51.213655 68.289092 
L 54.560635 67.455933 
L 57.907616 67.359777 
L 61.254779 64.091337 
L 64.60176 58.306732 
L 67.948741 55.600802 
L 71.295904 54.734271 
L 74.642885 50.140015 
L 77.989866 41.280412 
L 81.337029 38.689303 
L 84.68401 35.810292 
L 88.03099 29.246545 
L 91.378154 29.740897 
L 94.725134 29.010964 
L 98.072115 29.273129 
L 101.419278 35.251742 
L 104.766259 43.550814 
L 108.11324 47.475375 
L 111.460403 52.593961 
L 114.807384 56.500705 
L 118.154365 60.27679 
L 121.501528 62.79352 
L 124.848509 64.684108 
L 128.195489 63.56135 
L 131.542653 68.094519 
L 134.889633 65.053458 
L 138.236614 67.440944 
L 141.583777 66.90417 
L 144.930758 68.814271 
L 148.277739 65.143957 
L 151.624902 63.315588 
L 154.971883 61.1996 
L 158.318864 57.24987 
" clip-path="url(#p8be7bfef34)" style="fill: none; stroke: #dc267f; stroke-width: 2; stroke-linecap: square"/>
   </g>
   <g id="patch_3">
    <path d="M 7.2 120.41875 
L 7.2 7.2 
" style="fill: none; stroke: #000000; stroke-width: 0.8; stroke-linejoin: miter; stroke-linecap: square"/>
   </g>
   <g id="patch_4">
    <path d="M 7.2 120.41875 
L 165.515 120.41875 
" style="fill: none; stroke: #000000; stroke-width: 0.8; stroke-linejoin: miter; stroke-linecap: square"/>
   </g>
  </g>
  <g id="axes_2">
   <g id="patch_5">
    <path d="M 179.815 120.41875 
L 338.13 120.41875 
L 338.13 7.2 
L 179.815 7.2 
z
" style="fill: #ffffff"/>
   </g>
   <g id="PolyCollection_3"/>
   <g id="PolyCollection_4"/>
   <g id="matplotlib.axis_3"/>
   <g id="matplotlib.axis_4">
    <g id="ytick_4">
     <g id="line2d_6">
      <g>
       <use xlink:href="#m894d188f93" x="179.815" y="110.983854" style="stroke: #000000; stroke-width: 0.8"/>
      </g>
     </g>
    </g>
    <g id="ytick_5">
     <g id="line2d_7">
      <g>
       <use xlink:href="#m894d188f93" x="179.815" y="63.809375" style="stroke: #000000; stroke-width: 0.8"/>
      </g>
     </g>
    </g>
    <g id="ytick_6">
     <g id="line2d_8">
      <g>
       <use xlink:href="#m894d188f93" x="179.815" y="16.634896" style="stroke: #000000; stroke-width: 0.8"/>
      </g>
     </g>
    </g>
   </g>
   <g id="line2d_9">
    <path d="M 187.011136 59.520066 
L 190.358117 58.759986 
L 193.70528 52.81333 
L 197.052261 53.325836 
L 200.399242 52.92722 
L 203.746405 55.977287 
L 207.093386 53.273763 
L 210.440367 52.355332 
L 213.78753 51.716451 
L 217.134511 45.296876 
L 220.481491 46.296918 
L 223.828655 46.059393 
L 227.175635 44.264251 
L 230.522616 39.820398 
L 233.869779 40.966609 
L 237.21676 39.325249 
L 240.563741 34.693204 
L 243.910904 27.466348 
L 247.257885 25.648976 
L 250.604866 30.600767 
L 253.952029 38.429049 
L 257.29901 44.269427 
L 260.64599 55.071037 
L 263.993154 58.861391 
L 267.340134 58.309297 
L 270.687115 61.755544 
L 274.034278 59.16591 
L 277.381259 57.727665 
L 280.72824 58.891234 
L 284.075403 58.433236 
L 287.422384 55.264102 
L 290.769365 55.571362 
L 294.116528 52.785923 
L 297.463509 52.432071 
L 300.810489 50.760869 
L 304.157653 44.197561 
L 307.504633 50.349767 
L 310.851614 55.489447 
L 314.198777 50.792843 
L 317.545758 50.084835 
L 320.892739 46.519826 
L 324.239902 47.643807 
" clip-path="url(#pb1e308af0c)" style="fill: none; stroke: #ffb000; stroke-width: 2; stroke-linecap: square"/>
   </g>
   <g id="line2d_10">
    <path d="M 187.011136 63.28315 
L 190.358117 63.288523 
L 193.70528 62.89536 
L 197.052261 59.378216 
L 200.399242 60.704145 
L 203.746405 58.076072 
L 207.093386 56.462751 
L 210.440367 56.617562 
L 213.78753 56.151575 
L 217.134511 54.945247 
L 220.481491 55.267142 
L 223.828655 55.68177 
L 227.175635 51.102391 
L 230.522616 51.45876 
L 233.869779 49.844676 
L 237.21676 48.179234 
L 240.563741 43.215118 
L 243.910904 36.090444 
L 247.257885 36.697441 
L 250.604866 37.024709 
L 253.952029 42.007999 
L 257.29901 43.4826 
L 260.64599 45.608656 
L 263.993154 45.824016 
L 267.340134 44.374726 
L 270.687115 46.864052 
L 274.034278 49.577194 
L 277.381259 50.738329 
L 280.72824 53.564142 
L 284.075403 57.175519 
L 287.422384 56.014384 
L 290.769365 50.432526 
L 294.116528 45.978827 
L 297.463509 43.017377 
L 300.810489 42.279299 
L 304.157653 43.631274 
L 307.504633 44.141719 
L 310.851614 44.800837 
L 314.198777 48.754838 
L 317.545758 47.28329 
L 320.892739 51.793692 
L 324.239902 54.987386 
" clip-path="url(#pb1e308af0c)" style="fill: none; stroke: #dc267f; stroke-width: 2; stroke-linecap: square"/>
   </g>
   <g id="patch_6">
    <path d="M 179.815 120.41875 
L 179.815 7.2 
" style="fill: none; stroke: #000000; stroke-width: 0.8; stroke-linejoin: miter; stroke-linecap: square"/>
   </g>
   <g id="patch_7">
    <path d="M 179.815 120.41875 
L 338.13 120.41875 
" style="fill: none; stroke: #000000; stroke-width: 0.8; stroke-linejoin: miter; stroke-linecap: square"/>
   </g>
  </g>
  <g id="axes_3">
   <g id="patch_8">
    <path d="M 352.43 120.41875 
L 510.745 120.41875 
L 510.745 7.2 
L 352.43 7.2 
z
" style="fill: #ffffff"/>
   </g>
   <g id="PolyCollection_5"/>
   <g id="PolyCollection_6"/>
   <g id="matplotlib.axis_5"/>
   <g id="matplotlib.axis_6">
    <g id="ytick_7">
     <g id="line2d_11">
      <g>
       <use xlink:href="#m894d188f93" x="352.43" y="110.983854" style="stroke: #000000; stroke-width: 0.8"/>
      </g>
     </g>
    </g>
    <g id="ytick_8">
     <g id="line2d_12">
      <g>
       <use xlink:href="#m894d188f93" x="352.43" y="63.809375" style="stroke: #000000; stroke-width: 0.8"/>
      </g>
     </g>
    </g>
    <g id="ytick_9">
     <g id="line2d_13">
      <g>
       <use xlink:href="#m894d188f93" x="352.43" y="16.634896" style="stroke: #000000; stroke-width: 0.8"/>
      </g>
     </g>
    </g>
   </g>
   <g id="line2d_14">
    <path d="M 359.626136 56.035146 
L 362.973117 56.087827 
L 366.32028 55.083522 
L 369.667261 58.048628 
L 373.014242 55.634702 
L 376.361405 55.283287 
L 379.708386 54.758295 
L 383.055367 55.457472 
L 386.40253 57.953618 
L 389.749511 55.361549 
L 393.096491 51.821205 
L 396.443655 49.768744 
L 399.790635 49.697182 
L 403.137616 51.014838 
L 406.484779 51.492933 
L 409.83176 47.826215 
L 413.178741 47.061262 
L 416.525904 48.116726 
L 419.872885 44.639723 
L 423.219866 37.388201 
L 426.567029 33.53938 
L 429.91401 28.977374 
L 433.26099 26.084135 
L 436.608154 24.026497 
L 439.955134 25.69709 
L 443.302115 27.486142 
L 446.649278 37.4083 
L 449.996259 46.479325 
L 453.34324 52.006962 
L 456.690403 54.777176 
L 460.037384 59.936953 
L 463.384365 64.027563 
L 466.731528 62.486999 
L 470.078509 63.212365 
L 473.425489 62.906018 
L 476.772653 52.636708 
L 480.119633 44.459143 
L 483.466614 39.186693 
L 486.813777 34.647526 
L 490.160758 35.692332 
L 493.507739 35.567784 
L 496.854902 33.805225 
" clip-path="url(#peeb534bd18)" style="fill: none; stroke: #ffb000; stroke-width: 2; stroke-linecap: square"/>
   </g>
   <g id="line2d_15">
    <path d="M 359.626136 67.33687 
L 362.973117 67.82189 
L 366.32028 68.702561 
L 369.667261 69.744152 
L 373.014242 70.201739 
L 376.361405 68.504877 
L 379.708386 67.966689 
L 383.055367 67.955376 
L 386.40253 67.633255 
L 389.749511 63.690029 
L 393.096491 62.828023 
L 396.443655 63.168244 
L 399.790635 59.374342 
L 403.137616 59.813546 
L 406.484779 60.43884 
L 409.83176 56.969322 
L 413.178741 50.890028 
L 416.525904 45.337328 
L 419.872885 44.318645 
L 423.219866 38.319952 
L 426.567029 36.722073 
L 429.91401 38.873978 
L 433.26099 43.198998 
L 436.608154 44.969392 
L 439.955134 48.229913 
L 443.302115 52.759405 
L 446.649278 57.787775 
L 449.996259 62.448491 
L 453.34324 66.324974 
L 456.690403 66.782561 
L 460.037384 65.534236 
L 463.384365 64.276578 
L 466.731528 64.379804 
L 470.078509 64.580033 
L 473.425489 63.761297 
L 476.772653 62.377223 
L 480.119633 60.979291 
L 483.466614 62.096675 
L 486.813777 61.160855 
L 490.160758 61.167925 
L 493.507739 62.147298 
L 496.854902 63.094713 
" clip-path="url(#peeb534bd18)" style="fill: none; stroke: #dc267f; stroke-width: 2; stroke-linecap: square"/>
   </g>
   <g id="patch_9">
    <path d="M 352.43 120.41875 
L 352.43 7.2 
" style="fill: none; stroke: #000000; stroke-width: 0.8; stroke-linejoin: miter; stroke-linecap: square"/>
   </g>
   <g id="patch_10">
    <path d="M 352.43 120.41875 
L 510.745 120.41875 
" style="fill: none; stroke: #000000; stroke-width: 0.8; stroke-linejoin: miter; stroke-linecap: square"/>
   </g>
  </g>
  <g id="axes_4">
   <g id="patch_11">
    <path d="M 525.045 120.41875 
L 683.36 120.41875 
L 683.36 7.2 
L 525.045 7.2 
z
" style="fill: #ffffff"/>
   </g>
   <g id="PolyCollection_7"/>
   <g id="PolyCollection_8"/>
   <g id="matplotlib.axis_7"/>
   <g id="matplotlib.axis_8">
    <g id="ytick_10">
     <g id="line2d_16">
      <g>
       <use xlink:href="#m894d188f93" x="525.045" y="110.983854" style="stroke: #000000; stroke-width: 0.8"/>
      </g>
     </g>
    </g>
    <g id="ytick_11">
     <g id="line2d_17">
      <g>
       <use xlink:href="#m894d188f93" x="525.045" y="63.809375" style="stroke: #000000; stroke-width: 0.8"/>
      </g>
     </g>
    </g>
    <g id="ytick_12">
     <g id="line2d_18">
      <g>
       <use xlink:href="#m894d188f93" x="525.045" y="16.634896" style="stroke: #000000; stroke-width: 0.8"/>
      </g>
     </g>
    </g>
   </g>
   <g id="line2d_19">
    <path d="M 532.241136 65.102821 
L 535.588117 64.917369 
L 538.93528 64.786121 
L 542.282261 67.179949 
L 545.629242 67.422651 
L 548.976405 63.840284 
L 552.323386 60.614205 
L 555.670367 64.536111 
L 559.01753 60.376679 
L 562.364511 61.909326 
L 565.711491 58.289503 
L 569.058655 53.598076 
L 572.405635 52.214035 
L 575.752616 50.721281 
L 579.099779 46.760092 
L 582.44676 31.751851 
L 585.793741 31.271623 
L 589.140904 30.291071 
L 592.487885 30.060854 
L 595.834866 26.079871 
L 599.182029 27.686516 
L 602.52901 26.367033 
L 605.87599 27.013223 
L 609.223154 29.191756 
L 612.570134 36.366538 
L 615.917115 38.612065 
L 619.264278 47.829564 
L 622.611259 59.802356 
L 625.95824 62.849986 
L 629.305403 66.556293 
L 632.652384 63.070459 
L 635.999365 61.144068 
L 639.346528 58.356497 
L 642.693509 59.235341 
L 646.040489 59.173523 
L 649.387653 56.625913 
L 652.734633 56.341188 
L 656.081614 55.323788 
L 659.428777 57.418273 
L 662.775758 51.164357 
L 666.122739 54.642883 
L 669.469902 53.023753 
" clip-path="url(#p64096288ed)" style="fill: none; stroke: #ffb000; stroke-width: 2; stroke-linecap: square"/>
   </g>
   <g id="line2d_20">
    <path d="M 532.241136 68.499503 
L 535.588117 65.415456 
L 538.93528 64.667988 
L 542.282261 65.562517 
L 545.629242 64.281951 
L 548.976405 64.151576 
L 552.323386 62.907492 
L 555.670367 61.869013 
L 559.01753 61.950462 
L 562.364511 62.816428 
L 565.711491 62.938319 
L 569.058655 60.832229 
L 572.405635 62.017771 
L 575.752616 58.753573 
L 579.099779 54.5199 
L 582.44676 52.147121 
L 585.793741 47.030514 
L 589.140904 41.99564 
L 592.487885 40.077336 
L 595.834866 40.667562 
L 599.182029 44.76492 
L 602.52901 37.225476 
L 605.87599 39.962515 
L 609.223154 45.032175 
L 612.570134 51.573015 
L 615.917115 54.254624 
L 619.264278 55.282357 
L 622.611259 57.161633 
L 625.95824 60.68432 
L 629.305403 59.607377 
L 632.652384 59.432601 
L 635.999365 60.801403 
L 639.346528 59.01489 
L 642.693509 56.679724 
L 646.040489 53.442958 
L 649.387653 55.303851 
L 652.734633 54.653952 
L 656.081614 51.695472 
L 659.428777 51.110903 
L 662.775758 53.105848 
L 666.122739 53.233678 
L 669.469902 57.501288 
" clip-path="url(#p64096288ed)" style="fill: none; stroke: #dc267f; stroke-width: 2; stroke-linecap: square"/>
   </g>
   <g id="patch_12">
    <path d="M 525.045 120.41875 
L 525.045 7.2 
" style="fill: none; stroke: #000000; stroke-width: 0.8; stroke-linejoin: miter; stroke-linecap: square"/>
   </g>
   <g id="patch_13">
    <path d="M 525.045 120.41875 
L 683.36 120.41875 
" style="fill: none; stroke: #000000; stroke-width: 0.8; stroke-linejoin: miter; stroke-linecap: square"/>
   </g>
  </g>
  <g id="axes_5">
   <g id="patch_14">
    <path d="M 697.66 120.41875 
L 855.975 120.41875 
L 855.975 7.2 
L 697.66 7.2 
z
" style="fill: #ffffff"/>
   </g>
   <g id="PolyCollection_9"/>
   <g id="PolyCollection_10"/>
   <g id="matplotlib.axis_9"/>
   <g id="matplotlib.axis_10">
    <g id="ytick_13">
     <g id="line2d_21">
      <g>
       <use xlink:href="#m894d188f93" x="697.66" y="110.983854" style="stroke: #000000; stroke-width: 0.8"/>
      </g>
     </g>
    </g>
    <g id="ytick_14">
     <g id="line2d_22">
      <g>
       <use xlink:href="#m894d188f93" x="697.66" y="63.809375" style="stroke: #000000; stroke-width: 0.8"/>
      </g>
     </g>
    </g>
    <g id="ytick_15">
     <g id="line2d_23">
      <g>
       <use xlink:href="#m894d188f93" x="697.66" y="16.634896" style="stroke: #000000; stroke-width: 0.8"/>
      </g>
     </g>
    </g>
   </g>
   <g id="line2d_24">
    <path d="M 704.856136 67.742092 
L 708.203117 66.145191 
L 711.55028 66.048659 
L 714.897261 67.177512 
L 718.244242 68.618498 
L 721.591405 70.185556 
L 724.938386 67.08098 
L 728.285367 68.410512 
L 731.63253 63.159378 
L 734.979511 62.698945 
L 738.326491 63.82049 
L 741.673655 57.195365 
L 745.020635 57.076602 
L 748.367616 53.117849 
L 751.714779 45.460098 
L 755.06176 43.387844 
L 758.408741 38.062712 
L 761.755904 37.475903 
L 765.102885 34.549471 
L 768.449866 32.87096 
L 771.797029 29.424713 
L 775.14401 30.820935 
L 778.49099 23.89129 
L 781.838154 24.842 
L 785.185134 26.854873 
L 788.532115 38.820052 
L 791.879278 43.172548 
L 795.226259 50.629621 
L 798.57324 56.667937 
L 801.920403 66.561165 
L 805.267384 67.393112 
L 808.614365 67.192434 
L 811.961528 69.532057 
L 815.308509 68.648341 
L 818.655489 63.738879 
L 822.002653 51.855007 
L 825.349633 49.448694 
L 828.696614 57.856476 
L 832.043777 58.554435 
L 835.390758 53.035933 
L 838.737739 58.888797 
L 842.084902 53.734197 
" clip-path="url(#p7481506489)" style="fill: none; stroke: #ffb000; stroke-width: 2; stroke-linecap: square"/>
   </g>
   <g id="line2d_25">
    <path d="M 704.856136 64.728509 
L 708.203117 66.761068 
L 711.55028 64.269508 
L 714.897261 64.545531 
L 718.244242 62.341872 
L 721.591405 64.073237 
L 724.938386 67.25542 
L 728.285367 65.432141 
L 731.63253 62.051425 
L 734.979511 60.575438 
L 738.326491 57.770241 
L 741.673655 55.274156 
L 745.020635 56.389277 
L 748.367616 55.070249 
L 751.714779 54.889251 
L 755.06176 53.55891 
L 758.408741 46.158044 
L 761.755904 41.955763 
L 765.102885 40.46507 
L 768.449866 33.165732 
L 771.797029 32.444565 
L 775.14401 35.135507 
L 778.49099 37.657893 
L 781.838154 44.872953 
L 785.185134 48.770081 
L 788.532115 51.116842 
L 791.879278 55.51002 
L 795.226259 56.569145 
L 798.57324 59.727855 
L 801.920403 58.929764 
L 805.267384 59.205787 
L 808.614365 64.051178 
L 811.961528 66.38097 
L 815.308509 65.658955 
L 818.655489 68.362906 
L 822.002653 70.199477 
L 825.349633 70.170348 
L 828.696614 69.268182 
L 832.043777 71.825637 
L 835.390758 72.33611 
L 838.737739 75.219362 
L 842.084902 75.286954 
" clip-path="url(#p7481506489)" style="fill: none; stroke: #dc267f; stroke-width: 2; stroke-linecap: square"/>
   </g>
   <g id="patch_15">
    <path d="M 697.66 120.41875 
L 697.66 7.2 
" style="fill: none; stroke: #000000; stroke-width: 0.8; stroke-linejoin: miter; stroke-linecap: square"/>
   </g>
   <g id="patch_16">
    <path d="M 697.66 120.41875 
L 855.975 120.41875 
" style="fill: none; stroke: #000000; stroke-width: 0.8; stroke-linejoin: miter; stroke-linecap: square"/>
   </g>
  </g>
  <g id="axes_6">
   <g id="patch_17">
    <path d="M 870.275 120.41875 
L 1028.59 120.41875 
L 1028.59 7.2 
L 870.275 7.2 
z
" style="fill: #ffffff"/>
   </g>
   <g id="PolyCollection_11"/>
   <g id="PolyCollection_12"/>
   <g id="matplotlib.axis_11"/>
   <g id="matplotlib.axis_12">
    <g id="ytick_16">
     <g id="line2d_26">
      <g>
       <use xlink:href="#m894d188f93" x="870.275" y="110.983854" style="stroke: #000000; stroke-width: 0.8"/>
      </g>
     </g>
    </g>
    <g id="ytick_17">
     <g id="line2d_27">
      <g>
       <use xlink:href="#m894d188f93" x="870.275" y="63.809375" style="stroke: #000000; stroke-width: 0.8"/>
      </g>
     </g>
    </g>
    <g id="ytick_18">
     <g id="line2d_28">
      <g>
       <use xlink:href="#m894d188f93" x="870.275" y="16.634896" style="stroke: #000000; stroke-width: 0.8"/>
      </g>
     </g>
    </g>
   </g>
   <g id="line2d_29">
    <path d="M 877.471136 68.35113 
L 880.818117 63.860077 
L 884.16528 61.38677 
L 887.512261 66.115653 
L 890.859242 67.472287 
L 894.206405 66.845891 
L 897.553386 65.231633 
L 900.900367 66.3681 
L 904.24753 64.434401 
L 907.594511 61.852381 
L 910.941491 63.40208 
L 914.288655 67.160155 
L 917.635635 65.14515 
L 920.982616 55.232128 
L 924.329779 49.765394 
L 927.67676 39.627333 
L 931.023741 29.199369 
L 934.370904 25.183671 
L 937.717885 22.096452 
L 941.064866 18.340509 
L 944.412029 16.634896 
L 947.75901 24.916302 
L 951.10599 27.788225 
L 954.453154 29.342797 
L 957.800134 32.514367 
L 961.147115 41.922191 
L 964.494278 46.881291 
L 967.841259 56.757161 
L 971.18824 61.758284 
L 974.535403 65.305936 
L 977.882384 64.268438 
L 981.229365 68.878558 
L 984.576528 70.916098 
L 987.923509 73.183854 
L 991.270489 72.446004 
L 994.617653 69.982746 
L 997.964633 69.569208 
L 1001.311614 72.146356 
L 1004.658777 72.614403 
L 1008.005758 73.312666 
L 1011.352739 72.26786 
L 1014.699902 70.584172 
" clip-path="url(#pbbcf4e5906)" style="fill: none; stroke: #ffb000; stroke-width: 2; stroke-linecap: square"/>
   </g>
   <g id="line2d_30">
    <path d="M 877.471136 75.946751 
L 880.818117 74.92524 
L 884.16528 74.26516 
L 887.512261 74.239141 
L 890.859242 74.12432 
L 894.206405 73.378549 
L 897.553386 73.223569 
L 900.900367 71.864099 
L 904.24753 70.458531 
L 907.594511 67.94774 
L 910.941491 69.004603 
L 914.288655 66.96356 
L 917.635635 62.567272 
L 920.982616 54.45542 
L 924.329779 47.355463 
L 927.67676 39.452043 
L 931.023741 30.083947 
L 934.370904 21.8519 
L 937.717885 16.634896 
L 941.064866 18.639739 
L 944.412029 19.571599 
L 947.75901 19.30802 
L 951.10599 21.513093 
L 954.453154 26.654304 
L 957.800134 26.180597 
L 961.147115 31.292678 
L 964.494278 34.309135 
L 967.841259 38.575047 
L 971.18824 48.888296 
L 974.535403 50.851 
L 977.882384 51.070178 
L 981.229365 53.164955 
L 984.576528 53.220669 
L 987.923509 55.830444 
L 991.270489 57.685963 
L 994.617653 60.968544 
L 997.964633 59.872654 
L 1001.311614 60.996825 
L 1004.658777 61.569516 
L 1008.005758 62.192548 
L 1011.352739 64.570701 
L 1014.699902 65.765575 
" clip-path="url(#pbbcf4e5906)" style="fill: none; stroke: #dc267f; stroke-width: 2; stroke-linecap: square"/>
   </g>
   <g id="patch_18">
    <path d="M 870.275 120.41875 
L 870.275 7.2 
" style="fill: none; stroke: #000000; stroke-width: 0.8; stroke-linejoin: miter; stroke-linecap: square"/>
   </g>
   <g id="patch_19">
    <path d="M 870.275 120.41875 
L 1028.59 120.41875 
" style="fill: none; stroke: #000000; stroke-width: 0.8; stroke-linejoin: miter; stroke-linecap: square"/>
   </g>
  </g>
 </g>
 <defs>
  <clipPath id="p8be7bfef34">
   <rect x="7.2" y="7.2" width="158.315" height="113.21875"/>
  </clipPath>
  <clipPath id="pb1e308af0c">
   <rect x="179.815" y="7.2" width="158.315" height="113.21875"/>
  </clipPath>
  <clipPath id="peeb534bd18">
   <rect x="352.43" y="7.2" width="158.315" height="113.21875"/>
  </clipPath>
  <clipPath id="p64096288ed">
   <rect x="525.045" y="7.2" width="158.315" height="113.21875"/>
  </clipPath>
  <clipPath id="p7481506489">
   <rect x="697.66" y="7.2" width="158.315" height="113.21875"/>
  </clipPath>
  <clipPath id="pbbcf4e5906">
   <rect x="870.275" y="7.2" width="158.315" height="113.21875"/>
  </clipPath>
 </defs>
</svg>
