<?xml version="1.0" encoding="utf-8" standalone="no"?>
<!DOCTYPE svg PUBLIC "-//W3C//DTD SVG 1.1//EN"
  "http://www.w3.org/Graphics/SVG/1.1/DTD/svg11.dtd">
<svg xmlns:xlink="http://www.w3.org/1999/xlink" width="1035.79pt" height="127.72pt" viewBox="0 0 1035.79 127.72" xmlns="http://www.w3.org/2000/svg" version="1.1">
 <metadata>
  <rdf:RDF xmlns:dc="http://purl.org/dc/elements/1.1/" xmlns:cc="http://creativecommons.org/ns#" xmlns:rdf="http://www.w3.org/1999/02/22-rdf-syntax-ns#">
   <cc:Work>
    <dc:type rdf:resource="http://purl.org/dc/dcmitype/StillImage"/>
    <dc:date>2024-12-11T14:52:38.144758</dc:date>
    <dc:format>image/svg+xml</dc:format>
    <dc:creator>
     <cc:Agent>
      <dc:title>Matplotlib v3.7.2, https://matplotlib.org/</dc:title>
     </cc:Agent>
    </dc:creator>
   </cc:Work>
  </rdf:RDF>
 </metadata>
 <defs>
  <style type="text/css">*{stroke-linejoin: round; stroke-linecap: butt}</style>
 </defs>
 <g id="figure_1">
  <g id="patch_1">
   <path d="M 0 127.72 
L 1035.79 127.72 
L 1035.79 0 
L 0 0 
z
" style="fill: #ffffff"/>
  </g>
  <g id="axes_1">
   <g id="patch_2">
    <path d="M 7.2 120.52 
L 165.515 120.52 
L 165.515 7.2 
L 7.2 7.2 
z
" style="fill: #ffffff"/>
   </g>
   <g id="PolyCollection_1"/>
   <g id="PolyCollection_2"/>
   <g id="matplotlib.axis_1"/>
   <g id="matplotlib.axis_2">
    <g id="ytick_1">
     <g id="line2d_1">
      <defs>
       <path id="m832c2986ee" d="M 0 0 
L 3.5 0 
" style="stroke: #000000; stroke-width: 0.8"/>
      </defs>
      <g>
       <use xlink:href="#m832c2986ee" x="7.2" y="111.076667" style="stroke: #000000; stroke-width: 0.8"/>
      </g>
     </g>
     <g id="text_1">
      <!-- 0.0 -->
      <g transform="translate(13.345313 116.775495) scale(0.15 -0.15)">
       <defs>
        <path id="DejaVuSans-30" d="M 2034 4250 
Q 1547 4250 1301 3770 
Q 1056 3291 1056 2328 
Q 1056 1369 1301 889 
Q 1547 409 2034 409 
Q 2525 409 2770 889 
Q 3016 1369 3016 2328 
Q 3016 3291 2770 3770 
Q 2525 4250 2034 4250 
z
M 2034 4750 
Q 2819 4750 3233 4129 
Q 3647 3509 3647 2328 
Q 3647 1150 3233 529 
Q 2819 -91 2034 -91 
Q 1250 -91 836 529 
Q 422 1150 422 2328 
Q 422 3509 836 4129 
Q 1250 4750 2034 4750 
z
" transform="scale(0.015625)"/>
        <path id="DejaVuSans-2e" d="M 684 794 
L 1344 794 
L 1344 0 
L 684 0 
L 684 794 
z
" transform="scale(0.015625)"/>
       </defs>
       <use xlink:href="#DejaVuSans-30"/>
       <use xlink:href="#DejaVuSans-2e" x="63.623047"/>
       <use xlink:href="#DejaVuSans-30" x="95.410156"/>
      </g>
     </g>
    </g>
    <g id="ytick_2">
     <g id="line2d_2">
      <g>
       <use xlink:href="#m832c2986ee" x="7.2" y="63.86" style="stroke: #000000; stroke-width: 0.8"/>
      </g>
     </g>
     <g id="text_2">
      <!-- 0.5 -->
      <g transform="translate(13.345313 69.558828) scale(0.15 -0.15)">
       <defs>
        <path id="DejaVuSans-35" d="M 691 4666 
L 3169 4666 
L 3169 4134 
L 1269 4134 
L 1269 2991 
Q 1406 3038 1543 3061 
Q 1681 3084 1819 3084 
Q 2600 3084 3056 2656 
Q 3513 2228 3513 1497 
Q 3513 744 3044 326 
Q 2575 -91 1722 -91 
Q 1428 -91 1123 -41 
Q 819 9 494 109 
L 494 744 
Q 775 591 1075 516 
Q 1375 441 1709 441 
Q 2250 441 2565 725 
Q 2881 1009 2881 1497 
Q 2881 1984 2565 2268 
Q 2250 2553 1709 2553 
Q 1456 2553 1204 2497 
Q 953 2441 691 2322 
L 691 4666 
z
" transform="scale(0.015625)"/>
       </defs>
       <use xlink:href="#DejaVuSans-30"/>
       <use xlink:href="#DejaVuSans-2e" x="63.623047"/>
       <use xlink:href="#DejaVuSans-35" x="95.410156"/>
      </g>
     </g>
    </g>
    <g id="ytick_3">
     <g id="line2d_3">
      <g>
       <use xlink:href="#m832c2986ee" x="7.2" y="16.643333" style="stroke: #000000; stroke-width: 0.8"/>
      </g>
     </g>
     <g id="text_3">
      <!-- 1.0 -->
      <g transform="translate(13.345313 22.342161) scale(0.15 -0.15)">
       <defs>
        <path id="DejaVuSans-31" d="M 794 531 
L 1825 531 
L 1825 4091 
L 703 3866 
L 703 4441 
L 1819 4666 
L 2450 4666 
L 2450 531 
L 3481 531 
L 3481 0 
L 794 0 
L 794 531 
z
" transform="scale(0.015625)"/>
       </defs>
       <use xlink:href="#DejaVuSans-31"/>
       <use xlink:href="#DejaVuSans-2e" x="63.623047"/>
       <use xlink:href="#DejaVuSans-30" x="95.410156"/>
      </g>
     </g>
    </g>
   </g>
   <g id="line2d_4">
    <path d="M 14.396136 64.233826 
L 18.086396 63.959707 
L 21.776856 63.639487 
L 25.467115 62.759554 
L 29.157375 61.119317 
L 32.847835 61.796706 
L 36.538094 60.721566 
L 40.228354 60.85563 
L 43.918814 64.261453 
L 47.609073 63.543111 
L 51.299333 61.125105 
L 54.989793 58.437423 
L 58.680052 54.91039 
L 62.370312 54.908001 
L 66.060772 52.402638 
L 69.751031 45.628984 
L 73.441291 41.836952 
L 77.131751 42.870904 
L 80.82201 44.3372 
L 84.51227 41.91132 
L 88.20273 42.004331 
L 91.89299 44.27212 
L 95.583249 42.74007 
L 99.273709 44.576928 
L 102.963969 49.965585 
L 106.654228 53.85406 
L 110.344688 57.289866 
L 114.034948 62.397574 
L 117.725207 67.156256 
L 121.415667 69.184519 
L 125.105927 69.975109 
L 128.796186 68.82338 
L 132.486646 69.602932 
L 136.176906 71.368585 
L 139.867165 71.337458 
L 143.557625 69.857197 
L 147.247885 69.532198 
L 150.938144 71.898416 
L 154.628604 71.950911 
L 158.318864 71.658015 
" clip-path="url(#pea9262197c)" style="fill: none; stroke: #ffb000; stroke-width: 2; stroke-linecap: square"/>
   </g>
   <g id="line2d_5">
    <path d="M 14.396136 58.813336 
L 18.086396 60.511911 
L 21.776856 59.061499 
L 25.467115 59.256592 
L 29.157375 59.336004 
L 32.847835 58.145208 
L 36.538094 56.539026 
L 40.228354 52.277891 
L 43.918814 50.999283 
L 47.609073 52.981908 
L 51.299333 50.963013 
L 54.989793 48.059134 
L 58.680052 46.28802 
L 62.370312 40.745987 
L 66.060772 39.565498 
L 69.751031 39.675453 
L 73.441291 30.426641 
L 77.131751 29.333964 
L 80.82201 25.781045 
L 84.51227 24.608575 
L 88.20273 33.138862 
L 91.89299 32.568853 
L 95.583249 34.443813 
L 99.273709 39.891927 
L 102.963969 46.376977 
L 106.654228 55.244001 
L 110.344688 60.445862 
L 114.034948 61.237308 
L 117.725207 61.600388 
L 121.415667 63.518109 
L 125.105927 65.309458 
L 128.796186 66.792322 
L 132.486646 66.92633 
L 136.176906 64.801298 
L 139.867165 63.682278 
L 143.557625 64.127824 
L 147.247885 64.450435 
L 150.938144 65.144907 
L 154.628604 65.175068 
L 158.318864 65.751186 
" clip-path="url(#pea9262197c)" style="fill: none; stroke: #dc267f; stroke-width: 2; stroke-linecap: square"/>
   </g>
   <g id="patch_3">
    <path d="M 7.2 120.52 
L 7.2 7.2 
" style="fill: none; stroke: #000000; stroke-width: 0.8; stroke-linejoin: miter; stroke-linecap: square"/>
   </g>
   <g id="patch_4">
    <path d="M 7.2 120.52 
L 165.515 120.52 
" style="fill: none; stroke: #000000; stroke-width: 0.8; stroke-linejoin: miter; stroke-linecap: square"/>
   </g>
  </g>
  <g id="axes_2">
   <g id="patch_5">
    <path d="M 179.815 120.52 
L 338.13 120.52 
L 338.13 7.2 
L 179.815 7.2 
z
" style="fill: #ffffff"/>
   </g>
   <g id="PolyCollection_3"/>
   <g id="PolyCollection_4"/>
   <g id="matplotlib.axis_3"/>
   <g id="matplotlib.axis_4">
    <g id="ytick_4">
     <g id="line2d_6">
      <g>
       <use xlink:href="#m832c2986ee" x="179.815" y="111.076667" style="stroke: #000000; stroke-width: 0.8"/>
      </g>
     </g>
    </g>
    <g id="ytick_5">
     <g id="line2d_7">
      <g>
       <use xlink:href="#m832c2986ee" x="179.815" y="63.86" style="stroke: #000000; stroke-width: 0.8"/>
      </g>
     </g>
    </g>
    <g id="ytick_6">
     <g id="line2d_8">
      <g>
       <use xlink:href="#m832c2986ee" x="179.815" y="16.643333" style="stroke: #000000; stroke-width: 0.8"/>
      </g>
     </g>
    </g>
   </g>
   <g id="line2d_9">
    <path d="M 187.011136 68.492694 
L 190.701396 65.580561 
L 194.391856 60.482478 
L 198.082115 63.244192 
L 201.772375 63.980806 
L 205.462835 64.701604 
L 209.153094 64.628919 
L 212.843354 61.031994 
L 216.533814 60.154047 
L 220.224073 58.680482 
L 223.914333 56.568899 
L 227.604793 45.94705 
L 231.295052 44.700964 
L 234.985312 43.244225 
L 238.675772 38.298243 
L 242.366031 26.19307 
L 246.056291 23.998034 
L 249.746751 29.675583 
L 253.43701 33.178286 
L 257.12727 31.042475 
L 260.81773 31.124246 
L 264.50799 31.501471 
L 268.198249 34.870917 
L 271.888709 40.559571 
L 275.578969 42.647598 
L 279.269228 44.452622 
L 282.959688 55.777434 
L 286.649948 61.537091 
L 290.340207 66.511003 
L 294.030667 65.552295 
L 297.720927 67.481827 
L 301.411186 70.917901 
L 305.101646 67.836842 
L 308.791906 70.75806 
L 312.482165 69.957173 
L 316.172625 72.002127 
L 319.862885 70.967704 
L 323.553144 69.672825 
L 327.243604 70.809883 
L 330.933864 72.541212 
" clip-path="url(#p9be5b1d538)" style="fill: none; stroke: #ffb000; stroke-width: 2; stroke-linecap: square"/>
   </g>
   <g id="line2d_10">
    <path d="M 187.011136 59.541406 
L 190.701396 58.412077 
L 194.391856 62.039826 
L 198.082115 60.364541 
L 201.772375 57.646211 
L 205.462835 57.887882 
L 209.153094 57.625212 
L 212.843354 56.051483 
L 216.533814 58.799592 
L 220.224073 57.520984 
L 223.914333 55.269963 
L 227.604793 55.662822 
L 231.295052 49.069727 
L 234.985312 51.169942 
L 238.675772 45.35913 
L 242.366031 46.367814 
L 246.056291 38.456023 
L 249.746751 36.92009 
L 253.43701 24.593303 
L 257.12727 28.616584 
L 260.81773 27.011166 
L 264.50799 28.949885 
L 268.198249 35.609412 
L 271.888709 40.536003 
L 275.578969 43.420029 
L 279.269228 33.301504 
L 282.959688 41.6031 
L 286.649948 45.040719 
L 290.340207 54.194084 
L 294.030667 58.195985 
L 297.720927 65.579 
L 301.411186 64.02016 
L 305.101646 63.196262 
L 308.791906 64.06292 
L 312.482165 64.930724 
L 316.172625 66.234148 
L 319.862885 63.667388 
L 323.553144 64.027796 
L 327.243604 65.938644 
L 330.933864 64.421037 
" clip-path="url(#p9be5b1d538)" style="fill: none; stroke: #dc267f; stroke-width: 2; stroke-linecap: square"/>
   </g>
   <g id="patch_6">
    <path d="M 179.815 120.52 
L 179.815 7.2 
" style="fill: none; stroke: #000000; stroke-width: 0.8; stroke-linejoin: miter; stroke-linecap: square"/>
   </g>
   <g id="patch_7">
    <path d="M 179.815 120.52 
L 338.13 120.52 
" style="fill: none; stroke: #000000; stroke-width: 0.8; stroke-linejoin: miter; stroke-linecap: square"/>
   </g>
  </g>
  <g id="axes_3">
   <g id="patch_8">
    <path d="M 352.43 120.52 
L 510.745 120.52 
L 510.745 7.2 
L 352.43 7.2 
z
" style="fill: #ffffff"/>
   </g>
   <g id="PolyCollection_5"/>
   <g id="PolyCollection_6"/>
   <g id="matplotlib.axis_5"/>
   <g id="matplotlib.axis_6">
    <g id="ytick_7">
     <g id="line2d_11">
      <g>
       <use xlink:href="#m832c2986ee" x="352.43" y="111.076667" style="stroke: #000000; stroke-width: 0.8"/>
      </g>
     </g>
    </g>
    <g id="ytick_8">
     <g id="line2d_12">
      <g>
       <use xlink:href="#m832c2986ee" x="352.43" y="63.86" style="stroke: #000000; stroke-width: 0.8"/>
      </g>
     </g>
    </g>
    <g id="ytick_9">
     <g id="line2d_13">
      <g>
       <use xlink:href="#m832c2986ee" x="352.43" y="16.643333" style="stroke: #000000; stroke-width: 0.8"/>
      </g>
     </g>
    </g>
   </g>
   <g id="line2d_14">
    <path d="M 359.626136 65.532441 
L 363.316396 64.915959 
L 367.006856 65.439565 
L 370.697115 65.431825 
L 374.387375 65.524364 
L 378.077835 62.910377 
L 381.768094 60.569633 
L 385.458354 63.785295 
L 389.148814 63.624108 
L 392.839073 62.746834 
L 396.529333 61.12487 
L 400.219793 56.584379 
L 403.910052 54.457653 
L 407.600312 52.207093 
L 411.290772 45.14549 
L 414.981031 37.12989 
L 418.671291 34.025948 
L 422.361751 33.071277 
L 426.05201 35.234008 
L 429.74227 41.859498 
L 433.43273 44.713079 
L 437.12299 46.728757 
L 440.813249 47.059543 
L 444.503709 50.255015 
L 448.193969 55.416026 
L 451.884228 54.064613 
L 455.574688 56.948143 
L 459.264948 62.283464 
L 462.955207 64.646754 
L 466.645667 65.418365 
L 470.335927 66.083976 
L 474.026186 67.233484 
L 477.716646 68.64816 
L 481.406906 68.387367 
L 485.097165 68.140708 
L 488.787625 68.823817 
L 492.477885 69.370978 
L 496.168144 70.951552 
L 499.858604 71.29277 
L 503.548864 70.99025 
" clip-path="url(#pd1fc557c6c)" style="fill: none; stroke: #ffb000; stroke-width: 2; stroke-linecap: square"/>
   </g>
   <g id="line2d_15">
    <path d="M 359.626136 59.207342 
L 363.316396 57.311001 
L 367.006856 56.988772 
L 370.697115 56.857819 
L 374.387375 57.752348 
L 378.077835 55.849899 
L 381.768094 59.694503 
L 385.458354 55.46162 
L 389.148814 54.48348 
L 392.839073 57.885974 
L 396.529333 55.770487 
L 400.219793 57.874138 
L 403.910052 53.445016 
L 407.600312 50.899255 
L 411.290772 49.968837 
L 414.981031 44.030126 
L 418.671291 36.748667 
L 422.361751 27.48611 
L 426.05201 25.723777 
L 429.74227 25.082755 
L 433.43273 33.587081 
L 437.12299 31.394091 
L 440.813249 34.854617 
L 444.503709 40.435211 
L 448.193969 41.912349 
L 451.884228 45.972663 
L 455.574688 46.015805 
L 459.264948 41.818047 
L 462.955207 43.143233 
L 466.645667 48.885705 
L 470.335927 54.580835 
L 474.026186 60.054147 
L 477.716646 62.480028 
L 481.406906 63.106923 
L 485.097165 65.126963 
L 488.787625 65.018535 
L 492.477885 64.931488 
L 496.168144 64.851312 
L 499.858604 65.611834 
L 503.548864 64.522211 
" clip-path="url(#pd1fc557c6c)" style="fill: none; stroke: #dc267f; stroke-width: 2; stroke-linecap: square"/>
   </g>
   <g id="patch_9">
    <path d="M 352.43 120.52 
L 352.43 7.2 
" style="fill: none; stroke: #000000; stroke-width: 0.8; stroke-linejoin: miter; stroke-linecap: square"/>
   </g>
   <g id="patch_10">
    <path d="M 352.43 120.52 
L 510.745 120.52 
" style="fill: none; stroke: #000000; stroke-width: 0.8; stroke-linejoin: miter; stroke-linecap: square"/>
   </g>
  </g>
  <g id="axes_4">
   <g id="patch_11">
    <path d="M 525.045 120.52 
L 683.36 120.52 
L 683.36 7.2 
L 525.045 7.2 
z
" style="fill: #ffffff"/>
   </g>
   <g id="PolyCollection_7"/>
   <g id="PolyCollection_8"/>
   <g id="matplotlib.axis_7"/>
   <g id="matplotlib.axis_8">
    <g id="ytick_10">
     <g id="line2d_16">
      <g>
       <use xlink:href="#m832c2986ee" x="525.045" y="111.076667" style="stroke: #000000; stroke-width: 0.8"/>
      </g>
     </g>
    </g>
    <g id="ytick_11">
     <g id="line2d_17">
      <g>
       <use xlink:href="#m832c2986ee" x="525.045" y="63.86" style="stroke: #000000; stroke-width: 0.8"/>
      </g>
     </g>
    </g>
    <g id="ytick_12">
     <g id="line2d_18">
      <g>
       <use xlink:href="#m832c2986ee" x="525.045" y="16.643333" style="stroke: #000000; stroke-width: 0.8"/>
      </g>
     </g>
    </g>
   </g>
   <g id="line2d_19">
    <path d="M 532.241136 65.669063 
L 535.931396 65.849767 
L 539.621856 62.732028 
L 543.312115 64.644735 
L 547.002375 63.131798 
L 550.692835 64.379904 
L 554.383094 64.199536 
L 558.073354 62.808415 
L 561.763814 63.614686 
L 565.454073 61.614488 
L 569.144333 58.906951 
L 572.834793 57.262104 
L 576.525052 56.165764 
L 580.215312 51.648155 
L 583.905772 45.69467 
L 587.596031 39.726715 
L 591.286291 38.522693 
L 594.976751 28.599769 
L 598.66701 16.643333 
L 602.35727 25.822912 
L 606.04773 31.548582 
L 609.73799 34.511864 
L 613.428249 36.42558 
L 617.118709 48.064017 
L 620.808969 53.430633 
L 624.499228 57.654471 
L 628.189688 61.33485 
L 631.879948 60.680344 
L 635.570207 62.110499 
L 639.260667 61.309612 
L 642.950927 62.437248 
L 646.641186 67.833477 
L 650.331646 68.960103 
L 654.021906 71.121488 
L 657.712165 67.161472 
L 661.402625 68.563361 
L 665.092885 67.545763 
L 668.783144 70.471693 
L 672.473604 69.743491 
L 676.163864 68.908281 
" clip-path="url(#p464f96570c)" style="fill: none; stroke: #ffb000; stroke-width: 2; stroke-linecap: square"/>
   </g>
   <g id="line2d_20">
    <path d="M 532.241136 57.781364 
L 535.931396 54.34909 
L 539.621856 54.029916 
L 543.312115 58.551812 
L 547.002375 58.56861 
L 550.692835 57.341162 
L 554.383094 54.717134 
L 558.073354 53.096826 
L 561.763814 54.320074 
L 565.454073 53.109043 
L 569.144333 48.947173 
L 572.834793 41.635552 
L 576.525052 41.089596 
L 580.215312 37.980315 
L 583.905772 27.615155 
L 587.596031 22.94627 
L 591.286291 16.643333 
L 594.976751 17.548171 
L 598.66701 25.931088 
L 602.35727 25.182402 
L 606.04773 22.271269 
L 609.73799 22.950088 
L 613.428249 29.309148 
L 617.118709 37.585928 
L 620.808969 43.980112 
L 624.499228 49.916914 
L 628.189688 54.343363 
L 631.879948 57.658046 
L 635.570207 57.886355 
L 639.260667 59.468866 
L 642.950927 59.77506 
L 646.641186 60.543217 
L 650.331646 62.364728 
L 654.021906 62.00432 
L 657.712165 62.755297 
L 661.402625 65.152161 
L 665.092885 64.830696 
L 668.783144 64.243888 
L 672.473604 64.136605 
L 676.163864 63.860191 
" clip-path="url(#p464f96570c)" style="fill: none; stroke: #dc267f; stroke-width: 2; stroke-linecap: square"/>
   </g>
   <g id="patch_12">
    <path d="M 525.045 120.52 
L 525.045 7.2 
" style="fill: none; stroke: #000000; stroke-width: 0.8; stroke-linejoin: miter; stroke-linecap: square"/>
   </g>
   <g id="patch_13">
    <path d="M 525.045 120.52 
L 683.36 120.52 
" style="fill: none; stroke: #000000; stroke-width: 0.8; stroke-linejoin: miter; stroke-linecap: square"/>
   </g>
  </g>
  <g id="axes_5">
   <g id="patch_14">
    <path d="M 697.66 120.52 
L 855.975 120.52 
L 855.975 7.2 
L 697.66 7.2 
z
" style="fill: #ffffff"/>
   </g>
   <g id="PolyCollection_9"/>
   <g id="PolyCollection_10"/>
   <g id="matplotlib.axis_9"/>
   <g id="matplotlib.axis_10">
    <g id="ytick_13">
     <g id="line2d_21">
      <g>
       <use xlink:href="#m832c2986ee" x="697.66" y="111.076667" style="stroke: #000000; stroke-width: 0.8"/>
      </g>
     </g>
    </g>
    <g id="ytick_14">
     <g id="line2d_22">
      <g>
       <use xlink:href="#m832c2986ee" x="697.66" y="63.86" style="stroke: #000000; stroke-width: 0.8"/>
      </g>
     </g>
    </g>
    <g id="ytick_15">
     <g id="line2d_23">
      <g>
       <use xlink:href="#m832c2986ee" x="697.66" y="16.643333" style="stroke: #000000; stroke-width: 0.8"/>
      </g>
     </g>
    </g>
   </g>
   <g id="line2d_24">
    <path d="M 704.856136 61.967652 
L 708.546396 60.754712 
L 712.236856 56.258909 
L 715.927115 59.658338 
L 719.617375 60.411676 
L 723.307835 58.380957 
L 726.998094 60.164007 
L 730.688354 62.141862 
L 734.378814 58.093075 
L 738.069073 58.917013 
L 741.759333 55.149478 
L 745.449793 57.61012 
L 749.140052 52.899928 
L 752.830312 54.161392 
L 756.520772 51.372051 
L 760.211031 46.451441 
L 763.901291 40.33862 
L 767.591751 39.450241 
L 771.28201 41.281681 
L 774.97227 41.735024 
L 778.66273 42.995984 
L 782.35299 42.5772 
L 786.043249 42.958766 
L 789.733709 49.452143 
L 793.423969 52.768623 
L 797.114228 55.301041 
L 800.804688 59.031963 
L 804.494948 61.060429 
L 808.185207 62.575081 
L 811.875667 61.590764 
L 815.565927 59.674255 
L 819.256186 62.528677 
L 822.946646 65.654088 
L 826.636906 66.303782 
L 830.327165 65.940657 
L 834.017625 62.940124 
L 837.707885 62.51101 
L 841.398144 64.290561 
L 845.088604 63.734718 
L 848.778864 64.060289 
" clip-path="url(#p76d48d87d1)" style="fill: none; stroke: #ffb000; stroke-width: 2; stroke-linecap: square"/>
   </g>
   <g id="line2d_25">
    <path d="M 704.856136 58.336101 
L 708.546396 57.98982 
L 712.236856 57.542364 
L 715.927115 57.86383 
L 719.617375 56.957847 
L 723.307835 58.986668 
L 726.998094 56.878817 
L 730.688354 56.118677 
L 734.378814 55.516216 
L 738.069073 53.371713 
L 741.759333 51.755987 
L 745.449793 53.015123 
L 749.140052 51.992695 
L 752.830312 46.902317 
L 756.520772 42.875981 
L 760.211031 40.006463 
L 763.901291 36.101918 
L 767.591751 29.39085 
L 771.28201 21.532128 
L 774.97227 20.236339 
L 778.66273 21.274421 
L 782.35299 23.715955 
L 786.043249 28.789534 
L 789.733709 35.30589 
L 793.423969 38.174645 
L 797.114228 39.96523 
L 800.804688 44.894112 
L 804.494948 47.203929 
L 808.185207 53.042994 
L 811.875667 56.371421 
L 815.565927 56.790624 
L 819.256186 58.321212 
L 822.946646 58.759504 
L 826.636906 57.974167 
L 830.327165 59.681904 
L 834.017625 59.232921 
L 837.707885 59.969008 
L 841.398144 63.841865 
L 845.088604 63.08478 
L 848.778864 60.889499 
" clip-path="url(#p76d48d87d1)" style="fill: none; stroke: #dc267f; stroke-width: 2; stroke-linecap: square"/>
   </g>
   <g id="patch_15">
    <path d="M 697.66 120.52 
L 697.66 7.2 
" style="fill: none; stroke: #000000; stroke-width: 0.8; stroke-linejoin: miter; stroke-linecap: square"/>
   </g>
   <g id="patch_16">
    <path d="M 697.66 120.52 
L 855.975 120.52 
" style="fill: none; stroke: #000000; stroke-width: 0.8; stroke-linejoin: miter; stroke-linecap: square"/>
   </g>
  </g>
  <g id="axes_6">
   <g id="patch_17">
    <path d="M 870.275 120.52 
L 1028.59 120.52 
L 1028.59 7.2 
L 870.275 7.2 
z
" style="fill: #ffffff"/>
   </g>
   <g id="PolyCollection_11"/>
   <g id="PolyCollection_12"/>
   <g id="matplotlib.axis_11"/>
   <g id="matplotlib.axis_12">
    <g id="ytick_16">
     <g id="line2d_26">
      <g>
       <use xlink:href="#m832c2986ee" x="870.275" y="111.076667" style="stroke: #000000; stroke-width: 0.8"/>
      </g>
     </g>
    </g>
    <g id="ytick_17">
     <g id="line2d_27">
      <g>
       <use xlink:href="#m832c2986ee" x="870.275" y="63.86" style="stroke: #000000; stroke-width: 0.8"/>
      </g>
     </g>
    </g>
    <g id="ytick_18">
     <g id="line2d_28">
      <g>
       <use xlink:href="#m832c2986ee" x="870.275" y="16.643333" style="stroke: #000000; stroke-width: 0.8"/>
      </g>
     </g>
    </g>
   </g>
   <g id="line2d_29">
    <path d="M 877.471136 63.902568 
L 881.161396 64.243248 
L 884.851856 65.470187 
L 888.542115 64.556435 
L 892.232375 62.562563 
L 895.922835 62.28518 
L 899.613094 63.000325 
L 903.303354 62.542978 
L 906.993814 61.7254 
L 910.684073 63.123588 
L 914.374333 61.229052 
L 918.064793 58.571151 
L 921.755052 56.328431 
L 925.445312 55.111318 
L 929.135772 55.455431 
L 932.826031 49.299469 
L 936.516291 47.289344 
L 940.206751 44.616636 
L 943.89701 41.288378 
L 947.58727 43.008569 
L 951.27773 42.249207 
L 954.96799 46.060083 
L 958.658249 48.734171 
L 962.348709 53.538921 
L 966.038969 50.990923 
L 969.729228 55.294648 
L 973.419688 58.308137 
L 977.109948 60.003628 
L 980.800207 62.788023 
L 984.490667 63.322901 
L 988.180927 66.574637 
L 991.871186 66.530218 
L 995.561646 58.105727 
L 999.251906 64.589211 
L 1002.942165 63.295442 
L 1006.632625 65.191458 
L 1010.322885 63.118843 
L 1014.013144 63.291976 
L 1017.703604 66.213195 
L 1021.393864 69.286683 
" clip-path="url(#p027abc07f9)" style="fill: none; stroke: #ffb000; stroke-width: 2; stroke-linecap: square"/>
   </g>
   <g id="line2d_30">
    <path d="M 877.471136 47.986213 
L 881.161396 45.371156 
L 884.851856 43.079436 
L 888.542115 41.367346 
L 892.232375 48.136446 
L 895.922835 52.837477 
L 899.613094 53.720667 
L 903.303354 53.144015 
L 906.993814 56.376804 
L 910.684073 55.540078 
L 914.374333 51.492897 
L 918.064793 51.330828 
L 921.755052 43.968964 
L 925.445312 42.259394 
L 929.135772 39.113309 
L 932.826031 31.701507 
L 936.516291 29.222138 
L 940.206751 27.184002 
L 943.89701 20.882935 
L 947.58727 25.922727 
L 951.27773 25.823577 
L 954.96799 25.733666 
L 958.658249 34.022701 
L 962.348709 36.672348 
L 966.038969 36.244554 
L 969.729228 42.084879 
L 973.419688 45.409144 
L 977.109948 46.532326 
L 980.800207 44.783356 
L 984.490667 46.687637 
L 988.180927 48.245447 
L 991.871186 48.400911 
L 995.561646 48.580924 
L 999.251906 47.851938 
L 1002.942165 49.151048 
L 1006.632625 53.616439 
L 1010.322885 54.500622 
L 1014.013144 55.78362 
L 1017.703604 53.127063 
L 1021.393864 50.658728 
" clip-path="url(#p027abc07f9)" style="fill: none; stroke: #dc267f; stroke-width: 2; stroke-linecap: square"/>
   </g>
   <g id="patch_18">
    <path d="M 870.275 120.52 
L 870.275 7.2 
" style="fill: none; stroke: #000000; stroke-width: 0.8; stroke-linejoin: miter; stroke-linecap: square"/>
   </g>
   <g id="patch_19">
    <path d="M 870.275 120.52 
L 1028.59 120.52 
" style="fill: none; stroke: #000000; stroke-width: 0.8; stroke-linejoin: miter; stroke-linecap: square"/>
   </g>
  </g>
 </g>
 <defs>
  <clipPath id="pea9262197c">
   <rect x="7.2" y="7.2" width="158.315" height="113.32"/>
  </clipPath>
  <clipPath id="p9be5b1d538">
   <rect x="179.815" y="7.2" width="158.315" height="113.32"/>
  </clipPath>
  <clipPath id="pd1fc557c6c">
   <rect x="352.43" y="7.2" width="158.315" height="113.32"/>
  </clipPath>
  <clipPath id="p464f96570c">
   <rect x="525.045" y="7.2" width="158.315" height="113.32"/>
  </clipPath>
  <clipPath id="p76d48d87d1">
   <rect x="697.66" y="7.2" width="158.315" height="113.32"/>
  </clipPath>
  <clipPath id="p027abc07f9">
   <rect x="870.275" y="7.2" width="158.315" height="113.32"/>
  </clipPath>
 </defs>
</svg>
