<?xml version="1.0" encoding="utf-8" standalone="no"?>
<!DOCTYPE svg PUBLIC "-//W3C//DTD SVG 1.1//EN"
  "http://www.w3.org/Graphics/SVG/1.1/DTD/svg11.dtd">
<svg xmlns:xlink="http://www.w3.org/1999/xlink" width="1035.79pt" height="127.61875pt" viewBox="0 0 1035.79 127.61875" xmlns="http://www.w3.org/2000/svg" version="1.1">
 <metadata>
  <rdf:RDF xmlns:dc="http://purl.org/dc/elements/1.1/" xmlns:cc="http://creativecommons.org/ns#" xmlns:rdf="http://www.w3.org/1999/02/22-rdf-syntax-ns#">
   <cc:Work>
    <dc:type rdf:resource="http://purl.org/dc/dcmitype/StillImage"/>
    <dc:date>2024-12-11T14:52:03.841536</dc:date>
    <dc:format>image/svg+xml</dc:format>
    <dc:creator>
     <cc:Agent>
      <dc:title>Matplotlib v3.7.2, https://matplotlib.org/</dc:title>
     </cc:Agent>
    </dc:creator>
   </cc:Work>
  </rdf:RDF>
 </metadata>
 <defs>
  <style type="text/css">*{stroke-linejoin: round; stroke-linecap: butt}</style>
 </defs>
 <g id="figure_1">
  <g id="patch_1">
   <path d="M 0 127.61875 
L 1035.79 127.61875 
L 1035.79 0 
L 0 0 
z
" style="fill: #ffffff"/>
  </g>
  <g id="axes_1">
   <g id="patch_2">
    <path d="M 7.2 120.41875 
L 165.515 120.41875 
L 165.515 7.2 
L 7.2 7.2 
z
" style="fill: #ffffff"/>
   </g>
   <g id="PolyCollection_1"/>
   <g id="PolyCollection_2"/>
   <g id="matplotlib.axis_1"/>
   <g id="matplotlib.axis_2">
    <g id="ytick_1">
     <g id="line2d_1">
      <defs>
       <path id="m82571e3bf3" d="M 0 0 
L 3.5 0 
" style="stroke: #000000; stroke-width: 0.8"/>
      </defs>
      <g>
       <use xlink:href="#m82571e3bf3" x="7.2" y="110.983854" style="stroke: #000000; stroke-width: 0.8"/>
      </g>
     </g>
     <g id="text_1">
      <!-- 0.0 -->
      <g transform="translate(13.345313 116.682682) scale(0.15 -0.15)">
       <defs>
        <path id="DejaVuSans-30" d="M 2034 4250 
Q 1547 4250 1301 3770 
Q 1056 3291 1056 2328 
Q 1056 1369 1301 889 
Q 1547 409 2034 409 
Q 2525 409 2770 889 
Q 3016 1369 3016 2328 
Q 3016 3291 2770 3770 
Q 2525 4250 2034 4250 
z
M 2034 4750 
Q 2819 4750 3233 4129 
Q 3647 3509 3647 2328 
Q 3647 1150 3233 529 
Q 2819 -91 2034 -91 
Q 1250 -91 836 529 
Q 422 1150 422 2328 
Q 422 3509 836 4129 
Q 1250 4750 2034 4750 
z
" transform="scale(0.015625)"/>
        <path id="DejaVuSans-2e" d="M 684 794 
L 1344 794 
L 1344 0 
L 684 0 
L 684 794 
z
" transform="scale(0.015625)"/>
       </defs>
       <use xlink:href="#DejaVuSans-30"/>
       <use xlink:href="#DejaVuSans-2e" x="63.623047"/>
       <use xlink:href="#DejaVuSans-30" x="95.410156"/>
      </g>
     </g>
    </g>
    <g id="ytick_2">
     <g id="line2d_2">
      <g>
       <use xlink:href="#m82571e3bf3" x="7.2" y="63.809375" style="stroke: #000000; stroke-width: 0.8"/>
      </g>
     </g>
     <g id="text_2">
      <!-- 0.5 -->
      <g transform="translate(13.345313 69.508203) scale(0.15 -0.15)">
       <defs>
        <path id="DejaVuSans-35" d="M 691 4666 
L 3169 4666 
L 3169 4134 
L 1269 4134 
L 1269 2991 
Q 1406 3038 1543 3061 
Q 1681 3084 1819 3084 
Q 2600 3084 3056 2656 
Q 3513 2228 3513 1497 
Q 3513 744 3044 326 
Q 2575 -91 1722 -91 
Q 1428 -91 1123 -41 
Q 819 9 494 109 
L 494 744 
Q 775 591 1075 516 
Q 1375 441 1709 441 
Q 2250 441 2565 725 
Q 2881 1009 2881 1497 
Q 2881 1984 2565 2268 
Q 2250 2553 1709 2553 
Q 1456 2553 1204 2497 
Q 953 2441 691 2322 
L 691 4666 
z
" transform="scale(0.015625)"/>
       </defs>
       <use xlink:href="#DejaVuSans-30"/>
       <use xlink:href="#DejaVuSans-2e" x="63.623047"/>
       <use xlink:href="#DejaVuSans-35" x="95.410156"/>
      </g>
     </g>
    </g>
    <g id="ytick_3">
     <g id="line2d_3">
      <g>
       <use xlink:href="#m82571e3bf3" x="7.2" y="16.634896" style="stroke: #000000; stroke-width: 0.8"/>
      </g>
     </g>
     <g id="text_3">
      <!-- 1.0 -->
      <g transform="translate(13.345313 22.333724) scale(0.15 -0.15)">
       <defs>
        <path id="DejaVuSans-31" d="M 794 531 
L 1825 531 
L 1825 4091 
L 703 3866 
L 703 4441 
L 1819 4666 
L 2450 4666 
L 2450 531 
L 3481 531 
L 3481 0 
L 794 0 
L 794 531 
z
" transform="scale(0.015625)"/>
       </defs>
       <use xlink:href="#DejaVuSans-31"/>
       <use xlink:href="#DejaVuSans-2e" x="63.623047"/>
       <use xlink:href="#DejaVuSans-30" x="95.410156"/>
      </g>
     </g>
    </g>
   </g>
   <g id="line2d_4">
    <path d="M 14.396136 66.628928 
L 17.994141 64.613643 
L 21.592341 66.481031 
L 25.190346 66.684395 
L 28.78835 65.74146 
L 32.386551 69.365303 
L 35.984555 70.788935 
L 39.58256 71.158721 
L 43.18076 72.582375 
L 46.778765 74.042992 
L 50.376769 76.538996 
L 53.97497 75.392676 
L 57.572974 74.357311 
L 61.170979 73.340406 
L 64.769179 72.249574 
L 68.367184 72.915175 
L 71.965188 73.321924 
L 75.563389 73.78414 
L 79.161393 74.468245 
L 82.759397 73.007605 
L 86.357598 71.879789 
L 89.955603 72.841205 
L 93.553607 72.841205 
L 97.151808 71.325121 
L 100.749812 70.807439 
L 104.347816 72.046189 
L 107.946017 72.305041 
L 111.544021 70.973839 
L 115.142026 72.212589 
L 118.740226 71.454536 
L 122.338231 67.608848 
L 125.936235 66.092764 
L 129.534436 66.591965 
L 133.13244 67.05418 
L 136.730445 68.995517 
L 140.328645 71.325121 
L 143.92665 72.415975 
L 147.524654 75.078379 
L 151.122855 75.448143 
L 154.720859 74.338807 
L 158.318864 74.671608 
" clip-path="url(#p6b78ef9dd7)" style="fill: none; stroke: #ffb000; stroke-width: 2; stroke-linecap: square"/>
   </g>
   <g id="line2d_5">
    <path d="M 14.396136 67.259771 
L 17.994141 67.26653 
L 21.592341 70.116511 
L 25.190346 66.776928 
L 28.78835 66.468391 
L 32.386551 66.025866 
L 35.984555 63.705564 
L 39.58256 60.949255 
L 43.18076 63.403787 
L 46.778765 63.987061 
L 50.376769 65.261284 
L 53.97497 63.672006 
L 57.572974 64.27556 
L 61.170979 64.369473 
L 64.769179 62.136324 
L 68.367184 58.709346 
L 71.965188 59.889656 
L 75.563389 61.150359 
L 79.161393 57.408326 
L 82.759397 61.854585 
L 86.357598 63.571333 
L 89.955603 60.352461 
L 93.553607 60.922457 
L 97.151808 66.569064 
L 100.749812 68.956481 
L 104.347816 71.162832 
L 107.946017 73.630642 
L 111.544021 72.638158 
L 115.142026 74.971738 
L 118.740226 78.143775 
L 122.338231 78.941914 
L 125.936235 80.068387 
L 129.534436 81.020794 
L 133.13244 79.256969 
L 136.730445 79.880802 
L 140.328645 81.45656 
L 143.92665 80.69222 
L 147.524654 82.060114 
L 151.122855 82.509641 
L 154.720859 81.262216 
L 158.318864 82.013278 
" clip-path="url(#p6b78ef9dd7)" style="fill: none; stroke: #dc267f; stroke-width: 2; stroke-linecap: square"/>
   </g>
   <g id="patch_3">
    <path d="M 7.2 120.41875 
L 7.2 7.2 
" style="fill: none; stroke: #000000; stroke-width: 0.8; stroke-linejoin: miter; stroke-linecap: square"/>
   </g>
   <g id="patch_4">
    <path d="M 7.2 120.41875 
L 165.515 120.41875 
" style="fill: none; stroke: #000000; stroke-width: 0.8; stroke-linejoin: miter; stroke-linecap: square"/>
   </g>
  </g>
  <g id="axes_2">
   <g id="patch_5">
    <path d="M 179.815 120.41875 
L 338.13 120.41875 
L 338.13 7.2 
L 179.815 7.2 
z
" style="fill: #ffffff"/>
   </g>
   <g id="PolyCollection_3"/>
   <g id="PolyCollection_4"/>
   <g id="matplotlib.axis_3"/>
   <g id="matplotlib.axis_4">
    <g id="ytick_4">
     <g id="line2d_6">
      <g>
       <use xlink:href="#m82571e3bf3" x="179.815" y="110.983854" style="stroke: #000000; stroke-width: 0.8"/>
      </g>
     </g>
    </g>
    <g id="ytick_5">
     <g id="line2d_7">
      <g>
       <use xlink:href="#m82571e3bf3" x="179.815" y="63.809375" style="stroke: #000000; stroke-width: 0.8"/>
      </g>
     </g>
    </g>
    <g id="ytick_6">
     <g id="line2d_8">
      <g>
       <use xlink:href="#m82571e3bf3" x="179.815" y="16.634896" style="stroke: #000000; stroke-width: 0.8"/>
      </g>
     </g>
    </g>
   </g>
   <g id="line2d_9">
    <path d="M 187.011136 72.71179 
L 190.609141 74.412778 
L 194.207341 72.785738 
L 197.805346 71.158721 
L 201.40335 72.342004 
L 205.001551 73.654725 
L 208.599555 74.616141 
L 212.19756 74.468245 
L 215.79576 74.320326 
L 219.393765 76.021314 
L 222.991769 76.908782 
L 226.58997 76.058277 
L 230.187974 75.503609 
L 233.785979 74.967446 
L 237.384179 74.11694 
L 240.982184 74.190911 
L 244.580188 71.842803 
L 248.178389 67.553381 
L 251.776393 64.114442 
L 255.374397 61.96972 
L 258.972598 60.342703 
L 262.570603 60.675503 
L 266.168607 63.393374 
L 269.766808 65.963327 
L 273.364812 70.511601 
L 276.962816 71.824322 
L 280.561017 72.693308 
L 284.159021 74.690112 
L 287.757026 74.11694 
L 291.355226 73.580777 
L 294.953231 73.802644 
L 298.551235 74.579178 
L 302.149436 75.503609 
L 305.74744 76.335611 
L 309.345445 74.819527 
L 312.943645 75.133846 
L 316.54165 75.688513 
L 320.139654 73.765658 
L 323.737855 73.913577 
L 327.335859 74.283341 
L 330.933864 74.227874 
" clip-path="url(#p443e6194b8)" style="fill: none; stroke: #ffb000; stroke-width: 2; stroke-linecap: square"/>
   </g>
   <g id="line2d_10">
    <path d="M 187.011136 68.956408 
L 190.609141 62.880627 
L 194.207341 58.43444 
L 197.805346 59.359905 
L 201.40335 58.293619 
L 205.001551 57.488889 
L 208.599555 58.474685 
L 212.19756 61.975296 
L 215.79576 62.981227 
L 219.393765 62.900737 
L 222.991769 64.490111 
L 226.58997 63.303114 
L 230.187974 65.314952 
L 233.785979 66.522059 
L 237.384179 66.059351 
L 240.982184 68.473565 
L 244.580188 71.229778 
L 248.178389 70.465292 
L 251.776393 70.324447 
L 255.374397 67.165858 
L 258.972598 64.107844 
L 262.570603 65.516152 
L 266.168607 64.972954 
L 269.766808 67.507879 
L 273.364812 69.11734 
L 276.962816 70.404937 
L 280.561017 73.442816 
L 284.159021 71.632155 
L 287.757026 70.10316 
L 291.355226 72.255819 
L 294.953231 71.169422 
L 298.551235 69.841604 
L 302.149436 70.042805 
L 305.74744 69.922094 
L 309.345445 70.545758 
L 312.943645 70.847535 
L 316.54165 70.586003 
L 320.139654 71.088957 
L 323.737855 71.833331 
L 327.335859 71.209667 
L 330.933864 71.793111 
" clip-path="url(#p443e6194b8)" style="fill: none; stroke: #dc267f; stroke-width: 2; stroke-linecap: square"/>
   </g>
   <g id="patch_6">
    <path d="M 179.815 120.41875 
L 179.815 7.2 
" style="fill: none; stroke: #000000; stroke-width: 0.8; stroke-linejoin: miter; stroke-linecap: square"/>
   </g>
   <g id="patch_7">
    <path d="M 179.815 120.41875 
L 338.13 120.41875 
" style="fill: none; stroke: #000000; stroke-width: 0.8; stroke-linejoin: miter; stroke-linecap: square"/>
   </g>
  </g>
  <g id="axes_3">
   <g id="patch_8">
    <path d="M 352.43 120.41875 
L 510.745 120.41875 
L 510.745 7.2 
L 352.43 7.2 
z
" style="fill: #ffffff"/>
   </g>
   <g id="PolyCollection_5"/>
   <g id="PolyCollection_6"/>
   <g id="matplotlib.axis_5"/>
   <g id="matplotlib.axis_6">
    <g id="ytick_7">
     <g id="line2d_11">
      <g>
       <use xlink:href="#m82571e3bf3" x="352.43" y="110.983854" style="stroke: #000000; stroke-width: 0.8"/>
      </g>
     </g>
    </g>
    <g id="ytick_8">
     <g id="line2d_12">
      <g>
       <use xlink:href="#m82571e3bf3" x="352.43" y="63.809375" style="stroke: #000000; stroke-width: 0.8"/>
      </g>
     </g>
    </g>
    <g id="ytick_9">
     <g id="line2d_13">
      <g>
       <use xlink:href="#m82571e3bf3" x="352.43" y="16.634896" style="stroke: #000000; stroke-width: 0.8"/>
      </g>
     </g>
    </g>
   </g>
   <g id="line2d_14">
    <path d="M 359.626136 68.366968 
L 363.224141 70.82592 
L 366.822341 71.454469 
L 370.420346 70.65952 
L 374.01835 71.509936 
L 377.616551 72.268056 
L 381.214555 72.009137 
L 384.81256 69.716585 
L 388.41076 69.735 
L 392.008765 67.331514 
L 395.606769 68.866169 
L 399.20497 69.642703 
L 402.802974 68.884584 
L 406.400979 69.180332 
L 409.999179 68.718183 
L 413.597184 66.111246 
L 417.195188 63.485893 
L 420.793389 60.287236 
L 424.391393 56.774415 
L 427.989397 54.333877 
L 431.587598 47.492829 
L 435.185603 45.089344 
L 438.783607 43.758141 
L 442.381808 48.066134 
L 445.979812 55.258176 
L 449.577816 59.658686 
L 453.176017 62.690721 
L 456.774021 67.701367 
L 460.372026 68.884584 
L 463.970226 70.511535 
L 467.568231 70.733402 
L 471.166235 71.639507 
L 474.764436 72.471508 
L 478.36244 68.718183 
L 481.960445 70.345134 
L 485.558645 70.086437 
L 489.15665 72.064604 
L 492.754654 73.691777 
L 496.352855 73.284873 
L 499.950859 75.374194 
L 503.548864 73.96911 
" clip-path="url(#p2097404372)" style="fill: none; stroke: #ffb000; stroke-width: 2; stroke-linecap: square"/>
   </g>
   <g id="line2d_15">
    <path d="M 359.626136 64.590687 
L 363.224141 68.272365 
L 366.822341 64.148089 
L 370.420346 63.182403 
L 374.01835 60.466412 
L 377.616551 62.940982 
L 381.214555 63.142158 
L 384.81256 62.055762 
L 388.41076 63.665246 
L 392.008765 66.441593 
L 395.606769 66.823836 
L 399.20497 67.809656 
L 402.802974 68.111433 
L 406.400979 70.545758 
L 409.999179 68.916163 
L 413.597184 69.399006 
L 417.195188 67.568235 
L 420.793389 63.544536 
L 424.391393 64.932709 
L 427.989397 61.331497 
L 431.587598 61.331497 
L 435.185603 62.498384 
L 438.783607 66.019106 
L 442.381808 66.079461 
L 445.979812 68.071188 
L 449.577816 67.387169 
L 453.176017 68.674742 
L 456.774021 68.775342 
L 460.372026 70.042805 
L 463.970226 73.523282 
L 467.568231 70.948135 
L 471.166235 71.209667 
L 474.764436 70.586003 
L 478.36244 71.330378 
L 481.960445 72.819152 
L 485.558645 72.175353 
L 489.15665 70.586003 
L 492.754654 71.310268 
L 496.352855 70.90789 
L 499.950859 71.793111 
L 503.548864 71.69251 
" clip-path="url(#p2097404372)" style="fill: none; stroke: #dc267f; stroke-width: 2; stroke-linecap: square"/>
   </g>
   <g id="patch_9">
    <path d="M 352.43 120.41875 
L 352.43 7.2 
" style="fill: none; stroke: #000000; stroke-width: 0.8; stroke-linejoin: miter; stroke-linecap: square"/>
   </g>
   <g id="patch_10">
    <path d="M 352.43 120.41875 
L 510.745 120.41875 
" style="fill: none; stroke: #000000; stroke-width: 0.8; stroke-linejoin: miter; stroke-linecap: square"/>
   </g>
  </g>
  <g id="axes_4">
   <g id="patch_11">
    <path d="M 525.045 120.41875 
L 683.36 120.41875 
L 683.36 7.2 
L 525.045 7.2 
z
" style="fill: #ffffff"/>
   </g>
   <g id="PolyCollection_7"/>
   <g id="PolyCollection_8"/>
   <g id="matplotlib.axis_7"/>
   <g id="matplotlib.axis_8">
    <g id="ytick_10">
     <g id="line2d_16">
      <g>
       <use xlink:href="#m82571e3bf3" x="525.045" y="110.983854" style="stroke: #000000; stroke-width: 0.8"/>
      </g>
     </g>
    </g>
    <g id="ytick_11">
     <g id="line2d_17">
      <g>
       <use xlink:href="#m82571e3bf3" x="525.045" y="63.809375" style="stroke: #000000; stroke-width: 0.8"/>
      </g>
     </g>
    </g>
    <g id="ytick_12">
     <g id="line2d_18">
      <g>
       <use xlink:href="#m82571e3bf3" x="525.045" y="16.634896" style="stroke: #000000; stroke-width: 0.8"/>
      </g>
     </g>
    </g>
   </g>
   <g id="line2d_19">
    <path d="M 532.241136 72.452871 
L 535.839141 71.306706 
L 539.437341 71.990722 
L 543.035346 71.473106 
L 546.63335 70.437653 
L 550.231551 71.288069 
L 553.829555 71.251239 
L 557.42756 70.585638 
L 561.02576 69.587236 
L 564.623765 64.650695 
L 568.221769 61.322689 
L 571.81997 55.86831 
L 575.417974 60.416584 
L 579.015979 56.755778 
L 582.614179 50.229337 
L 586.212184 41.151204 
L 589.810188 35.419712 
L 593.408389 27.96853 
L 597.006393 16.634896 
L 600.604397 19.260249 
L 604.202598 20.628503 
L 607.800603 24.344775 
L 611.398607 26.175179 
L 614.996808 33.626139 
L 618.594812 39.283749 
L 622.192816 41.816805 
L 625.791017 48.361882 
L 629.389021 55.406161 
L 632.987026 59.214952 
L 636.585226 61.636853 
L 640.183231 61.710957 
L 643.781235 62.838707 
L 647.379436 68.588835 
L 650.97744 67.4795 
L 654.575445 71.362173 
L 658.173645 74.560608 
L 661.77165 74.264859 
L 665.369654 73.599258 
L 668.967855 72.71179 
L 672.565859 71.657922 
L 676.163864 74.819527 
" clip-path="url(#p5f26e736eb)" style="fill: none; stroke: #ffb000; stroke-width: 2; stroke-linecap: square"/>
   </g>
   <g id="line2d_20">
    <path d="M 532.241136 67.407279 
L 535.839141 66.924436 
L 539.437341 66.944474 
L 543.035346 67.185896 
L 546.63335 64.469904 
L 550.231551 65.234486 
L 553.829555 64.912671 
L 557.42756 64.510222 
L 561.02576 66.240489 
L 564.623765 64.228483 
L 568.221769 60.989572 
L 571.81997 58.957528 
L 575.417974 56.221498 
L 579.015979 50.910226 
L 582.614179 44.552633 
L 586.212184 39.684128 
L 589.810188 31.857968 
L 593.408389 25.399944 
L 597.006393 21.718266 
L 600.604397 17.312324 
L 604.202598 17.714774 
L 607.800603 22.72427 
L 611.398607 25.762076 
L 614.996808 26.305274 
L 618.594812 33.728984 
L 622.192816 39.804838 
L 625.791017 43.68762 
L 629.389021 47.872178 
L 632.987026 51.976343 
L 636.585226 54.430875 
L 640.183231 54.793007 
L 643.781235 58.655751 
L 647.379436 60.748151 
L 650.97744 61.110283 
L 654.575445 61.39178 
L 658.173645 63.021375 
L 661.77165 62.598888 
L 665.369654 62.417822 
L 668.967855 64.369473 
L 672.565859 64.932709 
L 676.163864 65.395514 
" clip-path="url(#p5f26e736eb)" style="fill: none; stroke: #dc267f; stroke-width: 2; stroke-linecap: square"/>
   </g>
   <g id="patch_12">
    <path d="M 525.045 120.41875 
L 525.045 7.2 
" style="fill: none; stroke: #000000; stroke-width: 0.8; stroke-linejoin: miter; stroke-linecap: square"/>
   </g>
   <g id="patch_13">
    <path d="M 525.045 120.41875 
L 683.36 120.41875 
" style="fill: none; stroke: #000000; stroke-width: 0.8; stroke-linejoin: miter; stroke-linecap: square"/>
   </g>
  </g>
  <g id="axes_5">
   <g id="patch_14">
    <path d="M 697.66 120.41875 
L 855.975 120.41875 
L 855.975 7.2 
L 697.66 7.2 
z
" style="fill: #ffffff"/>
   </g>
   <g id="PolyCollection_9"/>
   <g id="PolyCollection_10"/>
   <g id="matplotlib.axis_9"/>
   <g id="matplotlib.axis_10">
    <g id="ytick_13">
     <g id="line2d_21">
      <g>
       <use xlink:href="#m82571e3bf3" x="697.66" y="110.983854" style="stroke: #000000; stroke-width: 0.8"/>
      </g>
     </g>
    </g>
    <g id="ytick_14">
     <g id="line2d_22">
      <g>
       <use xlink:href="#m82571e3bf3" x="697.66" y="63.809375" style="stroke: #000000; stroke-width: 0.8"/>
      </g>
     </g>
    </g>
    <g id="ytick_15">
     <g id="line2d_23">
      <g>
       <use xlink:href="#m82571e3bf3" x="697.66" y="16.634896" style="stroke: #000000; stroke-width: 0.8"/>
      </g>
     </g>
    </g>
   </g>
   <g id="line2d_24">
    <path d="M 704.856136 72.54539 
L 708.454141 72.526975 
L 712.052341 70.234201 
L 715.650346 68.052582 
L 719.24835 66.037364 
L 722.846551 67.146699 
L 726.444555 66.148297 
L 730.04256 62.931225 
L 733.64076 62.339506 
L 737.238765 61.673905 
L 740.836769 58.013099 
L 744.43497 54.056544 
L 748.032974 50.192285 
L 751.630979 45.828826 
L 755.229179 41.132789 
L 758.827184 34.88346 
L 762.425188 32.775723 
L 766.023389 29.614118 
L 769.621393 21.848771 
L 773.219397 18.520766 
L 776.817598 21.904238 
L 780.415603 23.642123 
L 784.013607 26.526394 
L 787.611808 31.315172 
L 791.209812 35.086912 
L 794.807816 42.334421 
L 798.406017 52.133622 
L 802.004021 61.414986 
L 805.602026 64.558176 
L 809.200226 63.282441 
L 812.798231 62.487491 
L 816.396235 65.334711 
L 819.994436 65.501111 
L 823.59244 64.484295 
L 827.190445 67.923234 
L 830.788645 68.218982 
L 834.38665 69.439251 
L 837.984654 70.437653 
L 841.582855 68.681131 
L 845.180859 69.106451 
L 848.778864 70.530171 
" clip-path="url(#pb9b5a5887c)" style="fill: none; stroke: #ffb000; stroke-width: 2; stroke-linecap: square"/>
   </g>
   <g id="line2d_25">
    <path d="M 704.856136 72.966733 
L 708.454141 71.974249 
L 712.052341 70.438567 
L 715.650346 67.682258 
L 719.24835 64.845556 
L 722.846551 65.737367 
L 726.444555 64.375991 
L 730.04256 62.598888 
L 733.64076 63.712082 
L 737.238765 56.040432 
L 740.836769 54.068743 
L 744.43497 60.211471 
L 748.032974 56.402564 
L 751.630979 51.399587 
L 755.229179 46.645033 
L 758.827184 43.68762 
L 762.425188 36.297467 
L 766.023389 25.929622 
L 769.621393 16.634896 
L 773.219397 22.744308 
L 776.817598 26.419225 
L 780.415603 32.548675 
L 784.013607 26.037055 
L 787.611808 24.79639 
L 791.209812 35.211071 
L 794.807816 42.333004 
L 798.406017 44.619748 
L 802.004021 48.006409 
L 805.602026 47.818583 
L 809.200226 51.849114 
L 812.798231 56.348727 
L 816.396235 59.869618 
L 819.994436 62.739878 
L 823.59244 65.57658 
L 827.190445 66.689775 
L 830.788645 67.340164 
L 834.38665 70.217184 
L 837.984654 69.191142 
L 841.582855 68.775415 
L 845.180859 67.253011 
L 848.778864 71.987527 
" clip-path="url(#pb9b5a5887c)" style="fill: none; stroke: #dc267f; stroke-width: 2; stroke-linecap: square"/>
   </g>
   <g id="patch_15">
    <path d="M 697.66 120.41875 
L 697.66 7.2 
" style="fill: none; stroke: #000000; stroke-width: 0.8; stroke-linejoin: miter; stroke-linecap: square"/>
   </g>
   <g id="patch_16">
    <path d="M 697.66 120.41875 
L 855.975 120.41875 
" style="fill: none; stroke: #000000; stroke-width: 0.8; stroke-linejoin: miter; stroke-linecap: square"/>
   </g>
  </g>
  <g id="axes_6">
   <g id="patch_17">
    <path d="M 870.275 120.41875 
L 1028.59 120.41875 
L 1028.59 7.2 
L 870.275 7.2 
z
" style="fill: #ffffff"/>
   </g>
   <g id="PolyCollection_11"/>
   <g id="PolyCollection_12"/>
   <g id="matplotlib.axis_11"/>
   <g id="matplotlib.axis_12">
    <g id="ytick_16">
     <g id="line2d_26">
      <g>
       <use xlink:href="#m82571e3bf3" x="870.275" y="110.983854" style="stroke: #000000; stroke-width: 0.8"/>
      </g>
     </g>
    </g>
    <g id="ytick_17">
     <g id="line2d_27">
      <g>
       <use xlink:href="#m82571e3bf3" x="870.275" y="63.809375" style="stroke: #000000; stroke-width: 0.8"/>
      </g>
     </g>
    </g>
    <g id="ytick_18">
     <g id="line2d_28">
      <g>
       <use xlink:href="#m82571e3bf3" x="870.275" y="16.634896" style="stroke: #000000; stroke-width: 0.8"/>
      </g>
     </g>
    </g>
   </g>
   <g id="line2d_29">
    <path d="M 877.471136 68.329916 
L 881.069141 68.329916 
L 884.667341 68.662716 
L 888.265346 69.827518 
L 891.86335 69.716585 
L 895.461551 70.770453 
L 899.059555 69.882985 
L 902.65756 69.494718 
L 906.25576 68.829117 
L 909.853765 67.553381 
L 913.451769 68.218982 
L 917.04997 67.997115 
L 920.647974 64.114442 
L 924.245979 59.954435 
L 927.844179 55.794428 
L 931.442184 49.08295 
L 935.040188 44.867477 
L 938.638389 41.650404 
L 942.236393 37.434931 
L 945.834397 37.712265 
L 949.432598 36.436529 
L 953.030603 36.325596 
L 956.628607 44.312809 
L 960.226808 50.63602 
L 963.824812 54.629626 
L 967.422816 59.177901 
L 971.021017 63.892575 
L 974.619021 65.944845 
L 978.217026 66.943247 
L 981.815226 68.718183 
L 985.413231 69.383784 
L 989.011235 70.714987 
L 992.609436 70.326719 
L 996.20744 70.548586 
L 999.805445 71.436054 
L 1003.403645 70.99232 
L 1007.00165 71.158721 
L 1010.599654 72.101656 
L 1014.197855 72.212589 
L 1017.795859 70.936854 
L 1021.393864 69.494718 
" clip-path="url(#p7a92651c98)" style="fill: none; stroke: #ffb000; stroke-width: 2; stroke-linecap: square"/>
   </g>
   <g id="line2d_30">
    <path d="M 877.471136 71.135792 
L 881.069141 72.772147 
L 884.667341 73.006809 
L 888.265346 76.064894 
L 891.86335 72.182113 
L 895.461551 72.597841 
L 899.059555 72.396737 
L 902.65756 73.684237 
L 906.25576 69.98904 
L 909.853765 69.942205 
L 913.451769 70.800699 
L 917.04997 66.729851 
L 920.647974 65.355197 
L 924.245979 66.535506 
L 927.844179 66.274047 
L 931.442184 59.614677 
L 935.040188 53.753447 
L 938.638389 48.080042 
L 942.236393 42.976875 
L 945.834397 45.679347 
L 949.432598 40.193768 
L 953.030603 44.612988 
L 956.628607 43.660822 
L 960.226808 48.381819 
L 963.824812 53.927994 
L 967.422816 58.40081 
L 971.021017 58.984326 
L 974.619021 61.318147 
L 978.217026 64.047417 
L 981.815226 64.114532 
L 985.413231 69.86833 
L 989.011235 70.096473 
L 992.609436 73.932419 
L 996.20744 73.617122 
L 999.805445 75.629129 
L 1003.403645 74.361666 
L 1007.00165 75.146286 
L 1010.599654 77.178089 
L 1014.197855 77.225166 
L 1017.795859 78.72729 
L 1021.393864 79.404478 
" clip-path="url(#p7a92651c98)" style="fill: none; stroke: #dc267f; stroke-width: 2; stroke-linecap: square"/>
   </g>
   <g id="patch_18">
    <path d="M 870.275 120.41875 
L 870.275 7.2 
" style="fill: none; stroke: #000000; stroke-width: 0.8; stroke-linejoin: miter; stroke-linecap: square"/>
   </g>
   <g id="patch_19">
    <path d="M 870.275 120.41875 
L 1028.59 120.41875 
" style="fill: none; stroke: #000000; stroke-width: 0.8; stroke-linejoin: miter; stroke-linecap: square"/>
   </g>
  </g>
 </g>
 <defs>
  <clipPath id="p6b78ef9dd7">
   <rect x="7.2" y="7.2" width="158.315" height="113.21875"/>
  </clipPath>
  <clipPath id="p443e6194b8">
   <rect x="179.815" y="7.2" width="158.315" height="113.21875"/>
  </clipPath>
  <clipPath id="p2097404372">
   <rect x="352.43" y="7.2" width="158.315" height="113.21875"/>
  </clipPath>
  <clipPath id="p5f26e736eb">
   <rect x="525.045" y="7.2" width="158.315" height="113.21875"/>
  </clipPath>
  <clipPath id="pb9b5a5887c">
   <rect x="697.66" y="7.2" width="158.315" height="113.21875"/>
  </clipPath>
  <clipPath id="p7a92651c98">
   <rect x="870.275" y="7.2" width="158.315" height="113.21875"/>
  </clipPath>
 </defs>
</svg>
